%TF.GenerationSoftware,KiCad,Pcbnew,6.0.6-1.fc36*%
%TF.CreationDate,2022-07-31T22:14:55+02:00*%
%TF.ProjectId,CosmicWatch-ventidue,436f736d-6963-4576-9174-63682d76656e,2.5*%
%TF.SameCoordinates,Original*%
%TF.FileFunction,Soldermask,Bot*%
%TF.FilePolarity,Negative*%
%FSLAX46Y46*%
G04 Gerber Fmt 4.6, Leading zero omitted, Abs format (unit mm)*
G04 Created by KiCad (PCBNEW 6.0.6-1.fc36) date 2022-07-31 22:14:55*
%MOMM*%
%LPD*%
G01*
G04 APERTURE LIST*
G04 Aperture macros list*
%AMRoundRect*
0 Rectangle with rounded corners*
0 $1 Rounding radius*
0 $2 $3 $4 $5 $6 $7 $8 $9 X,Y pos of 4 corners*
0 Add a 4 corners polygon primitive as box body*
4,1,4,$2,$3,$4,$5,$6,$7,$8,$9,$2,$3,0*
0 Add four circle primitives for the rounded corners*
1,1,$1+$1,$2,$3*
1,1,$1+$1,$4,$5*
1,1,$1+$1,$6,$7*
1,1,$1+$1,$8,$9*
0 Add four rect primitives between the rounded corners*
20,1,$1+$1,$2,$3,$4,$5,0*
20,1,$1+$1,$4,$5,$6,$7,0*
20,1,$1+$1,$6,$7,$8,$9,0*
20,1,$1+$1,$8,$9,$2,$3,0*%
G04 Aperture macros list end*
%ADD10C,0.000100*%
%ADD11RoundRect,0.250000X0.350000X0.625000X-0.350000X0.625000X-0.350000X-0.625000X0.350000X-0.625000X0*%
%ADD12O,1.200000X1.750000*%
%ADD13R,1.700000X1.700000*%
%ADD14O,1.700000X1.700000*%
%ADD15C,0.500000*%
%ADD16R,2.000000X2.000000*%
%ADD17C,2.000000*%
%ADD18C,1.308000*%
%ADD19C,1.258000*%
%ADD20C,1.208000*%
%ADD21RoundRect,0.200000X0.200000X0.450000X-0.200000X0.450000X-0.200000X-0.450000X0.200000X-0.450000X0*%
%ADD22O,0.800000X1.300000*%
%ADD23C,3.250000*%
%ADD24RoundRect,0.250500X-0.499500X-0.499500X0.499500X-0.499500X0.499500X0.499500X-0.499500X0.499500X0*%
%ADD25C,1.500000*%
%ADD26C,2.500000*%
%ADD27RoundRect,0.250000X-0.475000X0.337500X-0.475000X-0.337500X0.475000X-0.337500X0.475000X0.337500X0*%
%ADD28RoundRect,0.250000X-0.337500X-0.475000X0.337500X-0.475000X0.337500X0.475000X-0.337500X0.475000X0*%
%ADD29RoundRect,0.250000X0.337500X0.475000X-0.337500X0.475000X-0.337500X-0.475000X0.337500X-0.475000X0*%
%ADD30R,1.560000X0.650000*%
%ADD31R,2.000000X0.650000*%
%ADD32RoundRect,0.250000X-0.350000X-0.450000X0.350000X-0.450000X0.350000X0.450000X-0.350000X0.450000X0*%
%ADD33RoundRect,0.090000X0.210000X-0.647500X0.210000X0.647500X-0.210000X0.647500X-0.210000X-0.647500X0*%
%ADD34RoundRect,0.090000X-0.647500X-0.210000X0.647500X-0.210000X0.647500X0.210000X-0.647500X0.210000X0*%
%ADD35RoundRect,0.090000X-0.210000X0.647500X-0.210000X-0.647500X0.210000X-0.647500X0.210000X0.647500X0*%
%ADD36RoundRect,0.090000X0.647500X0.210000X-0.647500X0.210000X-0.647500X-0.210000X0.647500X-0.210000X0*%
%ADD37RoundRect,0.250001X1.074999X-0.462499X1.074999X0.462499X-1.074999X0.462499X-1.074999X-0.462499X0*%
%ADD38RoundRect,0.250000X0.475000X-0.337500X0.475000X0.337500X-0.475000X0.337500X-0.475000X-0.337500X0*%
%ADD39R,0.900000X1.200000*%
%ADD40RoundRect,0.250000X0.350000X0.450000X-0.350000X0.450000X-0.350000X-0.450000X0.350000X-0.450000X0*%
%ADD41R,3.000000X3.000000*%
G04 APERTURE END LIST*
%TO.C,D201*%
G36*
X103362000Y-46751000D02*
G01*
X103384000Y-46755000D01*
X103394000Y-46757000D01*
X103405000Y-46760000D01*
X103425000Y-46768000D01*
X103445000Y-46778000D01*
X103463000Y-46790000D01*
X103481000Y-46804000D01*
X103488000Y-46812000D01*
X103496000Y-46819000D01*
X103510000Y-46837000D01*
X103522000Y-46855000D01*
X103532000Y-46875000D01*
X103540000Y-46895000D01*
X103543000Y-46906000D01*
X103545000Y-46916000D01*
X103549000Y-46938000D01*
X103550000Y-46949000D01*
X103550000Y-48450000D01*
X105051000Y-48450000D01*
X105062000Y-48451000D01*
X105084000Y-48455000D01*
X105094000Y-48457000D01*
X105105000Y-48460000D01*
X105125000Y-48468000D01*
X105145000Y-48478000D01*
X105163000Y-48490000D01*
X105181000Y-48504000D01*
X105188000Y-48512000D01*
X105196000Y-48519000D01*
X105210000Y-48537000D01*
X105222000Y-48555000D01*
X105232000Y-48575000D01*
X105240000Y-48595000D01*
X105243000Y-48606000D01*
X105245000Y-48616000D01*
X105249000Y-48638000D01*
X105250000Y-48649000D01*
X105250000Y-51332000D01*
X105249000Y-51344000D01*
X105245000Y-51368000D01*
X105242000Y-51380000D01*
X105239000Y-51391000D01*
X105235000Y-51402000D01*
X105230000Y-51414000D01*
X105225000Y-51424000D01*
X105219000Y-51435000D01*
X105213000Y-51445000D01*
X105199000Y-51465000D01*
X105183000Y-51483000D01*
X105165000Y-51499000D01*
X105145000Y-51513000D01*
X105135000Y-51519000D01*
X105124000Y-51525000D01*
X105114000Y-51530000D01*
X105102000Y-51535000D01*
X105091000Y-51539000D01*
X105080000Y-51542000D01*
X105068000Y-51545000D01*
X105044000Y-51549000D01*
X105032000Y-51550000D01*
X103550000Y-51550000D01*
X103550000Y-53051000D01*
X103549000Y-53062000D01*
X103545000Y-53084000D01*
X103543000Y-53094000D01*
X103540000Y-53105000D01*
X103532000Y-53125000D01*
X103522000Y-53145000D01*
X103510000Y-53163000D01*
X103496000Y-53181000D01*
X103488000Y-53188000D01*
X103481000Y-53196000D01*
X103463000Y-53210000D01*
X103445000Y-53222000D01*
X103425000Y-53232000D01*
X103405000Y-53240000D01*
X103394000Y-53243000D01*
X103384000Y-53245000D01*
X103362000Y-53249000D01*
X103351000Y-53250000D01*
X100649000Y-53250000D01*
X100638000Y-53249000D01*
X100616000Y-53245000D01*
X100606000Y-53243000D01*
X100595000Y-53240000D01*
X100575000Y-53232000D01*
X100555000Y-53222000D01*
X100537000Y-53210000D01*
X100519000Y-53196000D01*
X100512000Y-53188000D01*
X100504000Y-53181000D01*
X100490000Y-53163000D01*
X100478000Y-53145000D01*
X100468000Y-53125000D01*
X100460000Y-53105000D01*
X100457000Y-53094000D01*
X100455000Y-53084000D01*
X100451000Y-53062000D01*
X100450000Y-53051000D01*
X100450000Y-51550000D01*
X98958000Y-51550000D01*
X98947000Y-51549000D01*
X98936000Y-51547000D01*
X98924000Y-51545000D01*
X98913000Y-51543000D01*
X98891000Y-51535000D01*
X98881000Y-51531000D01*
X98870000Y-51526000D01*
X98860000Y-51521000D01*
X98850000Y-51515000D01*
X98832000Y-51501000D01*
X98823000Y-51493000D01*
X98814000Y-51486000D01*
X98807000Y-51477000D01*
X98799000Y-51468000D01*
X98785000Y-51450000D01*
X98779000Y-51440000D01*
X98774000Y-51430000D01*
X98769000Y-51419000D01*
X98765000Y-51409000D01*
X98757000Y-51387000D01*
X98755000Y-51376000D01*
X98753000Y-51364000D01*
X98751000Y-51353000D01*
X98750000Y-51342000D01*
X98750000Y-48649000D01*
X98751000Y-48638000D01*
X98755000Y-48616000D01*
X98757000Y-48606000D01*
X98760000Y-48595000D01*
X98768000Y-48575000D01*
X98778000Y-48555000D01*
X98790000Y-48537000D01*
X98804000Y-48519000D01*
X98812000Y-48512000D01*
X98819000Y-48504000D01*
X98837000Y-48490000D01*
X98855000Y-48478000D01*
X98875000Y-48468000D01*
X98895000Y-48460000D01*
X98906000Y-48457000D01*
X98916000Y-48455000D01*
X98938000Y-48451000D01*
X98949000Y-48450000D01*
X100450000Y-48450000D01*
X100450000Y-46958000D01*
X100451000Y-46947000D01*
X100453000Y-46936000D01*
X100455000Y-46924000D01*
X100457000Y-46913000D01*
X100465000Y-46891000D01*
X100469000Y-46881000D01*
X100474000Y-46870000D01*
X100479000Y-46860000D01*
X100485000Y-46850000D01*
X100499000Y-46832000D01*
X100507000Y-46823000D01*
X100514000Y-46814000D01*
X100523000Y-46807000D01*
X100532000Y-46799000D01*
X100550000Y-46785000D01*
X100560000Y-46779000D01*
X100570000Y-46774000D01*
X100581000Y-46769000D01*
X100591000Y-46765000D01*
X100613000Y-46757000D01*
X100624000Y-46755000D01*
X100636000Y-46753000D01*
X100647000Y-46751000D01*
X100658000Y-46750000D01*
X103351000Y-46750000D01*
X103362000Y-46751000D01*
G37*
D10*
X103362000Y-46751000D02*
X103384000Y-46755000D01*
X103394000Y-46757000D01*
X103405000Y-46760000D01*
X103425000Y-46768000D01*
X103445000Y-46778000D01*
X103463000Y-46790000D01*
X103481000Y-46804000D01*
X103488000Y-46812000D01*
X103496000Y-46819000D01*
X103510000Y-46837000D01*
X103522000Y-46855000D01*
X103532000Y-46875000D01*
X103540000Y-46895000D01*
X103543000Y-46906000D01*
X103545000Y-46916000D01*
X103549000Y-46938000D01*
X103550000Y-46949000D01*
X103550000Y-48450000D01*
X105051000Y-48450000D01*
X105062000Y-48451000D01*
X105084000Y-48455000D01*
X105094000Y-48457000D01*
X105105000Y-48460000D01*
X105125000Y-48468000D01*
X105145000Y-48478000D01*
X105163000Y-48490000D01*
X105181000Y-48504000D01*
X105188000Y-48512000D01*
X105196000Y-48519000D01*
X105210000Y-48537000D01*
X105222000Y-48555000D01*
X105232000Y-48575000D01*
X105240000Y-48595000D01*
X105243000Y-48606000D01*
X105245000Y-48616000D01*
X105249000Y-48638000D01*
X105250000Y-48649000D01*
X105250000Y-51332000D01*
X105249000Y-51344000D01*
X105245000Y-51368000D01*
X105242000Y-51380000D01*
X105239000Y-51391000D01*
X105235000Y-51402000D01*
X105230000Y-51414000D01*
X105225000Y-51424000D01*
X105219000Y-51435000D01*
X105213000Y-51445000D01*
X105199000Y-51465000D01*
X105183000Y-51483000D01*
X105165000Y-51499000D01*
X105145000Y-51513000D01*
X105135000Y-51519000D01*
X105124000Y-51525000D01*
X105114000Y-51530000D01*
X105102000Y-51535000D01*
X105091000Y-51539000D01*
X105080000Y-51542000D01*
X105068000Y-51545000D01*
X105044000Y-51549000D01*
X105032000Y-51550000D01*
X103550000Y-51550000D01*
X103550000Y-53051000D01*
X103549000Y-53062000D01*
X103545000Y-53084000D01*
X103543000Y-53094000D01*
X103540000Y-53105000D01*
X103532000Y-53125000D01*
X103522000Y-53145000D01*
X103510000Y-53163000D01*
X103496000Y-53181000D01*
X103488000Y-53188000D01*
X103481000Y-53196000D01*
X103463000Y-53210000D01*
X103445000Y-53222000D01*
X103425000Y-53232000D01*
X103405000Y-53240000D01*
X103394000Y-53243000D01*
X103384000Y-53245000D01*
X103362000Y-53249000D01*
X103351000Y-53250000D01*
X100649000Y-53250000D01*
X100638000Y-53249000D01*
X100616000Y-53245000D01*
X100606000Y-53243000D01*
X100595000Y-53240000D01*
X100575000Y-53232000D01*
X100555000Y-53222000D01*
X100537000Y-53210000D01*
X100519000Y-53196000D01*
X100512000Y-53188000D01*
X100504000Y-53181000D01*
X100490000Y-53163000D01*
X100478000Y-53145000D01*
X100468000Y-53125000D01*
X100460000Y-53105000D01*
X100457000Y-53094000D01*
X100455000Y-53084000D01*
X100451000Y-53062000D01*
X100450000Y-53051000D01*
X100450000Y-51550000D01*
X98958000Y-51550000D01*
X98947000Y-51549000D01*
X98936000Y-51547000D01*
X98924000Y-51545000D01*
X98913000Y-51543000D01*
X98891000Y-51535000D01*
X98881000Y-51531000D01*
X98870000Y-51526000D01*
X98860000Y-51521000D01*
X98850000Y-51515000D01*
X98832000Y-51501000D01*
X98823000Y-51493000D01*
X98814000Y-51486000D01*
X98807000Y-51477000D01*
X98799000Y-51468000D01*
X98785000Y-51450000D01*
X98779000Y-51440000D01*
X98774000Y-51430000D01*
X98769000Y-51419000D01*
X98765000Y-51409000D01*
X98757000Y-51387000D01*
X98755000Y-51376000D01*
X98753000Y-51364000D01*
X98751000Y-51353000D01*
X98750000Y-51342000D01*
X98750000Y-48649000D01*
X98751000Y-48638000D01*
X98755000Y-48616000D01*
X98757000Y-48606000D01*
X98760000Y-48595000D01*
X98768000Y-48575000D01*
X98778000Y-48555000D01*
X98790000Y-48537000D01*
X98804000Y-48519000D01*
X98812000Y-48512000D01*
X98819000Y-48504000D01*
X98837000Y-48490000D01*
X98855000Y-48478000D01*
X98875000Y-48468000D01*
X98895000Y-48460000D01*
X98906000Y-48457000D01*
X98916000Y-48455000D01*
X98938000Y-48451000D01*
X98949000Y-48450000D01*
X100450000Y-48450000D01*
X100450000Y-46958000D01*
X100451000Y-46947000D01*
X100453000Y-46936000D01*
X100455000Y-46924000D01*
X100457000Y-46913000D01*
X100465000Y-46891000D01*
X100469000Y-46881000D01*
X100474000Y-46870000D01*
X100479000Y-46860000D01*
X100485000Y-46850000D01*
X100499000Y-46832000D01*
X100507000Y-46823000D01*
X100514000Y-46814000D01*
X100523000Y-46807000D01*
X100532000Y-46799000D01*
X100550000Y-46785000D01*
X100560000Y-46779000D01*
X100570000Y-46774000D01*
X100581000Y-46769000D01*
X100591000Y-46765000D01*
X100613000Y-46757000D01*
X100624000Y-46755000D01*
X100636000Y-46753000D01*
X100647000Y-46751000D01*
X100658000Y-46750000D01*
X103351000Y-46750000D01*
X103362000Y-46751000D01*
%TO.C,D301*%
G36*
X51362000Y-46751000D02*
G01*
X51384000Y-46755000D01*
X51394000Y-46757000D01*
X51405000Y-46760000D01*
X51425000Y-46768000D01*
X51445000Y-46778000D01*
X51463000Y-46790000D01*
X51481000Y-46804000D01*
X51488000Y-46812000D01*
X51496000Y-46819000D01*
X51510000Y-46837000D01*
X51522000Y-46855000D01*
X51532000Y-46875000D01*
X51540000Y-46895000D01*
X51543000Y-46906000D01*
X51545000Y-46916000D01*
X51549000Y-46938000D01*
X51550000Y-46949000D01*
X51550000Y-48450000D01*
X53051000Y-48450000D01*
X53062000Y-48451000D01*
X53084000Y-48455000D01*
X53094000Y-48457000D01*
X53105000Y-48460000D01*
X53125000Y-48468000D01*
X53145000Y-48478000D01*
X53163000Y-48490000D01*
X53181000Y-48504000D01*
X53188000Y-48512000D01*
X53196000Y-48519000D01*
X53210000Y-48537000D01*
X53222000Y-48555000D01*
X53232000Y-48575000D01*
X53240000Y-48595000D01*
X53243000Y-48606000D01*
X53245000Y-48616000D01*
X53249000Y-48638000D01*
X53250000Y-48649000D01*
X53250000Y-51332000D01*
X53249000Y-51344000D01*
X53245000Y-51368000D01*
X53242000Y-51380000D01*
X53239000Y-51391000D01*
X53235000Y-51402000D01*
X53230000Y-51414000D01*
X53225000Y-51424000D01*
X53219000Y-51435000D01*
X53213000Y-51445000D01*
X53199000Y-51465000D01*
X53183000Y-51483000D01*
X53165000Y-51499000D01*
X53145000Y-51513000D01*
X53135000Y-51519000D01*
X53124000Y-51525000D01*
X53114000Y-51530000D01*
X53102000Y-51535000D01*
X53091000Y-51539000D01*
X53080000Y-51542000D01*
X53068000Y-51545000D01*
X53044000Y-51549000D01*
X53032000Y-51550000D01*
X51550000Y-51550000D01*
X51550000Y-53051000D01*
X51549000Y-53062000D01*
X51545000Y-53084000D01*
X51543000Y-53094000D01*
X51540000Y-53105000D01*
X51532000Y-53125000D01*
X51522000Y-53145000D01*
X51510000Y-53163000D01*
X51496000Y-53181000D01*
X51488000Y-53188000D01*
X51481000Y-53196000D01*
X51463000Y-53210000D01*
X51445000Y-53222000D01*
X51425000Y-53232000D01*
X51405000Y-53240000D01*
X51394000Y-53243000D01*
X51384000Y-53245000D01*
X51362000Y-53249000D01*
X51351000Y-53250000D01*
X48649000Y-53250000D01*
X48638000Y-53249000D01*
X48616000Y-53245000D01*
X48606000Y-53243000D01*
X48595000Y-53240000D01*
X48575000Y-53232000D01*
X48555000Y-53222000D01*
X48537000Y-53210000D01*
X48519000Y-53196000D01*
X48512000Y-53188000D01*
X48504000Y-53181000D01*
X48490000Y-53163000D01*
X48478000Y-53145000D01*
X48468000Y-53125000D01*
X48460000Y-53105000D01*
X48457000Y-53094000D01*
X48455000Y-53084000D01*
X48451000Y-53062000D01*
X48450000Y-53051000D01*
X48450000Y-51550000D01*
X46958000Y-51550000D01*
X46947000Y-51549000D01*
X46936000Y-51547000D01*
X46924000Y-51545000D01*
X46913000Y-51543000D01*
X46891000Y-51535000D01*
X46881000Y-51531000D01*
X46870000Y-51526000D01*
X46860000Y-51521000D01*
X46850000Y-51515000D01*
X46832000Y-51501000D01*
X46823000Y-51493000D01*
X46814000Y-51486000D01*
X46807000Y-51477000D01*
X46799000Y-51468000D01*
X46785000Y-51450000D01*
X46779000Y-51440000D01*
X46774000Y-51430000D01*
X46769000Y-51419000D01*
X46765000Y-51409000D01*
X46757000Y-51387000D01*
X46755000Y-51376000D01*
X46753000Y-51364000D01*
X46751000Y-51353000D01*
X46750000Y-51342000D01*
X46750000Y-48649000D01*
X46751000Y-48638000D01*
X46755000Y-48616000D01*
X46757000Y-48606000D01*
X46760000Y-48595000D01*
X46768000Y-48575000D01*
X46778000Y-48555000D01*
X46790000Y-48537000D01*
X46804000Y-48519000D01*
X46812000Y-48512000D01*
X46819000Y-48504000D01*
X46837000Y-48490000D01*
X46855000Y-48478000D01*
X46875000Y-48468000D01*
X46895000Y-48460000D01*
X46906000Y-48457000D01*
X46916000Y-48455000D01*
X46938000Y-48451000D01*
X46949000Y-48450000D01*
X48450000Y-48450000D01*
X48450000Y-46958000D01*
X48451000Y-46947000D01*
X48453000Y-46936000D01*
X48455000Y-46924000D01*
X48457000Y-46913000D01*
X48465000Y-46891000D01*
X48469000Y-46881000D01*
X48474000Y-46870000D01*
X48479000Y-46860000D01*
X48485000Y-46850000D01*
X48499000Y-46832000D01*
X48507000Y-46823000D01*
X48514000Y-46814000D01*
X48523000Y-46807000D01*
X48532000Y-46799000D01*
X48550000Y-46785000D01*
X48560000Y-46779000D01*
X48570000Y-46774000D01*
X48581000Y-46769000D01*
X48591000Y-46765000D01*
X48613000Y-46757000D01*
X48624000Y-46755000D01*
X48636000Y-46753000D01*
X48647000Y-46751000D01*
X48658000Y-46750000D01*
X51351000Y-46750000D01*
X51362000Y-46751000D01*
G37*
X51362000Y-46751000D02*
X51384000Y-46755000D01*
X51394000Y-46757000D01*
X51405000Y-46760000D01*
X51425000Y-46768000D01*
X51445000Y-46778000D01*
X51463000Y-46790000D01*
X51481000Y-46804000D01*
X51488000Y-46812000D01*
X51496000Y-46819000D01*
X51510000Y-46837000D01*
X51522000Y-46855000D01*
X51532000Y-46875000D01*
X51540000Y-46895000D01*
X51543000Y-46906000D01*
X51545000Y-46916000D01*
X51549000Y-46938000D01*
X51550000Y-46949000D01*
X51550000Y-48450000D01*
X53051000Y-48450000D01*
X53062000Y-48451000D01*
X53084000Y-48455000D01*
X53094000Y-48457000D01*
X53105000Y-48460000D01*
X53125000Y-48468000D01*
X53145000Y-48478000D01*
X53163000Y-48490000D01*
X53181000Y-48504000D01*
X53188000Y-48512000D01*
X53196000Y-48519000D01*
X53210000Y-48537000D01*
X53222000Y-48555000D01*
X53232000Y-48575000D01*
X53240000Y-48595000D01*
X53243000Y-48606000D01*
X53245000Y-48616000D01*
X53249000Y-48638000D01*
X53250000Y-48649000D01*
X53250000Y-51332000D01*
X53249000Y-51344000D01*
X53245000Y-51368000D01*
X53242000Y-51380000D01*
X53239000Y-51391000D01*
X53235000Y-51402000D01*
X53230000Y-51414000D01*
X53225000Y-51424000D01*
X53219000Y-51435000D01*
X53213000Y-51445000D01*
X53199000Y-51465000D01*
X53183000Y-51483000D01*
X53165000Y-51499000D01*
X53145000Y-51513000D01*
X53135000Y-51519000D01*
X53124000Y-51525000D01*
X53114000Y-51530000D01*
X53102000Y-51535000D01*
X53091000Y-51539000D01*
X53080000Y-51542000D01*
X53068000Y-51545000D01*
X53044000Y-51549000D01*
X53032000Y-51550000D01*
X51550000Y-51550000D01*
X51550000Y-53051000D01*
X51549000Y-53062000D01*
X51545000Y-53084000D01*
X51543000Y-53094000D01*
X51540000Y-53105000D01*
X51532000Y-53125000D01*
X51522000Y-53145000D01*
X51510000Y-53163000D01*
X51496000Y-53181000D01*
X51488000Y-53188000D01*
X51481000Y-53196000D01*
X51463000Y-53210000D01*
X51445000Y-53222000D01*
X51425000Y-53232000D01*
X51405000Y-53240000D01*
X51394000Y-53243000D01*
X51384000Y-53245000D01*
X51362000Y-53249000D01*
X51351000Y-53250000D01*
X48649000Y-53250000D01*
X48638000Y-53249000D01*
X48616000Y-53245000D01*
X48606000Y-53243000D01*
X48595000Y-53240000D01*
X48575000Y-53232000D01*
X48555000Y-53222000D01*
X48537000Y-53210000D01*
X48519000Y-53196000D01*
X48512000Y-53188000D01*
X48504000Y-53181000D01*
X48490000Y-53163000D01*
X48478000Y-53145000D01*
X48468000Y-53125000D01*
X48460000Y-53105000D01*
X48457000Y-53094000D01*
X48455000Y-53084000D01*
X48451000Y-53062000D01*
X48450000Y-53051000D01*
X48450000Y-51550000D01*
X46958000Y-51550000D01*
X46947000Y-51549000D01*
X46936000Y-51547000D01*
X46924000Y-51545000D01*
X46913000Y-51543000D01*
X46891000Y-51535000D01*
X46881000Y-51531000D01*
X46870000Y-51526000D01*
X46860000Y-51521000D01*
X46850000Y-51515000D01*
X46832000Y-51501000D01*
X46823000Y-51493000D01*
X46814000Y-51486000D01*
X46807000Y-51477000D01*
X46799000Y-51468000D01*
X46785000Y-51450000D01*
X46779000Y-51440000D01*
X46774000Y-51430000D01*
X46769000Y-51419000D01*
X46765000Y-51409000D01*
X46757000Y-51387000D01*
X46755000Y-51376000D01*
X46753000Y-51364000D01*
X46751000Y-51353000D01*
X46750000Y-51342000D01*
X46750000Y-48649000D01*
X46751000Y-48638000D01*
X46755000Y-48616000D01*
X46757000Y-48606000D01*
X46760000Y-48595000D01*
X46768000Y-48575000D01*
X46778000Y-48555000D01*
X46790000Y-48537000D01*
X46804000Y-48519000D01*
X46812000Y-48512000D01*
X46819000Y-48504000D01*
X46837000Y-48490000D01*
X46855000Y-48478000D01*
X46875000Y-48468000D01*
X46895000Y-48460000D01*
X46906000Y-48457000D01*
X46916000Y-48455000D01*
X46938000Y-48451000D01*
X46949000Y-48450000D01*
X48450000Y-48450000D01*
X48450000Y-46958000D01*
X48451000Y-46947000D01*
X48453000Y-46936000D01*
X48455000Y-46924000D01*
X48457000Y-46913000D01*
X48465000Y-46891000D01*
X48469000Y-46881000D01*
X48474000Y-46870000D01*
X48479000Y-46860000D01*
X48485000Y-46850000D01*
X48499000Y-46832000D01*
X48507000Y-46823000D01*
X48514000Y-46814000D01*
X48523000Y-46807000D01*
X48532000Y-46799000D01*
X48550000Y-46785000D01*
X48560000Y-46779000D01*
X48570000Y-46774000D01*
X48581000Y-46769000D01*
X48591000Y-46765000D01*
X48613000Y-46757000D01*
X48624000Y-46755000D01*
X48636000Y-46753000D01*
X48647000Y-46751000D01*
X48658000Y-46750000D01*
X51351000Y-46750000D01*
X51362000Y-46751000D01*
%TD*%
D11*
%TO.C,J401*%
X36500000Y-133250000D03*
D12*
X34500000Y-133250000D03*
%TD*%
D13*
%TO.C,J111*%
X69275001Y-132499999D03*
D14*
X69275001Y-129959999D03*
X69275001Y-127419999D03*
X69275001Y-124879999D03*
X69275001Y-122339999D03*
X69275001Y-119799999D03*
X69275001Y-117259999D03*
%TD*%
D13*
%TO.C,SW101*%
X61290001Y-79749999D03*
D14*
X58750001Y-79749999D03*
X56210001Y-79749999D03*
X53670001Y-79749999D03*
X51130001Y-79749999D03*
%TD*%
D13*
%TO.C,J108*%
X91380001Y-87499999D03*
D14*
X93920001Y-87499999D03*
X96460001Y-87499999D03*
X99000001Y-87499999D03*
X101540001Y-87499999D03*
X104080001Y-87499999D03*
X106620001Y-87499999D03*
%TD*%
D15*
%TO.C,mouse-bite-2mm-slot*%
X76750000Y-34250000D03*
X76750000Y-35000000D03*
X75250000Y-35750000D03*
X76750000Y-35750000D03*
X75250000Y-35000000D03*
X75250000Y-34250000D03*
%TD*%
D16*
%TO.C,BZ101*%
X80500001Y-130620784D03*
D17*
X80500001Y-125620784D03*
%TD*%
D18*
%TO.C,U101*%
X43120001Y-133669999D03*
X43120001Y-131129999D03*
X43120001Y-128589999D03*
X43120001Y-126049999D03*
X43120001Y-100649999D03*
X27880001Y-131129999D03*
X38040001Y-90489999D03*
X43120001Y-123509999D03*
X43120001Y-120969999D03*
D19*
X40070001Y-129859999D03*
D18*
X43120001Y-118429999D03*
X43120001Y-115889999D03*
X43120001Y-113349999D03*
X43120001Y-110809999D03*
X43120001Y-108269999D03*
X43120001Y-105729999D03*
X43120001Y-103189999D03*
X27880001Y-103189999D03*
X27880001Y-105729999D03*
X27880001Y-108269999D03*
X27880001Y-110809999D03*
X27880001Y-113349999D03*
X27880001Y-115889999D03*
X27880001Y-118429999D03*
X27880001Y-120969999D03*
X27880001Y-123509999D03*
X27880001Y-126049999D03*
X27880001Y-128589999D03*
X43120001Y-98109999D03*
X43120001Y-95569999D03*
X43120001Y-93029999D03*
X43120001Y-90489999D03*
X43120001Y-87949999D03*
X43120001Y-85409999D03*
X43120001Y-82869999D03*
X43120001Y-80329999D03*
X43120001Y-77789999D03*
X27880001Y-77789999D03*
X27880001Y-80329999D03*
X27880001Y-82869999D03*
X27880001Y-85409999D03*
X27880001Y-87949999D03*
X27880001Y-90489999D03*
X27880001Y-93029999D03*
X27880001Y-95569999D03*
X27880001Y-98109999D03*
D19*
X40070001Y-124779999D03*
X40070001Y-127319999D03*
D18*
X43120001Y-136209999D03*
X27880001Y-100649999D03*
X27880001Y-133669999D03*
X35500001Y-90489999D03*
D20*
X32330001Y-121239999D03*
X32330001Y-123239999D03*
D18*
X30420001Y-90489999D03*
X32960001Y-90489999D03*
D20*
X30330001Y-123239999D03*
X30330001Y-121239999D03*
X34330001Y-121239999D03*
X34330001Y-123239999D03*
D19*
X40070001Y-122239999D03*
X40070001Y-119699999D03*
D18*
X40580001Y-90489999D03*
X27880001Y-136209999D03*
X30420001Y-133669999D03*
%TD*%
D13*
%TO.C,J107*%
X93950001Y-122724999D03*
D14*
X96490001Y-122724999D03*
X99030001Y-122724999D03*
X101570001Y-122724999D03*
X104110001Y-122724999D03*
%TD*%
D21*
%TO.C,BT401*%
X70000001Y-80449999D03*
D22*
X68750001Y-80449999D03*
%TD*%
D13*
%TO.C,J110*%
X69285787Y-107012892D03*
D14*
X69285787Y-104472892D03*
X69285787Y-101932892D03*
X69285787Y-99392892D03*
X69285787Y-96852892D03*
X69285787Y-94312892D03*
%TD*%
D23*
%TO.C,U501*%
X50785001Y-127399999D03*
X62215001Y-127399999D03*
D24*
X52055001Y-121049999D03*
D25*
X53325001Y-118509999D03*
X54595001Y-121049999D03*
X55865001Y-118509999D03*
X57135001Y-121049999D03*
X58405001Y-118509999D03*
X59675001Y-121049999D03*
X60945001Y-118509999D03*
X50175001Y-132479999D03*
X52715001Y-130779999D03*
X60285001Y-132479999D03*
X62825001Y-130779999D03*
D26*
X48625001Y-124349999D03*
X64375001Y-124349999D03*
%TD*%
D15*
%TO.C,mouse-bite-2mm-slot*%
X76750000Y-65750000D03*
X75250000Y-65750000D03*
X76750000Y-65000000D03*
X76750000Y-64250000D03*
X75250000Y-64250000D03*
X75250000Y-65000000D03*
%TD*%
D17*
%TO.C,TP406*%
X84000001Y-79999999D03*
%TD*%
D27*
%TO.C,C501*%
X57250001Y-123462499D03*
X57250001Y-125537499D03*
%TD*%
D13*
%TO.C,J106*%
X91400001Y-127499999D03*
D14*
X93940001Y-127499999D03*
X96480001Y-127499999D03*
X99020001Y-127499999D03*
X101560001Y-127499999D03*
X104100001Y-127499999D03*
X106640001Y-127499999D03*
%TD*%
D28*
%TO.C,C403*%
X77737501Y-100449999D03*
X79812501Y-100449999D03*
%TD*%
D29*
%TO.C,C404*%
X33537501Y-79499999D03*
X31462501Y-79499999D03*
%TD*%
D30*
%TO.C,U401*%
X82362501Y-97199999D03*
X82362501Y-96249999D03*
X82362501Y-95299999D03*
X85062501Y-95299999D03*
X85062501Y-97199999D03*
%TD*%
D31*
%TO.C,U402*%
X39750001Y-83799999D03*
X39750001Y-84749999D03*
X39750001Y-85699999D03*
X36330001Y-85699999D03*
X36330001Y-84749999D03*
X36330001Y-83799999D03*
%TD*%
D13*
%TO.C,J109*%
X51275001Y-112549999D03*
D14*
X51275001Y-110009999D03*
X51275001Y-107469999D03*
X51275001Y-104929999D03*
%TD*%
D32*
%TO.C,R106*%
X30500001Y-97999999D03*
X32500001Y-97999999D03*
%TD*%
D17*
%TO.C,TP404*%
X74000001Y-79999999D03*
%TD*%
D33*
%TO.C,D201*%
X104850000Y-53187500D03*
D34*
X98812500Y-52850000D03*
D35*
X99150000Y-46812500D03*
D36*
X105187500Y-47150000D03*
%TD*%
D17*
%TO.C,TP403*%
X79000001Y-79999999D03*
%TD*%
D37*
%TO.C,L401*%
X32250001Y-86737499D03*
X32250001Y-83762499D03*
%TD*%
D17*
%TO.C,TP405*%
X94000001Y-79999999D03*
%TD*%
D32*
%TO.C,R105*%
X30750001Y-110999999D03*
X32750001Y-110999999D03*
%TD*%
D33*
%TO.C,D301*%
X52850000Y-53187500D03*
D34*
X46812500Y-52850000D03*
D35*
X47150000Y-46812500D03*
D36*
X53187500Y-47150000D03*
%TD*%
D29*
%TO.C,C402*%
X84750001Y-100499999D03*
X82675001Y-100499999D03*
%TD*%
D38*
%TO.C,C401*%
X78962501Y-97287499D03*
X78962501Y-95212499D03*
%TD*%
D17*
%TO.C,TP402*%
X89000001Y-79999999D03*
%TD*%
D39*
%TO.C,D401*%
X39650001Y-79749999D03*
X36350001Y-79749999D03*
%TD*%
D40*
%TO.C,R102*%
X77750001Y-130749999D03*
X75750001Y-130749999D03*
%TD*%
D13*
%TO.C,J105*%
X93950001Y-92524999D03*
D14*
X96490001Y-92524999D03*
X99030001Y-92524999D03*
X101570001Y-92524999D03*
X104110001Y-92524999D03*
%TD*%
D13*
%TO.C,J112*%
X51300001Y-99499999D03*
D14*
X51300001Y-96959999D03*
X51300001Y-94419999D03*
X51300001Y-91879999D03*
X51300001Y-89339999D03*
%TD*%
D41*
%TO.C,TP401*%
X99000001Y-79999999D03*
%TD*%
G36*
X54431680Y-39500120D02*
G01*
X54859215Y-39518787D01*
X54870165Y-39519745D01*
X55291719Y-39575243D01*
X55302545Y-39577152D01*
X55717658Y-39669181D01*
X55728275Y-39672026D01*
X56133782Y-39799881D01*
X56144111Y-39803640D01*
X56536947Y-39966358D01*
X56546909Y-39971004D01*
X56924049Y-40167331D01*
X56933569Y-40172827D01*
X57292169Y-40401281D01*
X57301173Y-40407585D01*
X57638511Y-40666433D01*
X57646931Y-40673499D01*
X57962446Y-40962615D01*
X57966417Y-40966417D01*
X58533583Y-41533583D01*
X58537385Y-41537554D01*
X58826501Y-41853069D01*
X58833567Y-41861489D01*
X59092415Y-42198827D01*
X59098719Y-42207831D01*
X59327173Y-42566431D01*
X59332669Y-42575951D01*
X59528996Y-42953091D01*
X59533642Y-42963053D01*
X59696360Y-43355889D01*
X59700119Y-43366218D01*
X59827974Y-43771725D01*
X59830819Y-43782342D01*
X59922848Y-44197455D01*
X59924757Y-44208281D01*
X59980255Y-44629835D01*
X59981213Y-44640785D01*
X59999880Y-45068320D01*
X60000000Y-45073816D01*
X60000000Y-54926184D01*
X59999880Y-54931680D01*
X59981213Y-55359215D01*
X59980255Y-55370165D01*
X59924757Y-55791719D01*
X59922848Y-55802545D01*
X59830819Y-56217658D01*
X59827974Y-56228275D01*
X59700119Y-56633782D01*
X59696360Y-56644111D01*
X59533642Y-57036947D01*
X59528996Y-57046909D01*
X59332669Y-57424049D01*
X59327173Y-57433569D01*
X59098719Y-57792169D01*
X59092415Y-57801173D01*
X58833567Y-58138511D01*
X58826501Y-58146931D01*
X58537385Y-58462446D01*
X58533583Y-58466417D01*
X57966417Y-59033583D01*
X57962446Y-59037385D01*
X57646931Y-59326501D01*
X57638511Y-59333567D01*
X57301173Y-59592415D01*
X57292169Y-59598719D01*
X56933569Y-59827173D01*
X56924049Y-59832669D01*
X56546909Y-60028996D01*
X56536947Y-60033642D01*
X56144111Y-60196360D01*
X56133782Y-60200119D01*
X55728275Y-60327974D01*
X55717658Y-60330819D01*
X55302545Y-60422848D01*
X55291719Y-60424757D01*
X54870165Y-60480255D01*
X54859215Y-60481213D01*
X54431680Y-60499880D01*
X54426184Y-60500000D01*
X45573816Y-60500000D01*
X45568320Y-60499880D01*
X45140785Y-60481213D01*
X45129835Y-60480255D01*
X44708281Y-60424757D01*
X44697455Y-60422848D01*
X44282342Y-60330819D01*
X44271725Y-60327974D01*
X43866218Y-60200119D01*
X43855889Y-60196360D01*
X43463053Y-60033642D01*
X43453091Y-60028996D01*
X43075951Y-59832669D01*
X43066431Y-59827173D01*
X42707831Y-59598719D01*
X42698827Y-59592415D01*
X42361489Y-59333567D01*
X42353069Y-59326501D01*
X42037554Y-59037385D01*
X42033583Y-59033583D01*
X41466417Y-58466417D01*
X41462615Y-58462446D01*
X41173499Y-58146931D01*
X41166433Y-58138511D01*
X40907585Y-57801173D01*
X40901281Y-57792169D01*
X40672827Y-57433569D01*
X40667331Y-57424049D01*
X40471004Y-57046909D01*
X40466358Y-57036947D01*
X40303640Y-56644111D01*
X40299881Y-56633782D01*
X40172026Y-56228275D01*
X40169181Y-56217658D01*
X40077152Y-55802545D01*
X40075243Y-55791719D01*
X40019745Y-55370165D01*
X40018787Y-55359215D01*
X40000120Y-54931680D01*
X40000000Y-54926184D01*
X40000000Y-53278852D01*
X45400000Y-53278852D01*
X45400765Y-53288635D01*
X45419684Y-53408821D01*
X45425667Y-53427355D01*
X45478366Y-53531514D01*
X45489753Y-53547313D01*
X45571901Y-53630244D01*
X45587595Y-53641783D01*
X45695623Y-53697733D01*
X45704674Y-53701558D01*
X45886316Y-53762105D01*
X45921110Y-53780125D01*
X45941039Y-53794778D01*
X45986307Y-53857584D01*
X45999221Y-53897587D01*
X46000970Y-53902342D01*
X46022356Y-53953972D01*
X46039129Y-53974787D01*
X46088534Y-53995251D01*
X46112410Y-54000000D01*
X51687590Y-54000000D01*
X51712171Y-54002421D01*
X51790223Y-54017946D01*
X51835645Y-54036760D01*
X51891294Y-54073944D01*
X51926056Y-54108706D01*
X51963240Y-54164355D01*
X51982054Y-54209777D01*
X52020415Y-54402633D01*
X52029731Y-54425124D01*
X52080975Y-54501816D01*
X52098184Y-54519025D01*
X52174876Y-54570269D01*
X52197367Y-54579585D01*
X52293932Y-54598793D01*
X52306187Y-54600000D01*
X53493813Y-54600000D01*
X53506068Y-54598793D01*
X53602633Y-54579585D01*
X53625124Y-54570269D01*
X53701816Y-54519025D01*
X53719025Y-54501816D01*
X53770269Y-54425124D01*
X53779585Y-54402633D01*
X53798793Y-54306068D01*
X53800000Y-54293813D01*
X53800000Y-54125611D01*
X53820002Y-54057490D01*
X53877783Y-54009202D01*
X53953973Y-53977644D01*
X53974787Y-53960871D01*
X53995251Y-53911466D01*
X54000000Y-53887590D01*
X54000000Y-48326082D01*
X54001533Y-48306489D01*
X54018133Y-48201033D01*
X54030171Y-48163743D01*
X54073862Y-48077388D01*
X54096774Y-48045599D01*
X54164882Y-47976842D01*
X54196452Y-47953630D01*
X54412405Y-47841783D01*
X54428099Y-47830244D01*
X54510247Y-47747313D01*
X54521634Y-47731514D01*
X54574333Y-47627355D01*
X54580316Y-47608821D01*
X54599235Y-47488635D01*
X54600000Y-47478852D01*
X54600000Y-46721148D01*
X54599235Y-46711365D01*
X54580316Y-46591179D01*
X54574333Y-46572645D01*
X54521634Y-46468486D01*
X54510247Y-46452687D01*
X54428099Y-46369756D01*
X54412405Y-46358217D01*
X54304377Y-46302267D01*
X54295326Y-46298442D01*
X54113684Y-46237895D01*
X54078890Y-46219875D01*
X54058961Y-46205222D01*
X54013693Y-46142416D01*
X54000779Y-46102413D01*
X53999030Y-46097658D01*
X53977644Y-46046028D01*
X53960871Y-46025213D01*
X53911466Y-46004749D01*
X53887590Y-46000000D01*
X48326082Y-46000000D01*
X48306489Y-45998467D01*
X48201033Y-45981867D01*
X48163743Y-45969829D01*
X48077388Y-45926138D01*
X48045599Y-45903226D01*
X47976842Y-45835118D01*
X47953630Y-45803548D01*
X47841783Y-45587595D01*
X47830244Y-45571901D01*
X47747313Y-45489753D01*
X47731514Y-45478366D01*
X47627355Y-45425667D01*
X47608821Y-45419684D01*
X47488635Y-45400765D01*
X47478852Y-45400000D01*
X46721148Y-45400000D01*
X46711365Y-45400765D01*
X46591179Y-45419684D01*
X46572645Y-45425667D01*
X46468486Y-45478366D01*
X46452687Y-45489753D01*
X46369756Y-45571901D01*
X46358217Y-45587595D01*
X46302267Y-45695623D01*
X46298442Y-45704674D01*
X46237895Y-45886316D01*
X46219875Y-45921110D01*
X46205222Y-45941039D01*
X46142416Y-45986307D01*
X46102413Y-45999221D01*
X46097658Y-46000970D01*
X46046028Y-46022356D01*
X46025213Y-46039129D01*
X46004749Y-46088534D01*
X46000000Y-46112410D01*
X46000000Y-51673918D01*
X45998467Y-51693511D01*
X45981867Y-51798967D01*
X45969829Y-51836257D01*
X45926138Y-51922612D01*
X45903226Y-51954401D01*
X45835118Y-52023158D01*
X45803548Y-52046370D01*
X45587595Y-52158217D01*
X45571901Y-52169756D01*
X45489753Y-52252687D01*
X45478366Y-52268486D01*
X45425667Y-52372645D01*
X45419684Y-52391179D01*
X45400765Y-52511365D01*
X45400000Y-52521148D01*
X45400000Y-53278852D01*
X40000000Y-53278852D01*
X40000000Y-45073816D01*
X40000120Y-45068320D01*
X40018787Y-44640785D01*
X40019745Y-44629835D01*
X40075243Y-44208281D01*
X40077152Y-44197455D01*
X40169181Y-43782342D01*
X40172026Y-43771725D01*
X40299881Y-43366218D01*
X40303640Y-43355889D01*
X40466358Y-42963053D01*
X40471004Y-42953091D01*
X40667331Y-42575951D01*
X40672827Y-42566431D01*
X40901281Y-42207831D01*
X40907585Y-42198827D01*
X41166433Y-41861489D01*
X41173499Y-41853069D01*
X41462615Y-41537554D01*
X41466417Y-41533583D01*
X42033583Y-40966417D01*
X42037554Y-40962615D01*
X42353069Y-40673499D01*
X42361489Y-40666433D01*
X42698827Y-40407585D01*
X42707831Y-40401281D01*
X43066431Y-40172827D01*
X43075951Y-40167331D01*
X43453091Y-39971004D01*
X43463053Y-39966358D01*
X43855889Y-39803640D01*
X43866218Y-39799881D01*
X44271725Y-39672026D01*
X44282342Y-39669181D01*
X44697455Y-39577152D01*
X44708281Y-39575243D01*
X45129835Y-39519745D01*
X45140785Y-39518787D01*
X45568320Y-39500120D01*
X45573816Y-39500000D01*
X54426184Y-39500000D01*
X54431680Y-39500120D01*
G37*
G36*
X106431680Y-39500120D02*
G01*
X106859215Y-39518787D01*
X106870165Y-39519745D01*
X107291719Y-39575243D01*
X107302545Y-39577152D01*
X107717658Y-39669181D01*
X107728275Y-39672026D01*
X108133782Y-39799881D01*
X108144111Y-39803640D01*
X108536947Y-39966358D01*
X108546909Y-39971004D01*
X108924049Y-40167331D01*
X108933569Y-40172827D01*
X109292169Y-40401281D01*
X109301173Y-40407585D01*
X109638511Y-40666433D01*
X109646931Y-40673499D01*
X109962446Y-40962615D01*
X109966417Y-40966417D01*
X110533583Y-41533583D01*
X110537385Y-41537554D01*
X110826501Y-41853069D01*
X110833567Y-41861489D01*
X111092415Y-42198827D01*
X111098719Y-42207831D01*
X111327173Y-42566431D01*
X111332669Y-42575951D01*
X111528996Y-42953091D01*
X111533642Y-42963053D01*
X111696360Y-43355889D01*
X111700119Y-43366218D01*
X111827974Y-43771725D01*
X111830819Y-43782342D01*
X111922848Y-44197455D01*
X111924757Y-44208281D01*
X111980255Y-44629835D01*
X111981213Y-44640785D01*
X111999880Y-45068320D01*
X112000000Y-45073816D01*
X112000000Y-54926184D01*
X111999880Y-54931680D01*
X111981213Y-55359215D01*
X111980255Y-55370165D01*
X111924757Y-55791719D01*
X111922848Y-55802545D01*
X111830819Y-56217658D01*
X111827974Y-56228275D01*
X111700119Y-56633782D01*
X111696360Y-56644111D01*
X111533642Y-57036947D01*
X111528996Y-57046909D01*
X111332669Y-57424049D01*
X111327173Y-57433569D01*
X111098719Y-57792169D01*
X111092415Y-57801173D01*
X110833567Y-58138511D01*
X110826501Y-58146931D01*
X110537385Y-58462446D01*
X110533583Y-58466417D01*
X109966417Y-59033583D01*
X109962446Y-59037385D01*
X109646931Y-59326501D01*
X109638511Y-59333567D01*
X109301173Y-59592415D01*
X109292169Y-59598719D01*
X108933569Y-59827173D01*
X108924049Y-59832669D01*
X108546909Y-60028996D01*
X108536947Y-60033642D01*
X108144111Y-60196360D01*
X108133782Y-60200119D01*
X107728275Y-60327974D01*
X107717658Y-60330819D01*
X107302545Y-60422848D01*
X107291719Y-60424757D01*
X106870165Y-60480255D01*
X106859215Y-60481213D01*
X106431680Y-60499880D01*
X106426184Y-60500000D01*
X97573816Y-60500000D01*
X97568320Y-60499880D01*
X97140785Y-60481213D01*
X97129835Y-60480255D01*
X96708281Y-60424757D01*
X96697455Y-60422848D01*
X96282342Y-60330819D01*
X96271725Y-60327974D01*
X95866218Y-60200119D01*
X95855889Y-60196360D01*
X95463053Y-60033642D01*
X95453091Y-60028996D01*
X95075951Y-59832669D01*
X95066431Y-59827173D01*
X94707831Y-59598719D01*
X94698827Y-59592415D01*
X94361489Y-59333567D01*
X94353069Y-59326501D01*
X94037554Y-59037385D01*
X94033583Y-59033583D01*
X93466417Y-58466417D01*
X93462615Y-58462446D01*
X93173499Y-58146931D01*
X93166433Y-58138511D01*
X92907585Y-57801173D01*
X92901281Y-57792169D01*
X92672827Y-57433569D01*
X92667331Y-57424049D01*
X92471004Y-57046909D01*
X92466358Y-57036947D01*
X92303640Y-56644111D01*
X92299881Y-56633782D01*
X92172026Y-56228275D01*
X92169181Y-56217658D01*
X92077152Y-55802545D01*
X92075243Y-55791719D01*
X92019745Y-55370165D01*
X92018787Y-55359215D01*
X92000120Y-54931680D01*
X92000000Y-54926184D01*
X92000000Y-53278852D01*
X97400000Y-53278852D01*
X97400765Y-53288635D01*
X97419684Y-53408821D01*
X97425667Y-53427355D01*
X97478366Y-53531514D01*
X97489753Y-53547313D01*
X97571901Y-53630244D01*
X97587595Y-53641783D01*
X97695623Y-53697733D01*
X97704674Y-53701558D01*
X97886316Y-53762105D01*
X97921110Y-53780125D01*
X97941039Y-53794778D01*
X97986307Y-53857584D01*
X97999221Y-53897587D01*
X98000970Y-53902342D01*
X98022356Y-53953972D01*
X98039129Y-53974787D01*
X98088534Y-53995251D01*
X98112410Y-54000000D01*
X103687590Y-54000000D01*
X103712171Y-54002421D01*
X103790223Y-54017946D01*
X103835645Y-54036760D01*
X103891294Y-54073944D01*
X103926056Y-54108706D01*
X103963240Y-54164355D01*
X103982054Y-54209777D01*
X104020415Y-54402633D01*
X104029731Y-54425124D01*
X104080975Y-54501816D01*
X104098184Y-54519025D01*
X104174876Y-54570269D01*
X104197367Y-54579585D01*
X104293932Y-54598793D01*
X104306187Y-54600000D01*
X105493813Y-54600000D01*
X105506068Y-54598793D01*
X105602633Y-54579585D01*
X105625124Y-54570269D01*
X105701816Y-54519025D01*
X105719025Y-54501816D01*
X105770269Y-54425124D01*
X105779585Y-54402633D01*
X105798793Y-54306068D01*
X105800000Y-54293813D01*
X105800000Y-54125611D01*
X105820002Y-54057490D01*
X105877783Y-54009202D01*
X105953973Y-53977644D01*
X105974787Y-53960871D01*
X105995251Y-53911466D01*
X106000000Y-53887590D01*
X106000000Y-48326082D01*
X106001533Y-48306489D01*
X106018133Y-48201033D01*
X106030171Y-48163743D01*
X106073862Y-48077388D01*
X106096774Y-48045599D01*
X106164882Y-47976842D01*
X106196452Y-47953630D01*
X106412405Y-47841783D01*
X106428099Y-47830244D01*
X106510247Y-47747313D01*
X106521634Y-47731514D01*
X106574333Y-47627355D01*
X106580316Y-47608821D01*
X106599235Y-47488635D01*
X106600000Y-47478852D01*
X106600000Y-46721148D01*
X106599235Y-46711365D01*
X106580316Y-46591179D01*
X106574333Y-46572645D01*
X106521634Y-46468486D01*
X106510247Y-46452687D01*
X106428099Y-46369756D01*
X106412405Y-46358217D01*
X106304377Y-46302267D01*
X106295326Y-46298442D01*
X106113684Y-46237895D01*
X106078890Y-46219875D01*
X106058961Y-46205222D01*
X106013693Y-46142416D01*
X106000779Y-46102413D01*
X105999030Y-46097658D01*
X105977644Y-46046028D01*
X105960871Y-46025213D01*
X105911466Y-46004749D01*
X105887590Y-46000000D01*
X100326082Y-46000000D01*
X100306489Y-45998467D01*
X100201033Y-45981867D01*
X100163743Y-45969829D01*
X100077388Y-45926138D01*
X100045599Y-45903226D01*
X99976842Y-45835118D01*
X99953630Y-45803548D01*
X99841783Y-45587595D01*
X99830244Y-45571901D01*
X99747313Y-45489753D01*
X99731514Y-45478366D01*
X99627355Y-45425667D01*
X99608821Y-45419684D01*
X99488635Y-45400765D01*
X99478852Y-45400000D01*
X98721148Y-45400000D01*
X98711365Y-45400765D01*
X98591179Y-45419684D01*
X98572645Y-45425667D01*
X98468486Y-45478366D01*
X98452687Y-45489753D01*
X98369756Y-45571901D01*
X98358217Y-45587595D01*
X98302267Y-45695623D01*
X98298442Y-45704674D01*
X98237895Y-45886316D01*
X98219875Y-45921110D01*
X98205222Y-45941039D01*
X98142416Y-45986307D01*
X98102413Y-45999221D01*
X98097658Y-46000970D01*
X98046028Y-46022356D01*
X98025213Y-46039129D01*
X98004749Y-46088534D01*
X98000000Y-46112410D01*
X98000000Y-51673918D01*
X97998467Y-51693511D01*
X97981867Y-51798967D01*
X97969829Y-51836257D01*
X97926138Y-51922612D01*
X97903226Y-51954401D01*
X97835118Y-52023158D01*
X97803548Y-52046370D01*
X97587595Y-52158217D01*
X97571901Y-52169756D01*
X97489753Y-52252687D01*
X97478366Y-52268486D01*
X97425667Y-52372645D01*
X97419684Y-52391179D01*
X97400765Y-52511365D01*
X97400000Y-52521148D01*
X97400000Y-53278852D01*
X92000000Y-53278852D01*
X92000000Y-45073816D01*
X92000120Y-45068320D01*
X92018787Y-44640785D01*
X92019745Y-44629835D01*
X92075243Y-44208281D01*
X92077152Y-44197455D01*
X92169181Y-43782342D01*
X92172026Y-43771725D01*
X92299881Y-43366218D01*
X92303640Y-43355889D01*
X92466358Y-42963053D01*
X92471004Y-42953091D01*
X92667331Y-42575951D01*
X92672827Y-42566431D01*
X92901281Y-42207831D01*
X92907585Y-42198827D01*
X93166433Y-41861489D01*
X93173499Y-41853069D01*
X93462615Y-41537554D01*
X93466417Y-41533583D01*
X94033583Y-40966417D01*
X94037554Y-40962615D01*
X94353069Y-40673499D01*
X94361489Y-40666433D01*
X94698827Y-40407585D01*
X94707831Y-40401281D01*
X95066431Y-40172827D01*
X95075951Y-40167331D01*
X95453091Y-39971004D01*
X95463053Y-39966358D01*
X95855889Y-39803640D01*
X95866218Y-39799881D01*
X96271725Y-39672026D01*
X96282342Y-39669181D01*
X96697455Y-39577152D01*
X96708281Y-39575243D01*
X97129835Y-39519745D01*
X97140785Y-39518787D01*
X97568320Y-39500120D01*
X97573816Y-39500000D01*
X106426184Y-39500000D01*
X106431680Y-39500120D01*
G37*
M02*
