%TF.GenerationSoftware,KiCad,Pcbnew,6.0.6-1.fc36*%
%TF.CreationDate,2022-07-31T22:14:55+02:00*%
%TF.ProjectId,CosmicWatch-ventidue,436f736d-6963-4576-9174-63682d76656e,2.5*%
%TF.SameCoordinates,Original*%
%TF.FileFunction,Soldermask,Top*%
%TF.FilePolarity,Negative*%
%FSLAX46Y46*%
G04 Gerber Fmt 4.6, Leading zero omitted, Abs format (unit mm)*
G04 Created by KiCad (PCBNEW 6.0.6-1.fc36) date 2022-07-31 22:14:55*
%MOMM*%
%LPD*%
G01*
G04 APERTURE LIST*
G04 Aperture macros list*
%AMRoundRect*
0 Rectangle with rounded corners*
0 $1 Rounding radius*
0 $2 $3 $4 $5 $6 $7 $8 $9 X,Y pos of 4 corners*
0 Add a 4 corners polygon primitive as box body*
4,1,4,$2,$3,$4,$5,$6,$7,$8,$9,$2,$3,0*
0 Add four circle primitives for the rounded corners*
1,1,$1+$1,$2,$3*
1,1,$1+$1,$4,$5*
1,1,$1+$1,$6,$7*
1,1,$1+$1,$8,$9*
0 Add four rect primitives between the rounded corners*
20,1,$1+$1,$2,$3,$4,$5,0*
20,1,$1+$1,$4,$5,$6,$7,0*
20,1,$1+$1,$6,$7,$8,$9,0*
20,1,$1+$1,$8,$9,$2,$3,0*%
G04 Aperture macros list end*
%ADD10C,0.200000*%
%ADD11RoundRect,0.250000X0.350000X0.625000X-0.350000X0.625000X-0.350000X-0.625000X0.350000X-0.625000X0*%
%ADD12O,1.200000X1.750000*%
%ADD13RoundRect,0.250000X0.475000X-0.337500X0.475000X0.337500X-0.475000X0.337500X-0.475000X-0.337500X0*%
%ADD14RoundRect,0.250000X-0.475000X0.337500X-0.475000X-0.337500X0.475000X-0.337500X0.475000X0.337500X0*%
%ADD15RoundRect,0.100000X-0.712500X-0.100000X0.712500X-0.100000X0.712500X0.100000X-0.712500X0.100000X0*%
%ADD16R,1.000000X1.000000*%
%ADD17R,1.050000X2.200000*%
%ADD18R,1.700000X1.700000*%
%ADD19O,1.700000X1.700000*%
%ADD20RoundRect,0.250000X0.450000X-0.350000X0.450000X0.350000X-0.450000X0.350000X-0.450000X-0.350000X0*%
%ADD21RoundRect,0.250000X0.337500X0.475000X-0.337500X0.475000X-0.337500X-0.475000X0.337500X-0.475000X0*%
%ADD22C,2.000000*%
%ADD23RoundRect,0.250000X-0.350000X-0.450000X0.350000X-0.450000X0.350000X0.450000X-0.350000X0.450000X0*%
%ADD24R,3.000000X3.000000*%
%ADD25RoundRect,0.250000X-0.337500X-0.475000X0.337500X-0.475000X0.337500X0.475000X-0.337500X0.475000X0*%
%ADD26R,2.510000X1.000000*%
%ADD27RoundRect,0.250000X0.350000X0.450000X-0.350000X0.450000X-0.350000X-0.450000X0.350000X-0.450000X0*%
%ADD28C,0.500000*%
%ADD29R,2.000000X2.000000*%
%ADD30RoundRect,0.250000X-0.450000X0.350000X-0.450000X-0.350000X0.450000X-0.350000X0.450000X0.350000X0*%
%ADD31C,1.308000*%
%ADD32C,1.258000*%
%ADD33C,1.208000*%
%ADD34RoundRect,0.200000X0.200000X0.450000X-0.200000X0.450000X-0.200000X-0.450000X0.200000X-0.450000X0*%
%ADD35O,0.800000X1.300000*%
%ADD36R,0.375000X1.025000*%
%ADD37R,0.300000X1.125000*%
%ADD38R,0.375000X1.000000*%
%ADD39C,3.250000*%
%ADD40RoundRect,0.250500X-0.499500X-0.499500X0.499500X-0.499500X0.499500X0.499500X-0.499500X0.499500X0*%
%ADD41C,1.500000*%
%ADD42C,2.500000*%
G04 APERTURE END LIST*
D10*
X27189523Y-73702380D02*
X26856190Y-73226190D01*
X26618095Y-73702380D02*
X26618095Y-72702380D01*
X26999047Y-72702380D01*
X27094285Y-72750000D01*
X27141904Y-72797619D01*
X27189523Y-72892857D01*
X27189523Y-73035714D01*
X27141904Y-73130952D01*
X27094285Y-73178571D01*
X26999047Y-73226190D01*
X26618095Y-73226190D01*
X27999047Y-73654761D02*
X27903809Y-73702380D01*
X27713333Y-73702380D01*
X27618095Y-73654761D01*
X27570476Y-73559523D01*
X27570476Y-73178571D01*
X27618095Y-73083333D01*
X27713333Y-73035714D01*
X27903809Y-73035714D01*
X27999047Y-73083333D01*
X28046666Y-73178571D01*
X28046666Y-73273809D01*
X27570476Y-73369047D01*
X28380000Y-73035714D02*
X28618095Y-73702380D01*
X28856190Y-73035714D01*
X29237142Y-73607142D02*
X29284761Y-73654761D01*
X29237142Y-73702380D01*
X29189523Y-73654761D01*
X29237142Y-73607142D01*
X29237142Y-73702380D01*
X29237142Y-73083333D02*
X29284761Y-73130952D01*
X29237142Y-73178571D01*
X29189523Y-73130952D01*
X29237142Y-73083333D01*
X29237142Y-73178571D01*
X30427619Y-72797619D02*
X30475238Y-72750000D01*
X30570476Y-72702380D01*
X30808571Y-72702380D01*
X30903809Y-72750000D01*
X30951428Y-72797619D01*
X30999047Y-72892857D01*
X30999047Y-72988095D01*
X30951428Y-73130952D01*
X30380000Y-73702380D01*
X30999047Y-73702380D01*
X31427619Y-73607142D02*
X31475238Y-73654761D01*
X31427619Y-73702380D01*
X31380000Y-73654761D01*
X31427619Y-73607142D01*
X31427619Y-73702380D01*
X32380000Y-72702380D02*
X31903809Y-72702380D01*
X31856190Y-73178571D01*
X31903809Y-73130952D01*
X31999047Y-73083333D01*
X32237142Y-73083333D01*
X32332380Y-73130952D01*
X32380000Y-73178571D01*
X32427619Y-73273809D01*
X32427619Y-73511904D01*
X32380000Y-73607142D01*
X32332380Y-73654761D01*
X32237142Y-73702380D01*
X31999047Y-73702380D01*
X31903809Y-73654761D01*
X31856190Y-73607142D01*
X79189523Y-73702380D02*
X78856190Y-73226190D01*
X78618095Y-73702380D02*
X78618095Y-72702380D01*
X78999047Y-72702380D01*
X79094285Y-72750000D01*
X79141904Y-72797619D01*
X79189523Y-72892857D01*
X79189523Y-73035714D01*
X79141904Y-73130952D01*
X79094285Y-73178571D01*
X78999047Y-73226190D01*
X78618095Y-73226190D01*
X79999047Y-73654761D02*
X79903809Y-73702380D01*
X79713333Y-73702380D01*
X79618095Y-73654761D01*
X79570476Y-73559523D01*
X79570476Y-73178571D01*
X79618095Y-73083333D01*
X79713333Y-73035714D01*
X79903809Y-73035714D01*
X79999047Y-73083333D01*
X80046666Y-73178571D01*
X80046666Y-73273809D01*
X79570476Y-73369047D01*
X80380000Y-73035714D02*
X80618095Y-73702380D01*
X80856190Y-73035714D01*
X81237142Y-73607142D02*
X81284761Y-73654761D01*
X81237142Y-73702380D01*
X81189523Y-73654761D01*
X81237142Y-73607142D01*
X81237142Y-73702380D01*
X81237142Y-73083333D02*
X81284761Y-73130952D01*
X81237142Y-73178571D01*
X81189523Y-73130952D01*
X81237142Y-73083333D01*
X81237142Y-73178571D01*
X82427619Y-72797619D02*
X82475238Y-72750000D01*
X82570476Y-72702380D01*
X82808571Y-72702380D01*
X82903809Y-72750000D01*
X82951428Y-72797619D01*
X82999047Y-72892857D01*
X82999047Y-72988095D01*
X82951428Y-73130952D01*
X82380000Y-73702380D01*
X82999047Y-73702380D01*
X83427619Y-73607142D02*
X83475238Y-73654761D01*
X83427619Y-73702380D01*
X83380000Y-73654761D01*
X83427619Y-73607142D01*
X83427619Y-73702380D01*
X84380000Y-72702380D02*
X83903809Y-72702380D01*
X83856190Y-73178571D01*
X83903809Y-73130952D01*
X83999047Y-73083333D01*
X84237142Y-73083333D01*
X84332380Y-73130952D01*
X84380000Y-73178571D01*
X84427619Y-73273809D01*
X84427619Y-73511904D01*
X84380000Y-73607142D01*
X84332380Y-73654761D01*
X84237142Y-73702380D01*
X83999047Y-73702380D01*
X83903809Y-73654761D01*
X83856190Y-73607142D01*
X120191428Y-136202380D02*
X119858095Y-135726190D01*
X119620000Y-136202380D02*
X119620000Y-135202380D01*
X120000952Y-135202380D01*
X120096190Y-135250000D01*
X120143809Y-135297619D01*
X120191428Y-135392857D01*
X120191428Y-135535714D01*
X120143809Y-135630952D01*
X120096190Y-135678571D01*
X120000952Y-135726190D01*
X119620000Y-135726190D01*
X121000952Y-136154761D02*
X120905714Y-136202380D01*
X120715238Y-136202380D01*
X120620000Y-136154761D01*
X120572380Y-136059523D01*
X120572380Y-135678571D01*
X120620000Y-135583333D01*
X120715238Y-135535714D01*
X120905714Y-135535714D01*
X121000952Y-135583333D01*
X121048571Y-135678571D01*
X121048571Y-135773809D01*
X120572380Y-135869047D01*
X121381904Y-135535714D02*
X121620000Y-136202380D01*
X121858095Y-135535714D01*
X122239047Y-136107142D02*
X122286666Y-136154761D01*
X122239047Y-136202380D01*
X122191428Y-136154761D01*
X122239047Y-136107142D01*
X122239047Y-136202380D01*
X122239047Y-135583333D02*
X122286666Y-135630952D01*
X122239047Y-135678571D01*
X122191428Y-135630952D01*
X122239047Y-135583333D01*
X122239047Y-135678571D01*
X123429523Y-135297619D02*
X123477142Y-135250000D01*
X123572380Y-135202380D01*
X123810476Y-135202380D01*
X123905714Y-135250000D01*
X123953333Y-135297619D01*
X124000952Y-135392857D01*
X124000952Y-135488095D01*
X123953333Y-135630952D01*
X123381904Y-136202380D01*
X124000952Y-136202380D01*
X124429523Y-136107142D02*
X124477142Y-136154761D01*
X124429523Y-136202380D01*
X124381904Y-136154761D01*
X124429523Y-136107142D01*
X124429523Y-136202380D01*
X125381904Y-135202380D02*
X124905714Y-135202380D01*
X124858095Y-135678571D01*
X124905714Y-135630952D01*
X125000952Y-135583333D01*
X125239047Y-135583333D01*
X125334285Y-135630952D01*
X125381904Y-135678571D01*
X125429523Y-135773809D01*
X125429523Y-136011904D01*
X125381904Y-136107142D01*
X125334285Y-136154761D01*
X125239047Y-136202380D01*
X125000952Y-136202380D01*
X124905714Y-136154761D01*
X124858095Y-136107142D01*
D11*
%TO.C,J401*%
X36500000Y-133250000D03*
D12*
X34500000Y-133250000D03*
%TD*%
D13*
%TO.C,C309*%
X52000000Y-30537500D03*
X52000000Y-28462500D03*
%TD*%
D14*
%TO.C,C312*%
X64500000Y-54962500D03*
X64500000Y-57037500D03*
%TD*%
D15*
%TO.C,U202*%
X108387499Y-32025000D03*
X108387499Y-32675000D03*
X108387499Y-33325000D03*
X108387499Y-33975000D03*
X112612499Y-33975000D03*
X112612499Y-33325000D03*
X112612499Y-32675000D03*
X112612499Y-32025000D03*
%TD*%
D16*
%TO.C,J204*%
X113750000Y-67250000D03*
D17*
X115225000Y-68750000D03*
D16*
X113750000Y-70250000D03*
D17*
X112275000Y-68750000D03*
%TD*%
D16*
%TO.C,J203*%
X120250000Y-67249999D03*
D17*
X121725000Y-68749999D03*
X118775000Y-68749999D03*
D16*
X120250000Y-70249999D03*
%TD*%
D18*
%TO.C,J111*%
X69275001Y-132499999D03*
D19*
X69275001Y-129959999D03*
X69275001Y-127419999D03*
X69275001Y-124879999D03*
X69275001Y-122339999D03*
X69275001Y-119799999D03*
X69275001Y-117259999D03*
%TD*%
D20*
%TO.C,R308*%
X48000000Y-30500000D03*
X48000000Y-28500000D03*
%TD*%
%TO.C,R307*%
X44000000Y-30500000D03*
X44000000Y-28500000D03*
%TD*%
D21*
%TO.C,C201*%
X82537500Y-32500001D03*
X80462500Y-32500001D03*
%TD*%
D22*
%TO.C,TP302*%
X71000000Y-33500000D03*
%TD*%
D23*
%TO.C,R212*%
X116999999Y-32500000D03*
X118999999Y-32500000D03*
%TD*%
D21*
%TO.C,C202*%
X82537500Y-36500001D03*
X80462500Y-36500001D03*
%TD*%
D24*
%TO.C,TP303*%
X42750000Y-68750000D03*
%TD*%
D25*
%TO.C,C208*%
X85462500Y-28500001D03*
X87537500Y-28500001D03*
%TD*%
D14*
%TO.C,C211*%
X114000000Y-49962499D03*
X114000000Y-52037499D03*
%TD*%
D26*
%TO.C,J104*%
X123655000Y-42380000D03*
X120345000Y-44920000D03*
X123655000Y-47460000D03*
X120345000Y-50000000D03*
X123655000Y-52540000D03*
X120345000Y-55080000D03*
X123655000Y-57620000D03*
%TD*%
D27*
%TO.C,R204*%
X82500000Y-28500001D03*
X80500000Y-28500001D03*
%TD*%
D18*
%TO.C,SW101*%
X61290001Y-79749999D03*
D19*
X58750001Y-79749999D03*
X56210001Y-79749999D03*
X53670001Y-79749999D03*
X51130001Y-79749999D03*
%TD*%
D22*
%TO.C,TP201*%
X123000000Y-36500000D03*
%TD*%
D20*
%TO.C,R208*%
X100000000Y-30500000D03*
X100000000Y-28500000D03*
%TD*%
D16*
%TO.C,J201*%
X107250000Y-67250000D03*
X107250000Y-70250000D03*
D17*
X105775000Y-68750000D03*
X108725000Y-68750000D03*
%TD*%
D25*
%TO.C,C308*%
X33462500Y-28500000D03*
X35537500Y-28500000D03*
%TD*%
D18*
%TO.C,J108*%
X91380001Y-87499999D03*
D19*
X93920001Y-87499999D03*
X96460001Y-87499999D03*
X99000001Y-87499999D03*
X101540001Y-87499999D03*
X104080001Y-87499999D03*
X106620001Y-87499999D03*
%TD*%
D26*
%TO.C,J102*%
X71655000Y-42380000D03*
X68345000Y-44920000D03*
X71655000Y-47460000D03*
X68345000Y-50000000D03*
X71655000Y-52540000D03*
X68345000Y-55080000D03*
X71655000Y-57620000D03*
%TD*%
D20*
%TO.C,R206*%
X92000000Y-32250000D03*
X92000000Y-30250000D03*
%TD*%
D23*
%TO.C,R202*%
X87750001Y-61500000D03*
X89750001Y-61500000D03*
%TD*%
%TO.C,R301*%
X30750000Y-61500000D03*
X32750000Y-61500000D03*
%TD*%
D20*
%TO.C,R309*%
X44000000Y-36000000D03*
X44000000Y-34000000D03*
%TD*%
%TO.C,R211*%
X100000000Y-36000000D03*
X100000000Y-34000000D03*
%TD*%
D14*
%TO.C,C305*%
X40750000Y-61500000D03*
X40750000Y-63575000D03*
%TD*%
D21*
%TO.C,C304*%
X32787500Y-65500000D03*
X30712500Y-65500000D03*
%TD*%
%TO.C,C302*%
X30537500Y-36500000D03*
X28462500Y-36500000D03*
%TD*%
D14*
%TO.C,C405*%
X38750001Y-79462499D03*
X38750001Y-81537499D03*
%TD*%
D20*
%TO.C,R209*%
X96000000Y-36000000D03*
X96000000Y-34000000D03*
%TD*%
D25*
%TO.C,C206*%
X121962499Y-28500000D03*
X124037499Y-28500000D03*
%TD*%
D28*
%TO.C,mouse-bite-2mm-slot*%
X76750000Y-34250000D03*
X76750000Y-35000000D03*
X75250000Y-35750000D03*
X76750000Y-35750000D03*
X75250000Y-35000000D03*
X75250000Y-34250000D03*
%TD*%
D25*
%TO.C,C306*%
X69962500Y-28500000D03*
X72037500Y-28500000D03*
%TD*%
D26*
%TO.C,J101*%
X36655000Y-44882500D03*
X33345000Y-47422500D03*
X36655000Y-49962500D03*
X33345000Y-52502500D03*
X36655000Y-55042500D03*
%TD*%
D22*
%TO.C,TP301*%
X71000000Y-36500000D03*
%TD*%
D23*
%TO.C,R310*%
X60000000Y-28500000D03*
X62000000Y-28500000D03*
%TD*%
%TO.C,R305*%
X33500000Y-32500000D03*
X35500000Y-32500000D03*
%TD*%
D29*
%TO.C,BZ101*%
X80500001Y-130620784D03*
D22*
X80500001Y-125620784D03*
%TD*%
D21*
%TO.C,C301*%
X30537500Y-32500000D03*
X28462500Y-32500000D03*
%TD*%
D30*
%TO.C,R401*%
X38750001Y-84499999D03*
X38750001Y-86499999D03*
%TD*%
D16*
%TO.C,J303*%
X68250000Y-67250000D03*
D17*
X66775000Y-68750000D03*
X69725000Y-68750000D03*
D16*
X68250000Y-70250000D03*
%TD*%
%TO.C,J302*%
X48750000Y-67250000D03*
D17*
X47275000Y-68750000D03*
X50225000Y-68750000D03*
D16*
X48750000Y-70250000D03*
%TD*%
D20*
%TO.C,R311*%
X48000000Y-36000000D03*
X48000000Y-34000000D03*
%TD*%
D27*
%TO.C,R303*%
X32000000Y-40000000D03*
X30000000Y-40000000D03*
%TD*%
D31*
%TO.C,U101*%
X43120001Y-133669999D03*
X43120001Y-131129999D03*
X43120001Y-128589999D03*
X43120001Y-126049999D03*
X43120001Y-100649999D03*
X27880001Y-131129999D03*
X38040001Y-90489999D03*
X43120001Y-123509999D03*
X43120001Y-120969999D03*
D32*
X40070001Y-129859999D03*
D31*
X43120001Y-118429999D03*
X43120001Y-115889999D03*
X43120001Y-113349999D03*
X43120001Y-110809999D03*
X43120001Y-108269999D03*
X43120001Y-105729999D03*
X43120001Y-103189999D03*
X27880001Y-103189999D03*
X27880001Y-105729999D03*
X27880001Y-108269999D03*
X27880001Y-110809999D03*
X27880001Y-113349999D03*
X27880001Y-115889999D03*
X27880001Y-118429999D03*
X27880001Y-120969999D03*
X27880001Y-123509999D03*
X27880001Y-126049999D03*
X27880001Y-128589999D03*
X43120001Y-98109999D03*
X43120001Y-95569999D03*
X43120001Y-93029999D03*
X43120001Y-90489999D03*
X43120001Y-87949999D03*
X43120001Y-85409999D03*
X43120001Y-82869999D03*
X43120001Y-80329999D03*
X43120001Y-77789999D03*
X27880001Y-77789999D03*
X27880001Y-80329999D03*
X27880001Y-82869999D03*
X27880001Y-85409999D03*
X27880001Y-87949999D03*
X27880001Y-90489999D03*
X27880001Y-93029999D03*
X27880001Y-95569999D03*
X27880001Y-98109999D03*
D32*
X40070001Y-124779999D03*
X40070001Y-127319999D03*
D31*
X43120001Y-136209999D03*
X27880001Y-100649999D03*
X27880001Y-133669999D03*
X35500001Y-90489999D03*
D33*
X32330001Y-121239999D03*
X32330001Y-123239999D03*
D31*
X30420001Y-90489999D03*
X32960001Y-90489999D03*
D33*
X30330001Y-123239999D03*
X30330001Y-121239999D03*
X34330001Y-121239999D03*
X34330001Y-123239999D03*
D32*
X40070001Y-122239999D03*
X40070001Y-119699999D03*
D31*
X40580001Y-90489999D03*
X27880001Y-136209999D03*
X30420001Y-133669999D03*
%TD*%
D14*
%TO.C,C205*%
X92750001Y-61500000D03*
X92750001Y-63575000D03*
%TD*%
D23*
%TO.C,R205*%
X85500000Y-32500001D03*
X87500000Y-32500001D03*
%TD*%
D25*
%TO.C,C310*%
X54962500Y-28500000D03*
X57037500Y-28500000D03*
%TD*%
D15*
%TO.C,U201*%
X87387500Y-38525001D03*
X87387500Y-39175001D03*
X87387500Y-39825001D03*
X87387500Y-40475001D03*
X91612500Y-40475001D03*
X91612500Y-39825001D03*
X91612500Y-39175001D03*
X91612500Y-38525001D03*
%TD*%
D25*
%TO.C,C210*%
X106962499Y-28500000D03*
X109037499Y-28500000D03*
%TD*%
D18*
%TO.C,J107*%
X93950001Y-122724999D03*
D19*
X96490001Y-122724999D03*
X99030001Y-122724999D03*
X101570001Y-122724999D03*
X104110001Y-122724999D03*
%TD*%
D20*
%TO.C,R207*%
X96000000Y-30500000D03*
X96000000Y-28500000D03*
%TD*%
D23*
%TO.C,R302*%
X35750000Y-61500000D03*
X37750000Y-61500000D03*
%TD*%
%TO.C,R201*%
X82750000Y-61500000D03*
X84750000Y-61500000D03*
%TD*%
D25*
%TO.C,C307*%
X64962500Y-28500000D03*
X67037500Y-28500000D03*
%TD*%
D34*
%TO.C,BT401*%
X70000001Y-80449999D03*
D35*
X68750001Y-80449999D03*
%TD*%
D13*
%TO.C,C209*%
X103999999Y-30537500D03*
X103999999Y-28462500D03*
%TD*%
D30*
%TO.C,R213*%
X116999999Y-35500000D03*
X116999999Y-37500000D03*
%TD*%
%TO.C,R313*%
X65000000Y-35500000D03*
X65000000Y-37500000D03*
%TD*%
D15*
%TO.C,U301*%
X35387500Y-38525000D03*
X35387500Y-39175000D03*
X35387500Y-39825000D03*
X35387500Y-40475000D03*
X39612500Y-40475000D03*
X39612500Y-39825000D03*
X39612500Y-39175000D03*
X39612500Y-38525000D03*
%TD*%
D13*
%TO.C,C407*%
X31750001Y-81537499D03*
X31750001Y-79462499D03*
%TD*%
D36*
%TO.C,D101*%
X31212501Y-103112499D03*
D37*
X31750001Y-103162499D03*
D36*
X32287501Y-103112499D03*
D38*
X32287501Y-100899999D03*
D37*
X31750001Y-100837499D03*
D38*
X31212501Y-100899999D03*
%TD*%
D36*
%TO.C,D202*%
X103462499Y-36112500D03*
D37*
X103999999Y-36162500D03*
D36*
X104537499Y-36112500D03*
D38*
X104537499Y-33900000D03*
D37*
X103999999Y-33837500D03*
D38*
X103462499Y-33900000D03*
%TD*%
D14*
%TO.C,C406*%
X31750001Y-84462499D03*
X31750001Y-86537499D03*
%TD*%
D23*
%TO.C,R312*%
X65000000Y-32500000D03*
X67000000Y-32500000D03*
%TD*%
D15*
%TO.C,U302*%
X56387500Y-32025000D03*
X56387500Y-32675000D03*
X56387500Y-33325000D03*
X56387500Y-33975000D03*
X60612500Y-33975000D03*
X60612500Y-33325000D03*
X60612500Y-32675000D03*
X60612500Y-32025000D03*
%TD*%
D24*
%TO.C,TP203*%
X94750001Y-68750000D03*
%TD*%
D25*
%TO.C,C203*%
X87712501Y-65500000D03*
X89787501Y-65500000D03*
%TD*%
D16*
%TO.C,J301*%
X55250000Y-67250000D03*
X55250000Y-70250000D03*
D17*
X56725000Y-68750000D03*
X53775000Y-68750000D03*
%TD*%
D20*
%TO.C,R402*%
X35250001Y-81499999D03*
X35250001Y-79499999D03*
%TD*%
D16*
%TO.C,J304*%
X61750000Y-67250000D03*
D17*
X63225000Y-68750000D03*
D16*
X61750000Y-70250000D03*
D17*
X60275000Y-68750000D03*
%TD*%
D16*
%TO.C,J202*%
X100750001Y-67250000D03*
D17*
X99275001Y-68750000D03*
X102225001Y-68750000D03*
D16*
X100750001Y-70250000D03*
%TD*%
D27*
%TO.C,R203*%
X84000000Y-40000001D03*
X82000000Y-40000001D03*
%TD*%
D18*
%TO.C,J110*%
X69285787Y-107012892D03*
D19*
X69285787Y-104472892D03*
X69285787Y-101932892D03*
X69285787Y-99392892D03*
X69285787Y-96852892D03*
X69285787Y-94312892D03*
%TD*%
D36*
%TO.C,D302*%
X51462500Y-36112500D03*
D37*
X52000000Y-36162500D03*
D36*
X52537500Y-36112500D03*
D38*
X52537500Y-33900000D03*
D37*
X52000000Y-33837500D03*
D38*
X51462500Y-33900000D03*
%TD*%
D23*
%TO.C,R210*%
X111999999Y-28500000D03*
X113999999Y-28500000D03*
%TD*%
D25*
%TO.C,C303*%
X35712500Y-65500000D03*
X37787500Y-65500000D03*
%TD*%
D39*
%TO.C,U501*%
X50785001Y-127399999D03*
X62215001Y-127399999D03*
D40*
X52055001Y-121049999D03*
D41*
X53325001Y-118509999D03*
X54595001Y-121049999D03*
X55865001Y-118509999D03*
X57135001Y-121049999D03*
X58405001Y-118509999D03*
X59675001Y-121049999D03*
X60945001Y-118509999D03*
X50175001Y-132479999D03*
X52715001Y-130779999D03*
X60285001Y-132479999D03*
X62825001Y-130779999D03*
D42*
X48625001Y-124349999D03*
X64375001Y-124349999D03*
%TD*%
D28*
%TO.C,mouse-bite-2mm-slot*%
X76750000Y-65750000D03*
X75250000Y-65750000D03*
X76750000Y-65000000D03*
X76750000Y-64250000D03*
X75250000Y-64250000D03*
X75250000Y-65000000D03*
%TD*%
D14*
%TO.C,C212*%
X116500000Y-54962499D03*
X116500000Y-57037499D03*
%TD*%
%TO.C,C311*%
X62000000Y-49962500D03*
X62000000Y-52037500D03*
%TD*%
D26*
%TO.C,J103*%
X88655000Y-44920000D03*
X85345000Y-47460000D03*
X88655000Y-50000000D03*
X85345000Y-52540000D03*
X88655000Y-55080000D03*
%TD*%
D30*
%TO.C,R403*%
X35250001Y-84499999D03*
X35250001Y-86499999D03*
%TD*%
D21*
%TO.C,C204*%
X84787501Y-65500000D03*
X82712501Y-65500000D03*
%TD*%
D22*
%TO.C,TP202*%
X122999999Y-33500000D03*
%TD*%
D20*
%TO.C,R306*%
X40000000Y-32250000D03*
X40000000Y-30250000D03*
%TD*%
D25*
%TO.C,C207*%
X116962499Y-28500000D03*
X119037499Y-28500000D03*
%TD*%
D27*
%TO.C,R304*%
X30500000Y-28500000D03*
X28500000Y-28500000D03*
%TD*%
D18*
%TO.C,J106*%
X91400001Y-127499999D03*
D19*
X93940001Y-127499999D03*
X96480001Y-127499999D03*
X99020001Y-127499999D03*
X101560001Y-127499999D03*
X104100001Y-127499999D03*
X106640001Y-127499999D03*
%TD*%
D18*
%TO.C,J109*%
X51275001Y-112549999D03*
D19*
X51275001Y-110009999D03*
X51275001Y-107469999D03*
X51275001Y-104929999D03*
%TD*%
D18*
%TO.C,J105*%
X93950001Y-92524999D03*
D19*
X96490001Y-92524999D03*
X99030001Y-92524999D03*
X101570001Y-92524999D03*
X104110001Y-92524999D03*
%TD*%
D18*
%TO.C,J112*%
X51300001Y-99499999D03*
D19*
X51300001Y-96959999D03*
X51300001Y-94419999D03*
X51300001Y-91879999D03*
X51300001Y-89339999D03*
%TD*%
M02*
