M48
; DRILL file {KiCad 6.0.6-1.fc36} date Sun 31 Jul 2022 20:59:23 CEST
; FORMAT={-:-/ absolute / inch / decimal}
; #@! TF.CreationDate,2022-07-31T20:59:23+02:00
; #@! TF.GenerationSoftware,Kicad,Pcbnew,6.0.6-1.fc36
; #@! TF.FileFunction,Plated,1,2,PTH
FMAT,2
INCH
; #@! TA.AperFunction,Plated,PTH,ViaDrill
T1C0.0157
; #@! TA.AperFunction,Plated,PTH,ComponentDrill
T2C0.0197
; #@! TA.AperFunction,Plated,PTH,ComponentDrill
T3C0.0276
; #@! TA.AperFunction,Plated,PTH,ComponentDrill
T4C0.0295
; #@! TA.AperFunction,Plated,PTH,ComponentDrill
T5C0.0315
; #@! TA.AperFunction,Plated,PTH,ComponentDrill
T6C0.0354
; #@! TA.AperFunction,Plated,PTH,ComponentDrill
T7C0.0394
; #@! TA.AperFunction,Plated,PTH,ComponentDrill
T8C0.0402
; #@! TA.AperFunction,Plated,PTH,ComponentDrill
T9C0.0630
%
G90
G05
T1
X1.0823Y-1.1923
X1.0823Y-1.4923
X1.0823Y-1.7923
X1.0823Y-2.0923
X1.0823Y-2.3923
X1.0823Y-2.6923
X1.1823Y-2.8923
X1.1823Y-3.6805
X1.1823Y-3.9805
X1.1823Y-4.4805
X1.1823Y-5.0805
X1.2008Y-1.4862
X1.2823Y-1.3923
X1.2823Y-1.6923
X1.2823Y-1.9923
X1.2823Y-2.2923
X1.2823Y-4.2805
X1.3823Y-2.4923
X1.3823Y-2.7923
X1.3823Y-3.7805
X1.3823Y-4.0805
X1.3976Y-4.2087
X1.3976Y-5.374
X1.437Y-3.4843
X1.437Y-3.6496
X1.44Y-4.4685
X1.4606Y-4.8622
X1.4764Y-3.6969
X1.4823Y-1.0923
X1.4823Y-1.8923
X1.5551Y-1.3583
X1.5753Y-3.6388
X1.5823Y-2.5923
X1.5823Y-2.8923
X1.6043Y-1.4862
X1.6142Y-1.4272
X1.6142Y-3.1299
X1.6142Y-3.2087
X1.6142Y-3.4055
X1.6181Y-4.0669
X1.6417Y-3.4764
X1.6496Y-4.2087
X1.7756Y-3.3819
X1.7823Y-2.4923
X1.7823Y-2.7923
X1.7823Y-3.8805
X1.7823Y-4.8805
X1.811Y-2.4213
X1.8307Y-3.3425
X1.8583Y-1.8878
X1.8701Y-3.4921
X1.878Y-3.3425
X1.8823Y-4.0805
X1.8878Y-2.0787
X1.9331Y-3.3425
X1.9783Y-1.4764
X1.9783Y-4.0453
X1.9823Y-1.0923
X1.9823Y-2.5923
X1.9823Y-2.8923
X2.0276Y-1.2894
X2.0787Y-2.0492
X2.0965Y-1.4764
X2.1161Y-1.1811
X2.126Y-2.4213
X2.1823Y-2.4923
X2.1823Y-3.5805
X2.1823Y-3.9805
X2.1823Y-4.2805
X2.1823Y-5.1805
X2.185Y-5.0098
X2.2823Y-1.1923
X2.2823Y-2.6923
X2.2823Y-3.7805
X2.2933Y-1.2894
X2.313Y-3.2185
X2.3823Y-2.8923
X2.3823Y-4.0805
X2.3823Y-4.3805
X2.3823Y-4.8805
X2.4252Y-1.4331
X2.4409Y-1.2402
X2.4409Y-1.9094
X2.4508Y-1.5157
X2.4803Y-1.2835
X2.4823Y-1.6923
X2.4823Y-2.1923
X2.4823Y-2.4923
X2.4823Y-3.1805
X2.4823Y-3.5805
X2.5098Y-1.1713
X2.5197Y-1.3484
X2.5394Y-1.5354
X2.5394Y-2.0177
X2.5551Y-4.4843
X2.563Y-4.5709
X2.5823Y-1.8923
X2.5823Y-2.6923
X2.5823Y-3.7805
X2.5823Y-4.1805
X2.5823Y-4.9805
X2.6823Y-1.3923
X2.6823Y-2.0923
X2.6823Y-2.8923
X2.7205Y-3.4134
X2.7205Y-4.4843
X2.7264Y-1.1713
X2.752Y-3.4528
X2.7823Y-1.1923
X2.7823Y-1.5923
X2.7823Y-2.3923
X2.8823Y-1.7923
X2.8823Y-2.1923
X2.8823Y-2.5923
X2.8823Y-3.2805
X2.8823Y-3.8805
X2.8823Y-4.1805
X2.8823Y-4.5805
X2.8823Y-4.8805
X2.9823Y-5.2805
X3.1626Y-1.1923
X3.1626Y-1.8923
X3.1626Y-2.1923
X3.1626Y-2.4923
X3.1626Y-2.7923
X3.1823Y-3.6805
X3.1823Y-4.2805
X3.1823Y-4.5805
X3.248Y-1.4862
X3.2626Y-1.6923
X3.2823Y-3.2805
X3.2823Y-4.7805
X3.2823Y-5.0805
X3.2946Y-3.752
X3.3626Y-1.9923
X3.3626Y-2.2923
X3.3626Y-2.6923
X3.3823Y-3.0805
X3.3823Y-4.0805
X3.3823Y-4.3805
X3.4626Y-2.4923
X3.4626Y-2.8923
X3.4823Y-3.8805
X3.4823Y-4.5805
X3.4823Y-4.8805
X3.5626Y-1.0923
X3.5626Y-1.8923
X3.5823Y-3.1805
X3.5823Y-3.6805
X3.5823Y-4.1805
X3.5823Y-5.2805
X3.6024Y-1.3583
X3.6516Y-1.4862
X3.6614Y-1.4272
X3.6626Y-2.5923
X3.6823Y-3.9805
X3.6823Y-4.3805
X3.6823Y-4.6805
X3.7626Y-2.7923
X3.7823Y-3.0805
X3.7823Y-5.1805
X3.8583Y-2.4213
X3.8626Y-1.0923
X3.8626Y-2.4923
X3.8823Y-3.2805
X3.8823Y-3.7805
X3.8823Y-4.0805
X3.8823Y-4.4805
X3.9055Y-1.8878
X3.9351Y-2.0787
X3.9626Y-2.6923
X3.9823Y-5.2805
X4.0256Y-1.4764
X4.0626Y-2.8923
X4.0748Y-1.2894
X4.0823Y-3.0805
X4.0823Y-3.8805
X4.0823Y-4.1805
X4.0823Y-4.5805
X4.126Y-2.0492
X4.1437Y-1.4764
X4.1626Y-2.5923
X4.1634Y-1.1811
X4.1732Y-2.4213
X4.1823Y-3.2805
X4.1823Y-3.5805
X4.1823Y-4.3805
X4.1823Y-4.7805
X4.1823Y-5.1805
X4.2823Y-3.7805
X4.2823Y-4.0805
X4.2823Y-4.9805
X4.3406Y-1.2894
X4.3626Y-2.3923
X4.3626Y-2.6923
X4.3823Y-3.0805
X4.3823Y-3.3805
X4.3823Y-4.2805
X4.3823Y-4.5805
X4.3823Y-5.2805
X4.4626Y-2.8923
X4.4724Y-1.4331
X4.4823Y-3.5805
X4.4823Y-3.8805
X4.4823Y-4.7805
X4.4823Y-5.0805
X4.4882Y-1.2402
X4.4882Y-1.9094
X4.498Y-1.5157
X4.5276Y-1.2835
X4.5571Y-1.1713
X4.5626Y-2.2923
X4.5626Y-2.5923
X4.5669Y-1.3484
X4.5823Y-3.1805
X4.5823Y-4.0805
X4.5823Y-4.3805
X4.5866Y-1.5354
X4.5866Y-2.0177
X4.6626Y-1.3923
X4.6626Y-1.6923
X4.6626Y-2.0923
X4.6626Y-2.7923
X4.6823Y-3.3805
X4.6823Y-3.6805
X4.6823Y-4.5805
X4.6823Y-4.8805
X4.6823Y-5.1805
X4.7626Y-1.8923
X4.7736Y-1.1713
X4.7823Y-3.0805
X4.7823Y-3.8805
X4.7823Y-4.1805
X4.8626Y-1.1923
X4.8626Y-1.5923
X4.8626Y-2.1923
X4.8626Y-2.4923
X4.8626Y-2.8923
X4.8823Y-3.2805
X4.8823Y-3.5805
X4.8823Y-4.3805
X4.8823Y-4.6805
X4.8823Y-4.9805
X4.8823Y-5.2805
T2
X2.7067Y-3.1673
X2.7559Y-3.1673
T3
X1.1941Y-4.7732
X1.1941Y-4.852
X1.2728Y-4.7732
X1.2728Y-4.852
X1.3516Y-4.7732
X1.3516Y-4.852
T4
X1.3583Y-5.2461
X1.437Y-5.2461
X1.5776Y-4.7126
X1.5776Y-4.8126
X1.5776Y-4.9126
X1.5776Y-5.0126
X1.5776Y-5.1126
T5
X1.0976Y-3.0626
X1.0976Y-3.1626
X1.0976Y-3.2626
X1.0976Y-3.3626
X1.0976Y-3.4626
X1.0976Y-3.5626
X1.0976Y-3.6626
X1.0976Y-3.7626
X1.0976Y-3.8626
X1.0976Y-3.9626
X1.0976Y-4.0626
X1.0976Y-4.1626
X1.0976Y-4.2626
X1.0976Y-4.3626
X1.0976Y-4.4626
X1.0976Y-4.5626
X1.0976Y-4.6626
X1.0976Y-4.7626
X1.0976Y-4.8626
X1.0976Y-4.9626
X1.0976Y-5.0626
X1.0976Y-5.1626
X1.0976Y-5.2626
X1.0976Y-5.3626
X1.1976Y-3.5626
X1.1976Y-5.2626
X1.2976Y-3.5626
X1.3976Y-3.5626
X1.4976Y-3.5626
X1.5976Y-3.5626
X1.6976Y-3.0626
X1.6976Y-3.1626
X1.6976Y-3.2626
X1.6976Y-3.3626
X1.6976Y-3.4626
X1.6976Y-3.5626
X1.6976Y-3.6626
X1.6976Y-3.7626
X1.6976Y-3.8626
X1.6976Y-3.9626
X1.6976Y-4.0626
X1.6976Y-4.1626
X1.6976Y-4.2626
X1.6976Y-4.3626
X1.6976Y-4.4626
X1.6976Y-4.5626
X1.6976Y-4.6626
X1.6976Y-4.7626
X1.6976Y-4.8626
X1.6976Y-4.9626
X1.6976Y-5.0626
X1.6976Y-5.1626
X1.6976Y-5.2626
X1.6976Y-5.3626
T6
X2.0494Y-4.7657
X2.0994Y-4.6657
X2.1494Y-4.7657
X2.1994Y-4.6657
X2.2494Y-4.7657
X2.2994Y-4.6657
X2.3494Y-4.7657
X2.3994Y-4.6657
T7
X2.013Y-3.1398
X2.0187Y-4.1311
X2.0187Y-4.2311
X2.0187Y-4.3311
X2.0187Y-4.4311
X2.0197Y-3.5173
X2.0197Y-3.6173
X2.0197Y-3.7173
X2.0197Y-3.8173
X2.0197Y-3.9173
X2.113Y-3.1398
X2.213Y-3.1398
X2.313Y-3.1398
X2.413Y-3.1398
X2.7274Y-4.6165
X2.7274Y-4.7165
X2.7274Y-4.8165
X2.7274Y-4.9165
X2.7274Y-5.0165
X2.7274Y-5.1165
X2.7274Y-5.2165
X2.7278Y-3.7131
X2.7278Y-3.8131
X2.7278Y-3.9131
X2.7278Y-4.0131
X2.7278Y-4.1131
X2.7278Y-4.2131
X3.1693Y-4.9457
X3.1693Y-5.1426
X3.5976Y-3.4449
X3.5984Y-5.0197
X3.6976Y-3.4449
X3.6984Y-5.0197
X3.6988Y-3.6427
X3.6988Y-4.8317
X3.7976Y-3.4449
X3.7984Y-5.0197
X3.7988Y-3.6427
X3.7988Y-4.8317
X3.8976Y-3.4449
X3.8984Y-5.0197
X3.8988Y-3.6427
X3.8988Y-4.8317
X3.9976Y-3.4449
X3.9984Y-5.0197
X3.9988Y-3.6427
X3.9988Y-4.8317
X4.0976Y-3.4449
X4.0984Y-5.0197
X4.0988Y-3.6427
X4.0988Y-4.8317
X4.1976Y-3.4449
X4.1984Y-5.0197
T8
X1.9754Y-5.2157
X2.0754Y-5.1488
X2.3734Y-5.2157
X2.4734Y-5.1488
T9
X1.9144Y-4.8957
X2.5344Y-4.8957
T0
M30
