M48
; DRILL file {KiCad 6.0.7-1.fc36} date Sat 03 Sep 2022 07:14:21 PM CEST
; FORMAT={-:-/ absolute / inch / decimal}
; #@! TF.CreationDate,2022-09-03T19:14:21+02:00
; #@! TF.GenerationSoftware,Kicad,Pcbnew,6.0.7-1.fc36
; #@! TF.FileFunction,Plated,1,2,PTH
FMAT,2
INCH
; #@! TA.AperFunction,Plated,PTH,ViaDrill
T1C0.0157
; #@! TA.AperFunction,Plated,PTH,ComponentDrill
T2C0.0197
; #@! TA.AperFunction,Plated,PTH,ComponentDrill
T3C0.0276
; #@! TA.AperFunction,Plated,PTH,ComponentDrill
T4C0.0295
; #@! TA.AperFunction,Plated,PTH,ComponentDrill
T5C0.0315
; #@! TA.AperFunction,Plated,PTH,ComponentDrill
T6C0.0354
; #@! TA.AperFunction,Plated,PTH,ComponentDrill
T7C0.0394
; #@! TA.AperFunction,Plated,PTH,ComponentDrill
T8C0.0402
; #@! TA.AperFunction,Plated,PTH,ComponentDrill
T9C0.0630
%
G90
G05
T1
X1.0236Y-1.6732
X1.0236Y-1.8701
X1.0236Y-2.0669
X1.0236Y-2.2638
X1.0562Y-1.1823
X1.0562Y-1.4823
X1.0562Y-1.7823
X1.0562Y-2.1823
X1.0562Y-2.4823
X1.0562Y-2.7823
X1.1562Y-1.9823
X1.1562Y-3.0823
X1.1562Y-3.3823
X1.1562Y-3.7823
X1.1562Y-4.0823
X1.1562Y-4.4823
X1.1562Y-5.1823
X1.2106Y-1.1713
X1.2562Y-1.3823
X1.2562Y-1.6823
X1.2562Y-2.8823
X1.3562Y-1.8823
X1.3562Y-2.3823
X1.3562Y-2.6823
X1.3562Y-3.1823
X1.3562Y-3.5823
X1.3562Y-3.8823
X1.3562Y-4.1823
X1.3562Y-4.6823
X1.3976Y-1.5354
X1.3976Y-2.0177
X1.4173Y-3.9862
X1.4173Y-1.3484
X1.4272Y-1.1713
X1.4562Y-1.4823
X1.4562Y-2.1823
X1.4562Y-3.3823
X1.4562Y-4.9823
X1.4562Y-5.3823
X1.4567Y-1.2402
X1.4567Y-1.2835
X1.4852Y-1.3386
X1.4961Y-1.9094
X1.5059Y-3.6811
X1.5059Y-4.8425
X1.5118Y-1.4331
X1.5256Y-4.3898
X1.5562Y-2.7823
X1.5562Y-3.0823
X1.624Y-5.0591
X1.624Y-5.1673
X1.6562Y-1.1823
X1.6562Y-2.4823
X1.6634Y-4.2224
X1.7562Y-2.8823
X1.7562Y-3.1823
X1.7562Y-3.5823
X1.7562Y-3.8823
X1.7562Y-4.1823
X1.7562Y-4.5823
X1.7562Y-4.8823
X1.7913Y-4.4685
X1.811Y-2.4213
X1.8209Y-1.3484
X1.8307Y-3.3622
X1.8406Y-1.4764
X1.8562Y-2.5823
X1.8562Y-5.0823
X1.8583Y-2.0492
X1.8701Y-3.5118
X1.878Y-3.3622
X1.8898Y-3.435
X1.9193Y-4.3799
X1.9331Y-3.3622
X1.9562Y-1.0823
X1.9562Y-2.7823
X1.9562Y-3.2823
X1.9562Y-3.6823
X1.9562Y-4.6823
X1.9882Y-1.3386
X1.998Y-1.4862
X2.0492Y-2.0787
X2.0562Y-1.4823
X2.0562Y-2.4823
X2.0562Y-5.2823
X2.0571Y-4.0453
X2.0787Y-1.8878
X2.1161Y-3.8583
X2.126Y-2.4213
X2.1555Y-1.378
X2.1562Y-2.6823
X2.1562Y-3.9823
X2.1562Y-4.8823
X2.2562Y-1.0823
X2.2562Y-2.8823
X2.2562Y-3.2823
X2.2562Y-4.2823
X2.2562Y-5.0823
X2.2933Y-1.4567
X2.2933Y-1.4567
X2.313Y-3.2382
X2.3562Y-2.5823
X2.3622Y-1.3484
X2.4016Y-1.7717
X2.4016Y-1.9685
X2.4016Y-2.1654
X2.4409Y-1.4469
X2.4562Y-1.1823
X2.4562Y-1.8823
X2.4562Y-2.2823
X2.4562Y-2.7823
X2.4562Y-3.6823
X2.4562Y-4.6823
X2.4562Y-4.9823
X2.5Y-3.4843
X2.5Y-3.6024
X2.5Y-4.0354
X2.5551Y-4.5039
X2.5562Y-2.4823
X2.5562Y-3.1823
X2.5562Y-3.9823
X2.6378Y-3.4331
X2.6562Y-1.3823
X2.6562Y-1.7823
X2.6562Y-2.1823
X2.6562Y-2.6823
X2.6562Y-3.7823
X2.6575Y-4.1535
X2.7362Y-1.4862
X2.7562Y-1.1823
X2.7562Y-1.9823
X2.7562Y-2.8823
X2.7562Y-3.2823
X2.7859Y-3.9178
X2.8562Y-1.5823
X2.8562Y-2.2823
X2.8562Y-2.5823
X2.8562Y-3.6823
X2.8562Y-3.9823
X2.8562Y-4.2823
X2.8562Y-4.5823
X2.8562Y-4.8823
X2.8562Y-5.1823
X2.8839Y-4.4587
X2.9562Y-3.0823
X2.9562Y-3.4823
X3.0562Y-1.0823
X3.0562Y-1.3823
X3.0562Y-1.7823
X3.0562Y-2.1823
X3.0562Y-2.4823
X3.0562Y-2.7823
X3.0562Y-3.8823
X3.0562Y-4.1823
X3.0562Y-4.4823
X3.0562Y-4.7823
X3.0562Y-5.2823
X3.0906Y-1.6732
X3.0906Y-1.8701
X3.0906Y-2.0669
X3.0906Y-2.2638
X3.1562Y-1.5823
X3.1562Y-1.9823
X3.1562Y-3.6823
X3.1562Y-5.0823
X3.2562Y-2.2823
X3.2562Y-2.5823
X3.2562Y-2.8823
X3.2562Y-3.0823
X3.2562Y-3.4823
X3.2562Y-4.2823
X3.2562Y-4.5823
X3.2562Y-4.8823
X3.2582Y-1.1715
X3.2946Y-3.7717
X3.3268Y-4.4587
X3.3268Y-5.2854
X3.3562Y-1.3823
X3.3562Y-1.6823
X3.3562Y-2.0823
X3.3562Y-3.2823
X3.3562Y-4.0823
X3.4452Y-1.5356
X3.4452Y-2.0179
X3.4562Y-2.3823
X3.4562Y-2.7823
X3.4562Y-3.6823
X3.4562Y-4.3823
X3.4562Y-4.6823
X3.4562Y-5.1823
X3.4649Y-1.3486
X3.4748Y-1.1715
X3.5043Y-1.2404
X3.5043Y-1.2837
X3.5328Y-1.3388
X3.5437Y-1.9096
X3.5562Y-2.1823
X3.5562Y-3.0823
X3.5562Y-3.4823
X3.5562Y-3.8823
X3.5562Y-4.1823
X3.5562Y-4.8823
X3.5562Y-5.3823
X3.5594Y-1.4333
X3.6562Y-1.4823
X3.6562Y-2.4823
X3.6562Y-2.8823
X3.6562Y-3.2823
X3.6562Y-4.4823
X3.7562Y-1.1823
X3.7562Y-3.7823
X3.7562Y-4.0823
X3.7562Y-4.6823
X3.7562Y-5.1823
X3.8562Y-2.7823
X3.8562Y-3.0823
X3.8562Y-3.3823
X3.8562Y-5.3823
X3.8586Y-2.4215
X3.8685Y-1.3486
X3.8881Y-1.4766
X3.9059Y-2.0494
X3.9562Y-2.5823
X3.9562Y-3.9823
X3.9562Y-4.2823
X3.9562Y-4.5823
X3.9562Y-4.9823
X4.0358Y-1.3388
X4.0456Y-1.4864
X4.0562Y-2.8823
X4.0562Y-3.1823
X4.0562Y-5.1823
X4.0968Y-2.0789
X4.1263Y-1.888
X4.1562Y-1.0823
X4.1562Y-1.4823
X4.1562Y-2.4823
X4.1562Y-3.3823
X4.1562Y-3.7823
X4.1562Y-4.0823
X4.1562Y-4.3823
X4.1562Y-4.6823
X4.1562Y-5.3823
X4.1736Y-2.4215
X4.2031Y-1.3781
X4.2562Y-3.0823
X4.2562Y-3.5823
X4.2562Y-4.8823
X4.3409Y-1.4569
X4.3409Y-1.4569
X4.3562Y-1.1823
X4.3562Y-2.5823
X4.3562Y-2.8823
X4.3562Y-3.2823
X4.3562Y-3.8823
X4.3562Y-4.1823
X4.3562Y-4.4823
X4.3562Y-5.0823
X4.4098Y-1.3486
X4.4492Y-1.7719
X4.4492Y-1.9687
X4.4492Y-2.1656
X4.4562Y-1.8823
X4.4562Y-2.2823
X4.4562Y-3.4823
X4.4562Y-4.6823
X4.4562Y-5.2823
X4.4885Y-1.447
X4.5562Y-1.3823
X4.5562Y-2.0823
X4.5562Y-2.4823
X4.5562Y-2.7823
X4.5562Y-3.0823
X4.5562Y-3.6823
X4.5562Y-3.9823
X4.5562Y-4.2823
X4.5562Y-4.8823
X4.6562Y-1.7823
X4.6562Y-3.2823
X4.6562Y-4.4823
X4.6562Y-5.0823
X4.6562Y-5.3823
X4.7562Y-1.1823
X4.7562Y-1.9823
X4.7562Y-2.6823
X4.7562Y-3.4823
X4.7562Y-3.7823
X4.7562Y-4.0823
X4.7562Y-4.6823
X4.7838Y-1.4864
X4.8562Y-1.3823
X4.8562Y-2.1823
X4.8562Y-2.4823
X4.8562Y-2.8823
X4.8562Y-3.0823
X4.8562Y-4.2823
X4.8562Y-4.8823
X4.8562Y-5.1823
X4.9562Y-1.0823
X4.9562Y-1.5823
X4.9562Y-1.8823
X4.9562Y-3.2823
X4.9562Y-3.5823
X4.9562Y-3.8823
X4.9562Y-4.4823
X4.9562Y-5.3823
T2
X2.7067Y-3.187
X2.7559Y-3.187
T3
X1.1886Y-4.7921
X1.1886Y-4.8709
X1.2673Y-4.7921
X1.2673Y-4.8709
X1.3461Y-4.7921
X1.3461Y-4.8709
T4
X1.3583Y-5.2657
X1.437Y-5.2657
T5
X1.0921Y-3.0815
X1.0921Y-3.1815
X1.0921Y-3.2815
X1.0921Y-3.3815
X1.0921Y-3.4815
X1.0921Y-3.5815
X1.0921Y-3.6815
X1.0921Y-3.7815
X1.0921Y-3.8815
X1.0921Y-3.9815
X1.0921Y-4.0815
X1.0921Y-4.1815
X1.0921Y-4.2815
X1.0921Y-4.3815
X1.0921Y-4.4815
X1.0921Y-4.5815
X1.0921Y-4.6815
X1.0921Y-4.7815
X1.0921Y-4.8815
X1.0921Y-4.9815
X1.0921Y-5.0815
X1.0921Y-5.1815
X1.0921Y-5.2815
X1.0921Y-5.3815
X1.5921Y-3.5815
X1.6921Y-3.0815
X1.6921Y-3.1815
X1.6921Y-3.2815
X1.6921Y-3.3815
X1.6921Y-3.4815
X1.6921Y-3.5815
X1.6921Y-3.6815
X1.6921Y-3.7815
X1.6921Y-3.8815
X1.6921Y-3.9815
X1.6921Y-4.0815
X1.6921Y-4.1815
X1.6921Y-4.2815
X1.6921Y-4.3815
X1.6921Y-4.4815
X1.6921Y-4.5815
X1.6921Y-4.6815
X1.6921Y-4.7815
X1.6921Y-4.8815
X1.6921Y-4.9815
X1.6921Y-5.0815
X1.6921Y-5.1815
X1.6921Y-5.2815
X1.6921Y-5.3815
T6
X2.0494Y-4.8248
X2.0994Y-4.7248
X2.1494Y-4.8248
X2.1994Y-4.7248
X2.2494Y-4.8248
X2.2994Y-4.7248
X2.3494Y-4.8248
X2.3994Y-4.7248
T7
X2.013Y-3.1594
X2.0187Y-4.1508
X2.0187Y-4.2508
X2.0187Y-4.3508
X2.0187Y-4.4508
X2.0197Y-3.537
X2.0197Y-3.637
X2.0197Y-3.737
X2.0197Y-3.837
X2.0197Y-3.937
X2.113Y-3.1594
X2.213Y-3.1594
X2.313Y-3.1594
X2.413Y-3.1594
X2.7274Y-4.6362
X2.7274Y-4.7362
X2.7274Y-4.8362
X2.7274Y-4.9362
X2.7274Y-5.0362
X2.7274Y-5.1362
X2.7274Y-5.2362
X2.7278Y-3.7328
X2.7278Y-3.8328
X2.7278Y-3.9328
X2.7278Y-4.0328
X2.7278Y-4.1328
X2.7278Y-4.2328
X3.1693Y-4.9654
X3.1693Y-5.1622
X3.637Y-3.4646
X3.6378Y-5.0394
X3.737Y-3.4646
X3.7378Y-5.0394
X3.7382Y-3.6624
X3.7382Y-4.8514
X3.837Y-3.4646
X3.8378Y-5.0394
X3.8382Y-3.6624
X3.8382Y-4.8514
X3.937Y-3.4646
X3.9378Y-5.0394
X3.9382Y-3.6624
X3.9382Y-4.8514
X4.037Y-3.4646
X4.0378Y-5.0394
X4.0382Y-3.6624
X4.0382Y-4.8514
X4.137Y-3.4646
X4.1378Y-5.0394
X4.1382Y-3.6624
X4.1382Y-4.8514
X4.237Y-3.4646
X4.2378Y-5.0394
T8
X1.9754Y-5.2748
X2.0754Y-5.2079
X2.3734Y-5.2748
X2.4734Y-5.2079
T9
X1.9144Y-4.9547
X2.5344Y-4.9547
T0
M30
