%TF.GenerationSoftware,KiCad,Pcbnew,6.0.6-1.fc36*%
%TF.CreationDate,2022-07-31T22:14:55+02:00*%
%TF.ProjectId,CosmicWatch-ventidue,436f736d-6963-4576-9174-63682d76656e,2.5*%
%TF.SameCoordinates,Original*%
%TF.FileFunction,Paste,Bot*%
%TF.FilePolarity,Positive*%
%FSLAX46Y46*%
G04 Gerber Fmt 4.6, Leading zero omitted, Abs format (unit mm)*
G04 Created by KiCad (PCBNEW 6.0.6-1.fc36) date 2022-07-31 22:14:55*
%MOMM*%
%LPD*%
G01*
G04 APERTURE LIST*
G04 Aperture macros list*
%AMRoundRect*
0 Rectangle with rounded corners*
0 $1 Rounding radius*
0 $2 $3 $4 $5 $6 $7 $8 $9 X,Y pos of 4 corners*
0 Add a 4 corners polygon primitive as box body*
4,1,4,$2,$3,$4,$5,$6,$7,$8,$9,$2,$3,0*
0 Add four circle primitives for the rounded corners*
1,1,$1+$1,$2,$3*
1,1,$1+$1,$4,$5*
1,1,$1+$1,$6,$7*
1,1,$1+$1,$8,$9*
0 Add four rect primitives between the rounded corners*
20,1,$1+$1,$2,$3,$4,$5,0*
20,1,$1+$1,$4,$5,$6,$7,0*
20,1,$1+$1,$6,$7,$8,$9,0*
20,1,$1+$1,$8,$9,$2,$3,0*%
G04 Aperture macros list end*
%ADD10C,0.010000*%
%ADD11RoundRect,0.250000X-0.475000X0.337500X-0.475000X-0.337500X0.475000X-0.337500X0.475000X0.337500X0*%
%ADD12RoundRect,0.250000X-0.337500X-0.475000X0.337500X-0.475000X0.337500X0.475000X-0.337500X0.475000X0*%
%ADD13RoundRect,0.250000X0.337500X0.475000X-0.337500X0.475000X-0.337500X-0.475000X0.337500X-0.475000X0*%
%ADD14R,1.560000X0.650000*%
%ADD15R,2.000000X0.650000*%
%ADD16RoundRect,0.250000X-0.350000X-0.450000X0.350000X-0.450000X0.350000X0.450000X-0.350000X0.450000X0*%
%ADD17RoundRect,0.090000X0.210000X-0.647500X0.210000X0.647500X-0.210000X0.647500X-0.210000X-0.647500X0*%
%ADD18RoundRect,0.090000X-0.647500X-0.210000X0.647500X-0.210000X0.647500X0.210000X-0.647500X0.210000X0*%
%ADD19RoundRect,0.090000X-0.210000X0.647500X-0.210000X-0.647500X0.210000X-0.647500X0.210000X0.647500X0*%
%ADD20RoundRect,0.090000X0.647500X0.210000X-0.647500X0.210000X-0.647500X-0.210000X0.647500X-0.210000X0*%
%ADD21RoundRect,0.250001X1.074999X-0.462499X1.074999X0.462499X-1.074999X0.462499X-1.074999X-0.462499X0*%
%ADD22RoundRect,0.250000X0.475000X-0.337500X0.475000X0.337500X-0.475000X0.337500X-0.475000X-0.337500X0*%
%ADD23R,0.900000X1.200000*%
%ADD24RoundRect,0.250000X0.350000X0.450000X-0.350000X0.450000X-0.350000X-0.450000X0.350000X-0.450000X0*%
G04 APERTURE END LIST*
%TO.C,D201*%
G36*
X105325000Y-50600000D02*
G01*
X103275000Y-50600000D01*
X103275000Y-49400000D01*
X105325000Y-49400000D01*
X105325000Y-50600000D01*
G37*
D10*
X105325000Y-50600000D02*
X103275000Y-50600000D01*
X103275000Y-49400000D01*
X105325000Y-49400000D01*
X105325000Y-50600000D01*
G36*
X100725000Y-50600000D02*
G01*
X98675000Y-50600000D01*
X98675000Y-49400000D01*
X100725000Y-49400000D01*
X100725000Y-50600000D01*
G37*
X100725000Y-50600000D02*
X98675000Y-50600000D01*
X98675000Y-49400000D01*
X100725000Y-49400000D01*
X100725000Y-50600000D01*
G36*
X103025000Y-48300000D02*
G01*
X100975000Y-48300000D01*
X100975000Y-47100000D01*
X103025000Y-47100000D01*
X103025000Y-48300000D01*
G37*
X103025000Y-48300000D02*
X100975000Y-48300000D01*
X100975000Y-47100000D01*
X103025000Y-47100000D01*
X103025000Y-48300000D01*
G36*
X103025000Y-51025000D02*
G01*
X100975000Y-51025000D01*
X100975000Y-48975000D01*
X103025000Y-48975000D01*
X103025000Y-51025000D01*
G37*
X103025000Y-51025000D02*
X100975000Y-51025000D01*
X100975000Y-48975000D01*
X103025000Y-48975000D01*
X103025000Y-51025000D01*
G36*
X103025000Y-52900000D02*
G01*
X100975000Y-52900000D01*
X100975000Y-51700000D01*
X103025000Y-51700000D01*
X103025000Y-52900000D01*
G37*
X103025000Y-52900000D02*
X100975000Y-52900000D01*
X100975000Y-51700000D01*
X103025000Y-51700000D01*
X103025000Y-52900000D01*
%TO.C,D301*%
G36*
X51025000Y-48300000D02*
G01*
X48975000Y-48300000D01*
X48975000Y-47100000D01*
X51025000Y-47100000D01*
X51025000Y-48300000D01*
G37*
X51025000Y-48300000D02*
X48975000Y-48300000D01*
X48975000Y-47100000D01*
X51025000Y-47100000D01*
X51025000Y-48300000D01*
G36*
X53325000Y-50600000D02*
G01*
X51275000Y-50600000D01*
X51275000Y-49400000D01*
X53325000Y-49400000D01*
X53325000Y-50600000D01*
G37*
X53325000Y-50600000D02*
X51275000Y-50600000D01*
X51275000Y-49400000D01*
X53325000Y-49400000D01*
X53325000Y-50600000D01*
G36*
X48725000Y-50600000D02*
G01*
X46675000Y-50600000D01*
X46675000Y-49400000D01*
X48725000Y-49400000D01*
X48725000Y-50600000D01*
G37*
X48725000Y-50600000D02*
X46675000Y-50600000D01*
X46675000Y-49400000D01*
X48725000Y-49400000D01*
X48725000Y-50600000D01*
G36*
X51025000Y-51025000D02*
G01*
X48975000Y-51025000D01*
X48975000Y-48975000D01*
X51025000Y-48975000D01*
X51025000Y-51025000D01*
G37*
X51025000Y-51025000D02*
X48975000Y-51025000D01*
X48975000Y-48975000D01*
X51025000Y-48975000D01*
X51025000Y-51025000D01*
G36*
X51025000Y-52900000D02*
G01*
X48975000Y-52900000D01*
X48975000Y-51700000D01*
X51025000Y-51700000D01*
X51025000Y-52900000D01*
G37*
X51025000Y-52900000D02*
X48975000Y-52900000D01*
X48975000Y-51700000D01*
X51025000Y-51700000D01*
X51025000Y-52900000D01*
%TD*%
D11*
%TO.C,C501*%
X57250001Y-123462499D03*
X57250001Y-125537499D03*
%TD*%
D12*
%TO.C,C403*%
X77737501Y-100449999D03*
X79812501Y-100449999D03*
%TD*%
D13*
%TO.C,C404*%
X33537501Y-79499999D03*
X31462501Y-79499999D03*
%TD*%
D14*
%TO.C,U401*%
X82362501Y-97199999D03*
X82362501Y-96249999D03*
X82362501Y-95299999D03*
X85062501Y-95299999D03*
X85062501Y-97199999D03*
%TD*%
D15*
%TO.C,U402*%
X39750001Y-83799999D03*
X39750001Y-84749999D03*
X39750001Y-85699999D03*
X36330001Y-85699999D03*
X36330001Y-84749999D03*
X36330001Y-83799999D03*
%TD*%
D16*
%TO.C,R106*%
X30500001Y-97999999D03*
X32500001Y-97999999D03*
%TD*%
D17*
%TO.C,D201*%
X104850000Y-53187500D03*
D18*
X98812500Y-52850000D03*
D19*
X99150000Y-46812500D03*
D20*
X105187500Y-47150000D03*
%TD*%
D21*
%TO.C,L401*%
X32250001Y-86737499D03*
X32250001Y-83762499D03*
%TD*%
D16*
%TO.C,R105*%
X30750001Y-110999999D03*
X32750001Y-110999999D03*
%TD*%
D17*
%TO.C,D301*%
X52850000Y-53187500D03*
D18*
X46812500Y-52850000D03*
D19*
X47150000Y-46812500D03*
D20*
X53187500Y-47150000D03*
%TD*%
D13*
%TO.C,C402*%
X84750001Y-100499999D03*
X82675001Y-100499999D03*
%TD*%
D22*
%TO.C,C401*%
X78962501Y-97287499D03*
X78962501Y-95212499D03*
%TD*%
D23*
%TO.C,D401*%
X39650001Y-79749999D03*
X36350001Y-79749999D03*
%TD*%
D24*
%TO.C,R102*%
X77750001Y-130749999D03*
X75750001Y-130749999D03*
%TD*%
M02*
