M48
; DRILL file {KiCad 6.0.7-1.fc36} date Sat 03 Sep 2022 07:14:21 PM CEST
; FORMAT={-:-/ absolute / inch / decimal}
; #@! TF.CreationDate,2022-09-03T19:14:21+02:00
; #@! TF.GenerationSoftware,Kicad,Pcbnew,6.0.7-1.fc36
; #@! TF.FileFunction,NonPlated,1,2,NPTH
FMAT,2
INCH
; #@! TA.AperFunction,NonPlated,NPTH,ComponentDrill
T1C0.0197
; #@! TA.AperFunction,NonPlated,NPTH,ComponentDrill
T2C0.1280
%
G90
G05
T1
X1.3484Y-2.9626
X1.3484Y-3.0217
X1.378Y-2.9626
X1.378Y-3.0217
X1.4075Y-2.9626
X1.4075Y-3.0217
X2.5295Y-2.9626
X2.5295Y-3.0217
X2.5591Y-2.9626
X2.5591Y-3.0217
X2.5886Y-2.9626
X2.5886Y-3.0217
X2.9626Y-1.3484
X2.9626Y-1.378
X2.9626Y-1.4075
X2.9626Y-2.5295
X2.9626Y-2.5591
X2.9626Y-2.5886
X3.0217Y-1.3484
X3.0217Y-1.378
X3.0217Y-1.4075
X3.0217Y-2.5295
X3.0217Y-2.5591
X3.0217Y-2.5886
X3.3957Y-2.9626
X3.3957Y-3.0217
X3.4252Y-2.9626
X3.4252Y-3.0217
X3.4547Y-2.9626
X3.4547Y-3.0217
X4.5768Y-2.9626
X4.5768Y-3.0217
X4.6063Y-2.9626
X4.6063Y-3.0217
X4.6358Y-2.9626
X4.6358Y-3.0217
T2
X1.9994Y-5.0748
X2.4494Y-5.0748
T0
M30
