<svg version="1.1" xmlns="http://www.w3.org/2000/svg" xmlns:xlink="http://www.w3.org/1999/xlink" stroke-linecap="round" stroke-linejoin="round" stroke-width="0" fill-rule="evenodd" width="84.77399899999999mm" height="102.86399899999999mm" viewBox="27226.001 -136863.999 84773.999 102863.999" id="vgocSfofJr2QGuq9teHz"><defs><g id="vgocSfofJr2QGuq9teHz_pad-11"><polygon points="350,625 -350,625 -350,-625 350,-625"/><circle cx="350" cy="625" r="250"/><circle cx="-350" cy="625" r="250"/><circle cx="-350" cy="-625" r="250"/><circle cx="350" cy="-625" r="250"/><polygon points="350,375 -350,375 -350,875 350,875"/><polygon points="-100,625 -100,-625 -600,-625 -600,625"/><polygon points="-350,-875 350,-875 350,-375 -350,-375"/><polygon points="600,-625 600,625 100,625 100,-625"/></g><rect x="-600" y="-875" width="1200" height="1750" rx="600" ry="600" id="vgocSfofJr2QGuq9teHz_pad-12"/><rect x="-850" y="-850" width="1700" height="1700" id="vgocSfofJr2QGuq9teHz_pad-13"/><rect x="-850" y="-850" width="1700" height="1700" rx="850" ry="850" id="vgocSfofJr2QGuq9teHz_pad-14"/><circle cx="0" cy="0" r="250" id="vgocSfofJr2QGuq9teHz_pad-15"/><rect x="-1000" y="-1000" width="2000" height="2000" id="vgocSfofJr2QGuq9teHz_pad-16"/><circle cx="0" cy="0" r="1000" id="vgocSfofJr2QGuq9teHz_pad-17"/><circle cx="0" cy="0" r="654" id="vgocSfofJr2QGuq9teHz_pad-18"/><circle cx="0" cy="0" r="629" id="vgocSfofJr2QGuq9teHz_pad-19"/><circle cx="0" cy="0" r="604" id="vgocSfofJr2QGuq9teHz_pad-20"/><g id="vgocSfofJr2QGuq9teHz_pad-21"><polygon points="200,450 -200,450 -200,-450 200,-450"/><circle cx="200" cy="450" r="200"/><circle cx="-200" cy="450" r="200"/><circle cx="-200" cy="-450" r="200"/><circle cx="200" cy="-450" r="200"/><polygon points="200,250 -200,250 -200,650 200,650"/><polygon points="0,450 0,-450 -400,-450 -400,450"/><polygon points="-200,-650 200,-650 200,-250 -200,-250"/><polygon points="400,-450 400,450 0,450 0,-450"/></g><rect x="-400" y="-650" width="800" height="1300" rx="400" ry="400" id="vgocSfofJr2QGuq9teHz_pad-22"/><circle cx="0" cy="0" r="1625" id="vgocSfofJr2QGuq9teHz_pad-23"/><g id="vgocSfofJr2QGuq9teHz_pad-24"><polygon points="-499.5,-499.5 499.5,-499.5 499.5,499.5 -499.5,499.5"/><circle cx="-499.5" cy="-499.5" r="250.5"/><circle cx="499.5" cy="-499.5" r="250.5"/><circle cx="499.5" cy="499.5" r="250.5"/><circle cx="-499.5" cy="499.5" r="250.5"/><polygon points="-499.5,-750 499.5,-750 499.5,-249 -499.5,-249"/><polygon points="750,-499.5 750,499.5 249,499.5 249,-499.5"/><polygon points="499.5,249 -499.5,249 -499.5,750 499.5,750"/><polygon points="-249,499.5 -249,-499.5 -750,-499.5 -750,499.5"/></g><circle cx="0" cy="0" r="750" id="vgocSfofJr2QGuq9teHz_pad-25"/><circle cx="0" cy="0" r="1250" id="vgocSfofJr2QGuq9teHz_pad-26"/><g id="vgocSfofJr2QGuq9teHz_pad-27"><polygon points="-475,337.5 -475,-337.5 475,-337.5 475,337.5"/><circle cx="-475" cy="337.5" r="250"/><circle cx="-475" cy="-337.5" r="250"/><circle cx="475" cy="-337.5" r="250"/><circle cx="475" cy="337.5" r="250"/><polygon points="-225,337.5 -225,-337.5 -725,-337.5 -725,337.5"/><polygon points="-475,-587.5 475,-587.5 475,-87.5 -475,-87.5"/><polygon points="725,-337.5 725,337.5 225,337.5 225,-337.5"/><polygon points="475,87.5 -475,87.5 -475,587.5 475,587.5"/></g><g id="vgocSfofJr2QGuq9teHz_pad-28"><polygon points="-337.5,-475 337.5,-475 337.5,475 -337.5,475"/><circle cx="-337.5" cy="-475" r="250"/><circle cx="337.5" cy="-475" r="250"/><circle cx="337.5" cy="475" r="250"/><circle cx="-337.5" cy="475" r="250"/><polygon points="-337.5,-725 337.5,-725 337.5,-225 -337.5,-225"/><polygon points="587.5,-475 587.5,475 87.5,475 87.5,-475"/><polygon points="337.5,225 -337.5,225 -337.5,725 337.5,725"/><polygon points="-87.5,475 -87.5,-475 -587.5,-475 -587.5,475"/></g><g id="vgocSfofJr2QGuq9teHz_pad-29"><polygon points="337.5,475 -337.5,475 -337.5,-475 337.5,-475"/><circle cx="337.5" cy="475" r="250"/><circle cx="-337.5" cy="475" r="250"/><circle cx="-337.5" cy="-475" r="250"/><circle cx="337.5" cy="-475" r="250"/><polygon points="337.5,225 -337.5,225 -337.5,725 337.5,725"/><polygon points="-87.5,475 -87.5,-475 -587.5,-475 -587.5,475"/><polygon points="-337.5,-725 337.5,-725 337.5,-225 -337.5,-225"/><polygon points="587.5,-475 587.5,475 87.5,475 87.5,-475"/></g><rect x="-780" y="-325" width="1560" height="650" id="vgocSfofJr2QGuq9teHz_pad-30"/><rect x="-1000" y="-325" width="2000" height="650" id="vgocSfofJr2QGuq9teHz_pad-31"/><g id="vgocSfofJr2QGuq9teHz_pad-32"><polygon points="-350,-450 350,-450 350,450 -350,450"/><circle cx="-350" cy="-450" r="250"/><circle cx="350" cy="-450" r="250"/><circle cx="350" cy="450" r="250"/><circle cx="-350" cy="450" r="250"/><polygon points="-350,-700 350,-700 350,-200 -350,-200"/><polygon points="600,-450 600,450 100,450 100,-450"/><polygon points="350,200 -350,200 -350,700 350,700"/><polygon points="-100,450 -100,-450 -600,-450 -600,450"/></g><g id="vgocSfofJr2QGuq9teHz_pad-33"><polygon points="210,-647.5 210,647.5 -210,647.5 -210,-647.5"/><circle cx="210" cy="-647.5" r="90"/><circle cx="210" cy="647.5" r="90"/><circle cx="-210" cy="647.5" r="90"/><circle cx="-210" cy="-647.5" r="90"/><polygon points="300,-647.5 300,647.5 120,647.5 120,-647.5"/><polygon points="210,557.5 -210,557.5 -210,737.5 210,737.5"/><polygon points="-120,647.5 -120,-647.5 -300,-647.5 -300,647.5"/><polygon points="-210,-737.5 210,-737.5 210,-557.5 -210,-557.5"/></g><g id="vgocSfofJr2QGuq9teHz_pad-34"><polygon points="-647.5,-210 647.5,-210 647.5,210 -647.5,210"/><circle cx="-647.5" cy="-210" r="90"/><circle cx="647.5" cy="-210" r="90"/><circle cx="647.5" cy="210" r="90"/><circle cx="-647.5" cy="210" r="90"/><polygon points="-647.5,-300 647.5,-300 647.5,-120 -647.5,-120"/><polygon points="737.5,-210 737.5,210 557.5,210 557.5,-210"/><polygon points="647.5,120 -647.5,120 -647.5,300 647.5,300"/><polygon points="-557.5,210 -557.5,-210 -737.5,-210 -737.5,210"/></g><g id="vgocSfofJr2QGuq9teHz_pad-35"><polygon points="-210,647.5 -210,-647.5 210,-647.5 210,647.5"/><circle cx="-210" cy="647.5" r="90"/><circle cx="-210" cy="-647.5" r="90"/><circle cx="210" cy="-647.5" r="90"/><circle cx="210" cy="647.5" r="90"/><polygon points="-120,647.5 -120,-647.5 -300,-647.5 -300,647.5"/><polygon points="-210,-737.5 210,-737.5 210,-557.5 -210,-557.5"/><polygon points="300,-647.5 300,647.5 120,647.5 120,-647.5"/><polygon points="210,557.5 -210,557.5 -210,737.5 210,737.5"/></g><g id="vgocSfofJr2QGuq9teHz_pad-36"><polygon points="647.5,210 -647.5,210 -647.5,-210 647.5,-210"/><circle cx="647.5" cy="210" r="90"/><circle cx="-647.5" cy="210" r="90"/><circle cx="-647.5" cy="-210" r="90"/><circle cx="647.5" cy="-210" r="90"/><polygon points="647.5,120 -647.5,120 -647.5,300 647.5,300"/><polygon points="-557.5,210 -557.5,-210 -737.5,-210 -737.5,210"/><polygon points="-647.5,-300 647.5,-300 647.5,-120 -647.5,-120"/><polygon points="737.5,-210 737.5,210 557.5,210 557.5,-210"/></g><g id="vgocSfofJr2QGuq9teHz_pad-37"><polygon points="1074.999,-462.499 1074.999,462.499 -1074.999,462.499 -1074.999,-462.499"/><circle cx="1074.999" cy="-462.499" r="250.001"/><circle cx="1074.999" cy="462.499" r="250.001"/><circle cx="-1074.999" cy="462.499" r="250.001"/><circle cx="-1074.999" cy="-462.499" r="250.001"/><polygon points="1325,-462.499 1325,462.499 824.998,462.499 824.998,-462.499"/><polygon points="1074.999,212.498 -1074.999,212.498 -1074.999,712.5 1074.999,712.5"/><polygon points="-824.998,462.499 -824.998,-462.499 -1325,-462.499 -1325,462.499"/><polygon points="-1074.999,-712.5 1074.999,-712.5 1074.999,-212.498 -1074.999,-212.498"/></g><g id="vgocSfofJr2QGuq9teHz_pad-38"><polygon points="475,-337.5 475,337.5 -475,337.5 -475,-337.5"/><circle cx="475" cy="-337.5" r="250"/><circle cx="475" cy="337.5" r="250"/><circle cx="-475" cy="337.5" r="250"/><circle cx="-475" cy="-337.5" r="250"/><polygon points="725,-337.5 725,337.5 225,337.5 225,-337.5"/><polygon points="475,87.5 -475,87.5 -475,587.5 475,587.5"/><polygon points="-225,337.5 -225,-337.5 -725,-337.5 -725,337.5"/><polygon points="-475,-587.5 475,-587.5 475,-87.5 -475,-87.5"/></g><rect x="-450" y="-600" width="900" height="1200" id="vgocSfofJr2QGuq9teHz_pad-39"/><g id="vgocSfofJr2QGuq9teHz_pad-40"><polygon points="350,450 -350,450 -350,-450 350,-450"/><circle cx="350" cy="450" r="250"/><circle cx="-350" cy="450" r="250"/><circle cx="-350" cy="-450" r="250"/><circle cx="350" cy="-450" r="250"/><polygon points="350,200 -350,200 -350,700 350,700"/><polygon points="-100,450 -100,-450 -600,-450 -600,450"/><polygon points="-350,-700 350,-700 350,-200 -350,-200"/><polygon points="600,-450 600,450 100,450 100,-450"/></g><rect x="-1500" y="-1500" width="3000" height="3000" id="vgocSfofJr2QGuq9teHz_pad-41"/></defs><g transform="translate(0,-170863.999) scale(1,-1)" fill="currentColor" stroke="currentColor"><path d="M 103362 -46751 103384 -46755 103394 -46757 103405 -46760 103425 -46768 103445 -46778 103463 -46790 103481 -46804 103488 -46812 103496 -46819 103510 -46837 103522 -46855 103532 -46875 103540 -46895 103543 -46906 103545 -46916 103549 -46938 103550 -46949 103550 -48450 105051 -48450 105062 -48451 105084 -48455 105094 -48457 105105 -48460 105125 -48468 105145 -48478 105163 -48490 105181 -48504 105188 -48512 105196 -48519 105210 -48537 105222 -48555 105232 -48575 105240 -48595 105243 -48606 105245 -48616 105249 -48638 105250 -48649 105250 -51332 105249 -51344 105245 -51368 105242 -51380 105239 -51391 105235 -51402 105230 -51414 105225 -51424 105219 -51435 105213 -51445 105199 -51465 105183 -51483 105165 -51499 105145 -51513 105135 -51519 105124 -51525 105114 -51530 105102 -51535 105091 -51539 105080 -51542 105068 -51545 105044 -51549 105032 -51550 103550 -51550 103550 -53051 103549 -53062 103545 -53084 103543 -53094 103540 -53105 103532 -53125 103522 -53145 103510 -53163 103496 -53181 103488 -53188 103481 -53196 103463 -53210 103445 -53222 103425 -53232 103405 -53240 103394 -53243 103384 -53245 103362 -53249 103351 -53250 100649 -53250 100638 -53249 100616 -53245 100606 -53243 100595 -53240 100575 -53232 100555 -53222 100537 -53210 100519 -53196 100512 -53188 100504 -53181 100490 -53163 100478 -53145 100468 -53125 100460 -53105 100457 -53094 100455 -53084 100451 -53062 100450 -53051 100450 -51550 98958 -51550 98947 -51549 98936 -51547 98924 -51545 98913 -51543 98891 -51535 98881 -51531 98870 -51526 98860 -51521 98850 -51515 98832 -51501 98823 -51493 98814 -51486 98807 -51477 98799 -51468 98785 -51450 98779 -51440 98774 -51430 98769 -51419 98765 -51409 98757 -51387 98755 -51376 98753 -51364 98751 -51353 98750 -51342 98750 -48649 98751 -48638 98755 -48616 98757 -48606 98760 -48595 98768 -48575 98778 -48555 98790 -48537 98804 -48519 98812 -48512 98819 -48504 98837 -48490 98855 -48478 98875 -48468 98895 -48460 98906 -48457 98916 -48455 98938 -48451 98949 -48450 100450 -48450 100450 -46958 100451 -46947 100453 -46936 100455 -46924 100457 -46913 100465 -46891 100469 -46881 100474 -46870 100479 -46860 100485 -46850 100499 -46832 100507 -46823 100514 -46814 100523 -46807 100532 -46799 100550 -46785 100560 -46779 100570 -46774 100581 -46769 100591 -46765 100613 -46757 100624 -46755 100636 -46753 100647 -46751 100658 -46750 103351 -46750 103362 -46751"/><path d="M 103362 -46751 103384 -46755 103394 -46757 103405 -46760 103425 -46768 103445 -46778 103463 -46790 103481 -46804 103488 -46812 103496 -46819 103510 -46837 103522 -46855 103532 -46875 103540 -46895 103543 -46906 103545 -46916 103549 -46938 103550 -46949 103550 -48450 105051 -48450 105062 -48451 105084 -48455 105094 -48457 105105 -48460 105125 -48468 105145 -48478 105163 -48490 105181 -48504 105188 -48512 105196 -48519 105210 -48537 105222 -48555 105232 -48575 105240 -48595 105243 -48606 105245 -48616 105249 -48638 105250 -48649 105250 -51332 105249 -51344 105245 -51368 105242 -51380 105239 -51391 105235 -51402 105230 -51414 105225 -51424 105219 -51435 105213 -51445 105199 -51465 105183 -51483 105165 -51499 105145 -51513 105135 -51519 105124 -51525 105114 -51530 105102 -51535 105091 -51539 105080 -51542 105068 -51545 105044 -51549 105032 -51550 103550 -51550 103550 -53051 103549 -53062 103545 -53084 103543 -53094 103540 -53105 103532 -53125 103522 -53145 103510 -53163 103496 -53181 103488 -53188 103481 -53196 103463 -53210 103445 -53222 103425 -53232 103405 -53240 103394 -53243 103384 -53245 103362 -53249 103351 -53250 100649 -53250 100638 -53249 100616 -53245 100606 -53243 100595 -53240 100575 -53232 100555 -53222 100537 -53210 100519 -53196 100512 -53188 100504 -53181 100490 -53163 100478 -53145 100468 -53125 100460 -53105 100457 -53094 100455 -53084 100451 -53062 100450 -53051 100450 -51550 98958 -51550 98947 -51549 98936 -51547 98924 -51545 98913 -51543 98891 -51535 98881 -51531 98870 -51526 98860 -51521 98850 -51515 98832 -51501 98823 -51493 98814 -51486 98807 -51477 98799 -51468 98785 -51450 98779 -51440 98774 -51430 98769 -51419 98765 -51409 98757 -51387 98755 -51376 98753 -51364 98751 -51353 98750 -51342 98750 -48649 98751 -48638 98755 -48616 98757 -48606 98760 -48595 98768 -48575 98778 -48555 98790 -48537 98804 -48519 98812 -48512 98819 -48504 98837 -48490 98855 -48478 98875 -48468 98895 -48460 98906 -48457 98916 -48455 98938 -48451 98949 -48450 100450 -48450 100450 -46958 100451 -46947 100453 -46936 100455 -46924 100457 -46913 100465 -46891 100469 -46881 100474 -46870 100479 -46860 100485 -46850 100499 -46832 100507 -46823 100514 -46814 100523 -46807 100532 -46799 100550 -46785 100560 -46779 100570 -46774 100581 -46769 100591 -46765 100613 -46757 100624 -46755 100636 -46753 100647 -46751 100658 -46750 103351 -46750 103362 -46751" fill="none" stroke-width="0.1"/><path d="M 51362 -46751 51384 -46755 51394 -46757 51405 -46760 51425 -46768 51445 -46778 51463 -46790 51481 -46804 51488 -46812 51496 -46819 51510 -46837 51522 -46855 51532 -46875 51540 -46895 51543 -46906 51545 -46916 51549 -46938 51550 -46949 51550 -48450 53051 -48450 53062 -48451 53084 -48455 53094 -48457 53105 -48460 53125 -48468 53145 -48478 53163 -48490 53181 -48504 53188 -48512 53196 -48519 53210 -48537 53222 -48555 53232 -48575 53240 -48595 53243 -48606 53245 -48616 53249 -48638 53250 -48649 53250 -51332 53249 -51344 53245 -51368 53242 -51380 53239 -51391 53235 -51402 53230 -51414 53225 -51424 53219 -51435 53213 -51445 53199 -51465 53183 -51483 53165 -51499 53145 -51513 53135 -51519 53124 -51525 53114 -51530 53102 -51535 53091 -51539 53080 -51542 53068 -51545 53044 -51549 53032 -51550 51550 -51550 51550 -53051 51549 -53062 51545 -53084 51543 -53094 51540 -53105 51532 -53125 51522 -53145 51510 -53163 51496 -53181 51488 -53188 51481 -53196 51463 -53210 51445 -53222 51425 -53232 51405 -53240 51394 -53243 51384 -53245 51362 -53249 51351 -53250 48649 -53250 48638 -53249 48616 -53245 48606 -53243 48595 -53240 48575 -53232 48555 -53222 48537 -53210 48519 -53196 48512 -53188 48504 -53181 48490 -53163 48478 -53145 48468 -53125 48460 -53105 48457 -53094 48455 -53084 48451 -53062 48450 -53051 48450 -51550 46958 -51550 46947 -51549 46936 -51547 46924 -51545 46913 -51543 46891 -51535 46881 -51531 46870 -51526 46860 -51521 46850 -51515 46832 -51501 46823 -51493 46814 -51486 46807 -51477 46799 -51468 46785 -51450 46779 -51440 46774 -51430 46769 -51419 46765 -51409 46757 -51387 46755 -51376 46753 -51364 46751 -51353 46750 -51342 46750 -48649 46751 -48638 46755 -48616 46757 -48606 46760 -48595 46768 -48575 46778 -48555 46790 -48537 46804 -48519 46812 -48512 46819 -48504 46837 -48490 46855 -48478 46875 -48468 46895 -48460 46906 -48457 46916 -48455 46938 -48451 46949 -48450 48450 -48450 48450 -46958 48451 -46947 48453 -46936 48455 -46924 48457 -46913 48465 -46891 48469 -46881 48474 -46870 48479 -46860 48485 -46850 48499 -46832 48507 -46823 48514 -46814 48523 -46807 48532 -46799 48550 -46785 48560 -46779 48570 -46774 48581 -46769 48591 -46765 48613 -46757 48624 -46755 48636 -46753 48647 -46751 48658 -46750 51351 -46750 51362 -46751"/><path d="M 51362 -46751 51384 -46755 51394 -46757 51405 -46760 51425 -46768 51445 -46778 51463 -46790 51481 -46804 51488 -46812 51496 -46819 51510 -46837 51522 -46855 51532 -46875 51540 -46895 51543 -46906 51545 -46916 51549 -46938 51550 -46949 51550 -48450 53051 -48450 53062 -48451 53084 -48455 53094 -48457 53105 -48460 53125 -48468 53145 -48478 53163 -48490 53181 -48504 53188 -48512 53196 -48519 53210 -48537 53222 -48555 53232 -48575 53240 -48595 53243 -48606 53245 -48616 53249 -48638 53250 -48649 53250 -51332 53249 -51344 53245 -51368 53242 -51380 53239 -51391 53235 -51402 53230 -51414 53225 -51424 53219 -51435 53213 -51445 53199 -51465 53183 -51483 53165 -51499 53145 -51513 53135 -51519 53124 -51525 53114 -51530 53102 -51535 53091 -51539 53080 -51542 53068 -51545 53044 -51549 53032 -51550 51550 -51550 51550 -53051 51549 -53062 51545 -53084 51543 -53094 51540 -53105 51532 -53125 51522 -53145 51510 -53163 51496 -53181 51488 -53188 51481 -53196 51463 -53210 51445 -53222 51425 -53232 51405 -53240 51394 -53243 51384 -53245 51362 -53249 51351 -53250 48649 -53250 48638 -53249 48616 -53245 48606 -53243 48595 -53240 48575 -53232 48555 -53222 48537 -53210 48519 -53196 48512 -53188 48504 -53181 48490 -53163 48478 -53145 48468 -53125 48460 -53105 48457 -53094 48455 -53084 48451 -53062 48450 -53051 48450 -51550 46958 -51550 46947 -51549 46936 -51547 46924 -51545 46913 -51543 46891 -51535 46881 -51531 46870 -51526 46860 -51521 46850 -51515 46832 -51501 46823 -51493 46814 -51486 46807 -51477 46799 -51468 46785 -51450 46779 -51440 46774 -51430 46769 -51419 46765 -51409 46757 -51387 46755 -51376 46753 -51364 46751 -51353 46750 -51342 46750 -48649 46751 -48638 46755 -48616 46757 -48606 46760 -48595 46768 -48575 46778 -48555 46790 -48537 46804 -48519 46812 -48512 46819 -48504 46837 -48490 46855 -48478 46875 -48468 46895 -48460 46906 -48457 46916 -48455 46938 -48451 46949 -48450 48450 -48450 48450 -46958 48451 -46947 48453 -46936 48455 -46924 48457 -46913 48465 -46891 48469 -46881 48474 -46870 48479 -46860 48485 -46850 48499 -46832 48507 -46823 48514 -46814 48523 -46807 48532 -46799 48550 -46785 48560 -46779 48570 -46774 48581 -46769 48591 -46765 48613 -46757 48624 -46755 48636 -46753 48647 -46751 48658 -46750 51351 -46750 51362 -46751" fill="none" stroke-width="0.1"/><use xlink:href="#vgocSfofJr2QGuq9teHz_pad-11" x="36500" y="-133250"/><use xlink:href="#vgocSfofJr2QGuq9teHz_pad-12" x="34500" y="-133250"/><use xlink:href="#vgocSfofJr2QGuq9teHz_pad-13" x="69275.001" y="-132499.999"/><use xlink:href="#vgocSfofJr2QGuq9teHz_pad-14" x="69275.001" y="-129959.999"/><use xlink:href="#vgocSfofJr2QGuq9teHz_pad-14" x="69275.001" y="-127419.999"/><use xlink:href="#vgocSfofJr2QGuq9teHz_pad-14" x="69275.001" y="-124879.999"/><use xlink:href="#vgocSfofJr2QGuq9teHz_pad-14" x="69275.001" y="-122339.999"/><use xlink:href="#vgocSfofJr2QGuq9teHz_pad-14" x="69275.001" y="-119799.999"/><use xlink:href="#vgocSfofJr2QGuq9teHz_pad-14" x="69275.001" y="-117259.999"/><use xlink:href="#vgocSfofJr2QGuq9teHz_pad-13" x="61290.001" y="-79749.999"/><use xlink:href="#vgocSfofJr2QGuq9teHz_pad-14" x="58750.001" y="-79749.999"/><use xlink:href="#vgocSfofJr2QGuq9teHz_pad-14" x="56210.001" y="-79749.999"/><use xlink:href="#vgocSfofJr2QGuq9teHz_pad-14" x="53670.001" y="-79749.999"/><use xlink:href="#vgocSfofJr2QGuq9teHz_pad-14" x="51130.001" y="-79749.999"/><use xlink:href="#vgocSfofJr2QGuq9teHz_pad-13" x="91380.001" y="-87499.999"/><use xlink:href="#vgocSfofJr2QGuq9teHz_pad-14" x="93920.001" y="-87499.999"/><use xlink:href="#vgocSfofJr2QGuq9teHz_pad-14" x="96460.001" y="-87499.999"/><use xlink:href="#vgocSfofJr2QGuq9teHz_pad-14" x="99000.001" y="-87499.999"/><use xlink:href="#vgocSfofJr2QGuq9teHz_pad-14" x="101540.001" y="-87499.999"/><use xlink:href="#vgocSfofJr2QGuq9teHz_pad-14" x="104080.001" y="-87499.999"/><use xlink:href="#vgocSfofJr2QGuq9teHz_pad-14" x="106620.001" y="-87499.999"/><use xlink:href="#vgocSfofJr2QGuq9teHz_pad-15" x="76750" y="-34250"/><use xlink:href="#vgocSfofJr2QGuq9teHz_pad-15" x="76750" y="-35000"/><use xlink:href="#vgocSfofJr2QGuq9teHz_pad-15" x="75250" y="-35750"/><use xlink:href="#vgocSfofJr2QGuq9teHz_pad-15" x="76750" y="-35750"/><use xlink:href="#vgocSfofJr2QGuq9teHz_pad-15" x="75250" y="-35000"/><use xlink:href="#vgocSfofJr2QGuq9teHz_pad-15" x="75250" y="-34250"/><use xlink:href="#vgocSfofJr2QGuq9teHz_pad-16" x="80500.001" y="-130620.784"/><use xlink:href="#vgocSfofJr2QGuq9teHz_pad-17" x="80500.001" y="-125620.784"/><use xlink:href="#vgocSfofJr2QGuq9teHz_pad-18" x="43120.001" y="-133669.999"/><use xlink:href="#vgocSfofJr2QGuq9teHz_pad-18" x="43120.001" y="-131129.999"/><use xlink:href="#vgocSfofJr2QGuq9teHz_pad-18" x="43120.001" y="-128589.999"/><use xlink:href="#vgocSfofJr2QGuq9teHz_pad-18" x="43120.001" y="-126049.999"/><use xlink:href="#vgocSfofJr2QGuq9teHz_pad-18" x="43120.001" y="-100649.999"/><use xlink:href="#vgocSfofJr2QGuq9teHz_pad-18" x="27880.001" y="-131129.999"/><use xlink:href="#vgocSfofJr2QGuq9teHz_pad-18" x="38040.001" y="-90489.999"/><use xlink:href="#vgocSfofJr2QGuq9teHz_pad-18" x="43120.001" y="-123509.999"/><use xlink:href="#vgocSfofJr2QGuq9teHz_pad-18" x="43120.001" y="-120969.999"/><use xlink:href="#vgocSfofJr2QGuq9teHz_pad-19" x="40070.001" y="-129859.999"/><use xlink:href="#vgocSfofJr2QGuq9teHz_pad-18" x="43120.001" y="-118429.999"/><use xlink:href="#vgocSfofJr2QGuq9teHz_pad-18" x="43120.001" y="-115889.999"/><use xlink:href="#vgocSfofJr2QGuq9teHz_pad-18" x="43120.001" y="-113349.999"/><use xlink:href="#vgocSfofJr2QGuq9teHz_pad-18" x="43120.001" y="-110809.999"/><use xlink:href="#vgocSfofJr2QGuq9teHz_pad-18" x="43120.001" y="-108269.999"/><use xlink:href="#vgocSfofJr2QGuq9teHz_pad-18" x="43120.001" y="-105729.999"/><use xlink:href="#vgocSfofJr2QGuq9teHz_pad-18" x="43120.001" y="-103189.999"/><use xlink:href="#vgocSfofJr2QGuq9teHz_pad-18" x="27880.001" y="-103189.999"/><use xlink:href="#vgocSfofJr2QGuq9teHz_pad-18" x="27880.001" y="-105729.999"/><use xlink:href="#vgocSfofJr2QGuq9teHz_pad-18" x="27880.001" y="-108269.999"/><use xlink:href="#vgocSfofJr2QGuq9teHz_pad-18" x="27880.001" y="-110809.999"/><use xlink:href="#vgocSfofJr2QGuq9teHz_pad-18" x="27880.001" y="-113349.999"/><use xlink:href="#vgocSfofJr2QGuq9teHz_pad-18" x="27880.001" y="-115889.999"/><use xlink:href="#vgocSfofJr2QGuq9teHz_pad-18" x="27880.001" y="-118429.999"/><use xlink:href="#vgocSfofJr2QGuq9teHz_pad-18" x="27880.001" y="-120969.999"/><use xlink:href="#vgocSfofJr2QGuq9teHz_pad-18" x="27880.001" y="-123509.999"/><use xlink:href="#vgocSfofJr2QGuq9teHz_pad-18" x="27880.001" y="-126049.999"/><use xlink:href="#vgocSfofJr2QGuq9teHz_pad-18" x="27880.001" y="-128589.999"/><use xlink:href="#vgocSfofJr2QGuq9teHz_pad-18" x="43120.001" y="-98109.999"/><use xlink:href="#vgocSfofJr2QGuq9teHz_pad-18" x="43120.001" y="-95569.999"/><use xlink:href="#vgocSfofJr2QGuq9teHz_pad-18" x="43120.001" y="-93029.999"/><use xlink:href="#vgocSfofJr2QGuq9teHz_pad-18" x="43120.001" y="-90489.999"/><use xlink:href="#vgocSfofJr2QGuq9teHz_pad-18" x="43120.001" y="-87949.999"/><use xlink:href="#vgocSfofJr2QGuq9teHz_pad-18" x="43120.001" y="-85409.999"/><use xlink:href="#vgocSfofJr2QGuq9teHz_pad-18" x="43120.001" y="-82869.999"/><use xlink:href="#vgocSfofJr2QGuq9teHz_pad-18" x="43120.001" y="-80329.999"/><use xlink:href="#vgocSfofJr2QGuq9teHz_pad-18" x="43120.001" y="-77789.999"/><use xlink:href="#vgocSfofJr2QGuq9teHz_pad-18" x="27880.001" y="-77789.999"/><use xlink:href="#vgocSfofJr2QGuq9teHz_pad-18" x="27880.001" y="-80329.999"/><use xlink:href="#vgocSfofJr2QGuq9teHz_pad-18" x="27880.001" y="-82869.999"/><use xlink:href="#vgocSfofJr2QGuq9teHz_pad-18" x="27880.001" y="-85409.999"/><use xlink:href="#vgocSfofJr2QGuq9teHz_pad-18" x="27880.001" y="-87949.999"/><use xlink:href="#vgocSfofJr2QGuq9teHz_pad-18" x="27880.001" y="-90489.999"/><use xlink:href="#vgocSfofJr2QGuq9teHz_pad-18" x="27880.001" y="-93029.999"/><use xlink:href="#vgocSfofJr2QGuq9teHz_pad-18" x="27880.001" y="-95569.999"/><use xlink:href="#vgocSfofJr2QGuq9teHz_pad-18" x="27880.001" y="-98109.999"/><use xlink:href="#vgocSfofJr2QGuq9teHz_pad-19" x="40070.001" y="-124779.999"/><use xlink:href="#vgocSfofJr2QGuq9teHz_pad-19" x="40070.001" y="-127319.999"/><use xlink:href="#vgocSfofJr2QGuq9teHz_pad-18" x="43120.001" y="-136209.999"/><use xlink:href="#vgocSfofJr2QGuq9teHz_pad-18" x="27880.001" y="-100649.999"/><use xlink:href="#vgocSfofJr2QGuq9teHz_pad-18" x="27880.001" y="-133669.999"/><use xlink:href="#vgocSfofJr2QGuq9teHz_pad-18" x="35500.001" y="-90489.999"/><use xlink:href="#vgocSfofJr2QGuq9teHz_pad-20" x="32330.001" y="-121239.999"/><use xlink:href="#vgocSfofJr2QGuq9teHz_pad-20" x="32330.001" y="-123239.999"/><use xlink:href="#vgocSfofJr2QGuq9teHz_pad-18" x="30420.001" y="-90489.999"/><use xlink:href="#vgocSfofJr2QGuq9teHz_pad-18" x="32960.001" y="-90489.999"/><use xlink:href="#vgocSfofJr2QGuq9teHz_pad-20" x="30330.001" y="-123239.999"/><use xlink:href="#vgocSfofJr2QGuq9teHz_pad-20" x="30330.001" y="-121239.999"/><use xlink:href="#vgocSfofJr2QGuq9teHz_pad-20" x="34330.001" y="-121239.999"/><use xlink:href="#vgocSfofJr2QGuq9teHz_pad-20" x="34330.001" y="-123239.999"/><use xlink:href="#vgocSfofJr2QGuq9teHz_pad-19" x="40070.001" y="-122239.999"/><use xlink:href="#vgocSfofJr2QGuq9teHz_pad-19" x="40070.001" y="-119699.999"/><use xlink:href="#vgocSfofJr2QGuq9teHz_pad-18" x="40580.001" y="-90489.999"/><use xlink:href="#vgocSfofJr2QGuq9teHz_pad-18" x="27880.001" y="-136209.999"/><use xlink:href="#vgocSfofJr2QGuq9teHz_pad-18" x="30420.001" y="-133669.999"/><use xlink:href="#vgocSfofJr2QGuq9teHz_pad-13" x="93950.001" y="-122724.999"/><use xlink:href="#vgocSfofJr2QGuq9teHz_pad-14" x="96490.001" y="-122724.999"/><use xlink:href="#vgocSfofJr2QGuq9teHz_pad-14" x="99030.001" y="-122724.999"/><use xlink:href="#vgocSfofJr2QGuq9teHz_pad-14" x="101570.001" y="-122724.999"/><use xlink:href="#vgocSfofJr2QGuq9teHz_pad-14" x="104110.001" y="-122724.999"/><use xlink:href="#vgocSfofJr2QGuq9teHz_pad-21" x="70000.001" y="-80449.999"/><use xlink:href="#vgocSfofJr2QGuq9teHz_pad-22" x="68750.001" y="-80449.999"/><use xlink:href="#vgocSfofJr2QGuq9teHz_pad-13" x="69285.787" y="-107012.892"/><use xlink:href="#vgocSfofJr2QGuq9teHz_pad-14" x="69285.787" y="-104472.892"/><use xlink:href="#vgocSfofJr2QGuq9teHz_pad-14" x="69285.787" y="-101932.892"/><use xlink:href="#vgocSfofJr2QGuq9teHz_pad-14" x="69285.787" y="-99392.892"/><use xlink:href="#vgocSfofJr2QGuq9teHz_pad-14" x="69285.787" y="-96852.892"/><use xlink:href="#vgocSfofJr2QGuq9teHz_pad-14" x="69285.787" y="-94312.892"/><use xlink:href="#vgocSfofJr2QGuq9teHz_pad-23" x="50785.001" y="-127399.999"/><use xlink:href="#vgocSfofJr2QGuq9teHz_pad-23" x="62215.001" y="-127399.999"/><use xlink:href="#vgocSfofJr2QGuq9teHz_pad-24" x="52055.001" y="-121049.999"/><use xlink:href="#vgocSfofJr2QGuq9teHz_pad-25" x="53325.001" y="-118509.999"/><use xlink:href="#vgocSfofJr2QGuq9teHz_pad-25" x="54595.001" y="-121049.999"/><use xlink:href="#vgocSfofJr2QGuq9teHz_pad-25" x="55865.001" y="-118509.999"/><use xlink:href="#vgocSfofJr2QGuq9teHz_pad-25" x="57135.001" y="-121049.999"/><use xlink:href="#vgocSfofJr2QGuq9teHz_pad-25" x="58405.001" y="-118509.999"/><use xlink:href="#vgocSfofJr2QGuq9teHz_pad-25" x="59675.001" y="-121049.999"/><use xlink:href="#vgocSfofJr2QGuq9teHz_pad-25" x="60945.001" y="-118509.999"/><use xlink:href="#vgocSfofJr2QGuq9teHz_pad-25" x="50175.001" y="-132479.999"/><use xlink:href="#vgocSfofJr2QGuq9teHz_pad-25" x="52715.001" y="-130779.999"/><use xlink:href="#vgocSfofJr2QGuq9teHz_pad-25" x="60285.001" y="-132479.999"/><use xlink:href="#vgocSfofJr2QGuq9teHz_pad-25" x="62825.001" y="-130779.999"/><use xlink:href="#vgocSfofJr2QGuq9teHz_pad-26" x="48625.001" y="-124349.999"/><use xlink:href="#vgocSfofJr2QGuq9teHz_pad-26" x="64375.001" y="-124349.999"/><use xlink:href="#vgocSfofJr2QGuq9teHz_pad-15" x="76750" y="-65750"/><use xlink:href="#vgocSfofJr2QGuq9teHz_pad-15" x="75250" y="-65750"/><use xlink:href="#vgocSfofJr2QGuq9teHz_pad-15" x="76750" y="-65000"/><use xlink:href="#vgocSfofJr2QGuq9teHz_pad-15" x="76750" y="-64250"/><use xlink:href="#vgocSfofJr2QGuq9teHz_pad-15" x="75250" y="-64250"/><use xlink:href="#vgocSfofJr2QGuq9teHz_pad-15" x="75250" y="-65000"/><use xlink:href="#vgocSfofJr2QGuq9teHz_pad-17" x="84000.001" y="-79999.999"/><use xlink:href="#vgocSfofJr2QGuq9teHz_pad-27" x="57250.001" y="-123462.499"/><use xlink:href="#vgocSfofJr2QGuq9teHz_pad-27" x="57250.001" y="-125537.499"/><use xlink:href="#vgocSfofJr2QGuq9teHz_pad-13" x="91400.001" y="-127499.999"/><use xlink:href="#vgocSfofJr2QGuq9teHz_pad-14" x="93940.001" y="-127499.999"/><use xlink:href="#vgocSfofJr2QGuq9teHz_pad-14" x="96480.001" y="-127499.999"/><use xlink:href="#vgocSfofJr2QGuq9teHz_pad-14" x="99020.001" y="-127499.999"/><use xlink:href="#vgocSfofJr2QGuq9teHz_pad-14" x="101560.001" y="-127499.999"/><use xlink:href="#vgocSfofJr2QGuq9teHz_pad-14" x="104100.001" y="-127499.999"/><use xlink:href="#vgocSfofJr2QGuq9teHz_pad-14" x="106640.001" y="-127499.999"/><use xlink:href="#vgocSfofJr2QGuq9teHz_pad-28" x="77737.501" y="-100449.999"/><use xlink:href="#vgocSfofJr2QGuq9teHz_pad-28" x="79812.501" y="-100449.999"/><use xlink:href="#vgocSfofJr2QGuq9teHz_pad-29" x="33537.501" y="-79499.999"/><use xlink:href="#vgocSfofJr2QGuq9teHz_pad-29" x="31462.501" y="-79499.999"/><use xlink:href="#vgocSfofJr2QGuq9teHz_pad-30" x="82362.501" y="-97199.999"/><use xlink:href="#vgocSfofJr2QGuq9teHz_pad-30" x="82362.501" y="-96249.999"/><use xlink:href="#vgocSfofJr2QGuq9teHz_pad-30" x="82362.501" y="-95299.999"/><use xlink:href="#vgocSfofJr2QGuq9teHz_pad-30" x="85062.501" y="-95299.999"/><use xlink:href="#vgocSfofJr2QGuq9teHz_pad-30" x="85062.501" y="-97199.999"/><use xlink:href="#vgocSfofJr2QGuq9teHz_pad-31" x="39750.001" y="-83799.999"/><use xlink:href="#vgocSfofJr2QGuq9teHz_pad-31" x="39750.001" y="-84749.999"/><use xlink:href="#vgocSfofJr2QGuq9teHz_pad-31" x="39750.001" y="-85699.999"/><use xlink:href="#vgocSfofJr2QGuq9teHz_pad-31" x="36330.001" y="-85699.999"/><use xlink:href="#vgocSfofJr2QGuq9teHz_pad-31" x="36330.001" y="-84749.999"/><use xlink:href="#vgocSfofJr2QGuq9teHz_pad-31" x="36330.001" y="-83799.999"/><use xlink:href="#vgocSfofJr2QGuq9teHz_pad-13" x="51275.001" y="-112549.999"/><use xlink:href="#vgocSfofJr2QGuq9teHz_pad-14" x="51275.001" y="-110009.999"/><use xlink:href="#vgocSfofJr2QGuq9teHz_pad-14" x="51275.001" y="-107469.999"/><use xlink:href="#vgocSfofJr2QGuq9teHz_pad-14" x="51275.001" y="-104929.999"/><use xlink:href="#vgocSfofJr2QGuq9teHz_pad-32" x="30500.001" y="-97999.999"/><use xlink:href="#vgocSfofJr2QGuq9teHz_pad-32" x="32500.001" y="-97999.999"/><use xlink:href="#vgocSfofJr2QGuq9teHz_pad-17" x="74000.001" y="-79999.999"/><use xlink:href="#vgocSfofJr2QGuq9teHz_pad-33" x="104850" y="-53187.5"/><use xlink:href="#vgocSfofJr2QGuq9teHz_pad-34" x="98812.5" y="-52850"/><use xlink:href="#vgocSfofJr2QGuq9teHz_pad-35" x="99150" y="-46812.5"/><use xlink:href="#vgocSfofJr2QGuq9teHz_pad-36" x="105187.5" y="-47150"/><use xlink:href="#vgocSfofJr2QGuq9teHz_pad-17" x="79000.001" y="-79999.999"/><use xlink:href="#vgocSfofJr2QGuq9teHz_pad-37" x="32250.001" y="-86737.499"/><use xlink:href="#vgocSfofJr2QGuq9teHz_pad-37" x="32250.001" y="-83762.499"/><use xlink:href="#vgocSfofJr2QGuq9teHz_pad-17" x="94000.001" y="-79999.999"/><use xlink:href="#vgocSfofJr2QGuq9teHz_pad-32" x="30750.001" y="-110999.999"/><use xlink:href="#vgocSfofJr2QGuq9teHz_pad-32" x="32750.001" y="-110999.999"/><use xlink:href="#vgocSfofJr2QGuq9teHz_pad-33" x="52850" y="-53187.5"/><use xlink:href="#vgocSfofJr2QGuq9teHz_pad-34" x="46812.5" y="-52850"/><use xlink:href="#vgocSfofJr2QGuq9teHz_pad-35" x="47150" y="-46812.5"/><use xlink:href="#vgocSfofJr2QGuq9teHz_pad-36" x="53187.5" y="-47150"/><use xlink:href="#vgocSfofJr2QGuq9teHz_pad-29" x="84750.001" y="-100499.999"/><use xlink:href="#vgocSfofJr2QGuq9teHz_pad-29" x="82675.001" y="-100499.999"/><use xlink:href="#vgocSfofJr2QGuq9teHz_pad-38" x="78962.501" y="-97287.499"/><use xlink:href="#vgocSfofJr2QGuq9teHz_pad-38" x="78962.501" y="-95212.499"/><use xlink:href="#vgocSfofJr2QGuq9teHz_pad-17" x="89000.001" y="-79999.999"/><use xlink:href="#vgocSfofJr2QGuq9teHz_pad-39" x="39650.001" y="-79749.999"/><use xlink:href="#vgocSfofJr2QGuq9teHz_pad-39" x="36350.001" y="-79749.999"/><use xlink:href="#vgocSfofJr2QGuq9teHz_pad-40" x="77750.001" y="-130749.999"/><use xlink:href="#vgocSfofJr2QGuq9teHz_pad-40" x="75750.001" y="-130749.999"/><use xlink:href="#vgocSfofJr2QGuq9teHz_pad-13" x="93950.001" y="-92524.999"/><use xlink:href="#vgocSfofJr2QGuq9teHz_pad-14" x="96490.001" y="-92524.999"/><use xlink:href="#vgocSfofJr2QGuq9teHz_pad-14" x="99030.001" y="-92524.999"/><use xlink:href="#vgocSfofJr2QGuq9teHz_pad-14" x="101570.001" y="-92524.999"/><use xlink:href="#vgocSfofJr2QGuq9teHz_pad-14" x="104110.001" y="-92524.999"/><use xlink:href="#vgocSfofJr2QGuq9teHz_pad-13" x="51300.001" y="-99499.999"/><use xlink:href="#vgocSfofJr2QGuq9teHz_pad-14" x="51300.001" y="-96959.999"/><use xlink:href="#vgocSfofJr2QGuq9teHz_pad-14" x="51300.001" y="-94419.999"/><use xlink:href="#vgocSfofJr2QGuq9teHz_pad-14" x="51300.001" y="-91879.999"/><use xlink:href="#vgocSfofJr2QGuq9teHz_pad-14" x="51300.001" y="-89339.999"/><use xlink:href="#vgocSfofJr2QGuq9teHz_pad-41" x="99000.001" y="-79999.999"/><path d="M 54431.68 -39500.12 54859.215 -39518.787 54870.165 -39519.745 55291.719 -39575.243 55302.545 -39577.152 55717.658 -39669.181 55728.275 -39672.026 56133.782 -39799.881 56144.111 -39803.64 56536.947 -39966.358 56546.909 -39971.004 56924.049 -40167.331 56933.569 -40172.827 57292.169 -40401.281 57301.173 -40407.585 57638.511 -40666.433 57646.931 -40673.499 57962.446 -40962.615 57966.417 -40966.417 58533.583 -41533.583 58537.385 -41537.554 58826.501 -41853.069 58833.567 -41861.489 59092.415 -42198.827 59098.719 -42207.831 59327.173 -42566.431 59332.669 -42575.951 59528.996 -42953.091 59533.642 -42963.053 59696.36 -43355.889 59700.119 -43366.218 59827.974 -43771.725 59830.819 -43782.342 59922.848 -44197.455 59924.757 -44208.281 59980.255 -44629.835 59981.213 -44640.785 59999.88 -45068.32 60000 -45073.816 60000 -54926.184 59999.88 -54931.68 59981.213 -55359.215 59980.255 -55370.165 59924.757 -55791.719 59922.848 -55802.545 59830.819 -56217.658 59827.974 -56228.275 59700.119 -56633.782 59696.36 -56644.111 59533.642 -57036.947 59528.996 -57046.909 59332.669 -57424.049 59327.173 -57433.569 59098.719 -57792.169 59092.415 -57801.173 58833.567 -58138.511 58826.501 -58146.931 58537.385 -58462.446 58533.583 -58466.417 57966.417 -59033.583 57962.446 -59037.385 57646.931 -59326.501 57638.511 -59333.567 57301.173 -59592.415 57292.169 -59598.719 56933.569 -59827.173 56924.049 -59832.669 56546.909 -60028.996 56536.947 -60033.642 56144.111 -60196.36 56133.782 -60200.119 55728.275 -60327.974 55717.658 -60330.819 55302.545 -60422.848 55291.719 -60424.757 54870.165 -60480.255 54859.215 -60481.213 54431.68 -60499.88 54426.184 -60500 45573.816 -60500 45568.32 -60499.88 45140.785 -60481.213 45129.835 -60480.255 44708.281 -60424.757 44697.455 -60422.848 44282.342 -60330.819 44271.725 -60327.974 43866.218 -60200.119 43855.889 -60196.36 43463.053 -60033.642 43453.091 -60028.996 43075.951 -59832.669 43066.431 -59827.173 42707.831 -59598.719 42698.827 -59592.415 42361.489 -59333.567 42353.069 -59326.501 42037.554 -59037.385 42033.583 -59033.583 41466.417 -58466.417 41462.615 -58462.446 41173.499 -58146.931 41166.433 -58138.511 40907.585 -57801.173 40901.281 -57792.169 40672.827 -57433.569 40667.331 -57424.049 40471.004 -57046.909 40466.358 -57036.947 40303.64 -56644.111 40299.881 -56633.782 40172.026 -56228.275 40169.181 -56217.658 40077.152 -55802.545 40075.243 -55791.719 40019.745 -55370.165 40018.787 -55359.215 40000.12 -54931.68 40000 -54926.184 40000 -53278.852 45400 -53278.852 45400.765 -53288.635 45419.684 -53408.821 45425.667 -53427.355 45478.366 -53531.514 45489.753 -53547.313 45571.901 -53630.244 45587.595 -53641.783 45695.623 -53697.733 45704.674 -53701.558 45886.316 -53762.105 45921.11 -53780.125 45941.039 -53794.778 45986.307 -53857.584 45999.221 -53897.587 46000.97 -53902.342 46022.356 -53953.972 46039.129 -53974.787 46088.534 -53995.251 46112.41 -54000 51687.59 -54000 51712.171 -54002.421 51790.223 -54017.946 51835.645 -54036.76 51891.294 -54073.944 51926.056 -54108.706 51963.24 -54164.355 51982.054 -54209.777 52020.415 -54402.633 52029.731 -54425.124 52080.975 -54501.816 52098.184 -54519.025 52174.876 -54570.269 52197.367 -54579.585 52293.932 -54598.793 52306.187 -54600 53493.813 -54600 53506.068 -54598.793 53602.633 -54579.585 53625.124 -54570.269 53701.816 -54519.025 53719.025 -54501.816 53770.269 -54425.124 53779.585 -54402.633 53798.793 -54306.068 53800 -54293.813 53800 -54125.611 53820.002 -54057.49 53877.783 -54009.202 53953.973 -53977.644 53974.787 -53960.871 53995.251 -53911.466 54000 -53887.59 54000 -48326.082 54001.533 -48306.489 54018.133 -48201.033 54030.171 -48163.743 54073.862 -48077.388 54096.774 -48045.599 54164.882 -47976.842 54196.452 -47953.63 54412.405 -47841.783 54428.099 -47830.244 54510.247 -47747.313 54521.634 -47731.514 54574.333 -47627.355 54580.316 -47608.821 54599.235 -47488.635 54600 -47478.852 54600 -46721.148 54599.235 -46711.365 54580.316 -46591.179 54574.333 -46572.645 54521.634 -46468.486 54510.247 -46452.687 54428.099 -46369.756 54412.405 -46358.217 54304.377 -46302.267 54295.326 -46298.442 54113.684 -46237.895 54078.89 -46219.875 54058.961 -46205.222 54013.693 -46142.416 54000.779 -46102.413 53999.03 -46097.658 53977.644 -46046.028 53960.871 -46025.213 53911.466 -46004.749 53887.59 -46000 48326.082 -46000 48306.489 -45998.467 48201.033 -45981.867 48163.743 -45969.829 48077.388 -45926.138 48045.599 -45903.226 47976.842 -45835.118 47953.63 -45803.548 47841.783 -45587.595 47830.244 -45571.901 47747.313 -45489.753 47731.514 -45478.366 47627.355 -45425.667 47608.821 -45419.684 47488.635 -45400.765 47478.852 -45400 46721.148 -45400 46711.365 -45400.765 46591.179 -45419.684 46572.645 -45425.667 46468.486 -45478.366 46452.687 -45489.753 46369.756 -45571.901 46358.217 -45587.595 46302.267 -45695.623 46298.442 -45704.674 46237.895 -45886.316 46219.875 -45921.11 46205.222 -45941.039 46142.416 -45986.307 46102.413 -45999.221 46097.658 -46000.97 46046.028 -46022.356 46025.213 -46039.129 46004.749 -46088.534 46000 -46112.41 46000 -51673.918 45998.467 -51693.511 45981.867 -51798.967 45969.829 -51836.257 45926.138 -51922.612 45903.226 -51954.401 45835.118 -52023.158 45803.548 -52046.37 45587.595 -52158.217 45571.901 -52169.756 45489.753 -52252.687 45478.366 -52268.486 45425.667 -52372.645 45419.684 -52391.179 45400.765 -52511.365 45400 -52521.148 45400 -53278.852 40000 -53278.852 40000 -45073.816 40000.12 -45068.32 40018.787 -44640.785 40019.745 -44629.835 40075.243 -44208.281 40077.152 -44197.455 40169.181 -43782.342 40172.026 -43771.725 40299.881 -43366.218 40303.64 -43355.889 40466.358 -42963.053 40471.004 -42953.091 40667.331 -42575.951 40672.827 -42566.431 40901.281 -42207.831 40907.585 -42198.827 41166.433 -41861.489 41173.499 -41853.069 41462.615 -41537.554 41466.417 -41533.583 42033.583 -40966.417 42037.554 -40962.615 42353.069 -40673.499 42361.489 -40666.433 42698.827 -40407.585 42707.831 -40401.281 43066.431 -40172.827 43075.951 -40167.331 43453.091 -39971.004 43463.053 -39966.358 43855.889 -39803.64 43866.218 -39799.881 44271.725 -39672.026 44282.342 -39669.181 44697.455 -39577.152 44708.281 -39575.243 45129.835 -39519.745 45140.785 -39518.787 45568.32 -39500.12 45573.816 -39500 54426.184 -39500 54431.68 -39500.12"/><path d="M 106431.68 -39500.12 106859.215 -39518.787 106870.165 -39519.745 107291.719 -39575.243 107302.545 -39577.152 107717.658 -39669.181 107728.275 -39672.026 108133.782 -39799.881 108144.111 -39803.64 108536.947 -39966.358 108546.909 -39971.004 108924.049 -40167.331 108933.569 -40172.827 109292.169 -40401.281 109301.173 -40407.585 109638.511 -40666.433 109646.931 -40673.499 109962.446 -40962.615 109966.417 -40966.417 110533.583 -41533.583 110537.385 -41537.554 110826.501 -41853.069 110833.567 -41861.489 111092.415 -42198.827 111098.719 -42207.831 111327.173 -42566.431 111332.669 -42575.951 111528.996 -42953.091 111533.642 -42963.053 111696.36 -43355.889 111700.119 -43366.218 111827.974 -43771.725 111830.819 -43782.342 111922.848 -44197.455 111924.757 -44208.281 111980.255 -44629.835 111981.213 -44640.785 111999.88 -45068.32 112000 -45073.816 112000 -54926.184 111999.88 -54931.68 111981.213 -55359.215 111980.255 -55370.165 111924.757 -55791.719 111922.848 -55802.545 111830.819 -56217.658 111827.974 -56228.275 111700.119 -56633.782 111696.36 -56644.111 111533.642 -57036.947 111528.996 -57046.909 111332.669 -57424.049 111327.173 -57433.569 111098.719 -57792.169 111092.415 -57801.173 110833.567 -58138.511 110826.501 -58146.931 110537.385 -58462.446 110533.583 -58466.417 109966.417 -59033.583 109962.446 -59037.385 109646.931 -59326.501 109638.511 -59333.567 109301.173 -59592.415 109292.169 -59598.719 108933.569 -59827.173 108924.049 -59832.669 108546.909 -60028.996 108536.947 -60033.642 108144.111 -60196.36 108133.782 -60200.119 107728.275 -60327.974 107717.658 -60330.819 107302.545 -60422.848 107291.719 -60424.757 106870.165 -60480.255 106859.215 -60481.213 106431.68 -60499.88 106426.184 -60500 97573.816 -60500 97568.32 -60499.88 97140.785 -60481.213 97129.835 -60480.255 96708.281 -60424.757 96697.455 -60422.848 96282.342 -60330.819 96271.725 -60327.974 95866.218 -60200.119 95855.889 -60196.36 95463.053 -60033.642 95453.091 -60028.996 95075.951 -59832.669 95066.431 -59827.173 94707.831 -59598.719 94698.827 -59592.415 94361.489 -59333.567 94353.069 -59326.501 94037.554 -59037.385 94033.583 -59033.583 93466.417 -58466.417 93462.615 -58462.446 93173.499 -58146.931 93166.433 -58138.511 92907.585 -57801.173 92901.281 -57792.169 92672.827 -57433.569 92667.331 -57424.049 92471.004 -57046.909 92466.358 -57036.947 92303.64 -56644.111 92299.881 -56633.782 92172.026 -56228.275 92169.181 -56217.658 92077.152 -55802.545 92075.243 -55791.719 92019.745 -55370.165 92018.787 -55359.215 92000.12 -54931.68 92000 -54926.184 92000 -53278.852 97400 -53278.852 97400.765 -53288.635 97419.684 -53408.821 97425.667 -53427.355 97478.366 -53531.514 97489.753 -53547.313 97571.901 -53630.244 97587.595 -53641.783 97695.623 -53697.733 97704.674 -53701.558 97886.316 -53762.105 97921.11 -53780.125 97941.039 -53794.778 97986.307 -53857.584 97999.221 -53897.587 98000.97 -53902.342 98022.356 -53953.972 98039.129 -53974.787 98088.534 -53995.251 98112.41 -54000 103687.59 -54000 103712.171 -54002.421 103790.223 -54017.946 103835.645 -54036.76 103891.294 -54073.944 103926.056 -54108.706 103963.24 -54164.355 103982.054 -54209.777 104020.415 -54402.633 104029.731 -54425.124 104080.975 -54501.816 104098.184 -54519.025 104174.876 -54570.269 104197.367 -54579.585 104293.932 -54598.793 104306.187 -54600 105493.813 -54600 105506.068 -54598.793 105602.633 -54579.585 105625.124 -54570.269 105701.816 -54519.025 105719.025 -54501.816 105770.269 -54425.124 105779.585 -54402.633 105798.793 -54306.068 105800 -54293.813 105800 -54125.611 105820.002 -54057.49 105877.783 -54009.202 105953.973 -53977.644 105974.787 -53960.871 105995.251 -53911.466 106000 -53887.59 106000 -48326.082 106001.533 -48306.489 106018.133 -48201.033 106030.171 -48163.743 106073.862 -48077.388 106096.774 -48045.599 106164.882 -47976.842 106196.452 -47953.63 106412.405 -47841.783 106428.099 -47830.244 106510.247 -47747.313 106521.634 -47731.514 106574.333 -47627.355 106580.316 -47608.821 106599.235 -47488.635 106600 -47478.852 106600 -46721.148 106599.235 -46711.365 106580.316 -46591.179 106574.333 -46572.645 106521.634 -46468.486 106510.247 -46452.687 106428.099 -46369.756 106412.405 -46358.217 106304.377 -46302.267 106295.326 -46298.442 106113.684 -46237.895 106078.89 -46219.875 106058.961 -46205.222 106013.693 -46142.416 106000.779 -46102.413 105999.03 -46097.658 105977.644 -46046.028 105960.871 -46025.213 105911.466 -46004.749 105887.59 -46000 100326.082 -46000 100306.489 -45998.467 100201.033 -45981.867 100163.743 -45969.829 100077.388 -45926.138 100045.599 -45903.226 99976.842 -45835.118 99953.63 -45803.548 99841.783 -45587.595 99830.244 -45571.901 99747.313 -45489.753 99731.514 -45478.366 99627.355 -45425.667 99608.821 -45419.684 99488.635 -45400.765 99478.852 -45400 98721.148 -45400 98711.365 -45400.765 98591.179 -45419.684 98572.645 -45425.667 98468.486 -45478.366 98452.687 -45489.753 98369.756 -45571.901 98358.217 -45587.595 98302.267 -45695.623 98298.442 -45704.674 98237.895 -45886.316 98219.875 -45921.11 98205.222 -45941.039 98142.416 -45986.307 98102.413 -45999.221 98097.658 -46000.97 98046.028 -46022.356 98025.213 -46039.129 98004.749 -46088.534 98000 -46112.41 98000 -51673.918 97998.467 -51693.511 97981.867 -51798.967 97969.829 -51836.257 97926.138 -51922.612 97903.226 -51954.401 97835.118 -52023.158 97803.548 -52046.37 97587.595 -52158.217 97571.901 -52169.756 97489.753 -52252.687 97478.366 -52268.486 97425.667 -52372.645 97419.684 -52391.179 97400.765 -52511.365 97400 -52521.148 97400 -53278.852 92000 -53278.852 92000 -45073.816 92000.12 -45068.32 92018.787 -44640.785 92019.745 -44629.835 92075.243 -44208.281 92077.152 -44197.455 92169.181 -43782.342 92172.026 -43771.725 92299.881 -43366.218 92303.64 -43355.889 92466.358 -42963.053 92471.004 -42953.091 92667.331 -42575.951 92672.827 -42566.431 92901.281 -42207.831 92907.585 -42198.827 93166.433 -41861.489 93173.499 -41853.069 93462.615 -41537.554 93466.417 -41533.583 94033.583 -40966.417 94037.554 -40962.615 94353.069 -40673.499 94361.489 -40666.433 94698.827 -40407.585 94707.831 -40401.281 95066.431 -40172.827 95075.951 -40167.331 95453.091 -39971.004 95463.053 -39966.358 95855.889 -39803.64 95866.218 -39799.881 96271.725 -39672.026 96282.342 -39669.181 96697.455 -39577.152 96708.281 -39575.243 97129.835 -39519.745 97140.785 -39518.787 97568.32 -39500.12 97573.816 -39500 106426.184 -39500 106431.68 -39500.12"/></g></svg>