<svg version="1.1" xmlns="http://www.w3.org/2000/svg" xmlns:xlink="http://www.w3.org/1999/xlink" stroke-linecap="round" stroke-linejoin="round" stroke-width="0" fill-rule="evenodd" width="97.035mm" height="75.94999899999999mm" viewBox="27875 -103724.999 97035 75949.999" id="tyjl3uS0q-jJ-24eVpjF"><defs><g id="tyjl3uS0q-jJ-24eVpjF_pad-10"><polygon points="475,-337.5 475,337.5 -475,337.5 -475,-337.5"/><circle cx="475" cy="-337.5" r="250"/><circle cx="475" cy="337.5" r="250"/><circle cx="-475" cy="337.5" r="250"/><circle cx="-475" cy="-337.5" r="250"/><polygon points="725,-337.5 725,337.5 225,337.5 225,-337.5"/><polygon points="475,87.5 -475,87.5 -475,587.5 475,587.5"/><polygon points="-225,337.5 -225,-337.5 -725,-337.5 -725,337.5"/><polygon points="-475,-587.5 475,-587.5 475,-87.5 -475,-87.5"/></g><g id="tyjl3uS0q-jJ-24eVpjF_pad-11"><polygon points="-475,337.5 -475,-337.5 475,-337.5 475,337.5"/><circle cx="-475" cy="337.5" r="250"/><circle cx="-475" cy="-337.5" r="250"/><circle cx="475" cy="-337.5" r="250"/><circle cx="475" cy="337.5" r="250"/><polygon points="-225,337.5 -225,-337.5 -725,-337.5 -725,337.5"/><polygon points="-475,-587.5 475,-587.5 475,-87.5 -475,-87.5"/><polygon points="725,-337.5 725,337.5 225,337.5 225,-337.5"/><polygon points="475,87.5 -475,87.5 -475,587.5 475,587.5"/></g><g id="tyjl3uS0q-jJ-24eVpjF_pad-12"><polygon points="-712.5,-100 712.5,-100 712.5,100 -712.5,100"/><circle cx="-712.5" cy="-100" r="100"/><circle cx="712.5" cy="-100" r="100"/><circle cx="712.5" cy="100" r="100"/><circle cx="-712.5" cy="100" r="100"/><polygon points="-712.5,-200 712.5,-200 712.5,0 -712.5,0"/><polygon points="812.5,-100 812.5,100 612.5,100 612.5,-100"/><polygon points="712.5,0 -712.5,0 -712.5,200 712.5,200"/><polygon points="-612.5,100 -612.5,-100 -812.5,-100 -812.5,100"/></g><rect x="-500" y="-500" width="1000" height="1000" id="tyjl3uS0q-jJ-24eVpjF_pad-13"/><rect x="-525" y="-1100" width="1050" height="2200" id="tyjl3uS0q-jJ-24eVpjF_pad-14"/><g id="tyjl3uS0q-jJ-24eVpjF_pad-15"><polygon points="450,-350 450,350 -450,350 -450,-350"/><circle cx="450" cy="-350" r="250"/><circle cx="450" cy="350" r="250"/><circle cx="-450" cy="350" r="250"/><circle cx="-450" cy="-350" r="250"/><polygon points="700,-350 700,350 200,350 200,-350"/><polygon points="450,100 -450,100 -450,600 450,600"/><polygon points="-200,350 -200,-350 -700,-350 -700,350"/><polygon points="-450,-600 450,-600 450,-100 -450,-100"/></g><g id="tyjl3uS0q-jJ-24eVpjF_pad-16"><polygon points="337.5,475 -337.5,475 -337.5,-475 337.5,-475"/><circle cx="337.5" cy="475" r="250"/><circle cx="-337.5" cy="475" r="250"/><circle cx="-337.5" cy="-475" r="250"/><circle cx="337.5" cy="-475" r="250"/><polygon points="337.5,225 -337.5,225 -337.5,725 337.5,725"/><polygon points="-87.5,475 -87.5,-475 -587.5,-475 -587.5,475"/><polygon points="-337.5,-725 337.5,-725 337.5,-225 -337.5,-225"/><polygon points="587.5,-475 587.5,475 87.5,475 87.5,-475"/></g><g id="tyjl3uS0q-jJ-24eVpjF_pad-17"><polygon points="-350,-450 350,-450 350,450 -350,450"/><circle cx="-350" cy="-450" r="250"/><circle cx="350" cy="-450" r="250"/><circle cx="350" cy="450" r="250"/><circle cx="-350" cy="450" r="250"/><polygon points="-350,-700 350,-700 350,-200 -350,-200"/><polygon points="600,-450 600,450 100,450 100,-450"/><polygon points="350,200 -350,200 -350,700 350,700"/><polygon points="-100,450 -100,-450 -600,-450 -600,450"/></g><g id="tyjl3uS0q-jJ-24eVpjF_pad-18"><polygon points="-337.5,-475 337.5,-475 337.5,475 -337.5,475"/><circle cx="-337.5" cy="-475" r="250"/><circle cx="337.5" cy="-475" r="250"/><circle cx="337.5" cy="475" r="250"/><circle cx="-337.5" cy="475" r="250"/><polygon points="-337.5,-725 337.5,-725 337.5,-225 -337.5,-225"/><polygon points="587.5,-475 587.5,475 87.5,475 87.5,-475"/><polygon points="337.5,225 -337.5,225 -337.5,725 337.5,725"/><polygon points="-87.5,475 -87.5,-475 -587.5,-475 -587.5,475"/></g><rect x="-1255" y="-500" width="2510" height="1000" id="tyjl3uS0q-jJ-24eVpjF_pad-19"/><g id="tyjl3uS0q-jJ-24eVpjF_pad-20"><polygon points="350,450 -350,450 -350,-450 350,-450"/><circle cx="350" cy="450" r="250"/><circle cx="-350" cy="450" r="250"/><circle cx="-350" cy="-450" r="250"/><circle cx="350" cy="-450" r="250"/><polygon points="350,200 -350,200 -350,700 350,700"/><polygon points="-100,450 -100,-450 -600,-450 -600,450"/><polygon points="-350,-700 350,-700 350,-200 -350,-200"/><polygon points="600,-450 600,450 100,450 100,-450"/></g><g id="tyjl3uS0q-jJ-24eVpjF_pad-21"><polygon points="-450,350 -450,-350 450,-350 450,350"/><circle cx="-450" cy="350" r="250"/><circle cx="-450" cy="-350" r="250"/><circle cx="450" cy="-350" r="250"/><circle cx="450" cy="350" r="250"/><polygon points="-200,350 -200,-350 -700,-350 -700,350"/><polygon points="-450,-600 450,-600 450,-100 -450,-100"/><polygon points="700,-350 700,350 200,350 200,-350"/><polygon points="450,100 -450,100 -450,600 450,600"/></g><rect x="-187.5" y="-512.5" width="375" height="1025" id="tyjl3uS0q-jJ-24eVpjF_pad-22"/><rect x="-150" y="-562.5" width="300" height="1125" id="tyjl3uS0q-jJ-24eVpjF_pad-23"/><rect x="-187.5" y="-500" width="375" height="1000" id="tyjl3uS0q-jJ-24eVpjF_pad-24"/></defs><g transform="translate(0,-131499.999) scale(1,-1)" fill="currentColor" stroke="currentColor"><use xlink:href="#tyjl3uS0q-jJ-24eVpjF_pad-10" x="52000" y="-30537.5"/><use xlink:href="#tyjl3uS0q-jJ-24eVpjF_pad-10" x="52000" y="-28462.5"/><use xlink:href="#tyjl3uS0q-jJ-24eVpjF_pad-11" x="64500" y="-54962.5"/><use xlink:href="#tyjl3uS0q-jJ-24eVpjF_pad-11" x="64500" y="-57037.5"/><use xlink:href="#tyjl3uS0q-jJ-24eVpjF_pad-12" x="108387.499" y="-32025"/><use xlink:href="#tyjl3uS0q-jJ-24eVpjF_pad-12" x="108387.499" y="-32675"/><use xlink:href="#tyjl3uS0q-jJ-24eVpjF_pad-12" x="108387.499" y="-33325"/><use xlink:href="#tyjl3uS0q-jJ-24eVpjF_pad-12" x="108387.499" y="-33975"/><use xlink:href="#tyjl3uS0q-jJ-24eVpjF_pad-12" x="112612.499" y="-33975"/><use xlink:href="#tyjl3uS0q-jJ-24eVpjF_pad-12" x="112612.499" y="-33325"/><use xlink:href="#tyjl3uS0q-jJ-24eVpjF_pad-12" x="112612.499" y="-32675"/><use xlink:href="#tyjl3uS0q-jJ-24eVpjF_pad-12" x="112612.499" y="-32025"/><use xlink:href="#tyjl3uS0q-jJ-24eVpjF_pad-13" x="113750" y="-67250"/><use xlink:href="#tyjl3uS0q-jJ-24eVpjF_pad-14" x="115225" y="-68750"/><use xlink:href="#tyjl3uS0q-jJ-24eVpjF_pad-13" x="113750" y="-70250"/><use xlink:href="#tyjl3uS0q-jJ-24eVpjF_pad-14" x="112275" y="-68750"/><use xlink:href="#tyjl3uS0q-jJ-24eVpjF_pad-13" x="120250" y="-67249.999"/><use xlink:href="#tyjl3uS0q-jJ-24eVpjF_pad-14" x="121725" y="-68749.999"/><use xlink:href="#tyjl3uS0q-jJ-24eVpjF_pad-14" x="118775" y="-68749.999"/><use xlink:href="#tyjl3uS0q-jJ-24eVpjF_pad-13" x="120250" y="-70249.999"/><use xlink:href="#tyjl3uS0q-jJ-24eVpjF_pad-15" x="48000" y="-30500"/><use xlink:href="#tyjl3uS0q-jJ-24eVpjF_pad-15" x="48000" y="-28500"/><use xlink:href="#tyjl3uS0q-jJ-24eVpjF_pad-15" x="44000" y="-30500"/><use xlink:href="#tyjl3uS0q-jJ-24eVpjF_pad-15" x="44000" y="-28500"/><use xlink:href="#tyjl3uS0q-jJ-24eVpjF_pad-16" x="82537.5" y="-32500.001"/><use xlink:href="#tyjl3uS0q-jJ-24eVpjF_pad-16" x="80462.5" y="-32500.001"/><use xlink:href="#tyjl3uS0q-jJ-24eVpjF_pad-17" x="116999.999" y="-32500"/><use xlink:href="#tyjl3uS0q-jJ-24eVpjF_pad-17" x="118999.999" y="-32500"/><use xlink:href="#tyjl3uS0q-jJ-24eVpjF_pad-16" x="82537.5" y="-36500.001"/><use xlink:href="#tyjl3uS0q-jJ-24eVpjF_pad-16" x="80462.5" y="-36500.001"/><use xlink:href="#tyjl3uS0q-jJ-24eVpjF_pad-18" x="85462.5" y="-28500.001"/><use xlink:href="#tyjl3uS0q-jJ-24eVpjF_pad-18" x="87537.5" y="-28500.001"/><use xlink:href="#tyjl3uS0q-jJ-24eVpjF_pad-11" x="114000" y="-49962.499"/><use xlink:href="#tyjl3uS0q-jJ-24eVpjF_pad-11" x="114000" y="-52037.499"/><use xlink:href="#tyjl3uS0q-jJ-24eVpjF_pad-19" x="123655" y="-42380"/><use xlink:href="#tyjl3uS0q-jJ-24eVpjF_pad-19" x="120345" y="-44920"/><use xlink:href="#tyjl3uS0q-jJ-24eVpjF_pad-19" x="123655" y="-47460"/><use xlink:href="#tyjl3uS0q-jJ-24eVpjF_pad-19" x="120345" y="-50000"/><use xlink:href="#tyjl3uS0q-jJ-24eVpjF_pad-19" x="123655" y="-52540"/><use xlink:href="#tyjl3uS0q-jJ-24eVpjF_pad-19" x="120345" y="-55080"/><use xlink:href="#tyjl3uS0q-jJ-24eVpjF_pad-19" x="123655" y="-57620"/><use xlink:href="#tyjl3uS0q-jJ-24eVpjF_pad-20" x="82500" y="-28500.001"/><use xlink:href="#tyjl3uS0q-jJ-24eVpjF_pad-20" x="80500" y="-28500.001"/><use xlink:href="#tyjl3uS0q-jJ-24eVpjF_pad-15" x="100000" y="-30500"/><use xlink:href="#tyjl3uS0q-jJ-24eVpjF_pad-15" x="100000" y="-28500"/><use xlink:href="#tyjl3uS0q-jJ-24eVpjF_pad-13" x="107250" y="-67250"/><use xlink:href="#tyjl3uS0q-jJ-24eVpjF_pad-13" x="107250" y="-70250"/><use xlink:href="#tyjl3uS0q-jJ-24eVpjF_pad-14" x="105775" y="-68750"/><use xlink:href="#tyjl3uS0q-jJ-24eVpjF_pad-14" x="108725" y="-68750"/><use xlink:href="#tyjl3uS0q-jJ-24eVpjF_pad-18" x="33462.5" y="-28500"/><use xlink:href="#tyjl3uS0q-jJ-24eVpjF_pad-18" x="35537.5" y="-28500"/><use xlink:href="#tyjl3uS0q-jJ-24eVpjF_pad-19" x="71655" y="-42380"/><use xlink:href="#tyjl3uS0q-jJ-24eVpjF_pad-19" x="68345" y="-44920"/><use xlink:href="#tyjl3uS0q-jJ-24eVpjF_pad-19" x="71655" y="-47460"/><use xlink:href="#tyjl3uS0q-jJ-24eVpjF_pad-19" x="68345" y="-50000"/><use xlink:href="#tyjl3uS0q-jJ-24eVpjF_pad-19" x="71655" y="-52540"/><use xlink:href="#tyjl3uS0q-jJ-24eVpjF_pad-19" x="68345" y="-55080"/><use xlink:href="#tyjl3uS0q-jJ-24eVpjF_pad-19" x="71655" y="-57620"/><use xlink:href="#tyjl3uS0q-jJ-24eVpjF_pad-15" x="92000" y="-32250"/><use xlink:href="#tyjl3uS0q-jJ-24eVpjF_pad-15" x="92000" y="-30250"/><use xlink:href="#tyjl3uS0q-jJ-24eVpjF_pad-17" x="87750.001" y="-61500"/><use xlink:href="#tyjl3uS0q-jJ-24eVpjF_pad-17" x="89750.001" y="-61500"/><use xlink:href="#tyjl3uS0q-jJ-24eVpjF_pad-17" x="30750" y="-61500"/><use xlink:href="#tyjl3uS0q-jJ-24eVpjF_pad-17" x="32750" y="-61500"/><use xlink:href="#tyjl3uS0q-jJ-24eVpjF_pad-15" x="44000" y="-36000"/><use xlink:href="#tyjl3uS0q-jJ-24eVpjF_pad-15" x="44000" y="-34000"/><use xlink:href="#tyjl3uS0q-jJ-24eVpjF_pad-15" x="100000" y="-36000"/><use xlink:href="#tyjl3uS0q-jJ-24eVpjF_pad-15" x="100000" y="-34000"/><use xlink:href="#tyjl3uS0q-jJ-24eVpjF_pad-11" x="40750" y="-61500"/><use xlink:href="#tyjl3uS0q-jJ-24eVpjF_pad-11" x="40750" y="-63575"/><use xlink:href="#tyjl3uS0q-jJ-24eVpjF_pad-16" x="32787.5" y="-65500"/><use xlink:href="#tyjl3uS0q-jJ-24eVpjF_pad-16" x="30712.5" y="-65500"/><use xlink:href="#tyjl3uS0q-jJ-24eVpjF_pad-16" x="30537.5" y="-36500"/><use xlink:href="#tyjl3uS0q-jJ-24eVpjF_pad-16" x="28462.5" y="-36500"/><use xlink:href="#tyjl3uS0q-jJ-24eVpjF_pad-11" x="38750.001" y="-79462.499"/><use xlink:href="#tyjl3uS0q-jJ-24eVpjF_pad-11" x="38750.001" y="-81537.499"/><use xlink:href="#tyjl3uS0q-jJ-24eVpjF_pad-15" x="96000" y="-36000"/><use xlink:href="#tyjl3uS0q-jJ-24eVpjF_pad-15" x="96000" y="-34000"/><use xlink:href="#tyjl3uS0q-jJ-24eVpjF_pad-18" x="121962.499" y="-28500"/><use xlink:href="#tyjl3uS0q-jJ-24eVpjF_pad-18" x="124037.499" y="-28500"/><use xlink:href="#tyjl3uS0q-jJ-24eVpjF_pad-18" x="69962.5" y="-28500"/><use xlink:href="#tyjl3uS0q-jJ-24eVpjF_pad-18" x="72037.5" y="-28500"/><use xlink:href="#tyjl3uS0q-jJ-24eVpjF_pad-19" x="36655" y="-44882.5"/><use xlink:href="#tyjl3uS0q-jJ-24eVpjF_pad-19" x="33345" y="-47422.5"/><use xlink:href="#tyjl3uS0q-jJ-24eVpjF_pad-19" x="36655" y="-49962.5"/><use xlink:href="#tyjl3uS0q-jJ-24eVpjF_pad-19" x="33345" y="-52502.5"/><use xlink:href="#tyjl3uS0q-jJ-24eVpjF_pad-19" x="36655" y="-55042.5"/><use xlink:href="#tyjl3uS0q-jJ-24eVpjF_pad-17" x="60000" y="-28500"/><use xlink:href="#tyjl3uS0q-jJ-24eVpjF_pad-17" x="62000" y="-28500"/><use xlink:href="#tyjl3uS0q-jJ-24eVpjF_pad-17" x="33500" y="-32500"/><use xlink:href="#tyjl3uS0q-jJ-24eVpjF_pad-17" x="35500" y="-32500"/><use xlink:href="#tyjl3uS0q-jJ-24eVpjF_pad-16" x="30537.5" y="-32500"/><use xlink:href="#tyjl3uS0q-jJ-24eVpjF_pad-16" x="28462.5" y="-32500"/><use xlink:href="#tyjl3uS0q-jJ-24eVpjF_pad-21" x="38750.001" y="-84499.999"/><use xlink:href="#tyjl3uS0q-jJ-24eVpjF_pad-21" x="38750.001" y="-86499.999"/><use xlink:href="#tyjl3uS0q-jJ-24eVpjF_pad-13" x="68250" y="-67250"/><use xlink:href="#tyjl3uS0q-jJ-24eVpjF_pad-14" x="66775" y="-68750"/><use xlink:href="#tyjl3uS0q-jJ-24eVpjF_pad-14" x="69725" y="-68750"/><use xlink:href="#tyjl3uS0q-jJ-24eVpjF_pad-13" x="68250" y="-70250"/><use xlink:href="#tyjl3uS0q-jJ-24eVpjF_pad-13" x="48750" y="-67250"/><use xlink:href="#tyjl3uS0q-jJ-24eVpjF_pad-14" x="47275" y="-68750"/><use xlink:href="#tyjl3uS0q-jJ-24eVpjF_pad-14" x="50225" y="-68750"/><use xlink:href="#tyjl3uS0q-jJ-24eVpjF_pad-13" x="48750" y="-70250"/><use xlink:href="#tyjl3uS0q-jJ-24eVpjF_pad-15" x="48000" y="-36000"/><use xlink:href="#tyjl3uS0q-jJ-24eVpjF_pad-15" x="48000" y="-34000"/><use xlink:href="#tyjl3uS0q-jJ-24eVpjF_pad-20" x="32000" y="-40000"/><use xlink:href="#tyjl3uS0q-jJ-24eVpjF_pad-20" x="30000" y="-40000"/><use xlink:href="#tyjl3uS0q-jJ-24eVpjF_pad-11" x="92750.001" y="-61500"/><use xlink:href="#tyjl3uS0q-jJ-24eVpjF_pad-11" x="92750.001" y="-63575"/><use xlink:href="#tyjl3uS0q-jJ-24eVpjF_pad-17" x="85500" y="-32500.001"/><use xlink:href="#tyjl3uS0q-jJ-24eVpjF_pad-17" x="87500" y="-32500.001"/><use xlink:href="#tyjl3uS0q-jJ-24eVpjF_pad-18" x="54962.5" y="-28500"/><use xlink:href="#tyjl3uS0q-jJ-24eVpjF_pad-18" x="57037.5" y="-28500"/><use xlink:href="#tyjl3uS0q-jJ-24eVpjF_pad-12" x="87387.5" y="-38525.001"/><use xlink:href="#tyjl3uS0q-jJ-24eVpjF_pad-12" x="87387.5" y="-39175.001"/><use xlink:href="#tyjl3uS0q-jJ-24eVpjF_pad-12" x="87387.5" y="-39825.001"/><use xlink:href="#tyjl3uS0q-jJ-24eVpjF_pad-12" x="87387.5" y="-40475.001"/><use xlink:href="#tyjl3uS0q-jJ-24eVpjF_pad-12" x="91612.5" y="-40475.001"/><use xlink:href="#tyjl3uS0q-jJ-24eVpjF_pad-12" x="91612.5" y="-39825.001"/><use xlink:href="#tyjl3uS0q-jJ-24eVpjF_pad-12" x="91612.5" y="-39175.001"/><use xlink:href="#tyjl3uS0q-jJ-24eVpjF_pad-12" x="91612.5" y="-38525.001"/><use xlink:href="#tyjl3uS0q-jJ-24eVpjF_pad-18" x="106962.499" y="-28500"/><use xlink:href="#tyjl3uS0q-jJ-24eVpjF_pad-18" x="109037.499" y="-28500"/><use xlink:href="#tyjl3uS0q-jJ-24eVpjF_pad-15" x="96000" y="-30500"/><use xlink:href="#tyjl3uS0q-jJ-24eVpjF_pad-15" x="96000" y="-28500"/><use xlink:href="#tyjl3uS0q-jJ-24eVpjF_pad-17" x="35750" y="-61500"/><use xlink:href="#tyjl3uS0q-jJ-24eVpjF_pad-17" x="37750" y="-61500"/><use xlink:href="#tyjl3uS0q-jJ-24eVpjF_pad-17" x="82750" y="-61500"/><use xlink:href="#tyjl3uS0q-jJ-24eVpjF_pad-17" x="84750" y="-61500"/><use xlink:href="#tyjl3uS0q-jJ-24eVpjF_pad-18" x="64962.5" y="-28500"/><use xlink:href="#tyjl3uS0q-jJ-24eVpjF_pad-18" x="67037.5" y="-28500"/><use xlink:href="#tyjl3uS0q-jJ-24eVpjF_pad-10" x="103999.999" y="-30537.5"/><use xlink:href="#tyjl3uS0q-jJ-24eVpjF_pad-10" x="103999.999" y="-28462.5"/><use xlink:href="#tyjl3uS0q-jJ-24eVpjF_pad-21" x="116999.999" y="-35500"/><use xlink:href="#tyjl3uS0q-jJ-24eVpjF_pad-21" x="116999.999" y="-37500"/><use xlink:href="#tyjl3uS0q-jJ-24eVpjF_pad-21" x="65000" y="-35500"/><use xlink:href="#tyjl3uS0q-jJ-24eVpjF_pad-21" x="65000" y="-37500"/><use xlink:href="#tyjl3uS0q-jJ-24eVpjF_pad-12" x="35387.5" y="-38525"/><use xlink:href="#tyjl3uS0q-jJ-24eVpjF_pad-12" x="35387.5" y="-39175"/><use xlink:href="#tyjl3uS0q-jJ-24eVpjF_pad-12" x="35387.5" y="-39825"/><use xlink:href="#tyjl3uS0q-jJ-24eVpjF_pad-12" x="35387.5" y="-40475"/><use xlink:href="#tyjl3uS0q-jJ-24eVpjF_pad-12" x="39612.5" y="-40475"/><use xlink:href="#tyjl3uS0q-jJ-24eVpjF_pad-12" x="39612.5" y="-39825"/><use xlink:href="#tyjl3uS0q-jJ-24eVpjF_pad-12" x="39612.5" y="-39175"/><use xlink:href="#tyjl3uS0q-jJ-24eVpjF_pad-12" x="39612.5" y="-38525"/><use xlink:href="#tyjl3uS0q-jJ-24eVpjF_pad-10" x="31750.001" y="-81537.499"/><use xlink:href="#tyjl3uS0q-jJ-24eVpjF_pad-10" x="31750.001" y="-79462.499"/><use xlink:href="#tyjl3uS0q-jJ-24eVpjF_pad-22" x="31212.501" y="-103112.499"/><use xlink:href="#tyjl3uS0q-jJ-24eVpjF_pad-23" x="31750.001" y="-103162.499"/><use xlink:href="#tyjl3uS0q-jJ-24eVpjF_pad-22" x="32287.501" y="-103112.499"/><use xlink:href="#tyjl3uS0q-jJ-24eVpjF_pad-24" x="32287.501" y="-100899.999"/><use xlink:href="#tyjl3uS0q-jJ-24eVpjF_pad-23" x="31750.001" y="-100837.499"/><use xlink:href="#tyjl3uS0q-jJ-24eVpjF_pad-24" x="31212.501" y="-100899.999"/><use xlink:href="#tyjl3uS0q-jJ-24eVpjF_pad-22" x="103462.499" y="-36112.5"/><use xlink:href="#tyjl3uS0q-jJ-24eVpjF_pad-23" x="103999.999" y="-36162.5"/><use xlink:href="#tyjl3uS0q-jJ-24eVpjF_pad-22" x="104537.499" y="-36112.5"/><use xlink:href="#tyjl3uS0q-jJ-24eVpjF_pad-24" x="104537.499" y="-33900"/><use xlink:href="#tyjl3uS0q-jJ-24eVpjF_pad-23" x="103999.999" y="-33837.5"/><use xlink:href="#tyjl3uS0q-jJ-24eVpjF_pad-24" x="103462.499" y="-33900"/><use xlink:href="#tyjl3uS0q-jJ-24eVpjF_pad-11" x="31750.001" y="-84462.499"/><use xlink:href="#tyjl3uS0q-jJ-24eVpjF_pad-11" x="31750.001" y="-86537.499"/><use xlink:href="#tyjl3uS0q-jJ-24eVpjF_pad-17" x="65000" y="-32500"/><use xlink:href="#tyjl3uS0q-jJ-24eVpjF_pad-17" x="67000" y="-32500"/><use xlink:href="#tyjl3uS0q-jJ-24eVpjF_pad-12" x="56387.5" y="-32025"/><use xlink:href="#tyjl3uS0q-jJ-24eVpjF_pad-12" x="56387.5" y="-32675"/><use xlink:href="#tyjl3uS0q-jJ-24eVpjF_pad-12" x="56387.5" y="-33325"/><use xlink:href="#tyjl3uS0q-jJ-24eVpjF_pad-12" x="56387.5" y="-33975"/><use xlink:href="#tyjl3uS0q-jJ-24eVpjF_pad-12" x="60612.5" y="-33975"/><use xlink:href="#tyjl3uS0q-jJ-24eVpjF_pad-12" x="60612.5" y="-33325"/><use xlink:href="#tyjl3uS0q-jJ-24eVpjF_pad-12" x="60612.5" y="-32675"/><use xlink:href="#tyjl3uS0q-jJ-24eVpjF_pad-12" x="60612.5" y="-32025"/><use xlink:href="#tyjl3uS0q-jJ-24eVpjF_pad-18" x="87712.501" y="-65500"/><use xlink:href="#tyjl3uS0q-jJ-24eVpjF_pad-18" x="89787.501" y="-65500"/><use xlink:href="#tyjl3uS0q-jJ-24eVpjF_pad-13" x="55250" y="-67250"/><use xlink:href="#tyjl3uS0q-jJ-24eVpjF_pad-13" x="55250" y="-70250"/><use xlink:href="#tyjl3uS0q-jJ-24eVpjF_pad-14" x="56725" y="-68750"/><use xlink:href="#tyjl3uS0q-jJ-24eVpjF_pad-14" x="53775" y="-68750"/><use xlink:href="#tyjl3uS0q-jJ-24eVpjF_pad-15" x="35250.001" y="-81499.999"/><use xlink:href="#tyjl3uS0q-jJ-24eVpjF_pad-15" x="35250.001" y="-79499.999"/><use xlink:href="#tyjl3uS0q-jJ-24eVpjF_pad-13" x="61750" y="-67250"/><use xlink:href="#tyjl3uS0q-jJ-24eVpjF_pad-14" x="63225" y="-68750"/><use xlink:href="#tyjl3uS0q-jJ-24eVpjF_pad-13" x="61750" y="-70250"/><use xlink:href="#tyjl3uS0q-jJ-24eVpjF_pad-14" x="60275" y="-68750"/><use xlink:href="#tyjl3uS0q-jJ-24eVpjF_pad-13" x="100750.001" y="-67250"/><use xlink:href="#tyjl3uS0q-jJ-24eVpjF_pad-14" x="99275.001" y="-68750"/><use xlink:href="#tyjl3uS0q-jJ-24eVpjF_pad-14" x="102225.001" y="-68750"/><use xlink:href="#tyjl3uS0q-jJ-24eVpjF_pad-13" x="100750.001" y="-70250"/><use xlink:href="#tyjl3uS0q-jJ-24eVpjF_pad-20" x="84000" y="-40000.001"/><use xlink:href="#tyjl3uS0q-jJ-24eVpjF_pad-20" x="82000" y="-40000.001"/><use xlink:href="#tyjl3uS0q-jJ-24eVpjF_pad-22" x="51462.5" y="-36112.5"/><use xlink:href="#tyjl3uS0q-jJ-24eVpjF_pad-23" x="52000" y="-36162.5"/><use xlink:href="#tyjl3uS0q-jJ-24eVpjF_pad-22" x="52537.5" y="-36112.5"/><use xlink:href="#tyjl3uS0q-jJ-24eVpjF_pad-24" x="52537.5" y="-33900"/><use xlink:href="#tyjl3uS0q-jJ-24eVpjF_pad-23" x="52000" y="-33837.5"/><use xlink:href="#tyjl3uS0q-jJ-24eVpjF_pad-24" x="51462.5" y="-33900"/><use xlink:href="#tyjl3uS0q-jJ-24eVpjF_pad-17" x="111999.999" y="-28500"/><use xlink:href="#tyjl3uS0q-jJ-24eVpjF_pad-17" x="113999.999" y="-28500"/><use xlink:href="#tyjl3uS0q-jJ-24eVpjF_pad-18" x="35712.5" y="-65500"/><use xlink:href="#tyjl3uS0q-jJ-24eVpjF_pad-18" x="37787.5" y="-65500"/><use xlink:href="#tyjl3uS0q-jJ-24eVpjF_pad-11" x="116500" y="-54962.499"/><use xlink:href="#tyjl3uS0q-jJ-24eVpjF_pad-11" x="116500" y="-57037.499"/><use xlink:href="#tyjl3uS0q-jJ-24eVpjF_pad-11" x="62000" y="-49962.5"/><use xlink:href="#tyjl3uS0q-jJ-24eVpjF_pad-11" x="62000" y="-52037.5"/><use xlink:href="#tyjl3uS0q-jJ-24eVpjF_pad-19" x="88655" y="-44920"/><use xlink:href="#tyjl3uS0q-jJ-24eVpjF_pad-19" x="85345" y="-47460"/><use xlink:href="#tyjl3uS0q-jJ-24eVpjF_pad-19" x="88655" y="-50000"/><use xlink:href="#tyjl3uS0q-jJ-24eVpjF_pad-19" x="85345" y="-52540"/><use xlink:href="#tyjl3uS0q-jJ-24eVpjF_pad-19" x="88655" y="-55080"/><use xlink:href="#tyjl3uS0q-jJ-24eVpjF_pad-21" x="35250.001" y="-84499.999"/><use xlink:href="#tyjl3uS0q-jJ-24eVpjF_pad-21" x="35250.001" y="-86499.999"/><use xlink:href="#tyjl3uS0q-jJ-24eVpjF_pad-16" x="84787.501" y="-65500"/><use xlink:href="#tyjl3uS0q-jJ-24eVpjF_pad-16" x="82712.501" y="-65500"/><use xlink:href="#tyjl3uS0q-jJ-24eVpjF_pad-15" x="40000" y="-32250"/><use xlink:href="#tyjl3uS0q-jJ-24eVpjF_pad-15" x="40000" y="-30250"/><use xlink:href="#tyjl3uS0q-jJ-24eVpjF_pad-18" x="116962.499" y="-28500"/><use xlink:href="#tyjl3uS0q-jJ-24eVpjF_pad-18" x="119037.499" y="-28500"/><use xlink:href="#tyjl3uS0q-jJ-24eVpjF_pad-20" x="30500" y="-28500"/><use xlink:href="#tyjl3uS0q-jJ-24eVpjF_pad-20" x="28500" y="-28500"/></g></svg>