<svg version="1.1" xmlns="http://www.w3.org/2000/svg" xmlns:xlink="http://www.w3.org/1999/xlink" stroke-linecap="round" stroke-linejoin="round" stroke-width="0" fill-rule="evenodd" width="3.9483in" height="4.3228in" viewBox="1015.75 -5397.25 3948.3 4322.8" id="JIb6gyBhmGJwW2n7izqo"><defs><circle cx="0" cy="0" r="7.85" id="JIb6gyBhmGJwW2n7izqo_pad-1"/><circle cx="0" cy="0" r="9.85" id="JIb6gyBhmGJwW2n7izqo_pad-2"/><circle cx="0" cy="0" r="13.8" id="JIb6gyBhmGJwW2n7izqo_pad-3"/><circle cx="0" cy="0" r="14.75" id="JIb6gyBhmGJwW2n7izqo_pad-4"/><circle cx="0" cy="0" r="15.75" id="JIb6gyBhmGJwW2n7izqo_pad-5"/><circle cx="0" cy="0" r="17.7" id="JIb6gyBhmGJwW2n7izqo_pad-6"/><circle cx="0" cy="0" r="19.7" id="JIb6gyBhmGJwW2n7izqo_pad-7"/><circle cx="0" cy="0" r="20.1" id="JIb6gyBhmGJwW2n7izqo_pad-8"/><circle cx="0" cy="0" r="31.5" id="JIb6gyBhmGJwW2n7izqo_pad-9"/></defs><g transform="translate(0,-6471.7) scale(1,-1)" fill="currentColor" stroke="currentColor"><use xlink:href="#JIb6gyBhmGJwW2n7izqo_pad-1" x="1023.6" y="-1673.2"/><use xlink:href="#JIb6gyBhmGJwW2n7izqo_pad-1" x="1023.6" y="-1870.1"/><use xlink:href="#JIb6gyBhmGJwW2n7izqo_pad-1" x="1023.6" y="-2066.9"/><use xlink:href="#JIb6gyBhmGJwW2n7izqo_pad-1" x="1023.6" y="-2263.8"/><use xlink:href="#JIb6gyBhmGJwW2n7izqo_pad-1" x="1056.2" y="-1182.3"/><use xlink:href="#JIb6gyBhmGJwW2n7izqo_pad-1" x="1056.2" y="-1482.3"/><use xlink:href="#JIb6gyBhmGJwW2n7izqo_pad-1" x="1056.2" y="-1782.3"/><use xlink:href="#JIb6gyBhmGJwW2n7izqo_pad-1" x="1056.2" y="-2182.3"/><use xlink:href="#JIb6gyBhmGJwW2n7izqo_pad-1" x="1056.2" y="-2482.3"/><use xlink:href="#JIb6gyBhmGJwW2n7izqo_pad-1" x="1056.2" y="-2782.3"/><use xlink:href="#JIb6gyBhmGJwW2n7izqo_pad-1" x="1156.2" y="-1982.3"/><use xlink:href="#JIb6gyBhmGJwW2n7izqo_pad-1" x="1156.2" y="-3082.3"/><use xlink:href="#JIb6gyBhmGJwW2n7izqo_pad-1" x="1156.2" y="-3382.3"/><use xlink:href="#JIb6gyBhmGJwW2n7izqo_pad-1" x="1156.2" y="-3782.3"/><use xlink:href="#JIb6gyBhmGJwW2n7izqo_pad-1" x="1156.2" y="-4082.3"/><use xlink:href="#JIb6gyBhmGJwW2n7izqo_pad-1" x="1156.2" y="-4482.3"/><use xlink:href="#JIb6gyBhmGJwW2n7izqo_pad-1" x="1156.2" y="-5182.3"/><use xlink:href="#JIb6gyBhmGJwW2n7izqo_pad-1" x="1210.6" y="-1171.3"/><use xlink:href="#JIb6gyBhmGJwW2n7izqo_pad-1" x="1256.2" y="-1382.3"/><use xlink:href="#JIb6gyBhmGJwW2n7izqo_pad-1" x="1256.2" y="-1682.3"/><use xlink:href="#JIb6gyBhmGJwW2n7izqo_pad-1" x="1256.2" y="-2882.3"/><use xlink:href="#JIb6gyBhmGJwW2n7izqo_pad-1" x="1356.2" y="-1882.3"/><use xlink:href="#JIb6gyBhmGJwW2n7izqo_pad-1" x="1356.2" y="-2382.3"/><use xlink:href="#JIb6gyBhmGJwW2n7izqo_pad-1" x="1356.2" y="-2682.3"/><use xlink:href="#JIb6gyBhmGJwW2n7izqo_pad-1" x="1356.2" y="-3182.3"/><use xlink:href="#JIb6gyBhmGJwW2n7izqo_pad-1" x="1356.2" y="-3582.3"/><use xlink:href="#JIb6gyBhmGJwW2n7izqo_pad-1" x="1356.2" y="-3882.3"/><use xlink:href="#JIb6gyBhmGJwW2n7izqo_pad-1" x="1356.2" y="-4182.3"/><use xlink:href="#JIb6gyBhmGJwW2n7izqo_pad-1" x="1356.2" y="-4682.3"/><use xlink:href="#JIb6gyBhmGJwW2n7izqo_pad-1" x="1397.6" y="-1535.4"/><use xlink:href="#JIb6gyBhmGJwW2n7izqo_pad-1" x="1397.6" y="-2017.7"/><use xlink:href="#JIb6gyBhmGJwW2n7izqo_pad-1" x="1417.3" y="-3986.2"/><use xlink:href="#JIb6gyBhmGJwW2n7izqo_pad-1" x="1417.3" y="-1348.4"/><use xlink:href="#JIb6gyBhmGJwW2n7izqo_pad-1" x="1427.2" y="-1171.3"/><use xlink:href="#JIb6gyBhmGJwW2n7izqo_pad-1" x="1456.2" y="-1482.3"/><use xlink:href="#JIb6gyBhmGJwW2n7izqo_pad-1" x="1456.2" y="-2182.3"/><use xlink:href="#JIb6gyBhmGJwW2n7izqo_pad-1" x="1456.2" y="-3382.3"/><use xlink:href="#JIb6gyBhmGJwW2n7izqo_pad-1" x="1456.2" y="-4982.3"/><use xlink:href="#JIb6gyBhmGJwW2n7izqo_pad-1" x="1456.2" y="-5382.3"/><use xlink:href="#JIb6gyBhmGJwW2n7izqo_pad-1" x="1456.7" y="-1240.2"/><use xlink:href="#JIb6gyBhmGJwW2n7izqo_pad-1" x="1456.7" y="-1283.5"/><use xlink:href="#JIb6gyBhmGJwW2n7izqo_pad-1" x="1485.2" y="-1338.6"/><use xlink:href="#JIb6gyBhmGJwW2n7izqo_pad-1" x="1496.1" y="-1909.4"/><use xlink:href="#JIb6gyBhmGJwW2n7izqo_pad-1" x="1505.9" y="-3681.1"/><use xlink:href="#JIb6gyBhmGJwW2n7izqo_pad-1" x="1505.9" y="-4842.5"/><use xlink:href="#JIb6gyBhmGJwW2n7izqo_pad-1" x="1511.8" y="-1433.1"/><use xlink:href="#JIb6gyBhmGJwW2n7izqo_pad-1" x="1525.6" y="-4389.8"/><use xlink:href="#JIb6gyBhmGJwW2n7izqo_pad-1" x="1556.2" y="-2782.3"/><use xlink:href="#JIb6gyBhmGJwW2n7izqo_pad-1" x="1556.2" y="-3082.3"/><use xlink:href="#JIb6gyBhmGJwW2n7izqo_pad-1" x="1624" y="-5059.1"/><use xlink:href="#JIb6gyBhmGJwW2n7izqo_pad-1" x="1624" y="-5167.3"/><use xlink:href="#JIb6gyBhmGJwW2n7izqo_pad-1" x="1656.2" y="-1182.3"/><use xlink:href="#JIb6gyBhmGJwW2n7izqo_pad-1" x="1656.2" y="-2482.3"/><use xlink:href="#JIb6gyBhmGJwW2n7izqo_pad-1" x="1663.4" y="-4222.4"/><use xlink:href="#JIb6gyBhmGJwW2n7izqo_pad-1" x="1756.2" y="-2882.3"/><use xlink:href="#JIb6gyBhmGJwW2n7izqo_pad-1" x="1756.2" y="-3182.3"/><use xlink:href="#JIb6gyBhmGJwW2n7izqo_pad-1" x="1756.2" y="-3582.3"/><use xlink:href="#JIb6gyBhmGJwW2n7izqo_pad-1" x="1756.2" y="-3882.3"/><use xlink:href="#JIb6gyBhmGJwW2n7izqo_pad-1" x="1756.2" y="-4182.3"/><use xlink:href="#JIb6gyBhmGJwW2n7izqo_pad-1" x="1756.2" y="-4582.3"/><use xlink:href="#JIb6gyBhmGJwW2n7izqo_pad-1" x="1756.2" y="-4882.3"/><use xlink:href="#JIb6gyBhmGJwW2n7izqo_pad-1" x="1791.3" y="-4468.5"/><use xlink:href="#JIb6gyBhmGJwW2n7izqo_pad-1" x="1811" y="-2421.3"/><use xlink:href="#JIb6gyBhmGJwW2n7izqo_pad-1" x="1820.9" y="-1348.4"/><use xlink:href="#JIb6gyBhmGJwW2n7izqo_pad-1" x="1830.7" y="-3362.2"/><use xlink:href="#JIb6gyBhmGJwW2n7izqo_pad-1" x="1840.6" y="-1476.4"/><use xlink:href="#JIb6gyBhmGJwW2n7izqo_pad-1" x="1856.2" y="-2582.3"/><use xlink:href="#JIb6gyBhmGJwW2n7izqo_pad-1" x="1856.2" y="-5082.3"/><use xlink:href="#JIb6gyBhmGJwW2n7izqo_pad-1" x="1858.3" y="-2049.2"/><use xlink:href="#JIb6gyBhmGJwW2n7izqo_pad-1" x="1870.1" y="-3511.8"/><use xlink:href="#JIb6gyBhmGJwW2n7izqo_pad-1" x="1878" y="-3362.2"/><use xlink:href="#JIb6gyBhmGJwW2n7izqo_pad-1" x="1889.8" y="-3435"/><use xlink:href="#JIb6gyBhmGJwW2n7izqo_pad-1" x="1919.3" y="-4379.9"/><use xlink:href="#JIb6gyBhmGJwW2n7izqo_pad-1" x="1933.1" y="-3362.2"/><use xlink:href="#JIb6gyBhmGJwW2n7izqo_pad-1" x="1956.2" y="-1082.3"/><use xlink:href="#JIb6gyBhmGJwW2n7izqo_pad-1" x="1956.2" y="-2782.3"/><use xlink:href="#JIb6gyBhmGJwW2n7izqo_pad-1" x="1956.2" y="-3282.3"/><use xlink:href="#JIb6gyBhmGJwW2n7izqo_pad-1" x="1956.2" y="-3682.3"/><use xlink:href="#JIb6gyBhmGJwW2n7izqo_pad-1" x="1956.2" y="-4682.3"/><use xlink:href="#JIb6gyBhmGJwW2n7izqo_pad-1" x="1988.2" y="-1338.6"/><use xlink:href="#JIb6gyBhmGJwW2n7izqo_pad-1" x="1998" y="-1486.2"/><use xlink:href="#JIb6gyBhmGJwW2n7izqo_pad-1" x="2049.2" y="-2078.7"/><use xlink:href="#JIb6gyBhmGJwW2n7izqo_pad-1" x="2056.2" y="-1482.3"/><use xlink:href="#JIb6gyBhmGJwW2n7izqo_pad-1" x="2056.2" y="-2482.3"/><use xlink:href="#JIb6gyBhmGJwW2n7izqo_pad-1" x="2056.2" y="-5282.3"/><use xlink:href="#JIb6gyBhmGJwW2n7izqo_pad-1" x="2057.1" y="-4045.3"/><use xlink:href="#JIb6gyBhmGJwW2n7izqo_pad-1" x="2078.7" y="-1887.8"/><use xlink:href="#JIb6gyBhmGJwW2n7izqo_pad-1" x="2116.1" y="-3858.3"/><use xlink:href="#JIb6gyBhmGJwW2n7izqo_pad-1" x="2126" y="-2421.3"/><use xlink:href="#JIb6gyBhmGJwW2n7izqo_pad-1" x="2155.5" y="-1378"/><use xlink:href="#JIb6gyBhmGJwW2n7izqo_pad-1" x="2156.2" y="-2682.3"/><use xlink:href="#JIb6gyBhmGJwW2n7izqo_pad-1" x="2156.2" y="-3982.3"/><use xlink:href="#JIb6gyBhmGJwW2n7izqo_pad-1" x="2156.2" y="-4882.3"/><use xlink:href="#JIb6gyBhmGJwW2n7izqo_pad-1" x="2256.2" y="-1082.3"/><use xlink:href="#JIb6gyBhmGJwW2n7izqo_pad-1" x="2256.2" y="-2882.3"/><use xlink:href="#JIb6gyBhmGJwW2n7izqo_pad-1" x="2256.2" y="-3282.3"/><use xlink:href="#JIb6gyBhmGJwW2n7izqo_pad-1" x="2256.2" y="-4282.3"/><use xlink:href="#JIb6gyBhmGJwW2n7izqo_pad-1" x="2256.2" y="-5082.3"/><use xlink:href="#JIb6gyBhmGJwW2n7izqo_pad-1" x="2293.3" y="-1456.7"/><use xlink:href="#JIb6gyBhmGJwW2n7izqo_pad-1" x="2293.3" y="-1456.7"/><use xlink:href="#JIb6gyBhmGJwW2n7izqo_pad-1" x="2313" y="-3238.2"/><use xlink:href="#JIb6gyBhmGJwW2n7izqo_pad-1" x="2356.2" y="-2582.3"/><use xlink:href="#JIb6gyBhmGJwW2n7izqo_pad-1" x="2362.2" y="-1348.4"/><use xlink:href="#JIb6gyBhmGJwW2n7izqo_pad-1" x="2401.6" y="-1771.7"/><use xlink:href="#JIb6gyBhmGJwW2n7izqo_pad-1" x="2401.6" y="-1968.5"/><use xlink:href="#JIb6gyBhmGJwW2n7izqo_pad-1" x="2401.6" y="-2165.4"/><use xlink:href="#JIb6gyBhmGJwW2n7izqo_pad-1" x="2440.9" y="-1446.9"/><use xlink:href="#JIb6gyBhmGJwW2n7izqo_pad-1" x="2456.2" y="-1182.3"/><use xlink:href="#JIb6gyBhmGJwW2n7izqo_pad-1" x="2456.2" y="-1882.3"/><use xlink:href="#JIb6gyBhmGJwW2n7izqo_pad-1" x="2456.2" y="-2282.3"/><use xlink:href="#JIb6gyBhmGJwW2n7izqo_pad-1" x="2456.2" y="-2782.3"/><use xlink:href="#JIb6gyBhmGJwW2n7izqo_pad-1" x="2456.2" y="-3682.3"/><use xlink:href="#JIb6gyBhmGJwW2n7izqo_pad-1" x="2456.2" y="-4682.3"/><use xlink:href="#JIb6gyBhmGJwW2n7izqo_pad-1" x="2456.2" y="-4982.3"/><use xlink:href="#JIb6gyBhmGJwW2n7izqo_pad-1" x="2500" y="-3484.3"/><use xlink:href="#JIb6gyBhmGJwW2n7izqo_pad-1" x="2500" y="-3602.4"/><use xlink:href="#JIb6gyBhmGJwW2n7izqo_pad-1" x="2500" y="-4035.4"/><use xlink:href="#JIb6gyBhmGJwW2n7izqo_pad-1" x="2555.1" y="-4503.9"/><use xlink:href="#JIb6gyBhmGJwW2n7izqo_pad-1" x="2556.2" y="-2482.3"/><use xlink:href="#JIb6gyBhmGJwW2n7izqo_pad-1" x="2556.2" y="-3182.3"/><use xlink:href="#JIb6gyBhmGJwW2n7izqo_pad-1" x="2556.2" y="-3982.3"/><use xlink:href="#JIb6gyBhmGJwW2n7izqo_pad-1" x="2637.8" y="-3433.1"/><use xlink:href="#JIb6gyBhmGJwW2n7izqo_pad-1" x="2656.2" y="-1382.3"/><use xlink:href="#JIb6gyBhmGJwW2n7izqo_pad-1" x="2656.2" y="-1782.3"/><use xlink:href="#JIb6gyBhmGJwW2n7izqo_pad-1" x="2656.2" y="-2182.3"/><use xlink:href="#JIb6gyBhmGJwW2n7izqo_pad-1" x="2656.2" y="-2682.3"/><use xlink:href="#JIb6gyBhmGJwW2n7izqo_pad-1" x="2656.2" y="-3782.3"/><use xlink:href="#JIb6gyBhmGJwW2n7izqo_pad-1" x="2657.5" y="-4153.5"/><use xlink:href="#JIb6gyBhmGJwW2n7izqo_pad-1" x="2736.2" y="-1486.2"/><use xlink:href="#JIb6gyBhmGJwW2n7izqo_pad-1" x="2756.2" y="-1182.3"/><use xlink:href="#JIb6gyBhmGJwW2n7izqo_pad-1" x="2756.2" y="-1982.3"/><use xlink:href="#JIb6gyBhmGJwW2n7izqo_pad-1" x="2756.2" y="-2882.3"/><use xlink:href="#JIb6gyBhmGJwW2n7izqo_pad-1" x="2756.2" y="-3282.3"/><use xlink:href="#JIb6gyBhmGJwW2n7izqo_pad-1" x="2785.9" y="-3917.8"/><use xlink:href="#JIb6gyBhmGJwW2n7izqo_pad-1" x="2856.2" y="-1582.3"/><use xlink:href="#JIb6gyBhmGJwW2n7izqo_pad-1" x="2856.2" y="-2282.3"/><use xlink:href="#JIb6gyBhmGJwW2n7izqo_pad-1" x="2856.2" y="-2582.3"/><use xlink:href="#JIb6gyBhmGJwW2n7izqo_pad-1" x="2856.2" y="-3682.3"/><use xlink:href="#JIb6gyBhmGJwW2n7izqo_pad-1" x="2856.2" y="-3982.3"/><use xlink:href="#JIb6gyBhmGJwW2n7izqo_pad-1" x="2856.2" y="-4282.3"/><use xlink:href="#JIb6gyBhmGJwW2n7izqo_pad-1" x="2856.2" y="-4582.3"/><use xlink:href="#JIb6gyBhmGJwW2n7izqo_pad-1" x="2856.2" y="-4882.3"/><use xlink:href="#JIb6gyBhmGJwW2n7izqo_pad-1" x="2856.2" y="-5182.3"/><use xlink:href="#JIb6gyBhmGJwW2n7izqo_pad-1" x="2883.9" y="-4458.7"/><use xlink:href="#JIb6gyBhmGJwW2n7izqo_pad-1" x="2956.2" y="-3082.3"/><use xlink:href="#JIb6gyBhmGJwW2n7izqo_pad-1" x="2956.2" y="-3482.3"/><use xlink:href="#JIb6gyBhmGJwW2n7izqo_pad-1" x="3056.2" y="-1082.3"/><use xlink:href="#JIb6gyBhmGJwW2n7izqo_pad-1" x="3056.2" y="-1382.3"/><use xlink:href="#JIb6gyBhmGJwW2n7izqo_pad-1" x="3056.2" y="-1782.3"/><use xlink:href="#JIb6gyBhmGJwW2n7izqo_pad-1" x="3056.2" y="-2182.3"/><use xlink:href="#JIb6gyBhmGJwW2n7izqo_pad-1" x="3056.2" y="-2482.3"/><use xlink:href="#JIb6gyBhmGJwW2n7izqo_pad-1" x="3056.2" y="-2782.3"/><use xlink:href="#JIb6gyBhmGJwW2n7izqo_pad-1" x="3056.2" y="-3882.3"/><use xlink:href="#JIb6gyBhmGJwW2n7izqo_pad-1" x="3056.2" y="-4182.3"/><use xlink:href="#JIb6gyBhmGJwW2n7izqo_pad-1" x="3056.2" y="-4482.3"/><use xlink:href="#JIb6gyBhmGJwW2n7izqo_pad-1" x="3056.2" y="-4782.3"/><use xlink:href="#JIb6gyBhmGJwW2n7izqo_pad-1" x="3056.2" y="-5282.3"/><use xlink:href="#JIb6gyBhmGJwW2n7izqo_pad-1" x="3090.6" y="-1673.2"/><use xlink:href="#JIb6gyBhmGJwW2n7izqo_pad-1" x="3090.6" y="-1870.1"/><use xlink:href="#JIb6gyBhmGJwW2n7izqo_pad-1" x="3090.6" y="-2066.9"/><use xlink:href="#JIb6gyBhmGJwW2n7izqo_pad-1" x="3090.6" y="-2263.8"/><use xlink:href="#JIb6gyBhmGJwW2n7izqo_pad-1" x="3156.2" y="-1582.3"/><use xlink:href="#JIb6gyBhmGJwW2n7izqo_pad-1" x="3156.2" y="-1982.3"/><use xlink:href="#JIb6gyBhmGJwW2n7izqo_pad-1" x="3156.2" y="-3682.3"/><use xlink:href="#JIb6gyBhmGJwW2n7izqo_pad-1" x="3156.2" y="-5082.3"/><use xlink:href="#JIb6gyBhmGJwW2n7izqo_pad-1" x="3256.2" y="-2282.3"/><use xlink:href="#JIb6gyBhmGJwW2n7izqo_pad-1" x="3256.2" y="-2582.3"/><use xlink:href="#JIb6gyBhmGJwW2n7izqo_pad-1" x="3256.2" y="-2882.3"/><use xlink:href="#JIb6gyBhmGJwW2n7izqo_pad-1" x="3256.2" y="-3082.3"/><use xlink:href="#JIb6gyBhmGJwW2n7izqo_pad-1" x="3256.2" y="-3482.3"/><use xlink:href="#JIb6gyBhmGJwW2n7izqo_pad-1" x="3256.2" y="-4282.3"/><use xlink:href="#JIb6gyBhmGJwW2n7izqo_pad-1" x="3256.2" y="-4582.3"/><use xlink:href="#JIb6gyBhmGJwW2n7izqo_pad-1" x="3256.2" y="-4882.3"/><use xlink:href="#JIb6gyBhmGJwW2n7izqo_pad-1" x="3258.2" y="-1171.5"/><use xlink:href="#JIb6gyBhmGJwW2n7izqo_pad-1" x="3294.6" y="-3771.7"/><use xlink:href="#JIb6gyBhmGJwW2n7izqo_pad-1" x="3326.8" y="-4458.7"/><use xlink:href="#JIb6gyBhmGJwW2n7izqo_pad-1" x="3326.8" y="-5285.4"/><use xlink:href="#JIb6gyBhmGJwW2n7izqo_pad-1" x="3356.2" y="-1382.3"/><use xlink:href="#JIb6gyBhmGJwW2n7izqo_pad-1" x="3356.2" y="-1682.3"/><use xlink:href="#JIb6gyBhmGJwW2n7izqo_pad-1" x="3356.2" y="-2082.3"/><use xlink:href="#JIb6gyBhmGJwW2n7izqo_pad-1" x="3356.2" y="-3282.3"/><use xlink:href="#JIb6gyBhmGJwW2n7izqo_pad-1" x="3356.2" y="-4082.3"/><use xlink:href="#JIb6gyBhmGJwW2n7izqo_pad-1" x="3445.2" y="-1535.6"/><use xlink:href="#JIb6gyBhmGJwW2n7izqo_pad-1" x="3445.2" y="-2017.9"/><use xlink:href="#JIb6gyBhmGJwW2n7izqo_pad-1" x="3456.2" y="-2382.3"/><use xlink:href="#JIb6gyBhmGJwW2n7izqo_pad-1" x="3456.2" y="-2782.3"/><use xlink:href="#JIb6gyBhmGJwW2n7izqo_pad-1" x="3456.2" y="-3682.3"/><use xlink:href="#JIb6gyBhmGJwW2n7izqo_pad-1" x="3456.2" y="-4382.3"/><use xlink:href="#JIb6gyBhmGJwW2n7izqo_pad-1" x="3456.2" y="-4682.3"/><use xlink:href="#JIb6gyBhmGJwW2n7izqo_pad-1" x="3456.2" y="-5182.3"/><use xlink:href="#JIb6gyBhmGJwW2n7izqo_pad-1" x="3464.9" y="-1348.6"/><use xlink:href="#JIb6gyBhmGJwW2n7izqo_pad-1" x="3474.8" y="-1171.5"/><use xlink:href="#JIb6gyBhmGJwW2n7izqo_pad-1" x="3504.3" y="-1240.4"/><use xlink:href="#JIb6gyBhmGJwW2n7izqo_pad-1" x="3504.3" y="-1283.7"/><use xlink:href="#JIb6gyBhmGJwW2n7izqo_pad-1" x="3532.8" y="-1338.8"/><use xlink:href="#JIb6gyBhmGJwW2n7izqo_pad-1" x="3543.7" y="-1909.6"/><use xlink:href="#JIb6gyBhmGJwW2n7izqo_pad-1" x="3556.2" y="-2182.3"/><use xlink:href="#JIb6gyBhmGJwW2n7izqo_pad-1" x="3556.2" y="-3082.3"/><use xlink:href="#JIb6gyBhmGJwW2n7izqo_pad-1" x="3556.2" y="-3482.3"/><use xlink:href="#JIb6gyBhmGJwW2n7izqo_pad-1" x="3556.2" y="-3882.3"/><use xlink:href="#JIb6gyBhmGJwW2n7izqo_pad-1" x="3556.2" y="-4182.3"/><use xlink:href="#JIb6gyBhmGJwW2n7izqo_pad-1" x="3556.2" y="-4882.3"/><use xlink:href="#JIb6gyBhmGJwW2n7izqo_pad-1" x="3556.2" y="-5382.3"/><use xlink:href="#JIb6gyBhmGJwW2n7izqo_pad-1" x="3559.4" y="-1433.3"/><use xlink:href="#JIb6gyBhmGJwW2n7izqo_pad-1" x="3656.2" y="-1482.3"/><use xlink:href="#JIb6gyBhmGJwW2n7izqo_pad-1" x="3656.2" y="-2482.3"/><use xlink:href="#JIb6gyBhmGJwW2n7izqo_pad-1" x="3656.2" y="-2882.3"/><use xlink:href="#JIb6gyBhmGJwW2n7izqo_pad-1" x="3656.2" y="-3282.3"/><use xlink:href="#JIb6gyBhmGJwW2n7izqo_pad-1" x="3656.2" y="-4482.3"/><use xlink:href="#JIb6gyBhmGJwW2n7izqo_pad-1" x="3756.2" y="-1182.3"/><use xlink:href="#JIb6gyBhmGJwW2n7izqo_pad-1" x="3756.2" y="-3782.3"/><use xlink:href="#JIb6gyBhmGJwW2n7izqo_pad-1" x="3756.2" y="-4082.3"/><use xlink:href="#JIb6gyBhmGJwW2n7izqo_pad-1" x="3756.2" y="-4682.3"/><use xlink:href="#JIb6gyBhmGJwW2n7izqo_pad-1" x="3756.2" y="-5182.3"/><use xlink:href="#JIb6gyBhmGJwW2n7izqo_pad-1" x="3856.2" y="-2782.3"/><use xlink:href="#JIb6gyBhmGJwW2n7izqo_pad-1" x="3856.2" y="-3082.3"/><use xlink:href="#JIb6gyBhmGJwW2n7izqo_pad-1" x="3856.2" y="-3382.3"/><use xlink:href="#JIb6gyBhmGJwW2n7izqo_pad-1" x="3856.2" y="-5382.3"/><use xlink:href="#JIb6gyBhmGJwW2n7izqo_pad-1" x="3858.6" y="-2421.5"/><use xlink:href="#JIb6gyBhmGJwW2n7izqo_pad-1" x="3868.5" y="-1348.6"/><use xlink:href="#JIb6gyBhmGJwW2n7izqo_pad-1" x="3888.1" y="-1476.6"/><use xlink:href="#JIb6gyBhmGJwW2n7izqo_pad-1" x="3905.9" y="-2049.4"/><use xlink:href="#JIb6gyBhmGJwW2n7izqo_pad-1" x="3956.2" y="-2582.3"/><use xlink:href="#JIb6gyBhmGJwW2n7izqo_pad-1" x="3956.2" y="-3982.3"/><use xlink:href="#JIb6gyBhmGJwW2n7izqo_pad-1" x="3956.2" y="-4282.3"/><use xlink:href="#JIb6gyBhmGJwW2n7izqo_pad-1" x="3956.2" y="-4582.3"/><use xlink:href="#JIb6gyBhmGJwW2n7izqo_pad-1" x="3956.2" y="-4982.3"/><use xlink:href="#JIb6gyBhmGJwW2n7izqo_pad-1" x="4035.8" y="-1338.8"/><use xlink:href="#JIb6gyBhmGJwW2n7izqo_pad-1" x="4045.6" y="-1486.4"/><use xlink:href="#JIb6gyBhmGJwW2n7izqo_pad-1" x="4056.2" y="-2882.3"/><use xlink:href="#JIb6gyBhmGJwW2n7izqo_pad-1" x="4056.2" y="-3182.3"/><use xlink:href="#JIb6gyBhmGJwW2n7izqo_pad-1" x="4056.2" y="-5182.3"/><use xlink:href="#JIb6gyBhmGJwW2n7izqo_pad-1" x="4096.8" y="-2078.9"/><use xlink:href="#JIb6gyBhmGJwW2n7izqo_pad-1" x="4126.3" y="-1888"/><use xlink:href="#JIb6gyBhmGJwW2n7izqo_pad-1" x="4156.2" y="-1082.3"/><use xlink:href="#JIb6gyBhmGJwW2n7izqo_pad-1" x="4156.2" y="-1482.3"/><use xlink:href="#JIb6gyBhmGJwW2n7izqo_pad-1" x="4156.2" y="-2482.3"/><use xlink:href="#JIb6gyBhmGJwW2n7izqo_pad-1" x="4156.2" y="-3382.3"/><use xlink:href="#JIb6gyBhmGJwW2n7izqo_pad-1" x="4156.2" y="-3782.3"/><use xlink:href="#JIb6gyBhmGJwW2n7izqo_pad-1" x="4156.2" y="-4082.3"/><use xlink:href="#JIb6gyBhmGJwW2n7izqo_pad-1" x="4156.2" y="-4382.3"/><use xlink:href="#JIb6gyBhmGJwW2n7izqo_pad-1" x="4156.2" y="-4682.3"/><use xlink:href="#JIb6gyBhmGJwW2n7izqo_pad-1" x="4156.2" y="-5382.3"/><use xlink:href="#JIb6gyBhmGJwW2n7izqo_pad-1" x="4173.6" y="-2421.5"/><use xlink:href="#JIb6gyBhmGJwW2n7izqo_pad-1" x="4203.1" y="-1378.1"/><use xlink:href="#JIb6gyBhmGJwW2n7izqo_pad-1" x="4256.2" y="-3082.3"/><use xlink:href="#JIb6gyBhmGJwW2n7izqo_pad-1" x="4256.2" y="-3582.3"/><use xlink:href="#JIb6gyBhmGJwW2n7izqo_pad-1" x="4256.2" y="-4882.3"/><use xlink:href="#JIb6gyBhmGJwW2n7izqo_pad-1" x="4340.9" y="-1456.9"/><use xlink:href="#JIb6gyBhmGJwW2n7izqo_pad-1" x="4340.9" y="-1456.9"/><use xlink:href="#JIb6gyBhmGJwW2n7izqo_pad-1" x="4356.2" y="-1182.3"/><use xlink:href="#JIb6gyBhmGJwW2n7izqo_pad-1" x="4356.2" y="-2582.3"/><use xlink:href="#JIb6gyBhmGJwW2n7izqo_pad-1" x="4356.2" y="-2882.3"/><use xlink:href="#JIb6gyBhmGJwW2n7izqo_pad-1" x="4356.2" y="-3282.3"/><use xlink:href="#JIb6gyBhmGJwW2n7izqo_pad-1" x="4356.2" y="-3882.3"/><use xlink:href="#JIb6gyBhmGJwW2n7izqo_pad-1" x="4356.2" y="-4182.3"/><use xlink:href="#JIb6gyBhmGJwW2n7izqo_pad-1" x="4356.2" y="-4482.3"/><use xlink:href="#JIb6gyBhmGJwW2n7izqo_pad-1" x="4356.2" y="-5082.3"/><use xlink:href="#JIb6gyBhmGJwW2n7izqo_pad-1" x="4409.8" y="-1348.6"/><use xlink:href="#JIb6gyBhmGJwW2n7izqo_pad-1" x="4449.2" y="-1771.9"/><use xlink:href="#JIb6gyBhmGJwW2n7izqo_pad-1" x="4449.2" y="-1968.7"/><use xlink:href="#JIb6gyBhmGJwW2n7izqo_pad-1" x="4449.2" y="-2165.6"/><use xlink:href="#JIb6gyBhmGJwW2n7izqo_pad-1" x="4456.2" y="-1882.3"/><use xlink:href="#JIb6gyBhmGJwW2n7izqo_pad-1" x="4456.2" y="-2282.3"/><use xlink:href="#JIb6gyBhmGJwW2n7izqo_pad-1" x="4456.2" y="-3482.3"/><use xlink:href="#JIb6gyBhmGJwW2n7izqo_pad-1" x="4456.2" y="-4682.3"/><use xlink:href="#JIb6gyBhmGJwW2n7izqo_pad-1" x="4456.2" y="-5282.3"/><use xlink:href="#JIb6gyBhmGJwW2n7izqo_pad-1" x="4488.5" y="-1447"/><use xlink:href="#JIb6gyBhmGJwW2n7izqo_pad-1" x="4556.2" y="-1382.3"/><use xlink:href="#JIb6gyBhmGJwW2n7izqo_pad-1" x="4556.2" y="-2082.3"/><use xlink:href="#JIb6gyBhmGJwW2n7izqo_pad-1" x="4556.2" y="-2482.3"/><use xlink:href="#JIb6gyBhmGJwW2n7izqo_pad-1" x="4556.2" y="-2782.3"/><use xlink:href="#JIb6gyBhmGJwW2n7izqo_pad-1" x="4556.2" y="-3082.3"/><use xlink:href="#JIb6gyBhmGJwW2n7izqo_pad-1" x="4556.2" y="-3682.3"/><use xlink:href="#JIb6gyBhmGJwW2n7izqo_pad-1" x="4556.2" y="-3982.3"/><use xlink:href="#JIb6gyBhmGJwW2n7izqo_pad-1" x="4556.2" y="-4282.3"/><use xlink:href="#JIb6gyBhmGJwW2n7izqo_pad-1" x="4556.2" y="-4882.3"/><use xlink:href="#JIb6gyBhmGJwW2n7izqo_pad-1" x="4656.2" y="-1782.3"/><use xlink:href="#JIb6gyBhmGJwW2n7izqo_pad-1" x="4656.2" y="-3282.3"/><use xlink:href="#JIb6gyBhmGJwW2n7izqo_pad-1" x="4656.2" y="-4482.3"/><use xlink:href="#JIb6gyBhmGJwW2n7izqo_pad-1" x="4656.2" y="-5082.3"/><use xlink:href="#JIb6gyBhmGJwW2n7izqo_pad-1" x="4656.2" y="-5382.3"/><use xlink:href="#JIb6gyBhmGJwW2n7izqo_pad-1" x="4756.2" y="-1182.3"/><use xlink:href="#JIb6gyBhmGJwW2n7izqo_pad-1" x="4756.2" y="-1982.3"/><use xlink:href="#JIb6gyBhmGJwW2n7izqo_pad-1" x="4756.2" y="-2682.3"/><use xlink:href="#JIb6gyBhmGJwW2n7izqo_pad-1" x="4756.2" y="-3482.3"/><use xlink:href="#JIb6gyBhmGJwW2n7izqo_pad-1" x="4756.2" y="-3782.3"/><use xlink:href="#JIb6gyBhmGJwW2n7izqo_pad-1" x="4756.2" y="-4082.3"/><use xlink:href="#JIb6gyBhmGJwW2n7izqo_pad-1" x="4756.2" y="-4682.3"/><use xlink:href="#JIb6gyBhmGJwW2n7izqo_pad-1" x="4783.8" y="-1486.4"/><use xlink:href="#JIb6gyBhmGJwW2n7izqo_pad-1" x="4856.2" y="-1382.3"/><use xlink:href="#JIb6gyBhmGJwW2n7izqo_pad-1" x="4856.2" y="-2182.3"/><use xlink:href="#JIb6gyBhmGJwW2n7izqo_pad-1" x="4856.2" y="-2482.3"/><use xlink:href="#JIb6gyBhmGJwW2n7izqo_pad-1" x="4856.2" y="-2882.3"/><use xlink:href="#JIb6gyBhmGJwW2n7izqo_pad-1" x="4856.2" y="-3082.3"/><use xlink:href="#JIb6gyBhmGJwW2n7izqo_pad-1" x="4856.2" y="-4282.3"/><use xlink:href="#JIb6gyBhmGJwW2n7izqo_pad-1" x="4856.2" y="-4882.3"/><use xlink:href="#JIb6gyBhmGJwW2n7izqo_pad-1" x="4856.2" y="-5182.3"/><use xlink:href="#JIb6gyBhmGJwW2n7izqo_pad-1" x="4956.2" y="-1082.3"/><use xlink:href="#JIb6gyBhmGJwW2n7izqo_pad-1" x="4956.2" y="-1582.3"/><use xlink:href="#JIb6gyBhmGJwW2n7izqo_pad-1" x="4956.2" y="-1882.3"/><use xlink:href="#JIb6gyBhmGJwW2n7izqo_pad-1" x="4956.2" y="-3282.3"/><use xlink:href="#JIb6gyBhmGJwW2n7izqo_pad-1" x="4956.2" y="-3582.3"/><use xlink:href="#JIb6gyBhmGJwW2n7izqo_pad-1" x="4956.2" y="-3882.3"/><use xlink:href="#JIb6gyBhmGJwW2n7izqo_pad-1" x="4956.2" y="-4482.3"/><use xlink:href="#JIb6gyBhmGJwW2n7izqo_pad-1" x="4956.2" y="-5382.3"/><use xlink:href="#JIb6gyBhmGJwW2n7izqo_pad-2" x="2706.7" y="-3187"/><use xlink:href="#JIb6gyBhmGJwW2n7izqo_pad-2" x="2755.9" y="-3187"/><use xlink:href="#JIb6gyBhmGJwW2n7izqo_pad-3" x="1188.6" y="-4792.1"/><use xlink:href="#JIb6gyBhmGJwW2n7izqo_pad-3" x="1188.6" y="-4870.9"/><use xlink:href="#JIb6gyBhmGJwW2n7izqo_pad-3" x="1267.3" y="-4792.1"/><use xlink:href="#JIb6gyBhmGJwW2n7izqo_pad-3" x="1267.3" y="-4870.9"/><use xlink:href="#JIb6gyBhmGJwW2n7izqo_pad-3" x="1346.1" y="-4792.1"/><use xlink:href="#JIb6gyBhmGJwW2n7izqo_pad-3" x="1346.1" y="-4870.9"/><use xlink:href="#JIb6gyBhmGJwW2n7izqo_pad-4" x="1358.3" y="-5265.7"/><use xlink:href="#JIb6gyBhmGJwW2n7izqo_pad-4" x="1437" y="-5265.7"/><use xlink:href="#JIb6gyBhmGJwW2n7izqo_pad-5" x="1092.1" y="-3081.5"/><use xlink:href="#JIb6gyBhmGJwW2n7izqo_pad-5" x="1092.1" y="-3181.5"/><use xlink:href="#JIb6gyBhmGJwW2n7izqo_pad-5" x="1092.1" y="-3281.5"/><use xlink:href="#JIb6gyBhmGJwW2n7izqo_pad-5" x="1092.1" y="-3381.5"/><use xlink:href="#JIb6gyBhmGJwW2n7izqo_pad-5" x="1092.1" y="-3481.5"/><use xlink:href="#JIb6gyBhmGJwW2n7izqo_pad-5" x="1092.1" y="-3581.5"/><use xlink:href="#JIb6gyBhmGJwW2n7izqo_pad-5" x="1092.1" y="-3681.5"/><use xlink:href="#JIb6gyBhmGJwW2n7izqo_pad-5" x="1092.1" y="-3781.5"/><use xlink:href="#JIb6gyBhmGJwW2n7izqo_pad-5" x="1092.1" y="-3881.5"/><use xlink:href="#JIb6gyBhmGJwW2n7izqo_pad-5" x="1092.1" y="-3981.5"/><use xlink:href="#JIb6gyBhmGJwW2n7izqo_pad-5" x="1092.1" y="-4081.5"/><use xlink:href="#JIb6gyBhmGJwW2n7izqo_pad-5" x="1092.1" y="-4181.5"/><use xlink:href="#JIb6gyBhmGJwW2n7izqo_pad-5" x="1092.1" y="-4281.5"/><use xlink:href="#JIb6gyBhmGJwW2n7izqo_pad-5" x="1092.1" y="-4381.5"/><use xlink:href="#JIb6gyBhmGJwW2n7izqo_pad-5" x="1092.1" y="-4481.5"/><use xlink:href="#JIb6gyBhmGJwW2n7izqo_pad-5" x="1092.1" y="-4581.5"/><use xlink:href="#JIb6gyBhmGJwW2n7izqo_pad-5" x="1092.1" y="-4681.5"/><use xlink:href="#JIb6gyBhmGJwW2n7izqo_pad-5" x="1092.1" y="-4781.5"/><use xlink:href="#JIb6gyBhmGJwW2n7izqo_pad-5" x="1092.1" y="-4881.5"/><use xlink:href="#JIb6gyBhmGJwW2n7izqo_pad-5" x="1092.1" y="-4981.5"/><use xlink:href="#JIb6gyBhmGJwW2n7izqo_pad-5" x="1092.1" y="-5081.5"/><use xlink:href="#JIb6gyBhmGJwW2n7izqo_pad-5" x="1092.1" y="-5181.5"/><use xlink:href="#JIb6gyBhmGJwW2n7izqo_pad-5" x="1092.1" y="-5281.5"/><use xlink:href="#JIb6gyBhmGJwW2n7izqo_pad-5" x="1092.1" y="-5381.5"/><use xlink:href="#JIb6gyBhmGJwW2n7izqo_pad-5" x="1592.1" y="-3581.5"/><use xlink:href="#JIb6gyBhmGJwW2n7izqo_pad-5" x="1692.1" y="-3081.5"/><use xlink:href="#JIb6gyBhmGJwW2n7izqo_pad-5" x="1692.1" y="-3181.5"/><use xlink:href="#JIb6gyBhmGJwW2n7izqo_pad-5" x="1692.1" y="-3281.5"/><use xlink:href="#JIb6gyBhmGJwW2n7izqo_pad-5" x="1692.1" y="-3381.5"/><use xlink:href="#JIb6gyBhmGJwW2n7izqo_pad-5" x="1692.1" y="-3481.5"/><use xlink:href="#JIb6gyBhmGJwW2n7izqo_pad-5" x="1692.1" y="-3581.5"/><use xlink:href="#JIb6gyBhmGJwW2n7izqo_pad-5" x="1692.1" y="-3681.5"/><use xlink:href="#JIb6gyBhmGJwW2n7izqo_pad-5" x="1692.1" y="-3781.5"/><use xlink:href="#JIb6gyBhmGJwW2n7izqo_pad-5" x="1692.1" y="-3881.5"/><use xlink:href="#JIb6gyBhmGJwW2n7izqo_pad-5" x="1692.1" y="-3981.5"/><use xlink:href="#JIb6gyBhmGJwW2n7izqo_pad-5" x="1692.1" y="-4081.5"/><use xlink:href="#JIb6gyBhmGJwW2n7izqo_pad-5" x="1692.1" y="-4181.5"/><use xlink:href="#JIb6gyBhmGJwW2n7izqo_pad-5" x="1692.1" y="-4281.5"/><use xlink:href="#JIb6gyBhmGJwW2n7izqo_pad-5" x="1692.1" y="-4381.5"/><use xlink:href="#JIb6gyBhmGJwW2n7izqo_pad-5" x="1692.1" y="-4481.5"/><use xlink:href="#JIb6gyBhmGJwW2n7izqo_pad-5" x="1692.1" y="-4581.5"/><use xlink:href="#JIb6gyBhmGJwW2n7izqo_pad-5" x="1692.1" y="-4681.5"/><use xlink:href="#JIb6gyBhmGJwW2n7izqo_pad-5" x="1692.1" y="-4781.5"/><use xlink:href="#JIb6gyBhmGJwW2n7izqo_pad-5" x="1692.1" y="-4881.5"/><use xlink:href="#JIb6gyBhmGJwW2n7izqo_pad-5" x="1692.1" y="-4981.5"/><use xlink:href="#JIb6gyBhmGJwW2n7izqo_pad-5" x="1692.1" y="-5081.5"/><use xlink:href="#JIb6gyBhmGJwW2n7izqo_pad-5" x="1692.1" y="-5181.5"/><use xlink:href="#JIb6gyBhmGJwW2n7izqo_pad-5" x="1692.1" y="-5281.5"/><use xlink:href="#JIb6gyBhmGJwW2n7izqo_pad-5" x="1692.1" y="-5381.5"/><use xlink:href="#JIb6gyBhmGJwW2n7izqo_pad-6" x="2049.4" y="-4824.8"/><use xlink:href="#JIb6gyBhmGJwW2n7izqo_pad-6" x="2099.4" y="-4724.8"/><use xlink:href="#JIb6gyBhmGJwW2n7izqo_pad-6" x="2149.4" y="-4824.8"/><use xlink:href="#JIb6gyBhmGJwW2n7izqo_pad-6" x="2199.4" y="-4724.8"/><use xlink:href="#JIb6gyBhmGJwW2n7izqo_pad-6" x="2249.4" y="-4824.8"/><use xlink:href="#JIb6gyBhmGJwW2n7izqo_pad-6" x="2299.4" y="-4724.8"/><use xlink:href="#JIb6gyBhmGJwW2n7izqo_pad-6" x="2349.4" y="-4824.8"/><use xlink:href="#JIb6gyBhmGJwW2n7izqo_pad-6" x="2399.4" y="-4724.8"/><use xlink:href="#JIb6gyBhmGJwW2n7izqo_pad-7" x="2013" y="-3159.4"/><use xlink:href="#JIb6gyBhmGJwW2n7izqo_pad-7" x="2018.7" y="-4150.8"/><use xlink:href="#JIb6gyBhmGJwW2n7izqo_pad-7" x="2018.7" y="-4250.8"/><use xlink:href="#JIb6gyBhmGJwW2n7izqo_pad-7" x="2018.7" y="-4350.8"/><use xlink:href="#JIb6gyBhmGJwW2n7izqo_pad-7" x="2018.7" y="-4450.8"/><use xlink:href="#JIb6gyBhmGJwW2n7izqo_pad-7" x="2019.7" y="-3537"/><use xlink:href="#JIb6gyBhmGJwW2n7izqo_pad-7" x="2019.7" y="-3637"/><use xlink:href="#JIb6gyBhmGJwW2n7izqo_pad-7" x="2019.7" y="-3737"/><use xlink:href="#JIb6gyBhmGJwW2n7izqo_pad-7" x="2019.7" y="-3837"/><use xlink:href="#JIb6gyBhmGJwW2n7izqo_pad-7" x="2019.7" y="-3937"/><use xlink:href="#JIb6gyBhmGJwW2n7izqo_pad-7" x="2113" y="-3159.4"/><use xlink:href="#JIb6gyBhmGJwW2n7izqo_pad-7" x="2213" y="-3159.4"/><use xlink:href="#JIb6gyBhmGJwW2n7izqo_pad-7" x="2313" y="-3159.4"/><use xlink:href="#JIb6gyBhmGJwW2n7izqo_pad-7" x="2413" y="-3159.4"/><use xlink:href="#JIb6gyBhmGJwW2n7izqo_pad-7" x="2727.4" y="-4636.2"/><use xlink:href="#JIb6gyBhmGJwW2n7izqo_pad-7" x="2727.4" y="-4736.2"/><use xlink:href="#JIb6gyBhmGJwW2n7izqo_pad-7" x="2727.4" y="-4836.2"/><use xlink:href="#JIb6gyBhmGJwW2n7izqo_pad-7" x="2727.4" y="-4936.2"/><use xlink:href="#JIb6gyBhmGJwW2n7izqo_pad-7" x="2727.4" y="-5036.2"/><use xlink:href="#JIb6gyBhmGJwW2n7izqo_pad-7" x="2727.4" y="-5136.2"/><use xlink:href="#JIb6gyBhmGJwW2n7izqo_pad-7" x="2727.4" y="-5236.2"/><use xlink:href="#JIb6gyBhmGJwW2n7izqo_pad-7" x="2727.8" y="-3732.8"/><use xlink:href="#JIb6gyBhmGJwW2n7izqo_pad-7" x="2727.8" y="-3832.8"/><use xlink:href="#JIb6gyBhmGJwW2n7izqo_pad-7" x="2727.8" y="-3932.8"/><use xlink:href="#JIb6gyBhmGJwW2n7izqo_pad-7" x="2727.8" y="-4032.8"/><use xlink:href="#JIb6gyBhmGJwW2n7izqo_pad-7" x="2727.8" y="-4132.8"/><use xlink:href="#JIb6gyBhmGJwW2n7izqo_pad-7" x="2727.8" y="-4232.8"/><use xlink:href="#JIb6gyBhmGJwW2n7izqo_pad-7" x="3169.3" y="-4965.4"/><use xlink:href="#JIb6gyBhmGJwW2n7izqo_pad-7" x="3169.3" y="-5162.2"/><use xlink:href="#JIb6gyBhmGJwW2n7izqo_pad-7" x="3637" y="-3464.6"/><use xlink:href="#JIb6gyBhmGJwW2n7izqo_pad-7" x="3637.8" y="-5039.4"/><use xlink:href="#JIb6gyBhmGJwW2n7izqo_pad-7" x="3737" y="-3464.6"/><use xlink:href="#JIb6gyBhmGJwW2n7izqo_pad-7" x="3737.8" y="-5039.4"/><use xlink:href="#JIb6gyBhmGJwW2n7izqo_pad-7" x="3738.2" y="-3662.4"/><use xlink:href="#JIb6gyBhmGJwW2n7izqo_pad-7" x="3738.2" y="-4851.4"/><use xlink:href="#JIb6gyBhmGJwW2n7izqo_pad-7" x="3837" y="-3464.6"/><use xlink:href="#JIb6gyBhmGJwW2n7izqo_pad-7" x="3837.8" y="-5039.4"/><use xlink:href="#JIb6gyBhmGJwW2n7izqo_pad-7" x="3838.2" y="-3662.4"/><use xlink:href="#JIb6gyBhmGJwW2n7izqo_pad-7" x="3838.2" y="-4851.4"/><use xlink:href="#JIb6gyBhmGJwW2n7izqo_pad-7" x="3937" y="-3464.6"/><use xlink:href="#JIb6gyBhmGJwW2n7izqo_pad-7" x="3937.8" y="-5039.4"/><use xlink:href="#JIb6gyBhmGJwW2n7izqo_pad-7" x="3938.2" y="-3662.4"/><use xlink:href="#JIb6gyBhmGJwW2n7izqo_pad-7" x="3938.2" y="-4851.4"/><use xlink:href="#JIb6gyBhmGJwW2n7izqo_pad-7" x="4037" y="-3464.6"/><use xlink:href="#JIb6gyBhmGJwW2n7izqo_pad-7" x="4037.8" y="-5039.4"/><use xlink:href="#JIb6gyBhmGJwW2n7izqo_pad-7" x="4038.2" y="-3662.4"/><use xlink:href="#JIb6gyBhmGJwW2n7izqo_pad-7" x="4038.2" y="-4851.4"/><use xlink:href="#JIb6gyBhmGJwW2n7izqo_pad-7" x="4137" y="-3464.6"/><use xlink:href="#JIb6gyBhmGJwW2n7izqo_pad-7" x="4137.8" y="-5039.4"/><use xlink:href="#JIb6gyBhmGJwW2n7izqo_pad-7" x="4138.2" y="-3662.4"/><use xlink:href="#JIb6gyBhmGJwW2n7izqo_pad-7" x="4138.2" y="-4851.4"/><use xlink:href="#JIb6gyBhmGJwW2n7izqo_pad-7" x="4237" y="-3464.6"/><use xlink:href="#JIb6gyBhmGJwW2n7izqo_pad-7" x="4237.8" y="-5039.4"/><use xlink:href="#JIb6gyBhmGJwW2n7izqo_pad-8" x="1975.4" y="-5274.8"/><use xlink:href="#JIb6gyBhmGJwW2n7izqo_pad-8" x="2075.4" y="-5207.9"/><use xlink:href="#JIb6gyBhmGJwW2n7izqo_pad-8" x="2373.4" y="-5274.8"/><use xlink:href="#JIb6gyBhmGJwW2n7izqo_pad-8" x="2473.4" y="-5207.9"/><use xlink:href="#JIb6gyBhmGJwW2n7izqo_pad-9" x="1914.4" y="-4954.7"/><use xlink:href="#JIb6gyBhmGJwW2n7izqo_pad-9" x="2534.4" y="-4954.7"/></g></svg>