<svg version="1.1" xmlns="http://www.w3.org/2000/svg" xmlns:xlink="http://www.w3.org/1999/xlink" stroke-linecap="round" stroke-linejoin="round" stroke-width="0" fill-rule="evenodd" width="97.04798600000001mm" height="109.569001mm" viewBox="27085.999 -137344.001 97047.986 109569.001" id="UYccvK22U08NVBmauNyi"><defs><rect x="-850" y="-850" width="1700" height="1700" id="UYccvK22U08NVBmauNyi_pad-11"/><rect x="-850" y="-850" width="1700" height="1700" rx="850" ry="850" id="UYccvK22U08NVBmauNyi_pad-12"/><circle cx="0" cy="0" r="250" id="UYccvK22U08NVBmauNyi_pad-13"/><rect x="-1000" y="-1000" width="2000" height="2000" id="UYccvK22U08NVBmauNyi_pad-14"/><circle cx="0" cy="0" r="1000" id="UYccvK22U08NVBmauNyi_pad-15"/><circle cx="0" cy="0" r="654" id="UYccvK22U08NVBmauNyi_pad-16"/><circle cx="0" cy="0" r="604" id="UYccvK22U08NVBmauNyi_pad-17"/><g id="UYccvK22U08NVBmauNyi_pad-18"><polygon points="200,450 -200,450 -200,-450 200,-450"/><circle cx="200" cy="450" r="200"/><circle cx="-200" cy="450" r="200"/><circle cx="-200" cy="-450" r="200"/><circle cx="200" cy="-450" r="200"/><polygon points="200,250 -200,250 -200,650 200,650"/><polygon points="0,450 0,-450 -400,-450 -400,450"/><polygon points="-200,-650 200,-650 200,-250 -200,-250"/><polygon points="400,-450 400,450 0,450 0,-450"/></g><rect x="-400" y="-650" width="800" height="1300" rx="400" ry="400" id="UYccvK22U08NVBmauNyi_pad-19"/><circle cx="0" cy="0" r="1625" id="UYccvK22U08NVBmauNyi_pad-20"/><g id="UYccvK22U08NVBmauNyi_pad-21"><polygon points="-499.5,-499.5 499.5,-499.5 499.5,499.5 -499.5,499.5"/><circle cx="-499.5" cy="-499.5" r="250.5"/><circle cx="499.5" cy="-499.5" r="250.5"/><circle cx="499.5" cy="499.5" r="250.5"/><circle cx="-499.5" cy="499.5" r="250.5"/><polygon points="-499.5,-750 499.5,-750 499.5,-249 -499.5,-249"/><polygon points="750,-499.5 750,499.5 249,499.5 249,-499.5"/><polygon points="499.5,249 -499.5,249 -499.5,750 499.5,750"/><polygon points="-249,499.5 -249,-499.5 -750,-499.5 -750,499.5"/></g><circle cx="0" cy="0" r="750" id="UYccvK22U08NVBmauNyi_pad-22"/><circle cx="0" cy="0" r="1250" id="UYccvK22U08NVBmauNyi_pad-23"/><g id="UYccvK22U08NVBmauNyi_pad-24"><polygon points="475,-337.5 475,337.5 -475,337.5 -475,-337.5"/><circle cx="475" cy="-337.5" r="250"/><circle cx="475" cy="337.5" r="250"/><circle cx="-475" cy="337.5" r="250"/><circle cx="-475" cy="-337.5" r="250"/><polygon points="725,-337.5 725,337.5 225,337.5 225,-337.5"/><polygon points="475,87.5 -475,87.5 -475,587.5 475,587.5"/><polygon points="-225,337.5 -225,-337.5 -725,-337.5 -725,337.5"/><polygon points="-475,-587.5 475,-587.5 475,-87.5 -475,-87.5"/></g><g id="UYccvK22U08NVBmauNyi_pad-25"><polygon points="-475,337.5 -475,-337.5 475,-337.5 475,337.5"/><circle cx="-475" cy="337.5" r="250"/><circle cx="-475" cy="-337.5" r="250"/><circle cx="475" cy="-337.5" r="250"/><circle cx="475" cy="337.5" r="250"/><polygon points="-225,337.5 -225,-337.5 -725,-337.5 -725,337.5"/><polygon points="-475,-587.5 475,-587.5 475,-87.5 -475,-87.5"/><polygon points="725,-337.5 725,337.5 225,337.5 225,-337.5"/><polygon points="475,87.5 -475,87.5 -475,587.5 475,587.5"/></g><g id="UYccvK22U08NVBmauNyi_pad-26"><polygon points="450,-350 450,350 -450,350 -450,-350"/><circle cx="450" cy="-350" r="250"/><circle cx="450" cy="350" r="250"/><circle cx="-450" cy="350" r="250"/><circle cx="-450" cy="-350" r="250"/><polygon points="700,-350 700,350 200,350 200,-350"/><polygon points="450,100 -450,100 -450,600 450,600"/><polygon points="-200,350 -200,-350 -700,-350 -700,350"/><polygon points="-450,-600 450,-600 450,-100 -450,-100"/></g><g id="UYccvK22U08NVBmauNyi_pad-27"><polygon points="337.5,475 -337.5,475 -337.5,-475 337.5,-475"/><circle cx="337.5" cy="475" r="250"/><circle cx="-337.5" cy="475" r="250"/><circle cx="-337.5" cy="-475" r="250"/><circle cx="337.5" cy="-475" r="250"/><polygon points="337.5,225 -337.5,225 -337.5,725 337.5,725"/><polygon points="-87.5,475 -87.5,-475 -587.5,-475 -587.5,475"/><polygon points="-337.5,-725 337.5,-725 337.5,-225 -337.5,-225"/><polygon points="587.5,-475 587.5,475 87.5,475 87.5,-475"/></g><g id="UYccvK22U08NVBmauNyi_pad-28"><polygon points="725,150 -725,150 -725,-150 725,-150"/><circle cx="725" cy="150" r="150"/><circle cx="-725" cy="150" r="150"/><circle cx="-725" cy="-150" r="150"/><circle cx="725" cy="-150" r="150"/><polygon points="725,0 -725,0 -725,300 725,300"/><polygon points="-575,150 -575,-150 -875,-150 -875,150"/><polygon points="-725,-300 725,-300 725,0 -725,0"/><polygon points="875,-150 875,150 575,150 575,-150"/></g><rect x="-500" y="-500" width="1000" height="1000" id="UYccvK22U08NVBmauNyi_pad-29"/><rect x="-525" y="-1100" width="1050" height="2200" id="UYccvK22U08NVBmauNyi_pad-30"/><rect x="-1500" y="-1500" width="3000" height="3000" id="UYccvK22U08NVBmauNyi_pad-31"/><g id="UYccvK22U08NVBmauNyi_pad-32"><polygon points="-350,-450 350,-450 350,450 -350,450"/><circle cx="-350" cy="-450" r="250"/><circle cx="350" cy="-450" r="250"/><circle cx="350" cy="450" r="250"/><circle cx="-350" cy="450" r="250"/><polygon points="-350,-700 350,-700 350,-200 -350,-200"/><polygon points="600,-450 600,450 100,450 100,-450"/><polygon points="350,200 -350,200 -350,700 350,700"/><polygon points="-100,450 -100,-450 -600,-450 -600,450"/></g><rect x="-187.5" y="-625" width="375" height="1250" id="UYccvK22U08NVBmauNyi_pad-33"/><rect x="-150" y="-700" width="300" height="1400" id="UYccvK22U08NVBmauNyi_pad-34"/><rect x="-1255" y="-500" width="2510" height="1000" id="UYccvK22U08NVBmauNyi_pad-35"/><g id="UYccvK22U08NVBmauNyi_pad-36"><polygon points="350,450 -350,450 -350,-450 350,-450"/><circle cx="350" cy="450" r="250"/><circle cx="-350" cy="450" r="250"/><circle cx="-350" cy="-450" r="250"/><circle cx="350" cy="-450" r="250"/><polygon points="350,200 -350,200 -350,700 350,700"/><polygon points="-100,450 -100,-450 -600,-450 -600,450"/><polygon points="-350,-700 350,-700 350,-200 -350,-200"/><polygon points="600,-450 600,450 100,450 100,-450"/></g><g id="UYccvK22U08NVBmauNyi_pad-37"><polygon points="350,625 -350,625 -350,-625 350,-625"/><circle cx="350" cy="625" r="250"/><circle cx="-350" cy="625" r="250"/><circle cx="-350" cy="-625" r="250"/><circle cx="350" cy="-625" r="250"/><polygon points="350,375 -350,375 -350,875 350,875"/><polygon points="-100,625 -100,-625 -600,-625 -600,625"/><polygon points="-350,-875 350,-875 350,-375 -350,-375"/><polygon points="600,-625 600,625 100,625 100,-625"/></g><rect x="-600" y="-875" width="1200" height="1750" rx="600" ry="600" id="UYccvK22U08NVBmauNyi_pad-38"/><g id="UYccvK22U08NVBmauNyi_pad-39"><polygon points="-337.5,-475 337.5,-475 337.5,475 -337.5,475"/><circle cx="-337.5" cy="-475" r="250"/><circle cx="337.5" cy="-475" r="250"/><circle cx="337.5" cy="475" r="250"/><circle cx="-337.5" cy="475" r="250"/><polygon points="-337.5,-725 337.5,-725 337.5,-225 -337.5,-225"/><polygon points="587.5,-475 587.5,475 87.5,475 87.5,-475"/><polygon points="337.5,225 -337.5,225 -337.5,725 337.5,725"/><polygon points="-87.5,475 -87.5,-475 -587.5,-475 -587.5,475"/></g><g id="UYccvK22U08NVBmauNyi_pad-40"><polygon points="-450,350 -450,-350 450,-350 450,350"/><circle cx="-450" cy="350" r="250"/><circle cx="-450" cy="-350" r="250"/><circle cx="450" cy="-350" r="250"/><circle cx="450" cy="350" r="250"/><polygon points="-200,350 -200,-350 -700,-350 -700,350"/><polygon points="-450,-600 450,-600 450,-100 -450,-100"/><polygon points="700,-350 700,350 200,350 200,-350"/><polygon points="450,100 -450,100 -450,600 450,600"/></g><rect x="-780" y="-325" width="1560" height="650" id="UYccvK22U08NVBmauNyi_pad-41"/><rect x="-325" y="-1000" width="650" height="2000" id="UYccvK22U08NVBmauNyi_pad-42"/><g id="UYccvK22U08NVBmauNyi_pad-43"><polygon points="462.499,1074.999 -462.499,1074.999 -462.499,-1074.999 462.499,-1074.999"/><circle cx="462.499" cy="1074.999" r="250.001"/><circle cx="-462.499" cy="1074.999" r="250.001"/><circle cx="-462.499" cy="-1074.999" r="250.001"/><circle cx="462.499" cy="-1074.999" r="250.001"/><polygon points="462.499,824.998 -462.499,824.998 -462.499,1325 462.499,1325"/><polygon points="-212.498,1074.999 -212.498,-1074.999 -712.5,-1074.999 -712.5,1074.999"/><polygon points="-462.499,-1325 462.499,-1325 462.499,-824.998 -462.499,-824.998"/><polygon points="712.5,-1074.999 712.5,1074.999 212.498,1074.999 212.498,-1074.999"/></g><rect x="-187.5" y="-512.5" width="375" height="1025" id="UYccvK22U08NVBmauNyi_pad-44"/><rect x="-150" y="-562.5" width="300" height="1125" id="UYccvK22U08NVBmauNyi_pad-45"/><rect x="-187.5" y="-500" width="375" height="1000" id="UYccvK22U08NVBmauNyi_pad-46"/><rect x="-600" y="-450" width="1200" height="900" id="UYccvK22U08NVBmauNyi_pad-47"/></defs><g transform="translate(0,-165119.001) scale(1,-1)" fill="currentColor" stroke="currentColor"><path d="M 121748.006 -73702.38 122081.339 -73226.19 M 122319.434 -73702.38 122319.434 -72702.38 121938.482 -72702.38 121843.244 -72750 121795.625 -72797.619 121748.006 -72892.857 121748.006 -73035.714 121795.625 -73130.952 121843.244 -73178.571 121938.482 -73226.19 122319.434 -73226.19 M 120938.482 -73654.761 121033.72 -73702.38 121224.196 -73702.38 121319.434 -73654.761 121367.053 -73559.523 121367.053 -73178.571 121319.434 -73083.333 121224.196 -73035.714 121033.72 -73035.714 120938.482 -73083.333 120890.863 -73178.571 120890.863 -73273.809 121367.053 -73369.047 M 120557.53 -73035.714 120319.434 -73702.38 120081.339 -73035.714 M 119700.387 -73607.142 119652.768 -73654.761 119700.387 -73702.38 119748.006 -73654.761 119700.387 -73607.142 119700.387 -73702.38 M 119700.387 -73083.333 119652.768 -73130.952 119700.387 -73178.571 119748.006 -73130.952 119700.387 -73083.333 119700.387 -73178.571 M 118557.53 -72702.38 117938.482 -72702.38 118271.815 -73083.333 118128.958 -73083.333 118033.72 -73130.952 117986.101 -73178.571 117938.482 -73273.809 117938.482 -73511.904 117986.101 -73607.142 118033.72 -73654.761 118128.958 -73702.38 118414.672 -73702.38 118509.91 -73654.761 118557.53 -73607.142 M 117509.91 -73607.142 117462.291 -73654.761 117509.91 -73702.38 117557.53 -73654.761 117509.91 -73607.142 117509.91 -73702.38 M 117128.958 -72702.38 116509.91 -72702.38 116843.244 -73083.333 116700.387 -73083.333 116605.149 -73130.952 116557.53 -73178.571 116509.91 -73273.809 116509.91 -73511.904 116557.53 -73607.142 116605.149 -73654.761 116700.387 -73702.38 116986.101 -73702.38 117081.339 -73654.761 117128.958 -73607.142 M 72810.476 -73702.38 73143.809 -73226.19 M 73381.904 -73702.38 73381.904 -72702.38 73000.952 -72702.38 72905.714 -72750 72858.095 -72797.619 72810.476 -72892.857 72810.476 -73035.714 72858.095 -73130.952 72905.714 -73178.571 73000.952 -73226.19 73381.904 -73226.19 M 72000.952 -73654.761 72096.19 -73702.38 72286.666 -73702.38 72381.904 -73654.761 72429.523 -73559.523 72429.523 -73178.571 72381.904 -73083.333 72286.666 -73035.714 72096.19 -73035.714 72000.952 -73083.333 71953.333 -73178.571 71953.333 -73273.809 72429.523 -73369.047 M 71620 -73035.714 71381.904 -73702.38 71143.809 -73035.714 M 70762.857 -73607.142 70715.238 -73654.761 70762.857 -73702.38 70810.476 -73654.761 70762.857 -73607.142 70762.857 -73702.38 M 70762.857 -73083.333 70715.238 -73130.952 70762.857 -73178.571 70810.476 -73130.952 70762.857 -73083.333 70762.857 -73178.571 M 69620 -72702.38 69000.952 -72702.38 69334.285 -73083.333 69191.428 -73083.333 69096.19 -73130.952 69048.571 -73178.571 69000.952 -73273.809 69000.952 -73511.904 69048.571 -73607.142 69096.19 -73654.761 69191.428 -73702.38 69477.142 -73702.38 69572.38 -73654.761 69620 -73607.142 M 68572.38 -73607.142 68524.761 -73654.761 68572.38 -73702.38 68620 -73654.761 68572.38 -73607.142 68572.38 -73702.38 M 68191.428 -72702.38 67572.38 -72702.38 67905.714 -73083.333 67762.857 -73083.333 67667.619 -73130.952 67620 -73178.571 67572.38 -73273.809 67572.38 -73511.904 67620 -73607.142 67667.619 -73654.761 67762.857 -73702.38 68048.571 -73702.38 68143.809 -73654.761 68191.428 -73607.142" fill="none" stroke-width="200"/><use xlink:href="#UYccvK22U08NVBmauNyi_pad-11" x="69275" y="-133000"/><use xlink:href="#UYccvK22U08NVBmauNyi_pad-12" x="69275" y="-130460"/><use xlink:href="#UYccvK22U08NVBmauNyi_pad-12" x="69275" y="-127920"/><use xlink:href="#UYccvK22U08NVBmauNyi_pad-12" x="69275" y="-125380"/><use xlink:href="#UYccvK22U08NVBmauNyi_pad-12" x="69275" y="-122840"/><use xlink:href="#UYccvK22U08NVBmauNyi_pad-12" x="69275" y="-120300"/><use xlink:href="#UYccvK22U08NVBmauNyi_pad-12" x="69275" y="-117760"/><use xlink:href="#UYccvK22U08NVBmauNyi_pad-11" x="61290" y="-80250"/><use xlink:href="#UYccvK22U08NVBmauNyi_pad-12" x="58750" y="-80250"/><use xlink:href="#UYccvK22U08NVBmauNyi_pad-12" x="56210" y="-80250"/><use xlink:href="#UYccvK22U08NVBmauNyi_pad-12" x="53670" y="-80250"/><use xlink:href="#UYccvK22U08NVBmauNyi_pad-12" x="51130" y="-80250"/><use xlink:href="#UYccvK22U08NVBmauNyi_pad-11" x="92380" y="-88000"/><use xlink:href="#UYccvK22U08NVBmauNyi_pad-12" x="94920" y="-88000"/><use xlink:href="#UYccvK22U08NVBmauNyi_pad-12" x="97460" y="-88000"/><use xlink:href="#UYccvK22U08NVBmauNyi_pad-12" x="100000" y="-88000"/><use xlink:href="#UYccvK22U08NVBmauNyi_pad-12" x="102540" y="-88000"/><use xlink:href="#UYccvK22U08NVBmauNyi_pad-12" x="105080" y="-88000"/><use xlink:href="#UYccvK22U08NVBmauNyi_pad-12" x="107620" y="-88000"/><use xlink:href="#UYccvK22U08NVBmauNyi_pad-13" x="116250" y="-75250"/><use xlink:href="#UYccvK22U08NVBmauNyi_pad-13" x="117000" y="-75250"/><use xlink:href="#UYccvK22U08NVBmauNyi_pad-13" x="117750" y="-75250"/><use xlink:href="#UYccvK22U08NVBmauNyi_pad-13" x="116250" y="-76750"/><use xlink:href="#UYccvK22U08NVBmauNyi_pad-13" x="117750" y="-76750"/><use xlink:href="#UYccvK22U08NVBmauNyi_pad-13" x="117000" y="-76750"/><use xlink:href="#UYccvK22U08NVBmauNyi_pad-13" x="34250" y="-75250"/><use xlink:href="#UYccvK22U08NVBmauNyi_pad-13" x="35000" y="-75250"/><use xlink:href="#UYccvK22U08NVBmauNyi_pad-13" x="35000" y="-76750"/><use xlink:href="#UYccvK22U08NVBmauNyi_pad-13" x="35750" y="-76750"/><use xlink:href="#UYccvK22U08NVBmauNyi_pad-13" x="35750" y="-75250"/><use xlink:href="#UYccvK22U08NVBmauNyi_pad-13" x="34250" y="-76750"/><use xlink:href="#UYccvK22U08NVBmauNyi_pad-13" x="76750" y="-34250"/><use xlink:href="#UYccvK22U08NVBmauNyi_pad-13" x="76750" y="-35000"/><use xlink:href="#UYccvK22U08NVBmauNyi_pad-13" x="75250" y="-35750"/><use xlink:href="#UYccvK22U08NVBmauNyi_pad-13" x="76750" y="-35750"/><use xlink:href="#UYccvK22U08NVBmauNyi_pad-13" x="75250" y="-35000"/><use xlink:href="#UYccvK22U08NVBmauNyi_pad-13" x="75250" y="-34250"/><use xlink:href="#UYccvK22U08NVBmauNyi_pad-14" x="80500" y="-131120.785"/><use xlink:href="#UYccvK22U08NVBmauNyi_pad-15" x="80500" y="-126120.785"/><use xlink:href="#UYccvK22U08NVBmauNyi_pad-16" x="42979.999" y="-134150.001"/><use xlink:href="#UYccvK22U08NVBmauNyi_pad-16" x="42979.999" y="-131610.001"/><use xlink:href="#UYccvK22U08NVBmauNyi_pad-16" x="42979.999" y="-129070.001"/><use xlink:href="#UYccvK22U08NVBmauNyi_pad-16" x="42979.999" y="-126530.001"/><use xlink:href="#UYccvK22U08NVBmauNyi_pad-16" x="42979.999" y="-101130.001"/><use xlink:href="#UYccvK22U08NVBmauNyi_pad-16" x="27739.999" y="-131610.001"/><use xlink:href="#UYccvK22U08NVBmauNyi_pad-16" x="42979.999" y="-123990.001"/><use xlink:href="#UYccvK22U08NVBmauNyi_pad-16" x="42979.999" y="-121450.001"/><use xlink:href="#UYccvK22U08NVBmauNyi_pad-16" x="42979.999" y="-118910.001"/><use xlink:href="#UYccvK22U08NVBmauNyi_pad-16" x="42979.999" y="-116370.001"/><use xlink:href="#UYccvK22U08NVBmauNyi_pad-16" x="42979.999" y="-113830.001"/><use xlink:href="#UYccvK22U08NVBmauNyi_pad-16" x="42979.999" y="-111290.001"/><use xlink:href="#UYccvK22U08NVBmauNyi_pad-16" x="42979.999" y="-108750.001"/><use xlink:href="#UYccvK22U08NVBmauNyi_pad-16" x="42979.999" y="-106210.001"/><use xlink:href="#UYccvK22U08NVBmauNyi_pad-16" x="42979.999" y="-103670.001"/><use xlink:href="#UYccvK22U08NVBmauNyi_pad-16" x="27739.999" y="-103670.001"/><use xlink:href="#UYccvK22U08NVBmauNyi_pad-16" x="27739.999" y="-106210.001"/><use xlink:href="#UYccvK22U08NVBmauNyi_pad-16" x="27739.999" y="-108750.001"/><use xlink:href="#UYccvK22U08NVBmauNyi_pad-16" x="27739.999" y="-111290.001"/><use xlink:href="#UYccvK22U08NVBmauNyi_pad-16" x="27739.999" y="-113830.001"/><use xlink:href="#UYccvK22U08NVBmauNyi_pad-16" x="27739.999" y="-116370.001"/><use xlink:href="#UYccvK22U08NVBmauNyi_pad-16" x="27739.999" y="-118910.001"/><use xlink:href="#UYccvK22U08NVBmauNyi_pad-16" x="27739.999" y="-121450.001"/><use xlink:href="#UYccvK22U08NVBmauNyi_pad-16" x="27739.999" y="-123990.001"/><use xlink:href="#UYccvK22U08NVBmauNyi_pad-16" x="27739.999" y="-126530.001"/><use xlink:href="#UYccvK22U08NVBmauNyi_pad-16" x="27739.999" y="-129070.001"/><use xlink:href="#UYccvK22U08NVBmauNyi_pad-16" x="42979.999" y="-98590.001"/><use xlink:href="#UYccvK22U08NVBmauNyi_pad-16" x="42979.999" y="-96050.001"/><use xlink:href="#UYccvK22U08NVBmauNyi_pad-16" x="42979.999" y="-93510.001"/><use xlink:href="#UYccvK22U08NVBmauNyi_pad-16" x="42979.999" y="-90970.001"/><use xlink:href="#UYccvK22U08NVBmauNyi_pad-16" x="42979.999" y="-88430.001"/><use xlink:href="#UYccvK22U08NVBmauNyi_pad-16" x="42979.999" y="-85890.001"/><use xlink:href="#UYccvK22U08NVBmauNyi_pad-16" x="42979.999" y="-83350.001"/><use xlink:href="#UYccvK22U08NVBmauNyi_pad-16" x="42979.999" y="-80810.001"/><use xlink:href="#UYccvK22U08NVBmauNyi_pad-16" x="42979.999" y="-78270.001"/><use xlink:href="#UYccvK22U08NVBmauNyi_pad-16" x="27739.999" y="-78270.001"/><use xlink:href="#UYccvK22U08NVBmauNyi_pad-16" x="27739.999" y="-80810.001"/><use xlink:href="#UYccvK22U08NVBmauNyi_pad-16" x="27739.999" y="-83350.001"/><use xlink:href="#UYccvK22U08NVBmauNyi_pad-16" x="27739.999" y="-85890.001"/><use xlink:href="#UYccvK22U08NVBmauNyi_pad-16" x="27739.999" y="-88430.001"/><use xlink:href="#UYccvK22U08NVBmauNyi_pad-16" x="27739.999" y="-90970.001"/><use xlink:href="#UYccvK22U08NVBmauNyi_pad-16" x="27739.999" y="-93510.001"/><use xlink:href="#UYccvK22U08NVBmauNyi_pad-16" x="27739.999" y="-96050.001"/><use xlink:href="#UYccvK22U08NVBmauNyi_pad-16" x="27739.999" y="-98590.001"/><use xlink:href="#UYccvK22U08NVBmauNyi_pad-16" x="42979.999" y="-136690.001"/><use xlink:href="#UYccvK22U08NVBmauNyi_pad-16" x="27739.999" y="-101130.001"/><use xlink:href="#UYccvK22U08NVBmauNyi_pad-16" x="27739.999" y="-134150.001"/><use xlink:href="#UYccvK22U08NVBmauNyi_pad-17" x="32189.999" y="-121720.001"/><use xlink:href="#UYccvK22U08NVBmauNyi_pad-17" x="32189.999" y="-123720.001"/><use xlink:href="#UYccvK22U08NVBmauNyi_pad-17" x="30189.999" y="-123720.001"/><use xlink:href="#UYccvK22U08NVBmauNyi_pad-17" x="30189.999" y="-121720.001"/><use xlink:href="#UYccvK22U08NVBmauNyi_pad-17" x="34189.999" y="-121720.001"/><use xlink:href="#UYccvK22U08NVBmauNyi_pad-17" x="34189.999" y="-123720.001"/><use xlink:href="#UYccvK22U08NVBmauNyi_pad-16" x="40439.999" y="-90970.001"/><use xlink:href="#UYccvK22U08NVBmauNyi_pad-16" x="27739.999" y="-136690.001"/><use xlink:href="#UYccvK22U08NVBmauNyi_pad-11" x="94950" y="-123225"/><use xlink:href="#UYccvK22U08NVBmauNyi_pad-12" x="97490" y="-123225"/><use xlink:href="#UYccvK22U08NVBmauNyi_pad-12" x="100030" y="-123225"/><use xlink:href="#UYccvK22U08NVBmauNyi_pad-12" x="102570" y="-123225"/><use xlink:href="#UYccvK22U08NVBmauNyi_pad-12" x="105110" y="-123225"/><use xlink:href="#UYccvK22U08NVBmauNyi_pad-18" x="70000" y="-80950"/><use xlink:href="#UYccvK22U08NVBmauNyi_pad-19" x="68750" y="-80950"/><use xlink:href="#UYccvK22U08NVBmauNyi_pad-11" x="69285.786" y="-107512.893"/><use xlink:href="#UYccvK22U08NVBmauNyi_pad-12" x="69285.786" y="-104972.893"/><use xlink:href="#UYccvK22U08NVBmauNyi_pad-12" x="69285.786" y="-102432.893"/><use xlink:href="#UYccvK22U08NVBmauNyi_pad-12" x="69285.786" y="-99892.893"/><use xlink:href="#UYccvK22U08NVBmauNyi_pad-12" x="69285.786" y="-97352.893"/><use xlink:href="#UYccvK22U08NVBmauNyi_pad-12" x="69285.786" y="-94812.893"/><use xlink:href="#UYccvK22U08NVBmauNyi_pad-13" x="87750" y="-76750"/><use xlink:href="#UYccvK22U08NVBmauNyi_pad-13" x="87750" y="-75250"/><use xlink:href="#UYccvK22U08NVBmauNyi_pad-13" x="86250" y="-76750"/><use xlink:href="#UYccvK22U08NVBmauNyi_pad-13" x="87000" y="-75250"/><use xlink:href="#UYccvK22U08NVBmauNyi_pad-13" x="86250" y="-75250"/><use xlink:href="#UYccvK22U08NVBmauNyi_pad-13" x="87000" y="-76750"/><use xlink:href="#UYccvK22U08NVBmauNyi_pad-20" x="50784.999" y="-128900.001"/><use xlink:href="#UYccvK22U08NVBmauNyi_pad-20" x="62214.999" y="-128900.001"/><use xlink:href="#UYccvK22U08NVBmauNyi_pad-21" x="52054.999" y="-122550.001"/><use xlink:href="#UYccvK22U08NVBmauNyi_pad-22" x="53324.999" y="-120010.001"/><use xlink:href="#UYccvK22U08NVBmauNyi_pad-22" x="54594.999" y="-122550.001"/><use xlink:href="#UYccvK22U08NVBmauNyi_pad-22" x="55864.999" y="-120010.001"/><use xlink:href="#UYccvK22U08NVBmauNyi_pad-22" x="57134.999" y="-122550.001"/><use xlink:href="#UYccvK22U08NVBmauNyi_pad-22" x="58404.999" y="-120010.001"/><use xlink:href="#UYccvK22U08NVBmauNyi_pad-22" x="59674.999" y="-122550.001"/><use xlink:href="#UYccvK22U08NVBmauNyi_pad-22" x="60944.999" y="-120010.001"/><use xlink:href="#UYccvK22U08NVBmauNyi_pad-22" x="50174.999" y="-133980.001"/><use xlink:href="#UYccvK22U08NVBmauNyi_pad-22" x="52714.999" y="-132280.001"/><use xlink:href="#UYccvK22U08NVBmauNyi_pad-22" x="60284.999" y="-133980.001"/><use xlink:href="#UYccvK22U08NVBmauNyi_pad-22" x="62824.999" y="-132280.001"/><use xlink:href="#UYccvK22U08NVBmauNyi_pad-23" x="48624.999" y="-125850.001"/><use xlink:href="#UYccvK22U08NVBmauNyi_pad-23" x="64374.999" y="-125850.001"/><use xlink:href="#UYccvK22U08NVBmauNyi_pad-13" x="76750" y="-65750"/><use xlink:href="#UYccvK22U08NVBmauNyi_pad-13" x="75250" y="-65750"/><use xlink:href="#UYccvK22U08NVBmauNyi_pad-13" x="76750" y="-65000"/><use xlink:href="#UYccvK22U08NVBmauNyi_pad-13" x="76750" y="-64250"/><use xlink:href="#UYccvK22U08NVBmauNyi_pad-13" x="75250" y="-64250"/><use xlink:href="#UYccvK22U08NVBmauNyi_pad-13" x="75250" y="-65000"/><use xlink:href="#UYccvK22U08NVBmauNyi_pad-13" x="64250" y="-76750"/><use xlink:href="#UYccvK22U08NVBmauNyi_pad-13" x="65000" y="-76750"/><use xlink:href="#UYccvK22U08NVBmauNyi_pad-13" x="65750" y="-76750"/><use xlink:href="#UYccvK22U08NVBmauNyi_pad-13" x="65750" y="-75250"/><use xlink:href="#UYccvK22U08NVBmauNyi_pad-13" x="64250" y="-75250"/><use xlink:href="#UYccvK22U08NVBmauNyi_pad-13" x="65000" y="-75250"/><use xlink:href="#UYccvK22U08NVBmauNyi_pad-24" x="48000" y="-30537.5"/><use xlink:href="#UYccvK22U08NVBmauNyi_pad-24" x="48000" y="-28462.5"/><use xlink:href="#UYccvK22U08NVBmauNyi_pad-25" x="35500" y="-54962.5"/><use xlink:href="#UYccvK22U08NVBmauNyi_pad-25" x="35500" y="-57037.5"/><use xlink:href="#UYccvK22U08NVBmauNyi_pad-26" x="104008.985" y="-30505"/><use xlink:href="#UYccvK22U08NVBmauNyi_pad-26" x="104008.985" y="-28505"/><use xlink:href="#UYccvK22U08NVBmauNyi_pad-27" x="87046.486" y="-28505"/><use xlink:href="#UYccvK22U08NVBmauNyi_pad-27" x="84971.486" y="-28505"/><use xlink:href="#UYccvK22U08NVBmauNyi_pad-28" x="117083.985" y="-36100.001"/><use xlink:href="#UYccvK22U08NVBmauNyi_pad-28" x="117083.985" y="-37370.001"/><use xlink:href="#UYccvK22U08NVBmauNyi_pad-28" x="117083.985" y="-38640.001"/><use xlink:href="#UYccvK22U08NVBmauNyi_pad-28" x="117083.985" y="-39910.001"/><use xlink:href="#UYccvK22U08NVBmauNyi_pad-28" x="111933.985" y="-39910.001"/><use xlink:href="#UYccvK22U08NVBmauNyi_pad-28" x="111933.985" y="-38640.001"/><use xlink:href="#UYccvK22U08NVBmauNyi_pad-28" x="111933.985" y="-37370.001"/><use xlink:href="#UYccvK22U08NVBmauNyi_pad-28" x="111933.985" y="-36100.001"/><use xlink:href="#UYccvK22U08NVBmauNyi_pad-26" x="52000" y="-30500"/><use xlink:href="#UYccvK22U08NVBmauNyi_pad-26" x="52000" y="-28500"/><use xlink:href="#UYccvK22U08NVBmauNyi_pad-26" x="56000" y="-30500"/><use xlink:href="#UYccvK22U08NVBmauNyi_pad-26" x="56000" y="-28500"/><use xlink:href="#UYccvK22U08NVBmauNyi_pad-29" x="103258.984" y="-67255"/><use xlink:href="#UYccvK22U08NVBmauNyi_pad-29" x="103258.984" y="-70255"/><use xlink:href="#UYccvK22U08NVBmauNyi_pad-30" x="101783.984" y="-68755"/><use xlink:href="#UYccvK22U08NVBmauNyi_pad-30" x="104733.984" y="-68755"/><use xlink:href="#UYccvK22U08NVBmauNyi_pad-15" x="29000" y="-33500"/><use xlink:href="#UYccvK22U08NVBmauNyi_pad-31" x="57250" y="-68750"/><use xlink:href="#UYccvK22U08NVBmauNyi_pad-32" x="54999.999" y="-110171.251"/><use xlink:href="#UYccvK22U08NVBmauNyi_pad-32" x="56999.999" y="-110171.251"/><use xlink:href="#UYccvK22U08NVBmauNyi_pad-15" x="84000" y="-80500"/><use xlink:href="#UYccvK22U08NVBmauNyi_pad-25" x="111258.984" y="-61505"/><use xlink:href="#UYccvK22U08NVBmauNyi_pad-25" x="111258.984" y="-63580"/><use xlink:href="#UYccvK22U08NVBmauNyi_pad-27" x="66537.5" y="-28500"/><use xlink:href="#UYccvK22U08NVBmauNyi_pad-27" x="64462.5" y="-28500"/><use xlink:href="#UYccvK22U08NVBmauNyi_pad-33" x="100546.486" y="-36230"/><use xlink:href="#UYccvK22U08NVBmauNyi_pad-34" x="100008.986" y="-36305"/><use xlink:href="#UYccvK22U08NVBmauNyi_pad-33" x="99471.486" y="-36230"/><use xlink:href="#UYccvK22U08NVBmauNyi_pad-33" x="99471.486" y="-33780"/><use xlink:href="#UYccvK22U08NVBmauNyi_pad-34" x="100008.986" y="-33705"/><use xlink:href="#UYccvK22U08NVBmauNyi_pad-33" x="100546.486" y="-33780"/><use xlink:href="#UYccvK22U08NVBmauNyi_pad-24" x="100008.986" y="-30542.5"/><use xlink:href="#UYccvK22U08NVBmauNyi_pad-24" x="100008.986" y="-28467.5"/><use xlink:href="#UYccvK22U08NVBmauNyi_pad-35" x="28345" y="-42380"/><use xlink:href="#UYccvK22U08NVBmauNyi_pad-35" x="31655" y="-44920"/><use xlink:href="#UYccvK22U08NVBmauNyi_pad-35" x="28345" y="-47460"/><use xlink:href="#UYccvK22U08NVBmauNyi_pad-35" x="31655" y="-50000"/><use xlink:href="#UYccvK22U08NVBmauNyi_pad-35" x="28345" y="-52540"/><use xlink:href="#UYccvK22U08NVBmauNyi_pad-35" x="31655" y="-55080"/><use xlink:href="#UYccvK22U08NVBmauNyi_pad-35" x="28345" y="-57620"/><use xlink:href="#UYccvK22U08NVBmauNyi_pad-25" x="57249.999" y="-124712.501"/><use xlink:href="#UYccvK22U08NVBmauNyi_pad-25" x="57249.999" y="-126787.501"/><use xlink:href="#UYccvK22U08NVBmauNyi_pad-36" x="69250" y="-61500"/><use xlink:href="#UYccvK22U08NVBmauNyi_pad-36" x="67250" y="-61500"/><use xlink:href="#UYccvK22U08NVBmauNyi_pad-26" x="56000" y="-36000"/><use xlink:href="#UYccvK22U08NVBmauNyi_pad-26" x="56000" y="-34000"/><use xlink:href="#UYccvK22U08NVBmauNyi_pad-32" x="121508.985" y="-28505.001"/><use xlink:href="#UYccvK22U08NVBmauNyi_pad-32" x="123508.985" y="-28505.001"/><use xlink:href="#UYccvK22U08NVBmauNyi_pad-37" x="36499.999" y="-133750.001"/><use xlink:href="#UYccvK22U08NVBmauNyi_pad-38" x="34499.999" y="-133750.001"/><use xlink:href="#UYccvK22U08NVBmauNyi_pad-27" x="82046.486" y="-28505"/><use xlink:href="#UYccvK22U08NVBmauNyi_pad-27" x="79971.486" y="-28505"/><use xlink:href="#UYccvK22U08NVBmauNyi_pad-25" x="59250" y="-61500"/><use xlink:href="#UYccvK22U08NVBmauNyi_pad-25" x="59250" y="-63575"/><use xlink:href="#UYccvK22U08NVBmauNyi_pad-29" x="96758.985" y="-67255"/><use xlink:href="#UYccvK22U08NVBmauNyi_pad-30" x="95283.985" y="-68755"/><use xlink:href="#UYccvK22U08NVBmauNyi_pad-30" x="98233.985" y="-68755"/><use xlink:href="#UYccvK22U08NVBmauNyi_pad-29" x="96758.985" y="-70255"/><use xlink:href="#UYccvK22U08NVBmauNyi_pad-39" x="67212.5" y="-65500"/><use xlink:href="#UYccvK22U08NVBmauNyi_pad-39" x="69287.5" y="-65500"/><use xlink:href="#UYccvK22U08NVBmauNyi_pad-39" x="69462.5" y="-36500"/><use xlink:href="#UYccvK22U08NVBmauNyi_pad-39" x="71537.5" y="-36500"/><use xlink:href="#UYccvK22U08NVBmauNyi_pad-15" x="81008.985" y="-36505"/><use xlink:href="#UYccvK22U08NVBmauNyi_pad-39" x="121471.485" y="-32505.001"/><use xlink:href="#UYccvK22U08NVBmauNyi_pad-39" x="123546.485" y="-32505.001"/><use xlink:href="#UYccvK22U08NVBmauNyi_pad-11" x="92400" y="-128000"/><use xlink:href="#UYccvK22U08NVBmauNyi_pad-12" x="94940" y="-128000"/><use xlink:href="#UYccvK22U08NVBmauNyi_pad-12" x="97480" y="-128000"/><use xlink:href="#UYccvK22U08NVBmauNyi_pad-12" x="100020" y="-128000"/><use xlink:href="#UYccvK22U08NVBmauNyi_pad-12" x="102560" y="-128000"/><use xlink:href="#UYccvK22U08NVBmauNyi_pad-12" x="105100" y="-128000"/><use xlink:href="#UYccvK22U08NVBmauNyi_pad-12" x="107640" y="-128000"/><use xlink:href="#UYccvK22U08NVBmauNyi_pad-24" x="54999.999" y="-106958.751"/><use xlink:href="#UYccvK22U08NVBmauNyi_pad-24" x="54999.999" y="-104883.751"/><use xlink:href="#UYccvK22U08NVBmauNyi_pad-39" x="54737.499" y="-95696.251"/><use xlink:href="#UYccvK22U08NVBmauNyi_pad-39" x="56812.499" y="-95696.251"/><use xlink:href="#UYccvK22U08NVBmauNyi_pad-27" x="118546.485" y="-28505.001"/><use xlink:href="#UYccvK22U08NVBmauNyi_pad-27" x="116471.485" y="-28505.001"/><use xlink:href="#UYccvK22U08NVBmauNyi_pad-40" x="87008.986" y="-35505"/><use xlink:href="#UYccvK22U08NVBmauNyi_pad-40" x="87008.986" y="-37505"/><use xlink:href="#UYccvK22U08NVBmauNyi_pad-41" x="82362.5" y="-97700"/><use xlink:href="#UYccvK22U08NVBmauNyi_pad-41" x="82362.5" y="-96750"/><use xlink:href="#UYccvK22U08NVBmauNyi_pad-41" x="82362.5" y="-95800"/><use xlink:href="#UYccvK22U08NVBmauNyi_pad-41" x="85062.5" y="-95800"/><use xlink:href="#UYccvK22U08NVBmauNyi_pad-41" x="85062.5" y="-97700"/><use xlink:href="#UYccvK22U08NVBmauNyi_pad-36" x="116258.984" y="-61505"/><use xlink:href="#UYccvK22U08NVBmauNyi_pad-36" x="114258.984" y="-61505"/><use xlink:href="#UYccvK22U08NVBmauNyi_pad-42" x="59799.999" y="-98896.251"/><use xlink:href="#UYccvK22U08NVBmauNyi_pad-42" x="60749.999" y="-98896.251"/><use xlink:href="#UYccvK22U08NVBmauNyi_pad-42" x="61699.999" y="-98896.251"/><use xlink:href="#UYccvK22U08NVBmauNyi_pad-42" x="61699.999" y="-102316.251"/><use xlink:href="#UYccvK22U08NVBmauNyi_pad-42" x="60749.999" y="-102316.251"/><use xlink:href="#UYccvK22U08NVBmauNyi_pad-42" x="59799.999" y="-102316.251"/><use xlink:href="#UYccvK22U08NVBmauNyi_pad-11" x="51275" y="-113050"/><use xlink:href="#UYccvK22U08NVBmauNyi_pad-12" x="51275" y="-110510"/><use xlink:href="#UYccvK22U08NVBmauNyi_pad-12" x="51275" y="-107970"/><use xlink:href="#UYccvK22U08NVBmauNyi_pad-12" x="51275" y="-105430"/><use xlink:href="#UYccvK22U08NVBmauNyi_pad-26" x="30249.999" y="-93500.001"/><use xlink:href="#UYccvK22U08NVBmauNyi_pad-26" x="30249.999" y="-91500.001"/><use xlink:href="#UYccvK22U08NVBmauNyi_pad-27" x="30037.5" y="-28500"/><use xlink:href="#UYccvK22U08NVBmauNyi_pad-27" x="27962.5" y="-28500"/><use xlink:href="#UYccvK22U08NVBmauNyi_pad-35" x="63345" y="-44882.5"/><use xlink:href="#UYccvK22U08NVBmauNyi_pad-35" x="66655" y="-47422.5"/><use xlink:href="#UYccvK22U08NVBmauNyi_pad-35" x="63345" y="-49962.5"/><use xlink:href="#UYccvK22U08NVBmauNyi_pad-35" x="66655" y="-52502.5"/><use xlink:href="#UYccvK22U08NVBmauNyi_pad-35" x="63345" y="-55042.5"/><use xlink:href="#UYccvK22U08NVBmauNyi_pad-15" x="29000" y="-36500"/><use xlink:href="#UYccvK22U08NVBmauNyi_pad-36" x="40000" y="-28500"/><use xlink:href="#UYccvK22U08NVBmauNyi_pad-36" x="38000" y="-28500"/><use xlink:href="#UYccvK22U08NVBmauNyi_pad-36" x="66500" y="-32500"/><use xlink:href="#UYccvK22U08NVBmauNyi_pad-36" x="64500" y="-32500"/><use xlink:href="#UYccvK22U08NVBmauNyi_pad-15" x="74000" y="-80500"/><use xlink:href="#UYccvK22U08NVBmauNyi_pad-39" x="69462.5" y="-32500"/><use xlink:href="#UYccvK22U08NVBmauNyi_pad-39" x="71537.5" y="-32500"/><use xlink:href="#UYccvK22U08NVBmauNyi_pad-32" x="59774.999" y="-95696.251"/><use xlink:href="#UYccvK22U08NVBmauNyi_pad-32" x="61774.999" y="-95696.251"/><use xlink:href="#UYccvK22U08NVBmauNyi_pad-15" x="81008.986" y="-33505"/><use xlink:href="#UYccvK22U08NVBmauNyi_pad-27" x="97046.486" y="-28505"/><use xlink:href="#UYccvK22U08NVBmauNyi_pad-27" x="94971.486" y="-28505"/><use xlink:href="#UYccvK22U08NVBmauNyi_pad-29" x="31750" y="-67250"/><use xlink:href="#UYccvK22U08NVBmauNyi_pad-30" x="33225" y="-68750"/><use xlink:href="#UYccvK22U08NVBmauNyi_pad-30" x="30275" y="-68750"/><use xlink:href="#UYccvK22U08NVBmauNyi_pad-29" x="31750" y="-70250"/><use xlink:href="#UYccvK22U08NVBmauNyi_pad-29" x="51250" y="-67250"/><use xlink:href="#UYccvK22U08NVBmauNyi_pad-30" x="52725" y="-68750"/><use xlink:href="#UYccvK22U08NVBmauNyi_pad-30" x="49775" y="-68750"/><use xlink:href="#UYccvK22U08NVBmauNyi_pad-29" x="51250" y="-70250"/><use xlink:href="#UYccvK22U08NVBmauNyi_pad-26" x="52000" y="-36000"/><use xlink:href="#UYccvK22U08NVBmauNyi_pad-26" x="52000" y="-34000"/><use xlink:href="#UYccvK22U08NVBmauNyi_pad-29" x="90258.985" y="-67255"/><use xlink:href="#UYccvK22U08NVBmauNyi_pad-29" x="90258.985" y="-70255"/><use xlink:href="#UYccvK22U08NVBmauNyi_pad-30" x="88783.985" y="-68755"/><use xlink:href="#UYccvK22U08NVBmauNyi_pad-30" x="91733.985" y="-68755"/><use xlink:href="#UYccvK22U08NVBmauNyi_pad-29" x="83758.985" y="-67254.999"/><use xlink:href="#UYccvK22U08NVBmauNyi_pad-30" x="85233.985" y="-68754.999"/><use xlink:href="#UYccvK22U08NVBmauNyi_pad-29" x="83758.985" y="-70254.999"/><use xlink:href="#UYccvK22U08NVBmauNyi_pad-30" x="82283.985" y="-68754.999"/><use xlink:href="#UYccvK22U08NVBmauNyi_pad-32" x="68000" y="-40000"/><use xlink:href="#UYccvK22U08NVBmauNyi_pad-32" x="70000" y="-40000"/><use xlink:href="#UYccvK22U08NVBmauNyi_pad-25" x="87508.985" y="-54967.499"/><use xlink:href="#UYccvK22U08NVBmauNyi_pad-25" x="87508.985" y="-57042.499"/><use xlink:href="#UYccvK22U08NVBmauNyi_pad-36" x="92008.986" y="-28505"/><use xlink:href="#UYccvK22U08NVBmauNyi_pad-36" x="90008.986" y="-28505"/><use xlink:href="#UYccvK22U08NVBmauNyi_pad-35" x="80845" y="-42380"/><use xlink:href="#UYccvK22U08NVBmauNyi_pad-35" x="84155" y="-44920"/><use xlink:href="#UYccvK22U08NVBmauNyi_pad-35" x="80845" y="-47460"/><use xlink:href="#UYccvK22U08NVBmauNyi_pad-35" x="84155" y="-50000"/><use xlink:href="#UYccvK22U08NVBmauNyi_pad-35" x="80845" y="-52540"/><use xlink:href="#UYccvK22U08NVBmauNyi_pad-35" x="84155" y="-55080"/><use xlink:href="#UYccvK22U08NVBmauNyi_pad-35" x="80845" y="-57620"/><use xlink:href="#UYccvK22U08NVBmauNyi_pad-39" x="59462.499" y="-110171.251"/><use xlink:href="#UYccvK22U08NVBmauNyi_pad-39" x="61537.499" y="-110171.251"/><use xlink:href="#UYccvK22U08NVBmauNyi_pad-15" x="79000" y="-80500"/><use xlink:href="#UYccvK22U08NVBmauNyi_pad-43" x="61487.499" y="-105921.251"/><use xlink:href="#UYccvK22U08NVBmauNyi_pad-43" x="58512.499" y="-105921.251"/><use xlink:href="#UYccvK22U08NVBmauNyi_pad-27" x="45037.5" y="-28500"/><use xlink:href="#UYccvK22U08NVBmauNyi_pad-27" x="42962.5" y="-28500"/><use xlink:href="#UYccvK22U08NVBmauNyi_pad-26" x="112008.985" y="-32255"/><use xlink:href="#UYccvK22U08NVBmauNyi_pad-26" x="112008.985" y="-30255"/><use xlink:href="#UYccvK22U08NVBmauNyi_pad-31" x="109258.984" y="-68755"/><use xlink:href="#UYccvK22U08NVBmauNyi_pad-28" x="96083.986" y="-31100"/><use xlink:href="#UYccvK22U08NVBmauNyi_pad-28" x="96083.986" y="-32370"/><use xlink:href="#UYccvK22U08NVBmauNyi_pad-28" x="96083.986" y="-33640"/><use xlink:href="#UYccvK22U08NVBmauNyi_pad-28" x="96083.986" y="-34910"/><use xlink:href="#UYccvK22U08NVBmauNyi_pad-28" x="90933.986" y="-34910"/><use xlink:href="#UYccvK22U08NVBmauNyi_pad-28" x="90933.986" y="-33640"/><use xlink:href="#UYccvK22U08NVBmauNyi_pad-28" x="90933.986" y="-32370"/><use xlink:href="#UYccvK22U08NVBmauNyi_pad-28" x="90933.986" y="-31100"/><use xlink:href="#UYccvK22U08NVBmauNyi_pad-15" x="94000" y="-80500"/><use xlink:href="#UYccvK22U08NVBmauNyi_pad-36" x="64250" y="-61500"/><use xlink:href="#UYccvK22U08NVBmauNyi_pad-36" x="62250" y="-61500"/><use xlink:href="#UYccvK22U08NVBmauNyi_pad-24" x="65514.999" y="-106833.751"/><use xlink:href="#UYccvK22U08NVBmauNyi_pad-24" x="65514.999" y="-104758.751"/><use xlink:href="#UYccvK22U08NVBmauNyi_pad-26" x="30249.999" y="-111250.001"/><use xlink:href="#UYccvK22U08NVBmauNyi_pad-26" x="30249.999" y="-109250.001"/><use xlink:href="#UYccvK22U08NVBmauNyi_pad-25" x="90008.985" y="-49967.499"/><use xlink:href="#UYccvK22U08NVBmauNyi_pad-25" x="90008.985" y="-52042.499"/><use xlink:href="#UYccvK22U08NVBmauNyi_pad-36" x="121258.985" y="-61505"/><use xlink:href="#UYccvK22U08NVBmauNyi_pad-36" x="119258.985" y="-61505"/><use xlink:href="#UYccvK22U08NVBmauNyi_pad-39" x="121471.485" y="-36505.001"/><use xlink:href="#UYccvK22U08NVBmauNyi_pad-39" x="123546.485" y="-36505.001"/><use xlink:href="#UYccvK22U08NVBmauNyi_pad-27" x="35037.5" y="-28500"/><use xlink:href="#UYccvK22U08NVBmauNyi_pad-27" x="32962.5" y="-28500"/><use xlink:href="#UYccvK22U08NVBmauNyi_pad-40" x="35000" y="-35500"/><use xlink:href="#UYccvK22U08NVBmauNyi_pad-40" x="35000" y="-37500"/><use xlink:href="#UYccvK22U08NVBmauNyi_pad-26" x="104008.985" y="-36005"/><use xlink:href="#UYccvK22U08NVBmauNyi_pad-26" x="104008.985" y="-34005"/><use xlink:href="#UYccvK22U08NVBmauNyi_pad-39" x="119221.484" y="-65505"/><use xlink:href="#UYccvK22U08NVBmauNyi_pad-39" x="121296.484" y="-65505"/><use xlink:href="#UYccvK22U08NVBmauNyi_pad-28" x="65075" y="-36095"/><use xlink:href="#UYccvK22U08NVBmauNyi_pad-28" x="65075" y="-37365"/><use xlink:href="#UYccvK22U08NVBmauNyi_pad-28" x="65075" y="-38635"/><use xlink:href="#UYccvK22U08NVBmauNyi_pad-28" x="65075" y="-39905"/><use xlink:href="#UYccvK22U08NVBmauNyi_pad-28" x="59925" y="-39905"/><use xlink:href="#UYccvK22U08NVBmauNyi_pad-28" x="59925" y="-38635"/><use xlink:href="#UYccvK22U08NVBmauNyi_pad-28" x="59925" y="-37365"/><use xlink:href="#UYccvK22U08NVBmauNyi_pad-28" x="59925" y="-36095"/><use xlink:href="#UYccvK22U08NVBmauNyi_pad-36" x="87008.986" y="-32505"/><use xlink:href="#UYccvK22U08NVBmauNyi_pad-36" x="85008.986" y="-32505"/><use xlink:href="#UYccvK22U08NVBmauNyi_pad-27" x="84750" y="-101000"/><use xlink:href="#UYccvK22U08NVBmauNyi_pad-27" x="82675" y="-101000"/><use xlink:href="#UYccvK22U08NVBmauNyi_pad-27" x="116296.484" y="-65505"/><use xlink:href="#UYccvK22U08NVBmauNyi_pad-27" x="114221.484" y="-65505"/><use xlink:href="#UYccvK22U08NVBmauNyi_pad-24" x="65414.999" y="-92896.251"/><use xlink:href="#UYccvK22U08NVBmauNyi_pad-24" x="65414.999" y="-90821.251"/><use xlink:href="#UYccvK22U08NVBmauNyi_pad-44" x="31287.499" y="-103612.501"/><use xlink:href="#UYccvK22U08NVBmauNyi_pad-45" x="30749.999" y="-103662.501"/><use xlink:href="#UYccvK22U08NVBmauNyi_pad-44" x="30212.499" y="-103612.501"/><use xlink:href="#UYccvK22U08NVBmauNyi_pad-46" x="30212.499" y="-101400.001"/><use xlink:href="#UYccvK22U08NVBmauNyi_pad-45" x="30749.999" y="-101337.501"/><use xlink:href="#UYccvK22U08NVBmauNyi_pad-46" x="31287.499" y="-101400.001"/><use xlink:href="#UYccvK22U08NVBmauNyi_pad-25" x="65414.999" y="-95821.251"/><use xlink:href="#UYccvK22U08NVBmauNyi_pad-25" x="65414.999" y="-97896.251"/><use xlink:href="#UYccvK22U08NVBmauNyi_pad-24" x="78962.5" y="-97787.5"/><use xlink:href="#UYccvK22U08NVBmauNyi_pad-24" x="78962.5" y="-95712.5"/><use xlink:href="#UYccvK22U08NVBmauNyi_pad-36" x="35000" y="-32500"/><use xlink:href="#UYccvK22U08NVBmauNyi_pad-36" x="33000" y="-32500"/><use xlink:href="#UYccvK22U08NVBmauNyi_pad-28" x="44075" y="-31095"/><use xlink:href="#UYccvK22U08NVBmauNyi_pad-28" x="44075" y="-32365"/><use xlink:href="#UYccvK22U08NVBmauNyi_pad-28" x="44075" y="-33635"/><use xlink:href="#UYccvK22U08NVBmauNyi_pad-28" x="44075" y="-34905"/><use xlink:href="#UYccvK22U08NVBmauNyi_pad-28" x="38925" y="-34905"/><use xlink:href="#UYccvK22U08NVBmauNyi_pad-28" x="38925" y="-33635"/><use xlink:href="#UYccvK22U08NVBmauNyi_pad-28" x="38925" y="-32365"/><use xlink:href="#UYccvK22U08NVBmauNyi_pad-28" x="38925" y="-31095"/><use xlink:href="#UYccvK22U08NVBmauNyi_pad-15" x="89000" y="-80500"/><use xlink:href="#UYccvK22U08NVBmauNyi_pad-29" x="44750" y="-67250"/><use xlink:href="#UYccvK22U08NVBmauNyi_pad-29" x="44750" y="-70250"/><use xlink:href="#UYccvK22U08NVBmauNyi_pad-30" x="43275" y="-68750"/><use xlink:href="#UYccvK22U08NVBmauNyi_pad-30" x="46225" y="-68750"/><use xlink:href="#UYccvK22U08NVBmauNyi_pad-36" x="56774.999" y="-92196.251"/><use xlink:href="#UYccvK22U08NVBmauNyi_pad-36" x="54774.999" y="-92196.251"/><use xlink:href="#UYccvK22U08NVBmauNyi_pad-29" x="38250" y="-67250"/><use xlink:href="#UYccvK22U08NVBmauNyi_pad-30" x="36775" y="-68750"/><use xlink:href="#UYccvK22U08NVBmauNyi_pad-29" x="38250" y="-70250"/><use xlink:href="#UYccvK22U08NVBmauNyi_pad-30" x="39725" y="-68750"/><use xlink:href="#UYccvK22U08NVBmauNyi_pad-26" x="108008.985" y="-30505"/><use xlink:href="#UYccvK22U08NVBmauNyi_pad-26" x="108008.985" y="-28505"/><use xlink:href="#UYccvK22U08NVBmauNyi_pad-47" x="55749.999" y="-98996.251"/><use xlink:href="#UYccvK22U08NVBmauNyi_pad-47" x="55749.999" y="-102296.251"/><use xlink:href="#UYccvK22U08NVBmauNyi_pad-32" x="120008.985" y="-40005.001"/><use xlink:href="#UYccvK22U08NVBmauNyi_pad-32" x="122008.985" y="-40005.001"/><use xlink:href="#UYccvK22U08NVBmauNyi_pad-36" x="118508.985" y="-32505.001"/><use xlink:href="#UYccvK22U08NVBmauNyi_pad-36" x="116508.985" y="-32505.001"/><use xlink:href="#UYccvK22U08NVBmauNyi_pad-36" x="77750" y="-131250"/><use xlink:href="#UYccvK22U08NVBmauNyi_pad-36" x="75750" y="-131250"/><use xlink:href="#UYccvK22U08NVBmauNyi_pad-44" x="48537.5" y="-36112.5"/><use xlink:href="#UYccvK22U08NVBmauNyi_pad-45" x="48000" y="-36162.5"/><use xlink:href="#UYccvK22U08NVBmauNyi_pad-44" x="47462.5" y="-36112.5"/><use xlink:href="#UYccvK22U08NVBmauNyi_pad-46" x="47462.5" y="-33900"/><use xlink:href="#UYccvK22U08NVBmauNyi_pad-45" x="48000" y="-33837.5"/><use xlink:href="#UYccvK22U08NVBmauNyi_pad-46" x="48537.5" y="-33900"/><use xlink:href="#UYccvK22U08NVBmauNyi_pad-11" x="94950" y="-93025"/><use xlink:href="#UYccvK22U08NVBmauNyi_pad-12" x="97490" y="-93025"/><use xlink:href="#UYccvK22U08NVBmauNyi_pad-12" x="100030" y="-93025"/><use xlink:href="#UYccvK22U08NVBmauNyi_pad-12" x="102570" y="-93025"/><use xlink:href="#UYccvK22U08NVBmauNyi_pad-12" x="105110" y="-93025"/><use xlink:href="#UYccvK22U08NVBmauNyi_pad-27" x="64287.5" y="-65500"/><use xlink:href="#UYccvK22U08NVBmauNyi_pad-27" x="62212.5" y="-65500"/><use xlink:href="#UYccvK22U08NVBmauNyi_pad-35" x="115845" y="-44920"/><use xlink:href="#UYccvK22U08NVBmauNyi_pad-35" x="119155" y="-47460"/><use xlink:href="#UYccvK22U08NVBmauNyi_pad-35" x="115845" y="-50000"/><use xlink:href="#UYccvK22U08NVBmauNyi_pad-35" x="119155" y="-52540"/><use xlink:href="#UYccvK22U08NVBmauNyi_pad-35" x="115845" y="-55080"/><use xlink:href="#UYccvK22U08NVBmauNyi_pad-25" x="38000" y="-49962.5"/><use xlink:href="#UYccvK22U08NVBmauNyi_pad-25" x="38000" y="-52037.5"/><use xlink:href="#UYccvK22U08NVBmauNyi_pad-11" x="51300" y="-100000"/><use xlink:href="#UYccvK22U08NVBmauNyi_pad-12" x="51300" y="-97460"/><use xlink:href="#UYccvK22U08NVBmauNyi_pad-12" x="51300" y="-94920"/><use xlink:href="#UYccvK22U08NVBmauNyi_pad-12" x="51300" y="-92380"/><use xlink:href="#UYccvK22U08NVBmauNyi_pad-12" x="51300" y="-89840"/><use xlink:href="#UYccvK22U08NVBmauNyi_pad-31" x="99000" y="-80500"/><use xlink:href="#UYccvK22U08NVBmauNyi_pad-26" x="108008.985" y="-36005"/><use xlink:href="#UYccvK22U08NVBmauNyi_pad-26" x="108008.985" y="-34005"/><use xlink:href="#UYccvK22U08NVBmauNyi_pad-32" x="59774.999" y="-92196.251"/><use xlink:href="#UYccvK22U08NVBmauNyi_pad-32" x="61774.999" y="-92196.251"/><use xlink:href="#UYccvK22U08NVBmauNyi_pad-26" x="60000" y="-32250"/><use xlink:href="#UYccvK22U08NVBmauNyi_pad-26" x="60000" y="-30250"/><use xlink:href="#UYccvK22U08NVBmauNyi_pad-32" x="69500" y="-28500"/><use xlink:href="#UYccvK22U08NVBmauNyi_pad-32" x="71500" y="-28500"/></g></svg>