<svg version="1.1" xmlns="http://www.w3.org/2000/svg" xmlns:xlink="http://www.w3.org/1999/xlink" stroke-linecap="round" stroke-linejoin="round" stroke-width="0" fill-rule="evenodd" width="97.043985mm" height="104.175mm" viewBox="27090 -131950 97043.985 104175" id="c7CWULVBP44AvaNAm4oq"><defs><g id="c7CWULVBP44AvaNAm4oq_pad-10"><polygon points="475,-337.5 475,337.5 -475,337.5 -475,-337.5"/><circle cx="475" cy="-337.5" r="250"/><circle cx="475" cy="337.5" r="250"/><circle cx="-475" cy="337.5" r="250"/><circle cx="-475" cy="-337.5" r="250"/><polygon points="725,-337.5 725,337.5 225,337.5 225,-337.5"/><polygon points="475,87.5 -475,87.5 -475,587.5 475,587.5"/><polygon points="-225,337.5 -225,-337.5 -725,-337.5 -725,337.5"/><polygon points="-475,-587.5 475,-587.5 475,-87.5 -475,-87.5"/></g><g id="c7CWULVBP44AvaNAm4oq_pad-11"><polygon points="-475,337.5 -475,-337.5 475,-337.5 475,337.5"/><circle cx="-475" cy="337.5" r="250"/><circle cx="-475" cy="-337.5" r="250"/><circle cx="475" cy="-337.5" r="250"/><circle cx="475" cy="337.5" r="250"/><polygon points="-225,337.5 -225,-337.5 -725,-337.5 -725,337.5"/><polygon points="-475,-587.5 475,-587.5 475,-87.5 -475,-87.5"/><polygon points="725,-337.5 725,337.5 225,337.5 225,-337.5"/><polygon points="475,87.5 -475,87.5 -475,587.5 475,587.5"/></g><g id="c7CWULVBP44AvaNAm4oq_pad-12"><polygon points="450,-350 450,350 -450,350 -450,-350"/><circle cx="450" cy="-350" r="250"/><circle cx="450" cy="350" r="250"/><circle cx="-450" cy="350" r="250"/><circle cx="-450" cy="-350" r="250"/><polygon points="700,-350 700,350 200,350 200,-350"/><polygon points="450,100 -450,100 -450,600 450,600"/><polygon points="-200,350 -200,-350 -700,-350 -700,350"/><polygon points="-450,-600 450,-600 450,-100 -450,-100"/></g><g id="c7CWULVBP44AvaNAm4oq_pad-13"><polygon points="337.5,475 -337.5,475 -337.5,-475 337.5,-475"/><circle cx="337.5" cy="475" r="250"/><circle cx="-337.5" cy="475" r="250"/><circle cx="-337.5" cy="-475" r="250"/><circle cx="337.5" cy="-475" r="250"/><polygon points="337.5,225 -337.5,225 -337.5,725 337.5,725"/><polygon points="-87.5,475 -87.5,-475 -587.5,-475 -587.5,475"/><polygon points="-337.5,-725 337.5,-725 337.5,-225 -337.5,-225"/><polygon points="587.5,-475 587.5,475 87.5,475 87.5,-475"/></g><g id="c7CWULVBP44AvaNAm4oq_pad-14"><polygon points="725,150 -725,150 -725,-150 725,-150"/><circle cx="725" cy="150" r="150"/><circle cx="-725" cy="150" r="150"/><circle cx="-725" cy="-150" r="150"/><circle cx="725" cy="-150" r="150"/><polygon points="725,0 -725,0 -725,300 725,300"/><polygon points="-575,150 -575,-150 -875,-150 -875,150"/><polygon points="-725,-300 725,-300 725,0 -725,0"/><polygon points="875,-150 875,150 575,150 575,-150"/></g><rect x="-500" y="-500" width="1000" height="1000" id="c7CWULVBP44AvaNAm4oq_pad-15"/><rect x="-525" y="-1100" width="1050" height="2200" id="c7CWULVBP44AvaNAm4oq_pad-16"/><g id="c7CWULVBP44AvaNAm4oq_pad-17"><polygon points="-350,-450 350,-450 350,450 -350,450"/><circle cx="-350" cy="-450" r="250"/><circle cx="350" cy="-450" r="250"/><circle cx="350" cy="450" r="250"/><circle cx="-350" cy="450" r="250"/><polygon points="-350,-700 350,-700 350,-200 -350,-200"/><polygon points="600,-450 600,450 100,450 100,-450"/><polygon points="350,200 -350,200 -350,700 350,700"/><polygon points="-100,450 -100,-450 -600,-450 -600,450"/></g><rect x="-187.5" y="-625" width="375" height="1250" id="c7CWULVBP44AvaNAm4oq_pad-18"/><rect x="-150" y="-700" width="300" height="1400" id="c7CWULVBP44AvaNAm4oq_pad-19"/><rect x="-1255" y="-500" width="2510" height="1000" id="c7CWULVBP44AvaNAm4oq_pad-20"/><g id="c7CWULVBP44AvaNAm4oq_pad-21"><polygon points="350,450 -350,450 -350,-450 350,-450"/><circle cx="350" cy="450" r="250"/><circle cx="-350" cy="450" r="250"/><circle cx="-350" cy="-450" r="250"/><circle cx="350" cy="-450" r="250"/><polygon points="350,200 -350,200 -350,700 350,700"/><polygon points="-100,450 -100,-450 -600,-450 -600,450"/><polygon points="-350,-700 350,-700 350,-200 -350,-200"/><polygon points="600,-450 600,450 100,450 100,-450"/></g><g id="c7CWULVBP44AvaNAm4oq_pad-22"><polygon points="-337.5,-475 337.5,-475 337.5,475 -337.5,475"/><circle cx="-337.5" cy="-475" r="250"/><circle cx="337.5" cy="-475" r="250"/><circle cx="337.5" cy="475" r="250"/><circle cx="-337.5" cy="475" r="250"/><polygon points="-337.5,-725 337.5,-725 337.5,-225 -337.5,-225"/><polygon points="587.5,-475 587.5,475 87.5,475 87.5,-475"/><polygon points="337.5,225 -337.5,225 -337.5,725 337.5,725"/><polygon points="-87.5,475 -87.5,-475 -587.5,-475 -587.5,475"/></g><g id="c7CWULVBP44AvaNAm4oq_pad-23"><polygon points="-450,350 -450,-350 450,-350 450,350"/><circle cx="-450" cy="350" r="250"/><circle cx="-450" cy="-350" r="250"/><circle cx="450" cy="-350" r="250"/><circle cx="450" cy="350" r="250"/><polygon points="-200,350 -200,-350 -700,-350 -700,350"/><polygon points="-450,-600 450,-600 450,-100 -450,-100"/><polygon points="700,-350 700,350 200,350 200,-350"/><polygon points="450,100 -450,100 -450,600 450,600"/></g><rect x="-780" y="-325" width="1560" height="650" id="c7CWULVBP44AvaNAm4oq_pad-24"/><rect x="-325" y="-1000" width="650" height="2000" id="c7CWULVBP44AvaNAm4oq_pad-25"/><g id="c7CWULVBP44AvaNAm4oq_pad-26"><polygon points="462.499,1074.999 -462.499,1074.999 -462.499,-1074.999 462.499,-1074.999"/><circle cx="462.499" cy="1074.999" r="250.001"/><circle cx="-462.499" cy="1074.999" r="250.001"/><circle cx="-462.499" cy="-1074.999" r="250.001"/><circle cx="462.499" cy="-1074.999" r="250.001"/><polygon points="462.499,824.998 -462.499,824.998 -462.499,1325 462.499,1325"/><polygon points="-212.498,1074.999 -212.498,-1074.999 -712.5,-1074.999 -712.5,1074.999"/><polygon points="-462.499,-1325 462.499,-1325 462.499,-824.998 -462.499,-824.998"/><polygon points="712.5,-1074.999 712.5,1074.999 212.498,1074.999 212.498,-1074.999"/></g><rect x="-187.5" y="-512.5" width="375" height="1025" id="c7CWULVBP44AvaNAm4oq_pad-27"/><rect x="-150" y="-562.5" width="300" height="1125" id="c7CWULVBP44AvaNAm4oq_pad-28"/><rect x="-187.5" y="-500" width="375" height="1000" id="c7CWULVBP44AvaNAm4oq_pad-29"/><rect x="-600" y="-450" width="1200" height="900" id="c7CWULVBP44AvaNAm4oq_pad-30"/></defs><g transform="translate(0,-159725) scale(1,-1)" fill="currentColor" stroke="currentColor"><use xlink:href="#c7CWULVBP44AvaNAm4oq_pad-10" x="48000" y="-30537.5"/><use xlink:href="#c7CWULVBP44AvaNAm4oq_pad-10" x="48000" y="-28462.5"/><use xlink:href="#c7CWULVBP44AvaNAm4oq_pad-11" x="35500" y="-54962.5"/><use xlink:href="#c7CWULVBP44AvaNAm4oq_pad-11" x="35500" y="-57037.5"/><use xlink:href="#c7CWULVBP44AvaNAm4oq_pad-12" x="104008.985" y="-30505"/><use xlink:href="#c7CWULVBP44AvaNAm4oq_pad-12" x="104008.985" y="-28505"/><use xlink:href="#c7CWULVBP44AvaNAm4oq_pad-13" x="87046.486" y="-28505"/><use xlink:href="#c7CWULVBP44AvaNAm4oq_pad-13" x="84971.486" y="-28505"/><use xlink:href="#c7CWULVBP44AvaNAm4oq_pad-14" x="117083.985" y="-36100.001"/><use xlink:href="#c7CWULVBP44AvaNAm4oq_pad-14" x="117083.985" y="-37370.001"/><use xlink:href="#c7CWULVBP44AvaNAm4oq_pad-14" x="117083.985" y="-38640.001"/><use xlink:href="#c7CWULVBP44AvaNAm4oq_pad-14" x="117083.985" y="-39910.001"/><use xlink:href="#c7CWULVBP44AvaNAm4oq_pad-14" x="111933.985" y="-39910.001"/><use xlink:href="#c7CWULVBP44AvaNAm4oq_pad-14" x="111933.985" y="-38640.001"/><use xlink:href="#c7CWULVBP44AvaNAm4oq_pad-14" x="111933.985" y="-37370.001"/><use xlink:href="#c7CWULVBP44AvaNAm4oq_pad-14" x="111933.985" y="-36100.001"/><use xlink:href="#c7CWULVBP44AvaNAm4oq_pad-12" x="52000" y="-30500"/><use xlink:href="#c7CWULVBP44AvaNAm4oq_pad-12" x="52000" y="-28500"/><use xlink:href="#c7CWULVBP44AvaNAm4oq_pad-12" x="56000" y="-30500"/><use xlink:href="#c7CWULVBP44AvaNAm4oq_pad-12" x="56000" y="-28500"/><use xlink:href="#c7CWULVBP44AvaNAm4oq_pad-15" x="103258.984" y="-67255"/><use xlink:href="#c7CWULVBP44AvaNAm4oq_pad-15" x="103258.984" y="-70255"/><use xlink:href="#c7CWULVBP44AvaNAm4oq_pad-16" x="101783.984" y="-68755"/><use xlink:href="#c7CWULVBP44AvaNAm4oq_pad-16" x="104733.984" y="-68755"/><use xlink:href="#c7CWULVBP44AvaNAm4oq_pad-17" x="54999.999" y="-110171.251"/><use xlink:href="#c7CWULVBP44AvaNAm4oq_pad-17" x="56999.999" y="-110171.251"/><use xlink:href="#c7CWULVBP44AvaNAm4oq_pad-11" x="111258.984" y="-61505"/><use xlink:href="#c7CWULVBP44AvaNAm4oq_pad-11" x="111258.984" y="-63580"/><use xlink:href="#c7CWULVBP44AvaNAm4oq_pad-13" x="66537.5" y="-28500"/><use xlink:href="#c7CWULVBP44AvaNAm4oq_pad-13" x="64462.5" y="-28500"/><use xlink:href="#c7CWULVBP44AvaNAm4oq_pad-18" x="100546.486" y="-36230"/><use xlink:href="#c7CWULVBP44AvaNAm4oq_pad-19" x="100008.986" y="-36305"/><use xlink:href="#c7CWULVBP44AvaNAm4oq_pad-18" x="99471.486" y="-36230"/><use xlink:href="#c7CWULVBP44AvaNAm4oq_pad-18" x="99471.486" y="-33780"/><use xlink:href="#c7CWULVBP44AvaNAm4oq_pad-19" x="100008.986" y="-33705"/><use xlink:href="#c7CWULVBP44AvaNAm4oq_pad-18" x="100546.486" y="-33780"/><use xlink:href="#c7CWULVBP44AvaNAm4oq_pad-10" x="100008.986" y="-30542.5"/><use xlink:href="#c7CWULVBP44AvaNAm4oq_pad-10" x="100008.986" y="-28467.5"/><use xlink:href="#c7CWULVBP44AvaNAm4oq_pad-20" x="28345" y="-42380"/><use xlink:href="#c7CWULVBP44AvaNAm4oq_pad-20" x="31655" y="-44920"/><use xlink:href="#c7CWULVBP44AvaNAm4oq_pad-20" x="28345" y="-47460"/><use xlink:href="#c7CWULVBP44AvaNAm4oq_pad-20" x="31655" y="-50000"/><use xlink:href="#c7CWULVBP44AvaNAm4oq_pad-20" x="28345" y="-52540"/><use xlink:href="#c7CWULVBP44AvaNAm4oq_pad-20" x="31655" y="-55080"/><use xlink:href="#c7CWULVBP44AvaNAm4oq_pad-20" x="28345" y="-57620"/><use xlink:href="#c7CWULVBP44AvaNAm4oq_pad-11" x="57249.999" y="-124712.501"/><use xlink:href="#c7CWULVBP44AvaNAm4oq_pad-11" x="57249.999" y="-126787.501"/><use xlink:href="#c7CWULVBP44AvaNAm4oq_pad-21" x="69250" y="-61500"/><use xlink:href="#c7CWULVBP44AvaNAm4oq_pad-21" x="67250" y="-61500"/><use xlink:href="#c7CWULVBP44AvaNAm4oq_pad-12" x="56000" y="-36000"/><use xlink:href="#c7CWULVBP44AvaNAm4oq_pad-12" x="56000" y="-34000"/><use xlink:href="#c7CWULVBP44AvaNAm4oq_pad-17" x="121508.985" y="-28505.001"/><use xlink:href="#c7CWULVBP44AvaNAm4oq_pad-17" x="123508.985" y="-28505.001"/><use xlink:href="#c7CWULVBP44AvaNAm4oq_pad-13" x="82046.486" y="-28505"/><use xlink:href="#c7CWULVBP44AvaNAm4oq_pad-13" x="79971.486" y="-28505"/><use xlink:href="#c7CWULVBP44AvaNAm4oq_pad-11" x="59250" y="-61500"/><use xlink:href="#c7CWULVBP44AvaNAm4oq_pad-11" x="59250" y="-63575"/><use xlink:href="#c7CWULVBP44AvaNAm4oq_pad-15" x="96758.985" y="-67255"/><use xlink:href="#c7CWULVBP44AvaNAm4oq_pad-16" x="95283.985" y="-68755"/><use xlink:href="#c7CWULVBP44AvaNAm4oq_pad-16" x="98233.985" y="-68755"/><use xlink:href="#c7CWULVBP44AvaNAm4oq_pad-15" x="96758.985" y="-70255"/><use xlink:href="#c7CWULVBP44AvaNAm4oq_pad-22" x="67212.5" y="-65500"/><use xlink:href="#c7CWULVBP44AvaNAm4oq_pad-22" x="69287.5" y="-65500"/><use xlink:href="#c7CWULVBP44AvaNAm4oq_pad-22" x="69462.5" y="-36500"/><use xlink:href="#c7CWULVBP44AvaNAm4oq_pad-22" x="71537.5" y="-36500"/><use xlink:href="#c7CWULVBP44AvaNAm4oq_pad-22" x="121471.485" y="-32505.001"/><use xlink:href="#c7CWULVBP44AvaNAm4oq_pad-22" x="123546.485" y="-32505.001"/><use xlink:href="#c7CWULVBP44AvaNAm4oq_pad-10" x="54999.999" y="-106958.751"/><use xlink:href="#c7CWULVBP44AvaNAm4oq_pad-10" x="54999.999" y="-104883.751"/><use xlink:href="#c7CWULVBP44AvaNAm4oq_pad-22" x="54737.499" y="-95696.251"/><use xlink:href="#c7CWULVBP44AvaNAm4oq_pad-22" x="56812.499" y="-95696.251"/><use xlink:href="#c7CWULVBP44AvaNAm4oq_pad-13" x="118546.485" y="-28505.001"/><use xlink:href="#c7CWULVBP44AvaNAm4oq_pad-13" x="116471.485" y="-28505.001"/><use xlink:href="#c7CWULVBP44AvaNAm4oq_pad-23" x="87008.986" y="-35505"/><use xlink:href="#c7CWULVBP44AvaNAm4oq_pad-23" x="87008.986" y="-37505"/><use xlink:href="#c7CWULVBP44AvaNAm4oq_pad-24" x="82362.5" y="-97700"/><use xlink:href="#c7CWULVBP44AvaNAm4oq_pad-24" x="82362.5" y="-96750"/><use xlink:href="#c7CWULVBP44AvaNAm4oq_pad-24" x="82362.5" y="-95800"/><use xlink:href="#c7CWULVBP44AvaNAm4oq_pad-24" x="85062.5" y="-95800"/><use xlink:href="#c7CWULVBP44AvaNAm4oq_pad-24" x="85062.5" y="-97700"/><use xlink:href="#c7CWULVBP44AvaNAm4oq_pad-21" x="116258.984" y="-61505"/><use xlink:href="#c7CWULVBP44AvaNAm4oq_pad-21" x="114258.984" y="-61505"/><use xlink:href="#c7CWULVBP44AvaNAm4oq_pad-25" x="59799.999" y="-98896.251"/><use xlink:href="#c7CWULVBP44AvaNAm4oq_pad-25" x="60749.999" y="-98896.251"/><use xlink:href="#c7CWULVBP44AvaNAm4oq_pad-25" x="61699.999" y="-98896.251"/><use xlink:href="#c7CWULVBP44AvaNAm4oq_pad-25" x="61699.999" y="-102316.251"/><use xlink:href="#c7CWULVBP44AvaNAm4oq_pad-25" x="60749.999" y="-102316.251"/><use xlink:href="#c7CWULVBP44AvaNAm4oq_pad-25" x="59799.999" y="-102316.251"/><use xlink:href="#c7CWULVBP44AvaNAm4oq_pad-12" x="30249.999" y="-93500.001"/><use xlink:href="#c7CWULVBP44AvaNAm4oq_pad-12" x="30249.999" y="-91500.001"/><use xlink:href="#c7CWULVBP44AvaNAm4oq_pad-13" x="30037.5" y="-28500"/><use xlink:href="#c7CWULVBP44AvaNAm4oq_pad-13" x="27962.5" y="-28500"/><use xlink:href="#c7CWULVBP44AvaNAm4oq_pad-20" x="63345" y="-44882.5"/><use xlink:href="#c7CWULVBP44AvaNAm4oq_pad-20" x="66655" y="-47422.5"/><use xlink:href="#c7CWULVBP44AvaNAm4oq_pad-20" x="63345" y="-49962.5"/><use xlink:href="#c7CWULVBP44AvaNAm4oq_pad-20" x="66655" y="-52502.5"/><use xlink:href="#c7CWULVBP44AvaNAm4oq_pad-20" x="63345" y="-55042.5"/><use xlink:href="#c7CWULVBP44AvaNAm4oq_pad-21" x="40000" y="-28500"/><use xlink:href="#c7CWULVBP44AvaNAm4oq_pad-21" x="38000" y="-28500"/><use xlink:href="#c7CWULVBP44AvaNAm4oq_pad-21" x="66500" y="-32500"/><use xlink:href="#c7CWULVBP44AvaNAm4oq_pad-21" x="64500" y="-32500"/><use xlink:href="#c7CWULVBP44AvaNAm4oq_pad-22" x="69462.5" y="-32500"/><use xlink:href="#c7CWULVBP44AvaNAm4oq_pad-22" x="71537.5" y="-32500"/><use xlink:href="#c7CWULVBP44AvaNAm4oq_pad-17" x="59774.999" y="-95696.251"/><use xlink:href="#c7CWULVBP44AvaNAm4oq_pad-17" x="61774.999" y="-95696.251"/><use xlink:href="#c7CWULVBP44AvaNAm4oq_pad-13" x="97046.486" y="-28505"/><use xlink:href="#c7CWULVBP44AvaNAm4oq_pad-13" x="94971.486" y="-28505"/><use xlink:href="#c7CWULVBP44AvaNAm4oq_pad-15" x="31750" y="-67250"/><use xlink:href="#c7CWULVBP44AvaNAm4oq_pad-16" x="33225" y="-68750"/><use xlink:href="#c7CWULVBP44AvaNAm4oq_pad-16" x="30275" y="-68750"/><use xlink:href="#c7CWULVBP44AvaNAm4oq_pad-15" x="31750" y="-70250"/><use xlink:href="#c7CWULVBP44AvaNAm4oq_pad-15" x="51250" y="-67250"/><use xlink:href="#c7CWULVBP44AvaNAm4oq_pad-16" x="52725" y="-68750"/><use xlink:href="#c7CWULVBP44AvaNAm4oq_pad-16" x="49775" y="-68750"/><use xlink:href="#c7CWULVBP44AvaNAm4oq_pad-15" x="51250" y="-70250"/><use xlink:href="#c7CWULVBP44AvaNAm4oq_pad-12" x="52000" y="-36000"/><use xlink:href="#c7CWULVBP44AvaNAm4oq_pad-12" x="52000" y="-34000"/><use xlink:href="#c7CWULVBP44AvaNAm4oq_pad-15" x="90258.985" y="-67255"/><use xlink:href="#c7CWULVBP44AvaNAm4oq_pad-15" x="90258.985" y="-70255"/><use xlink:href="#c7CWULVBP44AvaNAm4oq_pad-16" x="88783.985" y="-68755"/><use xlink:href="#c7CWULVBP44AvaNAm4oq_pad-16" x="91733.985" y="-68755"/><use xlink:href="#c7CWULVBP44AvaNAm4oq_pad-15" x="83758.985" y="-67254.999"/><use xlink:href="#c7CWULVBP44AvaNAm4oq_pad-16" x="85233.985" y="-68754.999"/><use xlink:href="#c7CWULVBP44AvaNAm4oq_pad-15" x="83758.985" y="-70254.999"/><use xlink:href="#c7CWULVBP44AvaNAm4oq_pad-16" x="82283.985" y="-68754.999"/><use xlink:href="#c7CWULVBP44AvaNAm4oq_pad-17" x="68000" y="-40000"/><use xlink:href="#c7CWULVBP44AvaNAm4oq_pad-17" x="70000" y="-40000"/><use xlink:href="#c7CWULVBP44AvaNAm4oq_pad-11" x="87508.985" y="-54967.499"/><use xlink:href="#c7CWULVBP44AvaNAm4oq_pad-11" x="87508.985" y="-57042.499"/><use xlink:href="#c7CWULVBP44AvaNAm4oq_pad-21" x="92008.986" y="-28505"/><use xlink:href="#c7CWULVBP44AvaNAm4oq_pad-21" x="90008.986" y="-28505"/><use xlink:href="#c7CWULVBP44AvaNAm4oq_pad-20" x="80845" y="-42380"/><use xlink:href="#c7CWULVBP44AvaNAm4oq_pad-20" x="84155" y="-44920"/><use xlink:href="#c7CWULVBP44AvaNAm4oq_pad-20" x="80845" y="-47460"/><use xlink:href="#c7CWULVBP44AvaNAm4oq_pad-20" x="84155" y="-50000"/><use xlink:href="#c7CWULVBP44AvaNAm4oq_pad-20" x="80845" y="-52540"/><use xlink:href="#c7CWULVBP44AvaNAm4oq_pad-20" x="84155" y="-55080"/><use xlink:href="#c7CWULVBP44AvaNAm4oq_pad-20" x="80845" y="-57620"/><use xlink:href="#c7CWULVBP44AvaNAm4oq_pad-22" x="59462.499" y="-110171.251"/><use xlink:href="#c7CWULVBP44AvaNAm4oq_pad-22" x="61537.499" y="-110171.251"/><use xlink:href="#c7CWULVBP44AvaNAm4oq_pad-26" x="61487.499" y="-105921.251"/><use xlink:href="#c7CWULVBP44AvaNAm4oq_pad-26" x="58512.499" y="-105921.251"/><use xlink:href="#c7CWULVBP44AvaNAm4oq_pad-13" x="45037.5" y="-28500"/><use xlink:href="#c7CWULVBP44AvaNAm4oq_pad-13" x="42962.5" y="-28500"/><use xlink:href="#c7CWULVBP44AvaNAm4oq_pad-12" x="112008.985" y="-32255"/><use xlink:href="#c7CWULVBP44AvaNAm4oq_pad-12" x="112008.985" y="-30255"/><use xlink:href="#c7CWULVBP44AvaNAm4oq_pad-14" x="96083.986" y="-31100"/><use xlink:href="#c7CWULVBP44AvaNAm4oq_pad-14" x="96083.986" y="-32370"/><use xlink:href="#c7CWULVBP44AvaNAm4oq_pad-14" x="96083.986" y="-33640"/><use xlink:href="#c7CWULVBP44AvaNAm4oq_pad-14" x="96083.986" y="-34910"/><use xlink:href="#c7CWULVBP44AvaNAm4oq_pad-14" x="90933.986" y="-34910"/><use xlink:href="#c7CWULVBP44AvaNAm4oq_pad-14" x="90933.986" y="-33640"/><use xlink:href="#c7CWULVBP44AvaNAm4oq_pad-14" x="90933.986" y="-32370"/><use xlink:href="#c7CWULVBP44AvaNAm4oq_pad-14" x="90933.986" y="-31100"/><use xlink:href="#c7CWULVBP44AvaNAm4oq_pad-21" x="64250" y="-61500"/><use xlink:href="#c7CWULVBP44AvaNAm4oq_pad-21" x="62250" y="-61500"/><use xlink:href="#c7CWULVBP44AvaNAm4oq_pad-10" x="65514.999" y="-106833.751"/><use xlink:href="#c7CWULVBP44AvaNAm4oq_pad-10" x="65514.999" y="-104758.751"/><use xlink:href="#c7CWULVBP44AvaNAm4oq_pad-12" x="30249.999" y="-111250.001"/><use xlink:href="#c7CWULVBP44AvaNAm4oq_pad-12" x="30249.999" y="-109250.001"/><use xlink:href="#c7CWULVBP44AvaNAm4oq_pad-11" x="90008.985" y="-49967.499"/><use xlink:href="#c7CWULVBP44AvaNAm4oq_pad-11" x="90008.985" y="-52042.499"/><use xlink:href="#c7CWULVBP44AvaNAm4oq_pad-21" x="121258.985" y="-61505"/><use xlink:href="#c7CWULVBP44AvaNAm4oq_pad-21" x="119258.985" y="-61505"/><use xlink:href="#c7CWULVBP44AvaNAm4oq_pad-22" x="121471.485" y="-36505.001"/><use xlink:href="#c7CWULVBP44AvaNAm4oq_pad-22" x="123546.485" y="-36505.001"/><use xlink:href="#c7CWULVBP44AvaNAm4oq_pad-13" x="35037.5" y="-28500"/><use xlink:href="#c7CWULVBP44AvaNAm4oq_pad-13" x="32962.5" y="-28500"/><use xlink:href="#c7CWULVBP44AvaNAm4oq_pad-23" x="35000" y="-35500"/><use xlink:href="#c7CWULVBP44AvaNAm4oq_pad-23" x="35000" y="-37500"/><use xlink:href="#c7CWULVBP44AvaNAm4oq_pad-12" x="104008.985" y="-36005"/><use xlink:href="#c7CWULVBP44AvaNAm4oq_pad-12" x="104008.985" y="-34005"/><use xlink:href="#c7CWULVBP44AvaNAm4oq_pad-22" x="119221.484" y="-65505"/><use xlink:href="#c7CWULVBP44AvaNAm4oq_pad-22" x="121296.484" y="-65505"/><use xlink:href="#c7CWULVBP44AvaNAm4oq_pad-14" x="65075" y="-36095"/><use xlink:href="#c7CWULVBP44AvaNAm4oq_pad-14" x="65075" y="-37365"/><use xlink:href="#c7CWULVBP44AvaNAm4oq_pad-14" x="65075" y="-38635"/><use xlink:href="#c7CWULVBP44AvaNAm4oq_pad-14" x="65075" y="-39905"/><use xlink:href="#c7CWULVBP44AvaNAm4oq_pad-14" x="59925" y="-39905"/><use xlink:href="#c7CWULVBP44AvaNAm4oq_pad-14" x="59925" y="-38635"/><use xlink:href="#c7CWULVBP44AvaNAm4oq_pad-14" x="59925" y="-37365"/><use xlink:href="#c7CWULVBP44AvaNAm4oq_pad-14" x="59925" y="-36095"/><use xlink:href="#c7CWULVBP44AvaNAm4oq_pad-21" x="87008.986" y="-32505"/><use xlink:href="#c7CWULVBP44AvaNAm4oq_pad-21" x="85008.986" y="-32505"/><use xlink:href="#c7CWULVBP44AvaNAm4oq_pad-13" x="84750" y="-101000"/><use xlink:href="#c7CWULVBP44AvaNAm4oq_pad-13" x="82675" y="-101000"/><use xlink:href="#c7CWULVBP44AvaNAm4oq_pad-13" x="116296.484" y="-65505"/><use xlink:href="#c7CWULVBP44AvaNAm4oq_pad-13" x="114221.484" y="-65505"/><use xlink:href="#c7CWULVBP44AvaNAm4oq_pad-10" x="65414.999" y="-92896.251"/><use xlink:href="#c7CWULVBP44AvaNAm4oq_pad-10" x="65414.999" y="-90821.251"/><use xlink:href="#c7CWULVBP44AvaNAm4oq_pad-27" x="31287.499" y="-103612.501"/><use xlink:href="#c7CWULVBP44AvaNAm4oq_pad-28" x="30749.999" y="-103662.501"/><use xlink:href="#c7CWULVBP44AvaNAm4oq_pad-27" x="30212.499" y="-103612.501"/><use xlink:href="#c7CWULVBP44AvaNAm4oq_pad-29" x="30212.499" y="-101400.001"/><use xlink:href="#c7CWULVBP44AvaNAm4oq_pad-28" x="30749.999" y="-101337.501"/><use xlink:href="#c7CWULVBP44AvaNAm4oq_pad-29" x="31287.499" y="-101400.001"/><use xlink:href="#c7CWULVBP44AvaNAm4oq_pad-11" x="65414.999" y="-95821.251"/><use xlink:href="#c7CWULVBP44AvaNAm4oq_pad-11" x="65414.999" y="-97896.251"/><use xlink:href="#c7CWULVBP44AvaNAm4oq_pad-10" x="78962.5" y="-97787.5"/><use xlink:href="#c7CWULVBP44AvaNAm4oq_pad-10" x="78962.5" y="-95712.5"/><use xlink:href="#c7CWULVBP44AvaNAm4oq_pad-21" x="35000" y="-32500"/><use xlink:href="#c7CWULVBP44AvaNAm4oq_pad-21" x="33000" y="-32500"/><use xlink:href="#c7CWULVBP44AvaNAm4oq_pad-14" x="44075" y="-31095"/><use xlink:href="#c7CWULVBP44AvaNAm4oq_pad-14" x="44075" y="-32365"/><use xlink:href="#c7CWULVBP44AvaNAm4oq_pad-14" x="44075" y="-33635"/><use xlink:href="#c7CWULVBP44AvaNAm4oq_pad-14" x="44075" y="-34905"/><use xlink:href="#c7CWULVBP44AvaNAm4oq_pad-14" x="38925" y="-34905"/><use xlink:href="#c7CWULVBP44AvaNAm4oq_pad-14" x="38925" y="-33635"/><use xlink:href="#c7CWULVBP44AvaNAm4oq_pad-14" x="38925" y="-32365"/><use xlink:href="#c7CWULVBP44AvaNAm4oq_pad-14" x="38925" y="-31095"/><use xlink:href="#c7CWULVBP44AvaNAm4oq_pad-15" x="44750" y="-67250"/><use xlink:href="#c7CWULVBP44AvaNAm4oq_pad-15" x="44750" y="-70250"/><use xlink:href="#c7CWULVBP44AvaNAm4oq_pad-16" x="43275" y="-68750"/><use xlink:href="#c7CWULVBP44AvaNAm4oq_pad-16" x="46225" y="-68750"/><use xlink:href="#c7CWULVBP44AvaNAm4oq_pad-21" x="56774.999" y="-92196.251"/><use xlink:href="#c7CWULVBP44AvaNAm4oq_pad-21" x="54774.999" y="-92196.251"/><use xlink:href="#c7CWULVBP44AvaNAm4oq_pad-15" x="38250" y="-67250"/><use xlink:href="#c7CWULVBP44AvaNAm4oq_pad-16" x="36775" y="-68750"/><use xlink:href="#c7CWULVBP44AvaNAm4oq_pad-15" x="38250" y="-70250"/><use xlink:href="#c7CWULVBP44AvaNAm4oq_pad-16" x="39725" y="-68750"/><use xlink:href="#c7CWULVBP44AvaNAm4oq_pad-12" x="108008.985" y="-30505"/><use xlink:href="#c7CWULVBP44AvaNAm4oq_pad-12" x="108008.985" y="-28505"/><use xlink:href="#c7CWULVBP44AvaNAm4oq_pad-30" x="55749.999" y="-98996.251"/><use xlink:href="#c7CWULVBP44AvaNAm4oq_pad-30" x="55749.999" y="-102296.251"/><use xlink:href="#c7CWULVBP44AvaNAm4oq_pad-17" x="120008.985" y="-40005.001"/><use xlink:href="#c7CWULVBP44AvaNAm4oq_pad-17" x="122008.985" y="-40005.001"/><use xlink:href="#c7CWULVBP44AvaNAm4oq_pad-21" x="118508.985" y="-32505.001"/><use xlink:href="#c7CWULVBP44AvaNAm4oq_pad-21" x="116508.985" y="-32505.001"/><use xlink:href="#c7CWULVBP44AvaNAm4oq_pad-21" x="77750" y="-131250"/><use xlink:href="#c7CWULVBP44AvaNAm4oq_pad-21" x="75750" y="-131250"/><use xlink:href="#c7CWULVBP44AvaNAm4oq_pad-27" x="48537.5" y="-36112.5"/><use xlink:href="#c7CWULVBP44AvaNAm4oq_pad-28" x="48000" y="-36162.5"/><use xlink:href="#c7CWULVBP44AvaNAm4oq_pad-27" x="47462.5" y="-36112.5"/><use xlink:href="#c7CWULVBP44AvaNAm4oq_pad-29" x="47462.5" y="-33900"/><use xlink:href="#c7CWULVBP44AvaNAm4oq_pad-28" x="48000" y="-33837.5"/><use xlink:href="#c7CWULVBP44AvaNAm4oq_pad-29" x="48537.5" y="-33900"/><use xlink:href="#c7CWULVBP44AvaNAm4oq_pad-13" x="64287.5" y="-65500"/><use xlink:href="#c7CWULVBP44AvaNAm4oq_pad-13" x="62212.5" y="-65500"/><use xlink:href="#c7CWULVBP44AvaNAm4oq_pad-20" x="115845" y="-44920"/><use xlink:href="#c7CWULVBP44AvaNAm4oq_pad-20" x="119155" y="-47460"/><use xlink:href="#c7CWULVBP44AvaNAm4oq_pad-20" x="115845" y="-50000"/><use xlink:href="#c7CWULVBP44AvaNAm4oq_pad-20" x="119155" y="-52540"/><use xlink:href="#c7CWULVBP44AvaNAm4oq_pad-20" x="115845" y="-55080"/><use xlink:href="#c7CWULVBP44AvaNAm4oq_pad-11" x="38000" y="-49962.5"/><use xlink:href="#c7CWULVBP44AvaNAm4oq_pad-11" x="38000" y="-52037.5"/><use xlink:href="#c7CWULVBP44AvaNAm4oq_pad-12" x="108008.985" y="-36005"/><use xlink:href="#c7CWULVBP44AvaNAm4oq_pad-12" x="108008.985" y="-34005"/><use xlink:href="#c7CWULVBP44AvaNAm4oq_pad-17" x="59774.999" y="-92196.251"/><use xlink:href="#c7CWULVBP44AvaNAm4oq_pad-17" x="61774.999" y="-92196.251"/><use xlink:href="#c7CWULVBP44AvaNAm4oq_pad-12" x="60000" y="-32250"/><use xlink:href="#c7CWULVBP44AvaNAm4oq_pad-12" x="60000" y="-30250"/><use xlink:href="#c7CWULVBP44AvaNAm4oq_pad-17" x="69500" y="-28500"/><use xlink:href="#c7CWULVBP44AvaNAm4oq_pad-17" x="71500" y="-28500"/></g></svg>