<svg version="1.1" xmlns="http://www.w3.org/2000/svg" xmlns:xlink="http://www.w3.org/1999/xlink" stroke-linecap="round" stroke-linejoin="round" stroke-width="0" fill-rule="evenodd" width="3.3070999999999997in" height="3.80025in" viewBox="1338.55 -5138.8 3307.1 3800.25" id="cQ-XKss_M7Sapq2iktiE"><defs><circle cx="0" cy="0" r="9.85" id="cQ-XKss_M7Sapq2iktiE_pad-1"/><circle cx="0" cy="0" r="64" id="cQ-XKss_M7Sapq2iktiE_pad-2"/></defs><g transform="translate(0,-6477.35) scale(1,-1)" fill="currentColor" stroke="currentColor"><use xlink:href="#cQ-XKss_M7Sapq2iktiE_pad-1" x="1348.4" y="-2962.6"/><use xlink:href="#cQ-XKss_M7Sapq2iktiE_pad-1" x="1348.4" y="-3021.7"/><use xlink:href="#cQ-XKss_M7Sapq2iktiE_pad-1" x="1378" y="-2962.6"/><use xlink:href="#cQ-XKss_M7Sapq2iktiE_pad-1" x="1378" y="-3021.7"/><use xlink:href="#cQ-XKss_M7Sapq2iktiE_pad-1" x="1407.5" y="-2962.6"/><use xlink:href="#cQ-XKss_M7Sapq2iktiE_pad-1" x="1407.5" y="-3021.7"/><use xlink:href="#cQ-XKss_M7Sapq2iktiE_pad-1" x="2529.5" y="-2962.6"/><use xlink:href="#cQ-XKss_M7Sapq2iktiE_pad-1" x="2529.5" y="-3021.7"/><use xlink:href="#cQ-XKss_M7Sapq2iktiE_pad-1" x="2559.1" y="-2962.6"/><use xlink:href="#cQ-XKss_M7Sapq2iktiE_pad-1" x="2559.1" y="-3021.7"/><use xlink:href="#cQ-XKss_M7Sapq2iktiE_pad-1" x="2588.6" y="-2962.6"/><use xlink:href="#cQ-XKss_M7Sapq2iktiE_pad-1" x="2588.6" y="-3021.7"/><use xlink:href="#cQ-XKss_M7Sapq2iktiE_pad-1" x="2962.6" y="-1348.4"/><use xlink:href="#cQ-XKss_M7Sapq2iktiE_pad-1" x="2962.6" y="-1378"/><use xlink:href="#cQ-XKss_M7Sapq2iktiE_pad-1" x="2962.6" y="-1407.5"/><use xlink:href="#cQ-XKss_M7Sapq2iktiE_pad-1" x="2962.6" y="-2529.5"/><use xlink:href="#cQ-XKss_M7Sapq2iktiE_pad-1" x="2962.6" y="-2559.1"/><use xlink:href="#cQ-XKss_M7Sapq2iktiE_pad-1" x="2962.6" y="-2588.6"/><use xlink:href="#cQ-XKss_M7Sapq2iktiE_pad-1" x="3021.7" y="-1348.4"/><use xlink:href="#cQ-XKss_M7Sapq2iktiE_pad-1" x="3021.7" y="-1378"/><use xlink:href="#cQ-XKss_M7Sapq2iktiE_pad-1" x="3021.7" y="-1407.5"/><use xlink:href="#cQ-XKss_M7Sapq2iktiE_pad-1" x="3021.7" y="-2529.5"/><use xlink:href="#cQ-XKss_M7Sapq2iktiE_pad-1" x="3021.7" y="-2559.1"/><use xlink:href="#cQ-XKss_M7Sapq2iktiE_pad-1" x="3021.7" y="-2588.6"/><use xlink:href="#cQ-XKss_M7Sapq2iktiE_pad-1" x="3395.7" y="-2962.6"/><use xlink:href="#cQ-XKss_M7Sapq2iktiE_pad-1" x="3395.7" y="-3021.7"/><use xlink:href="#cQ-XKss_M7Sapq2iktiE_pad-1" x="3425.2" y="-2962.6"/><use xlink:href="#cQ-XKss_M7Sapq2iktiE_pad-1" x="3425.2" y="-3021.7"/><use xlink:href="#cQ-XKss_M7Sapq2iktiE_pad-1" x="3454.7" y="-2962.6"/><use xlink:href="#cQ-XKss_M7Sapq2iktiE_pad-1" x="3454.7" y="-3021.7"/><use xlink:href="#cQ-XKss_M7Sapq2iktiE_pad-1" x="4576.8" y="-2962.6"/><use xlink:href="#cQ-XKss_M7Sapq2iktiE_pad-1" x="4576.8" y="-3021.7"/><use xlink:href="#cQ-XKss_M7Sapq2iktiE_pad-1" x="4606.3" y="-2962.6"/><use xlink:href="#cQ-XKss_M7Sapq2iktiE_pad-1" x="4606.3" y="-3021.7"/><use xlink:href="#cQ-XKss_M7Sapq2iktiE_pad-1" x="4635.8" y="-2962.6"/><use xlink:href="#cQ-XKss_M7Sapq2iktiE_pad-1" x="4635.8" y="-3021.7"/><use xlink:href="#cQ-XKss_M7Sapq2iktiE_pad-2" x="1999.4" y="-5074.8"/><use xlink:href="#cQ-XKss_M7Sapq2iktiE_pad-2" x="2449.4" y="-5074.8"/></g></svg>