<svg version="1.1" xmlns="http://www.w3.org/2000/svg" xmlns:xlink="http://www.w3.org/1999/xlink" stroke-linecap="round" stroke-linejoin="round" stroke-width="0" fill-rule="evenodd" width="102.000001mm" height="112.500001mm" viewBox="25000 -137500.001 102000.001 112500.001" id="mmLAhFZv7psPDmIpxpNE"><g transform="translate(0,-162500.001) scale(1,-1)" fill="currentColor" stroke="currentColor"><path d="M 26000.002 -76500.002 A 750.001 750.001 0 0 1 26000.001 -74999.999 999.999 999.999 0 0 0 25000.001 -73999.999 L 25000 -26000 A 1000 1000 0 0 0 26000 -25000 L 74000 -25000 A 1000 1000 0 0 0 75000 -26000 L 75000.001 -32999.999 A 1000 1000 0 0 1 77000.001 -32999.999 L 77000 -26000 A 1000 1000 0 0 0 78000 -25000 L 125999.999 -25000.001 A 999.999 999.999 0 0 0 126999.999 -26000.001 L 126999.999 -73999.999 A 999.999 999.999 0 0 0 125999.999 -74999.999 749.999 749.999 0 0 1 126000.001 -76499.999 1000.001 1000.001 0 0 0 127000 -77499.999 L 127000.001 -136499.998 A 1000.001 1000.001 0 0 0 126000.001 -137499.999 L 26000.001 -137499.999 A 999.999 999.999 0 0 0 25000.001 -136499.999 L 25000.002 -77500 A 999.998 999.998 0 0 0 26000.002 -76500.002 M 74000 -75000 A 750.001 750.001 0 0 1 73250 -75749.999 L 78750.001 -75750 A 750 750 0 0 1 78000.001 -74999.999 999.999 999.999 0 0 0 77000.001 -73999.999 L 77000.001 -66999.999 A 1000 1000 0 0 1 75000.001 -66999.999 L 75000 -74000 A 1000 1000 0 0 0 74000 -75000 M 77000.001 -36999.999 77000.001 -62999.999 A 1000 1000 0 0 0 75000.001 -62999.999 L 75000.001 -36999.999 A 1000 1000 0 0 0 77000.001 -36999.999" fill="none" stroke-width="100"/></g></svg>