<svg version="1.1" xmlns="http://www.w3.org/2000/svg" xmlns:xlink="http://www.w3.org/1999/xlink" stroke-linecap="round" stroke-linejoin="round" stroke-width="0" fill-rule="evenodd" width="59.858985000000004mm" height="7.855mm" viewBox="46075 -53930 59858.985 7855" id="D0wM10-b6QHijzI-3KHR"><defs><g id="D0wM10-b6QHijzI-3KHR_pad-11"><polygon points="210,-647.5 210,647.5 -210,647.5 -210,-647.5"/><circle cx="210" cy="-647.5" r="90"/><circle cx="210" cy="647.5" r="90"/><circle cx="-210" cy="647.5" r="90"/><circle cx="-210" cy="-647.5" r="90"/><polygon points="300,-647.5 300,647.5 120,647.5 120,-647.5"/><polygon points="210,557.5 -210,557.5 -210,737.5 210,737.5"/><polygon points="-120,647.5 -120,-647.5 -300,-647.5 -300,647.5"/><polygon points="-210,-737.5 210,-737.5 210,-557.5 -210,-557.5"/></g><g id="D0wM10-b6QHijzI-3KHR_pad-12"><polygon points="647.5,210 -647.5,210 -647.5,-210 647.5,-210"/><circle cx="647.5" cy="210" r="90"/><circle cx="-647.5" cy="210" r="90"/><circle cx="-647.5" cy="-210" r="90"/><circle cx="647.5" cy="-210" r="90"/><polygon points="647.5,120 -647.5,120 -647.5,300 647.5,300"/><polygon points="-557.5,210 -557.5,-210 -737.5,-210 -737.5,210"/><polygon points="-647.5,-300 647.5,-300 647.5,-120 -647.5,-120"/><polygon points="737.5,-210 737.5,210 557.5,210 557.5,-210"/></g><g id="D0wM10-b6QHijzI-3KHR_pad-13"><polygon points="-210,647.5 -210,-647.5 210,-647.5 210,647.5"/><circle cx="-210" cy="647.5" r="90"/><circle cx="-210" cy="-647.5" r="90"/><circle cx="210" cy="-647.5" r="90"/><circle cx="210" cy="647.5" r="90"/><polygon points="-120,647.5 -120,-647.5 -300,-647.5 -300,647.5"/><polygon points="-210,-737.5 210,-737.5 210,-557.5 -210,-557.5"/><polygon points="300,-647.5 300,647.5 120,647.5 120,-647.5"/><polygon points="210,557.5 -210,557.5 -210,737.5 210,737.5"/></g><g id="D0wM10-b6QHijzI-3KHR_pad-14"><polygon points="-647.5,-210 647.5,-210 647.5,210 -647.5,210"/><circle cx="-647.5" cy="-210" r="90"/><circle cx="647.5" cy="-210" r="90"/><circle cx="647.5" cy="210" r="90"/><circle cx="-647.5" cy="210" r="90"/><polygon points="-647.5,-300 647.5,-300 647.5,-120 -647.5,-120"/><polygon points="737.5,-210 737.5,210 557.5,210 557.5,-210"/><polygon points="647.5,120 -647.5,120 -647.5,300 647.5,300"/><polygon points="-557.5,210 -557.5,-210 -737.5,-210 -737.5,210"/></g></defs><g transform="translate(0,-100005) scale(1,-1)" fill="currentColor" stroke="currentColor"><path d="M 103033.985 -51030 100983.985 -51030 100983.985 -48980 103033.985 -48980 103033.985 -51030"/><path d="M 103033.985 -51030 100983.985 -51030 100983.985 -48980 103033.985 -48980 103033.985 -51030" fill="none" stroke-width="10"/><path d="M 103033.985 -48305 100983.985 -48305 100983.985 -47105 103033.985 -47105 103033.985 -48305"/><path d="M 103033.985 -48305 100983.985 -48305 100983.985 -47105 103033.985 -47105 103033.985 -48305" fill="none" stroke-width="10"/><path d="M 100733.985 -50605 98683.985 -50605 98683.985 -49405 100733.985 -49405 100733.985 -50605"/><path d="M 100733.985 -50605 98683.985 -50605 98683.985 -49405 100733.985 -49405 100733.985 -50605" fill="none" stroke-width="10"/><path d="M 105333.985 -50605 103283.985 -50605 103283.985 -49405 105333.985 -49405 105333.985 -50605"/><path d="M 105333.985 -50605 103283.985 -50605 103283.985 -49405 105333.985 -49405 105333.985 -50605" fill="none" stroke-width="10"/><path d="M 103033.985 -52905 100983.985 -52905 100983.985 -51705 103033.985 -51705 103033.985 -52905"/><path d="M 103033.985 -52905 100983.985 -52905 100983.985 -51705 103033.985 -51705 103033.985 -52905" fill="none" stroke-width="10"/><path d="M 51025 -48300 48975 -48300 48975 -47100 51025 -47100 51025 -48300"/><path d="M 51025 -48300 48975 -48300 48975 -47100 51025 -47100 51025 -48300" fill="none" stroke-width="10"/><path d="M 48725 -50600 46675 -50600 46675 -49400 48725 -49400 48725 -50600"/><path d="M 48725 -50600 46675 -50600 46675 -49400 48725 -49400 48725 -50600" fill="none" stroke-width="10"/><path d="M 53325 -50600 51275 -50600 51275 -49400 53325 -49400 53325 -50600"/><path d="M 53325 -50600 51275 -50600 51275 -49400 53325 -49400 53325 -50600" fill="none" stroke-width="10"/><path d="M 51025 -51025 48975 -51025 48975 -48975 51025 -48975 51025 -51025"/><path d="M 51025 -51025 48975 -51025 48975 -48975 51025 -48975 51025 -51025" fill="none" stroke-width="10"/><path d="M 51025 -52900 48975 -52900 48975 -51700 51025 -51700 51025 -52900"/><path d="M 51025 -52900 48975 -52900 48975 -51700 51025 -51700 51025 -52900" fill="none" stroke-width="10"/><use xlink:href="#D0wM10-b6QHijzI-3KHR_pad-11" x="99158.985" y="-53192.5"/><use xlink:href="#D0wM10-b6QHijzI-3KHR_pad-12" x="105196.485" y="-52855"/><use xlink:href="#D0wM10-b6QHijzI-3KHR_pad-13" x="104858.985" y="-46817.5"/><use xlink:href="#D0wM10-b6QHijzI-3KHR_pad-14" x="98821.485" y="-47155"/><use xlink:href="#D0wM10-b6QHijzI-3KHR_pad-11" x="47150" y="-53187.5"/><use xlink:href="#D0wM10-b6QHijzI-3KHR_pad-12" x="53187.5" y="-52850"/><use xlink:href="#D0wM10-b6QHijzI-3KHR_pad-13" x="52850" y="-46812.5"/><use xlink:href="#D0wM10-b6QHijzI-3KHR_pad-14" x="46812.5" y="-47150"/></g></svg>