<svg version="1.1" xmlns="http://www.w3.org/2000/svg" xmlns:xlink="http://www.w3.org/1999/xlink" stroke-linecap="round" stroke-linejoin="round" stroke-width="0" fill-rule="evenodd" width="102.000001mm" height="113mm" viewBox="24999.999 -138000 102000.001 113000" id="jo95kVq-0TNsS6ygUkaz"><g transform="translate(0,-163000) scale(1,-1)" fill="currentColor" stroke="currentColor"><path d="M 126999.999 -26000.001 A 999.999 999.999 0 0 1 125999.998 -25000 L 78000 -25000 A 1000 1000 0 0 1 77000 -26000 L 77000.001 -32999.999 A 1000 1000 0 0 0 75000.001 -32999.999 L 74999.999 -26000.001 A 999.999 999.999 0 0 1 73999.999 -25000.001 L 25999.999 -25000.001 A 1014.5082876 1014.5082876 0 0 1 24999.999 -26000.001 L 25000 -74000 A 1000 1000 0 0 1 26000.001 -74999.999 L 32999.999 -75000 A 1000 1000 0 1 0 32999.999 -77000.002 L 26000.001 -77000.001 A 999.998 999.998 0 0 1 25000.001 -78000.001 L 25000 -137000 A 1000 1000 0 0 1 26000 -138000 L 126000 -138000 A 1000 1000 0 0 1 127000 -136999.999 L 126999.999 -78000 A 1000 1000 0 0 1 126000 -77000 L 119000 -77000 A 1000 1000 0 0 0 119000 -75000 L 125999.999 -74999.999 A 999.999 999.999 0 0 1 126999.999 -73999.999 L 126999.999 -26000.001 M 75000.001 -66999.999 75000 -74000 A 1000 1000 0 0 0 74000 -75000 L 67000 -75000 A 1000 1000 0 0 1 67000 -77000 L 85000 -77000 A 1000 1000 0 0 1 85000 -75000 L 78000.001 -74999.999 A 999.999 999.999 0 0 0 77000.001 -73999.999 L 77000.001 -66999.999 A 1000 1000 0 0 1 75000.001 -66999.999 M 77000.001 -36999.999 77000.001 -62999.999 A 1000 1000 0 0 0 75000 -63000 L 75000 -37000 A 1000 1000 0 0 0 77000.001 -36999.999 M 115000 -77000 A 1000 1000 0 0 1 115000 -75000 L 89000 -75000 A 1000 1000 0 0 1 89000 -77000 L 115000 -77000 M 37000 -75000 63000 -75000 A 1000 1000 0 0 0 63000 -77000 L 37000 -77000 A 1000 1000 0 0 0 37000 -75000" fill="none" stroke-width="100"/></g></svg>