<svg version="1.1" xmlns="http://www.w3.org/2000/svg" xmlns:xlink="http://www.w3.org/1999/xlink" stroke-linecap="round" stroke-linejoin="round" stroke-width="0" fill-rule="evenodd" width="76.024999mm" height="85.374999mm" viewBox="29900.001 -131449.999 76024.999 85374.999" id="tPU5SnDON62TlptfdXlZ"><defs><g id="tPU5SnDON62TlptfdXlZ_pad-11"><polygon points="-475,337.5 -475,-337.5 475,-337.5 475,337.5"/><circle cx="-475" cy="337.5" r="250"/><circle cx="-475" cy="-337.5" r="250"/><circle cx="475" cy="-337.5" r="250"/><circle cx="475" cy="337.5" r="250"/><polygon points="-225,337.5 -225,-337.5 -725,-337.5 -725,337.5"/><polygon points="-475,-587.5 475,-587.5 475,-87.5 -475,-87.5"/><polygon points="725,-337.5 725,337.5 225,337.5 225,-337.5"/><polygon points="475,87.5 -475,87.5 -475,587.5 475,587.5"/></g><g id="tPU5SnDON62TlptfdXlZ_pad-12"><polygon points="-337.5,-475 337.5,-475 337.5,475 -337.5,475"/><circle cx="-337.5" cy="-475" r="250"/><circle cx="337.5" cy="-475" r="250"/><circle cx="337.5" cy="475" r="250"/><circle cx="-337.5" cy="475" r="250"/><polygon points="-337.5,-725 337.5,-725 337.5,-225 -337.5,-225"/><polygon points="587.5,-475 587.5,475 87.5,475 87.5,-475"/><polygon points="337.5,225 -337.5,225 -337.5,725 337.5,725"/><polygon points="-87.5,475 -87.5,-475 -587.5,-475 -587.5,475"/></g><g id="tPU5SnDON62TlptfdXlZ_pad-13"><polygon points="337.5,475 -337.5,475 -337.5,-475 337.5,-475"/><circle cx="337.5" cy="475" r="250"/><circle cx="-337.5" cy="475" r="250"/><circle cx="-337.5" cy="-475" r="250"/><circle cx="337.5" cy="-475" r="250"/><polygon points="337.5,225 -337.5,225 -337.5,725 337.5,725"/><polygon points="-87.5,475 -87.5,-475 -587.5,-475 -587.5,475"/><polygon points="-337.5,-725 337.5,-725 337.5,-225 -337.5,-225"/><polygon points="587.5,-475 587.5,475 87.5,475 87.5,-475"/></g><rect x="-780" y="-325" width="1560" height="650" id="tPU5SnDON62TlptfdXlZ_pad-14"/><rect x="-1000" y="-325" width="2000" height="650" id="tPU5SnDON62TlptfdXlZ_pad-15"/><g id="tPU5SnDON62TlptfdXlZ_pad-16"><polygon points="-350,-450 350,-450 350,450 -350,450"/><circle cx="-350" cy="-450" r="250"/><circle cx="350" cy="-450" r="250"/><circle cx="350" cy="450" r="250"/><circle cx="-350" cy="450" r="250"/><polygon points="-350,-700 350,-700 350,-200 -350,-200"/><polygon points="600,-450 600,450 100,450 100,-450"/><polygon points="350,200 -350,200 -350,700 350,700"/><polygon points="-100,450 -100,-450 -600,-450 -600,450"/></g><g id="tPU5SnDON62TlptfdXlZ_pad-17"><polygon points="210,-647.5 210,647.5 -210,647.5 -210,-647.5"/><circle cx="210" cy="-647.5" r="90"/><circle cx="210" cy="647.5" r="90"/><circle cx="-210" cy="647.5" r="90"/><circle cx="-210" cy="-647.5" r="90"/><polygon points="300,-647.5 300,647.5 120,647.5 120,-647.5"/><polygon points="210,557.5 -210,557.5 -210,737.5 210,737.5"/><polygon points="-120,647.5 -120,-647.5 -300,-647.5 -300,647.5"/><polygon points="-210,-737.5 210,-737.5 210,-557.5 -210,-557.5"/></g><g id="tPU5SnDON62TlptfdXlZ_pad-18"><polygon points="-647.5,-210 647.5,-210 647.5,210 -647.5,210"/><circle cx="-647.5" cy="-210" r="90"/><circle cx="647.5" cy="-210" r="90"/><circle cx="647.5" cy="210" r="90"/><circle cx="-647.5" cy="210" r="90"/><polygon points="-647.5,-300 647.5,-300 647.5,-120 -647.5,-120"/><polygon points="737.5,-210 737.5,210 557.5,210 557.5,-210"/><polygon points="647.5,120 -647.5,120 -647.5,300 647.5,300"/><polygon points="-557.5,210 -557.5,-210 -737.5,-210 -737.5,210"/></g><g id="tPU5SnDON62TlptfdXlZ_pad-19"><polygon points="-210,647.5 -210,-647.5 210,-647.5 210,647.5"/><circle cx="-210" cy="647.5" r="90"/><circle cx="-210" cy="-647.5" r="90"/><circle cx="210" cy="-647.5" r="90"/><circle cx="210" cy="647.5" r="90"/><polygon points="-120,647.5 -120,-647.5 -300,-647.5 -300,647.5"/><polygon points="-210,-737.5 210,-737.5 210,-557.5 -210,-557.5"/><polygon points="300,-647.5 300,647.5 120,647.5 120,-647.5"/><polygon points="210,557.5 -210,557.5 -210,737.5 210,737.5"/></g><g id="tPU5SnDON62TlptfdXlZ_pad-20"><polygon points="647.5,210 -647.5,210 -647.5,-210 647.5,-210"/><circle cx="647.5" cy="210" r="90"/><circle cx="-647.5" cy="210" r="90"/><circle cx="-647.5" cy="-210" r="90"/><circle cx="647.5" cy="-210" r="90"/><polygon points="647.5,120 -647.5,120 -647.5,300 647.5,300"/><polygon points="-557.5,210 -557.5,-210 -737.5,-210 -737.5,210"/><polygon points="-647.5,-300 647.5,-300 647.5,-120 -647.5,-120"/><polygon points="737.5,-210 737.5,210 557.5,210 557.5,-210"/></g><g id="tPU5SnDON62TlptfdXlZ_pad-21"><polygon points="1074.999,-462.499 1074.999,462.499 -1074.999,462.499 -1074.999,-462.499"/><circle cx="1074.999" cy="-462.499" r="250.001"/><circle cx="1074.999" cy="462.499" r="250.001"/><circle cx="-1074.999" cy="462.499" r="250.001"/><circle cx="-1074.999" cy="-462.499" r="250.001"/><polygon points="1325,-462.499 1325,462.499 824.998,462.499 824.998,-462.499"/><polygon points="1074.999,212.498 -1074.999,212.498 -1074.999,712.5 1074.999,712.5"/><polygon points="-824.998,462.499 -824.998,-462.499 -1325,-462.499 -1325,462.499"/><polygon points="-1074.999,-712.5 1074.999,-712.5 1074.999,-212.498 -1074.999,-212.498"/></g><g id="tPU5SnDON62TlptfdXlZ_pad-22"><polygon points="475,-337.5 475,337.5 -475,337.5 -475,-337.5"/><circle cx="475" cy="-337.5" r="250"/><circle cx="475" cy="337.5" r="250"/><circle cx="-475" cy="337.5" r="250"/><circle cx="-475" cy="-337.5" r="250"/><polygon points="725,-337.5 725,337.5 225,337.5 225,-337.5"/><polygon points="475,87.5 -475,87.5 -475,587.5 475,587.5"/><polygon points="-225,337.5 -225,-337.5 -725,-337.5 -725,337.5"/><polygon points="-475,-587.5 475,-587.5 475,-87.5 -475,-87.5"/></g><rect x="-450" y="-600" width="900" height="1200" id="tPU5SnDON62TlptfdXlZ_pad-23"/><g id="tPU5SnDON62TlptfdXlZ_pad-24"><polygon points="350,450 -350,450 -350,-450 350,-450"/><circle cx="350" cy="450" r="250"/><circle cx="-350" cy="450" r="250"/><circle cx="-350" cy="-450" r="250"/><circle cx="350" cy="-450" r="250"/><polygon points="350,200 -350,200 -350,700 350,700"/><polygon points="-100,450 -100,-450 -600,-450 -600,450"/><polygon points="-350,-700 350,-700 350,-200 -350,-200"/><polygon points="600,-450 600,450 100,450 100,-450"/></g></defs><g transform="translate(0,-177524.999) scale(1,-1)" fill="currentColor" stroke="currentColor"><path d="M 105325 -50600 103275 -50600 103275 -49400 105325 -49400 105325 -50600"/><path d="M 105325 -50600 103275 -50600 103275 -49400 105325 -49400 105325 -50600" fill="none" stroke-width="10"/><path d="M 100725 -50600 98675 -50600 98675 -49400 100725 -49400 100725 -50600"/><path d="M 100725 -50600 98675 -50600 98675 -49400 100725 -49400 100725 -50600" fill="none" stroke-width="10"/><path d="M 103025 -48300 100975 -48300 100975 -47100 103025 -47100 103025 -48300"/><path d="M 103025 -48300 100975 -48300 100975 -47100 103025 -47100 103025 -48300" fill="none" stroke-width="10"/><path d="M 103025 -51025 100975 -51025 100975 -48975 103025 -48975 103025 -51025"/><path d="M 103025 -51025 100975 -51025 100975 -48975 103025 -48975 103025 -51025" fill="none" stroke-width="10"/><path d="M 103025 -52900 100975 -52900 100975 -51700 103025 -51700 103025 -52900"/><path d="M 103025 -52900 100975 -52900 100975 -51700 103025 -51700 103025 -52900" fill="none" stroke-width="10"/><path d="M 51025 -48300 48975 -48300 48975 -47100 51025 -47100 51025 -48300"/><path d="M 51025 -48300 48975 -48300 48975 -47100 51025 -47100 51025 -48300" fill="none" stroke-width="10"/><path d="M 53325 -50600 51275 -50600 51275 -49400 53325 -49400 53325 -50600"/><path d="M 53325 -50600 51275 -50600 51275 -49400 53325 -49400 53325 -50600" fill="none" stroke-width="10"/><path d="M 48725 -50600 46675 -50600 46675 -49400 48725 -49400 48725 -50600"/><path d="M 48725 -50600 46675 -50600 46675 -49400 48725 -49400 48725 -50600" fill="none" stroke-width="10"/><path d="M 51025 -51025 48975 -51025 48975 -48975 51025 -48975 51025 -51025"/><path d="M 51025 -51025 48975 -51025 48975 -48975 51025 -48975 51025 -51025" fill="none" stroke-width="10"/><path d="M 51025 -52900 48975 -52900 48975 -51700 51025 -51700 51025 -52900"/><path d="M 51025 -52900 48975 -52900 48975 -51700 51025 -51700 51025 -52900" fill="none" stroke-width="10"/><use xlink:href="#tPU5SnDON62TlptfdXlZ_pad-11" x="57250.001" y="-123462.499"/><use xlink:href="#tPU5SnDON62TlptfdXlZ_pad-11" x="57250.001" y="-125537.499"/><use xlink:href="#tPU5SnDON62TlptfdXlZ_pad-12" x="77737.501" y="-100449.999"/><use xlink:href="#tPU5SnDON62TlptfdXlZ_pad-12" x="79812.501" y="-100449.999"/><use xlink:href="#tPU5SnDON62TlptfdXlZ_pad-13" x="33537.501" y="-79499.999"/><use xlink:href="#tPU5SnDON62TlptfdXlZ_pad-13" x="31462.501" y="-79499.999"/><use xlink:href="#tPU5SnDON62TlptfdXlZ_pad-14" x="82362.501" y="-97199.999"/><use xlink:href="#tPU5SnDON62TlptfdXlZ_pad-14" x="82362.501" y="-96249.999"/><use xlink:href="#tPU5SnDON62TlptfdXlZ_pad-14" x="82362.501" y="-95299.999"/><use xlink:href="#tPU5SnDON62TlptfdXlZ_pad-14" x="85062.501" y="-95299.999"/><use xlink:href="#tPU5SnDON62TlptfdXlZ_pad-14" x="85062.501" y="-97199.999"/><use xlink:href="#tPU5SnDON62TlptfdXlZ_pad-15" x="39750.001" y="-83799.999"/><use xlink:href="#tPU5SnDON62TlptfdXlZ_pad-15" x="39750.001" y="-84749.999"/><use xlink:href="#tPU5SnDON62TlptfdXlZ_pad-15" x="39750.001" y="-85699.999"/><use xlink:href="#tPU5SnDON62TlptfdXlZ_pad-15" x="36330.001" y="-85699.999"/><use xlink:href="#tPU5SnDON62TlptfdXlZ_pad-15" x="36330.001" y="-84749.999"/><use xlink:href="#tPU5SnDON62TlptfdXlZ_pad-15" x="36330.001" y="-83799.999"/><use xlink:href="#tPU5SnDON62TlptfdXlZ_pad-16" x="30500.001" y="-97999.999"/><use xlink:href="#tPU5SnDON62TlptfdXlZ_pad-16" x="32500.001" y="-97999.999"/><use xlink:href="#tPU5SnDON62TlptfdXlZ_pad-17" x="104850" y="-53187.5"/><use xlink:href="#tPU5SnDON62TlptfdXlZ_pad-18" x="98812.5" y="-52850"/><use xlink:href="#tPU5SnDON62TlptfdXlZ_pad-19" x="99150" y="-46812.5"/><use xlink:href="#tPU5SnDON62TlptfdXlZ_pad-20" x="105187.5" y="-47150"/><use xlink:href="#tPU5SnDON62TlptfdXlZ_pad-21" x="32250.001" y="-86737.499"/><use xlink:href="#tPU5SnDON62TlptfdXlZ_pad-21" x="32250.001" y="-83762.499"/><use xlink:href="#tPU5SnDON62TlptfdXlZ_pad-16" x="30750.001" y="-110999.999"/><use xlink:href="#tPU5SnDON62TlptfdXlZ_pad-16" x="32750.001" y="-110999.999"/><use xlink:href="#tPU5SnDON62TlptfdXlZ_pad-17" x="52850" y="-53187.5"/><use xlink:href="#tPU5SnDON62TlptfdXlZ_pad-18" x="46812.5" y="-52850"/><use xlink:href="#tPU5SnDON62TlptfdXlZ_pad-19" x="47150" y="-46812.5"/><use xlink:href="#tPU5SnDON62TlptfdXlZ_pad-20" x="53187.5" y="-47150"/><use xlink:href="#tPU5SnDON62TlptfdXlZ_pad-13" x="84750.001" y="-100499.999"/><use xlink:href="#tPU5SnDON62TlptfdXlZ_pad-13" x="82675.001" y="-100499.999"/><use xlink:href="#tPU5SnDON62TlptfdXlZ_pad-22" x="78962.501" y="-97287.499"/><use xlink:href="#tPU5SnDON62TlptfdXlZ_pad-22" x="78962.501" y="-95212.499"/><use xlink:href="#tPU5SnDON62TlptfdXlZ_pad-23" x="39650.001" y="-79749.999"/><use xlink:href="#tPU5SnDON62TlptfdXlZ_pad-23" x="36350.001" y="-79749.999"/><use xlink:href="#tPU5SnDON62TlptfdXlZ_pad-24" x="77750.001" y="-130749.999"/><use xlink:href="#tPU5SnDON62TlptfdXlZ_pad-24" x="75750.001" y="-130749.999"/></g></svg>