<svg version="1.1" xmlns="http://www.w3.org/2000/svg" xmlns:xlink="http://www.w3.org/1999/xlink" stroke-linecap="round" stroke-linejoin="round" stroke-width="0" fill-rule="evenodd" width="98.443523mm" height="103.344001mm" viewBox="27085.999 -137344.001 98443.523 103344.001" id="E0bMvQxgjyQSK2cHq59_"><defs><rect x="-850" y="-850" width="1700" height="1700" id="E0bMvQxgjyQSK2cHq59__pad-12"/><rect x="-850" y="-850" width="1700" height="1700" rx="850" ry="850" id="E0bMvQxgjyQSK2cHq59__pad-13"/><g id="E0bMvQxgjyQSK2cHq59__pad-14"><polygon points="210,-647.5 210,647.5 -210,647.5 -210,-647.5"/><circle cx="210" cy="-647.5" r="90"/><circle cx="210" cy="647.5" r="90"/><circle cx="-210" cy="647.5" r="90"/><circle cx="-210" cy="-647.5" r="90"/><polygon points="300,-647.5 300,647.5 120,647.5 120,-647.5"/><polygon points="210,557.5 -210,557.5 -210,737.5 210,737.5"/><polygon points="-120,647.5 -120,-647.5 -300,-647.5 -300,647.5"/><polygon points="-210,-737.5 210,-737.5 210,-557.5 -210,-557.5"/></g><g id="E0bMvQxgjyQSK2cHq59__pad-15"><polygon points="647.5,210 -647.5,210 -647.5,-210 647.5,-210"/><circle cx="647.5" cy="210" r="90"/><circle cx="-647.5" cy="210" r="90"/><circle cx="-647.5" cy="-210" r="90"/><circle cx="647.5" cy="-210" r="90"/><polygon points="647.5,120 -647.5,120 -647.5,300 647.5,300"/><polygon points="-557.5,210 -557.5,-210 -737.5,-210 -737.5,210"/><polygon points="-647.5,-300 647.5,-300 647.5,-120 -647.5,-120"/><polygon points="737.5,-210 737.5,210 557.5,210 557.5,-210"/></g><g id="E0bMvQxgjyQSK2cHq59__pad-16"><polygon points="-210,647.5 -210,-647.5 210,-647.5 210,647.5"/><circle cx="-210" cy="647.5" r="90"/><circle cx="-210" cy="-647.5" r="90"/><circle cx="210" cy="-647.5" r="90"/><circle cx="210" cy="647.5" r="90"/><polygon points="-120,647.5 -120,-647.5 -300,-647.5 -300,647.5"/><polygon points="-210,-737.5 210,-737.5 210,-557.5 -210,-557.5"/><polygon points="300,-647.5 300,647.5 120,647.5 120,-647.5"/><polygon points="210,557.5 -210,557.5 -210,737.5 210,737.5"/></g><g id="E0bMvQxgjyQSK2cHq59__pad-17"><polygon points="-647.5,-210 647.5,-210 647.5,210 -647.5,210"/><circle cx="-647.5" cy="-210" r="90"/><circle cx="647.5" cy="-210" r="90"/><circle cx="647.5" cy="210" r="90"/><circle cx="-647.5" cy="210" r="90"/><polygon points="-647.5,-300 647.5,-300 647.5,-120 -647.5,-120"/><polygon points="737.5,-210 737.5,210 557.5,210 557.5,-210"/><polygon points="647.5,120 -647.5,120 -647.5,300 647.5,300"/><polygon points="-557.5,210 -557.5,-210 -737.5,-210 -737.5,210"/></g><circle cx="0" cy="0" r="250" id="E0bMvQxgjyQSK2cHq59__pad-18"/><rect x="-1000" y="-1000" width="2000" height="2000" id="E0bMvQxgjyQSK2cHq59__pad-19"/><circle cx="0" cy="0" r="1000" id="E0bMvQxgjyQSK2cHq59__pad-20"/><circle cx="0" cy="0" r="654" id="E0bMvQxgjyQSK2cHq59__pad-21"/><circle cx="0" cy="0" r="604" id="E0bMvQxgjyQSK2cHq59__pad-22"/><g id="E0bMvQxgjyQSK2cHq59__pad-23"><polygon points="200,450 -200,450 -200,-450 200,-450"/><circle cx="200" cy="450" r="200"/><circle cx="-200" cy="450" r="200"/><circle cx="-200" cy="-450" r="200"/><circle cx="200" cy="-450" r="200"/><polygon points="200,250 -200,250 -200,650 200,650"/><polygon points="0,450 0,-450 -400,-450 -400,450"/><polygon points="-200,-650 200,-650 200,-250 -200,-250"/><polygon points="400,-450 400,450 0,450 0,-450"/></g><rect x="-400" y="-650" width="800" height="1300" rx="400" ry="400" id="E0bMvQxgjyQSK2cHq59__pad-24"/><circle cx="0" cy="0" r="1625" id="E0bMvQxgjyQSK2cHq59__pad-25"/><g id="E0bMvQxgjyQSK2cHq59__pad-26"><polygon points="-499.5,-499.5 499.5,-499.5 499.5,499.5 -499.5,499.5"/><circle cx="-499.5" cy="-499.5" r="250.5"/><circle cx="499.5" cy="-499.5" r="250.5"/><circle cx="499.5" cy="499.5" r="250.5"/><circle cx="-499.5" cy="499.5" r="250.5"/><polygon points="-499.5,-750 499.5,-750 499.5,-249 -499.5,-249"/><polygon points="750,-499.5 750,499.5 249,499.5 249,-499.5"/><polygon points="499.5,249 -499.5,249 -499.5,750 499.5,750"/><polygon points="-249,499.5 -249,-499.5 -750,-499.5 -750,499.5"/></g><circle cx="0" cy="0" r="750" id="E0bMvQxgjyQSK2cHq59__pad-27"/><circle cx="0" cy="0" r="1250" id="E0bMvQxgjyQSK2cHq59__pad-28"/><g id="E0bMvQxgjyQSK2cHq59__pad-29"><polygon points="350,625 -350,625 -350,-625 350,-625"/><circle cx="350" cy="625" r="250"/><circle cx="-350" cy="625" r="250"/><circle cx="-350" cy="-625" r="250"/><circle cx="350" cy="-625" r="250"/><polygon points="350,375 -350,375 -350,875 350,875"/><polygon points="-100,625 -100,-625 -600,-625 -600,625"/><polygon points="-350,-875 350,-875 350,-375 -350,-375"/><polygon points="600,-625 600,625 100,625 100,-625"/></g><rect x="-600" y="-875" width="1200" height="1750" rx="600" ry="600" id="E0bMvQxgjyQSK2cHq59__pad-30"/></defs><g transform="translate(0,-171344.001) scale(1,-1)" fill="currentColor" stroke="currentColor"><path d="M 120191.427 -136702.381 119858.094 -136226.191 M 119619.999 -136702.381 119619.999 -135702.381 120000.951 -135702.381 120096.189 -135750.001 120143.808 -135797.62 120191.427 -135892.858 120191.427 -136035.715 120143.808 -136130.953 120096.189 -136178.572 120000.951 -136226.191 119619.999 -136226.191 M 121000.951 -136654.762 120905.713 -136702.381 120715.237 -136702.381 120619.999 -136654.762 120572.379 -136559.524 120572.379 -136178.572 120619.999 -136083.334 120715.237 -136035.715 120905.713 -136035.715 121000.951 -136083.334 121048.57 -136178.572 121048.57 -136273.81 120572.379 -136369.048 M 121381.903 -136035.715 121619.999 -136702.381 121858.094 -136035.715 M 122239.046 -136607.143 122286.665 -136654.762 122239.046 -136702.381 122191.427 -136654.762 122239.046 -136607.143 122239.046 -136702.381 M 122239.046 -136083.334 122286.665 -136130.953 122239.046 -136178.572 122191.427 -136130.953 122239.046 -136083.334 122239.046 -136178.572 M 123381.903 -135702.381 124000.951 -135702.381 123667.618 -136083.334 123810.475 -136083.334 123905.713 -136130.953 123953.332 -136178.572 124000.951 -136273.81 124000.951 -136511.905 123953.332 -136607.143 123905.713 -136654.762 123810.475 -136702.381 123524.76 -136702.381 123429.522 -136654.762 123381.903 -136607.143 M 124429.522 -136607.143 124477.141 -136654.762 124429.522 -136702.381 124381.903 -136654.762 124429.522 -136607.143 124429.522 -136702.381 M 124810.475 -135702.381 125429.522 -135702.381 125096.189 -136083.334 125239.046 -136083.334 125334.284 -136130.953 125381.903 -136178.572 125429.522 -136273.81 125429.522 -136511.905 125381.903 -136607.143 125334.284 -136654.762 125239.046 -136702.381 124953.332 -136702.381 124858.094 -136654.762 124810.475 -136607.143" fill="none" stroke-width="200"/><path d="M 103361.985 -46756 103372.985 -46758 103384.985 -46760 103395.985 -46762 103417.985 -46770 103427.985 -46774 103438.985 -46779 103448.985 -46784 103458.985 -46790 103476.985 -46804 103485.985 -46812 103494.985 -46819 103501.985 -46828 103509.985 -46837 103523.985 -46855 103529.985 -46865 103534.985 -46875 103539.985 -46886 103543.985 -46896 103551.985 -46918 103553.985 -46929 103555.985 -46941 103557.985 -46952 103558.985 -46963 103558.985 -48455 105059.985 -48455 105070.985 -48456 105092.985 -48460 105102.985 -48462 105113.985 -48465 105133.985 -48473 105153.985 -48483 105171.985 -48495 105189.985 -48509 105196.985 -48517 105204.985 -48524 105218.985 -48542 105230.985 -48560 105240.985 -48580 105248.985 -48600 105251.985 -48611 105253.985 -48621 105257.985 -48643 105258.985 -48654 105258.985 -51347 105257.985 -51358 105255.985 -51369 105253.985 -51381 105251.985 -51392 105243.985 -51414 105239.985 -51424 105234.985 -51435 105229.985 -51445 105223.985 -51455 105209.985 -51473 105201.985 -51482 105194.985 -51491 105185.985 -51498 105176.985 -51506 105158.985 -51520 105148.985 -51526 105138.985 -51531 105127.985 -51536 105117.985 -51540 105095.985 -51548 105084.985 -51550 105072.985 -51552 105061.985 -51554 105050.985 -51555 103558.985 -51555 103558.985 -53056 103557.985 -53067 103553.985 -53089 103551.985 -53099 103548.985 -53110 103540.985 -53130 103530.985 -53150 103518.985 -53168 103504.985 -53186 103496.985 -53193 103489.985 -53201 103471.985 -53215 103453.985 -53227 103433.985 -53237 103413.985 -53245 103402.985 -53248 103392.985 -53250 103370.985 -53254 103359.985 -53255 100657.985 -53255 100646.985 -53254 100624.985 -53250 100614.985 -53248 100603.985 -53245 100583.985 -53237 100563.985 -53227 100545.985 -53215 100527.985 -53201 100520.985 -53193 100512.985 -53186 100498.985 -53168 100486.985 -53150 100476.985 -53130 100468.985 -53110 100465.985 -53099 100463.985 -53089 100459.985 -53067 100458.985 -53056 100458.985 -51555 98976.985 -51555 98964.985 -51554 98940.985 -51550 98928.985 -51547 98917.985 -51544 98906.985 -51540 98894.985 -51535 98884.985 -51530 98873.985 -51524 98863.985 -51518 98843.985 -51504 98825.985 -51488 98809.985 -51470 98795.985 -51450 98789.985 -51440 98783.985 -51429 98778.985 -51419 98773.985 -51407 98769.985 -51396 98766.985 -51385 98763.985 -51373 98759.985 -51349 98758.985 -51337 98758.985 -48654 98759.985 -48643 98763.985 -48621 98765.985 -48611 98768.985 -48600 98776.985 -48580 98786.985 -48560 98798.985 -48542 98812.985 -48524 98820.985 -48517 98827.985 -48509 98845.985 -48495 98863.985 -48483 98883.985 -48473 98903.985 -48465 98914.985 -48462 98924.985 -48460 98946.985 -48456 98957.985 -48455 100458.985 -48455 100458.985 -46954 100459.985 -46943 100463.985 -46921 100465.985 -46911 100468.985 -46900 100476.985 -46880 100486.985 -46860 100498.985 -46842 100512.985 -46824 100520.985 -46817 100527.985 -46809 100545.985 -46795 100563.985 -46783 100583.985 -46773 100603.985 -46765 100614.985 -46762 100624.985 -46760 100646.985 -46756 100657.985 -46755 103350.985 -46755 103361.985 -46756"/><path d="M 103361.985 -46756 103372.985 -46758 103384.985 -46760 103395.985 -46762 103417.985 -46770 103427.985 -46774 103438.985 -46779 103448.985 -46784 103458.985 -46790 103476.985 -46804 103485.985 -46812 103494.985 -46819 103501.985 -46828 103509.985 -46837 103523.985 -46855 103529.985 -46865 103534.985 -46875 103539.985 -46886 103543.985 -46896 103551.985 -46918 103553.985 -46929 103555.985 -46941 103557.985 -46952 103558.985 -46963 103558.985 -48455 105059.985 -48455 105070.985 -48456 105092.985 -48460 105102.985 -48462 105113.985 -48465 105133.985 -48473 105153.985 -48483 105171.985 -48495 105189.985 -48509 105196.985 -48517 105204.985 -48524 105218.985 -48542 105230.985 -48560 105240.985 -48580 105248.985 -48600 105251.985 -48611 105253.985 -48621 105257.985 -48643 105258.985 -48654 105258.985 -51347 105257.985 -51358 105255.985 -51369 105253.985 -51381 105251.985 -51392 105243.985 -51414 105239.985 -51424 105234.985 -51435 105229.985 -51445 105223.985 -51455 105209.985 -51473 105201.985 -51482 105194.985 -51491 105185.985 -51498 105176.985 -51506 105158.985 -51520 105148.985 -51526 105138.985 -51531 105127.985 -51536 105117.985 -51540 105095.985 -51548 105084.985 -51550 105072.985 -51552 105061.985 -51554 105050.985 -51555 103558.985 -51555 103558.985 -53056 103557.985 -53067 103553.985 -53089 103551.985 -53099 103548.985 -53110 103540.985 -53130 103530.985 -53150 103518.985 -53168 103504.985 -53186 103496.985 -53193 103489.985 -53201 103471.985 -53215 103453.985 -53227 103433.985 -53237 103413.985 -53245 103402.985 -53248 103392.985 -53250 103370.985 -53254 103359.985 -53255 100657.985 -53255 100646.985 -53254 100624.985 -53250 100614.985 -53248 100603.985 -53245 100583.985 -53237 100563.985 -53227 100545.985 -53215 100527.985 -53201 100520.985 -53193 100512.985 -53186 100498.985 -53168 100486.985 -53150 100476.985 -53130 100468.985 -53110 100465.985 -53099 100463.985 -53089 100459.985 -53067 100458.985 -53056 100458.985 -51555 98976.985 -51555 98964.985 -51554 98940.985 -51550 98928.985 -51547 98917.985 -51544 98906.985 -51540 98894.985 -51535 98884.985 -51530 98873.985 -51524 98863.985 -51518 98843.985 -51504 98825.985 -51488 98809.985 -51470 98795.985 -51450 98789.985 -51440 98783.985 -51429 98778.985 -51419 98773.985 -51407 98769.985 -51396 98766.985 -51385 98763.985 -51373 98759.985 -51349 98758.985 -51337 98758.985 -48654 98759.985 -48643 98763.985 -48621 98765.985 -48611 98768.985 -48600 98776.985 -48580 98786.985 -48560 98798.985 -48542 98812.985 -48524 98820.985 -48517 98827.985 -48509 98845.985 -48495 98863.985 -48483 98883.985 -48473 98903.985 -48465 98914.985 -48462 98924.985 -48460 98946.985 -48456 98957.985 -48455 100458.985 -48455 100458.985 -46954 100459.985 -46943 100463.985 -46921 100465.985 -46911 100468.985 -46900 100476.985 -46880 100486.985 -46860 100498.985 -46842 100512.985 -46824 100520.985 -46817 100527.985 -46809 100545.985 -46795 100563.985 -46783 100583.985 -46773 100603.985 -46765 100614.985 -46762 100624.985 -46760 100646.985 -46756 100657.985 -46755 103350.985 -46755 103361.985 -46756" fill="none" stroke-width="0.1"/><path d="M 51353 -46751 51364 -46753 51376 -46755 51387 -46757 51409 -46765 51419 -46769 51430 -46774 51440 -46779 51450 -46785 51468 -46799 51477 -46807 51486 -46814 51493 -46823 51501 -46832 51515 -46850 51521 -46860 51526 -46870 51531 -46881 51535 -46891 51543 -46913 51545 -46924 51547 -46936 51549 -46947 51550 -46958 51550 -48450 53051 -48450 53062 -48451 53084 -48455 53094 -48457 53105 -48460 53125 -48468 53145 -48478 53163 -48490 53181 -48504 53188 -48512 53196 -48519 53210 -48537 53222 -48555 53232 -48575 53240 -48595 53243 -48606 53245 -48616 53249 -48638 53250 -48649 53250 -51342 53249 -51353 53247 -51364 53245 -51376 53243 -51387 53235 -51409 53231 -51419 53226 -51430 53221 -51440 53215 -51450 53201 -51468 53193 -51477 53186 -51486 53177 -51493 53168 -51501 53150 -51515 53140 -51521 53130 -51526 53119 -51531 53109 -51535 53087 -51543 53076 -51545 53064 -51547 53053 -51549 53042 -51550 51550 -51550 51550 -53051 51549 -53062 51545 -53084 51543 -53094 51540 -53105 51532 -53125 51522 -53145 51510 -53163 51496 -53181 51488 -53188 51481 -53196 51463 -53210 51445 -53222 51425 -53232 51405 -53240 51394 -53243 51384 -53245 51362 -53249 51351 -53250 48649 -53250 48638 -53249 48616 -53245 48606 -53243 48595 -53240 48575 -53232 48555 -53222 48537 -53210 48519 -53196 48512 -53188 48504 -53181 48490 -53163 48478 -53145 48468 -53125 48460 -53105 48457 -53094 48455 -53084 48451 -53062 48450 -53051 48450 -51550 46968 -51550 46956 -51549 46932 -51545 46920 -51542 46909 -51539 46898 -51535 46886 -51530 46876 -51525 46865 -51519 46855 -51513 46835 -51499 46817 -51483 46801 -51465 46787 -51445 46781 -51435 46775 -51424 46770 -51414 46765 -51402 46761 -51391 46758 -51380 46755 -51368 46751 -51344 46750 -51332 46750 -48649 46751 -48638 46755 -48616 46757 -48606 46760 -48595 46768 -48575 46778 -48555 46790 -48537 46804 -48519 46812 -48512 46819 -48504 46837 -48490 46855 -48478 46875 -48468 46895 -48460 46906 -48457 46916 -48455 46938 -48451 46949 -48450 48450 -48450 48450 -46949 48451 -46938 48455 -46916 48457 -46906 48460 -46895 48468 -46875 48478 -46855 48490 -46837 48504 -46819 48512 -46812 48519 -46804 48537 -46790 48555 -46778 48575 -46768 48595 -46760 48606 -46757 48616 -46755 48638 -46751 48649 -46750 51342 -46750 51353 -46751"/><path d="M 51353 -46751 51364 -46753 51376 -46755 51387 -46757 51409 -46765 51419 -46769 51430 -46774 51440 -46779 51450 -46785 51468 -46799 51477 -46807 51486 -46814 51493 -46823 51501 -46832 51515 -46850 51521 -46860 51526 -46870 51531 -46881 51535 -46891 51543 -46913 51545 -46924 51547 -46936 51549 -46947 51550 -46958 51550 -48450 53051 -48450 53062 -48451 53084 -48455 53094 -48457 53105 -48460 53125 -48468 53145 -48478 53163 -48490 53181 -48504 53188 -48512 53196 -48519 53210 -48537 53222 -48555 53232 -48575 53240 -48595 53243 -48606 53245 -48616 53249 -48638 53250 -48649 53250 -51342 53249 -51353 53247 -51364 53245 -51376 53243 -51387 53235 -51409 53231 -51419 53226 -51430 53221 -51440 53215 -51450 53201 -51468 53193 -51477 53186 -51486 53177 -51493 53168 -51501 53150 -51515 53140 -51521 53130 -51526 53119 -51531 53109 -51535 53087 -51543 53076 -51545 53064 -51547 53053 -51549 53042 -51550 51550 -51550 51550 -53051 51549 -53062 51545 -53084 51543 -53094 51540 -53105 51532 -53125 51522 -53145 51510 -53163 51496 -53181 51488 -53188 51481 -53196 51463 -53210 51445 -53222 51425 -53232 51405 -53240 51394 -53243 51384 -53245 51362 -53249 51351 -53250 48649 -53250 48638 -53249 48616 -53245 48606 -53243 48595 -53240 48575 -53232 48555 -53222 48537 -53210 48519 -53196 48512 -53188 48504 -53181 48490 -53163 48478 -53145 48468 -53125 48460 -53105 48457 -53094 48455 -53084 48451 -53062 48450 -53051 48450 -51550 46968 -51550 46956 -51549 46932 -51545 46920 -51542 46909 -51539 46898 -51535 46886 -51530 46876 -51525 46865 -51519 46855 -51513 46835 -51499 46817 -51483 46801 -51465 46787 -51445 46781 -51435 46775 -51424 46770 -51414 46765 -51402 46761 -51391 46758 -51380 46755 -51368 46751 -51344 46750 -51332 46750 -48649 46751 -48638 46755 -48616 46757 -48606 46760 -48595 46768 -48575 46778 -48555 46790 -48537 46804 -48519 46812 -48512 46819 -48504 46837 -48490 46855 -48478 46875 -48468 46895 -48460 46906 -48457 46916 -48455 46938 -48451 46949 -48450 48450 -48450 48450 -46949 48451 -46938 48455 -46916 48457 -46906 48460 -46895 48468 -46875 48478 -46855 48490 -46837 48504 -46819 48512 -46812 48519 -46804 48537 -46790 48555 -46778 48575 -46768 48595 -46760 48606 -46757 48616 -46755 48638 -46751 48649 -46750 51342 -46750 51353 -46751" fill="none" stroke-width="0.1"/><use xlink:href="#E0bMvQxgjyQSK2cHq59__pad-12" x="69275" y="-133000"/><use xlink:href="#E0bMvQxgjyQSK2cHq59__pad-13" x="69275" y="-130460"/><use xlink:href="#E0bMvQxgjyQSK2cHq59__pad-13" x="69275" y="-127920"/><use xlink:href="#E0bMvQxgjyQSK2cHq59__pad-13" x="69275" y="-125380"/><use xlink:href="#E0bMvQxgjyQSK2cHq59__pad-13" x="69275" y="-122840"/><use xlink:href="#E0bMvQxgjyQSK2cHq59__pad-13" x="69275" y="-120300"/><use xlink:href="#E0bMvQxgjyQSK2cHq59__pad-13" x="69275" y="-117760"/><use xlink:href="#E0bMvQxgjyQSK2cHq59__pad-14" x="99158.985" y="-53192.5"/><use xlink:href="#E0bMvQxgjyQSK2cHq59__pad-15" x="105196.485" y="-52855"/><use xlink:href="#E0bMvQxgjyQSK2cHq59__pad-16" x="104858.985" y="-46817.5"/><use xlink:href="#E0bMvQxgjyQSK2cHq59__pad-17" x="98821.485" y="-47155"/><use xlink:href="#E0bMvQxgjyQSK2cHq59__pad-12" x="61290" y="-80250"/><use xlink:href="#E0bMvQxgjyQSK2cHq59__pad-13" x="58750" y="-80250"/><use xlink:href="#E0bMvQxgjyQSK2cHq59__pad-13" x="56210" y="-80250"/><use xlink:href="#E0bMvQxgjyQSK2cHq59__pad-13" x="53670" y="-80250"/><use xlink:href="#E0bMvQxgjyQSK2cHq59__pad-13" x="51130" y="-80250"/><use xlink:href="#E0bMvQxgjyQSK2cHq59__pad-12" x="92380" y="-88000"/><use xlink:href="#E0bMvQxgjyQSK2cHq59__pad-13" x="94920" y="-88000"/><use xlink:href="#E0bMvQxgjyQSK2cHq59__pad-13" x="97460" y="-88000"/><use xlink:href="#E0bMvQxgjyQSK2cHq59__pad-13" x="100000" y="-88000"/><use xlink:href="#E0bMvQxgjyQSK2cHq59__pad-13" x="102540" y="-88000"/><use xlink:href="#E0bMvQxgjyQSK2cHq59__pad-13" x="105080" y="-88000"/><use xlink:href="#E0bMvQxgjyQSK2cHq59__pad-13" x="107620" y="-88000"/><use xlink:href="#E0bMvQxgjyQSK2cHq59__pad-18" x="116250" y="-75250"/><use xlink:href="#E0bMvQxgjyQSK2cHq59__pad-18" x="117000" y="-75250"/><use xlink:href="#E0bMvQxgjyQSK2cHq59__pad-18" x="117750" y="-75250"/><use xlink:href="#E0bMvQxgjyQSK2cHq59__pad-18" x="116250" y="-76750"/><use xlink:href="#E0bMvQxgjyQSK2cHq59__pad-18" x="117750" y="-76750"/><use xlink:href="#E0bMvQxgjyQSK2cHq59__pad-18" x="117000" y="-76750"/><use xlink:href="#E0bMvQxgjyQSK2cHq59__pad-18" x="34250" y="-75250"/><use xlink:href="#E0bMvQxgjyQSK2cHq59__pad-18" x="35000" y="-75250"/><use xlink:href="#E0bMvQxgjyQSK2cHq59__pad-18" x="35000" y="-76750"/><use xlink:href="#E0bMvQxgjyQSK2cHq59__pad-18" x="35750" y="-76750"/><use xlink:href="#E0bMvQxgjyQSK2cHq59__pad-18" x="35750" y="-75250"/><use xlink:href="#E0bMvQxgjyQSK2cHq59__pad-18" x="34250" y="-76750"/><use xlink:href="#E0bMvQxgjyQSK2cHq59__pad-18" x="76750" y="-34250"/><use xlink:href="#E0bMvQxgjyQSK2cHq59__pad-18" x="76750" y="-35000"/><use xlink:href="#E0bMvQxgjyQSK2cHq59__pad-18" x="75250" y="-35750"/><use xlink:href="#E0bMvQxgjyQSK2cHq59__pad-18" x="76750" y="-35750"/><use xlink:href="#E0bMvQxgjyQSK2cHq59__pad-18" x="75250" y="-35000"/><use xlink:href="#E0bMvQxgjyQSK2cHq59__pad-18" x="75250" y="-34250"/><use xlink:href="#E0bMvQxgjyQSK2cHq59__pad-19" x="80500" y="-131120.785"/><use xlink:href="#E0bMvQxgjyQSK2cHq59__pad-20" x="80500" y="-126120.785"/><use xlink:href="#E0bMvQxgjyQSK2cHq59__pad-21" x="42979.999" y="-134150.001"/><use xlink:href="#E0bMvQxgjyQSK2cHq59__pad-21" x="42979.999" y="-131610.001"/><use xlink:href="#E0bMvQxgjyQSK2cHq59__pad-21" x="42979.999" y="-129070.001"/><use xlink:href="#E0bMvQxgjyQSK2cHq59__pad-21" x="42979.999" y="-126530.001"/><use xlink:href="#E0bMvQxgjyQSK2cHq59__pad-21" x="42979.999" y="-101130.001"/><use xlink:href="#E0bMvQxgjyQSK2cHq59__pad-21" x="27739.999" y="-131610.001"/><use xlink:href="#E0bMvQxgjyQSK2cHq59__pad-21" x="42979.999" y="-123990.001"/><use xlink:href="#E0bMvQxgjyQSK2cHq59__pad-21" x="42979.999" y="-121450.001"/><use xlink:href="#E0bMvQxgjyQSK2cHq59__pad-21" x="42979.999" y="-118910.001"/><use xlink:href="#E0bMvQxgjyQSK2cHq59__pad-21" x="42979.999" y="-116370.001"/><use xlink:href="#E0bMvQxgjyQSK2cHq59__pad-21" x="42979.999" y="-113830.001"/><use xlink:href="#E0bMvQxgjyQSK2cHq59__pad-21" x="42979.999" y="-111290.001"/><use xlink:href="#E0bMvQxgjyQSK2cHq59__pad-21" x="42979.999" y="-108750.001"/><use xlink:href="#E0bMvQxgjyQSK2cHq59__pad-21" x="42979.999" y="-106210.001"/><use xlink:href="#E0bMvQxgjyQSK2cHq59__pad-21" x="42979.999" y="-103670.001"/><use xlink:href="#E0bMvQxgjyQSK2cHq59__pad-21" x="27739.999" y="-103670.001"/><use xlink:href="#E0bMvQxgjyQSK2cHq59__pad-21" x="27739.999" y="-106210.001"/><use xlink:href="#E0bMvQxgjyQSK2cHq59__pad-21" x="27739.999" y="-108750.001"/><use xlink:href="#E0bMvQxgjyQSK2cHq59__pad-21" x="27739.999" y="-111290.001"/><use xlink:href="#E0bMvQxgjyQSK2cHq59__pad-21" x="27739.999" y="-113830.001"/><use xlink:href="#E0bMvQxgjyQSK2cHq59__pad-21" x="27739.999" y="-116370.001"/><use xlink:href="#E0bMvQxgjyQSK2cHq59__pad-21" x="27739.999" y="-118910.001"/><use xlink:href="#E0bMvQxgjyQSK2cHq59__pad-21" x="27739.999" y="-121450.001"/><use xlink:href="#E0bMvQxgjyQSK2cHq59__pad-21" x="27739.999" y="-123990.001"/><use xlink:href="#E0bMvQxgjyQSK2cHq59__pad-21" x="27739.999" y="-126530.001"/><use xlink:href="#E0bMvQxgjyQSK2cHq59__pad-21" x="27739.999" y="-129070.001"/><use xlink:href="#E0bMvQxgjyQSK2cHq59__pad-21" x="42979.999" y="-98590.001"/><use xlink:href="#E0bMvQxgjyQSK2cHq59__pad-21" x="42979.999" y="-96050.001"/><use xlink:href="#E0bMvQxgjyQSK2cHq59__pad-21" x="42979.999" y="-93510.001"/><use xlink:href="#E0bMvQxgjyQSK2cHq59__pad-21" x="42979.999" y="-90970.001"/><use xlink:href="#E0bMvQxgjyQSK2cHq59__pad-21" x="42979.999" y="-88430.001"/><use xlink:href="#E0bMvQxgjyQSK2cHq59__pad-21" x="42979.999" y="-85890.001"/><use xlink:href="#E0bMvQxgjyQSK2cHq59__pad-21" x="42979.999" y="-83350.001"/><use xlink:href="#E0bMvQxgjyQSK2cHq59__pad-21" x="42979.999" y="-80810.001"/><use xlink:href="#E0bMvQxgjyQSK2cHq59__pad-21" x="42979.999" y="-78270.001"/><use xlink:href="#E0bMvQxgjyQSK2cHq59__pad-21" x="27739.999" y="-78270.001"/><use xlink:href="#E0bMvQxgjyQSK2cHq59__pad-21" x="27739.999" y="-80810.001"/><use xlink:href="#E0bMvQxgjyQSK2cHq59__pad-21" x="27739.999" y="-83350.001"/><use xlink:href="#E0bMvQxgjyQSK2cHq59__pad-21" x="27739.999" y="-85890.001"/><use xlink:href="#E0bMvQxgjyQSK2cHq59__pad-21" x="27739.999" y="-88430.001"/><use xlink:href="#E0bMvQxgjyQSK2cHq59__pad-21" x="27739.999" y="-90970.001"/><use xlink:href="#E0bMvQxgjyQSK2cHq59__pad-21" x="27739.999" y="-93510.001"/><use xlink:href="#E0bMvQxgjyQSK2cHq59__pad-21" x="27739.999" y="-96050.001"/><use xlink:href="#E0bMvQxgjyQSK2cHq59__pad-21" x="27739.999" y="-98590.001"/><use xlink:href="#E0bMvQxgjyQSK2cHq59__pad-21" x="42979.999" y="-136690.001"/><use xlink:href="#E0bMvQxgjyQSK2cHq59__pad-21" x="27739.999" y="-101130.001"/><use xlink:href="#E0bMvQxgjyQSK2cHq59__pad-21" x="27739.999" y="-134150.001"/><use xlink:href="#E0bMvQxgjyQSK2cHq59__pad-22" x="32189.999" y="-121720.001"/><use xlink:href="#E0bMvQxgjyQSK2cHq59__pad-22" x="32189.999" y="-123720.001"/><use xlink:href="#E0bMvQxgjyQSK2cHq59__pad-22" x="30189.999" y="-123720.001"/><use xlink:href="#E0bMvQxgjyQSK2cHq59__pad-22" x="30189.999" y="-121720.001"/><use xlink:href="#E0bMvQxgjyQSK2cHq59__pad-22" x="34189.999" y="-121720.001"/><use xlink:href="#E0bMvQxgjyQSK2cHq59__pad-22" x="34189.999" y="-123720.001"/><use xlink:href="#E0bMvQxgjyQSK2cHq59__pad-21" x="40439.999" y="-90970.001"/><use xlink:href="#E0bMvQxgjyQSK2cHq59__pad-21" x="27739.999" y="-136690.001"/><use xlink:href="#E0bMvQxgjyQSK2cHq59__pad-12" x="94950" y="-123225"/><use xlink:href="#E0bMvQxgjyQSK2cHq59__pad-13" x="97490" y="-123225"/><use xlink:href="#E0bMvQxgjyQSK2cHq59__pad-13" x="100030" y="-123225"/><use xlink:href="#E0bMvQxgjyQSK2cHq59__pad-13" x="102570" y="-123225"/><use xlink:href="#E0bMvQxgjyQSK2cHq59__pad-13" x="105110" y="-123225"/><use xlink:href="#E0bMvQxgjyQSK2cHq59__pad-23" x="70000" y="-80950"/><use xlink:href="#E0bMvQxgjyQSK2cHq59__pad-24" x="68750" y="-80950"/><use xlink:href="#E0bMvQxgjyQSK2cHq59__pad-14" x="47150" y="-53187.5"/><use xlink:href="#E0bMvQxgjyQSK2cHq59__pad-15" x="53187.5" y="-52850"/><use xlink:href="#E0bMvQxgjyQSK2cHq59__pad-16" x="52850" y="-46812.5"/><use xlink:href="#E0bMvQxgjyQSK2cHq59__pad-17" x="46812.5" y="-47150"/><use xlink:href="#E0bMvQxgjyQSK2cHq59__pad-12" x="69285.786" y="-107512.893"/><use xlink:href="#E0bMvQxgjyQSK2cHq59__pad-13" x="69285.786" y="-104972.893"/><use xlink:href="#E0bMvQxgjyQSK2cHq59__pad-13" x="69285.786" y="-102432.893"/><use xlink:href="#E0bMvQxgjyQSK2cHq59__pad-13" x="69285.786" y="-99892.893"/><use xlink:href="#E0bMvQxgjyQSK2cHq59__pad-13" x="69285.786" y="-97352.893"/><use xlink:href="#E0bMvQxgjyQSK2cHq59__pad-13" x="69285.786" y="-94812.893"/><use xlink:href="#E0bMvQxgjyQSK2cHq59__pad-18" x="87750" y="-76750"/><use xlink:href="#E0bMvQxgjyQSK2cHq59__pad-18" x="87750" y="-75250"/><use xlink:href="#E0bMvQxgjyQSK2cHq59__pad-18" x="86250" y="-76750"/><use xlink:href="#E0bMvQxgjyQSK2cHq59__pad-18" x="87000" y="-75250"/><use xlink:href="#E0bMvQxgjyQSK2cHq59__pad-18" x="86250" y="-75250"/><use xlink:href="#E0bMvQxgjyQSK2cHq59__pad-18" x="87000" y="-76750"/><use xlink:href="#E0bMvQxgjyQSK2cHq59__pad-25" x="50784.999" y="-128900.001"/><use xlink:href="#E0bMvQxgjyQSK2cHq59__pad-25" x="62214.999" y="-128900.001"/><use xlink:href="#E0bMvQxgjyQSK2cHq59__pad-26" x="52054.999" y="-122550.001"/><use xlink:href="#E0bMvQxgjyQSK2cHq59__pad-27" x="53324.999" y="-120010.001"/><use xlink:href="#E0bMvQxgjyQSK2cHq59__pad-27" x="54594.999" y="-122550.001"/><use xlink:href="#E0bMvQxgjyQSK2cHq59__pad-27" x="55864.999" y="-120010.001"/><use xlink:href="#E0bMvQxgjyQSK2cHq59__pad-27" x="57134.999" y="-122550.001"/><use xlink:href="#E0bMvQxgjyQSK2cHq59__pad-27" x="58404.999" y="-120010.001"/><use xlink:href="#E0bMvQxgjyQSK2cHq59__pad-27" x="59674.999" y="-122550.001"/><use xlink:href="#E0bMvQxgjyQSK2cHq59__pad-27" x="60944.999" y="-120010.001"/><use xlink:href="#E0bMvQxgjyQSK2cHq59__pad-27" x="50174.999" y="-133980.001"/><use xlink:href="#E0bMvQxgjyQSK2cHq59__pad-27" x="52714.999" y="-132280.001"/><use xlink:href="#E0bMvQxgjyQSK2cHq59__pad-27" x="60284.999" y="-133980.001"/><use xlink:href="#E0bMvQxgjyQSK2cHq59__pad-27" x="62824.999" y="-132280.001"/><use xlink:href="#E0bMvQxgjyQSK2cHq59__pad-28" x="48624.999" y="-125850.001"/><use xlink:href="#E0bMvQxgjyQSK2cHq59__pad-28" x="64374.999" y="-125850.001"/><use xlink:href="#E0bMvQxgjyQSK2cHq59__pad-18" x="76750" y="-65750"/><use xlink:href="#E0bMvQxgjyQSK2cHq59__pad-18" x="75250" y="-65750"/><use xlink:href="#E0bMvQxgjyQSK2cHq59__pad-18" x="76750" y="-65000"/><use xlink:href="#E0bMvQxgjyQSK2cHq59__pad-18" x="76750" y="-64250"/><use xlink:href="#E0bMvQxgjyQSK2cHq59__pad-18" x="75250" y="-64250"/><use xlink:href="#E0bMvQxgjyQSK2cHq59__pad-18" x="75250" y="-65000"/><use xlink:href="#E0bMvQxgjyQSK2cHq59__pad-18" x="64250" y="-76750"/><use xlink:href="#E0bMvQxgjyQSK2cHq59__pad-18" x="65000" y="-76750"/><use xlink:href="#E0bMvQxgjyQSK2cHq59__pad-18" x="65750" y="-76750"/><use xlink:href="#E0bMvQxgjyQSK2cHq59__pad-18" x="65750" y="-75250"/><use xlink:href="#E0bMvQxgjyQSK2cHq59__pad-18" x="64250" y="-75250"/><use xlink:href="#E0bMvQxgjyQSK2cHq59__pad-18" x="65000" y="-75250"/><use xlink:href="#E0bMvQxgjyQSK2cHq59__pad-29" x="36499.999" y="-133750.001"/><use xlink:href="#E0bMvQxgjyQSK2cHq59__pad-30" x="34499.999" y="-133750.001"/><use xlink:href="#E0bMvQxgjyQSK2cHq59__pad-12" x="92400" y="-128000"/><use xlink:href="#E0bMvQxgjyQSK2cHq59__pad-13" x="94940" y="-128000"/><use xlink:href="#E0bMvQxgjyQSK2cHq59__pad-13" x="97480" y="-128000"/><use xlink:href="#E0bMvQxgjyQSK2cHq59__pad-13" x="100020" y="-128000"/><use xlink:href="#E0bMvQxgjyQSK2cHq59__pad-13" x="102560" y="-128000"/><use xlink:href="#E0bMvQxgjyQSK2cHq59__pad-13" x="105100" y="-128000"/><use xlink:href="#E0bMvQxgjyQSK2cHq59__pad-13" x="107640" y="-128000"/><use xlink:href="#E0bMvQxgjyQSK2cHq59__pad-12" x="51275" y="-113050"/><use xlink:href="#E0bMvQxgjyQSK2cHq59__pad-13" x="51275" y="-110510"/><use xlink:href="#E0bMvQxgjyQSK2cHq59__pad-13" x="51275" y="-107970"/><use xlink:href="#E0bMvQxgjyQSK2cHq59__pad-13" x="51275" y="-105430"/><use xlink:href="#E0bMvQxgjyQSK2cHq59__pad-12" x="94950" y="-93025"/><use xlink:href="#E0bMvQxgjyQSK2cHq59__pad-13" x="97490" y="-93025"/><use xlink:href="#E0bMvQxgjyQSK2cHq59__pad-13" x="100030" y="-93025"/><use xlink:href="#E0bMvQxgjyQSK2cHq59__pad-13" x="102570" y="-93025"/><use xlink:href="#E0bMvQxgjyQSK2cHq59__pad-13" x="105110" y="-93025"/><use xlink:href="#E0bMvQxgjyQSK2cHq59__pad-12" x="51300" y="-100000"/><use xlink:href="#E0bMvQxgjyQSK2cHq59__pad-13" x="51300" y="-97460"/><use xlink:href="#E0bMvQxgjyQSK2cHq59__pad-13" x="51300" y="-94920"/><use xlink:href="#E0bMvQxgjyQSK2cHq59__pad-13" x="51300" y="-92380"/><use xlink:href="#E0bMvQxgjyQSK2cHq59__pad-13" x="51300" y="-89840"/><path d="M 54431.68 -39500.12 54859.215 -39518.787 54870.165 -39519.745 55291.719 -39575.243 55302.545 -39577.152 55717.658 -39669.181 55728.275 -39672.026 56133.782 -39799.881 56144.111 -39803.64 56536.947 -39966.358 56546.909 -39971.004 56924.049 -40167.331 56933.569 -40172.827 57292.169 -40401.281 57301.173 -40407.585 57638.511 -40666.433 57646.931 -40673.499 57962.446 -40962.615 57966.417 -40966.417 58533.583 -41533.583 58537.385 -41537.554 58826.501 -41853.069 58833.567 -41861.489 59092.415 -42198.827 59098.719 -42207.831 59327.173 -42566.431 59332.669 -42575.951 59528.996 -42953.091 59533.642 -42963.053 59696.36 -43355.889 59700.119 -43366.218 59827.974 -43771.725 59830.819 -43782.342 59922.848 -44197.455 59924.757 -44208.281 59980.255 -44629.835 59981.213 -44640.785 59999.88 -45068.32 60000 -45073.816 60000 -54926.184 59999.88 -54931.68 59981.213 -55359.215 59980.255 -55370.165 59924.757 -55791.719 59922.848 -55802.545 59830.819 -56217.658 59827.974 -56228.275 59700.119 -56633.782 59696.36 -56644.111 59533.642 -57036.947 59528.996 -57046.909 59332.669 -57424.049 59327.173 -57433.569 59098.719 -57792.169 59092.415 -57801.173 58833.567 -58138.511 58826.501 -58146.931 58537.385 -58462.446 58533.583 -58466.417 57966.417 -59033.583 57962.446 -59037.385 57646.931 -59326.501 57638.511 -59333.567 57301.173 -59592.415 57292.169 -59598.719 56933.569 -59827.173 56924.049 -59832.669 56546.909 -60028.996 56536.947 -60033.642 56144.111 -60196.36 56133.782 -60200.119 55728.275 -60327.974 55717.658 -60330.819 55302.545 -60422.848 55291.719 -60424.757 54870.165 -60480.255 54859.215 -60481.213 54431.68 -60499.88 54426.184 -60500 45573.816 -60500 45568.32 -60499.88 45140.785 -60481.213 45129.835 -60480.255 44708.281 -60424.757 44697.455 -60422.848 44282.342 -60330.819 44271.725 -60327.974 43866.218 -60200.119 43855.889 -60196.36 43463.053 -60033.642 43453.091 -60028.996 43075.951 -59832.669 43066.431 -59827.173 42707.831 -59598.719 42698.827 -59592.415 42361.489 -59333.567 42353.069 -59326.501 42037.554 -59037.385 42033.583 -59033.583 41466.417 -58466.417 41462.615 -58462.446 41173.499 -58146.931 41166.433 -58138.511 40907.585 -57801.173 40901.281 -57792.169 40672.827 -57433.569 40667.331 -57424.049 40471.004 -57046.909 40466.358 -57036.947 40303.64 -56644.111 40299.881 -56633.782 40172.026 -56228.275 40169.181 -56217.658 40077.152 -55802.545 40075.243 -55791.719 40019.745 -55370.165 40018.787 -55359.215 40000.12 -54931.68 40000 -54926.184 40000 -47478.852 45400 -47478.852 45400.765 -47488.635 45419.684 -47608.821 45425.667 -47627.355 45478.366 -47731.514 45489.753 -47747.313 45571.901 -47830.244 45587.595 -47841.783 45803.548 -47953.63 45835.118 -47976.842 45903.226 -48045.599 45926.138 -48077.388 45969.829 -48163.743 45981.867 -48201.033 45998.467 -48306.489 46000 -48326.082 46000 -53887.59 46004.749 -53911.466 46022.356 -53953.972 46039.128 -53974.787 46122.217 -54009.202 46177.498 -54053.749 46200 -54125.611 46200 -54293.813 46201.207 -54306.068 46220.415 -54402.633 46229.731 -54425.124 46280.975 -54501.816 46298.184 -54519.025 46374.876 -54570.269 46397.367 -54579.585 46493.932 -54598.793 46506.187 -54600 47693.813 -54600 47706.068 -54598.793 47802.633 -54579.585 47825.124 -54570.269 47901.816 -54519.025 47919.025 -54501.816 47970.269 -54425.124 47979.585 -54402.633 48017.946 -54209.777 48036.76 -54164.355 48073.944 -54108.706 48108.706 -54073.944 48164.355 -54036.76 48209.777 -54017.946 48287.829 -54002.421 48312.41 -54000 53887.59 -54000 53911.466 -53995.251 53953.972 -53977.644 53974.787 -53960.871 53999.03 -53902.342 54000.779 -53897.587 54013.693 -53857.584 54058.961 -53794.778 54078.89 -53780.125 54113.684 -53762.105 54295.326 -53701.558 54304.377 -53697.733 54412.405 -53641.783 54428.099 -53630.244 54510.247 -53547.313 54521.634 -53531.514 54574.333 -53427.355 54580.316 -53408.821 54599.235 -53288.635 54600 -53278.852 54600 -52521.148 54599.235 -52511.365 54580.316 -52391.179 54574.333 -52372.645 54521.634 -52268.486 54510.247 -52252.687 54428.099 -52169.756 54412.405 -52158.217 54196.452 -52046.37 54164.882 -52023.158 54096.774 -51954.401 54073.862 -51922.612 54030.171 -51836.257 54018.133 -51798.967 54001.533 -51693.511 54000 -51673.918 54000 -46112.41 53995.251 -46088.534 53977.644 -46046.028 53960.871 -46025.213 53902.342 -46000.97 53897.587 -45999.221 53857.584 -45986.307 53794.778 -45941.039 53780.125 -45921.11 53762.105 -45886.316 53701.558 -45704.674 53697.733 -45695.623 53641.783 -45587.595 53630.244 -45571.901 53547.313 -45489.753 53531.514 -45478.366 53427.355 -45425.667 53408.821 -45419.684 53288.635 -45400.765 53278.852 -45400 52521.148 -45400 52511.365 -45400.765 52391.179 -45419.684 52372.645 -45425.667 52268.486 -45478.366 52252.687 -45489.753 52169.756 -45571.901 52158.217 -45587.595 52046.37 -45803.548 52023.158 -45835.118 51954.401 -45903.226 51922.612 -45926.138 51836.257 -45969.829 51798.967 -45981.867 51693.511 -45998.467 51673.918 -46000 46112.41 -46000 46088.534 -46004.749 46046.028 -46022.356 46025.213 -46039.129 46000.97 -46097.658 45999.221 -46102.413 45986.307 -46142.416 45941.039 -46205.222 45921.11 -46219.875 45886.316 -46237.895 45704.674 -46298.442 45695.623 -46302.267 45587.595 -46358.217 45571.901 -46369.756 45489.753 -46452.687 45478.366 -46468.486 45425.667 -46572.645 45419.684 -46591.179 45400.765 -46711.365 45400 -46721.148 45400 -47478.852 40000 -47478.852 40000 -45073.816 40000.12 -45068.32 40018.787 -44640.785 40019.745 -44629.835 40075.243 -44208.281 40077.152 -44197.455 40169.181 -43782.342 40172.026 -43771.725 40299.881 -43366.218 40303.64 -43355.889 40466.358 -42963.053 40471.004 -42953.091 40667.331 -42575.951 40672.827 -42566.431 40901.281 -42207.831 40907.585 -42198.827 41166.433 -41861.489 41173.499 -41853.069 41462.615 -41537.554 41466.417 -41533.583 42033.583 -40966.417 42037.554 -40962.615 42353.069 -40673.499 42361.489 -40666.433 42698.827 -40407.585 42707.831 -40401.281 43066.431 -40172.827 43075.951 -40167.331 43453.091 -39971.004 43463.053 -39966.358 43855.889 -39803.64 43866.218 -39799.881 44271.725 -39672.026 44282.342 -39669.181 44697.455 -39577.152 44708.281 -39575.243 45129.835 -39519.745 45140.785 -39518.787 45568.32 -39500.12 45573.816 -39500 54426.184 -39500 54431.68 -39500.12"/><path d="M 106440.665 -39505.12 106868.2 -39523.787 106879.15 -39524.745 107300.704 -39580.243 107311.53 -39582.152 107726.643 -39674.181 107737.26 -39677.026 108142.767 -39804.881 108153.096 -39808.64 108545.932 -39971.358 108555.894 -39976.004 108933.034 -40172.331 108942.554 -40177.827 109301.154 -40406.281 109310.158 -40412.585 109647.496 -40671.433 109655.916 -40678.499 109971.431 -40967.615 109975.402 -40971.417 110542.568 -41538.583 110546.37 -41542.554 110835.486 -41858.069 110842.552 -41866.489 111101.4 -42203.827 111107.704 -42212.831 111336.158 -42571.431 111341.654 -42580.951 111537.981 -42958.091 111542.627 -42968.053 111705.345 -43360.889 111709.104 -43371.218 111836.959 -43776.725 111839.804 -43787.342 111931.833 -44202.455 111933.742 -44213.281 111989.24 -44634.835 111990.198 -44645.785 112008.865 -45073.32 112008.985 -45078.816 112008.985 -54931.184 112008.865 -54936.68 111990.198 -55364.215 111989.24 -55375.165 111933.742 -55796.719 111931.833 -55807.545 111839.804 -56222.658 111836.959 -56233.275 111709.104 -56638.782 111705.345 -56649.111 111542.627 -57041.947 111537.981 -57051.909 111341.654 -57429.049 111336.158 -57438.569 111107.704 -57797.169 111101.4 -57806.173 110842.552 -58143.511 110835.486 -58151.931 110546.37 -58467.446 110542.568 -58471.417 109975.402 -59038.583 109971.431 -59042.385 109655.916 -59331.501 109647.496 -59338.567 109310.158 -59597.415 109301.154 -59603.719 108942.554 -59832.173 108933.034 -59837.669 108555.894 -60033.996 108545.932 -60038.642 108153.096 -60201.36 108142.767 -60205.119 107737.26 -60332.974 107726.643 -60335.819 107311.53 -60427.848 107300.704 -60429.757 106879.15 -60485.255 106868.2 -60486.213 106440.665 -60504.88 106435.169 -60505 97582.801 -60505 97577.305 -60504.88 97149.77 -60486.213 97138.82 -60485.255 96717.266 -60429.757 96706.44 -60427.848 96291.327 -60335.819 96280.71 -60332.974 95875.203 -60205.119 95864.874 -60201.36 95472.038 -60038.642 95462.076 -60033.996 95084.936 -59837.669 95075.416 -59832.173 94716.816 -59603.719 94707.812 -59597.415 94370.474 -59338.567 94362.054 -59331.501 94046.539 -59042.385 94042.568 -59038.583 93475.402 -58471.417 93471.6 -58467.446 93182.484 -58151.931 93175.418 -58143.511 92916.57 -57806.173 92910.266 -57797.169 92681.812 -57438.569 92676.316 -57429.049 92479.989 -57051.909 92475.343 -57041.947 92312.625 -56649.111 92308.866 -56638.782 92181.011 -56233.275 92178.166 -56222.658 92086.137 -55807.545 92084.228 -55796.719 92028.73 -55375.165 92027.772 -55364.215 92009.105 -54936.68 92008.985 -54931.184 92008.985 -47483.852 97408.985 -47483.852 97409.75 -47493.635 97428.669 -47613.821 97434.652 -47632.355 97487.351 -47736.514 97498.738 -47752.313 97580.886 -47835.244 97596.58 -47846.783 97812.533 -47958.63 97844.103 -47981.842 97912.211 -48050.599 97935.123 -48082.388 97978.814 -48168.743 97990.852 -48206.033 98007.452 -48311.489 98008.985 -48331.082 98008.985 -53892.59 98013.734 -53916.466 98031.341 -53958.972 98048.113 -53979.787 98131.202 -54014.202 98186.483 -54058.749 98208.985 -54130.611 98208.985 -54298.813 98210.192 -54311.068 98229.4 -54407.633 98238.716 -54430.124 98289.96 -54506.816 98307.169 -54524.025 98383.861 -54575.269 98406.352 -54584.585 98502.917 -54603.793 98515.172 -54605 99702.798 -54605 99715.053 -54603.793 99811.618 -54584.585 99834.109 -54575.269 99910.801 -54524.025 99928.01 -54506.816 99979.254 -54430.124 99988.57 -54407.633 100026.931 -54214.777 100045.745 -54169.355 100082.929 -54113.706 100117.691 -54078.944 100173.34 -54041.76 100218.762 -54022.946 100296.814 -54007.421 100321.395 -54005 105896.575 -54005 105920.451 -54000.251 105962.957 -53982.644 105983.772 -53965.871 106008.015 -53907.342 106009.764 -53902.587 106022.678 -53862.584 106067.946 -53799.778 106087.875 -53785.125 106122.669 -53767.105 106304.311 -53706.558 106313.362 -53702.733 106421.39 -53646.783 106437.084 -53635.244 106519.232 -53552.313 106530.619 -53536.514 106583.318 -53432.355 106589.301 -53413.821 106608.22 -53293.635 106608.985 -53283.852 106608.985 -52526.148 106608.22 -52516.365 106589.301 -52396.179 106583.318 -52377.645 106530.619 -52273.486 106519.232 -52257.687 106437.084 -52174.756 106421.39 -52163.217 106205.437 -52051.37 106173.867 -52028.158 106105.759 -51959.401 106082.847 -51927.612 106039.156 -51841.257 106027.118 -51803.967 106010.518 -51698.511 106008.985 -51678.918 106008.985 -46117.41 106004.236 -46093.534 105986.629 -46051.028 105969.856 -46030.213 105911.327 -46005.97 105906.572 -46004.221 105866.569 -45991.307 105803.763 -45946.039 105789.11 -45926.11 105771.09 -45891.316 105710.543 -45709.674 105706.718 -45700.623 105650.768 -45592.595 105639.229 -45576.901 105556.298 -45494.753 105540.499 -45483.366 105436.34 -45430.667 105417.806 -45424.684 105297.62 -45405.765 105287.837 -45405 104530.133 -45405 104520.35 -45405.765 104400.164 -45424.684 104381.63 -45430.667 104277.471 -45483.366 104261.672 -45494.753 104178.741 -45576.901 104167.202 -45592.595 104055.355 -45808.548 104032.143 -45840.118 103963.386 -45908.226 103931.597 -45931.138 103845.242 -45974.829 103807.952 -45986.867 103702.496 -46003.467 103682.903 -46005 98121.395 -46005 98097.519 -46009.749 98055.013 -46027.356 98034.198 -46044.129 98009.955 -46102.658 98008.206 -46107.413 97995.292 -46147.416 97950.024 -46210.222 97930.095 -46224.875 97895.301 -46242.895 97713.659 -46303.442 97704.608 -46307.267 97596.58 -46363.217 97580.886 -46374.756 97498.738 -46457.687 97487.351 -46473.486 97434.652 -46577.645 97428.669 -46596.179 97409.75 -46716.365 97408.985 -46726.148 97408.985 -47483.852 92008.985 -47483.852 92008.985 -45078.816 92009.105 -45073.32 92027.772 -44645.785 92028.73 -44634.835 92084.228 -44213.281 92086.137 -44202.455 92178.166 -43787.342 92181.011 -43776.725 92308.866 -43371.218 92312.625 -43360.889 92475.343 -42968.053 92479.989 -42958.091 92676.316 -42580.951 92681.812 -42571.431 92910.266 -42212.831 92916.57 -42203.827 93175.418 -41866.489 93182.484 -41858.069 93471.6 -41542.554 93475.402 -41538.583 94042.568 -40971.417 94046.539 -40967.615 94362.054 -40678.499 94370.474 -40671.433 94707.812 -40412.585 94716.816 -40406.281 95075.416 -40177.827 95084.936 -40172.331 95462.076 -39976.004 95472.038 -39971.358 95864.874 -39808.64 95875.203 -39804.881 96280.71 -39677.026 96291.327 -39674.181 96706.44 -39582.152 96717.266 -39580.243 97138.82 -39524.745 97149.77 -39523.787 97577.305 -39505.12 97582.801 -39505 106435.169 -39505 106440.665 -39505.12"/></g></svg>