<svg version="1.1" xmlns="http://www.w3.org/2000/svg" xmlns:xlink="http://www.w3.org/1999/xlink" stroke-linecap="round" stroke-linejoin="round" stroke-width="0" fill-rule="evenodd" width="99.011428mm" height="109.088999mm" viewBox="26518.095 -136863.999 99011.428 109088.999" id="y2-g2_1GtqjGvQc3BcVr"><defs><g id="y2-g2_1GtqjGvQc3BcVr_pad-11"><polygon points="350,625 -350,625 -350,-625 350,-625"/><circle cx="350" cy="625" r="250"/><circle cx="-350" cy="625" r="250"/><circle cx="-350" cy="-625" r="250"/><circle cx="350" cy="-625" r="250"/><polygon points="350,375 -350,375 -350,875 350,875"/><polygon points="-100,625 -100,-625 -600,-625 -600,625"/><polygon points="-350,-875 350,-875 350,-375 -350,-375"/><polygon points="600,-625 600,625 100,625 100,-625"/></g><rect x="-600" y="-875" width="1200" height="1750" rx="600" ry="600" id="y2-g2_1GtqjGvQc3BcVr_pad-12"/><g id="y2-g2_1GtqjGvQc3BcVr_pad-13"><polygon points="475,-337.5 475,337.5 -475,337.5 -475,-337.5"/><circle cx="475" cy="-337.5" r="250"/><circle cx="475" cy="337.5" r="250"/><circle cx="-475" cy="337.5" r="250"/><circle cx="-475" cy="-337.5" r="250"/><polygon points="725,-337.5 725,337.5 225,337.5 225,-337.5"/><polygon points="475,87.5 -475,87.5 -475,587.5 475,587.5"/><polygon points="-225,337.5 -225,-337.5 -725,-337.5 -725,337.5"/><polygon points="-475,-587.5 475,-587.5 475,-87.5 -475,-87.5"/></g><g id="y2-g2_1GtqjGvQc3BcVr_pad-14"><polygon points="-475,337.5 -475,-337.5 475,-337.5 475,337.5"/><circle cx="-475" cy="337.5" r="250"/><circle cx="-475" cy="-337.5" r="250"/><circle cx="475" cy="-337.5" r="250"/><circle cx="475" cy="337.5" r="250"/><polygon points="-225,337.5 -225,-337.5 -725,-337.5 -725,337.5"/><polygon points="-475,-587.5 475,-587.5 475,-87.5 -475,-87.5"/><polygon points="725,-337.5 725,337.5 225,337.5 225,-337.5"/><polygon points="475,87.5 -475,87.5 -475,587.5 475,587.5"/></g><g id="y2-g2_1GtqjGvQc3BcVr_pad-15"><polygon points="-712.5,-100 712.5,-100 712.5,100 -712.5,100"/><circle cx="-712.5" cy="-100" r="100"/><circle cx="712.5" cy="-100" r="100"/><circle cx="712.5" cy="100" r="100"/><circle cx="-712.5" cy="100" r="100"/><polygon points="-712.5,-200 712.5,-200 712.5,0 -712.5,0"/><polygon points="812.5,-100 812.5,100 612.5,100 612.5,-100"/><polygon points="712.5,0 -712.5,0 -712.5,200 712.5,200"/><polygon points="-612.5,100 -612.5,-100 -812.5,-100 -812.5,100"/></g><rect x="-500" y="-500" width="1000" height="1000" id="y2-g2_1GtqjGvQc3BcVr_pad-16"/><rect x="-525" y="-1100" width="1050" height="2200" id="y2-g2_1GtqjGvQc3BcVr_pad-17"/><rect x="-850" y="-850" width="1700" height="1700" id="y2-g2_1GtqjGvQc3BcVr_pad-18"/><rect x="-850" y="-850" width="1700" height="1700" rx="850" ry="850" id="y2-g2_1GtqjGvQc3BcVr_pad-19"/><g id="y2-g2_1GtqjGvQc3BcVr_pad-20"><polygon points="450,-350 450,350 -450,350 -450,-350"/><circle cx="450" cy="-350" r="250"/><circle cx="450" cy="350" r="250"/><circle cx="-450" cy="350" r="250"/><circle cx="-450" cy="-350" r="250"/><polygon points="700,-350 700,350 200,350 200,-350"/><polygon points="450,100 -450,100 -450,600 450,600"/><polygon points="-200,350 -200,-350 -700,-350 -700,350"/><polygon points="-450,-600 450,-600 450,-100 -450,-100"/></g><g id="y2-g2_1GtqjGvQc3BcVr_pad-21"><polygon points="337.5,475 -337.5,475 -337.5,-475 337.5,-475"/><circle cx="337.5" cy="475" r="250"/><circle cx="-337.5" cy="475" r="250"/><circle cx="-337.5" cy="-475" r="250"/><circle cx="337.5" cy="-475" r="250"/><polygon points="337.5,225 -337.5,225 -337.5,725 337.5,725"/><polygon points="-87.5,475 -87.5,-475 -587.5,-475 -587.5,475"/><polygon points="-337.5,-725 337.5,-725 337.5,-225 -337.5,-225"/><polygon points="587.5,-475 587.5,475 87.5,475 87.5,-475"/></g><circle cx="0" cy="0" r="1000" id="y2-g2_1GtqjGvQc3BcVr_pad-22"/><g id="y2-g2_1GtqjGvQc3BcVr_pad-23"><polygon points="-350,-450 350,-450 350,450 -350,450"/><circle cx="-350" cy="-450" r="250"/><circle cx="350" cy="-450" r="250"/><circle cx="350" cy="450" r="250"/><circle cx="-350" cy="450" r="250"/><polygon points="-350,-700 350,-700 350,-200 -350,-200"/><polygon points="600,-450 600,450 100,450 100,-450"/><polygon points="350,200 -350,200 -350,700 350,700"/><polygon points="-100,450 -100,-450 -600,-450 -600,450"/></g><rect x="-1500" y="-1500" width="3000" height="3000" id="y2-g2_1GtqjGvQc3BcVr_pad-24"/><g id="y2-g2_1GtqjGvQc3BcVr_pad-25"><polygon points="-337.5,-475 337.5,-475 337.5,475 -337.5,475"/><circle cx="-337.5" cy="-475" r="250"/><circle cx="337.5" cy="-475" r="250"/><circle cx="337.5" cy="475" r="250"/><circle cx="-337.5" cy="475" r="250"/><polygon points="-337.5,-725 337.5,-725 337.5,-225 -337.5,-225"/><polygon points="587.5,-475 587.5,475 87.5,475 87.5,-475"/><polygon points="337.5,225 -337.5,225 -337.5,725 337.5,725"/><polygon points="-87.5,475 -87.5,-475 -587.5,-475 -587.5,475"/></g><rect x="-1255" y="-500" width="2510" height="1000" id="y2-g2_1GtqjGvQc3BcVr_pad-26"/><g id="y2-g2_1GtqjGvQc3BcVr_pad-27"><polygon points="350,450 -350,450 -350,-450 350,-450"/><circle cx="350" cy="450" r="250"/><circle cx="-350" cy="450" r="250"/><circle cx="-350" cy="-450" r="250"/><circle cx="350" cy="-450" r="250"/><polygon points="350,200 -350,200 -350,700 350,700"/><polygon points="-100,450 -100,-450 -600,-450 -600,450"/><polygon points="-350,-700 350,-700 350,-200 -350,-200"/><polygon points="600,-450 600,450 100,450 100,-450"/></g><circle cx="0" cy="0" r="250" id="y2-g2_1GtqjGvQc3BcVr_pad-28"/><rect x="-1000" y="-1000" width="2000" height="2000" id="y2-g2_1GtqjGvQc3BcVr_pad-29"/><g id="y2-g2_1GtqjGvQc3BcVr_pad-30"><polygon points="-450,350 -450,-350 450,-350 450,350"/><circle cx="-450" cy="350" r="250"/><circle cx="-450" cy="-350" r="250"/><circle cx="450" cy="-350" r="250"/><circle cx="450" cy="350" r="250"/><polygon points="-200,350 -200,-350 -700,-350 -700,350"/><polygon points="-450,-600 450,-600 450,-100 -450,-100"/><polygon points="700,-350 700,350 200,350 200,-350"/><polygon points="450,100 -450,100 -450,600 450,600"/></g><circle cx="0" cy="0" r="654" id="y2-g2_1GtqjGvQc3BcVr_pad-31"/><circle cx="0" cy="0" r="629" id="y2-g2_1GtqjGvQc3BcVr_pad-32"/><circle cx="0" cy="0" r="604" id="y2-g2_1GtqjGvQc3BcVr_pad-33"/><g id="y2-g2_1GtqjGvQc3BcVr_pad-34"><polygon points="200,450 -200,450 -200,-450 200,-450"/><circle cx="200" cy="450" r="200"/><circle cx="-200" cy="450" r="200"/><circle cx="-200" cy="-450" r="200"/><circle cx="200" cy="-450" r="200"/><polygon points="200,250 -200,250 -200,650 200,650"/><polygon points="0,450 0,-450 -400,-450 -400,450"/><polygon points="-200,-650 200,-650 200,-250 -200,-250"/><polygon points="400,-450 400,450 0,450 0,-450"/></g><rect x="-400" y="-650" width="800" height="1300" rx="400" ry="400" id="y2-g2_1GtqjGvQc3BcVr_pad-35"/><rect x="-187.5" y="-512.5" width="375" height="1025" id="y2-g2_1GtqjGvQc3BcVr_pad-36"/><rect x="-150" y="-562.5" width="300" height="1125" id="y2-g2_1GtqjGvQc3BcVr_pad-37"/><rect x="-187.5" y="-500" width="375" height="1000" id="y2-g2_1GtqjGvQc3BcVr_pad-38"/><circle cx="0" cy="0" r="1625" id="y2-g2_1GtqjGvQc3BcVr_pad-39"/><g id="y2-g2_1GtqjGvQc3BcVr_pad-40"><polygon points="-499.5,-499.5 499.5,-499.5 499.5,499.5 -499.5,499.5"/><circle cx="-499.5" cy="-499.5" r="250.5"/><circle cx="499.5" cy="-499.5" r="250.5"/><circle cx="499.5" cy="499.5" r="250.5"/><circle cx="-499.5" cy="499.5" r="250.5"/><polygon points="-499.5,-750 499.5,-750 499.5,-249 -499.5,-249"/><polygon points="750,-499.5 750,499.5 249,499.5 249,-499.5"/><polygon points="499.5,249 -499.5,249 -499.5,750 499.5,750"/><polygon points="-249,499.5 -249,-499.5 -750,-499.5 -750,499.5"/></g><circle cx="0" cy="0" r="750" id="y2-g2_1GtqjGvQc3BcVr_pad-41"/><circle cx="0" cy="0" r="1250" id="y2-g2_1GtqjGvQc3BcVr_pad-42"/></defs><g transform="translate(0,-164638.999) scale(1,-1)" fill="currentColor" stroke="currentColor"><path d="M 27189.523 -73702.38 26856.19 -73226.19 M 26618.095 -73702.38 26618.095 -72702.38 26999.047 -72702.38 27094.285 -72750 27141.904 -72797.619 27189.523 -72892.857 27189.523 -73035.714 27141.904 -73130.952 27094.285 -73178.571 26999.047 -73226.19 26618.095 -73226.19 M 27999.047 -73654.761 27903.809 -73702.38 27713.333 -73702.38 27618.095 -73654.761 27570.476 -73559.523 27570.476 -73178.571 27618.095 -73083.333 27713.333 -73035.714 27903.809 -73035.714 27999.047 -73083.333 28046.666 -73178.571 28046.666 -73273.809 27570.476 -73369.047 M 28380 -73035.714 28618.095 -73702.38 28856.19 -73035.714 M 29237.142 -73607.142 29284.761 -73654.761 29237.142 -73702.38 29189.523 -73654.761 29237.142 -73607.142 29237.142 -73702.38 M 29237.142 -73083.333 29284.761 -73130.952 29237.142 -73178.571 29189.523 -73130.952 29237.142 -73083.333 29237.142 -73178.571 M 30427.619 -72797.619 30475.238 -72750 30570.476 -72702.38 30808.571 -72702.38 30903.809 -72750 30951.428 -72797.619 30999.047 -72892.857 30999.047 -72988.095 30951.428 -73130.952 30380 -73702.38 30999.047 -73702.38 M 31427.619 -73607.142 31475.238 -73654.761 31427.619 -73702.38 31380 -73654.761 31427.619 -73607.142 31427.619 -73702.38 M 32380 -72702.38 31903.809 -72702.38 31856.19 -73178.571 31903.809 -73130.952 31999.047 -73083.333 32237.142 -73083.333 32332.38 -73130.952 32380 -73178.571 32427.619 -73273.809 32427.619 -73511.904 32380 -73607.142 32332.38 -73654.761 32237.142 -73702.38 31999.047 -73702.38 31903.809 -73654.761 31856.19 -73607.142 M 79189.523 -73702.38 78856.19 -73226.19 M 78618.095 -73702.38 78618.095 -72702.38 78999.047 -72702.38 79094.285 -72750 79141.904 -72797.619 79189.523 -72892.857 79189.523 -73035.714 79141.904 -73130.952 79094.285 -73178.571 78999.047 -73226.19 78618.095 -73226.19 M 79999.047 -73654.761 79903.809 -73702.38 79713.333 -73702.38 79618.095 -73654.761 79570.476 -73559.523 79570.476 -73178.571 79618.095 -73083.333 79713.333 -73035.714 79903.809 -73035.714 79999.047 -73083.333 80046.666 -73178.571 80046.666 -73273.809 79570.476 -73369.047 M 80380 -73035.714 80618.095 -73702.38 80856.19 -73035.714 M 81237.142 -73607.142 81284.761 -73654.761 81237.142 -73702.38 81189.523 -73654.761 81237.142 -73607.142 81237.142 -73702.38 M 81237.142 -73083.333 81284.761 -73130.952 81237.142 -73178.571 81189.523 -73130.952 81237.142 -73083.333 81237.142 -73178.571 M 82427.619 -72797.619 82475.238 -72750 82570.476 -72702.38 82808.571 -72702.38 82903.809 -72750 82951.428 -72797.619 82999.047 -72892.857 82999.047 -72988.095 82951.428 -73130.952 82380 -73702.38 82999.047 -73702.38 M 83427.619 -73607.142 83475.238 -73654.761 83427.619 -73702.38 83380 -73654.761 83427.619 -73607.142 83427.619 -73702.38 M 84380 -72702.38 83903.809 -72702.38 83856.19 -73178.571 83903.809 -73130.952 83999.047 -73083.333 84237.142 -73083.333 84332.38 -73130.952 84380 -73178.571 84427.619 -73273.809 84427.619 -73511.904 84380 -73607.142 84332.38 -73654.761 84237.142 -73702.38 83999.047 -73702.38 83903.809 -73654.761 83856.19 -73607.142 M 120191.428 -136202.38 119858.095 -135726.19 M 119620 -136202.38 119620 -135202.38 120000.952 -135202.38 120096.19 -135250 120143.809 -135297.619 120191.428 -135392.857 120191.428 -135535.714 120143.809 -135630.952 120096.19 -135678.571 120000.952 -135726.19 119620 -135726.19 M 121000.952 -136154.761 120905.714 -136202.38 120715.238 -136202.38 120620 -136154.761 120572.38 -136059.523 120572.38 -135678.571 120620 -135583.333 120715.238 -135535.714 120905.714 -135535.714 121000.952 -135583.333 121048.571 -135678.571 121048.571 -135773.809 120572.38 -135869.047 M 121381.904 -135535.714 121620 -136202.38 121858.095 -135535.714 M 122239.047 -136107.142 122286.666 -136154.761 122239.047 -136202.38 122191.428 -136154.761 122239.047 -136107.142 122239.047 -136202.38 M 122239.047 -135583.333 122286.666 -135630.952 122239.047 -135678.571 122191.428 -135630.952 122239.047 -135583.333 122239.047 -135678.571 M 123429.523 -135297.619 123477.142 -135250 123572.38 -135202.38 123810.476 -135202.38 123905.714 -135250 123953.333 -135297.619 124000.952 -135392.857 124000.952 -135488.095 123953.333 -135630.952 123381.904 -136202.38 124000.952 -136202.38 M 124429.523 -136107.142 124477.142 -136154.761 124429.523 -136202.38 124381.904 -136154.761 124429.523 -136107.142 124429.523 -136202.38 M 125381.904 -135202.38 124905.714 -135202.38 124858.095 -135678.571 124905.714 -135630.952 125000.952 -135583.333 125239.047 -135583.333 125334.285 -135630.952 125381.904 -135678.571 125429.523 -135773.809 125429.523 -136011.904 125381.904 -136107.142 125334.285 -136154.761 125239.047 -136202.38 125000.952 -136202.38 124905.714 -136154.761 124858.095 -136107.142" fill="none" stroke-width="200"/><use xlink:href="#y2-g2_1GtqjGvQc3BcVr_pad-11" x="36500" y="-133250"/><use xlink:href="#y2-g2_1GtqjGvQc3BcVr_pad-12" x="34500" y="-133250"/><use xlink:href="#y2-g2_1GtqjGvQc3BcVr_pad-13" x="52000" y="-30537.5"/><use xlink:href="#y2-g2_1GtqjGvQc3BcVr_pad-13" x="52000" y="-28462.5"/><use xlink:href="#y2-g2_1GtqjGvQc3BcVr_pad-14" x="64500" y="-54962.5"/><use xlink:href="#y2-g2_1GtqjGvQc3BcVr_pad-14" x="64500" y="-57037.5"/><use xlink:href="#y2-g2_1GtqjGvQc3BcVr_pad-15" x="108387.499" y="-32025"/><use xlink:href="#y2-g2_1GtqjGvQc3BcVr_pad-15" x="108387.499" y="-32675"/><use xlink:href="#y2-g2_1GtqjGvQc3BcVr_pad-15" x="108387.499" y="-33325"/><use xlink:href="#y2-g2_1GtqjGvQc3BcVr_pad-15" x="108387.499" y="-33975"/><use xlink:href="#y2-g2_1GtqjGvQc3BcVr_pad-15" x="112612.499" y="-33975"/><use xlink:href="#y2-g2_1GtqjGvQc3BcVr_pad-15" x="112612.499" y="-33325"/><use xlink:href="#y2-g2_1GtqjGvQc3BcVr_pad-15" x="112612.499" y="-32675"/><use xlink:href="#y2-g2_1GtqjGvQc3BcVr_pad-15" x="112612.499" y="-32025"/><use xlink:href="#y2-g2_1GtqjGvQc3BcVr_pad-16" x="113750" y="-67250"/><use xlink:href="#y2-g2_1GtqjGvQc3BcVr_pad-17" x="115225" y="-68750"/><use xlink:href="#y2-g2_1GtqjGvQc3BcVr_pad-16" x="113750" y="-70250"/><use xlink:href="#y2-g2_1GtqjGvQc3BcVr_pad-17" x="112275" y="-68750"/><use xlink:href="#y2-g2_1GtqjGvQc3BcVr_pad-16" x="120250" y="-67249.999"/><use xlink:href="#y2-g2_1GtqjGvQc3BcVr_pad-17" x="121725" y="-68749.999"/><use xlink:href="#y2-g2_1GtqjGvQc3BcVr_pad-17" x="118775" y="-68749.999"/><use xlink:href="#y2-g2_1GtqjGvQc3BcVr_pad-16" x="120250" y="-70249.999"/><use xlink:href="#y2-g2_1GtqjGvQc3BcVr_pad-18" x="69275.001" y="-132499.999"/><use xlink:href="#y2-g2_1GtqjGvQc3BcVr_pad-19" x="69275.001" y="-129959.999"/><use xlink:href="#y2-g2_1GtqjGvQc3BcVr_pad-19" x="69275.001" y="-127419.999"/><use xlink:href="#y2-g2_1GtqjGvQc3BcVr_pad-19" x="69275.001" y="-124879.999"/><use xlink:href="#y2-g2_1GtqjGvQc3BcVr_pad-19" x="69275.001" y="-122339.999"/><use xlink:href="#y2-g2_1GtqjGvQc3BcVr_pad-19" x="69275.001" y="-119799.999"/><use xlink:href="#y2-g2_1GtqjGvQc3BcVr_pad-19" x="69275.001" y="-117259.999"/><use xlink:href="#y2-g2_1GtqjGvQc3BcVr_pad-20" x="48000" y="-30500"/><use xlink:href="#y2-g2_1GtqjGvQc3BcVr_pad-20" x="48000" y="-28500"/><use xlink:href="#y2-g2_1GtqjGvQc3BcVr_pad-20" x="44000" y="-30500"/><use xlink:href="#y2-g2_1GtqjGvQc3BcVr_pad-20" x="44000" y="-28500"/><use xlink:href="#y2-g2_1GtqjGvQc3BcVr_pad-21" x="82537.5" y="-32500.001"/><use xlink:href="#y2-g2_1GtqjGvQc3BcVr_pad-21" x="80462.5" y="-32500.001"/><use xlink:href="#y2-g2_1GtqjGvQc3BcVr_pad-22" x="71000" y="-33500"/><use xlink:href="#y2-g2_1GtqjGvQc3BcVr_pad-23" x="116999.999" y="-32500"/><use xlink:href="#y2-g2_1GtqjGvQc3BcVr_pad-23" x="118999.999" y="-32500"/><use xlink:href="#y2-g2_1GtqjGvQc3BcVr_pad-21" x="82537.5" y="-36500.001"/><use xlink:href="#y2-g2_1GtqjGvQc3BcVr_pad-21" x="80462.5" y="-36500.001"/><use xlink:href="#y2-g2_1GtqjGvQc3BcVr_pad-24" x="42750" y="-68750"/><use xlink:href="#y2-g2_1GtqjGvQc3BcVr_pad-25" x="85462.5" y="-28500.001"/><use xlink:href="#y2-g2_1GtqjGvQc3BcVr_pad-25" x="87537.5" y="-28500.001"/><use xlink:href="#y2-g2_1GtqjGvQc3BcVr_pad-14" x="114000" y="-49962.499"/><use xlink:href="#y2-g2_1GtqjGvQc3BcVr_pad-14" x="114000" y="-52037.499"/><use xlink:href="#y2-g2_1GtqjGvQc3BcVr_pad-26" x="123655" y="-42380"/><use xlink:href="#y2-g2_1GtqjGvQc3BcVr_pad-26" x="120345" y="-44920"/><use xlink:href="#y2-g2_1GtqjGvQc3BcVr_pad-26" x="123655" y="-47460"/><use xlink:href="#y2-g2_1GtqjGvQc3BcVr_pad-26" x="120345" y="-50000"/><use xlink:href="#y2-g2_1GtqjGvQc3BcVr_pad-26" x="123655" y="-52540"/><use xlink:href="#y2-g2_1GtqjGvQc3BcVr_pad-26" x="120345" y="-55080"/><use xlink:href="#y2-g2_1GtqjGvQc3BcVr_pad-26" x="123655" y="-57620"/><use xlink:href="#y2-g2_1GtqjGvQc3BcVr_pad-27" x="82500" y="-28500.001"/><use xlink:href="#y2-g2_1GtqjGvQc3BcVr_pad-27" x="80500" y="-28500.001"/><use xlink:href="#y2-g2_1GtqjGvQc3BcVr_pad-18" x="61290.001" y="-79749.999"/><use xlink:href="#y2-g2_1GtqjGvQc3BcVr_pad-19" x="58750.001" y="-79749.999"/><use xlink:href="#y2-g2_1GtqjGvQc3BcVr_pad-19" x="56210.001" y="-79749.999"/><use xlink:href="#y2-g2_1GtqjGvQc3BcVr_pad-19" x="53670.001" y="-79749.999"/><use xlink:href="#y2-g2_1GtqjGvQc3BcVr_pad-19" x="51130.001" y="-79749.999"/><use xlink:href="#y2-g2_1GtqjGvQc3BcVr_pad-22" x="123000" y="-36500"/><use xlink:href="#y2-g2_1GtqjGvQc3BcVr_pad-20" x="100000" y="-30500"/><use xlink:href="#y2-g2_1GtqjGvQc3BcVr_pad-20" x="100000" y="-28500"/><use xlink:href="#y2-g2_1GtqjGvQc3BcVr_pad-16" x="107250" y="-67250"/><use xlink:href="#y2-g2_1GtqjGvQc3BcVr_pad-16" x="107250" y="-70250"/><use xlink:href="#y2-g2_1GtqjGvQc3BcVr_pad-17" x="105775" y="-68750"/><use xlink:href="#y2-g2_1GtqjGvQc3BcVr_pad-17" x="108725" y="-68750"/><use xlink:href="#y2-g2_1GtqjGvQc3BcVr_pad-25" x="33462.5" y="-28500"/><use xlink:href="#y2-g2_1GtqjGvQc3BcVr_pad-25" x="35537.5" y="-28500"/><use xlink:href="#y2-g2_1GtqjGvQc3BcVr_pad-18" x="91380.001" y="-87499.999"/><use xlink:href="#y2-g2_1GtqjGvQc3BcVr_pad-19" x="93920.001" y="-87499.999"/><use xlink:href="#y2-g2_1GtqjGvQc3BcVr_pad-19" x="96460.001" y="-87499.999"/><use xlink:href="#y2-g2_1GtqjGvQc3BcVr_pad-19" x="99000.001" y="-87499.999"/><use xlink:href="#y2-g2_1GtqjGvQc3BcVr_pad-19" x="101540.001" y="-87499.999"/><use xlink:href="#y2-g2_1GtqjGvQc3BcVr_pad-19" x="104080.001" y="-87499.999"/><use xlink:href="#y2-g2_1GtqjGvQc3BcVr_pad-19" x="106620.001" y="-87499.999"/><use xlink:href="#y2-g2_1GtqjGvQc3BcVr_pad-26" x="71655" y="-42380"/><use xlink:href="#y2-g2_1GtqjGvQc3BcVr_pad-26" x="68345" y="-44920"/><use xlink:href="#y2-g2_1GtqjGvQc3BcVr_pad-26" x="71655" y="-47460"/><use xlink:href="#y2-g2_1GtqjGvQc3BcVr_pad-26" x="68345" y="-50000"/><use xlink:href="#y2-g2_1GtqjGvQc3BcVr_pad-26" x="71655" y="-52540"/><use xlink:href="#y2-g2_1GtqjGvQc3BcVr_pad-26" x="68345" y="-55080"/><use xlink:href="#y2-g2_1GtqjGvQc3BcVr_pad-26" x="71655" y="-57620"/><use xlink:href="#y2-g2_1GtqjGvQc3BcVr_pad-20" x="92000" y="-32250"/><use xlink:href="#y2-g2_1GtqjGvQc3BcVr_pad-20" x="92000" y="-30250"/><use xlink:href="#y2-g2_1GtqjGvQc3BcVr_pad-23" x="87750.001" y="-61500"/><use xlink:href="#y2-g2_1GtqjGvQc3BcVr_pad-23" x="89750.001" y="-61500"/><use xlink:href="#y2-g2_1GtqjGvQc3BcVr_pad-23" x="30750" y="-61500"/><use xlink:href="#y2-g2_1GtqjGvQc3BcVr_pad-23" x="32750" y="-61500"/><use xlink:href="#y2-g2_1GtqjGvQc3BcVr_pad-20" x="44000" y="-36000"/><use xlink:href="#y2-g2_1GtqjGvQc3BcVr_pad-20" x="44000" y="-34000"/><use xlink:href="#y2-g2_1GtqjGvQc3BcVr_pad-20" x="100000" y="-36000"/><use xlink:href="#y2-g2_1GtqjGvQc3BcVr_pad-20" x="100000" y="-34000"/><use xlink:href="#y2-g2_1GtqjGvQc3BcVr_pad-14" x="40750" y="-61500"/><use xlink:href="#y2-g2_1GtqjGvQc3BcVr_pad-14" x="40750" y="-63575"/><use xlink:href="#y2-g2_1GtqjGvQc3BcVr_pad-21" x="32787.5" y="-65500"/><use xlink:href="#y2-g2_1GtqjGvQc3BcVr_pad-21" x="30712.5" y="-65500"/><use xlink:href="#y2-g2_1GtqjGvQc3BcVr_pad-21" x="30537.5" y="-36500"/><use xlink:href="#y2-g2_1GtqjGvQc3BcVr_pad-21" x="28462.5" y="-36500"/><use xlink:href="#y2-g2_1GtqjGvQc3BcVr_pad-14" x="38750.001" y="-79462.499"/><use xlink:href="#y2-g2_1GtqjGvQc3BcVr_pad-14" x="38750.001" y="-81537.499"/><use xlink:href="#y2-g2_1GtqjGvQc3BcVr_pad-20" x="96000" y="-36000"/><use xlink:href="#y2-g2_1GtqjGvQc3BcVr_pad-20" x="96000" y="-34000"/><use xlink:href="#y2-g2_1GtqjGvQc3BcVr_pad-25" x="121962.499" y="-28500"/><use xlink:href="#y2-g2_1GtqjGvQc3BcVr_pad-25" x="124037.499" y="-28500"/><use xlink:href="#y2-g2_1GtqjGvQc3BcVr_pad-28" x="76750" y="-34250"/><use xlink:href="#y2-g2_1GtqjGvQc3BcVr_pad-28" x="76750" y="-35000"/><use xlink:href="#y2-g2_1GtqjGvQc3BcVr_pad-28" x="75250" y="-35750"/><use xlink:href="#y2-g2_1GtqjGvQc3BcVr_pad-28" x="76750" y="-35750"/><use xlink:href="#y2-g2_1GtqjGvQc3BcVr_pad-28" x="75250" y="-35000"/><use xlink:href="#y2-g2_1GtqjGvQc3BcVr_pad-28" x="75250" y="-34250"/><use xlink:href="#y2-g2_1GtqjGvQc3BcVr_pad-25" x="69962.5" y="-28500"/><use xlink:href="#y2-g2_1GtqjGvQc3BcVr_pad-25" x="72037.5" y="-28500"/><use xlink:href="#y2-g2_1GtqjGvQc3BcVr_pad-26" x="36655" y="-44882.5"/><use xlink:href="#y2-g2_1GtqjGvQc3BcVr_pad-26" x="33345" y="-47422.5"/><use xlink:href="#y2-g2_1GtqjGvQc3BcVr_pad-26" x="36655" y="-49962.5"/><use xlink:href="#y2-g2_1GtqjGvQc3BcVr_pad-26" x="33345" y="-52502.5"/><use xlink:href="#y2-g2_1GtqjGvQc3BcVr_pad-26" x="36655" y="-55042.5"/><use xlink:href="#y2-g2_1GtqjGvQc3BcVr_pad-22" x="71000" y="-36500"/><use xlink:href="#y2-g2_1GtqjGvQc3BcVr_pad-23" x="60000" y="-28500"/><use xlink:href="#y2-g2_1GtqjGvQc3BcVr_pad-23" x="62000" y="-28500"/><use xlink:href="#y2-g2_1GtqjGvQc3BcVr_pad-23" x="33500" y="-32500"/><use xlink:href="#y2-g2_1GtqjGvQc3BcVr_pad-23" x="35500" y="-32500"/><use xlink:href="#y2-g2_1GtqjGvQc3BcVr_pad-29" x="80500.001" y="-130620.784"/><use xlink:href="#y2-g2_1GtqjGvQc3BcVr_pad-22" x="80500.001" y="-125620.784"/><use xlink:href="#y2-g2_1GtqjGvQc3BcVr_pad-21" x="30537.5" y="-32500"/><use xlink:href="#y2-g2_1GtqjGvQc3BcVr_pad-21" x="28462.5" y="-32500"/><use xlink:href="#y2-g2_1GtqjGvQc3BcVr_pad-30" x="38750.001" y="-84499.999"/><use xlink:href="#y2-g2_1GtqjGvQc3BcVr_pad-30" x="38750.001" y="-86499.999"/><use xlink:href="#y2-g2_1GtqjGvQc3BcVr_pad-16" x="68250" y="-67250"/><use xlink:href="#y2-g2_1GtqjGvQc3BcVr_pad-17" x="66775" y="-68750"/><use xlink:href="#y2-g2_1GtqjGvQc3BcVr_pad-17" x="69725" y="-68750"/><use xlink:href="#y2-g2_1GtqjGvQc3BcVr_pad-16" x="68250" y="-70250"/><use xlink:href="#y2-g2_1GtqjGvQc3BcVr_pad-16" x="48750" y="-67250"/><use xlink:href="#y2-g2_1GtqjGvQc3BcVr_pad-17" x="47275" y="-68750"/><use xlink:href="#y2-g2_1GtqjGvQc3BcVr_pad-17" x="50225" y="-68750"/><use xlink:href="#y2-g2_1GtqjGvQc3BcVr_pad-16" x="48750" y="-70250"/><use xlink:href="#y2-g2_1GtqjGvQc3BcVr_pad-20" x="48000" y="-36000"/><use xlink:href="#y2-g2_1GtqjGvQc3BcVr_pad-20" x="48000" y="-34000"/><use xlink:href="#y2-g2_1GtqjGvQc3BcVr_pad-27" x="32000" y="-40000"/><use xlink:href="#y2-g2_1GtqjGvQc3BcVr_pad-27" x="30000" y="-40000"/><use xlink:href="#y2-g2_1GtqjGvQc3BcVr_pad-31" x="43120.001" y="-133669.999"/><use xlink:href="#y2-g2_1GtqjGvQc3BcVr_pad-31" x="43120.001" y="-131129.999"/><use xlink:href="#y2-g2_1GtqjGvQc3BcVr_pad-31" x="43120.001" y="-128589.999"/><use xlink:href="#y2-g2_1GtqjGvQc3BcVr_pad-31" x="43120.001" y="-126049.999"/><use xlink:href="#y2-g2_1GtqjGvQc3BcVr_pad-31" x="43120.001" y="-100649.999"/><use xlink:href="#y2-g2_1GtqjGvQc3BcVr_pad-31" x="27880.001" y="-131129.999"/><use xlink:href="#y2-g2_1GtqjGvQc3BcVr_pad-31" x="38040.001" y="-90489.999"/><use xlink:href="#y2-g2_1GtqjGvQc3BcVr_pad-31" x="43120.001" y="-123509.999"/><use xlink:href="#y2-g2_1GtqjGvQc3BcVr_pad-31" x="43120.001" y="-120969.999"/><use xlink:href="#y2-g2_1GtqjGvQc3BcVr_pad-32" x="40070.001" y="-129859.999"/><use xlink:href="#y2-g2_1GtqjGvQc3BcVr_pad-31" x="43120.001" y="-118429.999"/><use xlink:href="#y2-g2_1GtqjGvQc3BcVr_pad-31" x="43120.001" y="-115889.999"/><use xlink:href="#y2-g2_1GtqjGvQc3BcVr_pad-31" x="43120.001" y="-113349.999"/><use xlink:href="#y2-g2_1GtqjGvQc3BcVr_pad-31" x="43120.001" y="-110809.999"/><use xlink:href="#y2-g2_1GtqjGvQc3BcVr_pad-31" x="43120.001" y="-108269.999"/><use xlink:href="#y2-g2_1GtqjGvQc3BcVr_pad-31" x="43120.001" y="-105729.999"/><use xlink:href="#y2-g2_1GtqjGvQc3BcVr_pad-31" x="43120.001" y="-103189.999"/><use xlink:href="#y2-g2_1GtqjGvQc3BcVr_pad-31" x="27880.001" y="-103189.999"/><use xlink:href="#y2-g2_1GtqjGvQc3BcVr_pad-31" x="27880.001" y="-105729.999"/><use xlink:href="#y2-g2_1GtqjGvQc3BcVr_pad-31" x="27880.001" y="-108269.999"/><use xlink:href="#y2-g2_1GtqjGvQc3BcVr_pad-31" x="27880.001" y="-110809.999"/><use xlink:href="#y2-g2_1GtqjGvQc3BcVr_pad-31" x="27880.001" y="-113349.999"/><use xlink:href="#y2-g2_1GtqjGvQc3BcVr_pad-31" x="27880.001" y="-115889.999"/><use xlink:href="#y2-g2_1GtqjGvQc3BcVr_pad-31" x="27880.001" y="-118429.999"/><use xlink:href="#y2-g2_1GtqjGvQc3BcVr_pad-31" x="27880.001" y="-120969.999"/><use xlink:href="#y2-g2_1GtqjGvQc3BcVr_pad-31" x="27880.001" y="-123509.999"/><use xlink:href="#y2-g2_1GtqjGvQc3BcVr_pad-31" x="27880.001" y="-126049.999"/><use xlink:href="#y2-g2_1GtqjGvQc3BcVr_pad-31" x="27880.001" y="-128589.999"/><use xlink:href="#y2-g2_1GtqjGvQc3BcVr_pad-31" x="43120.001" y="-98109.999"/><use xlink:href="#y2-g2_1GtqjGvQc3BcVr_pad-31" x="43120.001" y="-95569.999"/><use xlink:href="#y2-g2_1GtqjGvQc3BcVr_pad-31" x="43120.001" y="-93029.999"/><use xlink:href="#y2-g2_1GtqjGvQc3BcVr_pad-31" x="43120.001" y="-90489.999"/><use xlink:href="#y2-g2_1GtqjGvQc3BcVr_pad-31" x="43120.001" y="-87949.999"/><use xlink:href="#y2-g2_1GtqjGvQc3BcVr_pad-31" x="43120.001" y="-85409.999"/><use xlink:href="#y2-g2_1GtqjGvQc3BcVr_pad-31" x="43120.001" y="-82869.999"/><use xlink:href="#y2-g2_1GtqjGvQc3BcVr_pad-31" x="43120.001" y="-80329.999"/><use xlink:href="#y2-g2_1GtqjGvQc3BcVr_pad-31" x="43120.001" y="-77789.999"/><use xlink:href="#y2-g2_1GtqjGvQc3BcVr_pad-31" x="27880.001" y="-77789.999"/><use xlink:href="#y2-g2_1GtqjGvQc3BcVr_pad-31" x="27880.001" y="-80329.999"/><use xlink:href="#y2-g2_1GtqjGvQc3BcVr_pad-31" x="27880.001" y="-82869.999"/><use xlink:href="#y2-g2_1GtqjGvQc3BcVr_pad-31" x="27880.001" y="-85409.999"/><use xlink:href="#y2-g2_1GtqjGvQc3BcVr_pad-31" x="27880.001" y="-87949.999"/><use xlink:href="#y2-g2_1GtqjGvQc3BcVr_pad-31" x="27880.001" y="-90489.999"/><use xlink:href="#y2-g2_1GtqjGvQc3BcVr_pad-31" x="27880.001" y="-93029.999"/><use xlink:href="#y2-g2_1GtqjGvQc3BcVr_pad-31" x="27880.001" y="-95569.999"/><use xlink:href="#y2-g2_1GtqjGvQc3BcVr_pad-31" x="27880.001" y="-98109.999"/><use xlink:href="#y2-g2_1GtqjGvQc3BcVr_pad-32" x="40070.001" y="-124779.999"/><use xlink:href="#y2-g2_1GtqjGvQc3BcVr_pad-32" x="40070.001" y="-127319.999"/><use xlink:href="#y2-g2_1GtqjGvQc3BcVr_pad-31" x="43120.001" y="-136209.999"/><use xlink:href="#y2-g2_1GtqjGvQc3BcVr_pad-31" x="27880.001" y="-100649.999"/><use xlink:href="#y2-g2_1GtqjGvQc3BcVr_pad-31" x="27880.001" y="-133669.999"/><use xlink:href="#y2-g2_1GtqjGvQc3BcVr_pad-31" x="35500.001" y="-90489.999"/><use xlink:href="#y2-g2_1GtqjGvQc3BcVr_pad-33" x="32330.001" y="-121239.999"/><use xlink:href="#y2-g2_1GtqjGvQc3BcVr_pad-33" x="32330.001" y="-123239.999"/><use xlink:href="#y2-g2_1GtqjGvQc3BcVr_pad-31" x="30420.001" y="-90489.999"/><use xlink:href="#y2-g2_1GtqjGvQc3BcVr_pad-31" x="32960.001" y="-90489.999"/><use xlink:href="#y2-g2_1GtqjGvQc3BcVr_pad-33" x="30330.001" y="-123239.999"/><use xlink:href="#y2-g2_1GtqjGvQc3BcVr_pad-33" x="30330.001" y="-121239.999"/><use xlink:href="#y2-g2_1GtqjGvQc3BcVr_pad-33" x="34330.001" y="-121239.999"/><use xlink:href="#y2-g2_1GtqjGvQc3BcVr_pad-33" x="34330.001" y="-123239.999"/><use xlink:href="#y2-g2_1GtqjGvQc3BcVr_pad-32" x="40070.001" y="-122239.999"/><use xlink:href="#y2-g2_1GtqjGvQc3BcVr_pad-32" x="40070.001" y="-119699.999"/><use xlink:href="#y2-g2_1GtqjGvQc3BcVr_pad-31" x="40580.001" y="-90489.999"/><use xlink:href="#y2-g2_1GtqjGvQc3BcVr_pad-31" x="27880.001" y="-136209.999"/><use xlink:href="#y2-g2_1GtqjGvQc3BcVr_pad-31" x="30420.001" y="-133669.999"/><use xlink:href="#y2-g2_1GtqjGvQc3BcVr_pad-14" x="92750.001" y="-61500"/><use xlink:href="#y2-g2_1GtqjGvQc3BcVr_pad-14" x="92750.001" y="-63575"/><use xlink:href="#y2-g2_1GtqjGvQc3BcVr_pad-23" x="85500" y="-32500.001"/><use xlink:href="#y2-g2_1GtqjGvQc3BcVr_pad-23" x="87500" y="-32500.001"/><use xlink:href="#y2-g2_1GtqjGvQc3BcVr_pad-25" x="54962.5" y="-28500"/><use xlink:href="#y2-g2_1GtqjGvQc3BcVr_pad-25" x="57037.5" y="-28500"/><use xlink:href="#y2-g2_1GtqjGvQc3BcVr_pad-15" x="87387.5" y="-38525.001"/><use xlink:href="#y2-g2_1GtqjGvQc3BcVr_pad-15" x="87387.5" y="-39175.001"/><use xlink:href="#y2-g2_1GtqjGvQc3BcVr_pad-15" x="87387.5" y="-39825.001"/><use xlink:href="#y2-g2_1GtqjGvQc3BcVr_pad-15" x="87387.5" y="-40475.001"/><use xlink:href="#y2-g2_1GtqjGvQc3BcVr_pad-15" x="91612.5" y="-40475.001"/><use xlink:href="#y2-g2_1GtqjGvQc3BcVr_pad-15" x="91612.5" y="-39825.001"/><use xlink:href="#y2-g2_1GtqjGvQc3BcVr_pad-15" x="91612.5" y="-39175.001"/><use xlink:href="#y2-g2_1GtqjGvQc3BcVr_pad-15" x="91612.5" y="-38525.001"/><use xlink:href="#y2-g2_1GtqjGvQc3BcVr_pad-25" x="106962.499" y="-28500"/><use xlink:href="#y2-g2_1GtqjGvQc3BcVr_pad-25" x="109037.499" y="-28500"/><use xlink:href="#y2-g2_1GtqjGvQc3BcVr_pad-18" x="93950.001" y="-122724.999"/><use xlink:href="#y2-g2_1GtqjGvQc3BcVr_pad-19" x="96490.001" y="-122724.999"/><use xlink:href="#y2-g2_1GtqjGvQc3BcVr_pad-19" x="99030.001" y="-122724.999"/><use xlink:href="#y2-g2_1GtqjGvQc3BcVr_pad-19" x="101570.001" y="-122724.999"/><use xlink:href="#y2-g2_1GtqjGvQc3BcVr_pad-19" x="104110.001" y="-122724.999"/><use xlink:href="#y2-g2_1GtqjGvQc3BcVr_pad-20" x="96000" y="-30500"/><use xlink:href="#y2-g2_1GtqjGvQc3BcVr_pad-20" x="96000" y="-28500"/><use xlink:href="#y2-g2_1GtqjGvQc3BcVr_pad-23" x="35750" y="-61500"/><use xlink:href="#y2-g2_1GtqjGvQc3BcVr_pad-23" x="37750" y="-61500"/><use xlink:href="#y2-g2_1GtqjGvQc3BcVr_pad-23" x="82750" y="-61500"/><use xlink:href="#y2-g2_1GtqjGvQc3BcVr_pad-23" x="84750" y="-61500"/><use xlink:href="#y2-g2_1GtqjGvQc3BcVr_pad-25" x="64962.5" y="-28500"/><use xlink:href="#y2-g2_1GtqjGvQc3BcVr_pad-25" x="67037.5" y="-28500"/><use xlink:href="#y2-g2_1GtqjGvQc3BcVr_pad-34" x="70000.001" y="-80449.999"/><use xlink:href="#y2-g2_1GtqjGvQc3BcVr_pad-35" x="68750.001" y="-80449.999"/><use xlink:href="#y2-g2_1GtqjGvQc3BcVr_pad-13" x="103999.999" y="-30537.5"/><use xlink:href="#y2-g2_1GtqjGvQc3BcVr_pad-13" x="103999.999" y="-28462.5"/><use xlink:href="#y2-g2_1GtqjGvQc3BcVr_pad-30" x="116999.999" y="-35500"/><use xlink:href="#y2-g2_1GtqjGvQc3BcVr_pad-30" x="116999.999" y="-37500"/><use xlink:href="#y2-g2_1GtqjGvQc3BcVr_pad-30" x="65000" y="-35500"/><use xlink:href="#y2-g2_1GtqjGvQc3BcVr_pad-30" x="65000" y="-37500"/><use xlink:href="#y2-g2_1GtqjGvQc3BcVr_pad-15" x="35387.5" y="-38525"/><use xlink:href="#y2-g2_1GtqjGvQc3BcVr_pad-15" x="35387.5" y="-39175"/><use xlink:href="#y2-g2_1GtqjGvQc3BcVr_pad-15" x="35387.5" y="-39825"/><use xlink:href="#y2-g2_1GtqjGvQc3BcVr_pad-15" x="35387.5" y="-40475"/><use xlink:href="#y2-g2_1GtqjGvQc3BcVr_pad-15" x="39612.5" y="-40475"/><use xlink:href="#y2-g2_1GtqjGvQc3BcVr_pad-15" x="39612.5" y="-39825"/><use xlink:href="#y2-g2_1GtqjGvQc3BcVr_pad-15" x="39612.5" y="-39175"/><use xlink:href="#y2-g2_1GtqjGvQc3BcVr_pad-15" x="39612.5" y="-38525"/><use xlink:href="#y2-g2_1GtqjGvQc3BcVr_pad-13" x="31750.001" y="-81537.499"/><use xlink:href="#y2-g2_1GtqjGvQc3BcVr_pad-13" x="31750.001" y="-79462.499"/><use xlink:href="#y2-g2_1GtqjGvQc3BcVr_pad-36" x="31212.501" y="-103112.499"/><use xlink:href="#y2-g2_1GtqjGvQc3BcVr_pad-37" x="31750.001" y="-103162.499"/><use xlink:href="#y2-g2_1GtqjGvQc3BcVr_pad-36" x="32287.501" y="-103112.499"/><use xlink:href="#y2-g2_1GtqjGvQc3BcVr_pad-38" x="32287.501" y="-100899.999"/><use xlink:href="#y2-g2_1GtqjGvQc3BcVr_pad-37" x="31750.001" y="-100837.499"/><use xlink:href="#y2-g2_1GtqjGvQc3BcVr_pad-38" x="31212.501" y="-100899.999"/><use xlink:href="#y2-g2_1GtqjGvQc3BcVr_pad-36" x="103462.499" y="-36112.5"/><use xlink:href="#y2-g2_1GtqjGvQc3BcVr_pad-37" x="103999.999" y="-36162.5"/><use xlink:href="#y2-g2_1GtqjGvQc3BcVr_pad-36" x="104537.499" y="-36112.5"/><use xlink:href="#y2-g2_1GtqjGvQc3BcVr_pad-38" x="104537.499" y="-33900"/><use xlink:href="#y2-g2_1GtqjGvQc3BcVr_pad-37" x="103999.999" y="-33837.5"/><use xlink:href="#y2-g2_1GtqjGvQc3BcVr_pad-38" x="103462.499" y="-33900"/><use xlink:href="#y2-g2_1GtqjGvQc3BcVr_pad-14" x="31750.001" y="-84462.499"/><use xlink:href="#y2-g2_1GtqjGvQc3BcVr_pad-14" x="31750.001" y="-86537.499"/><use xlink:href="#y2-g2_1GtqjGvQc3BcVr_pad-23" x="65000" y="-32500"/><use xlink:href="#y2-g2_1GtqjGvQc3BcVr_pad-23" x="67000" y="-32500"/><use xlink:href="#y2-g2_1GtqjGvQc3BcVr_pad-15" x="56387.5" y="-32025"/><use xlink:href="#y2-g2_1GtqjGvQc3BcVr_pad-15" x="56387.5" y="-32675"/><use xlink:href="#y2-g2_1GtqjGvQc3BcVr_pad-15" x="56387.5" y="-33325"/><use xlink:href="#y2-g2_1GtqjGvQc3BcVr_pad-15" x="56387.5" y="-33975"/><use xlink:href="#y2-g2_1GtqjGvQc3BcVr_pad-15" x="60612.5" y="-33975"/><use xlink:href="#y2-g2_1GtqjGvQc3BcVr_pad-15" x="60612.5" y="-33325"/><use xlink:href="#y2-g2_1GtqjGvQc3BcVr_pad-15" x="60612.5" y="-32675"/><use xlink:href="#y2-g2_1GtqjGvQc3BcVr_pad-15" x="60612.5" y="-32025"/><use xlink:href="#y2-g2_1GtqjGvQc3BcVr_pad-24" x="94750.001" y="-68750"/><use xlink:href="#y2-g2_1GtqjGvQc3BcVr_pad-25" x="87712.501" y="-65500"/><use xlink:href="#y2-g2_1GtqjGvQc3BcVr_pad-25" x="89787.501" y="-65500"/><use xlink:href="#y2-g2_1GtqjGvQc3BcVr_pad-16" x="55250" y="-67250"/><use xlink:href="#y2-g2_1GtqjGvQc3BcVr_pad-16" x="55250" y="-70250"/><use xlink:href="#y2-g2_1GtqjGvQc3BcVr_pad-17" x="56725" y="-68750"/><use xlink:href="#y2-g2_1GtqjGvQc3BcVr_pad-17" x="53775" y="-68750"/><use xlink:href="#y2-g2_1GtqjGvQc3BcVr_pad-20" x="35250.001" y="-81499.999"/><use xlink:href="#y2-g2_1GtqjGvQc3BcVr_pad-20" x="35250.001" y="-79499.999"/><use xlink:href="#y2-g2_1GtqjGvQc3BcVr_pad-16" x="61750" y="-67250"/><use xlink:href="#y2-g2_1GtqjGvQc3BcVr_pad-17" x="63225" y="-68750"/><use xlink:href="#y2-g2_1GtqjGvQc3BcVr_pad-16" x="61750" y="-70250"/><use xlink:href="#y2-g2_1GtqjGvQc3BcVr_pad-17" x="60275" y="-68750"/><use xlink:href="#y2-g2_1GtqjGvQc3BcVr_pad-16" x="100750.001" y="-67250"/><use xlink:href="#y2-g2_1GtqjGvQc3BcVr_pad-17" x="99275.001" y="-68750"/><use xlink:href="#y2-g2_1GtqjGvQc3BcVr_pad-17" x="102225.001" y="-68750"/><use xlink:href="#y2-g2_1GtqjGvQc3BcVr_pad-16" x="100750.001" y="-70250"/><use xlink:href="#y2-g2_1GtqjGvQc3BcVr_pad-27" x="84000" y="-40000.001"/><use xlink:href="#y2-g2_1GtqjGvQc3BcVr_pad-27" x="82000" y="-40000.001"/><use xlink:href="#y2-g2_1GtqjGvQc3BcVr_pad-18" x="69285.787" y="-107012.892"/><use xlink:href="#y2-g2_1GtqjGvQc3BcVr_pad-19" x="69285.787" y="-104472.892"/><use xlink:href="#y2-g2_1GtqjGvQc3BcVr_pad-19" x="69285.787" y="-101932.892"/><use xlink:href="#y2-g2_1GtqjGvQc3BcVr_pad-19" x="69285.787" y="-99392.892"/><use xlink:href="#y2-g2_1GtqjGvQc3BcVr_pad-19" x="69285.787" y="-96852.892"/><use xlink:href="#y2-g2_1GtqjGvQc3BcVr_pad-19" x="69285.787" y="-94312.892"/><use xlink:href="#y2-g2_1GtqjGvQc3BcVr_pad-36" x="51462.5" y="-36112.5"/><use xlink:href="#y2-g2_1GtqjGvQc3BcVr_pad-37" x="52000" y="-36162.5"/><use xlink:href="#y2-g2_1GtqjGvQc3BcVr_pad-36" x="52537.5" y="-36112.5"/><use xlink:href="#y2-g2_1GtqjGvQc3BcVr_pad-38" x="52537.5" y="-33900"/><use xlink:href="#y2-g2_1GtqjGvQc3BcVr_pad-37" x="52000" y="-33837.5"/><use xlink:href="#y2-g2_1GtqjGvQc3BcVr_pad-38" x="51462.5" y="-33900"/><use xlink:href="#y2-g2_1GtqjGvQc3BcVr_pad-23" x="111999.999" y="-28500"/><use xlink:href="#y2-g2_1GtqjGvQc3BcVr_pad-23" x="113999.999" y="-28500"/><use xlink:href="#y2-g2_1GtqjGvQc3BcVr_pad-25" x="35712.5" y="-65500"/><use xlink:href="#y2-g2_1GtqjGvQc3BcVr_pad-25" x="37787.5" y="-65500"/><use xlink:href="#y2-g2_1GtqjGvQc3BcVr_pad-39" x="50785.001" y="-127399.999"/><use xlink:href="#y2-g2_1GtqjGvQc3BcVr_pad-39" x="62215.001" y="-127399.999"/><use xlink:href="#y2-g2_1GtqjGvQc3BcVr_pad-40" x="52055.001" y="-121049.999"/><use xlink:href="#y2-g2_1GtqjGvQc3BcVr_pad-41" x="53325.001" y="-118509.999"/><use xlink:href="#y2-g2_1GtqjGvQc3BcVr_pad-41" x="54595.001" y="-121049.999"/><use xlink:href="#y2-g2_1GtqjGvQc3BcVr_pad-41" x="55865.001" y="-118509.999"/><use xlink:href="#y2-g2_1GtqjGvQc3BcVr_pad-41" x="57135.001" y="-121049.999"/><use xlink:href="#y2-g2_1GtqjGvQc3BcVr_pad-41" x="58405.001" y="-118509.999"/><use xlink:href="#y2-g2_1GtqjGvQc3BcVr_pad-41" x="59675.001" y="-121049.999"/><use xlink:href="#y2-g2_1GtqjGvQc3BcVr_pad-41" x="60945.001" y="-118509.999"/><use xlink:href="#y2-g2_1GtqjGvQc3BcVr_pad-41" x="50175.001" y="-132479.999"/><use xlink:href="#y2-g2_1GtqjGvQc3BcVr_pad-41" x="52715.001" y="-130779.999"/><use xlink:href="#y2-g2_1GtqjGvQc3BcVr_pad-41" x="60285.001" y="-132479.999"/><use xlink:href="#y2-g2_1GtqjGvQc3BcVr_pad-41" x="62825.001" y="-130779.999"/><use xlink:href="#y2-g2_1GtqjGvQc3BcVr_pad-42" x="48625.001" y="-124349.999"/><use xlink:href="#y2-g2_1GtqjGvQc3BcVr_pad-42" x="64375.001" y="-124349.999"/><use xlink:href="#y2-g2_1GtqjGvQc3BcVr_pad-28" x="76750" y="-65750"/><use xlink:href="#y2-g2_1GtqjGvQc3BcVr_pad-28" x="75250" y="-65750"/><use xlink:href="#y2-g2_1GtqjGvQc3BcVr_pad-28" x="76750" y="-65000"/><use xlink:href="#y2-g2_1GtqjGvQc3BcVr_pad-28" x="76750" y="-64250"/><use xlink:href="#y2-g2_1GtqjGvQc3BcVr_pad-28" x="75250" y="-64250"/><use xlink:href="#y2-g2_1GtqjGvQc3BcVr_pad-28" x="75250" y="-65000"/><use xlink:href="#y2-g2_1GtqjGvQc3BcVr_pad-14" x="116500" y="-54962.499"/><use xlink:href="#y2-g2_1GtqjGvQc3BcVr_pad-14" x="116500" y="-57037.499"/><use xlink:href="#y2-g2_1GtqjGvQc3BcVr_pad-14" x="62000" y="-49962.5"/><use xlink:href="#y2-g2_1GtqjGvQc3BcVr_pad-14" x="62000" y="-52037.5"/><use xlink:href="#y2-g2_1GtqjGvQc3BcVr_pad-26" x="88655" y="-44920"/><use xlink:href="#y2-g2_1GtqjGvQc3BcVr_pad-26" x="85345" y="-47460"/><use xlink:href="#y2-g2_1GtqjGvQc3BcVr_pad-26" x="88655" y="-50000"/><use xlink:href="#y2-g2_1GtqjGvQc3BcVr_pad-26" x="85345" y="-52540"/><use xlink:href="#y2-g2_1GtqjGvQc3BcVr_pad-26" x="88655" y="-55080"/><use xlink:href="#y2-g2_1GtqjGvQc3BcVr_pad-30" x="35250.001" y="-84499.999"/><use xlink:href="#y2-g2_1GtqjGvQc3BcVr_pad-30" x="35250.001" y="-86499.999"/><use xlink:href="#y2-g2_1GtqjGvQc3BcVr_pad-21" x="84787.501" y="-65500"/><use xlink:href="#y2-g2_1GtqjGvQc3BcVr_pad-21" x="82712.501" y="-65500"/><use xlink:href="#y2-g2_1GtqjGvQc3BcVr_pad-22" x="122999.999" y="-33500"/><use xlink:href="#y2-g2_1GtqjGvQc3BcVr_pad-20" x="40000" y="-32250"/><use xlink:href="#y2-g2_1GtqjGvQc3BcVr_pad-20" x="40000" y="-30250"/><use xlink:href="#y2-g2_1GtqjGvQc3BcVr_pad-25" x="116962.499" y="-28500"/><use xlink:href="#y2-g2_1GtqjGvQc3BcVr_pad-25" x="119037.499" y="-28500"/><use xlink:href="#y2-g2_1GtqjGvQc3BcVr_pad-27" x="30500" y="-28500"/><use xlink:href="#y2-g2_1GtqjGvQc3BcVr_pad-27" x="28500" y="-28500"/><use xlink:href="#y2-g2_1GtqjGvQc3BcVr_pad-18" x="91400.001" y="-127499.999"/><use xlink:href="#y2-g2_1GtqjGvQc3BcVr_pad-19" x="93940.001" y="-127499.999"/><use xlink:href="#y2-g2_1GtqjGvQc3BcVr_pad-19" x="96480.001" y="-127499.999"/><use xlink:href="#y2-g2_1GtqjGvQc3BcVr_pad-19" x="99020.001" y="-127499.999"/><use xlink:href="#y2-g2_1GtqjGvQc3BcVr_pad-19" x="101560.001" y="-127499.999"/><use xlink:href="#y2-g2_1GtqjGvQc3BcVr_pad-19" x="104100.001" y="-127499.999"/><use xlink:href="#y2-g2_1GtqjGvQc3BcVr_pad-19" x="106640.001" y="-127499.999"/><use xlink:href="#y2-g2_1GtqjGvQc3BcVr_pad-18" x="51275.001" y="-112549.999"/><use xlink:href="#y2-g2_1GtqjGvQc3BcVr_pad-19" x="51275.001" y="-110009.999"/><use xlink:href="#y2-g2_1GtqjGvQc3BcVr_pad-19" x="51275.001" y="-107469.999"/><use xlink:href="#y2-g2_1GtqjGvQc3BcVr_pad-19" x="51275.001" y="-104929.999"/><use xlink:href="#y2-g2_1GtqjGvQc3BcVr_pad-18" x="93950.001" y="-92524.999"/><use xlink:href="#y2-g2_1GtqjGvQc3BcVr_pad-19" x="96490.001" y="-92524.999"/><use xlink:href="#y2-g2_1GtqjGvQc3BcVr_pad-19" x="99030.001" y="-92524.999"/><use xlink:href="#y2-g2_1GtqjGvQc3BcVr_pad-19" x="101570.001" y="-92524.999"/><use xlink:href="#y2-g2_1GtqjGvQc3BcVr_pad-19" x="104110.001" y="-92524.999"/><use xlink:href="#y2-g2_1GtqjGvQc3BcVr_pad-18" x="51300.001" y="-99499.999"/><use xlink:href="#y2-g2_1GtqjGvQc3BcVr_pad-19" x="51300.001" y="-96959.999"/><use xlink:href="#y2-g2_1GtqjGvQc3BcVr_pad-19" x="51300.001" y="-94419.999"/><use xlink:href="#y2-g2_1GtqjGvQc3BcVr_pad-19" x="51300.001" y="-91879.999"/><use xlink:href="#y2-g2_1GtqjGvQc3BcVr_pad-19" x="51300.001" y="-89339.999"/></g></svg>