<svg version="1.1" xmlns="http://www.w3.org/2000/svg" xmlns:xlink="http://www.w3.org/1999/xlink" stroke-linecap="round" stroke-linejoin="round" stroke-width="0" fill-rule="evenodd" width="3.8156999999999996in" height="4.2974in" viewBox="1074.45 -5381.85 3815.7 4297.4" id="PXHz5f9MkR-5KUUUMbj9"><defs><circle cx="0" cy="0" r="7.85" id="PXHz5f9MkR-5KUUUMbj9_pad-1"/><circle cx="0" cy="0" r="9.85" id="PXHz5f9MkR-5KUUUMbj9_pad-2"/><circle cx="0" cy="0" r="13.8" id="PXHz5f9MkR-5KUUUMbj9_pad-3"/><circle cx="0" cy="0" r="14.75" id="PXHz5f9MkR-5KUUUMbj9_pad-4"/><circle cx="0" cy="0" r="15.75" id="PXHz5f9MkR-5KUUUMbj9_pad-5"/><circle cx="0" cy="0" r="17.7" id="PXHz5f9MkR-5KUUUMbj9_pad-6"/><circle cx="0" cy="0" r="19.7" id="PXHz5f9MkR-5KUUUMbj9_pad-7"/><circle cx="0" cy="0" r="20.1" id="PXHz5f9MkR-5KUUUMbj9_pad-8"/><circle cx="0" cy="0" r="31.5" id="PXHz5f9MkR-5KUUUMbj9_pad-9"/></defs><g transform="translate(0,-6466.300000000001) scale(1,-1)" fill="currentColor" stroke="currentColor"><use xlink:href="#PXHz5f9MkR-5KUUUMbj9_pad-1" x="1082.3" y="-1192.3"/><use xlink:href="#PXHz5f9MkR-5KUUUMbj9_pad-1" x="1082.3" y="-1492.3"/><use xlink:href="#PXHz5f9MkR-5KUUUMbj9_pad-1" x="1082.3" y="-1792.3"/><use xlink:href="#PXHz5f9MkR-5KUUUMbj9_pad-1" x="1082.3" y="-2092.3"/><use xlink:href="#PXHz5f9MkR-5KUUUMbj9_pad-1" x="1082.3" y="-2392.3"/><use xlink:href="#PXHz5f9MkR-5KUUUMbj9_pad-1" x="1082.3" y="-2692.3"/><use xlink:href="#PXHz5f9MkR-5KUUUMbj9_pad-1" x="1182.3" y="-2892.3"/><use xlink:href="#PXHz5f9MkR-5KUUUMbj9_pad-1" x="1182.3" y="-3680.5"/><use xlink:href="#PXHz5f9MkR-5KUUUMbj9_pad-1" x="1182.3" y="-3980.5"/><use xlink:href="#PXHz5f9MkR-5KUUUMbj9_pad-1" x="1182.3" y="-4480.5"/><use xlink:href="#PXHz5f9MkR-5KUUUMbj9_pad-1" x="1182.3" y="-5080.5"/><use xlink:href="#PXHz5f9MkR-5KUUUMbj9_pad-1" x="1200.8" y="-1486.2"/><use xlink:href="#PXHz5f9MkR-5KUUUMbj9_pad-1" x="1282.3" y="-1392.3"/><use xlink:href="#PXHz5f9MkR-5KUUUMbj9_pad-1" x="1282.3" y="-1692.3"/><use xlink:href="#PXHz5f9MkR-5KUUUMbj9_pad-1" x="1282.3" y="-1992.3"/><use xlink:href="#PXHz5f9MkR-5KUUUMbj9_pad-1" x="1282.3" y="-2292.3"/><use xlink:href="#PXHz5f9MkR-5KUUUMbj9_pad-1" x="1282.3" y="-4280.5"/><use xlink:href="#PXHz5f9MkR-5KUUUMbj9_pad-1" x="1382.3" y="-2492.3"/><use xlink:href="#PXHz5f9MkR-5KUUUMbj9_pad-1" x="1382.3" y="-2792.3"/><use xlink:href="#PXHz5f9MkR-5KUUUMbj9_pad-1" x="1382.3" y="-3780.5"/><use xlink:href="#PXHz5f9MkR-5KUUUMbj9_pad-1" x="1382.3" y="-4080.5"/><use xlink:href="#PXHz5f9MkR-5KUUUMbj9_pad-1" x="1397.6" y="-4208.7"/><use xlink:href="#PXHz5f9MkR-5KUUUMbj9_pad-1" x="1397.6" y="-5374"/><use xlink:href="#PXHz5f9MkR-5KUUUMbj9_pad-1" x="1437" y="-3484.3"/><use xlink:href="#PXHz5f9MkR-5KUUUMbj9_pad-1" x="1437" y="-3649.6"/><use xlink:href="#PXHz5f9MkR-5KUUUMbj9_pad-1" x="1440" y="-4468.5"/><use xlink:href="#PXHz5f9MkR-5KUUUMbj9_pad-1" x="1460.6" y="-4862.2"/><use xlink:href="#PXHz5f9MkR-5KUUUMbj9_pad-1" x="1476.4" y="-3696.9"/><use xlink:href="#PXHz5f9MkR-5KUUUMbj9_pad-1" x="1482.3" y="-1092.3"/><use xlink:href="#PXHz5f9MkR-5KUUUMbj9_pad-1" x="1482.3" y="-1892.3"/><use xlink:href="#PXHz5f9MkR-5KUUUMbj9_pad-1" x="1555.1" y="-1358.3"/><use xlink:href="#PXHz5f9MkR-5KUUUMbj9_pad-1" x="1575.3" y="-3638.8"/><use xlink:href="#PXHz5f9MkR-5KUUUMbj9_pad-1" x="1582.3" y="-2592.3"/><use xlink:href="#PXHz5f9MkR-5KUUUMbj9_pad-1" x="1582.3" y="-2892.3"/><use xlink:href="#PXHz5f9MkR-5KUUUMbj9_pad-1" x="1604.3" y="-1486.2"/><use xlink:href="#PXHz5f9MkR-5KUUUMbj9_pad-1" x="1614.2" y="-1427.2"/><use xlink:href="#PXHz5f9MkR-5KUUUMbj9_pad-1" x="1614.2" y="-3129.9"/><use xlink:href="#PXHz5f9MkR-5KUUUMbj9_pad-1" x="1614.2" y="-3208.7"/><use xlink:href="#PXHz5f9MkR-5KUUUMbj9_pad-1" x="1614.2" y="-3405.5"/><use xlink:href="#PXHz5f9MkR-5KUUUMbj9_pad-1" x="1618.1" y="-4066.9"/><use xlink:href="#PXHz5f9MkR-5KUUUMbj9_pad-1" x="1641.7" y="-3476.4"/><use xlink:href="#PXHz5f9MkR-5KUUUMbj9_pad-1" x="1649.6" y="-4208.7"/><use xlink:href="#PXHz5f9MkR-5KUUUMbj9_pad-1" x="1775.6" y="-3381.9"/><use xlink:href="#PXHz5f9MkR-5KUUUMbj9_pad-1" x="1782.3" y="-2492.3"/><use xlink:href="#PXHz5f9MkR-5KUUUMbj9_pad-1" x="1782.3" y="-2792.3"/><use xlink:href="#PXHz5f9MkR-5KUUUMbj9_pad-1" x="1782.3" y="-3880.5"/><use xlink:href="#PXHz5f9MkR-5KUUUMbj9_pad-1" x="1782.3" y="-4880.5"/><use xlink:href="#PXHz5f9MkR-5KUUUMbj9_pad-1" x="1811" y="-2421.3"/><use xlink:href="#PXHz5f9MkR-5KUUUMbj9_pad-1" x="1830.7" y="-3342.5"/><use xlink:href="#PXHz5f9MkR-5KUUUMbj9_pad-1" x="1858.3" y="-1887.8"/><use xlink:href="#PXHz5f9MkR-5KUUUMbj9_pad-1" x="1870.1" y="-3492.1"/><use xlink:href="#PXHz5f9MkR-5KUUUMbj9_pad-1" x="1878" y="-3342.5"/><use xlink:href="#PXHz5f9MkR-5KUUUMbj9_pad-1" x="1882.3" y="-4080.5"/><use xlink:href="#PXHz5f9MkR-5KUUUMbj9_pad-1" x="1887.8" y="-2078.7"/><use xlink:href="#PXHz5f9MkR-5KUUUMbj9_pad-1" x="1933.1" y="-3342.5"/><use xlink:href="#PXHz5f9MkR-5KUUUMbj9_pad-1" x="1978.3" y="-1476.4"/><use xlink:href="#PXHz5f9MkR-5KUUUMbj9_pad-1" x="1978.3" y="-4045.3"/><use xlink:href="#PXHz5f9MkR-5KUUUMbj9_pad-1" x="1982.3" y="-1092.3"/><use xlink:href="#PXHz5f9MkR-5KUUUMbj9_pad-1" x="1982.3" y="-2592.3"/><use xlink:href="#PXHz5f9MkR-5KUUUMbj9_pad-1" x="1982.3" y="-2892.3"/><use xlink:href="#PXHz5f9MkR-5KUUUMbj9_pad-1" x="2027.6" y="-1289.4"/><use xlink:href="#PXHz5f9MkR-5KUUUMbj9_pad-1" x="2078.7" y="-2049.2"/><use xlink:href="#PXHz5f9MkR-5KUUUMbj9_pad-1" x="2096.5" y="-1476.4"/><use xlink:href="#PXHz5f9MkR-5KUUUMbj9_pad-1" x="2116.1" y="-1181.1"/><use xlink:href="#PXHz5f9MkR-5KUUUMbj9_pad-1" x="2126" y="-2421.3"/><use xlink:href="#PXHz5f9MkR-5KUUUMbj9_pad-1" x="2182.3" y="-2492.3"/><use xlink:href="#PXHz5f9MkR-5KUUUMbj9_pad-1" x="2182.3" y="-3580.5"/><use xlink:href="#PXHz5f9MkR-5KUUUMbj9_pad-1" x="2182.3" y="-3980.5"/><use xlink:href="#PXHz5f9MkR-5KUUUMbj9_pad-1" x="2182.3" y="-4280.5"/><use xlink:href="#PXHz5f9MkR-5KUUUMbj9_pad-1" x="2182.3" y="-5180.5"/><use xlink:href="#PXHz5f9MkR-5KUUUMbj9_pad-1" x="2185" y="-5009.8"/><use xlink:href="#PXHz5f9MkR-5KUUUMbj9_pad-1" x="2282.3" y="-1192.3"/><use xlink:href="#PXHz5f9MkR-5KUUUMbj9_pad-1" x="2282.3" y="-2692.3"/><use xlink:href="#PXHz5f9MkR-5KUUUMbj9_pad-1" x="2282.3" y="-3780.5"/><use xlink:href="#PXHz5f9MkR-5KUUUMbj9_pad-1" x="2293.3" y="-1289.4"/><use xlink:href="#PXHz5f9MkR-5KUUUMbj9_pad-1" x="2313" y="-3218.5"/><use xlink:href="#PXHz5f9MkR-5KUUUMbj9_pad-1" x="2382.3" y="-2892.3"/><use xlink:href="#PXHz5f9MkR-5KUUUMbj9_pad-1" x="2382.3" y="-4080.5"/><use xlink:href="#PXHz5f9MkR-5KUUUMbj9_pad-1" x="2382.3" y="-4380.5"/><use xlink:href="#PXHz5f9MkR-5KUUUMbj9_pad-1" x="2382.3" y="-4880.5"/><use xlink:href="#PXHz5f9MkR-5KUUUMbj9_pad-1" x="2425.2" y="-1433.1"/><use xlink:href="#PXHz5f9MkR-5KUUUMbj9_pad-1" x="2440.9" y="-1240.2"/><use xlink:href="#PXHz5f9MkR-5KUUUMbj9_pad-1" x="2440.9" y="-1909.4"/><use xlink:href="#PXHz5f9MkR-5KUUUMbj9_pad-1" x="2450.8" y="-1515.7"/><use xlink:href="#PXHz5f9MkR-5KUUUMbj9_pad-1" x="2480.3" y="-1283.5"/><use xlink:href="#PXHz5f9MkR-5KUUUMbj9_pad-1" x="2482.3" y="-1692.3"/><use xlink:href="#PXHz5f9MkR-5KUUUMbj9_pad-1" x="2482.3" y="-2192.3"/><use xlink:href="#PXHz5f9MkR-5KUUUMbj9_pad-1" x="2482.3" y="-2492.3"/><use xlink:href="#PXHz5f9MkR-5KUUUMbj9_pad-1" x="2482.3" y="-3180.5"/><use xlink:href="#PXHz5f9MkR-5KUUUMbj9_pad-1" x="2482.3" y="-3580.5"/><use xlink:href="#PXHz5f9MkR-5KUUUMbj9_pad-1" x="2509.8" y="-1171.3"/><use xlink:href="#PXHz5f9MkR-5KUUUMbj9_pad-1" x="2519.7" y="-1348.4"/><use xlink:href="#PXHz5f9MkR-5KUUUMbj9_pad-1" x="2539.4" y="-1535.4"/><use xlink:href="#PXHz5f9MkR-5KUUUMbj9_pad-1" x="2539.4" y="-2017.7"/><use xlink:href="#PXHz5f9MkR-5KUUUMbj9_pad-1" x="2555.1" y="-4484.3"/><use xlink:href="#PXHz5f9MkR-5KUUUMbj9_pad-1" x="2563" y="-4570.9"/><use xlink:href="#PXHz5f9MkR-5KUUUMbj9_pad-1" x="2582.3" y="-1892.3"/><use xlink:href="#PXHz5f9MkR-5KUUUMbj9_pad-1" x="2582.3" y="-2692.3"/><use xlink:href="#PXHz5f9MkR-5KUUUMbj9_pad-1" x="2582.3" y="-3780.5"/><use xlink:href="#PXHz5f9MkR-5KUUUMbj9_pad-1" x="2582.3" y="-4180.5"/><use xlink:href="#PXHz5f9MkR-5KUUUMbj9_pad-1" x="2582.3" y="-4980.5"/><use xlink:href="#PXHz5f9MkR-5KUUUMbj9_pad-1" x="2682.3" y="-1392.3"/><use xlink:href="#PXHz5f9MkR-5KUUUMbj9_pad-1" x="2682.3" y="-2092.3"/><use xlink:href="#PXHz5f9MkR-5KUUUMbj9_pad-1" x="2682.3" y="-2892.3"/><use xlink:href="#PXHz5f9MkR-5KUUUMbj9_pad-1" x="2720.5" y="-3413.4"/><use xlink:href="#PXHz5f9MkR-5KUUUMbj9_pad-1" x="2720.5" y="-4484.3"/><use xlink:href="#PXHz5f9MkR-5KUUUMbj9_pad-1" x="2726.4" y="-1171.3"/><use xlink:href="#PXHz5f9MkR-5KUUUMbj9_pad-1" x="2752" y="-3452.8"/><use xlink:href="#PXHz5f9MkR-5KUUUMbj9_pad-1" x="2782.3" y="-1192.3"/><use xlink:href="#PXHz5f9MkR-5KUUUMbj9_pad-1" x="2782.3" y="-1592.3"/><use xlink:href="#PXHz5f9MkR-5KUUUMbj9_pad-1" x="2782.3" y="-2392.3"/><use xlink:href="#PXHz5f9MkR-5KUUUMbj9_pad-1" x="2882.3" y="-1792.3"/><use xlink:href="#PXHz5f9MkR-5KUUUMbj9_pad-1" x="2882.3" y="-2192.3"/><use xlink:href="#PXHz5f9MkR-5KUUUMbj9_pad-1" x="2882.3" y="-2592.3"/><use xlink:href="#PXHz5f9MkR-5KUUUMbj9_pad-1" x="2882.3" y="-3280.5"/><use xlink:href="#PXHz5f9MkR-5KUUUMbj9_pad-1" x="2882.3" y="-3880.5"/><use xlink:href="#PXHz5f9MkR-5KUUUMbj9_pad-1" x="2882.3" y="-4180.5"/><use xlink:href="#PXHz5f9MkR-5KUUUMbj9_pad-1" x="2882.3" y="-4580.5"/><use xlink:href="#PXHz5f9MkR-5KUUUMbj9_pad-1" x="2882.3" y="-4880.5"/><use xlink:href="#PXHz5f9MkR-5KUUUMbj9_pad-1" x="2982.3" y="-5280.5"/><use xlink:href="#PXHz5f9MkR-5KUUUMbj9_pad-1" x="3162.6" y="-1192.3"/><use xlink:href="#PXHz5f9MkR-5KUUUMbj9_pad-1" x="3162.6" y="-1892.3"/><use xlink:href="#PXHz5f9MkR-5KUUUMbj9_pad-1" x="3162.6" y="-2192.3"/><use xlink:href="#PXHz5f9MkR-5KUUUMbj9_pad-1" x="3162.6" y="-2492.3"/><use xlink:href="#PXHz5f9MkR-5KUUUMbj9_pad-1" x="3162.6" y="-2792.3"/><use xlink:href="#PXHz5f9MkR-5KUUUMbj9_pad-1" x="3182.3" y="-3680.5"/><use xlink:href="#PXHz5f9MkR-5KUUUMbj9_pad-1" x="3182.3" y="-4280.5"/><use xlink:href="#PXHz5f9MkR-5KUUUMbj9_pad-1" x="3182.3" y="-4580.5"/><use xlink:href="#PXHz5f9MkR-5KUUUMbj9_pad-1" x="3248" y="-1486.2"/><use xlink:href="#PXHz5f9MkR-5KUUUMbj9_pad-1" x="3262.6" y="-1692.3"/><use xlink:href="#PXHz5f9MkR-5KUUUMbj9_pad-1" x="3282.3" y="-3280.5"/><use xlink:href="#PXHz5f9MkR-5KUUUMbj9_pad-1" x="3282.3" y="-4780.5"/><use xlink:href="#PXHz5f9MkR-5KUUUMbj9_pad-1" x="3282.3" y="-5080.5"/><use xlink:href="#PXHz5f9MkR-5KUUUMbj9_pad-1" x="3294.6" y="-3752"/><use xlink:href="#PXHz5f9MkR-5KUUUMbj9_pad-1" x="3362.6" y="-1992.3"/><use xlink:href="#PXHz5f9MkR-5KUUUMbj9_pad-1" x="3362.6" y="-2292.3"/><use xlink:href="#PXHz5f9MkR-5KUUUMbj9_pad-1" x="3362.6" y="-2692.3"/><use xlink:href="#PXHz5f9MkR-5KUUUMbj9_pad-1" x="3382.3" y="-3080.5"/><use xlink:href="#PXHz5f9MkR-5KUUUMbj9_pad-1" x="3382.3" y="-4080.5"/><use xlink:href="#PXHz5f9MkR-5KUUUMbj9_pad-1" x="3382.3" y="-4380.5"/><use xlink:href="#PXHz5f9MkR-5KUUUMbj9_pad-1" x="3462.6" y="-2492.3"/><use xlink:href="#PXHz5f9MkR-5KUUUMbj9_pad-1" x="3462.6" y="-2892.3"/><use xlink:href="#PXHz5f9MkR-5KUUUMbj9_pad-1" x="3482.3" y="-3880.5"/><use xlink:href="#PXHz5f9MkR-5KUUUMbj9_pad-1" x="3482.3" y="-4580.5"/><use xlink:href="#PXHz5f9MkR-5KUUUMbj9_pad-1" x="3482.3" y="-4880.5"/><use xlink:href="#PXHz5f9MkR-5KUUUMbj9_pad-1" x="3562.6" y="-1092.3"/><use xlink:href="#PXHz5f9MkR-5KUUUMbj9_pad-1" x="3562.6" y="-1892.3"/><use xlink:href="#PXHz5f9MkR-5KUUUMbj9_pad-1" x="3582.3" y="-3180.5"/><use xlink:href="#PXHz5f9MkR-5KUUUMbj9_pad-1" x="3582.3" y="-3680.5"/><use xlink:href="#PXHz5f9MkR-5KUUUMbj9_pad-1" x="3582.3" y="-4180.5"/><use xlink:href="#PXHz5f9MkR-5KUUUMbj9_pad-1" x="3582.3" y="-5280.5"/><use xlink:href="#PXHz5f9MkR-5KUUUMbj9_pad-1" x="3602.4" y="-1358.3"/><use xlink:href="#PXHz5f9MkR-5KUUUMbj9_pad-1" x="3651.6" y="-1486.2"/><use xlink:href="#PXHz5f9MkR-5KUUUMbj9_pad-1" x="3661.4" y="-1427.2"/><use xlink:href="#PXHz5f9MkR-5KUUUMbj9_pad-1" x="3662.6" y="-2592.3"/><use xlink:href="#PXHz5f9MkR-5KUUUMbj9_pad-1" x="3682.3" y="-3980.5"/><use xlink:href="#PXHz5f9MkR-5KUUUMbj9_pad-1" x="3682.3" y="-4380.5"/><use xlink:href="#PXHz5f9MkR-5KUUUMbj9_pad-1" x="3682.3" y="-4680.5"/><use xlink:href="#PXHz5f9MkR-5KUUUMbj9_pad-1" x="3762.6" y="-2792.3"/><use xlink:href="#PXHz5f9MkR-5KUUUMbj9_pad-1" x="3782.3" y="-3080.5"/><use xlink:href="#PXHz5f9MkR-5KUUUMbj9_pad-1" x="3782.3" y="-5180.5"/><use xlink:href="#PXHz5f9MkR-5KUUUMbj9_pad-1" x="3858.3" y="-2421.3"/><use xlink:href="#PXHz5f9MkR-5KUUUMbj9_pad-1" x="3862.6" y="-1092.3"/><use xlink:href="#PXHz5f9MkR-5KUUUMbj9_pad-1" x="3862.6" y="-2492.3"/><use xlink:href="#PXHz5f9MkR-5KUUUMbj9_pad-1" x="3882.3" y="-3280.5"/><use xlink:href="#PXHz5f9MkR-5KUUUMbj9_pad-1" x="3882.3" y="-3780.5"/><use xlink:href="#PXHz5f9MkR-5KUUUMbj9_pad-1" x="3882.3" y="-4080.5"/><use xlink:href="#PXHz5f9MkR-5KUUUMbj9_pad-1" x="3882.3" y="-4480.5"/><use xlink:href="#PXHz5f9MkR-5KUUUMbj9_pad-1" x="3905.5" y="-1887.8"/><use xlink:href="#PXHz5f9MkR-5KUUUMbj9_pad-1" x="3935.1" y="-2078.7"/><use xlink:href="#PXHz5f9MkR-5KUUUMbj9_pad-1" x="3962.6" y="-2692.3"/><use xlink:href="#PXHz5f9MkR-5KUUUMbj9_pad-1" x="3982.3" y="-5280.5"/><use xlink:href="#PXHz5f9MkR-5KUUUMbj9_pad-1" x="4025.6" y="-1476.4"/><use xlink:href="#PXHz5f9MkR-5KUUUMbj9_pad-1" x="4062.6" y="-2892.3"/><use xlink:href="#PXHz5f9MkR-5KUUUMbj9_pad-1" x="4074.8" y="-1289.4"/><use xlink:href="#PXHz5f9MkR-5KUUUMbj9_pad-1" x="4082.3" y="-3080.5"/><use xlink:href="#PXHz5f9MkR-5KUUUMbj9_pad-1" x="4082.3" y="-3880.5"/><use xlink:href="#PXHz5f9MkR-5KUUUMbj9_pad-1" x="4082.3" y="-4180.5"/><use xlink:href="#PXHz5f9MkR-5KUUUMbj9_pad-1" x="4082.3" y="-4580.5"/><use xlink:href="#PXHz5f9MkR-5KUUUMbj9_pad-1" x="4126" y="-2049.2"/><use xlink:href="#PXHz5f9MkR-5KUUUMbj9_pad-1" x="4143.7" y="-1476.4"/><use xlink:href="#PXHz5f9MkR-5KUUUMbj9_pad-1" x="4162.6" y="-2592.3"/><use xlink:href="#PXHz5f9MkR-5KUUUMbj9_pad-1" x="4163.4" y="-1181.1"/><use xlink:href="#PXHz5f9MkR-5KUUUMbj9_pad-1" x="4173.2" y="-2421.3"/><use xlink:href="#PXHz5f9MkR-5KUUUMbj9_pad-1" x="4182.3" y="-3280.5"/><use xlink:href="#PXHz5f9MkR-5KUUUMbj9_pad-1" x="4182.3" y="-3580.5"/><use xlink:href="#PXHz5f9MkR-5KUUUMbj9_pad-1" x="4182.3" y="-4380.5"/><use xlink:href="#PXHz5f9MkR-5KUUUMbj9_pad-1" x="4182.3" y="-4780.5"/><use xlink:href="#PXHz5f9MkR-5KUUUMbj9_pad-1" x="4182.3" y="-5180.5"/><use xlink:href="#PXHz5f9MkR-5KUUUMbj9_pad-1" x="4282.3" y="-3780.5"/><use xlink:href="#PXHz5f9MkR-5KUUUMbj9_pad-1" x="4282.3" y="-4080.5"/><use xlink:href="#PXHz5f9MkR-5KUUUMbj9_pad-1" x="4282.3" y="-4980.5"/><use xlink:href="#PXHz5f9MkR-5KUUUMbj9_pad-1" x="4340.6" y="-1289.4"/><use xlink:href="#PXHz5f9MkR-5KUUUMbj9_pad-1" x="4362.6" y="-2392.3"/><use xlink:href="#PXHz5f9MkR-5KUUUMbj9_pad-1" x="4362.6" y="-2692.3"/><use xlink:href="#PXHz5f9MkR-5KUUUMbj9_pad-1" x="4382.3" y="-3080.5"/><use xlink:href="#PXHz5f9MkR-5KUUUMbj9_pad-1" x="4382.3" y="-3380.5"/><use xlink:href="#PXHz5f9MkR-5KUUUMbj9_pad-1" x="4382.3" y="-4280.5"/><use xlink:href="#PXHz5f9MkR-5KUUUMbj9_pad-1" x="4382.3" y="-4580.5"/><use xlink:href="#PXHz5f9MkR-5KUUUMbj9_pad-1" x="4382.3" y="-5280.5"/><use xlink:href="#PXHz5f9MkR-5KUUUMbj9_pad-1" x="4462.6" y="-2892.3"/><use xlink:href="#PXHz5f9MkR-5KUUUMbj9_pad-1" x="4472.4" y="-1433.1"/><use xlink:href="#PXHz5f9MkR-5KUUUMbj9_pad-1" x="4482.3" y="-3580.5"/><use xlink:href="#PXHz5f9MkR-5KUUUMbj9_pad-1" x="4482.3" y="-3880.5"/><use xlink:href="#PXHz5f9MkR-5KUUUMbj9_pad-1" x="4482.3" y="-4780.5"/><use xlink:href="#PXHz5f9MkR-5KUUUMbj9_pad-1" x="4482.3" y="-5080.5"/><use xlink:href="#PXHz5f9MkR-5KUUUMbj9_pad-1" x="4488.2" y="-1240.2"/><use xlink:href="#PXHz5f9MkR-5KUUUMbj9_pad-1" x="4488.2" y="-1909.4"/><use xlink:href="#PXHz5f9MkR-5KUUUMbj9_pad-1" x="4498" y="-1515.7"/><use xlink:href="#PXHz5f9MkR-5KUUUMbj9_pad-1" x="4527.6" y="-1283.5"/><use xlink:href="#PXHz5f9MkR-5KUUUMbj9_pad-1" x="4557.1" y="-1171.3"/><use xlink:href="#PXHz5f9MkR-5KUUUMbj9_pad-1" x="4562.6" y="-2292.3"/><use xlink:href="#PXHz5f9MkR-5KUUUMbj9_pad-1" x="4562.6" y="-2592.3"/><use xlink:href="#PXHz5f9MkR-5KUUUMbj9_pad-1" x="4566.9" y="-1348.4"/><use xlink:href="#PXHz5f9MkR-5KUUUMbj9_pad-1" x="4582.3" y="-3180.5"/><use xlink:href="#PXHz5f9MkR-5KUUUMbj9_pad-1" x="4582.3" y="-4080.5"/><use xlink:href="#PXHz5f9MkR-5KUUUMbj9_pad-1" x="4582.3" y="-4380.5"/><use xlink:href="#PXHz5f9MkR-5KUUUMbj9_pad-1" x="4586.6" y="-1535.4"/><use xlink:href="#PXHz5f9MkR-5KUUUMbj9_pad-1" x="4586.6" y="-2017.7"/><use xlink:href="#PXHz5f9MkR-5KUUUMbj9_pad-1" x="4662.6" y="-1392.3"/><use xlink:href="#PXHz5f9MkR-5KUUUMbj9_pad-1" x="4662.6" y="-1692.3"/><use xlink:href="#PXHz5f9MkR-5KUUUMbj9_pad-1" x="4662.6" y="-2092.3"/><use xlink:href="#PXHz5f9MkR-5KUUUMbj9_pad-1" x="4662.6" y="-2792.3"/><use xlink:href="#PXHz5f9MkR-5KUUUMbj9_pad-1" x="4682.3" y="-3380.5"/><use xlink:href="#PXHz5f9MkR-5KUUUMbj9_pad-1" x="4682.3" y="-3680.5"/><use xlink:href="#PXHz5f9MkR-5KUUUMbj9_pad-1" x="4682.3" y="-4580.5"/><use xlink:href="#PXHz5f9MkR-5KUUUMbj9_pad-1" x="4682.3" y="-4880.5"/><use xlink:href="#PXHz5f9MkR-5KUUUMbj9_pad-1" x="4682.3" y="-5180.5"/><use xlink:href="#PXHz5f9MkR-5KUUUMbj9_pad-1" x="4762.6" y="-1892.3"/><use xlink:href="#PXHz5f9MkR-5KUUUMbj9_pad-1" x="4773.6" y="-1171.3"/><use xlink:href="#PXHz5f9MkR-5KUUUMbj9_pad-1" x="4782.3" y="-3080.5"/><use xlink:href="#PXHz5f9MkR-5KUUUMbj9_pad-1" x="4782.3" y="-3880.5"/><use xlink:href="#PXHz5f9MkR-5KUUUMbj9_pad-1" x="4782.3" y="-4180.5"/><use xlink:href="#PXHz5f9MkR-5KUUUMbj9_pad-1" x="4862.6" y="-1192.3"/><use xlink:href="#PXHz5f9MkR-5KUUUMbj9_pad-1" x="4862.6" y="-1592.3"/><use xlink:href="#PXHz5f9MkR-5KUUUMbj9_pad-1" x="4862.6" y="-2192.3"/><use xlink:href="#PXHz5f9MkR-5KUUUMbj9_pad-1" x="4862.6" y="-2492.3"/><use xlink:href="#PXHz5f9MkR-5KUUUMbj9_pad-1" x="4862.6" y="-2892.3"/><use xlink:href="#PXHz5f9MkR-5KUUUMbj9_pad-1" x="4882.3" y="-3280.5"/><use xlink:href="#PXHz5f9MkR-5KUUUMbj9_pad-1" x="4882.3" y="-3580.5"/><use xlink:href="#PXHz5f9MkR-5KUUUMbj9_pad-1" x="4882.3" y="-4380.5"/><use xlink:href="#PXHz5f9MkR-5KUUUMbj9_pad-1" x="4882.3" y="-4680.5"/><use xlink:href="#PXHz5f9MkR-5KUUUMbj9_pad-1" x="4882.3" y="-4980.5"/><use xlink:href="#PXHz5f9MkR-5KUUUMbj9_pad-1" x="4882.3" y="-5280.5"/><use xlink:href="#PXHz5f9MkR-5KUUUMbj9_pad-2" x="2706.7" y="-3167.3"/><use xlink:href="#PXHz5f9MkR-5KUUUMbj9_pad-2" x="2755.9" y="-3167.3"/><use xlink:href="#PXHz5f9MkR-5KUUUMbj9_pad-3" x="1194.1" y="-4773.2"/><use xlink:href="#PXHz5f9MkR-5KUUUMbj9_pad-3" x="1194.1" y="-4852"/><use xlink:href="#PXHz5f9MkR-5KUUUMbj9_pad-3" x="1272.8" y="-4773.2"/><use xlink:href="#PXHz5f9MkR-5KUUUMbj9_pad-3" x="1272.8" y="-4852"/><use xlink:href="#PXHz5f9MkR-5KUUUMbj9_pad-3" x="1351.6" y="-4773.2"/><use xlink:href="#PXHz5f9MkR-5KUUUMbj9_pad-3" x="1351.6" y="-4852"/><use xlink:href="#PXHz5f9MkR-5KUUUMbj9_pad-4" x="1358.3" y="-5246.1"/><use xlink:href="#PXHz5f9MkR-5KUUUMbj9_pad-4" x="1437" y="-5246.1"/><use xlink:href="#PXHz5f9MkR-5KUUUMbj9_pad-4" x="1577.6" y="-4712.6"/><use xlink:href="#PXHz5f9MkR-5KUUUMbj9_pad-4" x="1577.6" y="-4812.6"/><use xlink:href="#PXHz5f9MkR-5KUUUMbj9_pad-4" x="1577.6" y="-4912.6"/><use xlink:href="#PXHz5f9MkR-5KUUUMbj9_pad-4" x="1577.6" y="-5012.6"/><use xlink:href="#PXHz5f9MkR-5KUUUMbj9_pad-4" x="1577.6" y="-5112.6"/><use xlink:href="#PXHz5f9MkR-5KUUUMbj9_pad-5" x="1097.6" y="-3062.6"/><use xlink:href="#PXHz5f9MkR-5KUUUMbj9_pad-5" x="1097.6" y="-3162.6"/><use xlink:href="#PXHz5f9MkR-5KUUUMbj9_pad-5" x="1097.6" y="-3262.6"/><use xlink:href="#PXHz5f9MkR-5KUUUMbj9_pad-5" x="1097.6" y="-3362.6"/><use xlink:href="#PXHz5f9MkR-5KUUUMbj9_pad-5" x="1097.6" y="-3462.6"/><use xlink:href="#PXHz5f9MkR-5KUUUMbj9_pad-5" x="1097.6" y="-3562.6"/><use xlink:href="#PXHz5f9MkR-5KUUUMbj9_pad-5" x="1097.6" y="-3662.6"/><use xlink:href="#PXHz5f9MkR-5KUUUMbj9_pad-5" x="1097.6" y="-3762.6"/><use xlink:href="#PXHz5f9MkR-5KUUUMbj9_pad-5" x="1097.6" y="-3862.6"/><use xlink:href="#PXHz5f9MkR-5KUUUMbj9_pad-5" x="1097.6" y="-3962.6"/><use xlink:href="#PXHz5f9MkR-5KUUUMbj9_pad-5" x="1097.6" y="-4062.6"/><use xlink:href="#PXHz5f9MkR-5KUUUMbj9_pad-5" x="1097.6" y="-4162.6"/><use xlink:href="#PXHz5f9MkR-5KUUUMbj9_pad-5" x="1097.6" y="-4262.6"/><use xlink:href="#PXHz5f9MkR-5KUUUMbj9_pad-5" x="1097.6" y="-4362.6"/><use xlink:href="#PXHz5f9MkR-5KUUUMbj9_pad-5" x="1097.6" y="-4462.6"/><use xlink:href="#PXHz5f9MkR-5KUUUMbj9_pad-5" x="1097.6" y="-4562.6"/><use xlink:href="#PXHz5f9MkR-5KUUUMbj9_pad-5" x="1097.6" y="-4662.6"/><use xlink:href="#PXHz5f9MkR-5KUUUMbj9_pad-5" x="1097.6" y="-4762.6"/><use xlink:href="#PXHz5f9MkR-5KUUUMbj9_pad-5" x="1097.6" y="-4862.6"/><use xlink:href="#PXHz5f9MkR-5KUUUMbj9_pad-5" x="1097.6" y="-4962.6"/><use xlink:href="#PXHz5f9MkR-5KUUUMbj9_pad-5" x="1097.6" y="-5062.6"/><use xlink:href="#PXHz5f9MkR-5KUUUMbj9_pad-5" x="1097.6" y="-5162.6"/><use xlink:href="#PXHz5f9MkR-5KUUUMbj9_pad-5" x="1097.6" y="-5262.6"/><use xlink:href="#PXHz5f9MkR-5KUUUMbj9_pad-5" x="1097.6" y="-5362.6"/><use xlink:href="#PXHz5f9MkR-5KUUUMbj9_pad-5" x="1197.6" y="-3562.6"/><use xlink:href="#PXHz5f9MkR-5KUUUMbj9_pad-5" x="1197.6" y="-5262.6"/><use xlink:href="#PXHz5f9MkR-5KUUUMbj9_pad-5" x="1297.6" y="-3562.6"/><use xlink:href="#PXHz5f9MkR-5KUUUMbj9_pad-5" x="1397.6" y="-3562.6"/><use xlink:href="#PXHz5f9MkR-5KUUUMbj9_pad-5" x="1497.6" y="-3562.6"/><use xlink:href="#PXHz5f9MkR-5KUUUMbj9_pad-5" x="1597.6" y="-3562.6"/><use xlink:href="#PXHz5f9MkR-5KUUUMbj9_pad-5" x="1697.6" y="-3062.6"/><use xlink:href="#PXHz5f9MkR-5KUUUMbj9_pad-5" x="1697.6" y="-3162.6"/><use xlink:href="#PXHz5f9MkR-5KUUUMbj9_pad-5" x="1697.6" y="-3262.6"/><use xlink:href="#PXHz5f9MkR-5KUUUMbj9_pad-5" x="1697.6" y="-3362.6"/><use xlink:href="#PXHz5f9MkR-5KUUUMbj9_pad-5" x="1697.6" y="-3462.6"/><use xlink:href="#PXHz5f9MkR-5KUUUMbj9_pad-5" x="1697.6" y="-3562.6"/><use xlink:href="#PXHz5f9MkR-5KUUUMbj9_pad-5" x="1697.6" y="-3662.6"/><use xlink:href="#PXHz5f9MkR-5KUUUMbj9_pad-5" x="1697.6" y="-3762.6"/><use xlink:href="#PXHz5f9MkR-5KUUUMbj9_pad-5" x="1697.6" y="-3862.6"/><use xlink:href="#PXHz5f9MkR-5KUUUMbj9_pad-5" x="1697.6" y="-3962.6"/><use xlink:href="#PXHz5f9MkR-5KUUUMbj9_pad-5" x="1697.6" y="-4062.6"/><use xlink:href="#PXHz5f9MkR-5KUUUMbj9_pad-5" x="1697.6" y="-4162.6"/><use xlink:href="#PXHz5f9MkR-5KUUUMbj9_pad-5" x="1697.6" y="-4262.6"/><use xlink:href="#PXHz5f9MkR-5KUUUMbj9_pad-5" x="1697.6" y="-4362.6"/><use xlink:href="#PXHz5f9MkR-5KUUUMbj9_pad-5" x="1697.6" y="-4462.6"/><use xlink:href="#PXHz5f9MkR-5KUUUMbj9_pad-5" x="1697.6" y="-4562.6"/><use xlink:href="#PXHz5f9MkR-5KUUUMbj9_pad-5" x="1697.6" y="-4662.6"/><use xlink:href="#PXHz5f9MkR-5KUUUMbj9_pad-5" x="1697.6" y="-4762.6"/><use xlink:href="#PXHz5f9MkR-5KUUUMbj9_pad-5" x="1697.6" y="-4862.6"/><use xlink:href="#PXHz5f9MkR-5KUUUMbj9_pad-5" x="1697.6" y="-4962.6"/><use xlink:href="#PXHz5f9MkR-5KUUUMbj9_pad-5" x="1697.6" y="-5062.6"/><use xlink:href="#PXHz5f9MkR-5KUUUMbj9_pad-5" x="1697.6" y="-5162.6"/><use xlink:href="#PXHz5f9MkR-5KUUUMbj9_pad-5" x="1697.6" y="-5262.6"/><use xlink:href="#PXHz5f9MkR-5KUUUMbj9_pad-5" x="1697.6" y="-5362.6"/><use xlink:href="#PXHz5f9MkR-5KUUUMbj9_pad-6" x="2049.4" y="-4765.7"/><use xlink:href="#PXHz5f9MkR-5KUUUMbj9_pad-6" x="2099.4" y="-4665.7"/><use xlink:href="#PXHz5f9MkR-5KUUUMbj9_pad-6" x="2149.4" y="-4765.7"/><use xlink:href="#PXHz5f9MkR-5KUUUMbj9_pad-6" x="2199.4" y="-4665.7"/><use xlink:href="#PXHz5f9MkR-5KUUUMbj9_pad-6" x="2249.4" y="-4765.7"/><use xlink:href="#PXHz5f9MkR-5KUUUMbj9_pad-6" x="2299.4" y="-4665.7"/><use xlink:href="#PXHz5f9MkR-5KUUUMbj9_pad-6" x="2349.4" y="-4765.7"/><use xlink:href="#PXHz5f9MkR-5KUUUMbj9_pad-6" x="2399.4" y="-4665.7"/><use xlink:href="#PXHz5f9MkR-5KUUUMbj9_pad-7" x="2013" y="-3139.8"/><use xlink:href="#PXHz5f9MkR-5KUUUMbj9_pad-7" x="2018.7" y="-4131.1"/><use xlink:href="#PXHz5f9MkR-5KUUUMbj9_pad-7" x="2018.7" y="-4231.1"/><use xlink:href="#PXHz5f9MkR-5KUUUMbj9_pad-7" x="2018.7" y="-4331.1"/><use xlink:href="#PXHz5f9MkR-5KUUUMbj9_pad-7" x="2018.7" y="-4431.1"/><use xlink:href="#PXHz5f9MkR-5KUUUMbj9_pad-7" x="2019.7" y="-3517.3"/><use xlink:href="#PXHz5f9MkR-5KUUUMbj9_pad-7" x="2019.7" y="-3617.3"/><use xlink:href="#PXHz5f9MkR-5KUUUMbj9_pad-7" x="2019.7" y="-3717.3"/><use xlink:href="#PXHz5f9MkR-5KUUUMbj9_pad-7" x="2019.7" y="-3817.3"/><use xlink:href="#PXHz5f9MkR-5KUUUMbj9_pad-7" x="2019.7" y="-3917.3"/><use xlink:href="#PXHz5f9MkR-5KUUUMbj9_pad-7" x="2113" y="-3139.8"/><use xlink:href="#PXHz5f9MkR-5KUUUMbj9_pad-7" x="2213" y="-3139.8"/><use xlink:href="#PXHz5f9MkR-5KUUUMbj9_pad-7" x="2313" y="-3139.8"/><use xlink:href="#PXHz5f9MkR-5KUUUMbj9_pad-7" x="2413" y="-3139.8"/><use xlink:href="#PXHz5f9MkR-5KUUUMbj9_pad-7" x="2727.4" y="-4616.5"/><use xlink:href="#PXHz5f9MkR-5KUUUMbj9_pad-7" x="2727.4" y="-4716.5"/><use xlink:href="#PXHz5f9MkR-5KUUUMbj9_pad-7" x="2727.4" y="-4816.5"/><use xlink:href="#PXHz5f9MkR-5KUUUMbj9_pad-7" x="2727.4" y="-4916.5"/><use xlink:href="#PXHz5f9MkR-5KUUUMbj9_pad-7" x="2727.4" y="-5016.5"/><use xlink:href="#PXHz5f9MkR-5KUUUMbj9_pad-7" x="2727.4" y="-5116.5"/><use xlink:href="#PXHz5f9MkR-5KUUUMbj9_pad-7" x="2727.4" y="-5216.5"/><use xlink:href="#PXHz5f9MkR-5KUUUMbj9_pad-7" x="2727.8" y="-3713.1"/><use xlink:href="#PXHz5f9MkR-5KUUUMbj9_pad-7" x="2727.8" y="-3813.1"/><use xlink:href="#PXHz5f9MkR-5KUUUMbj9_pad-7" x="2727.8" y="-3913.1"/><use xlink:href="#PXHz5f9MkR-5KUUUMbj9_pad-7" x="2727.8" y="-4013.1"/><use xlink:href="#PXHz5f9MkR-5KUUUMbj9_pad-7" x="2727.8" y="-4113.1"/><use xlink:href="#PXHz5f9MkR-5KUUUMbj9_pad-7" x="2727.8" y="-4213.1"/><use xlink:href="#PXHz5f9MkR-5KUUUMbj9_pad-7" x="3169.3" y="-4945.7"/><use xlink:href="#PXHz5f9MkR-5KUUUMbj9_pad-7" x="3169.3" y="-5142.6"/><use xlink:href="#PXHz5f9MkR-5KUUUMbj9_pad-7" x="3597.6" y="-3444.9"/><use xlink:href="#PXHz5f9MkR-5KUUUMbj9_pad-7" x="3598.4" y="-5019.7"/><use xlink:href="#PXHz5f9MkR-5KUUUMbj9_pad-7" x="3697.6" y="-3444.9"/><use xlink:href="#PXHz5f9MkR-5KUUUMbj9_pad-7" x="3698.4" y="-5019.7"/><use xlink:href="#PXHz5f9MkR-5KUUUMbj9_pad-7" x="3698.8" y="-3642.7"/><use xlink:href="#PXHz5f9MkR-5KUUUMbj9_pad-7" x="3698.8" y="-4831.7"/><use xlink:href="#PXHz5f9MkR-5KUUUMbj9_pad-7" x="3797.6" y="-3444.9"/><use xlink:href="#PXHz5f9MkR-5KUUUMbj9_pad-7" x="3798.4" y="-5019.7"/><use xlink:href="#PXHz5f9MkR-5KUUUMbj9_pad-7" x="3798.8" y="-3642.7"/><use xlink:href="#PXHz5f9MkR-5KUUUMbj9_pad-7" x="3798.8" y="-4831.7"/><use xlink:href="#PXHz5f9MkR-5KUUUMbj9_pad-7" x="3897.6" y="-3444.9"/><use xlink:href="#PXHz5f9MkR-5KUUUMbj9_pad-7" x="3898.4" y="-5019.7"/><use xlink:href="#PXHz5f9MkR-5KUUUMbj9_pad-7" x="3898.8" y="-3642.7"/><use xlink:href="#PXHz5f9MkR-5KUUUMbj9_pad-7" x="3898.8" y="-4831.7"/><use xlink:href="#PXHz5f9MkR-5KUUUMbj9_pad-7" x="3997.6" y="-3444.9"/><use xlink:href="#PXHz5f9MkR-5KUUUMbj9_pad-7" x="3998.4" y="-5019.7"/><use xlink:href="#PXHz5f9MkR-5KUUUMbj9_pad-7" x="3998.8" y="-3642.7"/><use xlink:href="#PXHz5f9MkR-5KUUUMbj9_pad-7" x="3998.8" y="-4831.7"/><use xlink:href="#PXHz5f9MkR-5KUUUMbj9_pad-7" x="4097.6" y="-3444.9"/><use xlink:href="#PXHz5f9MkR-5KUUUMbj9_pad-7" x="4098.4" y="-5019.7"/><use xlink:href="#PXHz5f9MkR-5KUUUMbj9_pad-7" x="4098.8" y="-3642.7"/><use xlink:href="#PXHz5f9MkR-5KUUUMbj9_pad-7" x="4098.8" y="-4831.7"/><use xlink:href="#PXHz5f9MkR-5KUUUMbj9_pad-7" x="4197.6" y="-3444.9"/><use xlink:href="#PXHz5f9MkR-5KUUUMbj9_pad-7" x="4198.4" y="-5019.7"/><use xlink:href="#PXHz5f9MkR-5KUUUMbj9_pad-8" x="1975.4" y="-5215.7"/><use xlink:href="#PXHz5f9MkR-5KUUUMbj9_pad-8" x="2075.4" y="-5148.8"/><use xlink:href="#PXHz5f9MkR-5KUUUMbj9_pad-8" x="2373.4" y="-5215.7"/><use xlink:href="#PXHz5f9MkR-5KUUUMbj9_pad-8" x="2473.4" y="-5148.8"/><use xlink:href="#PXHz5f9MkR-5KUUUMbj9_pad-9" x="1914.4" y="-4895.7"/><use xlink:href="#PXHz5f9MkR-5KUUUMbj9_pad-9" x="2534.4" y="-4895.7"/></g></svg>