<svg version="1.1" xmlns="http://www.w3.org/2000/svg" xmlns:xlink="http://www.w3.org/1999/xlink" stroke-linecap="round" stroke-linejoin="round" stroke-width="0" fill-rule="evenodd" width="96.73mm" height="59.31mm" viewBox="52480 -110200 96730 59310" id="sV2uEwX0qMD8oKbVcPIg"><defs><circle cx="0" cy="0" r="200" id="sV2uEwX0qMD8oKbVcPIg_pad-1"/><circle cx="0" cy="0" r="350" id="sV2uEwX0qMD8oKbVcPIg_pad-2"/><circle cx="0" cy="0" r="375" id="sV2uEwX0qMD8oKbVcPIg_pad-3"/><circle cx="0" cy="0" r="400" id="sV2uEwX0qMD8oKbVcPIg_pad-4"/><circle cx="0" cy="0" r="450" id="sV2uEwX0qMD8oKbVcPIg_pad-5"/><circle cx="0" cy="0" r="500" id="sV2uEwX0qMD8oKbVcPIg_pad-6"/><circle cx="0" cy="0" r="510" id="sV2uEwX0qMD8oKbVcPIg_pad-7"/><circle cx="0" cy="0" r="800" id="sV2uEwX0qMD8oKbVcPIg_pad-8"/><circle cx="0" cy="0" r="1625" id="sV2uEwX0qMD8oKbVcPIg_pad-9"/></defs><g transform="translate(0,-161090) scale(1,-1)" fill="currentColor" stroke="currentColor"><use xlink:href="#sV2uEwX0qMD8oKbVcPIg_pad-1" x="55030" y="-66985"/><use xlink:href="#sV2uEwX0qMD8oKbVcPIg_pad-1" x="55030" y="-74605"/><use xlink:href="#sV2uEwX0qMD8oKbVcPIg_pad-1" x="55030" y="-87305"/><use xlink:href="#sV2uEwX0qMD8oKbVcPIg_pad-1" x="55030" y="-102545"/><use xlink:href="#sV2uEwX0qMD8oKbVcPIg_pad-1" x="57570" y="-82225"/><use xlink:href="#sV2uEwX0qMD8oKbVcPIg_pad-1" x="60110" y="-69525"/><use xlink:href="#sV2uEwX0qMD8oKbVcPIg_pad-1" x="60110" y="-77145"/><use xlink:href="#sV2uEwX0qMD8oKbVcPIg_pad-1" x="60500" y="-80400"/><use xlink:href="#sV2uEwX0qMD8oKbVcPIg_pad-1" x="60500" y="-110000"/><use xlink:href="#sV2uEwX0qMD8oKbVcPIg_pad-1" x="61000" y="-91500"/><use xlink:href="#sV2uEwX0qMD8oKbVcPIg_pad-1" x="61500" y="-62000"/><use xlink:href="#sV2uEwX0qMD8oKbVcPIg_pad-1" x="61500" y="-66200"/><use xlink:href="#sV2uEwX0qMD8oKbVcPIg_pad-1" x="61575" y="-87000"/><use xlink:href="#sV2uEwX0qMD8oKbVcPIg_pad-1" x="62100" y="-97000"/><use xlink:href="#sV2uEwX0qMD8oKbVcPIg_pad-1" x="62500" y="-67400"/><use xlink:href="#sV2uEwX0qMD8oKbVcPIg_pad-1" x="65012" y="-65924"/><use xlink:href="#sV2uEwX0qMD8oKbVcPIg_pad-1" x="66000" y="-53000"/><use xlink:href="#sV2uEwX0qMD8oKbVcPIg_pad-1" x="66000" y="-55000"/><use xlink:href="#sV2uEwX0qMD8oKbVcPIg_pad-1" x="66000" y="-60000"/><use xlink:href="#sV2uEwX0qMD8oKbVcPIg_pad-1" x="66000" y="-89500"/><use xlink:href="#sV2uEwX0qMD8oKbVcPIg_pad-1" x="66100" y="-76800"/><use xlink:href="#sV2uEwX0qMD8oKbVcPIg_pad-1" x="66700" y="-61800"/><use xlink:href="#sV2uEwX0qMD8oKbVcPIg_pad-1" x="66900" y="-80400"/><use xlink:href="#sV2uEwX0qMD8oKbVcPIg_pad-1" x="70100" y="-59400"/><use xlink:href="#sV2uEwX0qMD8oKbVcPIg_pad-1" x="70270" y="-72065"/><use xlink:href="#sV2uEwX0qMD8oKbVcPIg_pad-1" x="70270" y="-97465"/><use xlink:href="#sV2uEwX0qMD8oKbVcPIg_pad-1" x="71500" y="-58400"/><use xlink:href="#sV2uEwX0qMD8oKbVcPIg_pad-1" x="72500" y="-62200"/><use xlink:href="#sV2uEwX0qMD8oKbVcPIg_pad-1" x="72700" y="-58400"/><use xlink:href="#sV2uEwX0qMD8oKbVcPIg_pad-1" x="72810" y="-77145"/><use xlink:href="#sV2uEwX0qMD8oKbVcPIg_pad-1" x="74100" y="-58400"/><use xlink:href="#sV2uEwX0qMD8oKbVcPIg_pad-1" x="75250" y="-76250"/><use xlink:href="#sV2uEwX0qMD8oKbVcPIg_pad-1" x="80430" y="-64445"/><use xlink:href="#sV2uEwX0qMD8oKbVcPIg_pad-1" x="80430" y="-74605"/><use xlink:href="#sV2uEwX0qMD8oKbVcPIg_pad-1" x="80430" y="-82225"/><use xlink:href="#sV2uEwX0qMD8oKbVcPIg_pad-1" x="80430" y="-105085"/><use xlink:href="#sV2uEwX0qMD8oKbVcPIg_pad-1" x="80500" y="-100750"/><use xlink:href="#sV2uEwX0qMD8oKbVcPIg_pad-1" x="82970" y="-69525"/><use xlink:href="#sV2uEwX0qMD8oKbVcPIg_pad-1" x="83750" y="-55250"/><use xlink:href="#sV2uEwX0qMD8oKbVcPIg_pad-1" x="85510" y="-77145"/><use xlink:href="#sV2uEwX0qMD8oKbVcPIg_pad-1" x="85510" y="-84765"/><use xlink:href="#sV2uEwX0qMD8oKbVcPIg_pad-1" x="85510" y="-97465"/><use xlink:href="#sV2uEwX0qMD8oKbVcPIg_pad-1" x="88050" y="-54285"/><use xlink:href="#sV2uEwX0qMD8oKbVcPIg_pad-1" x="88050" y="-64445"/><use xlink:href="#sV2uEwX0qMD8oKbVcPIg_pad-1" x="89900" y="-87400"/><use xlink:href="#sV2uEwX0qMD8oKbVcPIg_pad-1" x="90100" y="-89600"/><use xlink:href="#sV2uEwX0qMD8oKbVcPIg_pad-1" x="90590" y="-69525"/><use xlink:href="#sV2uEwX0qMD8oKbVcPIg_pad-1" x="90590" y="-79685"/><use xlink:href="#sV2uEwX0qMD8oKbVcPIg_pad-1" x="90590" y="-100005"/><use xlink:href="#sV2uEwX0qMD8oKbVcPIg_pad-1" x="94100" y="-60200"/><use xlink:href="#sV2uEwX0qMD8oKbVcPIg_pad-1" x="94100" y="-87400"/><use xlink:href="#sV2uEwX0qMD8oKbVcPIg_pad-1" x="94900" y="-61200"/><use xlink:href="#sV2uEwX0qMD8oKbVcPIg_pad-1" x="98210" y="-56825"/><use xlink:href="#sV2uEwX0qMD8oKbVcPIg_pad-1" x="98210" y="-72065"/><use xlink:href="#sV2uEwX0qMD8oKbVcPIg_pad-1" x="98210" y="-79685"/><use xlink:href="#sV2uEwX0qMD8oKbVcPIg_pad-1" x="98210" y="-89845"/><use xlink:href="#sV2uEwX0qMD8oKbVcPIg_pad-1" x="98210" y="-97465"/><use xlink:href="#sV2uEwX0qMD8oKbVcPIg_pad-1" x="100750" y="-107625"/><use xlink:href="#sV2uEwX0qMD8oKbVcPIg_pad-1" x="105830" y="-66985"/><use xlink:href="#sV2uEwX0qMD8oKbVcPIg_pad-1" x="105830" y="-82225"/><use xlink:href="#sV2uEwX0qMD8oKbVcPIg_pad-1" x="105830" y="-89845"/><use xlink:href="#sV2uEwX0qMD8oKbVcPIg_pad-1" x="108370" y="-56825"/><use xlink:href="#sV2uEwX0qMD8oKbVcPIg_pad-1" x="108370" y="-94925"/><use xlink:href="#sV2uEwX0qMD8oKbVcPIg_pad-1" x="108370" y="-102545"/><use xlink:href="#sV2uEwX0qMD8oKbVcPIg_pad-1" x="108683" y="-68800"/><use xlink:href="#sV2uEwX0qMD8oKbVcPIg_pad-1" x="110910" y="-51745"/><use xlink:href="#sV2uEwX0qMD8oKbVcPIg_pad-1" x="110910" y="-77145"/><use xlink:href="#sV2uEwX0qMD8oKbVcPIg_pad-1" x="110910" y="-84765"/><use xlink:href="#sV2uEwX0qMD8oKbVcPIg_pad-1" x="113450" y="-72065"/><use xlink:href="#sV2uEwX0qMD8oKbVcPIg_pad-1" x="113450" y="-89845"/><use xlink:href="#sV2uEwX0qMD8oKbVcPIg_pad-1" x="113450" y="-97465"/><use xlink:href="#sV2uEwX0qMD8oKbVcPIg_pad-1" x="115990" y="-54285"/><use xlink:href="#sV2uEwX0qMD8oKbVcPIg_pad-1" x="115990" y="-66985"/><use xlink:href="#sV2uEwX0qMD8oKbVcPIg_pad-1" x="115990" y="-79685"/><use xlink:href="#sV2uEwX0qMD8oKbVcPIg_pad-1" x="115990" y="-107625"/><use xlink:href="#sV2uEwX0qMD8oKbVcPIg_pad-1" x="118530" y="-74605"/><use xlink:href="#sV2uEwX0qMD8oKbVcPIg_pad-1" x="118530" y="-84765"/><use xlink:href="#sV2uEwX0qMD8oKbVcPIg_pad-1" x="118530" y="-92385"/><use xlink:href="#sV2uEwX0qMD8oKbVcPIg_pad-1" x="121070" y="-51745"/><use xlink:href="#sV2uEwX0qMD8oKbVcPIg_pad-1" x="121070" y="-105085"/><use xlink:href="#sV2uEwX0qMD8oKbVcPIg_pad-1" x="123610" y="-56825"/><use xlink:href="#sV2uEwX0qMD8oKbVcPIg_pad-1" x="123610" y="-69525"/><use xlink:href="#sV2uEwX0qMD8oKbVcPIg_pad-1" x="123610" y="-77145"/><use xlink:href="#sV2uEwX0qMD8oKbVcPIg_pad-1" x="123610" y="-87305"/><use xlink:href="#sV2uEwX0qMD8oKbVcPIg_pad-1" x="126150" y="-107625"/><use xlink:href="#sV2uEwX0qMD8oKbVcPIg_pad-1" x="128690" y="-51745"/><use xlink:href="#sV2uEwX0qMD8oKbVcPIg_pad-1" x="128690" y="-72065"/><use xlink:href="#sV2uEwX0qMD8oKbVcPIg_pad-1" x="128690" y="-79685"/><use xlink:href="#sV2uEwX0qMD8oKbVcPIg_pad-1" x="128690" y="-89845"/><use xlink:href="#sV2uEwX0qMD8oKbVcPIg_pad-1" x="131230" y="-56825"/><use xlink:href="#sV2uEwX0qMD8oKbVcPIg_pad-1" x="131230" y="-64445"/><use xlink:href="#sV2uEwX0qMD8oKbVcPIg_pad-1" x="131230" y="-84765"/><use xlink:href="#sV2uEwX0qMD8oKbVcPIg_pad-1" x="131230" y="-94925"/><use xlink:href="#sV2uEwX0qMD8oKbVcPIg_pad-1" x="131230" y="-105085"/><use xlink:href="#sV2uEwX0qMD8oKbVcPIg_pad-1" x="133770" y="-69525"/><use xlink:href="#sV2uEwX0qMD8oKbVcPIg_pad-1" x="133770" y="-77145"/><use xlink:href="#sV2uEwX0qMD8oKbVcPIg_pad-1" x="133770" y="-100005"/><use xlink:href="#sV2uEwX0qMD8oKbVcPIg_pad-1" x="136310" y="-51745"/><use xlink:href="#sV2uEwX0qMD8oKbVcPIg_pad-1" x="136310" y="-59365"/><use xlink:href="#sV2uEwX0qMD8oKbVcPIg_pad-1" x="136310" y="-82225"/><use xlink:href="#sV2uEwX0qMD8oKbVcPIg_pad-1" x="136310" y="-89845"/><use xlink:href="#sV2uEwX0qMD8oKbVcPIg_pad-1" x="136310" y="-107625"/><use xlink:href="#sV2uEwX0qMD8oKbVcPIg_pad-1" x="138850" y="-64445"/><use xlink:href="#sV2uEwX0qMD8oKbVcPIg_pad-1" x="138850" y="-72065"/><use xlink:href="#sV2uEwX0qMD8oKbVcPIg_pad-1" x="138850" y="-94925"/><use xlink:href="#sV2uEwX0qMD8oKbVcPIg_pad-1" x="138850" y="-102545"/><use xlink:href="#sV2uEwX0qMD8oKbVcPIg_pad-1" x="141390" y="-54285"/><use xlink:href="#sV2uEwX0qMD8oKbVcPIg_pad-1" x="141390" y="-77145"/><use xlink:href="#sV2uEwX0qMD8oKbVcPIg_pad-1" x="141390" y="-84765"/><use xlink:href="#sV2uEwX0qMD8oKbVcPIg_pad-1" x="143930" y="-59365"/><use xlink:href="#sV2uEwX0qMD8oKbVcPIg_pad-1" x="143930" y="-66985"/><use xlink:href="#sV2uEwX0qMD8oKbVcPIg_pad-1" x="143930" y="-89845"/><use xlink:href="#sV2uEwX0qMD8oKbVcPIg_pad-1" x="143930" y="-97465"/><use xlink:href="#sV2uEwX0qMD8oKbVcPIg_pad-1" x="143930" y="-105085"/><use xlink:href="#sV2uEwX0qMD8oKbVcPIg_pad-1" x="146470" y="-51745"/><use xlink:href="#sV2uEwX0qMD8oKbVcPIg_pad-1" x="146470" y="-72065"/><use xlink:href="#sV2uEwX0qMD8oKbVcPIg_pad-1" x="146470" y="-79685"/><use xlink:href="#sV2uEwX0qMD8oKbVcPIg_pad-1" x="149010" y="-56825"/><use xlink:href="#sV2uEwX0qMD8oKbVcPIg_pad-1" x="149010" y="-64445"/><use xlink:href="#sV2uEwX0qMD8oKbVcPIg_pad-1" x="149010" y="-84765"/><use xlink:href="#sV2uEwX0qMD8oKbVcPIg_pad-1" x="149010" y="-92385"/><use xlink:href="#sV2uEwX0qMD8oKbVcPIg_pad-1" x="149010" y="-100005"/><use xlink:href="#sV2uEwX0qMD8oKbVcPIg_pad-1" x="149010" y="-107625"/><use xlink:href="#sV2uEwX0qMD8oKbVcPIg_pad-2" x="55330" y="-94740"/><use xlink:href="#sV2uEwX0qMD8oKbVcPIg_pad-2" x="55330" y="-96740"/><use xlink:href="#sV2uEwX0qMD8oKbVcPIg_pad-2" x="57330" y="-94740"/><use xlink:href="#sV2uEwX0qMD8oKbVcPIg_pad-2" x="57330" y="-96740"/><use xlink:href="#sV2uEwX0qMD8oKbVcPIg_pad-2" x="59330" y="-94740"/><use xlink:href="#sV2uEwX0qMD8oKbVcPIg_pad-2" x="59330" y="-96740"/><use xlink:href="#sV2uEwX0qMD8oKbVcPIg_pad-3" x="65070" y="-93200"/><use xlink:href="#sV2uEwX0qMD8oKbVcPIg_pad-3" x="65070" y="-95740"/><use xlink:href="#sV2uEwX0qMD8oKbVcPIg_pad-3" x="65070" y="-98280"/><use xlink:href="#sV2uEwX0qMD8oKbVcPIg_pad-3" x="65070" y="-100820"/><use xlink:href="#sV2uEwX0qMD8oKbVcPIg_pad-3" x="65070" y="-103360"/><use xlink:href="#sV2uEwX0qMD8oKbVcPIg_pad-3" x="94450" y="-54400"/><use xlink:href="#sV2uEwX0qMD8oKbVcPIg_pad-3" x="94450" y="-56400"/><use xlink:href="#sV2uEwX0qMD8oKbVcPIg_pad-4" x="52880" y="-51290"/><use xlink:href="#sV2uEwX0qMD8oKbVcPIg_pad-4" x="52880" y="-53830"/><use xlink:href="#sV2uEwX0qMD8oKbVcPIg_pad-4" x="52880" y="-56370"/><use xlink:href="#sV2uEwX0qMD8oKbVcPIg_pad-4" x="52880" y="-58910"/><use xlink:href="#sV2uEwX0qMD8oKbVcPIg_pad-4" x="52880" y="-61450"/><use xlink:href="#sV2uEwX0qMD8oKbVcPIg_pad-4" x="52880" y="-63990"/><use xlink:href="#sV2uEwX0qMD8oKbVcPIg_pad-4" x="52880" y="-66530"/><use xlink:href="#sV2uEwX0qMD8oKbVcPIg_pad-4" x="52880" y="-69070"/><use xlink:href="#sV2uEwX0qMD8oKbVcPIg_pad-4" x="52880" y="-71610"/><use xlink:href="#sV2uEwX0qMD8oKbVcPIg_pad-4" x="52880" y="-74150"/><use xlink:href="#sV2uEwX0qMD8oKbVcPIg_pad-4" x="52880" y="-76690"/><use xlink:href="#sV2uEwX0qMD8oKbVcPIg_pad-4" x="52880" y="-79230"/><use xlink:href="#sV2uEwX0qMD8oKbVcPIg_pad-4" x="52880" y="-81770"/><use xlink:href="#sV2uEwX0qMD8oKbVcPIg_pad-4" x="52880" y="-84310"/><use xlink:href="#sV2uEwX0qMD8oKbVcPIg_pad-4" x="52880" y="-86850"/><use xlink:href="#sV2uEwX0qMD8oKbVcPIg_pad-4" x="52880" y="-89390"/><use xlink:href="#sV2uEwX0qMD8oKbVcPIg_pad-4" x="52880" y="-91930"/><use xlink:href="#sV2uEwX0qMD8oKbVcPIg_pad-4" x="52880" y="-94470"/><use xlink:href="#sV2uEwX0qMD8oKbVcPIg_pad-4" x="52880" y="-97010"/><use xlink:href="#sV2uEwX0qMD8oKbVcPIg_pad-4" x="52880" y="-99550"/><use xlink:href="#sV2uEwX0qMD8oKbVcPIg_pad-4" x="52880" y="-102090"/><use xlink:href="#sV2uEwX0qMD8oKbVcPIg_pad-4" x="52880" y="-104630"/><use xlink:href="#sV2uEwX0qMD8oKbVcPIg_pad-4" x="52880" y="-107170"/><use xlink:href="#sV2uEwX0qMD8oKbVcPIg_pad-4" x="52880" y="-109710"/><use xlink:href="#sV2uEwX0qMD8oKbVcPIg_pad-4" x="55420" y="-63990"/><use xlink:href="#sV2uEwX0qMD8oKbVcPIg_pad-4" x="55420" y="-107170"/><use xlink:href="#sV2uEwX0qMD8oKbVcPIg_pad-4" x="57960" y="-63990"/><use xlink:href="#sV2uEwX0qMD8oKbVcPIg_pad-4" x="60500" y="-63990"/><use xlink:href="#sV2uEwX0qMD8oKbVcPIg_pad-4" x="63040" y="-63990"/><use xlink:href="#sV2uEwX0qMD8oKbVcPIg_pad-4" x="65580" y="-63990"/><use xlink:href="#sV2uEwX0qMD8oKbVcPIg_pad-4" x="68120" y="-51290"/><use xlink:href="#sV2uEwX0qMD8oKbVcPIg_pad-4" x="68120" y="-53830"/><use xlink:href="#sV2uEwX0qMD8oKbVcPIg_pad-4" x="68120" y="-56370"/><use xlink:href="#sV2uEwX0qMD8oKbVcPIg_pad-4" x="68120" y="-58910"/><use xlink:href="#sV2uEwX0qMD8oKbVcPIg_pad-4" x="68120" y="-61450"/><use xlink:href="#sV2uEwX0qMD8oKbVcPIg_pad-4" x="68120" y="-63990"/><use xlink:href="#sV2uEwX0qMD8oKbVcPIg_pad-4" x="68120" y="-66530"/><use xlink:href="#sV2uEwX0qMD8oKbVcPIg_pad-4" x="68120" y="-69070"/><use xlink:href="#sV2uEwX0qMD8oKbVcPIg_pad-4" x="68120" y="-71610"/><use xlink:href="#sV2uEwX0qMD8oKbVcPIg_pad-4" x="68120" y="-74150"/><use xlink:href="#sV2uEwX0qMD8oKbVcPIg_pad-4" x="68120" y="-76690"/><use xlink:href="#sV2uEwX0qMD8oKbVcPIg_pad-4" x="68120" y="-79230"/><use xlink:href="#sV2uEwX0qMD8oKbVcPIg_pad-4" x="68120" y="-81770"/><use xlink:href="#sV2uEwX0qMD8oKbVcPIg_pad-4" x="68120" y="-84310"/><use xlink:href="#sV2uEwX0qMD8oKbVcPIg_pad-4" x="68120" y="-86850"/><use xlink:href="#sV2uEwX0qMD8oKbVcPIg_pad-4" x="68120" y="-89390"/><use xlink:href="#sV2uEwX0qMD8oKbVcPIg_pad-4" x="68120" y="-91930"/><use xlink:href="#sV2uEwX0qMD8oKbVcPIg_pad-4" x="68120" y="-94470"/><use xlink:href="#sV2uEwX0qMD8oKbVcPIg_pad-4" x="68120" y="-97010"/><use xlink:href="#sV2uEwX0qMD8oKbVcPIg_pad-4" x="68120" y="-99550"/><use xlink:href="#sV2uEwX0qMD8oKbVcPIg_pad-4" x="68120" y="-102090"/><use xlink:href="#sV2uEwX0qMD8oKbVcPIg_pad-4" x="68120" y="-104630"/><use xlink:href="#sV2uEwX0qMD8oKbVcPIg_pad-4" x="68120" y="-107170"/><use xlink:href="#sV2uEwX0qMD8oKbVcPIg_pad-4" x="68120" y="-109710"/><use xlink:href="#sV2uEwX0qMD8oKbVcPIg_pad-5" x="77055" y="-94550"/><use xlink:href="#sV2uEwX0qMD8oKbVcPIg_pad-5" x="78325" y="-92010"/><use xlink:href="#sV2uEwX0qMD8oKbVcPIg_pad-5" x="79595" y="-94550"/><use xlink:href="#sV2uEwX0qMD8oKbVcPIg_pad-5" x="80865" y="-92010"/><use xlink:href="#sV2uEwX0qMD8oKbVcPIg_pad-5" x="82135" y="-94550"/><use xlink:href="#sV2uEwX0qMD8oKbVcPIg_pad-5" x="83405" y="-92010"/><use xlink:href="#sV2uEwX0qMD8oKbVcPIg_pad-5" x="84675" y="-94550"/><use xlink:href="#sV2uEwX0qMD8oKbVcPIg_pad-5" x="85945" y="-92010"/><use xlink:href="#sV2uEwX0qMD8oKbVcPIg_pad-6" x="76130" y="-53250"/><use xlink:href="#sV2uEwX0qMD8oKbVcPIg_pad-6" x="76275" y="-78430"/><use xlink:href="#sV2uEwX0qMD8oKbVcPIg_pad-6" x="76275" y="-80970"/><use xlink:href="#sV2uEwX0qMD8oKbVcPIg_pad-6" x="76275" y="-83510"/><use xlink:href="#sV2uEwX0qMD8oKbVcPIg_pad-6" x="76275" y="-86050"/><use xlink:href="#sV2uEwX0qMD8oKbVcPIg_pad-6" x="76300" y="-62840"/><use xlink:href="#sV2uEwX0qMD8oKbVcPIg_pad-6" x="76300" y="-65380"/><use xlink:href="#sV2uEwX0qMD8oKbVcPIg_pad-6" x="76300" y="-67920"/><use xlink:href="#sV2uEwX0qMD8oKbVcPIg_pad-6" x="76300" y="-70460"/><use xlink:href="#sV2uEwX0qMD8oKbVcPIg_pad-6" x="76300" y="-73000"/><use xlink:href="#sV2uEwX0qMD8oKbVcPIg_pad-6" x="78670" y="-53250"/><use xlink:href="#sV2uEwX0qMD8oKbVcPIg_pad-6" x="81210" y="-53250"/><use xlink:href="#sV2uEwX0qMD8oKbVcPIg_pad-6" x="83750" y="-53250"/><use xlink:href="#sV2uEwX0qMD8oKbVcPIg_pad-6" x="86290" y="-53250"/><use xlink:href="#sV2uEwX0qMD8oKbVcPIg_pad-6" x="94275" y="-90760"/><use xlink:href="#sV2uEwX0qMD8oKbVcPIg_pad-6" x="94275" y="-93300"/><use xlink:href="#sV2uEwX0qMD8oKbVcPIg_pad-6" x="94275" y="-95840"/><use xlink:href="#sV2uEwX0qMD8oKbVcPIg_pad-6" x="94275" y="-98380"/><use xlink:href="#sV2uEwX0qMD8oKbVcPIg_pad-6" x="94275" y="-100920"/><use xlink:href="#sV2uEwX0qMD8oKbVcPIg_pad-6" x="94275" y="-103460"/><use xlink:href="#sV2uEwX0qMD8oKbVcPIg_pad-6" x="94275" y="-106000"/><use xlink:href="#sV2uEwX0qMD8oKbVcPIg_pad-6" x="94286" y="-67813"/><use xlink:href="#sV2uEwX0qMD8oKbVcPIg_pad-6" x="94286" y="-70353"/><use xlink:href="#sV2uEwX0qMD8oKbVcPIg_pad-6" x="94286" y="-72893"/><use xlink:href="#sV2uEwX0qMD8oKbVcPIg_pad-6" x="94286" y="-75433"/><use xlink:href="#sV2uEwX0qMD8oKbVcPIg_pad-6" x="94286" y="-77973"/><use xlink:href="#sV2uEwX0qMD8oKbVcPIg_pad-6" x="94286" y="-80513"/><use xlink:href="#sV2uEwX0qMD8oKbVcPIg_pad-6" x="105500" y="-99121"/><use xlink:href="#sV2uEwX0qMD8oKbVcPIg_pad-6" x="105500" y="-104121"/><use xlink:href="#sV2uEwX0qMD8oKbVcPIg_pad-6" x="116380" y="-61000"/><use xlink:href="#sV2uEwX0qMD8oKbVcPIg_pad-6" x="116400" y="-101000"/><use xlink:href="#sV2uEwX0qMD8oKbVcPIg_pad-6" x="118920" y="-61000"/><use xlink:href="#sV2uEwX0qMD8oKbVcPIg_pad-6" x="118940" y="-101000"/><use xlink:href="#sV2uEwX0qMD8oKbVcPIg_pad-6" x="118950" y="-66025"/><use xlink:href="#sV2uEwX0qMD8oKbVcPIg_pad-6" x="118950" y="-96225"/><use xlink:href="#sV2uEwX0qMD8oKbVcPIg_pad-6" x="121460" y="-61000"/><use xlink:href="#sV2uEwX0qMD8oKbVcPIg_pad-6" x="121480" y="-101000"/><use xlink:href="#sV2uEwX0qMD8oKbVcPIg_pad-6" x="121490" y="-66025"/><use xlink:href="#sV2uEwX0qMD8oKbVcPIg_pad-6" x="121490" y="-96225"/><use xlink:href="#sV2uEwX0qMD8oKbVcPIg_pad-6" x="124000" y="-61000"/><use xlink:href="#sV2uEwX0qMD8oKbVcPIg_pad-6" x="124020" y="-101000"/><use xlink:href="#sV2uEwX0qMD8oKbVcPIg_pad-6" x="124030" y="-66025"/><use xlink:href="#sV2uEwX0qMD8oKbVcPIg_pad-6" x="124030" y="-96225"/><use xlink:href="#sV2uEwX0qMD8oKbVcPIg_pad-6" x="126540" y="-61000"/><use xlink:href="#sV2uEwX0qMD8oKbVcPIg_pad-6" x="126560" y="-101000"/><use xlink:href="#sV2uEwX0qMD8oKbVcPIg_pad-6" x="126570" y="-66025"/><use xlink:href="#sV2uEwX0qMD8oKbVcPIg_pad-6" x="126570" y="-96225"/><use xlink:href="#sV2uEwX0qMD8oKbVcPIg_pad-6" x="129080" y="-61000"/><use xlink:href="#sV2uEwX0qMD8oKbVcPIg_pad-6" x="129100" y="-101000"/><use xlink:href="#sV2uEwX0qMD8oKbVcPIg_pad-6" x="129110" y="-66025"/><use xlink:href="#sV2uEwX0qMD8oKbVcPIg_pad-6" x="129110" y="-96225"/><use xlink:href="#sV2uEwX0qMD8oKbVcPIg_pad-6" x="131620" y="-61000"/><use xlink:href="#sV2uEwX0qMD8oKbVcPIg_pad-6" x="131640" y="-101000"/><use xlink:href="#sV2uEwX0qMD8oKbVcPIg_pad-7" x="75175" y="-105980"/><use xlink:href="#sV2uEwX0qMD8oKbVcPIg_pad-7" x="77715" y="-104280"/><use xlink:href="#sV2uEwX0qMD8oKbVcPIg_pad-7" x="85285" y="-105980"/><use xlink:href="#sV2uEwX0qMD8oKbVcPIg_pad-7" x="87825" y="-104280"/><use xlink:href="#sV2uEwX0qMD8oKbVcPIg_pad-8" x="73625" y="-97850"/><use xlink:href="#sV2uEwX0qMD8oKbVcPIg_pad-8" x="89375" y="-97850"/><use xlink:href="#sV2uEwX0qMD8oKbVcPIg_pad-9" x="75785" y="-100900"/><use xlink:href="#sV2uEwX0qMD8oKbVcPIg_pad-9" x="87215" y="-100900"/></g></svg>