<svg version="1.1" xmlns="http://www.w3.org/2000/svg" xmlns:xlink="http://www.w3.org/1999/xlink" stroke-linecap="round" stroke-linejoin="round" stroke-width="0" fill-rule="evenodd" width="96.849mm" height="59.73662mm" viewBox="52226 -110364 96849 59736.62" id="fd5bwswBlgmNtL2WKkzD"><defs><rect x="-850" y="-850" width="1700" height="1700" id="fd5bwswBlgmNtL2WKkzD_pad-12"/><rect x="-850" y="-850" width="1700" height="1700" rx="850" ry="850" id="fd5bwswBlgmNtL2WKkzD_pad-13"/><g id="fd5bwswBlgmNtL2WKkzD_pad-14"><polygon points="475,-337.5 475,337.5 -475,337.5 -475,-337.5"/><circle cx="475" cy="-337.5" r="250"/><circle cx="475" cy="337.5" r="250"/><circle cx="-475" cy="337.5" r="250"/><circle cx="-475" cy="-337.5" r="250"/><polygon points="725,-337.5 725,337.5 225,337.5 225,-337.5"/><polygon points="475,87.5 -475,87.5 -475,587.5 475,587.5"/><polygon points="-225,337.5 -225,-337.5 -725,-337.5 -725,337.5"/><polygon points="-475,-587.5 475,-587.5 475,-87.5 -475,-87.5"/></g><rect x="-1000" y="-325" width="2000" height="650" id="fd5bwswBlgmNtL2WKkzD_pad-15"/><g id="fd5bwswBlgmNtL2WKkzD_pad-16"><polygon points="1074.999,-462.499 1074.999,462.499 -1074.999,462.499 -1074.999,-462.499"/><circle cx="1074.999" cy="-462.499" r="250.001"/><circle cx="1074.999" cy="462.499" r="250.001"/><circle cx="-1074.999" cy="462.499" r="250.001"/><circle cx="-1074.999" cy="-462.499" r="250.001"/><polygon points="1325,-462.499 1325,462.499 824.998,462.499 824.998,-462.499"/><polygon points="1074.999,212.498 -1074.999,212.498 -1074.999,712.5 1074.999,712.5"/><polygon points="-824.998,462.499 -824.998,-462.499 -1325,-462.499 -1325,462.499"/><polygon points="-1074.999,-712.5 1074.999,-712.5 1074.999,-212.498 -1074.999,-212.498"/></g><circle cx="0" cy="0" r="1000" id="fd5bwswBlgmNtL2WKkzD_pad-17"/><rect x="-1500" y="-1500" width="3000" height="3000" id="fd5bwswBlgmNtL2WKkzD_pad-18"/><g id="fd5bwswBlgmNtL2WKkzD_pad-19"><polygon points="350,450 -350,450 -350,-450 350,-450"/><circle cx="350" cy="450" r="250"/><circle cx="-350" cy="450" r="250"/><circle cx="-350" cy="-450" r="250"/><circle cx="350" cy="-450" r="250"/><polygon points="350,200 -350,200 -350,700 350,700"/><polygon points="-100,450 -100,-450 -600,-450 -600,450"/><polygon points="-350,-700 350,-700 350,-200 -350,-200"/><polygon points="600,-450 600,450 100,450 100,-450"/></g><circle cx="0" cy="0" r="1625" id="fd5bwswBlgmNtL2WKkzD_pad-20"/><g id="fd5bwswBlgmNtL2WKkzD_pad-21"><polygon points="-499.5,-499.5 499.5,-499.5 499.5,499.5 -499.5,499.5"/><circle cx="-499.5" cy="-499.5" r="250.5"/><circle cx="499.5" cy="-499.5" r="250.5"/><circle cx="499.5" cy="499.5" r="250.5"/><circle cx="-499.5" cy="499.5" r="250.5"/><polygon points="-499.5,-750 499.5,-750 499.5,-249 -499.5,-249"/><polygon points="750,-499.5 750,499.5 249,499.5 249,-499.5"/><polygon points="499.5,249 -499.5,249 -499.5,750 499.5,750"/><polygon points="-249,499.5 -249,-499.5 -750,-499.5 -750,499.5"/></g><circle cx="0" cy="0" r="750" id="fd5bwswBlgmNtL2WKkzD_pad-22"/><circle cx="0" cy="0" r="1250" id="fd5bwswBlgmNtL2WKkzD_pad-23"/><rect x="-780" y="-325" width="1560" height="650" id="fd5bwswBlgmNtL2WKkzD_pad-24"/><g id="fd5bwswBlgmNtL2WKkzD_pad-25"><polygon points="-350,-450 350,-450 350,450 -350,450"/><circle cx="-350" cy="-450" r="250"/><circle cx="350" cy="-450" r="250"/><circle cx="350" cy="450" r="250"/><circle cx="-350" cy="450" r="250"/><polygon points="-350,-700 350,-700 350,-200 -350,-200"/><polygon points="600,-450 600,450 100,450 100,-450"/><polygon points="350,200 -350,200 -350,700 350,700"/><polygon points="-100,450 -100,-450 -600,-450 -600,450"/></g><g id="fd5bwswBlgmNtL2WKkzD_pad-26"><polygon points="-337.5,-475 337.5,-475 337.5,475 -337.5,475"/><circle cx="-337.5" cy="-475" r="250"/><circle cx="337.5" cy="-475" r="250"/><circle cx="337.5" cy="475" r="250"/><circle cx="-337.5" cy="475" r="250"/><polygon points="-337.5,-725 337.5,-725 337.5,-225 -337.5,-225"/><polygon points="587.5,-475 587.5,475 87.5,475 87.5,-475"/><polygon points="337.5,225 -337.5,225 -337.5,725 337.5,725"/><polygon points="-87.5,475 -87.5,-475 -587.5,-475 -587.5,475"/></g><g id="fd5bwswBlgmNtL2WKkzD_pad-27"><polygon points="337.5,475 -337.5,475 -337.5,-475 337.5,-475"/><circle cx="337.5" cy="475" r="250"/><circle cx="-337.5" cy="475" r="250"/><circle cx="-337.5" cy="-475" r="250"/><circle cx="337.5" cy="-475" r="250"/><polygon points="337.5,225 -337.5,225 -337.5,725 337.5,725"/><polygon points="-87.5,475 -87.5,-475 -587.5,-475 -587.5,475"/><polygon points="-337.5,-725 337.5,-725 337.5,-225 -337.5,-225"/><polygon points="587.5,-475 587.5,475 87.5,475 87.5,-475"/></g><g id="fd5bwswBlgmNtL2WKkzD_pad-28"><polygon points="-625,350 -625,-350 625,-350 625,350"/><circle cx="-625" cy="350" r="250"/><circle cx="-625" cy="-350" r="250"/><circle cx="625" cy="-350" r="250"/><circle cx="625" cy="350" r="250"/><polygon points="-375,350 -375,-350 -875,-350 -875,350"/><polygon points="-625,-600 625,-600 625,-100 -625,-100"/><polygon points="875,-350 875,350 375,350 375,-350"/><polygon points="625,100 -625,100 -625,600 625,600"/></g><rect x="-875" y="-600" width="1750" height="1200" rx="600" ry="600" id="fd5bwswBlgmNtL2WKkzD_pad-29"/><g id="fd5bwswBlgmNtL2WKkzD_pad-30"><polygon points="-475,337.5 -475,-337.5 475,-337.5 475,337.5"/><circle cx="-475" cy="337.5" r="250"/><circle cx="-475" cy="-337.5" r="250"/><circle cx="475" cy="-337.5" r="250"/><circle cx="475" cy="337.5" r="250"/><polygon points="-225,337.5 -225,-337.5 -725,-337.5 -725,337.5"/><polygon points="-475,-587.5 475,-587.5 475,-87.5 -475,-87.5"/><polygon points="725,-337.5 725,337.5 225,337.5 225,-337.5"/><polygon points="475,87.5 -475,87.5 -475,587.5 475,587.5"/></g><rect x="-1000" y="-1000" width="2000" height="2000" id="fd5bwswBlgmNtL2WKkzD_pad-31"/><rect x="-450" y="-600" width="900" height="1200" id="fd5bwswBlgmNtL2WKkzD_pad-32"/><circle cx="0" cy="0" r="654" id="fd5bwswBlgmNtL2WKkzD_pad-33"/><circle cx="0" cy="0" r="629" id="fd5bwswBlgmNtL2WKkzD_pad-34"/><circle cx="0" cy="0" r="604" id="fd5bwswBlgmNtL2WKkzD_pad-35"/><mask id="fd5bwswBlgmNtL2WKkzD_clear-1" fill="#000" stroke="#000"><g><rect x="54079.761" y="-106075" width="94995.239" height="55447.62" fill="#fff"/><use xlink:href="#fd5bwswBlgmNtL2WKkzD_pad-12" x="76275" y="-86050"/><use xlink:href="#fd5bwswBlgmNtL2WKkzD_pad-13" x="76275" y="-83510"/><use xlink:href="#fd5bwswBlgmNtL2WKkzD_pad-13" x="76275" y="-80970"/><use xlink:href="#fd5bwswBlgmNtL2WKkzD_pad-13" x="76275" y="-78430"/><use xlink:href="#fd5bwswBlgmNtL2WKkzD_pad-12" x="116380" y="-61000"/><use xlink:href="#fd5bwswBlgmNtL2WKkzD_pad-13" x="118920" y="-61000"/><use xlink:href="#fd5bwswBlgmNtL2WKkzD_pad-13" x="121460" y="-61000"/><use xlink:href="#fd5bwswBlgmNtL2WKkzD_pad-13" x="124000" y="-61000"/><use xlink:href="#fd5bwswBlgmNtL2WKkzD_pad-13" x="126540" y="-61000"/><use xlink:href="#fd5bwswBlgmNtL2WKkzD_pad-13" x="129080" y="-61000"/><use xlink:href="#fd5bwswBlgmNtL2WKkzD_pad-13" x="131620" y="-61000"/><use xlink:href="#fd5bwswBlgmNtL2WKkzD_pad-14" x="103962.5" y="-70787.5"/><use xlink:href="#fd5bwswBlgmNtL2WKkzD_pad-14" x="103962.5" y="-68712.5"/><use xlink:href="#fd5bwswBlgmNtL2WKkzD_pad-15" x="64750" y="-57300"/><use xlink:href="#fd5bwswBlgmNtL2WKkzD_pad-15" x="64750" y="-58250"/><use xlink:href="#fd5bwswBlgmNtL2WKkzD_pad-15" x="64750" y="-59200"/><use xlink:href="#fd5bwswBlgmNtL2WKkzD_pad-15" x="61330" y="-59200"/><use xlink:href="#fd5bwswBlgmNtL2WKkzD_pad-15" x="61330" y="-58250"/><use xlink:href="#fd5bwswBlgmNtL2WKkzD_pad-15" x="61330" y="-57300"/><use xlink:href="#fd5bwswBlgmNtL2WKkzD_pad-16" x="57250" y="-60237.5"/><use xlink:href="#fd5bwswBlgmNtL2WKkzD_pad-16" x="57250" y="-57262.5"/><use xlink:href="#fd5bwswBlgmNtL2WKkzD_pad-17" x="104000" y="-53500"/><use xlink:href="#fd5bwswBlgmNtL2WKkzD_pad-18" x="124000" y="-53500"/><use xlink:href="#fd5bwswBlgmNtL2WKkzD_pad-19" x="102750" y="-104250"/><use xlink:href="#fd5bwswBlgmNtL2WKkzD_pad-19" x="100750" y="-104250"/><use xlink:href="#fd5bwswBlgmNtL2WKkzD_pad-20" x="87215" y="-100900"/><use xlink:href="#fd5bwswBlgmNtL2WKkzD_pad-20" x="75785" y="-100900"/><use xlink:href="#fd5bwswBlgmNtL2WKkzD_pad-21" x="77055" y="-94550"/><use xlink:href="#fd5bwswBlgmNtL2WKkzD_pad-22" x="78325" y="-92010"/><use xlink:href="#fd5bwswBlgmNtL2WKkzD_pad-22" x="79595" y="-94550"/><use xlink:href="#fd5bwswBlgmNtL2WKkzD_pad-22" x="80865" y="-92010"/><use xlink:href="#fd5bwswBlgmNtL2WKkzD_pad-22" x="82135" y="-94550"/><use xlink:href="#fd5bwswBlgmNtL2WKkzD_pad-22" x="83405" y="-92010"/><use xlink:href="#fd5bwswBlgmNtL2WKkzD_pad-22" x="84675" y="-94550"/><use xlink:href="#fd5bwswBlgmNtL2WKkzD_pad-22" x="85945" y="-92010"/><use xlink:href="#fd5bwswBlgmNtL2WKkzD_pad-22" x="75175" y="-105980"/><use xlink:href="#fd5bwswBlgmNtL2WKkzD_pad-22" x="77715" y="-104280"/><use xlink:href="#fd5bwswBlgmNtL2WKkzD_pad-22" x="85285" y="-105980"/><use xlink:href="#fd5bwswBlgmNtL2WKkzD_pad-22" x="87825" y="-104280"/><use xlink:href="#fd5bwswBlgmNtL2WKkzD_pad-23" x="89375" y="-97850"/><use xlink:href="#fd5bwswBlgmNtL2WKkzD_pad-23" x="73625" y="-97850"/><use xlink:href="#fd5bwswBlgmNtL2WKkzD_pad-24" x="107362.5" y="-70700"/><use xlink:href="#fd5bwswBlgmNtL2WKkzD_pad-24" x="107362.5" y="-69750"/><use xlink:href="#fd5bwswBlgmNtL2WKkzD_pad-24" x="107362.5" y="-68800"/><use xlink:href="#fd5bwswBlgmNtL2WKkzD_pad-24" x="110062.5" y="-68800"/><use xlink:href="#fd5bwswBlgmNtL2WKkzD_pad-24" x="110062.5" y="-70700"/><use xlink:href="#fd5bwswBlgmNtL2WKkzD_pad-17" x="114000" y="-53500"/><use xlink:href="#fd5bwswBlgmNtL2WKkzD_pad-17" x="119000" y="-53500"/><use xlink:href="#fd5bwswBlgmNtL2WKkzD_pad-25" x="55500" y="-71500"/><use xlink:href="#fd5bwswBlgmNtL2WKkzD_pad-25" x="57500" y="-71500"/><use xlink:href="#fd5bwswBlgmNtL2WKkzD_pad-26" x="102737.5" y="-73950"/><use xlink:href="#fd5bwswBlgmNtL2WKkzD_pad-26" x="104812.5" y="-73950"/><use xlink:href="#fd5bwswBlgmNtL2WKkzD_pad-25" x="55750" y="-84500"/><use xlink:href="#fd5bwswBlgmNtL2WKkzD_pad-25" x="57750" y="-84500"/><use xlink:href="#fd5bwswBlgmNtL2WKkzD_pad-12" x="116400" y="-101000"/><use xlink:href="#fd5bwswBlgmNtL2WKkzD_pad-13" x="118940" y="-101000"/><use xlink:href="#fd5bwswBlgmNtL2WKkzD_pad-13" x="121480" y="-101000"/><use xlink:href="#fd5bwswBlgmNtL2WKkzD_pad-13" x="124020" y="-101000"/><use xlink:href="#fd5bwswBlgmNtL2WKkzD_pad-13" x="126560" y="-101000"/><use xlink:href="#fd5bwswBlgmNtL2WKkzD_pad-13" x="129100" y="-101000"/><use xlink:href="#fd5bwswBlgmNtL2WKkzD_pad-13" x="131640" y="-101000"/><use xlink:href="#fd5bwswBlgmNtL2WKkzD_pad-17" x="99000" y="-53500"/><use xlink:href="#fd5bwswBlgmNtL2WKkzD_pad-27" x="109750" y="-74000"/><use xlink:href="#fd5bwswBlgmNtL2WKkzD_pad-27" x="107675" y="-74000"/><use xlink:href="#fd5bwswBlgmNtL2WKkzD_pad-28" x="94450" y="-54400"/><use xlink:href="#fd5bwswBlgmNtL2WKkzD_pad-29" x="94450" y="-56400"/><use xlink:href="#fd5bwswBlgmNtL2WKkzD_pad-27" x="58537.5" y="-53000"/><use xlink:href="#fd5bwswBlgmNtL2WKkzD_pad-27" x="56462.5" y="-53000"/><use xlink:href="#fd5bwswBlgmNtL2WKkzD_pad-30" x="82250" y="-96962.5"/><use xlink:href="#fd5bwswBlgmNtL2WKkzD_pad-30" x="82250" y="-99037.5"/><use xlink:href="#fd5bwswBlgmNtL2WKkzD_pad-31" x="105500" y="-104120.785"/><use xlink:href="#fd5bwswBlgmNtL2WKkzD_pad-17" x="105500" y="-99120.785"/><use xlink:href="#fd5bwswBlgmNtL2WKkzD_pad-32" x="64650" y="-53250"/><use xlink:href="#fd5bwswBlgmNtL2WKkzD_pad-32" x="61350" y="-53250"/><use xlink:href="#fd5bwswBlgmNtL2WKkzD_pad-12" x="86290" y="-53250"/><use xlink:href="#fd5bwswBlgmNtL2WKkzD_pad-13" x="83750" y="-53250"/><use xlink:href="#fd5bwswBlgmNtL2WKkzD_pad-13" x="81210" y="-53250"/><use xlink:href="#fd5bwswBlgmNtL2WKkzD_pad-13" x="78670" y="-53250"/><use xlink:href="#fd5bwswBlgmNtL2WKkzD_pad-13" x="76130" y="-53250"/><use xlink:href="#fd5bwswBlgmNtL2WKkzD_pad-12" x="118950" y="-66025"/><use xlink:href="#fd5bwswBlgmNtL2WKkzD_pad-13" x="121490" y="-66025"/><use xlink:href="#fd5bwswBlgmNtL2WKkzD_pad-13" x="124030" y="-66025"/><use xlink:href="#fd5bwswBlgmNtL2WKkzD_pad-13" x="126570" y="-66025"/><use xlink:href="#fd5bwswBlgmNtL2WKkzD_pad-13" x="129110" y="-66025"/><use xlink:href="#fd5bwswBlgmNtL2WKkzD_pad-12" x="118950" y="-96225"/><use xlink:href="#fd5bwswBlgmNtL2WKkzD_pad-13" x="121490" y="-96225"/><use xlink:href="#fd5bwswBlgmNtL2WKkzD_pad-13" x="124030" y="-96225"/><use xlink:href="#fd5bwswBlgmNtL2WKkzD_pad-13" x="126570" y="-96225"/><use xlink:href="#fd5bwswBlgmNtL2WKkzD_pad-13" x="129110" y="-96225"/><use xlink:href="#fd5bwswBlgmNtL2WKkzD_pad-12" x="94275" y="-106000"/><use xlink:href="#fd5bwswBlgmNtL2WKkzD_pad-13" x="94275" y="-103460"/><use xlink:href="#fd5bwswBlgmNtL2WKkzD_pad-13" x="94275" y="-100920"/><use xlink:href="#fd5bwswBlgmNtL2WKkzD_pad-13" x="94275" y="-98380"/><use xlink:href="#fd5bwswBlgmNtL2WKkzD_pad-13" x="94275" y="-95840"/><use xlink:href="#fd5bwswBlgmNtL2WKkzD_pad-13" x="94275" y="-93300"/><use xlink:href="#fd5bwswBlgmNtL2WKkzD_pad-13" x="94275" y="-90760"/><use xlink:href="#fd5bwswBlgmNtL2WKkzD_pad-12" x="94285.786" y="-80512.893"/><use xlink:href="#fd5bwswBlgmNtL2WKkzD_pad-13" x="94285.786" y="-77972.893"/><use xlink:href="#fd5bwswBlgmNtL2WKkzD_pad-13" x="94285.786" y="-75432.893"/><use xlink:href="#fd5bwswBlgmNtL2WKkzD_pad-13" x="94285.786" y="-72892.893"/><use xlink:href="#fd5bwswBlgmNtL2WKkzD_pad-13" x="94285.786" y="-70352.893"/><use xlink:href="#fd5bwswBlgmNtL2WKkzD_pad-13" x="94285.786" y="-67812.893"/><use xlink:href="#fd5bwswBlgmNtL2WKkzD_pad-17" x="109000" y="-53500"/><use xlink:href="#fd5bwswBlgmNtL2WKkzD_pad-12" x="76300" y="-73000"/><use xlink:href="#fd5bwswBlgmNtL2WKkzD_pad-13" x="76300" y="-70460"/><use xlink:href="#fd5bwswBlgmNtL2WKkzD_pad-13" x="76300" y="-67920"/><use xlink:href="#fd5bwswBlgmNtL2WKkzD_pad-13" x="76300" y="-65380"/><use xlink:href="#fd5bwswBlgmNtL2WKkzD_pad-13" x="76300" y="-62840"/><use xlink:href="#fd5bwswBlgmNtL2WKkzD_pad-33" x="52880" y="-71610"/><use xlink:href="#fd5bwswBlgmNtL2WKkzD_pad-33" x="52880" y="-69070"/><use xlink:href="#fd5bwswBlgmNtL2WKkzD_pad-33" x="52880" y="-66530"/><use xlink:href="#fd5bwswBlgmNtL2WKkzD_pad-33" x="52880" y="-63990"/><use xlink:href="#fd5bwswBlgmNtL2WKkzD_pad-33" x="52880" y="-61450"/><use xlink:href="#fd5bwswBlgmNtL2WKkzD_pad-33" x="52880" y="-58910"/><use xlink:href="#fd5bwswBlgmNtL2WKkzD_pad-33" x="52880" y="-56370"/><use xlink:href="#fd5bwswBlgmNtL2WKkzD_pad-33" x="52880" y="-53830"/><use xlink:href="#fd5bwswBlgmNtL2WKkzD_pad-33" x="52880" y="-51290"/><use xlink:href="#fd5bwswBlgmNtL2WKkzD_pad-33" x="68120" y="-51290"/><use xlink:href="#fd5bwswBlgmNtL2WKkzD_pad-33" x="68120" y="-53830"/><use xlink:href="#fd5bwswBlgmNtL2WKkzD_pad-33" x="68120" y="-56370"/><use xlink:href="#fd5bwswBlgmNtL2WKkzD_pad-33" x="68120" y="-58910"/><use xlink:href="#fd5bwswBlgmNtL2WKkzD_pad-33" x="68120" y="-61450"/><use xlink:href="#fd5bwswBlgmNtL2WKkzD_pad-33" x="68120" y="-63990"/><use xlink:href="#fd5bwswBlgmNtL2WKkzD_pad-33" x="68120" y="-66530"/><use xlink:href="#fd5bwswBlgmNtL2WKkzD_pad-33" x="68120" y="-69070"/><use xlink:href="#fd5bwswBlgmNtL2WKkzD_pad-33" x="68120" y="-71610"/><use xlink:href="#fd5bwswBlgmNtL2WKkzD_pad-33" x="52880" y="-109710"/><use xlink:href="#fd5bwswBlgmNtL2WKkzD_pad-33" x="52880" y="-107170"/><use xlink:href="#fd5bwswBlgmNtL2WKkzD_pad-33" x="52880" y="-104630"/><use xlink:href="#fd5bwswBlgmNtL2WKkzD_pad-33" x="52880" y="-102090"/><use xlink:href="#fd5bwswBlgmNtL2WKkzD_pad-33" x="52880" y="-99550"/><use xlink:href="#fd5bwswBlgmNtL2WKkzD_pad-33" x="52880" y="-97010"/><use xlink:href="#fd5bwswBlgmNtL2WKkzD_pad-33" x="52880" y="-94470"/><use xlink:href="#fd5bwswBlgmNtL2WKkzD_pad-33" x="52880" y="-91930"/><use xlink:href="#fd5bwswBlgmNtL2WKkzD_pad-33" x="52880" y="-89390"/><use xlink:href="#fd5bwswBlgmNtL2WKkzD_pad-33" x="52880" y="-86850"/><use xlink:href="#fd5bwswBlgmNtL2WKkzD_pad-33" x="52880" y="-84310"/><use xlink:href="#fd5bwswBlgmNtL2WKkzD_pad-33" x="52880" y="-81770"/><use xlink:href="#fd5bwswBlgmNtL2WKkzD_pad-33" x="52880" y="-79230"/><use xlink:href="#fd5bwswBlgmNtL2WKkzD_pad-33" x="52880" y="-76690"/><use xlink:href="#fd5bwswBlgmNtL2WKkzD_pad-33" x="68120" y="-74150"/><use xlink:href="#fd5bwswBlgmNtL2WKkzD_pad-33" x="68120" y="-76690"/><use xlink:href="#fd5bwswBlgmNtL2WKkzD_pad-33" x="68120" y="-79230"/><use xlink:href="#fd5bwswBlgmNtL2WKkzD_pad-33" x="68120" y="-81770"/><use xlink:href="#fd5bwswBlgmNtL2WKkzD_pad-33" x="68120" y="-84310"/><use xlink:href="#fd5bwswBlgmNtL2WKkzD_pad-33" x="68120" y="-86850"/><use xlink:href="#fd5bwswBlgmNtL2WKkzD_pad-33" x="68120" y="-89390"/><use xlink:href="#fd5bwswBlgmNtL2WKkzD_pad-33" x="68120" y="-91930"/><use xlink:href="#fd5bwswBlgmNtL2WKkzD_pad-33" x="68120" y="-94470"/><use xlink:href="#fd5bwswBlgmNtL2WKkzD_pad-33" x="68120" y="-97010"/><use xlink:href="#fd5bwswBlgmNtL2WKkzD_pad-33" x="68120" y="-99550"/><use xlink:href="#fd5bwswBlgmNtL2WKkzD_pad-33" x="68120" y="-102090"/><use xlink:href="#fd5bwswBlgmNtL2WKkzD_pad-33" x="68120" y="-104630"/><use xlink:href="#fd5bwswBlgmNtL2WKkzD_pad-34" x="65070" y="-93200"/><use xlink:href="#fd5bwswBlgmNtL2WKkzD_pad-34" x="65070" y="-95740"/><use xlink:href="#fd5bwswBlgmNtL2WKkzD_pad-34" x="65070" y="-98280"/><use xlink:href="#fd5bwswBlgmNtL2WKkzD_pad-34" x="65070" y="-100820"/><use xlink:href="#fd5bwswBlgmNtL2WKkzD_pad-34" x="65070" y="-103360"/><use xlink:href="#fd5bwswBlgmNtL2WKkzD_pad-35" x="59330" y="-96740"/><use xlink:href="#fd5bwswBlgmNtL2WKkzD_pad-35" x="57330" y="-96740"/><use xlink:href="#fd5bwswBlgmNtL2WKkzD_pad-35" x="59330" y="-94740"/><use xlink:href="#fd5bwswBlgmNtL2WKkzD_pad-35" x="57330" y="-94740"/><use xlink:href="#fd5bwswBlgmNtL2WKkzD_pad-35" x="55330" y="-96740"/><use xlink:href="#fd5bwswBlgmNtL2WKkzD_pad-35" x="55330" y="-94740"/><use xlink:href="#fd5bwswBlgmNtL2WKkzD_pad-33" x="52880" y="-74150"/><use xlink:href="#fd5bwswBlgmNtL2WKkzD_pad-33" x="57960" y="-63990"/><use xlink:href="#fd5bwswBlgmNtL2WKkzD_pad-33" x="55420" y="-107170"/><use xlink:href="#fd5bwswBlgmNtL2WKkzD_pad-33" x="55420" y="-63990"/><use xlink:href="#fd5bwswBlgmNtL2WKkzD_pad-33" x="60500" y="-63990"/><use xlink:href="#fd5bwswBlgmNtL2WKkzD_pad-33" x="63040" y="-63990"/><use xlink:href="#fd5bwswBlgmNtL2WKkzD_pad-33" x="65580" y="-63990"/><use xlink:href="#fd5bwswBlgmNtL2WKkzD_pad-33" x="68120" y="-107170"/><use xlink:href="#fd5bwswBlgmNtL2WKkzD_pad-33" x="68120" y="-109710"/></g></mask></defs><g transform="translate(0,-160991.38) scale(1,-1)" fill="currentColor" stroke="currentColor"><g mask="url(#fd5bwswBlgmNtL2WKkzD_clear-1)"><path d="M 99000 -106000 149000 -106000 149000 -56000 99000 -56000 99000 -106000 M 121047.619 -51321.428 120285.714 -51321.428 M 120666.666 -51702.38 120666.666 -50940.476 M 119952.38 -50702.38 119619.047 -51702.38 119285.714 -50702.38 M 119000 -51811.904 119000 -51011.904 M 119000 -51316.666 118923.809 -51278.571 118771.428 -51278.571 118695.238 -51316.666 118657.142 -51354.761 118619.047 -51430.952 118619.047 -51659.523 118657.142 -51735.714 118695.238 -51773.809 118771.428 -51811.904 118923.809 -51811.904 119000 -51773.809 M 118276.19 -51811.904 118276.19 -51278.571 M 118276.19 -51011.904 118314.285 -51050 118276.19 -51088.095 118238.095 -51050 118276.19 -51011.904 118276.19 -51088.095 M 117552.38 -51811.904 117552.38 -51392.857 117590.476 -51316.666 117666.666 -51278.571 117819.047 -51278.571 117895.238 -51316.666 M 117552.38 -51773.809 117628.571 -51811.904 117819.047 -51811.904 117895.238 -51773.809 117933.333 -51697.619 117933.333 -51621.428 117895.238 -51545.238 117819.047 -51507.142 117628.571 -51507.142 117552.38 -51469.047 M 117209.523 -51773.809 117133.333 -51811.904 116980.952 -51811.904 116904.761 -51773.809 116866.666 -51697.619 116866.666 -51659.523 116904.761 -51583.333 116980.952 -51545.238 117095.238 -51545.238 117171.428 -51507.142 117209.523 -51430.952 117209.523 -51392.857 117171.428 -51316.666 117095.238 -51278.571 116980.952 -51278.571 116904.761 -51316.666 M 126500 -52738.095 126452.38 -52642.857 126452.38 -52500 126500 -52357.142 126595.238 -52261.904 126690.476 -52214.285 126880.952 -52166.666 127023.809 -52166.666 127214.285 -52214.285 127309.523 -52261.904 127404.761 -52357.142 127452.38 -52500 127452.38 -52595.238 127404.761 -52738.095 127357.142 -52785.714 127023.809 -52785.714 127023.809 -52595.238 M 127452.38 -53214.285 126452.38 -53214.285 127452.38 -53785.714 126452.38 -53785.714 M 127452.38 -54261.904 126452.38 -54261.904 126452.38 -54500 126500 -54642.857 126595.238 -54738.095 126690.476 -54785.714 126880.952 -54833.333 127023.809 -54833.333 127214.285 -54785.714 127309.523 -54738.095 127404.761 -54642.857 127452.38 -54500 127452.38 -54261.904 M 110285.714 -51321.428 109523.809 -51321.428 M 109904.761 -51702.38 109904.761 -50940.476 M 108571.428 -50702.38 109047.619 -50702.38 109095.238 -51178.571 109047.619 -51130.952 108952.38 -51083.333 108714.285 -51083.333 108619.047 -51130.952 108571.428 -51178.571 108523.809 -51273.809 108523.809 -51511.904 108571.428 -51607.142 108619.047 -51654.761 108714.285 -51702.38 108952.38 -51702.38 109047.619 -51654.761 109095.238 -51607.142 M 108238.095 -50702.38 107904.761 -51702.38 107571.428 -50702.38 M 116000 -51321.428 115238.095 -51321.428 M 115619.047 -51702.38 115619.047 -50940.476 M 114857.142 -50702.38 114238.095 -50702.38 114571.428 -51083.333 114428.571 -51083.333 114333.333 -51130.952 114285.714 -51178.571 114238.095 -51273.809 114238.095 -51511.904 114285.714 -51607.142 114333.333 -51654.761 114428.571 -51702.38 114714.285 -51702.38 114809.523 -51654.761 114857.142 -51607.142 M 113809.523 -51607.142 113761.904 -51654.761 113809.523 -51702.38 113857.142 -51654.761 113809.523 -51607.142 113809.523 -51702.38 M 112904.761 -50702.38 113095.238 -50702.38 113190.476 -50750 113238.095 -50797.619 113333.333 -50940.476 113380.952 -51130.952 113380.952 -51511.904 113333.333 -51607.142 113285.714 -51654.761 113190.476 -51702.38 113000 -51702.38 112904.761 -51654.761 112857.142 -51607.142 112809.523 -51511.904 112809.523 -51273.809 112857.142 -51178.571 112904.761 -51130.952 113000 -51083.333 113190.476 -51083.333 113285.714 -51130.952 113333.333 -51178.571 113380.952 -51273.809 M 112523.809 -50702.38 112190.476 -51702.38 111857.142 -50702.38 M 106000 -51321.428 105238.095 -51321.428 M 105619.047 -51702.38 105619.047 -50940.476 M 104857.142 -50702.38 104238.095 -50702.38 104571.428 -51083.333 104428.571 -51083.333 104333.333 -51130.952 104285.714 -51178.571 104238.095 -51273.809 104238.095 -51511.904 104285.714 -51607.142 104333.333 -51654.761 104428.571 -51702.38 104714.285 -51702.38 104809.523 -51654.761 104857.142 -51607.142 M 103809.523 -51607.142 103761.904 -51654.761 103809.523 -51702.38 103857.142 -51654.761 103809.523 -51607.142 103809.523 -51702.38 M 103428.571 -50702.38 102809.523 -50702.38 103142.857 -51083.333 103000 -51083.333 102904.761 -51130.952 102857.142 -51178.571 102809.523 -51273.809 102809.523 -51511.904 102857.142 -51607.142 102904.761 -51654.761 103000 -51702.38 103285.714 -51702.38 103380.952 -51654.761 103428.571 -51607.142 M 102523.809 -50702.38 102190.476 -51702.38 101857.142 -50702.38 M 101071.428 -51321.428 100309.523 -51321.428 M 100690.476 -51702.38 100690.476 -50940.476 M 99500 -51178.571 99357.142 -51226.19 99309.523 -51273.809 99261.904 -51369.047 99261.904 -51511.904 99309.523 -51607.142 99357.142 -51654.761 99452.38 -51702.38 99833.333 -51702.38 99833.333 -50702.38 99500 -50702.38 99404.761 -50750 99357.142 -50797.619 99309.523 -50892.857 99309.523 -50988.095 99357.142 -51083.333 99404.761 -51130.952 99500 -51178.571 99833.333 -51178.571 M 98880.952 -51416.666 98404.761 -51416.666 M 98976.19 -51702.38 98642.857 -50702.38 98309.523 -51702.38 M 98119.047 -50702.38 97547.619 -50702.38 M 97833.333 -51702.38 97833.333 -50702.38 M 97357.142 -50702.38 96785.714 -50702.38 M 97071.428 -51702.38 97071.428 -50702.38 M 77560.714 -88272.38 77560.714 -88986.666 77608.333 -89129.523 77703.571 -89224.761 77846.428 -89272.38 77941.666 -89272.38 M 76560.714 -89272.38 77132.142 -89272.38 M 76846.428 -89272.38 76846.428 -88272.38 76941.666 -88415.238 77036.904 -88510.476 77132.142 -88558.095 M 75941.666 -88272.38 75846.428 -88272.38 75751.19 -88320 75703.571 -88367.619 75655.952 -88462.857 75608.333 -88653.333 75608.333 -88891.428 75655.952 -89081.904 75703.571 -89177.142 75751.19 -89224.761 75846.428 -89272.38 75941.666 -89272.38 76036.904 -89224.761 76084.523 -89177.142 76132.142 -89081.904 76179.761 -88891.428 76179.761 -88653.333 76132.142 -88462.857 76084.523 -88367.619 76036.904 -88320 75941.666 -88272.38 M 75132.142 -89272.38 74941.666 -89272.38 74846.428 -89224.761 74798.809 -89177.142 74703.571 -89034.285 74655.952 -88843.809 74655.952 -88462.857 74703.571 -88367.619 74751.19 -88320 74846.428 -88272.38 75036.904 -88272.38 75132.142 -88320 75179.761 -88367.619 75227.38 -88462.857 75227.38 -88700.952 75179.761 -88796.19 75132.142 -88843.809 75036.904 -88891.428 74846.428 -88891.428 74751.19 -88843.809 74703.571 -88796.19 74655.952 -88700.952 M 102569.642 -68630.952 102617.261 -68583.333 102664.88 -68440.476 102664.88 -68345.238 102617.261 -68202.38 102522.023 -68107.142 102426.785 -68059.523 102236.309 -68011.904 102093.452 -68011.904 101902.976 -68059.523 101807.738 -68107.142 101712.5 -68202.38 101664.88 -68345.238 101664.88 -68440.476 101712.5 -68583.333 101760.119 -68630.952 M 101998.214 -69488.095 102664.88 -69488.095 M 101617.261 -69250 102331.547 -69011.904 102331.547 -69630.952 M 101664.88 -70202.38 101664.88 -70297.619 101712.5 -70392.857 101760.119 -70440.476 101855.357 -70488.095 102045.833 -70535.714 102283.928 -70535.714 102474.404 -70488.095 102569.642 -70440.476 102617.261 -70392.857 102664.88 -70297.619 102664.88 -70202.38 102617.261 -70107.142 102569.642 -70059.523 102474.404 -70011.904 102283.928 -69964.285 102045.833 -69964.285 101855.357 -70011.904 101760.119 -70059.523 101712.5 -70107.142 101664.88 -70202.38 M 102664.88 -71488.095 102664.88 -70916.666 M 102664.88 -71202.38 101664.88 -71202.38 101807.738 -71107.142 101902.976 -71011.904 101950.595 -70916.666 M 64754.285 -60452.38 64754.285 -61261.904 64706.666 -61357.142 64659.047 -61404.761 64563.809 -61452.38 64373.333 -61452.38 64278.095 -61404.761 64230.476 -61357.142 64182.857 -61261.904 64182.857 -60452.38 M 63278.095 -60785.714 63278.095 -61452.38 M 63516.19 -60404.761 63754.285 -61119.047 63135.238 -61119.047 M 62563.809 -60452.38 62468.571 -60452.38 62373.333 -60500 62325.714 -60547.619 62278.095 -60642.857 62230.476 -60833.333 62230.476 -61071.428 62278.095 -61261.904 62325.714 -61357.142 62373.333 -61404.761 62468.571 -61452.38 62563.809 -61452.38 62659.047 -61404.761 62706.666 -61357.142 62754.285 -61261.904 62801.904 -61071.428 62801.904 -60833.333 62754.285 -60642.857 62706.666 -60547.619 62659.047 -60500 62563.809 -60452.38 M 61849.523 -60547.619 61801.904 -60500 61706.666 -60452.38 61468.571 -60452.38 61373.333 -60500 61325.714 -60547.619 61278.095 -60642.857 61278.095 -60738.095 61325.714 -60880.952 61897.142 -61452.38 61278.095 -61452.38 M 55202.38 -57630.952 55202.38 -57154.761 54202.38 -57154.761 M 54535.714 -58392.857 55202.38 -58392.857 M 54154.761 -58154.761 54869.047 -57916.666 54869.047 -58535.714 M 54202.38 -59107.142 54202.38 -59202.38 54250 -59297.619 54297.619 -59345.238 54392.857 -59392.857 54583.333 -59440.476 54821.428 -59440.476 55011.904 -59392.857 55107.142 -59345.238 55154.761 -59297.619 55202.38 -59202.38 55202.38 -59107.142 55154.761 -59011.904 55107.142 -58964.285 55011.904 -58916.666 54821.428 -58869.047 54583.333 -58869.047 54392.857 -58916.666 54297.619 -58964.285 54250 -59011.904 54202.38 -59107.142 M 55202.38 -60392.857 55202.38 -59821.428 M 55202.38 -60107.142 54202.38 -60107.142 54345.238 -60011.904 54440.476 -59916.666 54488.095 -59821.428 M 102869.047 -103052.38 103202.38 -102576.19 M 103440.476 -103052.38 103440.476 -102052.38 103059.523 -102052.38 102964.285 -102100 102916.666 -102147.619 102869.047 -102242.857 102869.047 -102385.714 102916.666 -102480.952 102964.285 -102528.571 103059.523 -102576.19 103440.476 -102576.19 M 101916.666 -103052.38 102488.095 -103052.38 M 102202.38 -103052.38 102202.38 -102052.38 102297.619 -102195.238 102392.857 -102290.476 102488.095 -102338.095 M 101297.619 -102052.38 101202.38 -102052.38 101107.142 -102100 101059.523 -102147.619 101011.904 -102242.857 100964.285 -102433.333 100964.285 -102671.428 101011.904 -102861.904 101059.523 -102957.142 101107.142 -103004.761 101202.38 -103052.38 101297.619 -103052.38 101392.857 -103004.761 101440.476 -102957.142 101488.095 -102861.904 101535.714 -102671.428 101535.714 -102433.333 101488.095 -102242.857 101440.476 -102147.619 101392.857 -102100 101297.619 -102052.38 M 100583.333 -102147.619 100535.714 -102100 100440.476 -102052.38 100202.38 -102052.38 100107.142 -102100 100059.523 -102147.619 100011.904 -102242.857 100011.904 -102338.095 100059.523 -102480.952 100630.952 -103052.38 100011.904 -103052.38 M 110426.785 -66452.38 110426.785 -67261.904 110379.166 -67357.142 110331.547 -67404.761 110236.309 -67452.38 110045.833 -67452.38 109950.595 -67404.761 109902.976 -67357.142 109855.357 -67261.904 109855.357 -66452.38 M 108950.595 -66785.714 108950.595 -67452.38 M 109188.69 -66404.761 109426.785 -67119.047 108807.738 -67119.047 M 108236.309 -66452.38 108141.071 -66452.38 108045.833 -66500 107998.214 -66547.619 107950.595 -66642.857 107902.976 -66833.333 107902.976 -67071.428 107950.595 -67261.904 107998.214 -67357.142 108045.833 -67404.761 108141.071 -67452.38 108236.309 -67452.38 108331.547 -67404.761 108379.166 -67357.142 108426.785 -67261.904 108474.404 -67071.428 108474.404 -66833.333 108426.785 -66642.857 108379.166 -66547.619 108331.547 -66500 108236.309 -66452.38 M 106950.595 -67452.38 107522.023 -67452.38 M 107236.309 -67452.38 107236.309 -66452.38 107331.547 -66595.238 107426.785 -66690.476 107522.023 -66738.095 M 57619.047 -73602.38 57952.38 -73126.19 M 58190.476 -73602.38 58190.476 -72602.38 57809.523 -72602.38 57714.285 -72650 57666.666 -72697.619 57619.047 -72792.857 57619.047 -72935.714 57666.666 -73030.952 57714.285 -73078.571 57809.523 -73126.19 58190.476 -73126.19 M 56666.666 -73602.38 57238.095 -73602.38 M 56952.38 -73602.38 56952.38 -72602.38 57047.619 -72745.238 57142.857 -72840.476 57238.095 -72888.095 M 56047.619 -72602.38 55952.38 -72602.38 55857.142 -72650 55809.523 -72697.619 55761.904 -72792.857 55714.285 -72983.333 55714.285 -73221.428 55761.904 -73411.904 55809.523 -73507.142 55857.142 -73554.761 55952.38 -73602.38 56047.619 -73602.38 56142.857 -73554.761 56190.476 -73507.142 56238.095 -73411.904 56285.714 -73221.428 56285.714 -72983.333 56238.095 -72792.857 56190.476 -72697.619 56142.857 -72650 56047.619 -72602.38 M 54857.142 -72602.38 55047.619 -72602.38 55142.857 -72650 55190.476 -72697.619 55285.714 -72840.476 55333.333 -73030.952 55333.333 -73411.904 55285.714 -73507.142 55238.095 -73554.761 55142.857 -73602.38 54952.38 -73602.38 54857.142 -73554.761 54809.523 -73507.142 54761.904 -73411.904 54761.904 -73173.809 54809.523 -73078.571 54857.142 -73030.952 54952.38 -72983.333 55142.857 -72983.333 55238.095 -73030.952 55285.714 -73078.571 55333.333 -73173.809 M 104894.047 -75987.142 104941.666 -76034.761 105084.523 -76082.38 105179.761 -76082.38 105322.619 -76034.761 105417.857 -75939.523 105465.476 -75844.285 105513.095 -75653.809 105513.095 -75510.952 105465.476 -75320.476 105417.857 -75225.238 105322.619 -75130 105179.761 -75082.38 105084.523 -75082.38 104941.666 -75130 104894.047 -75177.619 M 104036.904 -75415.714 104036.904 -76082.38 M 104275 -75034.761 104513.095 -75749.047 103894.047 -75749.047 M 103322.619 -75082.38 103227.38 -75082.38 103132.142 -75130 103084.523 -75177.619 103036.904 -75272.857 102989.285 -75463.333 102989.285 -75701.428 103036.904 -75891.904 103084.523 -75987.142 103132.142 -76034.761 103227.38 -76082.38 103322.619 -76082.38 103417.857 -76034.761 103465.476 -75987.142 103513.095 -75891.904 103560.714 -75701.428 103560.714 -75463.333 103513.095 -75272.857 103465.476 -75177.619 103417.857 -75130 103322.619 -75082.38 M 102655.952 -75082.38 102036.904 -75082.38 102370.238 -75463.333 102227.38 -75463.333 102132.142 -75510.952 102084.523 -75558.571 102036.904 -75653.809 102036.904 -75891.904 102084.523 -75987.142 102132.142 -76034.761 102227.38 -76082.38 102513.095 -76082.38 102608.333 -76034.761 102655.952 -75987.142 M 57869.047 -86602.38 58202.38 -86126.19 M 58440.476 -86602.38 58440.476 -85602.38 58059.523 -85602.38 57964.285 -85650 57916.666 -85697.619 57869.047 -85792.857 57869.047 -85935.714 57916.666 -86030.952 57964.285 -86078.571 58059.523 -86126.19 58440.476 -86126.19 M 56916.666 -86602.38 57488.095 -86602.38 M 57202.38 -86602.38 57202.38 -85602.38 57297.619 -85745.238 57392.857 -85840.476 57488.095 -85888.095 M 56297.619 -85602.38 56202.38 -85602.38 56107.142 -85650 56059.523 -85697.619 56011.904 -85792.857 55964.285 -85983.333 55964.285 -86221.428 56011.904 -86411.904 56059.523 -86507.142 56107.142 -86554.761 56202.38 -86602.38 56297.619 -86602.38 56392.857 -86554.761 56440.476 -86507.142 56488.095 -86411.904 56535.714 -86221.428 56535.714 -85983.333 56488.095 -85792.857 56440.476 -85697.619 56392.857 -85650 56297.619 -85602.38 M 55059.523 -85602.38 55535.714 -85602.38 55583.333 -86078.571 55535.714 -86030.952 55440.476 -85983.333 55202.38 -85983.333 55107.142 -86030.952 55059.523 -86078.571 55011.904 -86173.809 55011.904 -86411.904 55059.523 -86507.142 55107.142 -86554.761 55202.38 -86602.38 55440.476 -86602.38 55535.714 -86554.761 55583.333 -86507.142 M 113082.38 -99714.285 113796.666 -99714.285 113939.523 -99666.666 114034.761 -99571.428 114082.38 -99428.571 114082.38 -99333.333 M 114082.38 -100714.285 114082.38 -100142.857 M 114082.38 -100428.571 113082.38 -100428.571 113225.238 -100333.333 113320.476 -100238.095 113368.095 -100142.857 M 113082.38 -101333.333 113082.38 -101428.571 113130 -101523.809 113177.619 -101571.428 113272.857 -101619.047 113463.333 -101666.666 113701.428 -101666.666 113891.904 -101619.047 113987.142 -101571.428 114034.761 -101523.809 114082.38 -101428.571 114082.38 -101333.333 114034.761 -101238.095 113987.142 -101190.476 113891.904 -101142.857 113701.428 -101095.238 113463.333 -101095.238 113272.857 -101142.857 113177.619 -101190.476 113130 -101238.095 113082.38 -101333.333 M 113082.38 -102523.809 113082.38 -102333.333 113130 -102238.095 113177.619 -102190.476 113320.476 -102095.238 113510.952 -102047.619 113891.904 -102047.619 113987.142 -102095.238 114034.761 -102142.857 114082.38 -102238.095 114082.38 -102428.571 114034.761 -102523.809 113987.142 -102571.428 113891.904 -102619.047 113653.809 -102619.047 113558.571 -102571.428 113510.952 -102523.809 113463.333 -102428.571 113463.333 -102238.095 113510.952 -102142.857 113558.571 -102095.238 113653.809 -102047.619 M 109831.547 -76107.142 109879.166 -76154.761 110022.023 -76202.38 110117.261 -76202.38 110260.119 -76154.761 110355.357 -76059.523 110402.976 -75964.285 110450.595 -75773.809 110450.595 -75630.952 110402.976 -75440.476 110355.357 -75345.238 110260.119 -75250 110117.261 -75202.38 110022.023 -75202.38 109879.166 -75250 109831.547 -75297.619 M 108974.404 -75535.714 108974.404 -76202.38 M 109212.5 -75154.761 109450.595 -75869.047 108831.547 -75869.047 M 108260.119 -75202.38 108164.88 -75202.38 108069.642 -75250 108022.023 -75297.619 107974.404 -75392.857 107926.785 -75583.333 107926.785 -75821.428 107974.404 -76011.904 108022.023 -76107.142 108069.642 -76154.761 108164.88 -76202.38 108260.119 -76202.38 108355.357 -76154.761 108402.976 -76107.142 108450.595 -76011.904 108498.214 -75821.428 108498.214 -75583.333 108450.595 -75392.857 108402.976 -75297.619 108355.357 -75250 108260.119 -75202.38 M 107545.833 -75297.619 107498.214 -75250 107402.976 -75202.38 107164.88 -75202.38 107069.642 -75250 107022.023 -75297.619 106974.404 -75392.857 106974.404 -75488.095 107022.023 -75630.952 107593.452 -76202.38 106974.404 -76202.38 M 58619.047 -55107.142 58666.666 -55154.761 58809.523 -55202.38 58904.761 -55202.38 59047.619 -55154.761 59142.857 -55059.523 59190.476 -54964.285 59238.095 -54773.809 59238.095 -54630.952 59190.476 -54440.476 59142.857 -54345.238 59047.619 -54250 58904.761 -54202.38 58809.523 -54202.38 58666.666 -54250 58619.047 -54297.619 M 57761.904 -54535.714 57761.904 -55202.38 M 58000 -54154.761 58238.095 -54869.047 57619.047 -54869.047 M 57047.619 -54202.38 56952.38 -54202.38 56857.142 -54250 56809.523 -54297.619 56761.904 -54392.857 56714.285 -54583.333 56714.285 -54821.428 56761.904 -55011.904 56809.523 -55107.142 56857.142 -55154.761 56952.38 -55202.38 57047.619 -55202.38 57142.857 -55154.761 57190.476 -55107.142 57238.095 -55011.904 57285.714 -54821.428 57285.714 -54583.333 57238.095 -54392.857 57190.476 -54297.619 57142.857 -54250 57047.619 -54202.38 M 55857.142 -54535.714 55857.142 -55202.38 M 56095.238 -54154.761 56333.333 -54869.047 55714.285 -54869.047 M 84607.142 -96880.952 84654.761 -96833.333 84702.38 -96690.476 84702.38 -96595.238 84654.761 -96452.38 84559.523 -96357.142 84464.285 -96309.523 84273.809 -96261.904 84130.952 -96261.904 83940.476 -96309.523 83845.238 -96357.142 83750 -96452.38 83702.38 -96595.238 83702.38 -96690.476 83750 -96833.333 83797.619 -96880.952 M 83702.38 -97785.714 83702.38 -97309.523 84178.571 -97261.904 84130.952 -97309.523 84083.333 -97404.761 84083.333 -97642.857 84130.952 -97738.095 84178.571 -97785.714 84273.809 -97833.333 84511.904 -97833.333 84607.142 -97785.714 84654.761 -97738.095 84702.38 -97642.857 84702.38 -97404.761 84654.761 -97309.523 84607.142 -97261.904 M 83702.38 -98452.38 83702.38 -98547.619 83750 -98642.857 83797.619 -98690.476 83892.857 -98738.095 84083.333 -98785.714 84321.428 -98785.714 84511.904 -98738.095 84607.142 -98690.476 84654.761 -98642.857 84702.38 -98547.619 84702.38 -98452.38 84654.761 -98357.142 84607.142 -98309.523 84511.904 -98261.904 84321.428 -98214.285 84083.333 -98214.285 83892.857 -98261.904 83797.619 -98309.523 83750 -98357.142 83702.38 -98452.38 M 84702.38 -99738.095 84702.38 -99166.666 M 84702.38 -99452.38 83702.38 -99452.38 83845.238 -99357.142 83940.476 -99261.904 83988.095 -99166.666 M 64690.476 -55702.38 64690.476 -54702.38 64452.38 -54702.38 64309.523 -54750 64214.285 -54845.238 64166.666 -54940.476 64119.047 -55130.952 64119.047 -55273.809 64166.666 -55464.285 64214.285 -55559.523 64309.523 -55654.761 64452.38 -55702.38 64690.476 -55702.38 M 63261.904 -55035.714 63261.904 -55702.38 M 63500 -54654.761 63738.095 -55369.047 63119.047 -55369.047 M 62547.619 -54702.38 62452.38 -54702.38 62357.142 -54750 62309.523 -54797.619 62261.904 -54892.857 62214.285 -55083.333 62214.285 -55321.428 62261.904 -55511.904 62309.523 -55607.142 62357.142 -55654.761 62452.38 -55702.38 62547.619 -55702.38 62642.857 -55654.761 62690.476 -55607.142 62738.095 -55511.904 62785.714 -55321.428 62785.714 -55083.333 62738.095 -54892.857 62690.476 -54797.619 62642.857 -54750 62547.619 -54702.38 M 61261.904 -55702.38 61833.333 -55702.38 M 61547.619 -55702.38 61547.619 -54702.38 61642.857 -54845.238 61738.095 -54940.476 61833.333 -54988.095 M 115632.38 -64739.285 116346.666 -64739.285 116489.523 -64691.666 116584.761 -64596.428 116632.38 -64453.571 116632.38 -64358.333 M 116632.38 -65739.285 116632.38 -65167.857 M 116632.38 -65453.571 115632.38 -65453.571 115775.238 -65358.333 115870.476 -65263.095 115918.095 -65167.857 M 115632.38 -66358.333 115632.38 -66453.571 115680 -66548.809 115727.619 -66596.428 115822.857 -66644.047 116013.333 -66691.666 116251.428 -66691.666 116441.904 -66644.047 116537.142 -66596.428 116584.761 -66548.809 116632.38 -66453.571 116632.38 -66358.333 116584.761 -66263.095 116537.142 -66215.476 116441.904 -66167.857 116251.428 -66120.238 116013.333 -66120.238 115822.857 -66167.857 115727.619 -66215.476 115680 -66263.095 115632.38 -66358.333 M 115632.38 -67596.428 115632.38 -67120.238 116108.571 -67072.619 116060.952 -67120.238 116013.333 -67215.476 116013.333 -67453.571 116060.952 -67548.809 116108.571 -67596.428 116203.809 -67644.047 116441.904 -67644.047 116537.142 -67596.428 116584.761 -67548.809 116632.38 -67453.571 116632.38 -67215.476 116584.761 -67120.238 116537.142 -67072.619 M 77585.714 -74782.38 77585.714 -75496.666 77633.333 -75639.523 77728.571 -75734.761 77871.428 -75782.38 77966.666 -75782.38 M 76585.714 -75782.38 77157.142 -75782.38 M 76871.428 -75782.38 76871.428 -74782.38 76966.666 -74925.238 77061.904 -75020.476 77157.142 -75068.095 M 75633.333 -75782.38 76204.761 -75782.38 M 75919.047 -75782.38 75919.047 -74782.38 76014.285 -74925.238 76109.523 -75020.476 76204.761 -75068.095 M 75252.38 -74877.619 75204.761 -74830 75109.523 -74782.38 74871.428 -74782.38 74776.19 -74830 74728.571 -74877.619 74680.952 -74972.857 74680.952 -75068.095 74728.571 -75210.952 75300 -75782.38 74680.952 -75782.38" fill="none" stroke-width="150"/><path d="M 76275 -87380 77605 -87380 77605 -86050 M 74945 -84780 74945 -77100 M 74945 -84780 77605 -84780 77605 -77100 M 74945 -77100 77605 -77100 M 104697.5 -70011.252 104697.5 -69488.748 M 103227.5 -70011.252 103227.5 -69488.748 M 63920 -59810 62160 -59810 M 62160 -56740 64590 -56740 M 58610 -59352.064 58610 -58147.936 M 55890 -59352.064 55890 -58147.936 M 105200 -53500 A 1200 1200 0 0 1 102800 -53500 1200 1200 0 0 1 105200 -53500 M 125700 -51800 122300 -51800 M 122300 -55200 125700 -55200 M 122300 -51800 122300 -55200 M 125700 -55200 125700 -51800 M 101977.064 -103515 101522.936 -103515 M 101977.064 -104985 101522.936 -104985 M 109612.5 -71360 107162.5 -71360 M 107812.5 -68140 109612.5 -68140 M 115200 -53500 A 1200 1200 0 0 1 112800 -53500 1200 1200 0 0 1 115200 -53500 M 120200 -53500 A 1200 1200 0 0 1 117800 -53500 1200 1200 0 0 1 120200 -53500 M 56272.936 -72235 56727.064 -72235 M 56272.936 -70765 56727.064 -70765 M 103513.748 -74685 104036.252 -74685 M 103513.748 -73215 104036.252 -73215 M 56522.936 -85235 56977.064 -85235 M 56522.936 -83765 56977.064 -83765 M 115070 -102330 116400 -102330 M 117670 -99670 132970 -99670 M 115070 -101000 115070 -102330 M 117670 -99670 117670 -102330 132970 -102330 M 132970 -99670 132970 -102330 M 100200 -53500 A 1200 1200 0 0 1 97800 -53500 1200 1200 0 0 1 100200 -53500 M 108973.752 -73265 108451.248 -73265 M 108973.752 -74735 108451.248 -74735 M 57761.252 -52265 57238.748 -52265 M 57761.252 -53735 57238.748 -53735 M 81515 -97738.748 81515 -98261.252 M 82985 -97738.748 82985 -98261.252 M 65250 -52250 61350 -52250 M 65250 -52250 65250 -54250 61350 -54250 M 117620 -67355 118950 -67355 M 120220 -67355 130440 -67355 M 120220 -64695 130440 -64695 M 120220 -64695 120220 -67355 M 130440 -64695 130440 -67355 M 117620 -66025 117620 -67355 M 110200 -53500 A 1200 1200 0 0 1 107800 -53500 1200 1200 0 0 1 110200 -53500 M 77630 -71730 77630 -61510 M 74970 -74330 76300 -74330 M 74970 -71730 74970 -61510 77630 -61510 M 74970 -71730 77630 -71730 M 74970 -73000 74970 -74330" fill="none" stroke-width="120"/></g></g></svg>