<svg version="1.1" xmlns="http://www.w3.org/2000/svg" xmlns:xlink="http://www.w3.org/1999/xlink" stroke-linecap="round" stroke-linejoin="round" stroke-width="0" fill-rule="evenodd" width="55.9425mm" height="52.675mm" viewBox="54900 -104950 55942.5 52675" id="GTY_eBwd42lQUtFvT6It"><defs><g id="GTY_eBwd42lQUtFvT6It_pad-10"><polygon points="475,-337.5 475,337.5 -475,337.5 -475,-337.5"/><circle cx="475" cy="-337.5" r="250"/><circle cx="475" cy="337.5" r="250"/><circle cx="-475" cy="337.5" r="250"/><circle cx="-475" cy="-337.5" r="250"/><polygon points="725,-337.5 725,337.5 225,337.5 225,-337.5"/><polygon points="475,87.5 -475,87.5 -475,587.5 475,587.5"/><polygon points="-225,337.5 -225,-337.5 -725,-337.5 -725,337.5"/><polygon points="-475,-587.5 475,-587.5 475,-87.5 -475,-87.5"/></g><rect x="-1000" y="-325" width="2000" height="650" id="GTY_eBwd42lQUtFvT6It_pad-11"/><g id="GTY_eBwd42lQUtFvT6It_pad-12"><polygon points="1074.999,-462.499 1074.999,462.499 -1074.999,462.499 -1074.999,-462.499"/><circle cx="1074.999" cy="-462.499" r="250.001"/><circle cx="1074.999" cy="462.499" r="250.001"/><circle cx="-1074.999" cy="462.499" r="250.001"/><circle cx="-1074.999" cy="-462.499" r="250.001"/><polygon points="1325,-462.499 1325,462.499 824.998,462.499 824.998,-462.499"/><polygon points="1074.999,212.498 -1074.999,212.498 -1074.999,712.5 1074.999,712.5"/><polygon points="-824.998,462.499 -824.998,-462.499 -1325,-462.499 -1325,462.499"/><polygon points="-1074.999,-712.5 1074.999,-712.5 1074.999,-212.498 -1074.999,-212.498"/></g><g id="GTY_eBwd42lQUtFvT6It_pad-13"><polygon points="350,450 -350,450 -350,-450 350,-450"/><circle cx="350" cy="450" r="250"/><circle cx="-350" cy="450" r="250"/><circle cx="-350" cy="-450" r="250"/><circle cx="350" cy="-450" r="250"/><polygon points="350,200 -350,200 -350,700 350,700"/><polygon points="-100,450 -100,-450 -600,-450 -600,450"/><polygon points="-350,-700 350,-700 350,-200 -350,-200"/><polygon points="600,-450 600,450 100,450 100,-450"/></g><rect x="-780" y="-325" width="1560" height="650" id="GTY_eBwd42lQUtFvT6It_pad-14"/><g id="GTY_eBwd42lQUtFvT6It_pad-15"><polygon points="-350,-450 350,-450 350,450 -350,450"/><circle cx="-350" cy="-450" r="250"/><circle cx="350" cy="-450" r="250"/><circle cx="350" cy="450" r="250"/><circle cx="-350" cy="450" r="250"/><polygon points="-350,-700 350,-700 350,-200 -350,-200"/><polygon points="600,-450 600,450 100,450 100,-450"/><polygon points="350,200 -350,200 -350,700 350,700"/><polygon points="-100,450 -100,-450 -600,-450 -600,450"/></g><g id="GTY_eBwd42lQUtFvT6It_pad-16"><polygon points="-337.5,-475 337.5,-475 337.5,475 -337.5,475"/><circle cx="-337.5" cy="-475" r="250"/><circle cx="337.5" cy="-475" r="250"/><circle cx="337.5" cy="475" r="250"/><circle cx="-337.5" cy="475" r="250"/><polygon points="-337.5,-725 337.5,-725 337.5,-225 -337.5,-225"/><polygon points="587.5,-475 587.5,475 87.5,475 87.5,-475"/><polygon points="337.5,225 -337.5,225 -337.5,725 337.5,725"/><polygon points="-87.5,475 -87.5,-475 -587.5,-475 -587.5,475"/></g><g id="GTY_eBwd42lQUtFvT6It_pad-17"><polygon points="337.5,475 -337.5,475 -337.5,-475 337.5,-475"/><circle cx="337.5" cy="475" r="250"/><circle cx="-337.5" cy="475" r="250"/><circle cx="-337.5" cy="-475" r="250"/><circle cx="337.5" cy="-475" r="250"/><polygon points="337.5,225 -337.5,225 -337.5,725 337.5,725"/><polygon points="-87.5,475 -87.5,-475 -587.5,-475 -587.5,475"/><polygon points="-337.5,-725 337.5,-725 337.5,-225 -337.5,-225"/><polygon points="587.5,-475 587.5,475 87.5,475 87.5,-475"/></g><g id="GTY_eBwd42lQUtFvT6It_pad-18"><polygon points="-475,337.5 -475,-337.5 475,-337.5 475,337.5"/><circle cx="-475" cy="337.5" r="250"/><circle cx="-475" cy="-337.5" r="250"/><circle cx="475" cy="-337.5" r="250"/><circle cx="475" cy="337.5" r="250"/><polygon points="-225,337.5 -225,-337.5 -725,-337.5 -725,337.5"/><polygon points="-475,-587.5 475,-587.5 475,-87.5 -475,-87.5"/><polygon points="725,-337.5 725,337.5 225,337.5 225,-337.5"/><polygon points="475,87.5 -475,87.5 -475,587.5 475,587.5"/></g><rect x="-450" y="-600" width="900" height="1200" id="GTY_eBwd42lQUtFvT6It_pad-19"/></defs><g transform="translate(0,-157225) scale(1,-1)" fill="currentColor" stroke="currentColor"><use xlink:href="#GTY_eBwd42lQUtFvT6It_pad-10" x="103962.5" y="-70787.5"/><use xlink:href="#GTY_eBwd42lQUtFvT6It_pad-10" x="103962.5" y="-68712.5"/><use xlink:href="#GTY_eBwd42lQUtFvT6It_pad-11" x="64750" y="-57300"/><use xlink:href="#GTY_eBwd42lQUtFvT6It_pad-11" x="64750" y="-58250"/><use xlink:href="#GTY_eBwd42lQUtFvT6It_pad-11" x="64750" y="-59200"/><use xlink:href="#GTY_eBwd42lQUtFvT6It_pad-11" x="61330" y="-59200"/><use xlink:href="#GTY_eBwd42lQUtFvT6It_pad-11" x="61330" y="-58250"/><use xlink:href="#GTY_eBwd42lQUtFvT6It_pad-11" x="61330" y="-57300"/><use xlink:href="#GTY_eBwd42lQUtFvT6It_pad-12" x="57250" y="-60237.5"/><use xlink:href="#GTY_eBwd42lQUtFvT6It_pad-12" x="57250" y="-57262.5"/><use xlink:href="#GTY_eBwd42lQUtFvT6It_pad-13" x="102750" y="-104250"/><use xlink:href="#GTY_eBwd42lQUtFvT6It_pad-13" x="100750" y="-104250"/><use xlink:href="#GTY_eBwd42lQUtFvT6It_pad-14" x="107362.5" y="-70700"/><use xlink:href="#GTY_eBwd42lQUtFvT6It_pad-14" x="107362.5" y="-69750"/><use xlink:href="#GTY_eBwd42lQUtFvT6It_pad-14" x="107362.5" y="-68800"/><use xlink:href="#GTY_eBwd42lQUtFvT6It_pad-14" x="110062.5" y="-68800"/><use xlink:href="#GTY_eBwd42lQUtFvT6It_pad-14" x="110062.5" y="-70700"/><use xlink:href="#GTY_eBwd42lQUtFvT6It_pad-15" x="55500" y="-71500"/><use xlink:href="#GTY_eBwd42lQUtFvT6It_pad-15" x="57500" y="-71500"/><use xlink:href="#GTY_eBwd42lQUtFvT6It_pad-16" x="102737.5" y="-73950"/><use xlink:href="#GTY_eBwd42lQUtFvT6It_pad-16" x="104812.5" y="-73950"/><use xlink:href="#GTY_eBwd42lQUtFvT6It_pad-15" x="55750" y="-84500"/><use xlink:href="#GTY_eBwd42lQUtFvT6It_pad-15" x="57750" y="-84500"/><use xlink:href="#GTY_eBwd42lQUtFvT6It_pad-17" x="109750" y="-74000"/><use xlink:href="#GTY_eBwd42lQUtFvT6It_pad-17" x="107675" y="-74000"/><use xlink:href="#GTY_eBwd42lQUtFvT6It_pad-17" x="58537.5" y="-53000"/><use xlink:href="#GTY_eBwd42lQUtFvT6It_pad-17" x="56462.5" y="-53000"/><use xlink:href="#GTY_eBwd42lQUtFvT6It_pad-18" x="82250" y="-96962.5"/><use xlink:href="#GTY_eBwd42lQUtFvT6It_pad-18" x="82250" y="-99037.5"/><use xlink:href="#GTY_eBwd42lQUtFvT6It_pad-19" x="64650" y="-53250"/><use xlink:href="#GTY_eBwd42lQUtFvT6It_pad-19" x="61350" y="-53250"/></g></svg>