<svg version="1.1" xmlns="http://www.w3.org/2000/svg" xmlns:xlink="http://www.w3.org/1999/xlink" stroke-linecap="round" stroke-linejoin="round" stroke-width="0" fill-rule="evenodd" width="80.264mm" height="59.728mm" viewBox="52226 -110364 80264 59728" id="_UOUgAp3hI-B_y5nZO7z"><defs><rect x="-850" y="-850" width="1700" height="1700" id="_UOUgAp3hI-B_y5nZO7z_pad-10"/><rect x="-850" y="-850" width="1700" height="1700" rx="850" ry="850" id="_UOUgAp3hI-B_y5nZO7z_pad-11"/><g id="_UOUgAp3hI-B_y5nZO7z_pad-12"><polygon points="475,-337.5 475,337.5 -475,337.5 -475,-337.5"/><circle cx="475" cy="-337.5" r="250"/><circle cx="475" cy="337.5" r="250"/><circle cx="-475" cy="337.5" r="250"/><circle cx="-475" cy="-337.5" r="250"/><polygon points="725,-337.5 725,337.5 225,337.5 225,-337.5"/><polygon points="475,87.5 -475,87.5 -475,587.5 475,587.5"/><polygon points="-225,337.5 -225,-337.5 -725,-337.5 -725,337.5"/><polygon points="-475,-587.5 475,-587.5 475,-87.5 -475,-87.5"/></g><rect x="-1000" y="-325" width="2000" height="650" id="_UOUgAp3hI-B_y5nZO7z_pad-13"/><g id="_UOUgAp3hI-B_y5nZO7z_pad-14"><polygon points="1074.999,-462.499 1074.999,462.499 -1074.999,462.499 -1074.999,-462.499"/><circle cx="1074.999" cy="-462.499" r="250.001"/><circle cx="1074.999" cy="462.499" r="250.001"/><circle cx="-1074.999" cy="462.499" r="250.001"/><circle cx="-1074.999" cy="-462.499" r="250.001"/><polygon points="1325,-462.499 1325,462.499 824.998,462.499 824.998,-462.499"/><polygon points="1074.999,212.498 -1074.999,212.498 -1074.999,712.5 1074.999,712.5"/><polygon points="-824.998,462.499 -824.998,-462.499 -1325,-462.499 -1325,462.499"/><polygon points="-1074.999,-712.5 1074.999,-712.5 1074.999,-212.498 -1074.999,-212.498"/></g><circle cx="0" cy="0" r="1000" id="_UOUgAp3hI-B_y5nZO7z_pad-15"/><rect x="-1500" y="-1500" width="3000" height="3000" id="_UOUgAp3hI-B_y5nZO7z_pad-16"/><g id="_UOUgAp3hI-B_y5nZO7z_pad-17"><polygon points="350,450 -350,450 -350,-450 350,-450"/><circle cx="350" cy="450" r="250"/><circle cx="-350" cy="450" r="250"/><circle cx="-350" cy="-450" r="250"/><circle cx="350" cy="-450" r="250"/><polygon points="350,200 -350,200 -350,700 350,700"/><polygon points="-100,450 -100,-450 -600,-450 -600,450"/><polygon points="-350,-700 350,-700 350,-200 -350,-200"/><polygon points="600,-450 600,450 100,450 100,-450"/></g><circle cx="0" cy="0" r="1625" id="_UOUgAp3hI-B_y5nZO7z_pad-18"/><g id="_UOUgAp3hI-B_y5nZO7z_pad-19"><polygon points="-499.5,-499.5 499.5,-499.5 499.5,499.5 -499.5,499.5"/><circle cx="-499.5" cy="-499.5" r="250.5"/><circle cx="499.5" cy="-499.5" r="250.5"/><circle cx="499.5" cy="499.5" r="250.5"/><circle cx="-499.5" cy="499.5" r="250.5"/><polygon points="-499.5,-750 499.5,-750 499.5,-249 -499.5,-249"/><polygon points="750,-499.5 750,499.5 249,499.5 249,-499.5"/><polygon points="499.5,249 -499.5,249 -499.5,750 499.5,750"/><polygon points="-249,499.5 -249,-499.5 -750,-499.5 -750,499.5"/></g><circle cx="0" cy="0" r="750" id="_UOUgAp3hI-B_y5nZO7z_pad-20"/><circle cx="0" cy="0" r="1250" id="_UOUgAp3hI-B_y5nZO7z_pad-21"/><rect x="-780" y="-325" width="1560" height="650" id="_UOUgAp3hI-B_y5nZO7z_pad-22"/><g id="_UOUgAp3hI-B_y5nZO7z_pad-23"><polygon points="-350,-450 350,-450 350,450 -350,450"/><circle cx="-350" cy="-450" r="250"/><circle cx="350" cy="-450" r="250"/><circle cx="350" cy="450" r="250"/><circle cx="-350" cy="450" r="250"/><polygon points="-350,-700 350,-700 350,-200 -350,-200"/><polygon points="600,-450 600,450 100,450 100,-450"/><polygon points="350,200 -350,200 -350,700 350,700"/><polygon points="-100,450 -100,-450 -600,-450 -600,450"/></g><g id="_UOUgAp3hI-B_y5nZO7z_pad-24"><polygon points="-337.5,-475 337.5,-475 337.5,475 -337.5,475"/><circle cx="-337.5" cy="-475" r="250"/><circle cx="337.5" cy="-475" r="250"/><circle cx="337.5" cy="475" r="250"/><circle cx="-337.5" cy="475" r="250"/><polygon points="-337.5,-725 337.5,-725 337.5,-225 -337.5,-225"/><polygon points="587.5,-475 587.5,475 87.5,475 87.5,-475"/><polygon points="337.5,225 -337.5,225 -337.5,725 337.5,725"/><polygon points="-87.5,475 -87.5,-475 -587.5,-475 -587.5,475"/></g><g id="_UOUgAp3hI-B_y5nZO7z_pad-25"><polygon points="337.5,475 -337.5,475 -337.5,-475 337.5,-475"/><circle cx="337.5" cy="475" r="250"/><circle cx="-337.5" cy="475" r="250"/><circle cx="-337.5" cy="-475" r="250"/><circle cx="337.5" cy="-475" r="250"/><polygon points="337.5,225 -337.5,225 -337.5,725 337.5,725"/><polygon points="-87.5,475 -87.5,-475 -587.5,-475 -587.5,475"/><polygon points="-337.5,-725 337.5,-725 337.5,-225 -337.5,-225"/><polygon points="587.5,-475 587.5,475 87.5,475 87.5,-475"/></g><g id="_UOUgAp3hI-B_y5nZO7z_pad-26"><polygon points="-625,350 -625,-350 625,-350 625,350"/><circle cx="-625" cy="350" r="250"/><circle cx="-625" cy="-350" r="250"/><circle cx="625" cy="-350" r="250"/><circle cx="625" cy="350" r="250"/><polygon points="-375,350 -375,-350 -875,-350 -875,350"/><polygon points="-625,-600 625,-600 625,-100 -625,-100"/><polygon points="875,-350 875,350 375,350 375,-350"/><polygon points="625,100 -625,100 -625,600 625,600"/></g><rect x="-875" y="-600" width="1750" height="1200" rx="600" ry="600" id="_UOUgAp3hI-B_y5nZO7z_pad-27"/><g id="_UOUgAp3hI-B_y5nZO7z_pad-28"><polygon points="-475,337.5 -475,-337.5 475,-337.5 475,337.5"/><circle cx="-475" cy="337.5" r="250"/><circle cx="-475" cy="-337.5" r="250"/><circle cx="475" cy="-337.5" r="250"/><circle cx="475" cy="337.5" r="250"/><polygon points="-225,337.5 -225,-337.5 -725,-337.5 -725,337.5"/><polygon points="-475,-587.5 475,-587.5 475,-87.5 -475,-87.5"/><polygon points="725,-337.5 725,337.5 225,337.5 225,-337.5"/><polygon points="475,87.5 -475,87.5 -475,587.5 475,587.5"/></g><rect x="-1000" y="-1000" width="2000" height="2000" id="_UOUgAp3hI-B_y5nZO7z_pad-29"/><rect x="-450" y="-600" width="900" height="1200" id="_UOUgAp3hI-B_y5nZO7z_pad-30"/><circle cx="0" cy="0" r="654" id="_UOUgAp3hI-B_y5nZO7z_pad-31"/><circle cx="0" cy="0" r="629" id="_UOUgAp3hI-B_y5nZO7z_pad-32"/><circle cx="0" cy="0" r="604" id="_UOUgAp3hI-B_y5nZO7z_pad-33"/></defs><g transform="translate(0,-161000) scale(1,-1)" fill="currentColor" stroke="currentColor"><use xlink:href="#_UOUgAp3hI-B_y5nZO7z_pad-10" x="76275" y="-86050"/><use xlink:href="#_UOUgAp3hI-B_y5nZO7z_pad-11" x="76275" y="-83510"/><use xlink:href="#_UOUgAp3hI-B_y5nZO7z_pad-11" x="76275" y="-80970"/><use xlink:href="#_UOUgAp3hI-B_y5nZO7z_pad-11" x="76275" y="-78430"/><use xlink:href="#_UOUgAp3hI-B_y5nZO7z_pad-10" x="116380" y="-61000"/><use xlink:href="#_UOUgAp3hI-B_y5nZO7z_pad-11" x="118920" y="-61000"/><use xlink:href="#_UOUgAp3hI-B_y5nZO7z_pad-11" x="121460" y="-61000"/><use xlink:href="#_UOUgAp3hI-B_y5nZO7z_pad-11" x="124000" y="-61000"/><use xlink:href="#_UOUgAp3hI-B_y5nZO7z_pad-11" x="126540" y="-61000"/><use xlink:href="#_UOUgAp3hI-B_y5nZO7z_pad-11" x="129080" y="-61000"/><use xlink:href="#_UOUgAp3hI-B_y5nZO7z_pad-11" x="131620" y="-61000"/><use xlink:href="#_UOUgAp3hI-B_y5nZO7z_pad-12" x="103962.5" y="-70787.5"/><use xlink:href="#_UOUgAp3hI-B_y5nZO7z_pad-12" x="103962.5" y="-68712.5"/><use xlink:href="#_UOUgAp3hI-B_y5nZO7z_pad-13" x="64750" y="-57300"/><use xlink:href="#_UOUgAp3hI-B_y5nZO7z_pad-13" x="64750" y="-58250"/><use xlink:href="#_UOUgAp3hI-B_y5nZO7z_pad-13" x="64750" y="-59200"/><use xlink:href="#_UOUgAp3hI-B_y5nZO7z_pad-13" x="61330" y="-59200"/><use xlink:href="#_UOUgAp3hI-B_y5nZO7z_pad-13" x="61330" y="-58250"/><use xlink:href="#_UOUgAp3hI-B_y5nZO7z_pad-13" x="61330" y="-57300"/><use xlink:href="#_UOUgAp3hI-B_y5nZO7z_pad-14" x="57250" y="-60237.5"/><use xlink:href="#_UOUgAp3hI-B_y5nZO7z_pad-14" x="57250" y="-57262.5"/><use xlink:href="#_UOUgAp3hI-B_y5nZO7z_pad-15" x="104000" y="-53500"/><use xlink:href="#_UOUgAp3hI-B_y5nZO7z_pad-16" x="124000" y="-53500"/><use xlink:href="#_UOUgAp3hI-B_y5nZO7z_pad-17" x="102750" y="-104250"/><use xlink:href="#_UOUgAp3hI-B_y5nZO7z_pad-17" x="100750" y="-104250"/><use xlink:href="#_UOUgAp3hI-B_y5nZO7z_pad-18" x="87215" y="-100900"/><use xlink:href="#_UOUgAp3hI-B_y5nZO7z_pad-18" x="75785" y="-100900"/><use xlink:href="#_UOUgAp3hI-B_y5nZO7z_pad-19" x="77055" y="-94550"/><use xlink:href="#_UOUgAp3hI-B_y5nZO7z_pad-20" x="78325" y="-92010"/><use xlink:href="#_UOUgAp3hI-B_y5nZO7z_pad-20" x="79595" y="-94550"/><use xlink:href="#_UOUgAp3hI-B_y5nZO7z_pad-20" x="80865" y="-92010"/><use xlink:href="#_UOUgAp3hI-B_y5nZO7z_pad-20" x="82135" y="-94550"/><use xlink:href="#_UOUgAp3hI-B_y5nZO7z_pad-20" x="83405" y="-92010"/><use xlink:href="#_UOUgAp3hI-B_y5nZO7z_pad-20" x="84675" y="-94550"/><use xlink:href="#_UOUgAp3hI-B_y5nZO7z_pad-20" x="85945" y="-92010"/><use xlink:href="#_UOUgAp3hI-B_y5nZO7z_pad-20" x="75175" y="-105980"/><use xlink:href="#_UOUgAp3hI-B_y5nZO7z_pad-20" x="77715" y="-104280"/><use xlink:href="#_UOUgAp3hI-B_y5nZO7z_pad-20" x="85285" y="-105980"/><use xlink:href="#_UOUgAp3hI-B_y5nZO7z_pad-20" x="87825" y="-104280"/><use xlink:href="#_UOUgAp3hI-B_y5nZO7z_pad-21" x="89375" y="-97850"/><use xlink:href="#_UOUgAp3hI-B_y5nZO7z_pad-21" x="73625" y="-97850"/><use xlink:href="#_UOUgAp3hI-B_y5nZO7z_pad-22" x="107362.5" y="-70700"/><use xlink:href="#_UOUgAp3hI-B_y5nZO7z_pad-22" x="107362.5" y="-69750"/><use xlink:href="#_UOUgAp3hI-B_y5nZO7z_pad-22" x="107362.5" y="-68800"/><use xlink:href="#_UOUgAp3hI-B_y5nZO7z_pad-22" x="110062.5" y="-68800"/><use xlink:href="#_UOUgAp3hI-B_y5nZO7z_pad-22" x="110062.5" y="-70700"/><use xlink:href="#_UOUgAp3hI-B_y5nZO7z_pad-15" x="114000" y="-53500"/><use xlink:href="#_UOUgAp3hI-B_y5nZO7z_pad-15" x="119000" y="-53500"/><use xlink:href="#_UOUgAp3hI-B_y5nZO7z_pad-23" x="55500" y="-71500"/><use xlink:href="#_UOUgAp3hI-B_y5nZO7z_pad-23" x="57500" y="-71500"/><use xlink:href="#_UOUgAp3hI-B_y5nZO7z_pad-24" x="102737.5" y="-73950"/><use xlink:href="#_UOUgAp3hI-B_y5nZO7z_pad-24" x="104812.5" y="-73950"/><use xlink:href="#_UOUgAp3hI-B_y5nZO7z_pad-23" x="55750" y="-84500"/><use xlink:href="#_UOUgAp3hI-B_y5nZO7z_pad-23" x="57750" y="-84500"/><use xlink:href="#_UOUgAp3hI-B_y5nZO7z_pad-10" x="116400" y="-101000"/><use xlink:href="#_UOUgAp3hI-B_y5nZO7z_pad-11" x="118940" y="-101000"/><use xlink:href="#_UOUgAp3hI-B_y5nZO7z_pad-11" x="121480" y="-101000"/><use xlink:href="#_UOUgAp3hI-B_y5nZO7z_pad-11" x="124020" y="-101000"/><use xlink:href="#_UOUgAp3hI-B_y5nZO7z_pad-11" x="126560" y="-101000"/><use xlink:href="#_UOUgAp3hI-B_y5nZO7z_pad-11" x="129100" y="-101000"/><use xlink:href="#_UOUgAp3hI-B_y5nZO7z_pad-11" x="131640" y="-101000"/><use xlink:href="#_UOUgAp3hI-B_y5nZO7z_pad-15" x="99000" y="-53500"/><use xlink:href="#_UOUgAp3hI-B_y5nZO7z_pad-25" x="109750" y="-74000"/><use xlink:href="#_UOUgAp3hI-B_y5nZO7z_pad-25" x="107675" y="-74000"/><use xlink:href="#_UOUgAp3hI-B_y5nZO7z_pad-26" x="94450" y="-54400"/><use xlink:href="#_UOUgAp3hI-B_y5nZO7z_pad-27" x="94450" y="-56400"/><use xlink:href="#_UOUgAp3hI-B_y5nZO7z_pad-25" x="58537.5" y="-53000"/><use xlink:href="#_UOUgAp3hI-B_y5nZO7z_pad-25" x="56462.5" y="-53000"/><use xlink:href="#_UOUgAp3hI-B_y5nZO7z_pad-28" x="82250" y="-96962.5"/><use xlink:href="#_UOUgAp3hI-B_y5nZO7z_pad-28" x="82250" y="-99037.5"/><use xlink:href="#_UOUgAp3hI-B_y5nZO7z_pad-29" x="105500" y="-104120.785"/><use xlink:href="#_UOUgAp3hI-B_y5nZO7z_pad-15" x="105500" y="-99120.785"/><use xlink:href="#_UOUgAp3hI-B_y5nZO7z_pad-30" x="64650" y="-53250"/><use xlink:href="#_UOUgAp3hI-B_y5nZO7z_pad-30" x="61350" y="-53250"/><use xlink:href="#_UOUgAp3hI-B_y5nZO7z_pad-10" x="86290" y="-53250"/><use xlink:href="#_UOUgAp3hI-B_y5nZO7z_pad-11" x="83750" y="-53250"/><use xlink:href="#_UOUgAp3hI-B_y5nZO7z_pad-11" x="81210" y="-53250"/><use xlink:href="#_UOUgAp3hI-B_y5nZO7z_pad-11" x="78670" y="-53250"/><use xlink:href="#_UOUgAp3hI-B_y5nZO7z_pad-11" x="76130" y="-53250"/><use xlink:href="#_UOUgAp3hI-B_y5nZO7z_pad-10" x="118950" y="-66025"/><use xlink:href="#_UOUgAp3hI-B_y5nZO7z_pad-11" x="121490" y="-66025"/><use xlink:href="#_UOUgAp3hI-B_y5nZO7z_pad-11" x="124030" y="-66025"/><use xlink:href="#_UOUgAp3hI-B_y5nZO7z_pad-11" x="126570" y="-66025"/><use xlink:href="#_UOUgAp3hI-B_y5nZO7z_pad-11" x="129110" y="-66025"/><use xlink:href="#_UOUgAp3hI-B_y5nZO7z_pad-10" x="118950" y="-96225"/><use xlink:href="#_UOUgAp3hI-B_y5nZO7z_pad-11" x="121490" y="-96225"/><use xlink:href="#_UOUgAp3hI-B_y5nZO7z_pad-11" x="124030" y="-96225"/><use xlink:href="#_UOUgAp3hI-B_y5nZO7z_pad-11" x="126570" y="-96225"/><use xlink:href="#_UOUgAp3hI-B_y5nZO7z_pad-11" x="129110" y="-96225"/><use xlink:href="#_UOUgAp3hI-B_y5nZO7z_pad-10" x="94275" y="-106000"/><use xlink:href="#_UOUgAp3hI-B_y5nZO7z_pad-11" x="94275" y="-103460"/><use xlink:href="#_UOUgAp3hI-B_y5nZO7z_pad-11" x="94275" y="-100920"/><use xlink:href="#_UOUgAp3hI-B_y5nZO7z_pad-11" x="94275" y="-98380"/><use xlink:href="#_UOUgAp3hI-B_y5nZO7z_pad-11" x="94275" y="-95840"/><use xlink:href="#_UOUgAp3hI-B_y5nZO7z_pad-11" x="94275" y="-93300"/><use xlink:href="#_UOUgAp3hI-B_y5nZO7z_pad-11" x="94275" y="-90760"/><use xlink:href="#_UOUgAp3hI-B_y5nZO7z_pad-10" x="94285.786" y="-80512.893"/><use xlink:href="#_UOUgAp3hI-B_y5nZO7z_pad-11" x="94285.786" y="-77972.893"/><use xlink:href="#_UOUgAp3hI-B_y5nZO7z_pad-11" x="94285.786" y="-75432.893"/><use xlink:href="#_UOUgAp3hI-B_y5nZO7z_pad-11" x="94285.786" y="-72892.893"/><use xlink:href="#_UOUgAp3hI-B_y5nZO7z_pad-11" x="94285.786" y="-70352.893"/><use xlink:href="#_UOUgAp3hI-B_y5nZO7z_pad-11" x="94285.786" y="-67812.893"/><use xlink:href="#_UOUgAp3hI-B_y5nZO7z_pad-15" x="109000" y="-53500"/><use xlink:href="#_UOUgAp3hI-B_y5nZO7z_pad-10" x="76300" y="-73000"/><use xlink:href="#_UOUgAp3hI-B_y5nZO7z_pad-11" x="76300" y="-70460"/><use xlink:href="#_UOUgAp3hI-B_y5nZO7z_pad-11" x="76300" y="-67920"/><use xlink:href="#_UOUgAp3hI-B_y5nZO7z_pad-11" x="76300" y="-65380"/><use xlink:href="#_UOUgAp3hI-B_y5nZO7z_pad-11" x="76300" y="-62840"/><use xlink:href="#_UOUgAp3hI-B_y5nZO7z_pad-31" x="52880" y="-71610"/><use xlink:href="#_UOUgAp3hI-B_y5nZO7z_pad-31" x="52880" y="-69070"/><use xlink:href="#_UOUgAp3hI-B_y5nZO7z_pad-31" x="52880" y="-66530"/><use xlink:href="#_UOUgAp3hI-B_y5nZO7z_pad-31" x="52880" y="-63990"/><use xlink:href="#_UOUgAp3hI-B_y5nZO7z_pad-31" x="52880" y="-61450"/><use xlink:href="#_UOUgAp3hI-B_y5nZO7z_pad-31" x="52880" y="-58910"/><use xlink:href="#_UOUgAp3hI-B_y5nZO7z_pad-31" x="52880" y="-56370"/><use xlink:href="#_UOUgAp3hI-B_y5nZO7z_pad-31" x="52880" y="-53830"/><use xlink:href="#_UOUgAp3hI-B_y5nZO7z_pad-31" x="52880" y="-51290"/><use xlink:href="#_UOUgAp3hI-B_y5nZO7z_pad-31" x="68120" y="-51290"/><use xlink:href="#_UOUgAp3hI-B_y5nZO7z_pad-31" x="68120" y="-53830"/><use xlink:href="#_UOUgAp3hI-B_y5nZO7z_pad-31" x="68120" y="-56370"/><use xlink:href="#_UOUgAp3hI-B_y5nZO7z_pad-31" x="68120" y="-58910"/><use xlink:href="#_UOUgAp3hI-B_y5nZO7z_pad-31" x="68120" y="-61450"/><use xlink:href="#_UOUgAp3hI-B_y5nZO7z_pad-31" x="68120" y="-63990"/><use xlink:href="#_UOUgAp3hI-B_y5nZO7z_pad-31" x="68120" y="-66530"/><use xlink:href="#_UOUgAp3hI-B_y5nZO7z_pad-31" x="68120" y="-69070"/><use xlink:href="#_UOUgAp3hI-B_y5nZO7z_pad-31" x="68120" y="-71610"/><use xlink:href="#_UOUgAp3hI-B_y5nZO7z_pad-31" x="52880" y="-109710"/><use xlink:href="#_UOUgAp3hI-B_y5nZO7z_pad-31" x="52880" y="-107170"/><use xlink:href="#_UOUgAp3hI-B_y5nZO7z_pad-31" x="52880" y="-104630"/><use xlink:href="#_UOUgAp3hI-B_y5nZO7z_pad-31" x="52880" y="-102090"/><use xlink:href="#_UOUgAp3hI-B_y5nZO7z_pad-31" x="52880" y="-99550"/><use xlink:href="#_UOUgAp3hI-B_y5nZO7z_pad-31" x="52880" y="-97010"/><use xlink:href="#_UOUgAp3hI-B_y5nZO7z_pad-31" x="52880" y="-94470"/><use xlink:href="#_UOUgAp3hI-B_y5nZO7z_pad-31" x="52880" y="-91930"/><use xlink:href="#_UOUgAp3hI-B_y5nZO7z_pad-31" x="52880" y="-89390"/><use xlink:href="#_UOUgAp3hI-B_y5nZO7z_pad-31" x="52880" y="-86850"/><use xlink:href="#_UOUgAp3hI-B_y5nZO7z_pad-31" x="52880" y="-84310"/><use xlink:href="#_UOUgAp3hI-B_y5nZO7z_pad-31" x="52880" y="-81770"/><use xlink:href="#_UOUgAp3hI-B_y5nZO7z_pad-31" x="52880" y="-79230"/><use xlink:href="#_UOUgAp3hI-B_y5nZO7z_pad-31" x="52880" y="-76690"/><use xlink:href="#_UOUgAp3hI-B_y5nZO7z_pad-31" x="68120" y="-74150"/><use xlink:href="#_UOUgAp3hI-B_y5nZO7z_pad-31" x="68120" y="-76690"/><use xlink:href="#_UOUgAp3hI-B_y5nZO7z_pad-31" x="68120" y="-79230"/><use xlink:href="#_UOUgAp3hI-B_y5nZO7z_pad-31" x="68120" y="-81770"/><use xlink:href="#_UOUgAp3hI-B_y5nZO7z_pad-31" x="68120" y="-84310"/><use xlink:href="#_UOUgAp3hI-B_y5nZO7z_pad-31" x="68120" y="-86850"/><use xlink:href="#_UOUgAp3hI-B_y5nZO7z_pad-31" x="68120" y="-89390"/><use xlink:href="#_UOUgAp3hI-B_y5nZO7z_pad-31" x="68120" y="-91930"/><use xlink:href="#_UOUgAp3hI-B_y5nZO7z_pad-31" x="68120" y="-94470"/><use xlink:href="#_UOUgAp3hI-B_y5nZO7z_pad-31" x="68120" y="-97010"/><use xlink:href="#_UOUgAp3hI-B_y5nZO7z_pad-31" x="68120" y="-99550"/><use xlink:href="#_UOUgAp3hI-B_y5nZO7z_pad-31" x="68120" y="-102090"/><use xlink:href="#_UOUgAp3hI-B_y5nZO7z_pad-31" x="68120" y="-104630"/><use xlink:href="#_UOUgAp3hI-B_y5nZO7z_pad-32" x="65070" y="-93200"/><use xlink:href="#_UOUgAp3hI-B_y5nZO7z_pad-32" x="65070" y="-95740"/><use xlink:href="#_UOUgAp3hI-B_y5nZO7z_pad-32" x="65070" y="-98280"/><use xlink:href="#_UOUgAp3hI-B_y5nZO7z_pad-32" x="65070" y="-100820"/><use xlink:href="#_UOUgAp3hI-B_y5nZO7z_pad-32" x="65070" y="-103360"/><use xlink:href="#_UOUgAp3hI-B_y5nZO7z_pad-33" x="59330" y="-96740"/><use xlink:href="#_UOUgAp3hI-B_y5nZO7z_pad-33" x="57330" y="-96740"/><use xlink:href="#_UOUgAp3hI-B_y5nZO7z_pad-33" x="59330" y="-94740"/><use xlink:href="#_UOUgAp3hI-B_y5nZO7z_pad-33" x="57330" y="-94740"/><use xlink:href="#_UOUgAp3hI-B_y5nZO7z_pad-33" x="55330" y="-96740"/><use xlink:href="#_UOUgAp3hI-B_y5nZO7z_pad-33" x="55330" y="-94740"/><use xlink:href="#_UOUgAp3hI-B_y5nZO7z_pad-31" x="52880" y="-74150"/><use xlink:href="#_UOUgAp3hI-B_y5nZO7z_pad-31" x="57960" y="-63990"/><use xlink:href="#_UOUgAp3hI-B_y5nZO7z_pad-31" x="55420" y="-107170"/><use xlink:href="#_UOUgAp3hI-B_y5nZO7z_pad-31" x="55420" y="-63990"/><use xlink:href="#_UOUgAp3hI-B_y5nZO7z_pad-31" x="60500" y="-63990"/><use xlink:href="#_UOUgAp3hI-B_y5nZO7z_pad-31" x="63040" y="-63990"/><use xlink:href="#_UOUgAp3hI-B_y5nZO7z_pad-31" x="65580" y="-63990"/><use xlink:href="#_UOUgAp3hI-B_y5nZO7z_pad-31" x="68120" y="-107170"/><use xlink:href="#_UOUgAp3hI-B_y5nZO7z_pad-31" x="68120" y="-109710"/></g></svg>