<svg version="1.1" xmlns="http://www.w3.org/2000/svg" xmlns:xlink="http://www.w3.org/1999/xlink" stroke-linecap="round" stroke-linejoin="round" stroke-width="0" fill-rule="evenodd" width="99.49262mm" height="61.8635mm" viewBox="49582.38 -111820 99492.62 61863.5" id="EC9KvanuPKuefmqZShAc"><defs><rect x="-850" y="-850" width="1700" height="1700" id="EC9KvanuPKuefmqZShAc_pad-14"/><rect x="-850" y="-850" width="1700" height="1700" rx="850" ry="850" id="EC9KvanuPKuefmqZShAc_pad-15"/><g id="EC9KvanuPKuefmqZShAc_pad-16"><polygon points="-450,350 -450,-350 450,-350 450,350"/><circle cx="-450" cy="350" r="250"/><circle cx="-450" cy="-350" r="250"/><circle cx="450" cy="-350" r="250"/><circle cx="450" cy="350" r="250"/><polygon points="-200,350 -200,-350 -700,-350 -700,350"/><polygon points="-450,-600 450,-600 450,-100 -450,-100"/><polygon points="700,-350 700,350 200,350 200,-350"/><polygon points="450,100 -450,100 -450,600 450,600"/></g><g id="EC9KvanuPKuefmqZShAc_pad-17"><polygon points="475,-337.5 475,337.5 -475,337.5 -475,-337.5"/><circle cx="475" cy="-337.5" r="250"/><circle cx="475" cy="337.5" r="250"/><circle cx="-475" cy="337.5" r="250"/><circle cx="-475" cy="-337.5" r="250"/><polygon points="725,-337.5 725,337.5 225,337.5 225,-337.5"/><polygon points="475,87.5 -475,87.5 -475,587.5 475,587.5"/><polygon points="-225,337.5 -225,-337.5 -725,-337.5 -725,337.5"/><polygon points="-475,-587.5 475,-587.5 475,-87.5 -475,-87.5"/></g><circle cx="0" cy="0" r="1625" id="EC9KvanuPKuefmqZShAc_pad-18"/><g id="EC9KvanuPKuefmqZShAc_pad-19"><polygon points="-499.5,-499.5 499.5,-499.5 499.5,499.5 -499.5,499.5"/><circle cx="-499.5" cy="-499.5" r="250.5"/><circle cx="499.5" cy="-499.5" r="250.5"/><circle cx="499.5" cy="499.5" r="250.5"/><circle cx="-499.5" cy="499.5" r="250.5"/><polygon points="-499.5,-750 499.5,-750 499.5,-249 -499.5,-249"/><polygon points="750,-499.5 750,499.5 249,499.5 249,-499.5"/><polygon points="499.5,249 -499.5,249 -499.5,750 499.5,750"/><polygon points="-249,499.5 -249,-499.5 -750,-499.5 -750,499.5"/></g><circle cx="0" cy="0" r="750" id="EC9KvanuPKuefmqZShAc_pad-20"/><circle cx="0" cy="0" r="1250" id="EC9KvanuPKuefmqZShAc_pad-21"/><g id="EC9KvanuPKuefmqZShAc_pad-22"><polygon points="-475,337.5 -475,-337.5 475,-337.5 475,337.5"/><circle cx="-475" cy="337.5" r="250"/><circle cx="-475" cy="-337.5" r="250"/><circle cx="475" cy="-337.5" r="250"/><circle cx="475" cy="337.5" r="250"/><polygon points="-225,337.5 -225,-337.5 -725,-337.5 -725,337.5"/><polygon points="-475,-587.5 475,-587.5 475,-87.5 -475,-87.5"/><polygon points="725,-337.5 725,337.5 225,337.5 225,-337.5"/><polygon points="475,87.5 -475,87.5 -475,587.5 475,587.5"/></g><g id="EC9KvanuPKuefmqZShAc_pad-23"><polygon points="-625,350 -625,-350 625,-350 625,350"/><circle cx="-625" cy="350" r="250"/><circle cx="-625" cy="-350" r="250"/><circle cx="625" cy="-350" r="250"/><circle cx="625" cy="350" r="250"/><polygon points="-375,350 -375,-350 -875,-350 -875,350"/><polygon points="-625,-600 625,-600 625,-100 -625,-100"/><polygon points="875,-350 875,350 375,350 375,-350"/><polygon points="625,100 -625,100 -625,600 625,600"/></g><rect x="-875" y="-600" width="1750" height="1200" rx="600" ry="600" id="EC9KvanuPKuefmqZShAc_pad-24"/><rect x="-1000" y="-1000" width="2000" height="2000" id="EC9KvanuPKuefmqZShAc_pad-25"/><circle cx="0" cy="0" r="1000" id="EC9KvanuPKuefmqZShAc_pad-26"/><rect x="-187.5" y="-625" width="375" height="1250" id="EC9KvanuPKuefmqZShAc_pad-27"/><rect x="-150" y="-700" width="300" height="1400" id="EC9KvanuPKuefmqZShAc_pad-28"/><g id="EC9KvanuPKuefmqZShAc_pad-29"><polygon points="450,-350 450,350 -450,350 -450,-350"/><circle cx="450" cy="-350" r="250"/><circle cx="450" cy="350" r="250"/><circle cx="-450" cy="350" r="250"/><circle cx="-450" cy="-350" r="250"/><polygon points="700,-350 700,350 200,350 200,-350"/><polygon points="450,100 -450,100 -450,600 450,600"/><polygon points="-200,350 -200,-350 -700,-350 -700,350"/><polygon points="-450,-600 450,-600 450,-100 -450,-100"/></g><circle cx="0" cy="0" r="654" id="EC9KvanuPKuefmqZShAc_pad-30"/><circle cx="0" cy="0" r="629" id="EC9KvanuPKuefmqZShAc_pad-31"/><circle cx="0" cy="0" r="604" id="EC9KvanuPKuefmqZShAc_pad-32"/><mask id="EC9KvanuPKuefmqZShAc_clear-1" fill="#000" stroke="#000"><g><rect x="49582.38" y="-111820" width="99492.62" height="61863.5" fill="#fff"/><use xlink:href="#EC9KvanuPKuefmqZShAc_pad-14" x="76275" y="-86050"/><use xlink:href="#EC9KvanuPKuefmqZShAc_pad-15" x="76275" y="-83510"/><use xlink:href="#EC9KvanuPKuefmqZShAc_pad-15" x="76275" y="-80970"/><use xlink:href="#EC9KvanuPKuefmqZShAc_pad-15" x="76275" y="-78430"/><use xlink:href="#EC9KvanuPKuefmqZShAc_pad-14" x="116380" y="-61000"/><use xlink:href="#EC9KvanuPKuefmqZShAc_pad-15" x="118920" y="-61000"/><use xlink:href="#EC9KvanuPKuefmqZShAc_pad-15" x="121460" y="-61000"/><use xlink:href="#EC9KvanuPKuefmqZShAc_pad-15" x="124000" y="-61000"/><use xlink:href="#EC9KvanuPKuefmqZShAc_pad-15" x="126540" y="-61000"/><use xlink:href="#EC9KvanuPKuefmqZShAc_pad-15" x="129080" y="-61000"/><use xlink:href="#EC9KvanuPKuefmqZShAc_pad-15" x="131620" y="-61000"/><use xlink:href="#EC9KvanuPKuefmqZShAc_pad-16" x="60250" y="-58000"/><use xlink:href="#EC9KvanuPKuefmqZShAc_pad-16" x="60250" y="-60000"/><use xlink:href="#EC9KvanuPKuefmqZShAc_pad-17" x="56750" y="-55037.5"/><use xlink:href="#EC9KvanuPKuefmqZShAc_pad-17" x="56750" y="-52962.5"/><use xlink:href="#EC9KvanuPKuefmqZShAc_pad-18" x="87215" y="-100900"/><use xlink:href="#EC9KvanuPKuefmqZShAc_pad-18" x="75785" y="-100900"/><use xlink:href="#EC9KvanuPKuefmqZShAc_pad-19" x="77055" y="-94550"/><use xlink:href="#EC9KvanuPKuefmqZShAc_pad-20" x="78325" y="-92010"/><use xlink:href="#EC9KvanuPKuefmqZShAc_pad-20" x="79595" y="-94550"/><use xlink:href="#EC9KvanuPKuefmqZShAc_pad-20" x="80865" y="-92010"/><use xlink:href="#EC9KvanuPKuefmqZShAc_pad-20" x="82135" y="-94550"/><use xlink:href="#EC9KvanuPKuefmqZShAc_pad-20" x="83405" y="-92010"/><use xlink:href="#EC9KvanuPKuefmqZShAc_pad-20" x="84675" y="-94550"/><use xlink:href="#EC9KvanuPKuefmqZShAc_pad-20" x="85945" y="-92010"/><use xlink:href="#EC9KvanuPKuefmqZShAc_pad-20" x="75175" y="-105980"/><use xlink:href="#EC9KvanuPKuefmqZShAc_pad-20" x="77715" y="-104280"/><use xlink:href="#EC9KvanuPKuefmqZShAc_pad-20" x="85285" y="-105980"/><use xlink:href="#EC9KvanuPKuefmqZShAc_pad-20" x="87825" y="-104280"/><use xlink:href="#EC9KvanuPKuefmqZShAc_pad-21" x="89375" y="-97850"/><use xlink:href="#EC9KvanuPKuefmqZShAc_pad-21" x="73625" y="-97850"/><use xlink:href="#EC9KvanuPKuefmqZShAc_pad-14" x="116400" y="-101000"/><use xlink:href="#EC9KvanuPKuefmqZShAc_pad-15" x="118940" y="-101000"/><use xlink:href="#EC9KvanuPKuefmqZShAc_pad-15" x="121480" y="-101000"/><use xlink:href="#EC9KvanuPKuefmqZShAc_pad-15" x="124020" y="-101000"/><use xlink:href="#EC9KvanuPKuefmqZShAc_pad-15" x="126560" y="-101000"/><use xlink:href="#EC9KvanuPKuefmqZShAc_pad-15" x="129100" y="-101000"/><use xlink:href="#EC9KvanuPKuefmqZShAc_pad-15" x="131640" y="-101000"/><use xlink:href="#EC9KvanuPKuefmqZShAc_pad-22" x="63750" y="-52962.5"/><use xlink:href="#EC9KvanuPKuefmqZShAc_pad-22" x="63750" y="-55037.5"/><use xlink:href="#EC9KvanuPKuefmqZShAc_pad-23" x="94450" y="-54400"/><use xlink:href="#EC9KvanuPKuefmqZShAc_pad-24" x="94450" y="-56400"/><use xlink:href="#EC9KvanuPKuefmqZShAc_pad-22" x="56750" y="-57962.5"/><use xlink:href="#EC9KvanuPKuefmqZShAc_pad-22" x="56750" y="-60037.5"/><use xlink:href="#EC9KvanuPKuefmqZShAc_pad-25" x="105500" y="-104120.785"/><use xlink:href="#EC9KvanuPKuefmqZShAc_pad-26" x="105500" y="-99120.785"/><use xlink:href="#EC9KvanuPKuefmqZShAc_pad-14" x="86290" y="-53250"/><use xlink:href="#EC9KvanuPKuefmqZShAc_pad-15" x="83750" y="-53250"/><use xlink:href="#EC9KvanuPKuefmqZShAc_pad-15" x="81210" y="-53250"/><use xlink:href="#EC9KvanuPKuefmqZShAc_pad-15" x="78670" y="-53250"/><use xlink:href="#EC9KvanuPKuefmqZShAc_pad-15" x="76130" y="-53250"/><use xlink:href="#EC9KvanuPKuefmqZShAc_pad-27" x="56212.5" y="-76725"/><use xlink:href="#EC9KvanuPKuefmqZShAc_pad-28" x="56750" y="-76800"/><use xlink:href="#EC9KvanuPKuefmqZShAc_pad-27" x="57287.5" y="-76725"/><use xlink:href="#EC9KvanuPKuefmqZShAc_pad-27" x="57287.5" y="-74275"/><use xlink:href="#EC9KvanuPKuefmqZShAc_pad-28" x="56750" y="-74200"/><use xlink:href="#EC9KvanuPKuefmqZShAc_pad-27" x="56212.5" y="-74275"/><use xlink:href="#EC9KvanuPKuefmqZShAc_pad-14" x="118950" y="-66025"/><use xlink:href="#EC9KvanuPKuefmqZShAc_pad-15" x="121490" y="-66025"/><use xlink:href="#EC9KvanuPKuefmqZShAc_pad-15" x="124030" y="-66025"/><use xlink:href="#EC9KvanuPKuefmqZShAc_pad-15" x="126570" y="-66025"/><use xlink:href="#EC9KvanuPKuefmqZShAc_pad-15" x="129110" y="-66025"/><use xlink:href="#EC9KvanuPKuefmqZShAc_pad-14" x="118950" y="-96225"/><use xlink:href="#EC9KvanuPKuefmqZShAc_pad-15" x="121490" y="-96225"/><use xlink:href="#EC9KvanuPKuefmqZShAc_pad-15" x="124030" y="-96225"/><use xlink:href="#EC9KvanuPKuefmqZShAc_pad-15" x="126570" y="-96225"/><use xlink:href="#EC9KvanuPKuefmqZShAc_pad-15" x="129110" y="-96225"/><use xlink:href="#EC9KvanuPKuefmqZShAc_pad-29" x="60250" y="-55000"/><use xlink:href="#EC9KvanuPKuefmqZShAc_pad-29" x="60250" y="-53000"/><use xlink:href="#EC9KvanuPKuefmqZShAc_pad-14" x="94275" y="-106000"/><use xlink:href="#EC9KvanuPKuefmqZShAc_pad-15" x="94275" y="-103460"/><use xlink:href="#EC9KvanuPKuefmqZShAc_pad-15" x="94275" y="-100920"/><use xlink:href="#EC9KvanuPKuefmqZShAc_pad-15" x="94275" y="-98380"/><use xlink:href="#EC9KvanuPKuefmqZShAc_pad-15" x="94275" y="-95840"/><use xlink:href="#EC9KvanuPKuefmqZShAc_pad-15" x="94275" y="-93300"/><use xlink:href="#EC9KvanuPKuefmqZShAc_pad-15" x="94275" y="-90760"/><use xlink:href="#EC9KvanuPKuefmqZShAc_pad-14" x="94285.786" y="-80512.893"/><use xlink:href="#EC9KvanuPKuefmqZShAc_pad-15" x="94285.786" y="-77972.893"/><use xlink:href="#EC9KvanuPKuefmqZShAc_pad-15" x="94285.786" y="-75432.893"/><use xlink:href="#EC9KvanuPKuefmqZShAc_pad-15" x="94285.786" y="-72892.893"/><use xlink:href="#EC9KvanuPKuefmqZShAc_pad-15" x="94285.786" y="-70352.893"/><use xlink:href="#EC9KvanuPKuefmqZShAc_pad-15" x="94285.786" y="-67812.893"/><use xlink:href="#EC9KvanuPKuefmqZShAc_pad-14" x="76300" y="-73000"/><use xlink:href="#EC9KvanuPKuefmqZShAc_pad-15" x="76300" y="-70460"/><use xlink:href="#EC9KvanuPKuefmqZShAc_pad-15" x="76300" y="-67920"/><use xlink:href="#EC9KvanuPKuefmqZShAc_pad-15" x="76300" y="-65380"/><use xlink:href="#EC9KvanuPKuefmqZShAc_pad-15" x="76300" y="-62840"/><use xlink:href="#EC9KvanuPKuefmqZShAc_pad-16" x="63750" y="-58000"/><use xlink:href="#EC9KvanuPKuefmqZShAc_pad-16" x="63750" y="-60000"/><use xlink:href="#EC9KvanuPKuefmqZShAc_pad-30" x="52880" y="-71610"/><use xlink:href="#EC9KvanuPKuefmqZShAc_pad-30" x="52880" y="-69070"/><use xlink:href="#EC9KvanuPKuefmqZShAc_pad-30" x="52880" y="-66530"/><use xlink:href="#EC9KvanuPKuefmqZShAc_pad-30" x="52880" y="-63990"/><use xlink:href="#EC9KvanuPKuefmqZShAc_pad-30" x="52880" y="-61450"/><use xlink:href="#EC9KvanuPKuefmqZShAc_pad-30" x="52880" y="-58910"/><use xlink:href="#EC9KvanuPKuefmqZShAc_pad-30" x="52880" y="-56370"/><use xlink:href="#EC9KvanuPKuefmqZShAc_pad-30" x="52880" y="-53830"/><use xlink:href="#EC9KvanuPKuefmqZShAc_pad-30" x="52880" y="-51290"/><use xlink:href="#EC9KvanuPKuefmqZShAc_pad-30" x="68120" y="-51290"/><use xlink:href="#EC9KvanuPKuefmqZShAc_pad-30" x="68120" y="-53830"/><use xlink:href="#EC9KvanuPKuefmqZShAc_pad-30" x="68120" y="-56370"/><use xlink:href="#EC9KvanuPKuefmqZShAc_pad-30" x="68120" y="-58910"/><use xlink:href="#EC9KvanuPKuefmqZShAc_pad-30" x="68120" y="-61450"/><use xlink:href="#EC9KvanuPKuefmqZShAc_pad-30" x="68120" y="-63990"/><use xlink:href="#EC9KvanuPKuefmqZShAc_pad-30" x="68120" y="-66530"/><use xlink:href="#EC9KvanuPKuefmqZShAc_pad-30" x="68120" y="-69070"/><use xlink:href="#EC9KvanuPKuefmqZShAc_pad-30" x="68120" y="-71610"/><use xlink:href="#EC9KvanuPKuefmqZShAc_pad-30" x="52880" y="-109710"/><use xlink:href="#EC9KvanuPKuefmqZShAc_pad-30" x="52880" y="-107170"/><use xlink:href="#EC9KvanuPKuefmqZShAc_pad-30" x="52880" y="-104630"/><use xlink:href="#EC9KvanuPKuefmqZShAc_pad-30" x="52880" y="-102090"/><use xlink:href="#EC9KvanuPKuefmqZShAc_pad-30" x="52880" y="-99550"/><use xlink:href="#EC9KvanuPKuefmqZShAc_pad-30" x="52880" y="-97010"/><use xlink:href="#EC9KvanuPKuefmqZShAc_pad-30" x="52880" y="-94470"/><use xlink:href="#EC9KvanuPKuefmqZShAc_pad-30" x="52880" y="-91930"/><use xlink:href="#EC9KvanuPKuefmqZShAc_pad-30" x="52880" y="-89390"/><use xlink:href="#EC9KvanuPKuefmqZShAc_pad-30" x="52880" y="-86850"/><use xlink:href="#EC9KvanuPKuefmqZShAc_pad-30" x="52880" y="-84310"/><use xlink:href="#EC9KvanuPKuefmqZShAc_pad-30" x="52880" y="-81770"/><use xlink:href="#EC9KvanuPKuefmqZShAc_pad-30" x="52880" y="-79230"/><use xlink:href="#EC9KvanuPKuefmqZShAc_pad-30" x="52880" y="-76690"/><use xlink:href="#EC9KvanuPKuefmqZShAc_pad-30" x="68120" y="-74150"/><use xlink:href="#EC9KvanuPKuefmqZShAc_pad-30" x="68120" y="-76690"/><use xlink:href="#EC9KvanuPKuefmqZShAc_pad-30" x="68120" y="-79230"/><use xlink:href="#EC9KvanuPKuefmqZShAc_pad-30" x="68120" y="-81770"/><use xlink:href="#EC9KvanuPKuefmqZShAc_pad-30" x="68120" y="-84310"/><use xlink:href="#EC9KvanuPKuefmqZShAc_pad-30" x="68120" y="-86850"/><use xlink:href="#EC9KvanuPKuefmqZShAc_pad-30" x="68120" y="-89390"/><use xlink:href="#EC9KvanuPKuefmqZShAc_pad-30" x="68120" y="-91930"/><use xlink:href="#EC9KvanuPKuefmqZShAc_pad-30" x="68120" y="-94470"/><use xlink:href="#EC9KvanuPKuefmqZShAc_pad-30" x="68120" y="-97010"/><use xlink:href="#EC9KvanuPKuefmqZShAc_pad-30" x="68120" y="-99550"/><use xlink:href="#EC9KvanuPKuefmqZShAc_pad-30" x="68120" y="-102090"/><use xlink:href="#EC9KvanuPKuefmqZShAc_pad-30" x="68120" y="-104630"/><use xlink:href="#EC9KvanuPKuefmqZShAc_pad-31" x="65070" y="-93200"/><use xlink:href="#EC9KvanuPKuefmqZShAc_pad-31" x="65070" y="-95740"/><use xlink:href="#EC9KvanuPKuefmqZShAc_pad-31" x="65070" y="-98280"/><use xlink:href="#EC9KvanuPKuefmqZShAc_pad-31" x="65070" y="-100820"/><use xlink:href="#EC9KvanuPKuefmqZShAc_pad-31" x="65070" y="-103360"/><use xlink:href="#EC9KvanuPKuefmqZShAc_pad-32" x="59330" y="-96740"/><use xlink:href="#EC9KvanuPKuefmqZShAc_pad-32" x="57330" y="-96740"/><use xlink:href="#EC9KvanuPKuefmqZShAc_pad-32" x="59330" y="-94740"/><use xlink:href="#EC9KvanuPKuefmqZShAc_pad-32" x="57330" y="-94740"/><use xlink:href="#EC9KvanuPKuefmqZShAc_pad-32" x="55330" y="-96740"/><use xlink:href="#EC9KvanuPKuefmqZShAc_pad-32" x="55330" y="-94740"/><use xlink:href="#EC9KvanuPKuefmqZShAc_pad-30" x="52880" y="-74150"/><use xlink:href="#EC9KvanuPKuefmqZShAc_pad-30" x="57960" y="-63990"/><use xlink:href="#EC9KvanuPKuefmqZShAc_pad-30" x="55420" y="-107170"/><use xlink:href="#EC9KvanuPKuefmqZShAc_pad-30" x="55420" y="-63990"/><use xlink:href="#EC9KvanuPKuefmqZShAc_pad-30" x="60500" y="-63990"/><use xlink:href="#EC9KvanuPKuefmqZShAc_pad-30" x="63040" y="-63990"/><use xlink:href="#EC9KvanuPKuefmqZShAc_pad-30" x="65580" y="-63990"/><use xlink:href="#EC9KvanuPKuefmqZShAc_pad-30" x="68120" y="-107170"/><use xlink:href="#EC9KvanuPKuefmqZShAc_pad-30" x="68120" y="-109710"/></g></mask></defs><g transform="translate(0,-161776.5) scale(1,-1)" fill="currentColor" stroke="currentColor"><g mask="url(#EC9KvanuPKuefmqZShAc_clear-1)"><path d="M 99000 -56000 149000 -56000 149000 -106000 99000 -106000 99000 -56000 M 113062.38 -62285.714 113776.666 -62285.714 113919.523 -62333.333 114014.761 -62428.571 114062.38 -62571.428 114062.38 -62666.666 M 114062.38 -61285.714 114062.38 -61857.142 M 114062.38 -61571.428 113062.38 -61571.428 113205.238 -61666.666 113300.476 -61761.904 113348.095 -61857.142 M 113062.38 -60666.666 113062.38 -60571.428 113110 -60476.19 113157.619 -60428.571 113252.857 -60380.952 113443.333 -60333.333 113681.428 -60333.333 113871.904 -60380.952 113967.142 -60428.571 114014.761 -60476.19 114062.38 -60571.428 114062.38 -60666.666 114014.761 -60761.904 113967.142 -60809.523 113871.904 -60857.142 113681.428 -60904.761 113443.333 -60904.761 113252.857 -60857.142 113157.619 -60809.523 113110 -60761.904 113062.38 -60666.666 M 113490.952 -59761.904 113443.333 -59857.142 113395.714 -59904.761 113300.476 -59952.38 113252.857 -59952.38 113157.619 -59904.761 113110 -59857.142 113062.38 -59761.904 113062.38 -59571.428 113110 -59476.19 113157.619 -59428.571 113252.857 -59380.952 113300.476 -59380.952 113395.714 -59428.571 113443.333 -59476.19 113490.952 -59571.428 113490.952 -59761.904 113538.571 -59857.142 113586.19 -59904.761 113681.428 -59952.38 113871.904 -59952.38 113967.142 -59904.761 114014.761 -59857.142 114062.38 -59761.904 114062.38 -59571.428 114014.761 -59476.19 113967.142 -59428.571 113871.904 -59380.952 113681.428 -59380.952 113586.19 -59428.571 113538.571 -59476.19 113490.952 -59571.428 M 58952.38 -60119.047 58476.19 -60452.38 M 58952.38 -60690.476 57952.38 -60690.476 57952.38 -60309.523 58000 -60214.285 58047.619 -60166.666 58142.857 -60119.047 58285.714 -60119.047 58380.952 -60166.666 58428.571 -60214.285 58476.19 -60309.523 58476.19 -60690.476 M 58285.714 -59261.904 58952.38 -59261.904 M 57904.761 -59500 58619.047 -59738.095 58619.047 -59119.047 M 57952.38 -58547.619 57952.38 -58452.38 58000 -58357.142 58047.619 -58309.523 58142.857 -58261.904 58333.333 -58214.285 58571.428 -58214.285 58761.904 -58261.904 58857.142 -58309.523 58904.761 -58357.142 58952.38 -58452.38 58952.38 -58547.619 58904.761 -58642.857 58857.142 -58690.476 58761.904 -58738.095 58571.428 -58785.714 58333.333 -58785.714 58142.857 -58738.095 58047.619 -58690.476 58000 -58642.857 57952.38 -58547.619 M 57952.38 -57880.952 57952.38 -57261.904 58333.333 -57595.238 58333.333 -57452.38 58380.952 -57357.142 58428.571 -57309.523 58523.809 -57261.904 58761.904 -57261.904 58857.142 -57309.523 58904.761 -57357.142 58952.38 -57452.38 58952.38 -57738.095 58904.761 -57833.333 58857.142 -57880.952 M 55357.142 -55119.047 55404.761 -55166.666 55452.38 -55309.523 55452.38 -55404.761 55404.761 -55547.619 55309.523 -55642.857 55214.285 -55690.476 55023.809 -55738.095 54880.952 -55738.095 54690.476 -55690.476 54595.238 -55642.857 54500 -55547.619 54452.38 -55404.761 54452.38 -55309.523 54500 -55166.666 54547.619 -55119.047 M 54785.714 -54261.904 55452.38 -54261.904 M 54404.761 -54500 55119.047 -54738.095 55119.047 -54119.047 M 54452.38 -53547.619 54452.38 -53452.38 54500 -53357.142 54547.619 -53309.523 54642.857 -53261.904 54833.333 -53214.285 55071.428 -53214.285 55261.904 -53261.904 55357.142 -53309.523 55404.761 -53357.142 55452.38 -53452.38 55452.38 -53547.619 55404.761 -53642.857 55357.142 -53690.476 55261.904 -53738.095 55071.428 -53785.714 54833.333 -53785.714 54642.857 -53738.095 54547.619 -53690.476 54500 -53642.857 54452.38 -53547.619 M 54452.38 -52880.952 54452.38 -52214.285 55452.38 -52642.857 M 79540.714 -88182.38 79540.714 -88991.904 79588.333 -89087.142 79635.952 -89134.761 79731.19 -89182.38 79921.666 -89182.38 80016.904 -89134.761 80064.523 -89087.142 80112.142 -88991.904 80112.142 -88182.38 M 81064.523 -88182.38 80588.333 -88182.38 80540.714 -88658.571 80588.333 -88610.952 80683.571 -88563.333 80921.666 -88563.333 81016.904 -88610.952 81064.523 -88658.571 81112.142 -88753.809 81112.142 -88991.904 81064.523 -89087.142 81016.904 -89134.761 80921.666 -89182.38 80683.571 -89182.38 80588.333 -89134.761 80540.714 -89087.142 M 81731.19 -88182.38 81826.428 -88182.38 81921.666 -88230 81969.285 -88277.619 82016.904 -88372.857 82064.523 -88563.333 82064.523 -88801.428 82016.904 -88991.904 81969.285 -89087.142 81921.666 -89134.761 81826.428 -89182.38 81731.19 -89182.38 81635.952 -89134.761 81588.333 -89087.142 81540.714 -88991.904 81493.095 -88801.428 81493.095 -88563.333 81540.714 -88372.857 81588.333 -88277.619 81635.952 -88230 81731.19 -88182.38 M 83016.904 -89182.38 82445.476 -89182.38 M 82731.19 -89182.38 82731.19 -88182.38 82635.952 -88325.238 82540.714 -88420.476 82445.476 -88468.095 M 62357.142 -55119.047 62404.761 -55166.666 62452.38 -55309.523 62452.38 -55404.761 62404.761 -55547.619 62309.523 -55642.857 62214.285 -55690.476 62023.809 -55738.095 61880.952 -55738.095 61690.476 -55690.476 61595.238 -55642.857 61500 -55547.619 61452.38 -55404.761 61452.38 -55309.523 61500 -55166.666 61547.619 -55119.047 M 61785.714 -54261.904 62452.38 -54261.904 M 61404.761 -54500 62119.047 -54738.095 62119.047 -54119.047 M 61452.38 -53547.619 61452.38 -53452.38 61500 -53357.142 61547.619 -53309.523 61642.857 -53261.904 61833.333 -53214.285 62071.428 -53214.285 62261.904 -53261.904 62357.142 -53309.523 62404.761 -53357.142 62452.38 -53452.38 62452.38 -53547.619 62404.761 -53642.857 62357.142 -53690.476 62261.904 -53738.095 62071.428 -53785.714 61833.333 -53785.714 61642.857 -53738.095 61547.619 -53690.476 61500 -53642.857 61452.38 -53547.619 M 61452.38 -52309.523 61452.38 -52785.714 61928.571 -52833.333 61880.952 -52785.714 61833.333 -52690.476 61833.333 -52452.38 61880.952 -52357.142 61928.571 -52309.523 62023.809 -52261.904 62261.904 -52261.904 62357.142 -52309.523 62404.761 -52357.142 62452.38 -52452.38 62452.38 -52690.476 62404.761 -52785.714 62357.142 -52833.333 M 90178.571 -56238.095 90226.19 -56095.238 90273.809 -56047.619 90369.047 -56000 90511.904 -56000 90607.142 -56047.619 90654.761 -56095.238 90702.38 -56190.476 90702.38 -56571.428 89702.38 -56571.428 89702.38 -56238.095 89750 -56142.857 89797.619 -56095.238 89892.857 -56047.619 89988.095 -56047.619 90083.333 -56095.238 90130.952 -56142.857 90178.571 -56238.095 90178.571 -56571.428 M 89702.38 -55714.285 89702.38 -55142.857 M 90702.38 -55428.571 89702.38 -55428.571 M 90035.714 -54380.952 90702.38 -54380.952 M 89654.761 -54619.047 90369.047 -54857.142 90369.047 -54238.095 M 89702.38 -53666.666 89702.38 -53571.428 89750 -53476.19 89797.619 -53428.571 89892.857 -53380.952 90083.333 -53333.333 90321.428 -53333.333 90511.904 -53380.952 90607.142 -53428.571 90654.761 -53476.19 90702.38 -53571.428 90702.38 -53666.666 90654.761 -53761.904 90607.142 -53809.523 90511.904 -53857.142 90321.428 -53904.761 90083.333 -53904.761 89892.857 -53857.142 89797.619 -53809.523 89750 -53761.904 89702.38 -53666.666 M 90702.38 -52380.952 90702.38 -52952.38 M 90702.38 -52666.666 89702.38 -52666.666 89845.238 -52761.904 89940.476 -52857.142 89988.095 -52952.38 M 55357.142 -60119.047 55404.761 -60166.666 55452.38 -60309.523 55452.38 -60404.761 55404.761 -60547.619 55309.523 -60642.857 55214.285 -60690.476 55023.809 -60738.095 54880.952 -60738.095 54690.476 -60690.476 54595.238 -60642.857 54500 -60547.619 54452.38 -60404.761 54452.38 -60309.523 54500 -60166.666 54547.619 -60119.047 M 54785.714 -59261.904 55452.38 -59261.904 M 54404.761 -59500 55119.047 -59738.095 55119.047 -59119.047 M 54452.38 -58547.619 54452.38 -58452.38 54500 -58357.142 54547.619 -58309.523 54642.857 -58261.904 54833.333 -58214.285 55071.428 -58214.285 55261.904 -58261.904 55357.142 -58309.523 55404.761 -58357.142 55452.38 -58452.38 55452.38 -58547.619 55404.761 -58642.857 55357.142 -58690.476 55261.904 -58738.095 55071.428 -58785.714 54833.333 -58785.714 54642.857 -58738.095 54547.619 -58690.476 54500 -58642.857 54452.38 -58547.619 M 54452.38 -57357.142 54452.38 -57547.619 54500 -57642.857 54547.619 -57690.476 54690.476 -57785.714 54880.952 -57833.333 55261.904 -57833.333 55357.142 -57785.714 55404.761 -57738.095 55452.38 -57642.857 55452.38 -57452.38 55404.761 -57357.142 55357.142 -57309.523 55261.904 -57261.904 55023.809 -57261.904 54928.571 -57309.523 54880.952 -57357.142 54833.333 -57452.38 54833.333 -57642.857 54880.952 -57738.095 54928.571 -57785.714 55023.809 -57833.333 M 103666.666 -94428.571 103809.523 -94476.19 103857.142 -94523.809 103904.761 -94619.047 103904.761 -94761.904 103857.142 -94857.142 103809.523 -94904.761 103714.285 -94952.38 103333.333 -94952.38 103333.333 -93952.38 103666.666 -93952.38 103761.904 -94000 103809.523 -94047.619 103857.142 -94142.857 103857.142 -94238.095 103809.523 -94333.333 103761.904 -94380.952 103666.666 -94428.571 103333.333 -94428.571 M 104238.095 -93952.38 104904.761 -93952.38 104238.095 -94952.38 104904.761 -94952.38 M 105809.523 -94952.38 105238.095 -94952.38 M 105523.809 -94952.38 105523.809 -93952.38 105428.571 -94095.238 105333.333 -94190.476 105238.095 -94238.095 M 106428.571 -93952.38 106523.809 -93952.38 106619.047 -94000 106666.666 -94047.619 106714.285 -94142.857 106761.904 -94333.333 106761.904 -94571.428 106714.285 -94761.904 106666.666 -94857.142 106619.047 -94904.761 106523.809 -94952.38 106428.571 -94952.38 106333.333 -94904.761 106285.714 -94857.142 106238.095 -94761.904 106190.476 -94571.428 106190.476 -94333.333 106238.095 -94142.857 106285.714 -94047.619 106333.333 -94000 106428.571 -93952.38 M 107714.285 -94952.38 107142.857 -94952.38 M 107428.571 -94952.38 107428.571 -93952.38 107333.333 -94095.238 107238.095 -94190.476 107142.857 -94238.095 M 74154.761 -55535.714 74202.38 -55392.857 74202.38 -55154.761 74154.761 -55059.523 74107.142 -55011.904 74011.904 -54964.285 73916.666 -54964.285 73821.428 -55011.904 73773.809 -55059.523 73726.19 -55154.761 73678.571 -55345.238 73630.952 -55440.476 73583.333 -55488.095 73488.095 -55535.714 73392.857 -55535.714 73297.619 -55488.095 73250 -55440.476 73202.38 -55345.238 73202.38 -55107.142 73250 -54964.285 M 73202.38 -54630.952 74202.38 -54392.857 73488.095 -54202.38 74202.38 -54011.904 73202.38 -53773.809 M 74202.38 -52869.047 74202.38 -53440.476 M 74202.38 -53154.761 73202.38 -53154.761 73345.238 -53250 73440.476 -53345.238 73488.095 -53440.476 M 73202.38 -52250 73202.38 -52154.761 73250 -52059.523 73297.619 -52011.904 73392.857 -51964.285 73583.333 -51916.666 73821.428 -51916.666 74011.904 -51964.285 74107.142 -52011.904 74154.761 -52059.523 74202.38 -52154.761 74202.38 -52250 74154.761 -52345.238 74107.142 -52392.857 74011.904 -52440.476 73821.428 -52488.095 73583.333 -52488.095 73392.857 -52440.476 73297.619 -52392.857 73250 -52345.238 73202.38 -52250 M 74202.38 -50964.285 74202.38 -51535.714 M 74202.38 -51250 73202.38 -51250 73345.238 -51345.238 73440.476 -51440.476 73488.095 -51535.714 M 55452.38 -77190.476 54452.38 -77190.476 54452.38 -76952.38 54500 -76809.523 54595.238 -76714.285 54690.476 -76666.666 54880.952 -76619.047 55023.809 -76619.047 55214.285 -76666.666 55309.523 -76714.285 55404.761 -76809.523 55452.38 -76952.38 55452.38 -77190.476 M 55452.38 -75666.666 55452.38 -76238.095 M 55452.38 -75952.38 54452.38 -75952.38 54595.238 -76047.619 54690.476 -76142.857 54738.095 -76238.095 M 54452.38 -75047.619 54452.38 -74952.38 54500 -74857.142 54547.619 -74809.523 54642.857 -74761.904 54833.333 -74714.285 55071.428 -74714.285 55261.904 -74761.904 55357.142 -74809.523 55404.761 -74857.142 55452.38 -74952.38 55452.38 -75047.619 55404.761 -75142.857 55357.142 -75190.476 55261.904 -75238.095 55071.428 -75285.714 54833.333 -75285.714 54642.857 -75238.095 54547.619 -75190.476 54500 -75142.857 54452.38 -75047.619 M 55452.38 -73761.904 55452.38 -74333.333 M 55452.38 -74047.619 54452.38 -74047.619 54595.238 -74142.857 54690.476 -74238.095 54738.095 -74333.333 M 115632.38 -97510.714 116346.666 -97510.714 116489.523 -97558.333 116584.761 -97653.571 116632.38 -97796.428 116632.38 -97891.666 M 116632.38 -96510.714 116632.38 -97082.142 M 116632.38 -96796.428 115632.38 -96796.428 115775.238 -96891.666 115870.476 -96986.904 115918.095 -97082.142 M 115632.38 -95891.666 115632.38 -95796.428 115680 -95701.19 115727.619 -95653.571 115822.857 -95605.952 116013.333 -95558.333 116251.428 -95558.333 116441.904 -95605.952 116537.142 -95653.571 116584.761 -95701.19 116632.38 -95796.428 116632.38 -95891.666 116584.761 -95986.904 116537.142 -96034.523 116441.904 -96082.142 116251.428 -96129.761 116013.333 -96129.761 115822.857 -96082.142 115727.619 -96034.523 115680 -95986.904 115632.38 -95891.666 M 115632.38 -95225 115632.38 -94558.333 116632.38 -94986.904 M 59052.38 -55119.047 58576.19 -55452.38 M 59052.38 -55690.476 58052.38 -55690.476 58052.38 -55309.523 58100 -55214.285 58147.619 -55166.666 58242.857 -55119.047 58385.714 -55119.047 58480.952 -55166.666 58528.571 -55214.285 58576.19 -55309.523 58576.19 -55690.476 M 58385.714 -54261.904 59052.38 -54261.904 M 58004.761 -54500 58719.047 -54738.095 58719.047 -54119.047 M 58052.38 -53547.619 58052.38 -53452.38 58100 -53357.142 58147.619 -53309.523 58242.857 -53261.904 58433.333 -53214.285 58671.428 -53214.285 58861.904 -53261.904 58957.142 -53309.523 59004.761 -53357.142 59052.38 -53452.38 59052.38 -53547.619 59004.761 -53642.857 58957.142 -53690.476 58861.904 -53738.095 58671.428 -53785.714 58433.333 -53785.714 58242.857 -53738.095 58147.619 -53690.476 58100 -53642.857 58052.38 -53547.619 M 58147.619 -52833.333 58100 -52785.714 58052.38 -52690.476 58052.38 -52452.38 58100 -52357.142 58147.619 -52309.523 58242.857 -52261.904 58338.095 -52261.904 58480.952 -52309.523 59052.38 -52880.952 59052.38 -52261.904 M 92989.285 -108222.38 92989.285 -108936.666 92941.666 -109079.523 92846.428 -109174.761 92703.571 -109222.38 92608.333 -109222.38 M 93989.285 -109222.38 93417.857 -109222.38 M 93703.571 -109222.38 93703.571 -108222.38 93608.333 -108365.238 93513.095 -108460.476 93417.857 -108508.095 M 94941.666 -109222.38 94370.238 -109222.38 M 94655.952 -109222.38 94655.952 -108222.38 94560.714 -108365.238 94465.476 -108460.476 94370.238 -108508.095 M 95894.047 -109222.38 95322.619 -109222.38 M 95608.333 -109222.38 95608.333 -108222.38 95513.095 -108365.238 95417.857 -108460.476 95322.619 -108508.095 M 93000.071 -82735.273 93000.071 -83449.559 92952.452 -83592.416 92857.214 -83687.654 92714.357 -83735.273 92619.119 -83735.273 M 94000.071 -83735.273 93428.643 -83735.273 M 93714.357 -83735.273 93714.357 -82735.273 93619.119 -82878.131 93523.881 -82973.369 93428.643 -83020.988 M 94952.452 -83735.273 94381.024 -83735.273 M 94666.738 -83735.273 94666.738 -82735.273 94571.5 -82878.131 94476.262 -82973.369 94381.024 -83020.988 M 95571.5 -82735.273 95666.738 -82735.273 95761.976 -82782.893 95809.595 -82830.512 95857.214 -82925.75 95904.833 -83116.226 95904.833 -83354.321 95857.214 -83544.797 95809.595 -83640.035 95761.976 -83687.654 95666.738 -83735.273 95571.5 -83735.273 95476.262 -83687.654 95428.643 -83640.035 95381.024 -83544.797 95333.405 -83354.321 95333.405 -83116.226 95381.024 -82925.75 95428.643 -82830.512 95476.262 -82782.893 95571.5 -82735.273 M 62452.38 -60119.047 61976.19 -60452.38 M 62452.38 -60690.476 61452.38 -60690.476 61452.38 -60309.523 61500 -60214.285 61547.619 -60166.666 61642.857 -60119.047 61785.714 -60119.047 61880.952 -60166.666 61928.571 -60214.285 61976.19 -60309.523 61976.19 -60690.476 M 61785.714 -59261.904 62452.38 -59261.904 M 61404.761 -59500 62119.047 -59738.095 62119.047 -59119.047 M 61452.38 -58547.619 61452.38 -58452.38 61500 -58357.142 61547.619 -58309.523 61642.857 -58261.904 61833.333 -58214.285 62071.428 -58214.285 62261.904 -58261.904 62357.142 -58309.523 62404.761 -58357.142 62452.38 -58452.38 62452.38 -58547.619 62404.761 -58642.857 62357.142 -58690.476 62261.904 -58738.095 62071.428 -58785.714 61833.333 -58785.714 61642.857 -58738.095 61547.619 -58690.476 61500 -58642.857 61452.38 -58547.619 M 62452.38 -57261.904 62452.38 -57833.333 M 62452.38 -57547.619 61452.38 -57547.619 61595.238 -57642.857 61690.476 -57738.095 61738.095 -57833.333 M 49657.38 -109519.285 50466.904 -109519.285 50562.142 -109471.666 50609.761 -109424.047 50657.38 -109328.809 50657.38 -109138.333 50609.761 -109043.095 50562.142 -108995.476 50466.904 -108947.857 49657.38 -108947.857 M 50657.38 -107947.857 50657.38 -108519.285 M 50657.38 -108233.571 49657.38 -108233.571 49800.238 -108328.809 49895.476 -108424.047 49943.095 -108519.285 M 49657.38 -107328.809 49657.38 -107233.571 49705 -107138.333 49752.619 -107090.714 49847.857 -107043.095 50038.333 -106995.476 50276.428 -106995.476 50466.904 -107043.095 50562.142 -107090.714 50609.761 -107138.333 50657.38 -107233.571 50657.38 -107328.809 50609.761 -107424.047 50562.142 -107471.666 50466.904 -107519.285 50276.428 -107566.904 50038.333 -107566.904 49847.857 -107519.285 49752.619 -107471.666 49705 -107424.047 49657.38 -107328.809 M 50657.38 -106043.095 50657.38 -106614.523 M 50657.38 -106328.809 49657.38 -106328.809 49800.238 -106424.047 49895.476 -106519.285 49943.095 -106614.523" fill="none" stroke-width="150"/><path d="M 115050 -59670 116380 -59670 M 117650 -62330 132950 -62330 M 115050 -61000 115050 -59670 M 117650 -62330 117650 -59670 132950 -59670 M 132950 -62330 132950 -59670 M 60985 -58772.936 60985 -59227.064 M 59515 -58772.936 59515 -59227.064 M 56015 -54261.252 56015 -53738.748 M 57485 -54261.252 57485 -53738.748 M 89615 -90240 89615 -96360 M 89615 -99340 89615 -111760 M 73385 -99350 73385 -111760 M 77055 -90240 89615 -90240 M 73385 -94550 73385 -96360 M 89615 -111760 73385 -111760 M 64485 -53738.748 64485 -54261.252 M 63015 -53738.748 63015 -54261.252 M 96460 -53800 96260 -53800 M 92150 -52950 92150 -57850 95650 -57850 M 93650 -52340 93650 -52950 M 92650 -55500 92150 -55500 M 96260 -54900 95650 -54900 M 95650 -52950 92150 -52950 M 96260 -54100 96460 -54100 M 96260 -52340 91540 -52340 M 96260 -58460 96260 -52340 M 95650 -54900 95650 -52950 M 93650 -58460 93650 -57850 M 95650 -57850 95650 -55900 M 94950 -52340 94950 -52950 M 92150 -55400 92650 -55400 M 92650 -55300 92650 -55500 M 91540 -58460 96260 -58460 M 96360 -54100 96360 -53800 M 95650 -55900 96260 -55900 M 96560 -52040 95310 -52040 M 96560 -53290 96560 -52040 M 91540 -52340 91540 -58460 M 94950 -58460 94950 -57850 M 96460 -54100 96460 -53800 M 92150 -55300 92650 -55300 M 57485 -58738.748 57485 -59261.252 M 56015 -58738.748 56015 -59261.252 M 104000 -108020.785 A 6573.4313718 6573.4313718 0 0 1 106999.999 -108020.785 M 111730 -101620.785 A 6230 6230 0 0 1 99270 -101620.785 6230 6230 0 0 1 111730 -101620.785 M 87620 -54580 86290 -54580 M 85020 -54580 74800 -54580 M 85020 -51920 74800 -51920 M 85020 -51920 85020 -54580 M 74800 -51920 74800 -54580 M 87620 -53250 87620 -54580 M 55850 -74700 55850 -76600 M 57650 -76300 57650 -74700 M 117620 -94895 118950 -94895 M 120220 -94895 130440 -94895 M 120220 -97555 130440 -97555 M 120220 -97555 120220 -94895 M 130440 -97555 130440 -94895 M 117620 -96225 117620 -94895 M 59515 -54227.064 59515 -53772.936 M 60985 -54227.064 60985 -53772.936 M 92945 -107330 92945 -106000 M 95605 -104730 95605 -89430 M 94275 -107330 92945 -107330 M 95605 -104730 92945 -104730 92945 -89430 M 95605 -89430 92945 -89430 M 95615.786 -66482.893 92955.786 -66482.893 M 95615.786 -79242.893 95615.786 -66482.893 M 92955.786 -81842.893 92955.786 -80512.893 M 92955.786 -79242.893 92955.786 -66482.893 M 95615.786 -79242.893 92955.786 -79242.893 M 94285.786 -81842.893 92955.786 -81842.893 M 64485 -58772.936 64485 -59227.064 M 63015 -58772.936 63015 -59227.064" fill="none" stroke-width="120"/><path d="M 51610 -110980 51610 -50020 69390 -50020 69390 -110980 M 64530 -110980 64530 -111680 M 56470 -110980 56470 -111680 M 64530 -111680 56470 -111680 M 69390 -110980 64530 -110980 M 51610 -110980 56470 -110980" fill="none" stroke-width="127"/><path d="M 70100 -104630 A 100 100 0 0 1 69900 -104630 100 100 0 0 1 70100 -104630" fill="none" stroke-width="200"/></g></g></svg>