<svg version="1.1" xmlns="http://www.w3.org/2000/svg" xmlns:xlink="http://www.w3.org/1999/xlink" stroke-linecap="round" stroke-linejoin="round" stroke-width="0" fill-rule="evenodd" width="80.264mm" height="59.728mm" viewBox="52226 -110364 80264 59728" id="hyeU-NIJOMJ7SL-FPG8T"><defs><rect x="-850" y="-850" width="1700" height="1700" id="hyeU-NIJOMJ7SL-FPG8T_pad-10"/><rect x="-850" y="-850" width="1700" height="1700" rx="850" ry="850" id="hyeU-NIJOMJ7SL-FPG8T_pad-11"/><g id="hyeU-NIJOMJ7SL-FPG8T_pad-12"><polygon points="-450,350 -450,-350 450,-350 450,350"/><circle cx="-450" cy="350" r="250"/><circle cx="-450" cy="-350" r="250"/><circle cx="450" cy="-350" r="250"/><circle cx="450" cy="350" r="250"/><polygon points="-200,350 -200,-350 -700,-350 -700,350"/><polygon points="-450,-600 450,-600 450,-100 -450,-100"/><polygon points="700,-350 700,350 200,350 200,-350"/><polygon points="450,100 -450,100 -450,600 450,600"/></g><g id="hyeU-NIJOMJ7SL-FPG8T_pad-13"><polygon points="475,-337.5 475,337.5 -475,337.5 -475,-337.5"/><circle cx="475" cy="-337.5" r="250"/><circle cx="475" cy="337.5" r="250"/><circle cx="-475" cy="337.5" r="250"/><circle cx="-475" cy="-337.5" r="250"/><polygon points="725,-337.5 725,337.5 225,337.5 225,-337.5"/><polygon points="475,87.5 -475,87.5 -475,587.5 475,587.5"/><polygon points="-225,337.5 -225,-337.5 -725,-337.5 -725,337.5"/><polygon points="-475,-587.5 475,-587.5 475,-87.5 -475,-87.5"/></g><circle cx="0" cy="0" r="1625" id="hyeU-NIJOMJ7SL-FPG8T_pad-14"/><g id="hyeU-NIJOMJ7SL-FPG8T_pad-15"><polygon points="-499.5,-499.5 499.5,-499.5 499.5,499.5 -499.5,499.5"/><circle cx="-499.5" cy="-499.5" r="250.5"/><circle cx="499.5" cy="-499.5" r="250.5"/><circle cx="499.5" cy="499.5" r="250.5"/><circle cx="-499.5" cy="499.5" r="250.5"/><polygon points="-499.5,-750 499.5,-750 499.5,-249 -499.5,-249"/><polygon points="750,-499.5 750,499.5 249,499.5 249,-499.5"/><polygon points="499.5,249 -499.5,249 -499.5,750 499.5,750"/><polygon points="-249,499.5 -249,-499.5 -750,-499.5 -750,499.5"/></g><circle cx="0" cy="0" r="750" id="hyeU-NIJOMJ7SL-FPG8T_pad-16"/><circle cx="0" cy="0" r="1250" id="hyeU-NIJOMJ7SL-FPG8T_pad-17"/><g id="hyeU-NIJOMJ7SL-FPG8T_pad-18"><polygon points="-475,337.5 -475,-337.5 475,-337.5 475,337.5"/><circle cx="-475" cy="337.5" r="250"/><circle cx="-475" cy="-337.5" r="250"/><circle cx="475" cy="-337.5" r="250"/><circle cx="475" cy="337.5" r="250"/><polygon points="-225,337.5 -225,-337.5 -725,-337.5 -725,337.5"/><polygon points="-475,-587.5 475,-587.5 475,-87.5 -475,-87.5"/><polygon points="725,-337.5 725,337.5 225,337.5 225,-337.5"/><polygon points="475,87.5 -475,87.5 -475,587.5 475,587.5"/></g><g id="hyeU-NIJOMJ7SL-FPG8T_pad-19"><polygon points="-625,350 -625,-350 625,-350 625,350"/><circle cx="-625" cy="350" r="250"/><circle cx="-625" cy="-350" r="250"/><circle cx="625" cy="-350" r="250"/><circle cx="625" cy="350" r="250"/><polygon points="-375,350 -375,-350 -875,-350 -875,350"/><polygon points="-625,-600 625,-600 625,-100 -625,-100"/><polygon points="875,-350 875,350 375,350 375,-350"/><polygon points="625,100 -625,100 -625,600 625,600"/></g><rect x="-875" y="-600" width="1750" height="1200" rx="600" ry="600" id="hyeU-NIJOMJ7SL-FPG8T_pad-20"/><rect x="-1000" y="-1000" width="2000" height="2000" id="hyeU-NIJOMJ7SL-FPG8T_pad-21"/><circle cx="0" cy="0" r="1000" id="hyeU-NIJOMJ7SL-FPG8T_pad-22"/><rect x="-187.5" y="-625" width="375" height="1250" id="hyeU-NIJOMJ7SL-FPG8T_pad-23"/><rect x="-150" y="-700" width="300" height="1400" id="hyeU-NIJOMJ7SL-FPG8T_pad-24"/><g id="hyeU-NIJOMJ7SL-FPG8T_pad-25"><polygon points="450,-350 450,350 -450,350 -450,-350"/><circle cx="450" cy="-350" r="250"/><circle cx="450" cy="350" r="250"/><circle cx="-450" cy="350" r="250"/><circle cx="-450" cy="-350" r="250"/><polygon points="700,-350 700,350 200,350 200,-350"/><polygon points="450,100 -450,100 -450,600 450,600"/><polygon points="-200,350 -200,-350 -700,-350 -700,350"/><polygon points="-450,-600 450,-600 450,-100 -450,-100"/></g><circle cx="0" cy="0" r="654" id="hyeU-NIJOMJ7SL-FPG8T_pad-26"/><circle cx="0" cy="0" r="629" id="hyeU-NIJOMJ7SL-FPG8T_pad-27"/><circle cx="0" cy="0" r="604" id="hyeU-NIJOMJ7SL-FPG8T_pad-28"/></defs><g transform="translate(0,-161000) scale(1,-1)" fill="currentColor" stroke="currentColor"><use xlink:href="#hyeU-NIJOMJ7SL-FPG8T_pad-10" x="76275" y="-86050"/><use xlink:href="#hyeU-NIJOMJ7SL-FPG8T_pad-11" x="76275" y="-83510"/><use xlink:href="#hyeU-NIJOMJ7SL-FPG8T_pad-11" x="76275" y="-80970"/><use xlink:href="#hyeU-NIJOMJ7SL-FPG8T_pad-11" x="76275" y="-78430"/><use xlink:href="#hyeU-NIJOMJ7SL-FPG8T_pad-10" x="116380" y="-61000"/><use xlink:href="#hyeU-NIJOMJ7SL-FPG8T_pad-11" x="118920" y="-61000"/><use xlink:href="#hyeU-NIJOMJ7SL-FPG8T_pad-11" x="121460" y="-61000"/><use xlink:href="#hyeU-NIJOMJ7SL-FPG8T_pad-11" x="124000" y="-61000"/><use xlink:href="#hyeU-NIJOMJ7SL-FPG8T_pad-11" x="126540" y="-61000"/><use xlink:href="#hyeU-NIJOMJ7SL-FPG8T_pad-11" x="129080" y="-61000"/><use xlink:href="#hyeU-NIJOMJ7SL-FPG8T_pad-11" x="131620" y="-61000"/><use xlink:href="#hyeU-NIJOMJ7SL-FPG8T_pad-12" x="60250" y="-58000"/><use xlink:href="#hyeU-NIJOMJ7SL-FPG8T_pad-12" x="60250" y="-60000"/><use xlink:href="#hyeU-NIJOMJ7SL-FPG8T_pad-13" x="56750" y="-55037.5"/><use xlink:href="#hyeU-NIJOMJ7SL-FPG8T_pad-13" x="56750" y="-52962.5"/><use xlink:href="#hyeU-NIJOMJ7SL-FPG8T_pad-14" x="87215" y="-100900"/><use xlink:href="#hyeU-NIJOMJ7SL-FPG8T_pad-14" x="75785" y="-100900"/><use xlink:href="#hyeU-NIJOMJ7SL-FPG8T_pad-15" x="77055" y="-94550"/><use xlink:href="#hyeU-NIJOMJ7SL-FPG8T_pad-16" x="78325" y="-92010"/><use xlink:href="#hyeU-NIJOMJ7SL-FPG8T_pad-16" x="79595" y="-94550"/><use xlink:href="#hyeU-NIJOMJ7SL-FPG8T_pad-16" x="80865" y="-92010"/><use xlink:href="#hyeU-NIJOMJ7SL-FPG8T_pad-16" x="82135" y="-94550"/><use xlink:href="#hyeU-NIJOMJ7SL-FPG8T_pad-16" x="83405" y="-92010"/><use xlink:href="#hyeU-NIJOMJ7SL-FPG8T_pad-16" x="84675" y="-94550"/><use xlink:href="#hyeU-NIJOMJ7SL-FPG8T_pad-16" x="85945" y="-92010"/><use xlink:href="#hyeU-NIJOMJ7SL-FPG8T_pad-16" x="75175" y="-105980"/><use xlink:href="#hyeU-NIJOMJ7SL-FPG8T_pad-16" x="77715" y="-104280"/><use xlink:href="#hyeU-NIJOMJ7SL-FPG8T_pad-16" x="85285" y="-105980"/><use xlink:href="#hyeU-NIJOMJ7SL-FPG8T_pad-16" x="87825" y="-104280"/><use xlink:href="#hyeU-NIJOMJ7SL-FPG8T_pad-17" x="89375" y="-97850"/><use xlink:href="#hyeU-NIJOMJ7SL-FPG8T_pad-17" x="73625" y="-97850"/><use xlink:href="#hyeU-NIJOMJ7SL-FPG8T_pad-10" x="116400" y="-101000"/><use xlink:href="#hyeU-NIJOMJ7SL-FPG8T_pad-11" x="118940" y="-101000"/><use xlink:href="#hyeU-NIJOMJ7SL-FPG8T_pad-11" x="121480" y="-101000"/><use xlink:href="#hyeU-NIJOMJ7SL-FPG8T_pad-11" x="124020" y="-101000"/><use xlink:href="#hyeU-NIJOMJ7SL-FPG8T_pad-11" x="126560" y="-101000"/><use xlink:href="#hyeU-NIJOMJ7SL-FPG8T_pad-11" x="129100" y="-101000"/><use xlink:href="#hyeU-NIJOMJ7SL-FPG8T_pad-11" x="131640" y="-101000"/><use xlink:href="#hyeU-NIJOMJ7SL-FPG8T_pad-18" x="63750" y="-52962.5"/><use xlink:href="#hyeU-NIJOMJ7SL-FPG8T_pad-18" x="63750" y="-55037.5"/><use xlink:href="#hyeU-NIJOMJ7SL-FPG8T_pad-19" x="94450" y="-54400"/><use xlink:href="#hyeU-NIJOMJ7SL-FPG8T_pad-20" x="94450" y="-56400"/><use xlink:href="#hyeU-NIJOMJ7SL-FPG8T_pad-18" x="56750" y="-57962.5"/><use xlink:href="#hyeU-NIJOMJ7SL-FPG8T_pad-18" x="56750" y="-60037.5"/><use xlink:href="#hyeU-NIJOMJ7SL-FPG8T_pad-21" x="105500" y="-104120.785"/><use xlink:href="#hyeU-NIJOMJ7SL-FPG8T_pad-22" x="105500" y="-99120.785"/><use xlink:href="#hyeU-NIJOMJ7SL-FPG8T_pad-10" x="86290" y="-53250"/><use xlink:href="#hyeU-NIJOMJ7SL-FPG8T_pad-11" x="83750" y="-53250"/><use xlink:href="#hyeU-NIJOMJ7SL-FPG8T_pad-11" x="81210" y="-53250"/><use xlink:href="#hyeU-NIJOMJ7SL-FPG8T_pad-11" x="78670" y="-53250"/><use xlink:href="#hyeU-NIJOMJ7SL-FPG8T_pad-11" x="76130" y="-53250"/><use xlink:href="#hyeU-NIJOMJ7SL-FPG8T_pad-23" x="56212.5" y="-76725"/><use xlink:href="#hyeU-NIJOMJ7SL-FPG8T_pad-24" x="56750" y="-76800"/><use xlink:href="#hyeU-NIJOMJ7SL-FPG8T_pad-23" x="57287.5" y="-76725"/><use xlink:href="#hyeU-NIJOMJ7SL-FPG8T_pad-23" x="57287.5" y="-74275"/><use xlink:href="#hyeU-NIJOMJ7SL-FPG8T_pad-24" x="56750" y="-74200"/><use xlink:href="#hyeU-NIJOMJ7SL-FPG8T_pad-23" x="56212.5" y="-74275"/><use xlink:href="#hyeU-NIJOMJ7SL-FPG8T_pad-10" x="118950" y="-66025"/><use xlink:href="#hyeU-NIJOMJ7SL-FPG8T_pad-11" x="121490" y="-66025"/><use xlink:href="#hyeU-NIJOMJ7SL-FPG8T_pad-11" x="124030" y="-66025"/><use xlink:href="#hyeU-NIJOMJ7SL-FPG8T_pad-11" x="126570" y="-66025"/><use xlink:href="#hyeU-NIJOMJ7SL-FPG8T_pad-11" x="129110" y="-66025"/><use xlink:href="#hyeU-NIJOMJ7SL-FPG8T_pad-10" x="118950" y="-96225"/><use xlink:href="#hyeU-NIJOMJ7SL-FPG8T_pad-11" x="121490" y="-96225"/><use xlink:href="#hyeU-NIJOMJ7SL-FPG8T_pad-11" x="124030" y="-96225"/><use xlink:href="#hyeU-NIJOMJ7SL-FPG8T_pad-11" x="126570" y="-96225"/><use xlink:href="#hyeU-NIJOMJ7SL-FPG8T_pad-11" x="129110" y="-96225"/><use xlink:href="#hyeU-NIJOMJ7SL-FPG8T_pad-25" x="60250" y="-55000"/><use xlink:href="#hyeU-NIJOMJ7SL-FPG8T_pad-25" x="60250" y="-53000"/><use xlink:href="#hyeU-NIJOMJ7SL-FPG8T_pad-10" x="94275" y="-106000"/><use xlink:href="#hyeU-NIJOMJ7SL-FPG8T_pad-11" x="94275" y="-103460"/><use xlink:href="#hyeU-NIJOMJ7SL-FPG8T_pad-11" x="94275" y="-100920"/><use xlink:href="#hyeU-NIJOMJ7SL-FPG8T_pad-11" x="94275" y="-98380"/><use xlink:href="#hyeU-NIJOMJ7SL-FPG8T_pad-11" x="94275" y="-95840"/><use xlink:href="#hyeU-NIJOMJ7SL-FPG8T_pad-11" x="94275" y="-93300"/><use xlink:href="#hyeU-NIJOMJ7SL-FPG8T_pad-11" x="94275" y="-90760"/><use xlink:href="#hyeU-NIJOMJ7SL-FPG8T_pad-10" x="94285.786" y="-80512.893"/><use xlink:href="#hyeU-NIJOMJ7SL-FPG8T_pad-11" x="94285.786" y="-77972.893"/><use xlink:href="#hyeU-NIJOMJ7SL-FPG8T_pad-11" x="94285.786" y="-75432.893"/><use xlink:href="#hyeU-NIJOMJ7SL-FPG8T_pad-11" x="94285.786" y="-72892.893"/><use xlink:href="#hyeU-NIJOMJ7SL-FPG8T_pad-11" x="94285.786" y="-70352.893"/><use xlink:href="#hyeU-NIJOMJ7SL-FPG8T_pad-11" x="94285.786" y="-67812.893"/><use xlink:href="#hyeU-NIJOMJ7SL-FPG8T_pad-10" x="76300" y="-73000"/><use xlink:href="#hyeU-NIJOMJ7SL-FPG8T_pad-11" x="76300" y="-70460"/><use xlink:href="#hyeU-NIJOMJ7SL-FPG8T_pad-11" x="76300" y="-67920"/><use xlink:href="#hyeU-NIJOMJ7SL-FPG8T_pad-11" x="76300" y="-65380"/><use xlink:href="#hyeU-NIJOMJ7SL-FPG8T_pad-11" x="76300" y="-62840"/><use xlink:href="#hyeU-NIJOMJ7SL-FPG8T_pad-12" x="63750" y="-58000"/><use xlink:href="#hyeU-NIJOMJ7SL-FPG8T_pad-12" x="63750" y="-60000"/><use xlink:href="#hyeU-NIJOMJ7SL-FPG8T_pad-26" x="52880" y="-71610"/><use xlink:href="#hyeU-NIJOMJ7SL-FPG8T_pad-26" x="52880" y="-69070"/><use xlink:href="#hyeU-NIJOMJ7SL-FPG8T_pad-26" x="52880" y="-66530"/><use xlink:href="#hyeU-NIJOMJ7SL-FPG8T_pad-26" x="52880" y="-63990"/><use xlink:href="#hyeU-NIJOMJ7SL-FPG8T_pad-26" x="52880" y="-61450"/><use xlink:href="#hyeU-NIJOMJ7SL-FPG8T_pad-26" x="52880" y="-58910"/><use xlink:href="#hyeU-NIJOMJ7SL-FPG8T_pad-26" x="52880" y="-56370"/><use xlink:href="#hyeU-NIJOMJ7SL-FPG8T_pad-26" x="52880" y="-53830"/><use xlink:href="#hyeU-NIJOMJ7SL-FPG8T_pad-26" x="52880" y="-51290"/><use xlink:href="#hyeU-NIJOMJ7SL-FPG8T_pad-26" x="68120" y="-51290"/><use xlink:href="#hyeU-NIJOMJ7SL-FPG8T_pad-26" x="68120" y="-53830"/><use xlink:href="#hyeU-NIJOMJ7SL-FPG8T_pad-26" x="68120" y="-56370"/><use xlink:href="#hyeU-NIJOMJ7SL-FPG8T_pad-26" x="68120" y="-58910"/><use xlink:href="#hyeU-NIJOMJ7SL-FPG8T_pad-26" x="68120" y="-61450"/><use xlink:href="#hyeU-NIJOMJ7SL-FPG8T_pad-26" x="68120" y="-63990"/><use xlink:href="#hyeU-NIJOMJ7SL-FPG8T_pad-26" x="68120" y="-66530"/><use xlink:href="#hyeU-NIJOMJ7SL-FPG8T_pad-26" x="68120" y="-69070"/><use xlink:href="#hyeU-NIJOMJ7SL-FPG8T_pad-26" x="68120" y="-71610"/><use xlink:href="#hyeU-NIJOMJ7SL-FPG8T_pad-26" x="52880" y="-109710"/><use xlink:href="#hyeU-NIJOMJ7SL-FPG8T_pad-26" x="52880" y="-107170"/><use xlink:href="#hyeU-NIJOMJ7SL-FPG8T_pad-26" x="52880" y="-104630"/><use xlink:href="#hyeU-NIJOMJ7SL-FPG8T_pad-26" x="52880" y="-102090"/><use xlink:href="#hyeU-NIJOMJ7SL-FPG8T_pad-26" x="52880" y="-99550"/><use xlink:href="#hyeU-NIJOMJ7SL-FPG8T_pad-26" x="52880" y="-97010"/><use xlink:href="#hyeU-NIJOMJ7SL-FPG8T_pad-26" x="52880" y="-94470"/><use xlink:href="#hyeU-NIJOMJ7SL-FPG8T_pad-26" x="52880" y="-91930"/><use xlink:href="#hyeU-NIJOMJ7SL-FPG8T_pad-26" x="52880" y="-89390"/><use xlink:href="#hyeU-NIJOMJ7SL-FPG8T_pad-26" x="52880" y="-86850"/><use xlink:href="#hyeU-NIJOMJ7SL-FPG8T_pad-26" x="52880" y="-84310"/><use xlink:href="#hyeU-NIJOMJ7SL-FPG8T_pad-26" x="52880" y="-81770"/><use xlink:href="#hyeU-NIJOMJ7SL-FPG8T_pad-26" x="52880" y="-79230"/><use xlink:href="#hyeU-NIJOMJ7SL-FPG8T_pad-26" x="52880" y="-76690"/><use xlink:href="#hyeU-NIJOMJ7SL-FPG8T_pad-26" x="68120" y="-74150"/><use xlink:href="#hyeU-NIJOMJ7SL-FPG8T_pad-26" x="68120" y="-76690"/><use xlink:href="#hyeU-NIJOMJ7SL-FPG8T_pad-26" x="68120" y="-79230"/><use xlink:href="#hyeU-NIJOMJ7SL-FPG8T_pad-26" x="68120" y="-81770"/><use xlink:href="#hyeU-NIJOMJ7SL-FPG8T_pad-26" x="68120" y="-84310"/><use xlink:href="#hyeU-NIJOMJ7SL-FPG8T_pad-26" x="68120" y="-86850"/><use xlink:href="#hyeU-NIJOMJ7SL-FPG8T_pad-26" x="68120" y="-89390"/><use xlink:href="#hyeU-NIJOMJ7SL-FPG8T_pad-26" x="68120" y="-91930"/><use xlink:href="#hyeU-NIJOMJ7SL-FPG8T_pad-26" x="68120" y="-94470"/><use xlink:href="#hyeU-NIJOMJ7SL-FPG8T_pad-26" x="68120" y="-97010"/><use xlink:href="#hyeU-NIJOMJ7SL-FPG8T_pad-26" x="68120" y="-99550"/><use xlink:href="#hyeU-NIJOMJ7SL-FPG8T_pad-26" x="68120" y="-102090"/><use xlink:href="#hyeU-NIJOMJ7SL-FPG8T_pad-26" x="68120" y="-104630"/><use xlink:href="#hyeU-NIJOMJ7SL-FPG8T_pad-27" x="65070" y="-93200"/><use xlink:href="#hyeU-NIJOMJ7SL-FPG8T_pad-27" x="65070" y="-95740"/><use xlink:href="#hyeU-NIJOMJ7SL-FPG8T_pad-27" x="65070" y="-98280"/><use xlink:href="#hyeU-NIJOMJ7SL-FPG8T_pad-27" x="65070" y="-100820"/><use xlink:href="#hyeU-NIJOMJ7SL-FPG8T_pad-27" x="65070" y="-103360"/><use xlink:href="#hyeU-NIJOMJ7SL-FPG8T_pad-28" x="59330" y="-96740"/><use xlink:href="#hyeU-NIJOMJ7SL-FPG8T_pad-28" x="57330" y="-96740"/><use xlink:href="#hyeU-NIJOMJ7SL-FPG8T_pad-28" x="59330" y="-94740"/><use xlink:href="#hyeU-NIJOMJ7SL-FPG8T_pad-28" x="57330" y="-94740"/><use xlink:href="#hyeU-NIJOMJ7SL-FPG8T_pad-28" x="55330" y="-96740"/><use xlink:href="#hyeU-NIJOMJ7SL-FPG8T_pad-28" x="55330" y="-94740"/><use xlink:href="#hyeU-NIJOMJ7SL-FPG8T_pad-26" x="52880" y="-74150"/><use xlink:href="#hyeU-NIJOMJ7SL-FPG8T_pad-26" x="57960" y="-63990"/><use xlink:href="#hyeU-NIJOMJ7SL-FPG8T_pad-26" x="55420" y="-107170"/><use xlink:href="#hyeU-NIJOMJ7SL-FPG8T_pad-26" x="55420" y="-63990"/><use xlink:href="#hyeU-NIJOMJ7SL-FPG8T_pad-26" x="60500" y="-63990"/><use xlink:href="#hyeU-NIJOMJ7SL-FPG8T_pad-26" x="63040" y="-63990"/><use xlink:href="#hyeU-NIJOMJ7SL-FPG8T_pad-26" x="65580" y="-63990"/><use xlink:href="#hyeU-NIJOMJ7SL-FPG8T_pad-26" x="68120" y="-107170"/><use xlink:href="#hyeU-NIJOMJ7SL-FPG8T_pad-26" x="68120" y="-109710"/></g></svg>