<svg version="1.1" xmlns="http://www.w3.org/2000/svg" xmlns:xlink="http://www.w3.org/1999/xlink" stroke-linecap="round" stroke-linejoin="round" stroke-width="0" fill-rule="evenodd" width="104.7mm" height="90.54666999999999mm" viewBox="47850 -140496.67 104700 90546.67" id="qaGzYtvezLZlxmJh8Orv"><g transform="translate(0,-190446.67000000004) scale(1,-1)" fill="currentColor" stroke="currentColor"><path d="M 51000 -50000 A 1000 1000 0 0 1 50000 -51000 M 151500 -111000 A 1000 1000 0 0 1 152500 -110000 M 51000 -111000 151500 -111000 M 151500 -50000 51000 -50000 M 50000 -110000 A 1000 1000 0 0 1 51000 -111000 M 152500 -51000 A 1000 1000 0 0 1 151500 -50000 M 50000 -51000 50000 -110000 M 152500 -110000 152500 -51000" fill="none" stroke-width="100"/><path d="M 54830 -66785 55230 -67185 M 55230 -66785 54830 -67185 M 54830 -74405 55230 -74805 M 55230 -74405 54830 -74805 M 54830 -87105 55230 -87505 M 55230 -87105 54830 -87505 M 54830 -102345 55230 -102745 M 55230 -102345 54830 -102745 M 57370 -82025 57770 -82425 M 57770 -82025 57370 -82425 M 59910 -69325 60310 -69725 M 60310 -69325 59910 -69725 M 59910 -76945 60310 -77345 M 60310 -76945 59910 -77345 M 60300 -80200 60700 -80600 M 60700 -80200 60300 -80600 M 60300 -109800 60700 -110200 M 60700 -109800 60300 -110200 M 60800 -91300 61200 -91700 M 61200 -91300 60800 -91700 M 61300 -61800 61700 -62200 M 61700 -61800 61300 -62200 M 61300 -66000 61700 -66400 M 61700 -66000 61300 -66400 M 61375.5 -86800 61775.5 -87200 M 61775.5 -86800 61375.5 -87200 M 61900 -96800 62300 -97200 M 62300 -96800 61900 -97200 M 62300 -67200 62700 -67600 M 62700 -67200 62300 -67600 M 64812.3 -65724.5 65212.3 -66124.5 M 65212.3 -65724.5 64812.3 -66124.5 M 65800 -52800 66200 -53200 M 66200 -52800 65800 -53200 M 65800 -54800 66200 -55200 M 66200 -54800 65800 -55200 M 65800 -59800 66200 -60200 M 66200 -59800 65800 -60200 M 65800 -89300 66200 -89700 M 66200 -89300 65800 -89700 M 65900 -76600 66300 -77000 M 66300 -76600 65900 -77000 M 66500 -61600 66900 -62000 M 66900 -61600 66500 -62000 M 66700 -80200 67100 -80600 M 67100 -80200 66700 -80600 M 69900 -59200 70300 -59600 M 70300 -59200 69900 -59600 M 70070 -71865 70470 -72265 M 70470 -71865 70070 -72265 M 70070 -97265 70470 -97665 M 70470 -97265 70070 -97665 M 71300 -58200 71700 -58600 M 71700 -58200 71300 -58600 M 72300 -62000 72700 -62400 M 72700 -62000 72300 -62400 M 72500 -58200 72900 -58600 M 72900 -58200 72500 -58600 M 72610 -76945 73010 -77345 M 73010 -76945 72610 -77345 M 73900 -58200 74300 -58600 M 74300 -58200 73900 -58600 M 75050 -76050 75450 -76450 M 75450 -76050 75050 -76450 M 80230 -64245 80630 -64645 M 80630 -64245 80230 -64645 M 80230 -74405 80630 -74805 M 80630 -74405 80230 -74805 M 80230 -82025 80630 -82425 M 80630 -82025 80230 -82425 M 80230 -104885 80630 -105285 M 80630 -104885 80230 -105285 M 80300 -100550 80700 -100950 M 80700 -100550 80300 -100950 M 82770 -69325 83170 -69725 M 83170 -69325 82770 -69725 M 83550 -55050 83950 -55450 M 83950 -55050 83550 -55450 M 85310 -76945 85710 -77345 M 85710 -76945 85310 -77345 M 85310 -84565 85710 -84965 M 85710 -84565 85310 -84965 M 85310 -97265 85710 -97665 M 85710 -97265 85310 -97665 M 87850 -54085 88250 -54485 M 88250 -54085 87850 -54485 M 87850 -64245 88250 -64645 M 88250 -64245 87850 -64645 M 89700 -87200 90100 -87600 M 90100 -87200 89700 -87600 M 89900 -89400 90300 -89800 M 90300 -89400 89900 -89800 M 90390 -69325 90790 -69725 M 90790 -69325 90390 -69725 M 90390 -79485 90790 -79885 M 90790 -79485 90390 -79885 M 90390 -99805 90790 -100205 M 90790 -99805 90390 -100205 M 93900 -60000 94300 -60400 M 94300 -60000 93900 -60400 M 93900 -87200 94300 -87600 M 94300 -87200 93900 -87600 M 94700 -61000 95100 -61400 M 95100 -61000 94700 -61400 M 98010 -56625 98410 -57025 M 98410 -56625 98010 -57025 M 98010 -71865 98410 -72265 M 98410 -71865 98010 -72265 M 98010 -79485 98410 -79885 M 98410 -79485 98010 -79885 M 98010 -89645 98410 -90045 M 98410 -89645 98010 -90045 M 98010 -97265 98410 -97665 M 98410 -97265 98010 -97665 M 100550 -107425 100950 -107825 M 100950 -107425 100550 -107825 M 105630 -66785 106030 -67185 M 106030 -66785 105630 -67185 M 105630 -82025 106030 -82425 M 106030 -82025 105630 -82425 M 105630 -89645 106030 -90045 M 106030 -89645 105630 -90045 M 108170 -56625 108570 -57025 M 108570 -56625 108170 -57025 M 108170 -94725 108570 -95125 M 108570 -94725 108170 -95125 M 108170 -102345 108570 -102745 M 108570 -102345 108170 -102745 M 108483 -68600 108883 -69000 M 108883 -68600 108483 -69000 M 110710 -51545 111110 -51945 M 111110 -51545 110710 -51945 M 110710 -76945 111110 -77345 M 111110 -76945 110710 -77345 M 110710 -84565 111110 -84965 M 111110 -84565 110710 -84965 M 113250 -71865 113650 -72265 M 113650 -71865 113250 -72265 M 113250 -89645 113650 -90045 M 113650 -89645 113250 -90045 M 113250 -97265 113650 -97665 M 113650 -97265 113250 -97665 M 115790 -54085 116190 -54485 M 116190 -54085 115790 -54485 M 115790 -66785 116190 -67185 M 116190 -66785 115790 -67185 M 115790 -79485 116190 -79885 M 116190 -79485 115790 -79885 M 115790 -107425 116190 -107825 M 116190 -107425 115790 -107825 M 118330 -74405 118730 -74805 M 118730 -74405 118330 -74805 M 118330 -84565 118730 -84965 M 118730 -84565 118330 -84965 M 118330 -92185 118730 -92585 M 118730 -92185 118330 -92585 M 120870 -51545 121270 -51945 M 121270 -51545 120870 -51945 M 120870 -104885 121270 -105285 M 121270 -104885 120870 -105285 M 123410 -56625 123810 -57025 M 123810 -56625 123410 -57025 M 123410 -69325 123810 -69725 M 123810 -69325 123410 -69725 M 123410 -76945 123810 -77345 M 123810 -76945 123410 -77345 M 123410 -87105 123810 -87505 M 123810 -87105 123410 -87505 M 125950 -107425 126350 -107825 M 126350 -107425 125950 -107825 M 128490 -51545 128890 -51945 M 128890 -51545 128490 -51945 M 128490 -71865 128890 -72265 M 128890 -71865 128490 -72265 M 128490 -79485 128890 -79885 M 128890 -79485 128490 -79885 M 128490 -89645 128890 -90045 M 128890 -89645 128490 -90045 M 131030 -56625 131430 -57025 M 131430 -56625 131030 -57025 M 131030 -64245 131430 -64645 M 131430 -64245 131030 -64645 M 131030 -84565 131430 -84965 M 131430 -84565 131030 -84965 M 131030 -94725 131430 -95125 M 131430 -94725 131030 -95125 M 131030 -104885 131430 -105285 M 131430 -104885 131030 -105285 M 133570 -69325 133970 -69725 M 133970 -69325 133570 -69725 M 133570 -76945 133970 -77345 M 133970 -76945 133570 -77345 M 133570 -99805 133970 -100205 M 133970 -99805 133570 -100205 M 136110 -51545 136510 -51945 M 136510 -51545 136110 -51945 M 136110 -59165 136510 -59565 M 136510 -59165 136110 -59565 M 136110 -82025 136510 -82425 M 136510 -82025 136110 -82425 M 136110 -89645 136510 -90045 M 136510 -89645 136110 -90045 M 136110 -107425 136510 -107825 M 136510 -107425 136110 -107825 M 138650 -64245 139050 -64645 M 139050 -64245 138650 -64645 M 138650 -71865 139050 -72265 M 139050 -71865 138650 -72265 M 138650 -94725 139050 -95125 M 139050 -94725 138650 -95125 M 138650 -102345 139050 -102745 M 139050 -102345 138650 -102745 M 141190 -54085 141590 -54485 M 141590 -54085 141190 -54485 M 141190 -76945 141590 -77345 M 141590 -76945 141190 -77345 M 141190 -84565 141590 -84965 M 141590 -84565 141190 -84965 M 143730 -59165 144130 -59565 M 144130 -59165 143730 -59565 M 143730 -66785 144130 -67185 M 144130 -66785 143730 -67185 M 143730 -89645 144130 -90045 M 144130 -89645 143730 -90045 M 143730 -97265 144130 -97665 M 144130 -97265 143730 -97665 M 143730 -104885 144130 -105285 M 144130 -104885 143730 -105285 M 146270 -51545 146670 -51945 M 146670 -51545 146270 -51945 M 146270 -71865 146670 -72265 M 146670 -71865 146270 -72265 M 146270 -79485 146670 -79885 M 146670 -79485 146270 -79885 M 148810 -56625 149210 -57025 M 149210 -56625 148810 -57025 M 148810 -64245 149210 -64645 M 149210 -64245 148810 -64645 M 148810 -84565 149210 -84965 M 149210 -84565 148810 -84965 M 148810 -92185 149210 -92585 M 149210 -92185 148810 -92585 M 148810 -99805 149210 -100205 M 149210 -99805 148810 -100205 M 148810 -107425 149210 -107825 M 149210 -107425 148810 -107825" fill="none" stroke-width="40"/><path d="M 55680 -94740 A 350 350 0 0 1 54980 -94740 350 350 0 0 1 55680 -94740 M 55680 -96740 A 350 350 0 0 1 54980 -96740 350 350 0 0 1 55680 -96740 M 57680 -94740 A 350 350 0 0 1 56980 -94740 350 350 0 0 1 57680 -94740 M 57680 -96740 A 350 350 0 0 1 56980 -96740 350 350 0 0 1 57680 -96740 M 59680 -94740 A 350 350 0 0 1 58980 -94740 350 350 0 0 1 59680 -94740 M 59680 -96740 A 350 350 0 0 1 58980 -96740 350 350 0 0 1 59680 -96740" fill="none" stroke-width="70"/><path d="M 65070 -92825 65070 -93575 M 64695 -93200 65445 -93200 M 65070 -95365 65070 -96115 M 64695 -95740 65445 -95740 M 65070 -97905 65070 -98655 M 64695 -98280 65445 -98280 M 65070 -100445 65070 -101195 M 64695 -100820 65445 -100820 M 65070 -102985 65070 -103735 M 64695 -103360 65445 -103360 M 94450 -54025 94450 -54775 M 94075 -54400 94825 -54400 M 94450 -56025 94450 -56775 M 94075 -56400 94825 -56400" fill="none" stroke-width="75"/><path d="M 53162.85 -51572.85 53162.85 -51007.16 52597.16 -51007.16 52597.16 -51572.85 53162.85 -51572.85 M 53162.85 -54112.85 53162.85 -53547.16 52597.16 -53547.16 52597.16 -54112.85 53162.85 -54112.85 M 53162.85 -56652.84 53162.85 -56087.15 52597.16 -56087.15 52597.16 -56652.84 53162.85 -56652.84 M 53162.85 -59192.84 53162.85 -58627.15 52597.16 -58627.15 52597.16 -59192.84 53162.85 -59192.84 M 53162.85 -61732.84 53162.85 -61167.15 52597.16 -61167.15 52597.16 -61732.84 53162.85 -61732.84 M 53162.85 -64272.84 53162.85 -63707.15 52597.16 -63707.15 52597.16 -64272.84 53162.85 -64272.84 M 53162.85 -66812.84 53162.85 -66247.15 52597.16 -66247.15 52597.16 -66812.84 53162.85 -66812.84 M 53162.85 -69352.84 53162.85 -68787.15 52597.16 -68787.15 52597.16 -69352.84 53162.85 -69352.84 M 53162.85 -71892.84 53162.85 -71327.15 52597.16 -71327.15 52597.16 -71892.84 53162.85 -71892.84 M 53162.85 -74432.84 53162.85 -73867.15 52597.16 -73867.15 52597.16 -74432.84 53162.85 -74432.84 M 53162.85 -76972.84 53162.85 -76407.15 52597.16 -76407.15 52597.16 -76972.84 53162.85 -76972.84 M 53162.85 -79512.84 53162.85 -78947.15 52597.16 -78947.15 52597.16 -79512.84 53162.85 -79512.84 M 53162.85 -82052.84 53162.85 -81487.15 52597.16 -81487.15 52597.16 -82052.84 53162.85 -82052.84 M 53162.85 -84592.85 53162.85 -84027.16 52597.16 -84027.16 52597.16 -84592.85 53162.85 -84592.85 M 53162.85 -87132.85 53162.85 -86567.16 52597.16 -86567.16 52597.16 -87132.85 53162.85 -87132.85 M 53162.85 -89672.85 53162.85 -89107.16 52597.16 -89107.16 52597.16 -89672.85 53162.85 -89672.85 M 53162.85 -92212.85 53162.85 -91647.16 52597.16 -91647.16 52597.16 -92212.85 53162.85 -92212.85 M 53162.85 -94752.85 53162.85 -94187.16 52597.16 -94187.16 52597.16 -94752.85 53162.85 -94752.85 M 53162.85 -97292.85 53162.85 -96727.16 52597.16 -96727.16 52597.16 -97292.85 53162.85 -97292.85 M 53162.85 -99832.85 53162.85 -99267.16 52597.16 -99267.16 52597.16 -99832.85 53162.85 -99832.85 M 53162.85 -102372.85 53162.85 -101807.16 52597.16 -101807.16 52597.16 -102372.85 53162.85 -102372.85 M 53162.85 -104912.85 53162.85 -104347.16 52597.16 -104347.16 52597.16 -104912.85 53162.85 -104912.85 M 53162.85 -107452.85 53162.85 -106887.16 52597.16 -106887.16 52597.16 -107452.85 53162.85 -107452.85 M 53162.85 -109992.85 53162.85 -109427.16 52597.16 -109427.16 52597.16 -109992.85 53162.85 -109992.85 M 55702.85 -64272.84 55702.85 -63707.15 55137.16 -63707.15 55137.16 -64272.84 55702.85 -64272.84 M 55702.85 -107452.85 55702.85 -106887.16 55137.16 -106887.16 55137.16 -107452.85 55702.85 -107452.85 M 58242.84 -64272.84 58242.84 -63707.15 57677.15 -63707.15 57677.15 -64272.84 58242.84 -64272.84 M 60782.84 -64272.84 60782.84 -63707.15 60217.15 -63707.15 60217.15 -64272.84 60782.84 -64272.84 M 63322.84 -64272.84 63322.84 -63707.15 62757.15 -63707.15 62757.15 -64272.84 63322.84 -64272.84 M 65862.84 -64272.84 65862.84 -63707.15 65297.15 -63707.15 65297.15 -64272.84 65862.84 -64272.84 M 68402.84 -51572.85 68402.84 -51007.16 67837.15 -51007.16 67837.15 -51572.85 68402.84 -51572.85 M 68402.84 -54112.85 68402.84 -53547.16 67837.15 -53547.16 67837.15 -54112.85 68402.84 -54112.85 M 68402.84 -56652.84 68402.84 -56087.15 67837.15 -56087.15 67837.15 -56652.84 68402.84 -56652.84 M 68402.84 -59192.84 68402.84 -58627.15 67837.15 -58627.15 67837.15 -59192.84 68402.84 -59192.84 M 68402.84 -61732.84 68402.84 -61167.15 67837.15 -61167.15 67837.15 -61732.84 68402.84 -61732.84 M 68402.84 -64272.84 68402.84 -63707.15 67837.15 -63707.15 67837.15 -64272.84 68402.84 -64272.84 M 68402.84 -66812.84 68402.84 -66247.15 67837.15 -66247.15 67837.15 -66812.84 68402.84 -66812.84 M 68402.84 -69352.84 68402.84 -68787.15 67837.15 -68787.15 67837.15 -69352.84 68402.84 -69352.84 M 68402.84 -71892.84 68402.84 -71327.15 67837.15 -71327.15 67837.15 -71892.84 68402.84 -71892.84 M 68402.84 -74432.84 68402.84 -73867.15 67837.15 -73867.15 67837.15 -74432.84 68402.84 -74432.84 M 68402.84 -76972.84 68402.84 -76407.15 67837.15 -76407.15 67837.15 -76972.84 68402.84 -76972.84 M 68402.84 -79512.84 68402.84 -78947.15 67837.15 -78947.15 67837.15 -79512.84 68402.84 -79512.84 M 68402.84 -82052.84 68402.84 -81487.15 67837.15 -81487.15 67837.15 -82052.84 68402.84 -82052.84 M 68402.84 -84592.85 68402.84 -84027.16 67837.15 -84027.16 67837.15 -84592.85 68402.84 -84592.85 M 68402.84 -87132.85 68402.84 -86567.16 67837.15 -86567.16 67837.15 -87132.85 68402.84 -87132.85 M 68402.84 -89672.85 68402.84 -89107.16 67837.15 -89107.16 67837.15 -89672.85 68402.84 -89672.85 M 68402.84 -92212.85 68402.84 -91647.16 67837.15 -91647.16 67837.15 -92212.85 68402.84 -92212.85 M 68402.84 -94752.85 68402.84 -94187.16 67837.15 -94187.16 67837.15 -94752.85 68402.84 -94752.85 M 68402.84 -97292.85 68402.84 -96727.16 67837.15 -96727.16 67837.15 -97292.85 68402.84 -97292.85 M 68402.84 -99832.85 68402.84 -99267.16 67837.15 -99267.16 67837.15 -99832.85 68402.84 -99832.85 M 68402.84 -102372.85 68402.84 -101807.16 67837.15 -101807.16 67837.15 -102372.85 68402.84 -102372.85 M 68402.84 -104912.85 68402.84 -104347.16 67837.15 -104347.16 67837.15 -104912.85 68402.84 -104912.85 M 68402.84 -107452.85 68402.84 -106887.16 67837.15 -106887.16 67837.15 -107452.85 68402.84 -107452.85 M 68402.84 -109992.85 68402.84 -109427.16 67837.15 -109427.16 67837.15 -109992.85 68402.84 -109992.85" fill="none" stroke-width="80"/><path d="M 77055 -95000 77505 -94550 77055 -94100 76605 -94550 77055 -95000 M 78325 -92460 78775 -92010 78325 -91560 77875 -92010 78325 -92460 M 79595 -95000 80045 -94550 79595 -94100 79145 -94550 79595 -95000 M 80865 -92460 81315 -92010 80865 -91560 80415 -92010 80865 -92460 M 82135 -95000 82585 -94550 82135 -94100 81685 -94550 82135 -95000 M 83405 -92460 83855 -92010 83405 -91560 82955 -92010 83405 -92460 M 84675 -95000 85125 -94550 84675 -94100 84225 -94550 84675 -95000 M 85945 -92460 86395 -92010 85945 -91560 85495 -92010 85945 -92460" fill="none" stroke-width="90"/><path d="M 75630 -52750 76630 -53750 M 76630 -52750 75630 -53750 M 76630 -53250 A 500 500 0 0 1 75630 -53250 500 500 0 0 1 76630 -53250 M 75775 -77930 76775 -78930 M 76775 -77930 75775 -78930 M 76775 -78430 A 500 500 0 0 1 75775 -78430 500 500 0 0 1 76775 -78430 M 75775 -80470 76775 -81470 M 76775 -80470 75775 -81470 M 76775 -80970 A 500 500 0 0 1 75775 -80970 500 500 0 0 1 76775 -80970 M 75775 -83010 76775 -84010 M 76775 -83010 75775 -84010 M 76775 -83510 A 500 500 0 0 1 75775 -83510 500 500 0 0 1 76775 -83510 M 75775 -85550 76775 -86550 M 76775 -85550 75775 -86550 M 76775 -86050 A 500 500 0 0 1 75775 -86050 500 500 0 0 1 76775 -86050 M 75800 -62340 76800 -63340 M 76800 -62340 75800 -63340 M 76800 -62840 A 500 500 0 0 1 75800 -62840 500 500 0 0 1 76800 -62840 M 75800 -64880 76800 -65880 M 76800 -64880 75800 -65880 M 76800 -65380 A 500 500 0 0 1 75800 -65380 500 500 0 0 1 76800 -65380 M 75800 -67420 76800 -68420 M 76800 -67420 75800 -68420 M 76800 -67920 A 500 500 0 0 1 75800 -67920 500 500 0 0 1 76800 -67920 M 75800 -69960 76800 -70960 M 76800 -69960 75800 -70960 M 76800 -70460 A 500 500 0 0 1 75800 -70460 500 500 0 0 1 76800 -70460 M 75800 -72500 76800 -73500 M 76800 -72500 75800 -73500 M 76800 -73000 A 500 500 0 0 1 75800 -73000 500 500 0 0 1 76800 -73000 M 78170 -52750 79170 -53750 M 79170 -52750 78170 -53750 M 79170 -53250 A 500 500 0 0 1 78170 -53250 500 500 0 0 1 79170 -53250 M 80710 -52750 81710 -53750 M 81710 -52750 80710 -53750 M 81710 -53250 A 500 500 0 0 1 80710 -53250 500 500 0 0 1 81710 -53250 M 83250 -52750 84250 -53750 M 84250 -52750 83250 -53750 M 84250 -53250 A 500 500 0 0 1 83250 -53250 500 500 0 0 1 84250 -53250 M 85790 -52750 86790 -53750 M 86790 -52750 85790 -53750 M 86790 -53250 A 500 500 0 0 1 85790 -53250 500 500 0 0 1 86790 -53250 M 93775 -90260 94775 -91260 M 94775 -90260 93775 -91260 M 94775 -90760 A 500 500 0 0 1 93775 -90760 500 500 0 0 1 94775 -90760 M 93775 -92800 94775 -93800 M 94775 -92800 93775 -93800 M 94775 -93300 A 500 500 0 0 1 93775 -93300 500 500 0 0 1 94775 -93300 M 93775 -95340 94775 -96340 M 94775 -95340 93775 -96340 M 94775 -95840 A 500 500 0 0 1 93775 -95840 500 500 0 0 1 94775 -95840 M 93775 -97880 94775 -98880 M 94775 -97880 93775 -98880 M 94775 -98380 A 500 500 0 0 1 93775 -98380 500 500 0 0 1 94775 -98380 M 93775 -100420 94775 -101420 M 94775 -100420 93775 -101420 M 94775 -100920 A 500 500 0 0 1 93775 -100920 500 500 0 0 1 94775 -100920 M 93775 -102960 94775 -103960 M 94775 -102960 93775 -103960 M 94775 -103460 A 500 500 0 0 1 93775 -103460 500 500 0 0 1 94775 -103460 M 93775 -105500 94775 -106500 M 94775 -105500 93775 -106500 M 94775 -106000 A 500 500 0 0 1 93775 -106000 500 500 0 0 1 94775 -106000 M 93785.79 -67312.89 94785.79 -68312.89 M 94785.79 -67312.89 93785.79 -68312.89 M 94785.79 -67812.89 A 500 500 0 0 1 93785.79 -67812.89 500 500 0 0 1 94785.79 -67812.89 M 93785.79 -69852.89 94785.79 -70852.89 M 94785.79 -69852.89 93785.79 -70852.89 M 94785.79 -70352.89 A 500 500 0 0 1 93785.79 -70352.89 500 500 0 0 1 94785.79 -70352.89 M 93785.79 -72392.89 94785.79 -73392.89 M 94785.79 -72392.89 93785.79 -73392.89 M 94785.79 -72892.89 A 500 500 0 0 1 93785.79 -72892.89 500 500 0 0 1 94785.79 -72892.89 M 93785.79 -74932.89 94785.79 -75932.89 M 94785.79 -74932.89 93785.79 -75932.89 M 94785.79 -75432.89 A 500 500 0 0 1 93785.79 -75432.89 500 500 0 0 1 94785.79 -75432.89 M 93785.79 -77472.89 94785.79 -78472.89 M 94785.79 -77472.89 93785.79 -78472.89 M 94785.79 -77972.89 A 500 500 0 0 1 93785.79 -77972.89 500 500 0 0 1 94785.79 -77972.89 M 93785.79 -80012.89 94785.79 -81012.89 M 94785.79 -80012.89 93785.79 -81012.89 M 94785.79 -80512.89 A 500 500 0 0 1 93785.79 -80512.89 500 500 0 0 1 94785.79 -80512.89 M 105000 -98620.79 106000 -99620.79 M 106000 -98620.79 105000 -99620.79 M 106000 -99120.79 A 500 500 0 0 1 105000 -99120.79 500 500 0 0 1 106000 -99120.79 M 105000 -103620.79 106000 -104620.79 M 106000 -103620.79 105000 -104620.79 M 106000 -104120.79 A 500 500 0 0 1 105000 -104120.79 500 500 0 0 1 106000 -104120.79 M 115880 -60500 116880 -61500 M 116880 -60500 115880 -61500 M 116880 -61000 A 500 500 0 0 1 115880 -61000 500 500 0 0 1 116880 -61000 M 115900 -100500 116900 -101500 M 116900 -100500 115900 -101500 M 116900 -101000 A 500 500 0 0 1 115900 -101000 500 500 0 0 1 116900 -101000 M 118420 -60500 119420 -61500 M 119420 -60500 118420 -61500 M 119420 -61000 A 500 500 0 0 1 118420 -61000 500 500 0 0 1 119420 -61000 M 118440 -100500 119440 -101500 M 119440 -100500 118440 -101500 M 119440 -101000 A 500 500 0 0 1 118440 -101000 500 500 0 0 1 119440 -101000 M 118450 -65525 119450 -66525 M 119450 -65525 118450 -66525 M 119450 -66025 A 500 500 0 0 1 118450 -66025 500 500 0 0 1 119450 -66025 M 118450 -95725 119450 -96725 M 119450 -95725 118450 -96725 M 119450 -96225 A 500 500 0 0 1 118450 -96225 500 500 0 0 1 119450 -96225 M 120960 -60500 121960 -61500 M 121960 -60500 120960 -61500 M 121960 -61000 A 500 500 0 0 1 120960 -61000 500 500 0 0 1 121960 -61000 M 120980 -100500 121980 -101500 M 121980 -100500 120980 -101500 M 121980 -101000 A 500 500 0 0 1 120980 -101000 500 500 0 0 1 121980 -101000 M 120990 -65525 121990 -66525 M 121990 -65525 120990 -66525 M 121990 -66025 A 500 500 0 0 1 120990 -66025 500 500 0 0 1 121990 -66025 M 120990 -95725 121990 -96725 M 121990 -95725 120990 -96725 M 121990 -96225 A 500 500 0 0 1 120990 -96225 500 500 0 0 1 121990 -96225 M 123500 -60500 124500 -61500 M 124500 -60500 123500 -61500 M 124500 -61000 A 500 500 0 0 1 123500 -61000 500 500 0 0 1 124500 -61000 M 123520 -100500 124520 -101500 M 124520 -100500 123520 -101500 M 124520 -101000 A 500 500 0 0 1 123520 -101000 500 500 0 0 1 124520 -101000 M 123530 -65525 124530 -66525 M 124530 -65525 123530 -66525 M 124530 -66025 A 500 500 0 0 1 123530 -66025 500 500 0 0 1 124530 -66025 M 123530 -95725 124530 -96725 M 124530 -95725 123530 -96725 M 124530 -96225 A 500 500 0 0 1 123530 -96225 500 500 0 0 1 124530 -96225 M 126040 -60500 127040 -61500 M 127040 -60500 126040 -61500 M 127040 -61000 A 500 500 0 0 1 126040 -61000 500 500 0 0 1 127040 -61000 M 126060 -100500 127060 -101500 M 127060 -100500 126060 -101500 M 127060 -101000 A 500 500 0 0 1 126060 -101000 500 500 0 0 1 127060 -101000 M 126070 -65525 127070 -66525 M 127070 -65525 126070 -66525 M 127070 -66025 A 500 500 0 0 1 126070 -66025 500 500 0 0 1 127070 -66025 M 126070 -95725 127070 -96725 M 127070 -95725 126070 -96725 M 127070 -96225 A 500 500 0 0 1 126070 -96225 500 500 0 0 1 127070 -96225 M 128580 -60500 129580 -61500 M 129580 -60500 128580 -61500 M 129580 -61000 A 500 500 0 0 1 128580 -61000 500 500 0 0 1 129580 -61000 M 128600 -100500 129600 -101500 M 129600 -100500 128600 -101500 M 129600 -101000 A 500 500 0 0 1 128600 -101000 500 500 0 0 1 129600 -101000 M 128610 -65525 129610 -66525 M 129610 -65525 128610 -66525 M 129610 -66025 A 500 500 0 0 1 128610 -66025 500 500 0 0 1 129610 -66025 M 128610 -95725 129610 -96725 M 129610 -95725 128610 -96725 M 129610 -96225 A 500 500 0 0 1 128610 -96225 500 500 0 0 1 129610 -96225 M 131120 -60500 132120 -61500 M 132120 -60500 131120 -61500 M 132120 -61000 A 500 500 0 0 1 131120 -61000 500 500 0 0 1 132120 -61000 M 131140 -100500 132140 -101500 M 132140 -100500 131140 -101500 M 132140 -101000 A 500 500 0 0 1 131140 -101000 500 500 0 0 1 132140 -101000" fill="none" stroke-width="100"/><path d="M 74665 -105470 75685 -106490 M 75685 -105470 74665 -106490 M 75175 -105470 75175 -106490 M 74665 -105980 75685 -105980 M 77205 -103770 78225 -104790 M 78225 -103770 77205 -104790 M 77715 -103770 77715 -104790 M 77205 -104280 78225 -104280 M 84775 -105470 85795 -106490 M 85795 -105470 84775 -106490 M 85285 -105470 85285 -106490 M 84775 -105980 85795 -105980 M 87315 -103770 88335 -104790 M 88335 -103770 87315 -104790 M 87825 -103770 87825 -104790 M 87315 -104280 88335 -104280" fill="none" stroke-width="102"/><path d="M 72825 -97050 74425 -98650 M 74425 -97050 72825 -98650 M 74190.69 -98415.69 74190.69 -97284.31 73059.31 -97284.31 73059.31 -98415.69 74190.69 -98415.69 M 88575 -97050 90175 -98650 M 90175 -97050 88575 -98650 M 89940.69 -98415.69 89940.69 -97284.31 88809.31 -97284.31 88809.31 -98415.69 89940.69 -98415.69" fill="none" stroke-width="160"/><path d="M 74160 -99275 77410 -102525 M 77410 -99275 74160 -102525 M 75785 -102525 77410 -100900 75785 -99275 74160 -100900 75785 -102525 M 85590 -99275 88840 -102525 M 88840 -99275 85590 -102525 M 87215 -102525 88840 -100900 87215 -99275 85590 -100900 87215 -102525" fill="none" stroke-width="325"/><path d="M 52526.19 -114154.76 52526.19 -112154.76 53002.38 -112154.76 53288.1 -112250 53478.57 -112440.48 53573.81 -112630.95 53669.05 -113011.9 53669.05 -113297.62 53573.81 -113678.57 53478.57 -113869.05 53288.1 -114059.52 53002.38 -114154.76 52526.19 -114154.76 M 54526.19 -114154.76 54526.19 -112821.43 M 54526.19 -113202.38 54621.43 -113011.9 54716.67 -112916.67 54907.14 -112821.43 55097.62 -112821.43 M 55764.29 -114154.76 55764.29 -112821.43 M 55764.29 -112154.76 55669.05 -112250 55764.29 -112345.24 55859.52 -112250 55764.29 -112154.76 55764.29 -112345.24 M 57002.38 -114154.76 56811.9 -114059.52 56716.67 -113869.05 56716.67 -112154.76 M 58050 -114154.76 57859.52 -114059.52 57764.28 -113869.05 57764.28 -112154.76 M 60335.71 -114154.76 60335.71 -112154.76 61002.38 -113583.33 61669.05 -112154.76 61669.05 -114154.76 M 63478.57 -114154.76 63478.57 -113107.14 63383.33 -112916.67 63192.86 -112821.43 62811.9 -112821.43 62621.43 -112916.67 M 63478.57 -114059.52 63288.09 -114154.76 62811.9 -114154.76 62621.43 -114059.52 62526.19 -113869.05 62526.19 -113678.57 62621.43 -113488.09 62811.9 -113392.86 63288.09 -113392.86 63478.57 -113297.62 M 64430.95 -112821.43 64430.95 -114821.43 M 64430.95 -112916.67 64621.43 -112821.43 65002.38 -112821.43 65192.86 -112916.67 65288.09 -113011.9 65383.33 -113202.38 65383.33 -113773.81 65288.09 -113964.28 65192.86 -114059.52 65002.38 -114154.76 64621.43 -114154.76 64430.95 -114059.52 M 66240.48 -113964.28 66335.71 -114059.52 66240.48 -114154.76 66145.24 -114059.52 66240.48 -113964.28 66240.48 -114154.76 M 66240.48 -112916.67 66335.71 -113011.9 66240.48 -113107.14 66145.24 -113011.9 66240.48 -112916.67 66240.48 -113107.14" fill="none" stroke-width="200"/><path d="M 49550 -117250 49950 -117650 M 49950 -117250 49550 -117650" fill="none" stroke-width="40"/><path d="M 52907.14 -116354.76 53097.62 -116354.76 53288.1 -116450 53383.33 -116545.24 53478.57 -116735.71 53573.81 -117116.67 53573.81 -117592.86 53478.57 -117973.81 53383.33 -118164.28 53288.1 -118259.52 53097.62 -118354.76 52907.14 -118354.76 52716.67 -118259.52 52621.43 -118164.28 52526.19 -117973.81 52430.95 -117592.86 52430.95 -117116.67 52526.19 -116735.71 52621.43 -116545.24 52716.67 -116450 52907.14 -116354.76 M 54430.95 -118164.28 54526.19 -118259.52 54430.95 -118354.76 54335.71 -118259.52 54430.95 -118164.28 54430.95 -118354.76 M 56240.48 -117021.43 56240.48 -118354.76 M 55764.29 -116259.52 55288.1 -117688.09 56526.19 -117688.09 M 57669.05 -116354.76 57859.52 -116354.76 58050 -116450 58145.24 -116545.24 58240.48 -116735.71 58335.71 -117116.67 58335.71 -117592.86 58240.48 -117973.81 58145.24 -118164.28 58050 -118259.52 57859.52 -118354.76 57669.05 -118354.76 57478.57 -118259.52 57383.33 -118164.28 57288.09 -117973.81 57192.86 -117592.86 57192.86 -117116.67 57288.09 -116735.71 57383.33 -116545.24 57478.57 -116450 57669.05 -116354.76 M 59573.81 -116354.76 59764.28 -116354.76 59954.76 -116450 60050 -116545.24 60145.24 -116735.71 60240.48 -117116.67 60240.48 -117592.86 60145.24 -117973.81 60050 -118164.28 59954.76 -118259.52 59764.28 -118354.76 59573.81 -118354.76 59383.33 -118259.52 59288.09 -118164.28 59192.86 -117973.81 59097.62 -117592.86 59097.62 -117116.67 59192.86 -116735.71 59288.09 -116545.24 59383.33 -116450 59573.81 -116354.76 M 61097.62 -118354.76 61097.62 -117021.43 M 61097.62 -117211.9 61192.86 -117116.67 61383.33 -117021.43 61669.05 -117021.43 61859.52 -117116.67 61954.76 -117307.14 61954.76 -118354.76 M 61954.76 -117307.14 62050 -117116.67 62240.48 -117021.43 62526.19 -117021.43 62716.67 -117116.67 62811.9 -117307.14 62811.9 -118354.76 M 63764.28 -118354.76 63764.28 -117021.43 M 63764.28 -117211.9 63859.52 -117116.67 64050 -117021.43 64335.71 -117021.43 64526.19 -117116.67 64621.43 -117307.14 64621.43 -118354.76 M 64621.43 -117307.14 64716.67 -117116.67 64907.14 -117021.43 65192.86 -117021.43 65383.33 -117116.67 65478.57 -117307.14 65478.57 -118354.76 M 69383.33 -116259.52 67669.05 -118830.95 M 71954.76 -116354.76 72145.24 -116354.76 72335.71 -116450 72430.95 -116545.24 72526.19 -116735.71 72621.43 -117116.67 72621.43 -117592.86 72526.19 -117973.81 72430.95 -118164.28 72335.71 -118259.52 72145.24 -118354.76 71954.76 -118354.76 71764.28 -118259.52 71669.05 -118164.28 71573.81 -117973.81 71478.57 -117592.86 71478.57 -117116.67 71573.81 -116735.71 71669.05 -116545.24 71764.28 -116450 71954.76 -116354.76 M 73478.57 -118164.28 73573.81 -118259.52 73478.57 -118354.76 73383.33 -118259.52 73478.57 -118164.28 73478.57 -118354.76 M 74811.9 -116354.76 75002.38 -116354.76 75192.86 -116450 75288.09 -116545.24 75383.33 -116735.71 75478.57 -117116.67 75478.57 -117592.86 75383.33 -117973.81 75288.09 -118164.28 75192.86 -118259.52 75002.38 -118354.76 74811.9 -118354.76 74621.43 -118259.52 74526.19 -118164.28 74430.95 -117973.81 74335.71 -117592.86 74335.71 -117116.67 74430.95 -116735.71 74526.19 -116545.24 74621.43 -116450 74811.9 -116354.76 M 77383.33 -118354.76 76240.48 -118354.76 M 76811.9 -118354.76 76811.9 -116354.76 76621.43 -116640.48 76430.95 -116830.95 76240.48 -116926.19 M 79192.86 -116354.76 78240.48 -116354.76 78145.24 -117307.14 78240.48 -117211.9 78430.95 -117116.67 78907.14 -117116.67 79097.62 -117211.9 79192.86 -117307.14 79288.09 -117497.62 79288.09 -117973.81 79192.86 -118164.28 79097.62 -118259.52 78907.14 -118354.76 78430.95 -118354.76 78240.48 -118259.52 78145.24 -118164.28 M 79954.76 -116354.76 81288.09 -116354.76 80430.95 -118354.76 M 81954.76 -116354.76 81954.76 -116735.71 M 82716.67 -116354.76 82716.67 -116735.71 M 85669.05 -119116.67 85573.81 -119021.43 85383.33 -118735.71 85288.1 -118545.24 85192.86 -118259.52 85097.62 -117783.33 85097.62 -117402.38 85192.86 -116926.19 85288.1 -116640.48 85383.33 -116450 85573.81 -116164.28 85669.05 -116069.05 M 87478.57 -118354.76 86335.71 -118354.76 M 86907.14 -118354.76 86907.14 -116354.76 86716.67 -116640.48 86526.19 -116830.95 86335.71 -116926.19 M 88240.48 -116545.24 88335.71 -116450 88526.19 -116354.76 89002.38 -116354.76 89192.86 -116450 89288.1 -116545.24 89383.33 -116735.71 89383.33 -116926.19 89288.1 -117211.9 88145.24 -118354.76 89383.33 -118354.76 M 90050 -116354.76 91288.1 -116354.76 90621.43 -117116.67 90907.14 -117116.67 91097.62 -117211.9 91192.86 -117307.14 91288.1 -117497.62 91288.1 -117973.81 91192.86 -118164.28 91097.62 -118259.52 90907.14 -118354.76 90335.71 -118354.76 90145.24 -118259.52 90050 -118164.28 M 93669.05 -118354.76 93669.05 -116354.76 M 94526.19 -118354.76 94526.19 -117307.14 94430.95 -117116.67 94240.48 -117021.43 93954.76 -117021.43 93764.29 -117116.67 93669.05 -117211.9 M 95764.29 -118354.76 95573.81 -118259.52 95478.57 -118164.28 95383.33 -117973.81 95383.33 -117402.38 95478.57 -117211.9 95573.81 -117116.67 95764.29 -117021.43 96050 -117021.43 96240.48 -117116.67 96335.71 -117211.9 96430.95 -117402.38 96430.95 -117973.81 96335.71 -118164.28 96240.48 -118259.52 96050 -118354.76 95764.29 -118354.76 M 97573.81 -118354.76 97383.33 -118259.52 97288.1 -118069.05 97288.1 -116354.76 M 99097.62 -118259.52 98907.14 -118354.76 98526.19 -118354.76 98335.71 -118259.52 98240.48 -118069.05 98240.48 -117307.14 98335.71 -117116.67 98526.19 -117021.43 98907.14 -117021.43 99097.62 -117116.67 99192.86 -117307.14 99192.86 -117497.62 98240.48 -117688.09 M 99954.76 -118259.52 100145.24 -118354.76 100526.19 -118354.76 100716.67 -118259.52 100811.9 -118069.05 100811.9 -117973.81 100716.67 -117783.33 100526.19 -117688.09 100240.48 -117688.09 100050 -117592.86 99954.76 -117402.38 99954.76 -117307.14 100050 -117116.67 100240.48 -117021.43 100526.19 -117021.43 100716.67 -117116.67 M 101478.57 -119116.67 101573.81 -119021.43 101764.29 -118735.71 101859.52 -118545.24 101954.76 -118259.52 102050 -117783.33 102050 -117402.38 101954.76 -116926.19 101859.52 -116640.48 101764.29 -116450 101573.81 -116164.28 101478.57 -116069.05" fill="none" stroke-width="200"/><path d="M 49950 -120090 A 350 350 0 0 1 49250 -120090 350 350 0 0 1 49950 -120090" fill="none" stroke-width="70"/><path d="M 52907.14 -118994.76 53097.62 -118994.76 53288.1 -119090 53383.33 -119185.24 53478.57 -119375.71 53573.81 -119756.67 53573.81 -120232.86 53478.57 -120613.81 53383.33 -120804.28 53288.1 -120899.52 53097.62 -120994.76 52907.14 -120994.76 52716.67 -120899.52 52621.43 -120804.28 52526.19 -120613.81 52430.95 -120232.86 52430.95 -119756.67 52526.19 -119375.71 52621.43 -119185.24 52716.67 -119090 52907.14 -118994.76 M 54430.95 -120804.28 54526.19 -120899.52 54430.95 -120994.76 54335.71 -120899.52 54430.95 -120804.28 54430.95 -120994.76 M 55192.86 -118994.76 56526.19 -118994.76 55669.05 -120994.76 M 57669.05 -118994.76 57859.52 -118994.76 58050 -119090 58145.24 -119185.24 58240.48 -119375.71 58335.71 -119756.67 58335.71 -120232.86 58240.48 -120613.81 58145.24 -120804.28 58050 -120899.52 57859.52 -120994.76 57669.05 -120994.76 57478.57 -120899.52 57383.33 -120804.28 57288.09 -120613.81 57192.86 -120232.86 57192.86 -119756.67 57288.09 -119375.71 57383.33 -119185.24 57478.57 -119090 57669.05 -118994.76 M 59573.81 -118994.76 59764.28 -118994.76 59954.76 -119090 60050 -119185.24 60145.24 -119375.71 60240.48 -119756.67 60240.48 -120232.86 60145.24 -120613.81 60050 -120804.28 59954.76 -120899.52 59764.28 -120994.76 59573.81 -120994.76 59383.33 -120899.52 59288.09 -120804.28 59192.86 -120613.81 59097.62 -120232.86 59097.62 -119756.67 59192.86 -119375.71 59288.09 -119185.24 59383.33 -119090 59573.81 -118994.76 M 61097.62 -120994.76 61097.62 -119661.43 M 61097.62 -119851.9 61192.86 -119756.67 61383.33 -119661.43 61669.05 -119661.43 61859.52 -119756.67 61954.76 -119947.14 61954.76 -120994.76 M 61954.76 -119947.14 62050 -119756.67 62240.48 -119661.43 62526.19 -119661.43 62716.67 -119756.67 62811.9 -119947.14 62811.9 -120994.76 M 63764.28 -120994.76 63764.28 -119661.43 M 63764.28 -119851.9 63859.52 -119756.67 64050 -119661.43 64335.71 -119661.43 64526.19 -119756.67 64621.43 -119947.14 64621.43 -120994.76 M 64621.43 -119947.14 64716.67 -119756.67 64907.14 -119661.43 65192.86 -119661.43 65383.33 -119756.67 65478.57 -119947.14 65478.57 -120994.76 M 69383.33 -118899.52 67669.05 -121470.95 M 71954.76 -118994.76 72145.24 -118994.76 72335.71 -119090 72430.95 -119185.24 72526.19 -119375.71 72621.43 -119756.67 72621.43 -120232.86 72526.19 -120613.81 72430.95 -120804.28 72335.71 -120899.52 72145.24 -120994.76 71954.76 -120994.76 71764.28 -120899.52 71669.05 -120804.28 71573.81 -120613.81 71478.57 -120232.86 71478.57 -119756.67 71573.81 -119375.71 71669.05 -119185.24 71764.28 -119090 71954.76 -118994.76 M 73478.57 -120804.28 73573.81 -120899.52 73478.57 -120994.76 73383.33 -120899.52 73478.57 -120804.28 73478.57 -120994.76 M 74811.9 -118994.76 75002.38 -118994.76 75192.86 -119090 75288.09 -119185.24 75383.33 -119375.71 75478.57 -119756.67 75478.57 -120232.86 75383.33 -120613.81 75288.09 -120804.28 75192.86 -120899.52 75002.38 -120994.76 74811.9 -120994.76 74621.43 -120899.52 74526.19 -120804.28 74430.95 -120613.81 74335.71 -120232.86 74335.71 -119756.67 74430.95 -119375.71 74526.19 -119185.24 74621.43 -119090 74811.9 -118994.76 M 76240.48 -119185.24 76335.71 -119090 76526.19 -118994.76 77002.38 -118994.76 77192.86 -119090 77288.09 -119185.24 77383.33 -119375.71 77383.33 -119566.19 77288.09 -119851.9 76145.24 -120994.76 77383.33 -120994.76 M 78050 -118994.76 79383.33 -118994.76 78526.19 -120994.76 M 81002.38 -118994.76 80621.43 -118994.76 80430.95 -119090 80335.71 -119185.24 80145.24 -119470.95 80050 -119851.9 80050 -120613.81 80145.24 -120804.28 80240.48 -120899.52 80430.95 -120994.76 80811.9 -120994.76 81002.38 -120899.52 81097.62 -120804.28 81192.86 -120613.81 81192.86 -120137.62 81097.62 -119947.14 81002.38 -119851.9 80811.9 -119756.67 80430.95 -119756.67 80240.48 -119851.9 80145.24 -119947.14 80050 -120137.62 M 81954.76 -118994.76 81954.76 -119375.71 M 82716.67 -118994.76 82716.67 -119375.71 M 85669.05 -121756.67 85573.81 -121661.43 85383.33 -121375.71 85288.1 -121185.24 85192.86 -120899.52 85097.62 -120423.33 85097.62 -120042.38 85192.86 -119566.19 85288.1 -119280.48 85383.33 -119090 85573.81 -118804.28 85669.05 -118709.05 M 87288.1 -118994.76 86907.14 -118994.76 86716.67 -119090 86621.43 -119185.24 86430.95 -119470.95 86335.71 -119851.9 86335.71 -120613.81 86430.95 -120804.28 86526.19 -120899.52 86716.67 -120994.76 87097.62 -120994.76 87288.1 -120899.52 87383.33 -120804.28 87478.57 -120613.81 87478.57 -120137.62 87383.33 -119947.14 87288.1 -119851.9 87097.62 -119756.67 86716.67 -119756.67 86526.19 -119851.9 86430.95 -119947.14 86335.71 -120137.62 M 89859.52 -120994.76 89859.52 -118994.76 M 90716.67 -120994.76 90716.67 -119947.14 90621.43 -119756.67 90430.95 -119661.43 90145.24 -119661.43 89954.76 -119756.67 89859.52 -119851.9 M 91954.76 -120994.76 91764.29 -120899.52 91669.05 -120804.28 91573.81 -120613.81 91573.81 -120042.38 91669.05 -119851.9 91764.29 -119756.67 91954.76 -119661.43 92240.48 -119661.43 92430.95 -119756.67 92526.19 -119851.9 92621.43 -120042.38 92621.43 -120613.81 92526.19 -120804.28 92430.95 -120899.52 92240.48 -120994.76 91954.76 -120994.76 M 93764.29 -120994.76 93573.81 -120899.52 93478.57 -120709.05 93478.57 -118994.76 M 95288.1 -120899.52 95097.62 -120994.76 94716.67 -120994.76 94526.19 -120899.52 94430.95 -120709.05 94430.95 -119947.14 94526.19 -119756.67 94716.67 -119661.43 95097.62 -119661.43 95288.1 -119756.67 95383.33 -119947.14 95383.33 -120137.62 94430.95 -120328.09 M 96145.24 -120899.52 96335.71 -120994.76 96716.67 -120994.76 96907.14 -120899.52 97002.38 -120709.05 97002.38 -120613.81 96907.14 -120423.33 96716.67 -120328.09 96430.95 -120328.09 96240.48 -120232.86 96145.24 -120042.38 96145.24 -119947.14 96240.48 -119756.67 96430.95 -119661.43 96716.67 -119661.43 96907.14 -119756.67 M 97669.05 -121756.67 97764.29 -121661.43 97954.76 -121375.71 98050 -121185.24 98145.24 -120899.52 98240.48 -120423.33 98240.48 -120042.38 98145.24 -119566.19 98050 -119280.48 97954.76 -119090 97764.29 -118804.28 97669.05 -118709.05" fill="none" stroke-width="200"/><path d="M 49575 -122355 49575 -123105 M 49200 -122730 49950 -122730" fill="none" stroke-width="75"/><path d="M 52907.14 -121634.76 53097.62 -121634.76 53288.1 -121730 53383.33 -121825.24 53478.57 -122015.71 53573.81 -122396.67 53573.81 -122872.86 53478.57 -123253.81 53383.33 -123444.28 53288.1 -123539.52 53097.62 -123634.76 52907.14 -123634.76 52716.67 -123539.52 52621.43 -123444.28 52526.19 -123253.81 52430.95 -122872.86 52430.95 -122396.67 52526.19 -122015.71 52621.43 -121825.24 52716.67 -121730 52907.14 -121634.76 M 54430.95 -123444.28 54526.19 -123539.52 54430.95 -123634.76 54335.71 -123539.52 54430.95 -123444.28 54430.95 -123634.76 M 55192.86 -121634.76 56526.19 -121634.76 55669.05 -123634.76 M 58240.48 -121634.76 57288.09 -121634.76 57192.86 -122587.14 57288.09 -122491.9 57478.57 -122396.67 57954.76 -122396.67 58145.24 -122491.9 58240.48 -122587.14 58335.71 -122777.62 58335.71 -123253.81 58240.48 -123444.28 58145.24 -123539.52 57954.76 -123634.76 57478.57 -123634.76 57288.09 -123539.52 57192.86 -123444.28 M 59573.81 -121634.76 59764.28 -121634.76 59954.76 -121730 60050 -121825.24 60145.24 -122015.71 60240.48 -122396.67 60240.48 -122872.86 60145.24 -123253.81 60050 -123444.28 59954.76 -123539.52 59764.28 -123634.76 59573.81 -123634.76 59383.33 -123539.52 59288.09 -123444.28 59192.86 -123253.81 59097.62 -122872.86 59097.62 -122396.67 59192.86 -122015.71 59288.09 -121825.24 59383.33 -121730 59573.81 -121634.76 M 61097.62 -123634.76 61097.62 -122301.43 M 61097.62 -122491.9 61192.86 -122396.67 61383.33 -122301.43 61669.05 -122301.43 61859.52 -122396.67 61954.76 -122587.14 61954.76 -123634.76 M 61954.76 -122587.14 62050 -122396.67 62240.48 -122301.43 62526.19 -122301.43 62716.67 -122396.67 62811.9 -122587.14 62811.9 -123634.76 M 63764.28 -123634.76 63764.28 -122301.43 M 63764.28 -122491.9 63859.52 -122396.67 64050 -122301.43 64335.71 -122301.43 64526.19 -122396.67 64621.43 -122587.14 64621.43 -123634.76 M 64621.43 -122587.14 64716.67 -122396.67 64907.14 -122301.43 65192.86 -122301.43 65383.33 -122396.67 65478.57 -122587.14 65478.57 -123634.76 M 69383.33 -121539.52 67669.05 -124110.95 M 71954.76 -121634.76 72145.24 -121634.76 72335.71 -121730 72430.95 -121825.24 72526.19 -122015.71 72621.43 -122396.67 72621.43 -122872.86 72526.19 -123253.81 72430.95 -123444.28 72335.71 -123539.52 72145.24 -123634.76 71954.76 -123634.76 71764.28 -123539.52 71669.05 -123444.28 71573.81 -123253.81 71478.57 -122872.86 71478.57 -122396.67 71573.81 -122015.71 71669.05 -121825.24 71764.28 -121730 71954.76 -121634.76 M 73478.57 -123444.28 73573.81 -123539.52 73478.57 -123634.76 73383.33 -123539.52 73478.57 -123444.28 73478.57 -123634.76 M 74811.9 -121634.76 75002.38 -121634.76 75192.86 -121730 75288.09 -121825.24 75383.33 -122015.71 75478.57 -122396.67 75478.57 -122872.86 75383.33 -123253.81 75288.09 -123444.28 75192.86 -123539.52 75002.38 -123634.76 74811.9 -123634.76 74621.43 -123539.52 74526.19 -123444.28 74430.95 -123253.81 74335.71 -122872.86 74335.71 -122396.67 74430.95 -122015.71 74526.19 -121825.24 74621.43 -121730 74811.9 -121634.76 M 76240.48 -121825.24 76335.71 -121730 76526.19 -121634.76 77002.38 -121634.76 77192.86 -121730 77288.09 -121825.24 77383.33 -122015.71 77383.33 -122206.19 77288.09 -122491.9 76145.24 -123634.76 77383.33 -123634.76 M 78335.71 -123634.76 78716.67 -123634.76 78907.14 -123539.52 79002.38 -123444.28 79192.86 -123158.57 79288.09 -122777.62 79288.09 -122015.71 79192.86 -121825.24 79097.62 -121730 78907.14 -121634.76 78526.19 -121634.76 78335.71 -121730 78240.48 -121825.24 78145.24 -122015.71 78145.24 -122491.9 78240.48 -122682.38 78335.71 -122777.62 78526.19 -122872.86 78907.14 -122872.86 79097.62 -122777.62 79192.86 -122682.38 79288.09 -122491.9 M 81097.62 -121634.76 80145.24 -121634.76 80050 -122587.14 80145.24 -122491.9 80335.71 -122396.67 80811.9 -122396.67 81002.38 -122491.9 81097.62 -122587.14 81192.86 -122777.62 81192.86 -123253.81 81097.62 -123444.28 81002.38 -123539.52 80811.9 -123634.76 80335.71 -123634.76 80145.24 -123539.52 80050 -123444.28 M 81954.76 -121634.76 81954.76 -122015.71 M 82716.67 -121634.76 82716.67 -122015.71 M 85669.05 -124396.67 85573.81 -124301.43 85383.33 -124015.71 85288.1 -123825.24 85192.86 -123539.52 85097.62 -123063.33 85097.62 -122682.38 85192.86 -122206.19 85288.1 -121920.48 85383.33 -121730 85573.81 -121444.28 85669.05 -121349.05 M 86240.48 -121634.76 87573.81 -121634.76 86716.67 -123634.76 M 89859.52 -123634.76 89859.52 -121634.76 M 90716.67 -123634.76 90716.67 -122587.14 90621.43 -122396.67 90430.95 -122301.43 90145.24 -122301.43 89954.76 -122396.67 89859.52 -122491.9 M 91954.76 -123634.76 91764.29 -123539.52 91669.05 -123444.28 91573.81 -123253.81 91573.81 -122682.38 91669.05 -122491.9 91764.29 -122396.67 91954.76 -122301.43 92240.48 -122301.43 92430.95 -122396.67 92526.19 -122491.9 92621.43 -122682.38 92621.43 -123253.81 92526.19 -123444.28 92430.95 -123539.52 92240.48 -123634.76 91954.76 -123634.76 M 93764.29 -123634.76 93573.81 -123539.52 93478.57 -123349.05 93478.57 -121634.76 M 95288.1 -123539.52 95097.62 -123634.76 94716.67 -123634.76 94526.19 -123539.52 94430.95 -123349.05 94430.95 -122587.14 94526.19 -122396.67 94716.67 -122301.43 95097.62 -122301.43 95288.1 -122396.67 95383.33 -122587.14 95383.33 -122777.62 94430.95 -122968.09 M 96145.24 -123539.52 96335.71 -123634.76 96716.67 -123634.76 96907.14 -123539.52 97002.38 -123349.05 97002.38 -123253.81 96907.14 -123063.33 96716.67 -122968.09 96430.95 -122968.09 96240.48 -122872.86 96145.24 -122682.38 96145.24 -122587.14 96240.48 -122396.67 96430.95 -122301.43 96716.67 -122301.43 96907.14 -122396.67 M 97669.05 -124396.67 97764.29 -124301.43 97954.76 -124015.71 98050 -123825.24 98145.24 -123539.52 98240.48 -123063.33 98240.48 -122682.38 98145.24 -122206.19 98050 -121920.48 97954.76 -121730 97764.29 -121444.28 97669.05 -121349.05" fill="none" stroke-width="200"/><path d="M 49832.85 -125652.84 49832.85 -125087.15 49267.16 -125087.15 49267.16 -125652.84 49832.85 -125652.84" fill="none" stroke-width="80"/><path d="M 52907.14 -124274.76 53097.62 -124274.76 53288.1 -124370 53383.33 -124465.24 53478.57 -124655.71 53573.81 -125036.67 53573.81 -125512.86 53478.57 -125893.81 53383.33 -126084.28 53288.1 -126179.52 53097.62 -126274.76 52907.14 -126274.76 52716.67 -126179.52 52621.43 -126084.28 52526.19 -125893.81 52430.95 -125512.86 52430.95 -125036.67 52526.19 -124655.71 52621.43 -124465.24 52716.67 -124370 52907.14 -124274.76 M 54430.95 -126084.28 54526.19 -126179.52 54430.95 -126274.76 54335.71 -126179.52 54430.95 -126084.28 54430.95 -126274.76 M 55669.05 -125131.9 55478.57 -125036.67 55383.33 -124941.43 55288.1 -124750.95 55288.1 -124655.71 55383.33 -124465.24 55478.57 -124370 55669.05 -124274.76 56050 -124274.76 56240.48 -124370 56335.71 -124465.24 56430.95 -124655.71 56430.95 -124750.95 56335.71 -124941.43 56240.48 -125036.67 56050 -125131.9 55669.05 -125131.9 55478.57 -125227.14 55383.33 -125322.38 55288.1 -125512.86 55288.1 -125893.81 55383.33 -126084.28 55478.57 -126179.52 55669.05 -126274.76 56050 -126274.76 56240.48 -126179.52 56335.71 -126084.28 56430.95 -125893.81 56430.95 -125512.86 56335.71 -125322.38 56240.48 -125227.14 56050 -125131.9 M 57669.05 -124274.76 57859.52 -124274.76 58050 -124370 58145.24 -124465.24 58240.48 -124655.71 58335.71 -125036.67 58335.71 -125512.86 58240.48 -125893.81 58145.24 -126084.28 58050 -126179.52 57859.52 -126274.76 57669.05 -126274.76 57478.57 -126179.52 57383.33 -126084.28 57288.09 -125893.81 57192.86 -125512.86 57192.86 -125036.67 57288.09 -124655.71 57383.33 -124465.24 57478.57 -124370 57669.05 -124274.76 M 59573.81 -124274.76 59764.28 -124274.76 59954.76 -124370 60050 -124465.24 60145.24 -124655.71 60240.48 -125036.67 60240.48 -125512.86 60145.24 -125893.81 60050 -126084.28 59954.76 -126179.52 59764.28 -126274.76 59573.81 -126274.76 59383.33 -126179.52 59288.09 -126084.28 59192.86 -125893.81 59097.62 -125512.86 59097.62 -125036.67 59192.86 -124655.71 59288.09 -124465.24 59383.33 -124370 59573.81 -124274.76 M 61097.62 -126274.76 61097.62 -124941.43 M 61097.62 -125131.9 61192.86 -125036.67 61383.33 -124941.43 61669.05 -124941.43 61859.52 -125036.67 61954.76 -125227.14 61954.76 -126274.76 M 61954.76 -125227.14 62050 -125036.67 62240.48 -124941.43 62526.19 -124941.43 62716.67 -125036.67 62811.9 -125227.14 62811.9 -126274.76 M 63764.28 -126274.76 63764.28 -124941.43 M 63764.28 -125131.9 63859.52 -125036.67 64050 -124941.43 64335.71 -124941.43 64526.19 -125036.67 64621.43 -125227.14 64621.43 -126274.76 M 64621.43 -125227.14 64716.67 -125036.67 64907.14 -124941.43 65192.86 -124941.43 65383.33 -125036.67 65478.57 -125227.14 65478.57 -126274.76 M 69383.33 -124179.52 67669.05 -126750.95 M 71954.76 -124274.76 72145.24 -124274.76 72335.71 -124370 72430.95 -124465.24 72526.19 -124655.71 72621.43 -125036.67 72621.43 -125512.86 72526.19 -125893.81 72430.95 -126084.28 72335.71 -126179.52 72145.24 -126274.76 71954.76 -126274.76 71764.28 -126179.52 71669.05 -126084.28 71573.81 -125893.81 71478.57 -125512.86 71478.57 -125036.67 71573.81 -124655.71 71669.05 -124465.24 71764.28 -124370 71954.76 -124274.76 M 73478.57 -126084.28 73573.81 -126179.52 73478.57 -126274.76 73383.33 -126179.52 73478.57 -126084.28 73478.57 -126274.76 M 74811.9 -124274.76 75002.38 -124274.76 75192.86 -124370 75288.09 -124465.24 75383.33 -124655.71 75478.57 -125036.67 75478.57 -125512.86 75383.33 -125893.81 75288.09 -126084.28 75192.86 -126179.52 75002.38 -126274.76 74811.9 -126274.76 74621.43 -126179.52 74526.19 -126084.28 74430.95 -125893.81 74335.71 -125512.86 74335.71 -125036.67 74430.95 -124655.71 74526.19 -124465.24 74621.43 -124370 74811.9 -124274.76 M 76145.24 -124274.76 77383.33 -124274.76 76716.67 -125036.67 77002.38 -125036.67 77192.86 -125131.9 77288.09 -125227.14 77383.33 -125417.62 77383.33 -125893.81 77288.09 -126084.28 77192.86 -126179.52 77002.38 -126274.76 76430.95 -126274.76 76240.48 -126179.52 76145.24 -126084.28 M 79288.09 -126274.76 78145.24 -126274.76 M 78716.67 -126274.76 78716.67 -124274.76 78526.19 -124560.48 78335.71 -124750.95 78145.24 -124846.19 M 81097.62 -124274.76 80145.24 -124274.76 80050 -125227.14 80145.24 -125131.9 80335.71 -125036.67 80811.9 -125036.67 81002.38 -125131.9 81097.62 -125227.14 81192.86 -125417.62 81192.86 -125893.81 81097.62 -126084.28 81002.38 -126179.52 80811.9 -126274.76 80335.71 -126274.76 80145.24 -126179.52 80050 -126084.28 M 81954.76 -124274.76 81954.76 -124655.71 M 82716.67 -124274.76 82716.67 -124655.71 M 85669.05 -127036.67 85573.81 -126941.43 85383.33 -126655.71 85288.1 -126465.24 85192.86 -126179.52 85097.62 -125703.33 85097.62 -125322.38 85192.86 -124846.19 85288.1 -124560.48 85383.33 -124370 85573.81 -124084.28 85669.05 -123989.05 M 87383.33 -124274.76 86430.95 -124274.76 86335.71 -125227.14 86430.95 -125131.9 86621.43 -125036.67 87097.62 -125036.67 87288.1 -125131.9 87383.33 -125227.14 87478.57 -125417.62 87478.57 -125893.81 87383.33 -126084.28 87288.1 -126179.52 87097.62 -126274.76 86621.43 -126274.76 86430.95 -126179.52 86335.71 -126084.28 M 89192.86 -124941.43 89192.86 -126274.76 M 88716.67 -124179.52 88240.48 -125608.09 89478.57 -125608.09 M 91764.29 -126274.76 91764.29 -124274.76 M 92621.43 -126274.76 92621.43 -125227.14 92526.19 -125036.67 92335.71 -124941.43 92050 -124941.43 91859.52 -125036.67 91764.29 -125131.9 M 93859.52 -126274.76 93669.05 -126179.52 93573.81 -126084.28 93478.57 -125893.81 93478.57 -125322.38 93573.81 -125131.9 93669.05 -125036.67 93859.52 -124941.43 94145.24 -124941.43 94335.71 -125036.67 94430.95 -125131.9 94526.19 -125322.38 94526.19 -125893.81 94430.95 -126084.28 94335.71 -126179.52 94145.24 -126274.76 93859.52 -126274.76 M 95669.05 -126274.76 95478.57 -126179.52 95383.33 -125989.05 95383.33 -124274.76 M 97192.86 -126179.52 97002.38 -126274.76 96621.43 -126274.76 96430.95 -126179.52 96335.71 -125989.05 96335.71 -125227.14 96430.95 -125036.67 96621.43 -124941.43 97002.38 -124941.43 97192.86 -125036.67 97288.1 -125227.14 97288.1 -125417.62 96335.71 -125608.09 M 98050 -126179.52 98240.48 -126274.76 98621.43 -126274.76 98811.9 -126179.52 98907.14 -125989.05 98907.14 -125893.81 98811.9 -125703.33 98621.43 -125608.09 98335.71 -125608.09 98145.24 -125512.86 98050 -125322.38 98050 -125227.14 98145.24 -125036.67 98335.71 -124941.43 98621.43 -124941.43 98811.9 -125036.67 M 99573.81 -127036.67 99669.05 -126941.43 99859.52 -126655.71 99954.76 -126465.24 100050 -126179.52 100145.24 -125703.33 100145.24 -125322.38 100050 -124846.19 99954.76 -124560.48 99859.52 -124370 99669.05 -124084.28 99573.81 -123989.05" fill="none" stroke-width="200"/><path d="M 49500 -128460 49950 -128010 49500 -127560 49050 -128010 49500 -128460" fill="none" stroke-width="90"/><path d="M 52907.14 -126914.76 53097.62 -126914.76 53288.1 -127010 53383.33 -127105.24 53478.57 -127295.71 53573.81 -127676.67 53573.81 -128152.86 53478.57 -128533.81 53383.33 -128724.28 53288.1 -128819.52 53097.62 -128914.76 52907.14 -128914.76 52716.67 -128819.52 52621.43 -128724.28 52526.19 -128533.81 52430.95 -128152.86 52430.95 -127676.67 52526.19 -127295.71 52621.43 -127105.24 52716.67 -127010 52907.14 -126914.76 M 54430.95 -128724.28 54526.19 -128819.52 54430.95 -128914.76 54335.71 -128819.52 54430.95 -128724.28 54430.95 -128914.76 M 55478.57 -128914.76 55859.52 -128914.76 56050 -128819.52 56145.24 -128724.28 56335.71 -128438.57 56430.95 -128057.62 56430.95 -127295.71 56335.71 -127105.24 56240.48 -127010 56050 -126914.76 55669.05 -126914.76 55478.57 -127010 55383.33 -127105.24 55288.1 -127295.71 55288.1 -127771.9 55383.33 -127962.38 55478.57 -128057.62 55669.05 -128152.86 56050 -128152.86 56240.48 -128057.62 56335.71 -127962.38 56430.95 -127771.9 M 57669.05 -126914.76 57859.52 -126914.76 58050 -127010 58145.24 -127105.24 58240.48 -127295.71 58335.71 -127676.67 58335.71 -128152.86 58240.48 -128533.81 58145.24 -128724.28 58050 -128819.52 57859.52 -128914.76 57669.05 -128914.76 57478.57 -128819.52 57383.33 -128724.28 57288.09 -128533.81 57192.86 -128152.86 57192.86 -127676.67 57288.09 -127295.71 57383.33 -127105.24 57478.57 -127010 57669.05 -126914.76 M 59573.81 -126914.76 59764.28 -126914.76 59954.76 -127010 60050 -127105.24 60145.24 -127295.71 60240.48 -127676.67 60240.48 -128152.86 60145.24 -128533.81 60050 -128724.28 59954.76 -128819.52 59764.28 -128914.76 59573.81 -128914.76 59383.33 -128819.52 59288.09 -128724.28 59192.86 -128533.81 59097.62 -128152.86 59097.62 -127676.67 59192.86 -127295.71 59288.09 -127105.24 59383.33 -127010 59573.81 -126914.76 M 61097.62 -128914.76 61097.62 -127581.43 M 61097.62 -127771.9 61192.86 -127676.67 61383.33 -127581.43 61669.05 -127581.43 61859.52 -127676.67 61954.76 -127867.14 61954.76 -128914.76 M 61954.76 -127867.14 62050 -127676.67 62240.48 -127581.43 62526.19 -127581.43 62716.67 -127676.67 62811.9 -127867.14 62811.9 -128914.76 M 63764.28 -128914.76 63764.28 -127581.43 M 63764.28 -127771.9 63859.52 -127676.67 64050 -127581.43 64335.71 -127581.43 64526.19 -127676.67 64621.43 -127867.14 64621.43 -128914.76 M 64621.43 -127867.14 64716.67 -127676.67 64907.14 -127581.43 65192.86 -127581.43 65383.33 -127676.67 65478.57 -127867.14 65478.57 -128914.76 M 69383.33 -126819.52 67669.05 -129390.95 M 71954.76 -126914.76 72145.24 -126914.76 72335.71 -127010 72430.95 -127105.24 72526.19 -127295.71 72621.43 -127676.67 72621.43 -128152.86 72526.19 -128533.81 72430.95 -128724.28 72335.71 -128819.52 72145.24 -128914.76 71954.76 -128914.76 71764.28 -128819.52 71669.05 -128724.28 71573.81 -128533.81 71478.57 -128152.86 71478.57 -127676.67 71573.81 -127295.71 71669.05 -127105.24 71764.28 -127010 71954.76 -126914.76 M 73478.57 -128724.28 73573.81 -128819.52 73478.57 -128914.76 73383.33 -128819.52 73478.57 -128724.28 73478.57 -128914.76 M 74811.9 -126914.76 75002.38 -126914.76 75192.86 -127010 75288.09 -127105.24 75383.33 -127295.71 75478.57 -127676.67 75478.57 -128152.86 75383.33 -128533.81 75288.09 -128724.28 75192.86 -128819.52 75002.38 -128914.76 74811.9 -128914.76 74621.43 -128819.52 74526.19 -128724.28 74430.95 -128533.81 74335.71 -128152.86 74335.71 -127676.67 74430.95 -127295.71 74526.19 -127105.24 74621.43 -127010 74811.9 -126914.76 M 76145.24 -126914.76 77383.33 -126914.76 76716.67 -127676.67 77002.38 -127676.67 77192.86 -127771.9 77288.09 -127867.14 77383.33 -128057.62 77383.33 -128533.81 77288.09 -128724.28 77192.86 -128819.52 77002.38 -128914.76 76430.95 -128914.76 76240.48 -128819.52 76145.24 -128724.28 M 79192.86 -126914.76 78240.48 -126914.76 78145.24 -127867.14 78240.48 -127771.9 78430.95 -127676.67 78907.14 -127676.67 79097.62 -127771.9 79192.86 -127867.14 79288.09 -128057.62 79288.09 -128533.81 79192.86 -128724.28 79097.62 -128819.52 78907.14 -128914.76 78430.95 -128914.76 78240.48 -128819.52 78145.24 -128724.28 M 81002.38 -127581.43 81002.38 -128914.76 M 80526.19 -126819.52 80050 -128248.09 81288.09 -128248.09 M 81954.76 -126914.76 81954.76 -127295.71 M 82716.67 -126914.76 82716.67 -127295.71 M 85669.05 -129676.67 85573.81 -129581.43 85383.33 -129295.71 85288.1 -129105.24 85192.86 -128819.52 85097.62 -128343.33 85097.62 -127962.38 85192.86 -127486.19 85288.1 -127200.48 85383.33 -127010 85573.81 -126724.28 85669.05 -126629.05 M 86716.67 -127771.9 86526.19 -127676.67 86430.95 -127581.43 86335.71 -127390.95 86335.71 -127295.71 86430.95 -127105.24 86526.19 -127010 86716.67 -126914.76 87097.62 -126914.76 87288.1 -127010 87383.33 -127105.24 87478.57 -127295.71 87478.57 -127390.95 87383.33 -127581.43 87288.1 -127676.67 87097.62 -127771.9 86716.67 -127771.9 86526.19 -127867.14 86430.95 -127962.38 86335.71 -128152.86 86335.71 -128533.81 86430.95 -128724.28 86526.19 -128819.52 86716.67 -128914.76 87097.62 -128914.76 87288.1 -128819.52 87383.33 -128724.28 87478.57 -128533.81 87478.57 -128152.86 87383.33 -127962.38 87288.1 -127867.14 87097.62 -127771.9 M 89859.52 -128914.76 89859.52 -126914.76 M 90716.67 -128914.76 90716.67 -127867.14 90621.43 -127676.67 90430.95 -127581.43 90145.24 -127581.43 89954.76 -127676.67 89859.52 -127771.9 M 91954.76 -128914.76 91764.29 -128819.52 91669.05 -128724.28 91573.81 -128533.81 91573.81 -127962.38 91669.05 -127771.9 91764.29 -127676.67 91954.76 -127581.43 92240.48 -127581.43 92430.95 -127676.67 92526.19 -127771.9 92621.43 -127962.38 92621.43 -128533.81 92526.19 -128724.28 92430.95 -128819.52 92240.48 -128914.76 91954.76 -128914.76 M 93764.29 -128914.76 93573.81 -128819.52 93478.57 -128629.05 93478.57 -126914.76 M 95288.1 -128819.52 95097.62 -128914.76 94716.67 -128914.76 94526.19 -128819.52 94430.95 -128629.05 94430.95 -127867.14 94526.19 -127676.67 94716.67 -127581.43 95097.62 -127581.43 95288.1 -127676.67 95383.33 -127867.14 95383.33 -128057.62 94430.95 -128248.09 M 96145.24 -128819.52 96335.71 -128914.76 96716.67 -128914.76 96907.14 -128819.52 97002.38 -128629.05 97002.38 -128533.81 96907.14 -128343.33 96716.67 -128248.09 96430.95 -128248.09 96240.48 -128152.86 96145.24 -127962.38 96145.24 -127867.14 96240.48 -127676.67 96430.95 -127581.43 96716.67 -127581.43 96907.14 -127676.67 M 97669.05 -129676.67 97764.29 -129581.43 97954.76 -129295.71 98050 -129105.24 98145.24 -128819.52 98240.48 -128343.33 98240.48 -127962.38 98145.24 -127486.19 98050 -127200.48 97954.76 -127010 97764.29 -126724.28 97669.05 -126629.05" fill="none" stroke-width="200"/><path d="M 48950 -130150 49950 -131150 M 49950 -130150 48950 -131150 M 49950 -130650 A 500 500 0 0 1 48950 -130650 500 500 0 0 1 49950 -130650" fill="none" stroke-width="100"/><path d="M 53573.81 -131554.76 52430.95 -131554.76 M 53002.38 -131554.76 53002.38 -129554.76 52811.9 -129840.48 52621.43 -130030.95 52430.95 -130126.19 M 54430.95 -131364.28 54526.19 -131459.52 54430.95 -131554.76 54335.71 -131459.52 54430.95 -131364.28 54430.95 -131554.76 M 55764.29 -129554.76 55954.76 -129554.76 56145.24 -129650 56240.48 -129745.24 56335.71 -129935.71 56430.95 -130316.67 56430.95 -130792.86 56335.71 -131173.81 56240.48 -131364.28 56145.24 -131459.52 55954.76 -131554.76 55764.29 -131554.76 55573.81 -131459.52 55478.57 -131364.28 55383.33 -131173.81 55288.1 -130792.86 55288.1 -130316.67 55383.33 -129935.71 55478.57 -129745.24 55573.81 -129650 55764.29 -129554.76 M 57669.05 -129554.76 57859.52 -129554.76 58050 -129650 58145.24 -129745.24 58240.48 -129935.71 58335.71 -130316.67 58335.71 -130792.86 58240.48 -131173.81 58145.24 -131364.28 58050 -131459.52 57859.52 -131554.76 57669.05 -131554.76 57478.57 -131459.52 57383.33 -131364.28 57288.09 -131173.81 57192.86 -130792.86 57192.86 -130316.67 57288.09 -129935.71 57383.33 -129745.24 57478.57 -129650 57669.05 -129554.76 M 59573.81 -129554.76 59764.28 -129554.76 59954.76 -129650 60050 -129745.24 60145.24 -129935.71 60240.48 -130316.67 60240.48 -130792.86 60145.24 -131173.81 60050 -131364.28 59954.76 -131459.52 59764.28 -131554.76 59573.81 -131554.76 59383.33 -131459.52 59288.09 -131364.28 59192.86 -131173.81 59097.62 -130792.86 59097.62 -130316.67 59192.86 -129935.71 59288.09 -129745.24 59383.33 -129650 59573.81 -129554.76 M 61097.62 -131554.76 61097.62 -130221.43 M 61097.62 -130411.9 61192.86 -130316.67 61383.33 -130221.43 61669.05 -130221.43 61859.52 -130316.67 61954.76 -130507.14 61954.76 -131554.76 M 61954.76 -130507.14 62050 -130316.67 62240.48 -130221.43 62526.19 -130221.43 62716.67 -130316.67 62811.9 -130507.14 62811.9 -131554.76 M 63764.28 -131554.76 63764.28 -130221.43 M 63764.28 -130411.9 63859.52 -130316.67 64050 -130221.43 64335.71 -130221.43 64526.19 -130316.67 64621.43 -130507.14 64621.43 -131554.76 M 64621.43 -130507.14 64716.67 -130316.67 64907.14 -130221.43 65192.86 -130221.43 65383.33 -130316.67 65478.57 -130507.14 65478.57 -131554.76 M 69383.33 -129459.52 67669.05 -132030.95 M 71954.76 -129554.76 72145.24 -129554.76 72335.71 -129650 72430.95 -129745.24 72526.19 -129935.71 72621.43 -130316.67 72621.43 -130792.86 72526.19 -131173.81 72430.95 -131364.28 72335.71 -131459.52 72145.24 -131554.76 71954.76 -131554.76 71764.28 -131459.52 71669.05 -131364.28 71573.81 -131173.81 71478.57 -130792.86 71478.57 -130316.67 71573.81 -129935.71 71669.05 -129745.24 71764.28 -129650 71954.76 -129554.76 M 73478.57 -131364.28 73573.81 -131459.52 73478.57 -131554.76 73383.33 -131459.52 73478.57 -131364.28 73478.57 -131554.76 M 74811.9 -129554.76 75002.38 -129554.76 75192.86 -129650 75288.09 -129745.24 75383.33 -129935.71 75478.57 -130316.67 75478.57 -130792.86 75383.33 -131173.81 75288.09 -131364.28 75192.86 -131459.52 75002.38 -131554.76 74811.9 -131554.76 74621.43 -131459.52 74526.19 -131364.28 74430.95 -131173.81 74335.71 -130792.86 74335.71 -130316.67 74430.95 -129935.71 74526.19 -129745.24 74621.43 -129650 74811.9 -129554.76 M 76145.24 -129554.76 77383.33 -129554.76 76716.67 -130316.67 77002.38 -130316.67 77192.86 -130411.9 77288.09 -130507.14 77383.33 -130697.62 77383.33 -131173.81 77288.09 -131364.28 77192.86 -131459.52 77002.38 -131554.76 76430.95 -131554.76 76240.48 -131459.52 76145.24 -131364.28 M 78335.71 -131554.76 78716.67 -131554.76 78907.14 -131459.52 79002.38 -131364.28 79192.86 -131078.57 79288.09 -130697.62 79288.09 -129935.71 79192.86 -129745.24 79097.62 -129650 78907.14 -129554.76 78526.19 -129554.76 78335.71 -129650 78240.48 -129745.24 78145.24 -129935.71 78145.24 -130411.9 78240.48 -130602.38 78335.71 -130697.62 78526.19 -130792.86 78907.14 -130792.86 79097.62 -130697.62 79192.86 -130602.38 79288.09 -130411.9 M 81002.38 -130221.43 81002.38 -131554.76 M 80526.19 -129459.52 80050 -130888.09 81288.09 -130888.09 M 81954.76 -129554.76 81954.76 -129935.71 M 82716.67 -129554.76 82716.67 -129935.71 M 85669.05 -132316.67 85573.81 -132221.43 85383.33 -131935.71 85288.1 -131745.24 85192.86 -131459.52 85097.62 -130983.33 85097.62 -130602.38 85192.86 -130126.19 85288.1 -129840.48 85383.33 -129650 85573.81 -129364.28 85669.05 -129269.05 M 87383.33 -129554.76 86430.95 -129554.76 86335.71 -130507.14 86430.95 -130411.9 86621.43 -130316.67 87097.62 -130316.67 87288.1 -130411.9 87383.33 -130507.14 87478.57 -130697.62 87478.57 -131173.81 87383.33 -131364.28 87288.1 -131459.52 87097.62 -131554.76 86621.43 -131554.76 86430.95 -131459.52 86335.71 -131364.28 M 88145.24 -129554.76 89383.33 -129554.76 88716.67 -130316.67 89002.38 -130316.67 89192.86 -130411.9 89288.1 -130507.14 89383.33 -130697.62 89383.33 -131173.81 89288.1 -131364.28 89192.86 -131459.52 89002.38 -131554.76 88430.95 -131554.76 88240.48 -131459.52 88145.24 -131364.28 M 91764.29 -131554.76 91764.29 -129554.76 M 92621.43 -131554.76 92621.43 -130507.14 92526.19 -130316.67 92335.71 -130221.43 92050 -130221.43 91859.52 -130316.67 91764.29 -130411.9 M 93859.52 -131554.76 93669.05 -131459.52 93573.81 -131364.28 93478.57 -131173.81 93478.57 -130602.38 93573.81 -130411.9 93669.05 -130316.67 93859.52 -130221.43 94145.24 -130221.43 94335.71 -130316.67 94430.95 -130411.9 94526.19 -130602.38 94526.19 -131173.81 94430.95 -131364.28 94335.71 -131459.52 94145.24 -131554.76 93859.52 -131554.76 M 95669.05 -131554.76 95478.57 -131459.52 95383.33 -131269.05 95383.33 -129554.76 M 97192.86 -131459.52 97002.38 -131554.76 96621.43 -131554.76 96430.95 -131459.52 96335.71 -131269.05 96335.71 -130507.14 96430.95 -130316.67 96621.43 -130221.43 97002.38 -130221.43 97192.86 -130316.67 97288.1 -130507.14 97288.1 -130697.62 96335.71 -130888.09 M 98050 -131459.52 98240.48 -131554.76 98621.43 -131554.76 98811.9 -131459.52 98907.14 -131269.05 98907.14 -131173.81 98811.9 -130983.33 98621.43 -130888.09 98335.71 -130888.09 98145.24 -130792.86 98050 -130602.38 98050 -130507.14 98145.24 -130316.67 98335.71 -130221.43 98621.43 -130221.43 98811.9 -130316.67 M 99573.81 -132316.67 99669.05 -132221.43 99859.52 -131935.71 99954.76 -131745.24 100050 -131459.52 100145.24 -130983.33 100145.24 -130602.38 100050 -130126.19 99954.76 -129840.48 99859.52 -129650 99669.05 -129364.28 99573.81 -129269.05" fill="none" stroke-width="200"/><path d="M 48930 -132780 49950 -133800 M 49950 -132780 48930 -133800 M 49440 -132780 49440 -133800 M 48930 -133290 49950 -133290" fill="none" stroke-width="102"/><path d="M 53573.81 -134194.76 52430.95 -134194.76 M 53002.38 -134194.76 53002.38 -132194.76 52811.9 -132480.48 52621.43 -132670.95 52430.95 -132766.19 M 54430.95 -134004.28 54526.19 -134099.52 54430.95 -134194.76 54335.71 -134099.52 54430.95 -134004.28 54430.95 -134194.76 M 55764.29 -132194.76 55954.76 -132194.76 56145.24 -132290 56240.48 -132385.24 56335.71 -132575.71 56430.95 -132956.67 56430.95 -133432.86 56335.71 -133813.81 56240.48 -134004.28 56145.24 -134099.52 55954.76 -134194.76 55764.29 -134194.76 55573.81 -134099.52 55478.57 -134004.28 55383.33 -133813.81 55288.1 -133432.86 55288.1 -132956.67 55383.33 -132575.71 55478.57 -132385.24 55573.81 -132290 55764.29 -132194.76 M 57192.86 -132385.24 57288.09 -132290 57478.57 -132194.76 57954.76 -132194.76 58145.24 -132290 58240.48 -132385.24 58335.71 -132575.71 58335.71 -132766.19 58240.48 -133051.9 57097.62 -134194.76 58335.71 -134194.76 M 59573.81 -132194.76 59764.28 -132194.76 59954.76 -132290 60050 -132385.24 60145.24 -132575.71 60240.48 -132956.67 60240.48 -133432.86 60145.24 -133813.81 60050 -134004.28 59954.76 -134099.52 59764.28 -134194.76 59573.81 -134194.76 59383.33 -134099.52 59288.09 -134004.28 59192.86 -133813.81 59097.62 -133432.86 59097.62 -132956.67 59192.86 -132575.71 59288.09 -132385.24 59383.33 -132290 59573.81 -132194.76 M 61097.62 -134194.76 61097.62 -132861.43 M 61097.62 -133051.9 61192.86 -132956.67 61383.33 -132861.43 61669.05 -132861.43 61859.52 -132956.67 61954.76 -133147.14 61954.76 -134194.76 M 61954.76 -133147.14 62050 -132956.67 62240.48 -132861.43 62526.19 -132861.43 62716.67 -132956.67 62811.9 -133147.14 62811.9 -134194.76 M 63764.28 -134194.76 63764.28 -132861.43 M 63764.28 -133051.9 63859.52 -132956.67 64050 -132861.43 64335.71 -132861.43 64526.19 -132956.67 64621.43 -133147.14 64621.43 -134194.76 M 64621.43 -133147.14 64716.67 -132956.67 64907.14 -132861.43 65192.86 -132861.43 65383.33 -132956.67 65478.57 -133147.14 65478.57 -134194.76 M 69383.33 -132099.52 67669.05 -134670.95 M 71954.76 -132194.76 72145.24 -132194.76 72335.71 -132290 72430.95 -132385.24 72526.19 -132575.71 72621.43 -132956.67 72621.43 -133432.86 72526.19 -133813.81 72430.95 -134004.28 72335.71 -134099.52 72145.24 -134194.76 71954.76 -134194.76 71764.28 -134099.52 71669.05 -134004.28 71573.81 -133813.81 71478.57 -133432.86 71478.57 -132956.67 71573.81 -132575.71 71669.05 -132385.24 71764.28 -132290 71954.76 -132194.76 M 73478.57 -134004.28 73573.81 -134099.52 73478.57 -134194.76 73383.33 -134099.52 73478.57 -134004.28 73478.57 -134194.76 M 74811.9 -132194.76 75002.38 -132194.76 75192.86 -132290 75288.09 -132385.24 75383.33 -132575.71 75478.57 -132956.67 75478.57 -133432.86 75383.33 -133813.81 75288.09 -134004.28 75192.86 -134099.52 75002.38 -134194.76 74811.9 -134194.76 74621.43 -134099.52 74526.19 -134004.28 74430.95 -133813.81 74335.71 -133432.86 74335.71 -132956.67 74430.95 -132575.71 74526.19 -132385.24 74621.43 -132290 74811.9 -132194.76 M 77192.86 -132861.43 77192.86 -134194.76 M 76716.67 -132099.52 76240.48 -133528.09 77478.57 -133528.09 M 78621.43 -132194.76 78811.9 -132194.76 79002.38 -132290 79097.62 -132385.24 79192.86 -132575.71 79288.09 -132956.67 79288.09 -133432.86 79192.86 -133813.81 79097.62 -134004.28 79002.38 -134099.52 78811.9 -134194.76 78621.43 -134194.76 78430.95 -134099.52 78335.71 -134004.28 78240.48 -133813.81 78145.24 -133432.86 78145.24 -132956.67 78240.48 -132575.71 78335.71 -132385.24 78430.95 -132290 78621.43 -132194.76 M 80050 -132385.24 80145.24 -132290 80335.71 -132194.76 80811.9 -132194.76 81002.38 -132290 81097.62 -132385.24 81192.86 -132575.71 81192.86 -132766.19 81097.62 -133051.9 79954.76 -134194.76 81192.86 -134194.76 M 81954.76 -132194.76 81954.76 -132575.71 M 82716.67 -132194.76 82716.67 -132575.71 M 85669.05 -134956.67 85573.81 -134861.43 85383.33 -134575.71 85288.1 -134385.24 85192.86 -134099.52 85097.62 -133623.33 85097.62 -133242.38 85192.86 -132766.19 85288.1 -132480.48 85383.33 -132290 85573.81 -132004.28 85669.05 -131909.05 M 87288.1 -132861.43 87288.1 -134194.76 M 86811.9 -132099.52 86335.71 -133528.09 87573.81 -133528.09 M 89859.52 -134194.76 89859.52 -132194.76 M 90716.67 -134194.76 90716.67 -133147.14 90621.43 -132956.67 90430.95 -132861.43 90145.24 -132861.43 89954.76 -132956.67 89859.52 -133051.9 M 91954.76 -134194.76 91764.29 -134099.52 91669.05 -134004.28 91573.81 -133813.81 91573.81 -133242.38 91669.05 -133051.9 91764.29 -132956.67 91954.76 -132861.43 92240.48 -132861.43 92430.95 -132956.67 92526.19 -133051.9 92621.43 -133242.38 92621.43 -133813.81 92526.19 -134004.28 92430.95 -134099.52 92240.48 -134194.76 91954.76 -134194.76 M 93764.29 -134194.76 93573.81 -134099.52 93478.57 -133909.05 93478.57 -132194.76 M 95288.1 -134099.52 95097.62 -134194.76 94716.67 -134194.76 94526.19 -134099.52 94430.95 -133909.05 94430.95 -133147.14 94526.19 -132956.67 94716.67 -132861.43 95097.62 -132861.43 95288.1 -132956.67 95383.33 -133147.14 95383.33 -133337.62 94430.95 -133528.09 M 96145.24 -134099.52 96335.71 -134194.76 96716.67 -134194.76 96907.14 -134099.52 97002.38 -133909.05 97002.38 -133813.81 96907.14 -133623.33 96716.67 -133528.09 96430.95 -133528.09 96240.48 -133432.86 96145.24 -133242.38 96145.24 -133147.14 96240.48 -132956.67 96430.95 -132861.43 96716.67 -132861.43 96907.14 -132956.67 M 97669.05 -134956.67 97764.29 -134861.43 97954.76 -134575.71 98050 -134385.24 98145.24 -134099.52 98240.48 -133623.33 98240.48 -133242.38 98145.24 -132766.19 98050 -132480.48 97954.76 -132290 97764.29 -132004.28 97669.05 -131909.05" fill="none" stroke-width="200"/><path d="M 48350 -135130 49950 -136730 M 49950 -135130 48350 -136730 M 49715.69 -136495.69 49715.69 -135364.31 48584.31 -135364.31 48584.31 -136495.69 49715.69 -136495.69" fill="none" stroke-width="160"/><path d="M 53573.81 -136834.76 52430.95 -136834.76 M 53002.38 -136834.76 53002.38 -134834.76 52811.9 -135120.48 52621.43 -135310.95 52430.95 -135406.19 M 54430.95 -136644.28 54526.19 -136739.52 54430.95 -136834.76 54335.71 -136739.52 54430.95 -136644.28 54430.95 -136834.76 M 56240.48 -134834.76 55859.52 -134834.76 55669.05 -134930 55573.81 -135025.24 55383.33 -135310.95 55288.1 -135691.9 55288.1 -136453.81 55383.33 -136644.28 55478.57 -136739.52 55669.05 -136834.76 56050 -136834.76 56240.48 -136739.52 56335.71 -136644.28 56430.95 -136453.81 56430.95 -135977.62 56335.71 -135787.14 56240.48 -135691.9 56050 -135596.67 55669.05 -135596.67 55478.57 -135691.9 55383.33 -135787.14 55288.1 -135977.62 M 57669.05 -134834.76 57859.52 -134834.76 58050 -134930 58145.24 -135025.24 58240.48 -135215.71 58335.71 -135596.67 58335.71 -136072.86 58240.48 -136453.81 58145.24 -136644.28 58050 -136739.52 57859.52 -136834.76 57669.05 -136834.76 57478.57 -136739.52 57383.33 -136644.28 57288.09 -136453.81 57192.86 -136072.86 57192.86 -135596.67 57288.09 -135215.71 57383.33 -135025.24 57478.57 -134930 57669.05 -134834.76 M 59573.81 -134834.76 59764.28 -134834.76 59954.76 -134930 60050 -135025.24 60145.24 -135215.71 60240.48 -135596.67 60240.48 -136072.86 60145.24 -136453.81 60050 -136644.28 59954.76 -136739.52 59764.28 -136834.76 59573.81 -136834.76 59383.33 -136739.52 59288.09 -136644.28 59192.86 -136453.81 59097.62 -136072.86 59097.62 -135596.67 59192.86 -135215.71 59288.09 -135025.24 59383.33 -134930 59573.81 -134834.76 M 61097.62 -136834.76 61097.62 -135501.43 M 61097.62 -135691.9 61192.86 -135596.67 61383.33 -135501.43 61669.05 -135501.43 61859.52 -135596.67 61954.76 -135787.14 61954.76 -136834.76 M 61954.76 -135787.14 62050 -135596.67 62240.48 -135501.43 62526.19 -135501.43 62716.67 -135596.67 62811.9 -135787.14 62811.9 -136834.76 M 63764.28 -136834.76 63764.28 -135501.43 M 63764.28 -135691.9 63859.52 -135596.67 64050 -135501.43 64335.71 -135501.43 64526.19 -135596.67 64621.43 -135787.14 64621.43 -136834.76 M 64621.43 -135787.14 64716.67 -135596.67 64907.14 -135501.43 65192.86 -135501.43 65383.33 -135596.67 65478.57 -135787.14 65478.57 -136834.76 M 69383.33 -134739.52 67669.05 -137310.95 M 71954.76 -134834.76 72145.24 -134834.76 72335.71 -134930 72430.95 -135025.24 72526.19 -135215.71 72621.43 -135596.67 72621.43 -136072.86 72526.19 -136453.81 72430.95 -136644.28 72335.71 -136739.52 72145.24 -136834.76 71954.76 -136834.76 71764.28 -136739.52 71669.05 -136644.28 71573.81 -136453.81 71478.57 -136072.86 71478.57 -135596.67 71573.81 -135215.71 71669.05 -135025.24 71764.28 -134930 71954.76 -134834.76 M 73478.57 -136644.28 73573.81 -136739.52 73478.57 -136834.76 73383.33 -136739.52 73478.57 -136644.28 73478.57 -136834.76 M 74811.9 -134834.76 75002.38 -134834.76 75192.86 -134930 75288.09 -135025.24 75383.33 -135215.71 75478.57 -135596.67 75478.57 -136072.86 75383.33 -136453.81 75288.09 -136644.28 75192.86 -136739.52 75002.38 -136834.76 74811.9 -136834.76 74621.43 -136739.52 74526.19 -136644.28 74430.95 -136453.81 74335.71 -136072.86 74335.71 -135596.67 74430.95 -135215.71 74526.19 -135025.24 74621.43 -134930 74811.9 -134834.76 M 77192.86 -134834.76 76811.9 -134834.76 76621.43 -134930 76526.19 -135025.24 76335.71 -135310.95 76240.48 -135691.9 76240.48 -136453.81 76335.71 -136644.28 76430.95 -136739.52 76621.43 -136834.76 77002.38 -136834.76 77192.86 -136739.52 77288.09 -136644.28 77383.33 -136453.81 77383.33 -135977.62 77288.09 -135787.14 77192.86 -135691.9 77002.38 -135596.67 76621.43 -135596.67 76430.95 -135691.9 76335.71 -135787.14 76240.48 -135977.62 M 78050 -134834.76 79288.09 -134834.76 78621.43 -135596.67 78907.14 -135596.67 79097.62 -135691.9 79192.86 -135787.14 79288.09 -135977.62 79288.09 -136453.81 79192.86 -136644.28 79097.62 -136739.52 78907.14 -136834.76 78335.71 -136834.76 78145.24 -136739.52 78050 -136644.28 M 80526.19 -134834.76 80716.67 -134834.76 80907.14 -134930 81002.38 -135025.24 81097.62 -135215.71 81192.86 -135596.67 81192.86 -136072.86 81097.62 -136453.81 81002.38 -136644.28 80907.14 -136739.52 80716.67 -136834.76 80526.19 -136834.76 80335.71 -136739.52 80240.48 -136644.28 80145.24 -136453.81 80050 -136072.86 80050 -135596.67 80145.24 -135215.71 80240.48 -135025.24 80335.71 -134930 80526.19 -134834.76 M 81954.76 -134834.76 81954.76 -135215.71 M 82716.67 -134834.76 82716.67 -135215.71 M 85669.05 -137596.67 85573.81 -137501.43 85383.33 -137215.71 85288.1 -137025.24 85192.86 -136739.52 85097.62 -136263.33 85097.62 -135882.38 85192.86 -135406.19 85288.1 -135120.48 85383.33 -134930 85573.81 -134644.28 85669.05 -134549.05 M 86335.71 -135025.24 86430.95 -134930 86621.43 -134834.76 87097.62 -134834.76 87288.1 -134930 87383.33 -135025.24 87478.57 -135215.71 87478.57 -135406.19 87383.33 -135691.9 86240.48 -136834.76 87478.57 -136834.76 M 89859.52 -136834.76 89859.52 -134834.76 M 90716.67 -136834.76 90716.67 -135787.14 90621.43 -135596.67 90430.95 -135501.43 90145.24 -135501.43 89954.76 -135596.67 89859.52 -135691.9 M 91954.76 -136834.76 91764.29 -136739.52 91669.05 -136644.28 91573.81 -136453.81 91573.81 -135882.38 91669.05 -135691.9 91764.29 -135596.67 91954.76 -135501.43 92240.48 -135501.43 92430.95 -135596.67 92526.19 -135691.9 92621.43 -135882.38 92621.43 -136453.81 92526.19 -136644.28 92430.95 -136739.52 92240.48 -136834.76 91954.76 -136834.76 M 93764.29 -136834.76 93573.81 -136739.52 93478.57 -136549.05 93478.57 -134834.76 M 95288.1 -136739.52 95097.62 -136834.76 94716.67 -136834.76 94526.19 -136739.52 94430.95 -136549.05 94430.95 -135787.14 94526.19 -135596.67 94716.67 -135501.43 95097.62 -135501.43 95288.1 -135596.67 95383.33 -135787.14 95383.33 -135977.62 94430.95 -136168.09 M 96145.24 -136739.52 96335.71 -136834.76 96716.67 -136834.76 96907.14 -136739.52 97002.38 -136549.05 97002.38 -136453.81 96907.14 -136263.33 96716.67 -136168.09 96430.95 -136168.09 96240.48 -136072.86 96145.24 -135882.38 96145.24 -135787.14 96240.48 -135596.67 96430.95 -135501.43 96716.67 -135501.43 96907.14 -135596.67 M 97669.05 -137596.67 97764.29 -137501.43 97954.76 -137215.71 98050 -137025.24 98145.24 -136739.52 98240.48 -136263.33 98240.48 -135882.38 98145.24 -135406.19 98050 -135120.48 97954.76 -134930 97764.29 -134644.28 97669.05 -134549.05 M 47950 -137730 49950 -139730 M 49950 -137730 47950 -139730 M 48950 -139730 49950 -138730 48950 -137730 47950 -138730 48950 -139730 M 52335.71 -137634.76 53573.81 -137634.76 52907.14 -138396.67 53192.86 -138396.67 53383.33 -138491.9 53478.57 -138587.14 53573.81 -138777.62 53573.81 -139253.81 53478.57 -139444.28 53383.33 -139539.52 53192.86 -139634.76 52621.43 -139634.76 52430.95 -139539.52 52335.71 -139444.28 M 54430.95 -139444.28 54526.19 -139539.52 54430.95 -139634.76 54335.71 -139539.52 54430.95 -139444.28 54430.95 -139634.76 M 55288.1 -137825.24 55383.33 -137730 55573.81 -137634.76 56050 -137634.76 56240.48 -137730 56335.71 -137825.24 56430.95 -138015.71 56430.95 -138206.19 56335.71 -138491.9 55192.86 -139634.76 56430.95 -139634.76 M 58240.48 -137634.76 57288.09 -137634.76 57192.86 -138587.14 57288.09 -138491.9 57478.57 -138396.67 57954.76 -138396.67 58145.24 -138491.9 58240.48 -138587.14 58335.71 -138777.62 58335.71 -139253.81 58240.48 -139444.28 58145.24 -139539.52 57954.76 -139634.76 57478.57 -139634.76 57288.09 -139539.52 57192.86 -139444.28 M 59573.81 -137634.76 59764.28 -137634.76 59954.76 -137730 60050 -137825.24 60145.24 -138015.71 60240.48 -138396.67 60240.48 -138872.86 60145.24 -139253.81 60050 -139444.28 59954.76 -139539.52 59764.28 -139634.76 59573.81 -139634.76 59383.33 -139539.52 59288.09 -139444.28 59192.86 -139253.81 59097.62 -138872.86 59097.62 -138396.67 59192.86 -138015.71 59288.09 -137825.24 59383.33 -137730 59573.81 -137634.76 M 61097.62 -139634.76 61097.62 -138301.43 M 61097.62 -138491.9 61192.86 -138396.67 61383.33 -138301.43 61669.05 -138301.43 61859.52 -138396.67 61954.76 -138587.14 61954.76 -139634.76 M 61954.76 -138587.14 62050 -138396.67 62240.48 -138301.43 62526.19 -138301.43 62716.67 -138396.67 62811.9 -138587.14 62811.9 -139634.76 M 63764.28 -139634.76 63764.28 -138301.43 M 63764.28 -138491.9 63859.52 -138396.67 64050 -138301.43 64335.71 -138301.43 64526.19 -138396.67 64621.43 -138587.14 64621.43 -139634.76 M 64621.43 -138587.14 64716.67 -138396.67 64907.14 -138301.43 65192.86 -138301.43 65383.33 -138396.67 65478.57 -138587.14 65478.57 -139634.76 M 69383.33 -137539.52 67669.05 -140110.95 M 71954.76 -137634.76 72145.24 -137634.76 72335.71 -137730 72430.95 -137825.24 72526.19 -138015.71 72621.43 -138396.67 72621.43 -138872.86 72526.19 -139253.81 72430.95 -139444.28 72335.71 -139539.52 72145.24 -139634.76 71954.76 -139634.76 71764.28 -139539.52 71669.05 -139444.28 71573.81 -139253.81 71478.57 -138872.86 71478.57 -138396.67 71573.81 -138015.71 71669.05 -137825.24 71764.28 -137730 71954.76 -137634.76 M 73478.57 -139444.28 73573.81 -139539.52 73478.57 -139634.76 73383.33 -139539.52 73478.57 -139444.28 73478.57 -139634.76 M 75478.57 -139634.76 74335.71 -139634.76 M 74907.14 -139634.76 74907.14 -137634.76 74716.67 -137920.48 74526.19 -138110.95 74335.71 -138206.19 M 76240.48 -137825.24 76335.71 -137730 76526.19 -137634.76 77002.38 -137634.76 77192.86 -137730 77288.09 -137825.24 77383.33 -138015.71 77383.33 -138206.19 77288.09 -138491.9 76145.24 -139634.76 77383.33 -139634.76 M 78526.19 -138491.9 78335.71 -138396.67 78240.48 -138301.43 78145.24 -138110.95 78145.24 -138015.71 78240.48 -137825.24 78335.71 -137730 78526.19 -137634.76 78907.14 -137634.76 79097.62 -137730 79192.86 -137825.24 79288.09 -138015.71 79288.09 -138110.95 79192.86 -138301.43 79097.62 -138396.67 78907.14 -138491.9 78526.19 -138491.9 78335.71 -138587.14 78240.48 -138682.38 78145.24 -138872.86 78145.24 -139253.81 78240.48 -139444.28 78335.71 -139539.52 78526.19 -139634.76 78907.14 -139634.76 79097.62 -139539.52 79192.86 -139444.28 79288.09 -139253.81 79288.09 -138872.86 79192.86 -138682.38 79097.62 -138587.14 78907.14 -138491.9 M 80526.19 -137634.76 80716.67 -137634.76 80907.14 -137730 81002.38 -137825.24 81097.62 -138015.71 81192.86 -138396.67 81192.86 -138872.86 81097.62 -139253.81 81002.38 -139444.28 80907.14 -139539.52 80716.67 -139634.76 80526.19 -139634.76 80335.71 -139539.52 80240.48 -139444.28 80145.24 -139253.81 80050 -138872.86 80050 -138396.67 80145.24 -138015.71 80240.48 -137825.24 80335.71 -137730 80526.19 -137634.76 M 81954.76 -137634.76 81954.76 -138015.71 M 82716.67 -137634.76 82716.67 -138015.71 M 85669.05 -140396.67 85573.81 -140301.43 85383.33 -140015.71 85288.1 -139825.24 85192.86 -139539.52 85097.62 -139063.33 85097.62 -138682.38 85192.86 -138206.19 85288.1 -137920.48 85383.33 -137730 85573.81 -137444.28 85669.05 -137349.05 M 86335.71 -137825.24 86430.95 -137730 86621.43 -137634.76 87097.62 -137634.76 87288.1 -137730 87383.33 -137825.24 87478.57 -138015.71 87478.57 -138206.19 87383.33 -138491.9 86240.48 -139634.76 87478.57 -139634.76 M 89859.52 -139634.76 89859.52 -137634.76 M 90716.67 -139634.76 90716.67 -138587.14 90621.43 -138396.67 90430.95 -138301.43 90145.24 -138301.43 89954.76 -138396.67 89859.52 -138491.9 M 91954.76 -139634.76 91764.29 -139539.52 91669.05 -139444.28 91573.81 -139253.81 91573.81 -138682.38 91669.05 -138491.9 91764.29 -138396.67 91954.76 -138301.43 92240.48 -138301.43 92430.95 -138396.67 92526.19 -138491.9 92621.43 -138682.38 92621.43 -139253.81 92526.19 -139444.28 92430.95 -139539.52 92240.48 -139634.76 91954.76 -139634.76 M 93764.29 -139634.76 93573.81 -139539.52 93478.57 -139349.05 93478.57 -137634.76 M 95288.1 -139539.52 95097.62 -139634.76 94716.67 -139634.76 94526.19 -139539.52 94430.95 -139349.05 94430.95 -138587.14 94526.19 -138396.67 94716.67 -138301.43 95097.62 -138301.43 95288.1 -138396.67 95383.33 -138587.14 95383.33 -138777.62 94430.95 -138968.09 M 96145.24 -139539.52 96335.71 -139634.76 96716.67 -139634.76 96907.14 -139539.52 97002.38 -139349.05 97002.38 -139253.81 96907.14 -139063.33 96716.67 -138968.09 96430.95 -138968.09 96240.48 -138872.86 96145.24 -138682.38 96145.24 -138587.14 96240.48 -138396.67 96430.95 -138301.43 96716.67 -138301.43 96907.14 -138396.67 M 97669.05 -140396.67 97764.29 -140301.43 97954.76 -140015.71 98050 -139825.24 98145.24 -139539.52 98240.48 -139063.33 98240.48 -138682.38 98145.24 -138206.19 98050 -137920.48 97954.76 -137730 97764.29 -137444.28 97669.05 -137349.05 M 101288.1 -140396.67 101192.86 -140301.43 101002.38 -140015.71 100907.14 -139825.24 100811.9 -139539.52 100716.67 -139063.33 100716.67 -138682.38 100811.9 -138206.19 100907.14 -137920.48 101002.38 -137730 101192.86 -137444.28 101288.1 -137349.05 M 102050 -138301.43 102050 -139634.76 M 102050 -138491.9 102145.24 -138396.67 102335.71 -138301.43 102621.43 -138301.43 102811.9 -138396.67 102907.14 -138587.14 102907.14 -139634.76 M 104145.24 -139634.76 103954.76 -139539.52 103859.52 -139444.28 103764.29 -139253.81 103764.29 -138682.38 103859.52 -138491.9 103954.76 -138396.67 104145.24 -138301.43 104430.95 -138301.43 104621.43 -138396.67 104716.67 -138491.9 104811.9 -138682.38 104811.9 -139253.81 104716.67 -139444.28 104621.43 -139539.52 104430.95 -139634.76 104145.24 -139634.76 M 105383.33 -138301.43 106145.24 -138301.43 M 105669.05 -137634.76 105669.05 -139349.05 105764.29 -139539.52 105954.76 -139634.76 106145.24 -139634.76 M 108335.71 -138301.43 108335.71 -140301.43 M 108335.71 -138396.67 108526.19 -138301.43 108907.14 -138301.43 109097.62 -138396.67 109192.86 -138491.9 109288.1 -138682.38 109288.1 -139253.81 109192.86 -139444.28 109097.62 -139539.52 108907.14 -139634.76 108526.19 -139634.76 108335.71 -139539.52 M 110430.95 -139634.76 110240.48 -139539.52 110145.24 -139349.05 110145.24 -137634.76 M 112050 -139634.76 112050 -138587.14 111954.76 -138396.67 111764.29 -138301.43 111383.33 -138301.43 111192.86 -138396.67 M 112050 -139539.52 111859.52 -139634.76 111383.33 -139634.76 111192.86 -139539.52 111097.62 -139349.05 111097.62 -139158.57 111192.86 -138968.09 111383.33 -138872.86 111859.52 -138872.86 112050 -138777.62 M 112716.67 -138301.43 113478.57 -138301.43 M 113002.38 -137634.76 113002.38 -139349.05 113097.62 -139539.52 113288.09 -139634.76 113478.57 -139634.76 M 114907.14 -139539.52 114716.67 -139634.76 114335.71 -139634.76 114145.24 -139539.52 114050 -139349.05 114050 -138587.14 114145.24 -138396.67 114335.71 -138301.43 114716.67 -138301.43 114907.14 -138396.67 115002.38 -138587.14 115002.38 -138777.62 114050 -138968.09 M 116716.67 -139634.76 116716.67 -137634.76 M 116716.67 -139539.52 116526.19 -139634.76 116145.24 -139634.76 115954.76 -139539.52 115859.52 -139444.28 115764.28 -139253.81 115764.28 -138682.38 115859.52 -138491.9 115954.76 -138396.67 116145.24 -138301.43 116526.19 -138301.43 116716.67 -138396.67 M 117478.57 -140396.67 117573.81 -140301.43 117764.28 -140015.71 117859.52 -139825.24 117954.76 -139539.52 118050 -139063.33 118050 -138682.38 117954.76 -138206.19 117859.52 -137920.48 117764.28 -137730 117573.81 -137444.28 117478.57 -137349.05" fill="none" stroke-width="200"/></g></svg>