%FSLAX45Y45*%
G04 Gerber Fmt 4.5, Leading zero omitted, Abs format (unit mm)*
G04 Created by KiCad (PCBNEW 6.0.6-1.fc36) date 2022-07-29 11:52:06*
%MOMM*%
%LPD*%
G01*
G04 APERTURE LIST*
%TA.AperFunction,Profile*%
%ADD10C,0.100000*%
%TD*%
%ADD11C,0.200000*%
%ADD12C,0.040000*%
G04 APERTURE END LIST*
D10*
X5000000Y-16150000D02*
G75*
G03*
X5100000Y-16250000I100000J0D01*
G01*
X5100000Y-11250000D02*
G75*
G03*
X5000000Y-11350000I0J-100000D01*
G01*
X9900000Y-16250000D02*
X5100000Y-16250000D01*
X5000000Y-16150000D02*
X5000000Y-11350000D01*
X10000000Y-11350000D02*
X10000000Y-16150000D01*
X9900000Y-16250000D02*
G75*
G03*
X10000000Y-16150000I0J100000D01*
G01*
X9900000Y-11250000D02*
X5100000Y-11250000D01*
X10000000Y-11350000D02*
G75*
G03*
X9900000Y-11250000I-100000J0D01*
G01*
D11*
D12*
X5229000Y-11758500D02*
X5269000Y-11798500D01*
X5269000Y-11758500D02*
X5229000Y-11798500D01*
X5229000Y-12520500D02*
X5269000Y-12560500D01*
X5269000Y-12520500D02*
X5229000Y-12560500D01*
X5229000Y-13282500D02*
X5269000Y-13322500D01*
X5269000Y-13282500D02*
X5229000Y-13322500D01*
X5229000Y-14044500D02*
X5269000Y-14084500D01*
X5269000Y-14044500D02*
X5229000Y-14084500D01*
X5229000Y-14806500D02*
X5269000Y-14846500D01*
X5269000Y-14806500D02*
X5229000Y-14846500D01*
X5229000Y-15568500D02*
X5269000Y-15608500D01*
X5269000Y-15568500D02*
X5229000Y-15608500D01*
X5483000Y-16076500D02*
X5523000Y-16116500D01*
X5523000Y-16076500D02*
X5483000Y-16116500D01*
X5530000Y-12505000D02*
X5570000Y-12545000D01*
X5570000Y-12505000D02*
X5530000Y-12545000D01*
X5737000Y-12266500D02*
X5777000Y-12306500D01*
X5777000Y-12266500D02*
X5737000Y-12306500D01*
X5737000Y-13028500D02*
X5777000Y-13068500D01*
X5777000Y-13028500D02*
X5737000Y-13068500D01*
X5737000Y-13790500D02*
X5777000Y-13830500D01*
X5777000Y-13790500D02*
X5737000Y-13830500D01*
X5737000Y-14552500D02*
X5777000Y-14592500D01*
X5777000Y-14552500D02*
X5737000Y-14592500D01*
X5991000Y-15060500D02*
X6031000Y-15100500D01*
X6031000Y-15060500D02*
X5991000Y-15100500D01*
X5991000Y-15822500D02*
X6031000Y-15862500D01*
X6031000Y-15822500D02*
X5991000Y-15862500D01*
X6245000Y-11504500D02*
X6285000Y-11544500D01*
X6285000Y-11504500D02*
X6245000Y-11544500D01*
X6245000Y-13536500D02*
X6285000Y-13576500D01*
X6285000Y-13536500D02*
X6245000Y-13576500D01*
X6430000Y-12180000D02*
X6470000Y-12220000D01*
X6470000Y-12180000D02*
X6430000Y-12220000D01*
X6499000Y-15314500D02*
X6539000Y-15354500D01*
X6539000Y-15314500D02*
X6499000Y-15354500D01*
X6499000Y-16076500D02*
X6539000Y-16116500D01*
X6539000Y-16076500D02*
X6499000Y-16116500D01*
X6555000Y-12505000D02*
X6595000Y-12545000D01*
X6595000Y-12505000D02*
X6555000Y-12545000D01*
X6580000Y-12355000D02*
X6620000Y-12395000D01*
X6620000Y-12355000D02*
X6580000Y-12395000D01*
X7007000Y-15060500D02*
X7047000Y-15100500D01*
X7047000Y-15060500D02*
X7007000Y-15100500D01*
X7007000Y-15822500D02*
X7047000Y-15862500D01*
X7047000Y-15822500D02*
X7007000Y-15862500D01*
X7080000Y-14880000D02*
X7120000Y-14920000D01*
X7120000Y-14880000D02*
X7080000Y-14920000D01*
X7200000Y-13525045D02*
X7240000Y-13565045D01*
X7240000Y-13525045D02*
X7200000Y-13565045D01*
X7275045Y-14010000D02*
X7315045Y-14050000D01*
X7315045Y-14010000D02*
X7275045Y-14050000D01*
X7505000Y-12480000D02*
X7545000Y-12520000D01*
X7545000Y-12480000D02*
X7505000Y-12520000D01*
X7515000Y-11504500D02*
X7555000Y-11544500D01*
X7555000Y-11504500D02*
X7515000Y-11544500D01*
X7515000Y-15314500D02*
X7555000Y-15354500D01*
X7555000Y-15314500D02*
X7515000Y-15354500D01*
X7515000Y-16076500D02*
X7555000Y-16116500D01*
X7555000Y-16076500D02*
X7515000Y-16116500D01*
X7630000Y-12005000D02*
X7670000Y-12045000D01*
X7670000Y-12005000D02*
X7630000Y-12045000D01*
X7760000Y-13934955D02*
X7800000Y-13974955D01*
X7800000Y-13934955D02*
X7760000Y-13974955D01*
X7805000Y-12480000D02*
X7845000Y-12520000D01*
X7845000Y-12480000D02*
X7805000Y-12520000D01*
X7855000Y-11730000D02*
X7895000Y-11770000D01*
X7895000Y-11730000D02*
X7855000Y-11770000D01*
X7880000Y-14880000D02*
X7920000Y-14920000D01*
X7920000Y-14880000D02*
X7880000Y-14920000D01*
X8023000Y-15060500D02*
X8063000Y-15100500D01*
X8063000Y-15060500D02*
X8023000Y-15100500D01*
X8277000Y-11758500D02*
X8317000Y-11798500D01*
X8317000Y-11758500D02*
X8277000Y-11798500D01*
X8277000Y-15568500D02*
X8317000Y-15608500D01*
X8317000Y-15568500D02*
X8277000Y-15608500D01*
X8305000Y-12005000D02*
X8345000Y-12045000D01*
X8345000Y-12005000D02*
X8305000Y-12045000D01*
X8531000Y-16076500D02*
X8571000Y-16116500D01*
X8571000Y-16076500D02*
X8531000Y-16116500D01*
X8640000Y-12370000D02*
X8680000Y-12410000D01*
X8680000Y-12370000D02*
X8640000Y-12410000D01*
X8680000Y-11880000D02*
X8720000Y-11920000D01*
X8720000Y-11880000D02*
X8680000Y-11920000D01*
X8680000Y-13580000D02*
X8720000Y-13620000D01*
X8720000Y-13580000D02*
X8680000Y-13620000D01*
X8705000Y-12580000D02*
X8745000Y-12620000D01*
X8745000Y-12580000D02*
X8705000Y-12620000D01*
X8780000Y-11990050D02*
X8820000Y-12030050D01*
X8820000Y-11990050D02*
X8780000Y-12030050D01*
X8785000Y-13028500D02*
X8825000Y-13068500D01*
X8825000Y-13028500D02*
X8785000Y-13068500D01*
X8785000Y-14298500D02*
X8825000Y-14338500D01*
X8825000Y-14298500D02*
X8785000Y-14338500D01*
X8785000Y-15060500D02*
X8825000Y-15100500D01*
X8825000Y-15060500D02*
X8785000Y-15100500D01*
X8855000Y-11705000D02*
X8895000Y-11745000D01*
X8895000Y-11705000D02*
X8855000Y-11745000D01*
X8880000Y-12155000D02*
X8920000Y-12195000D01*
X8920000Y-12155000D02*
X8880000Y-12195000D01*
X8930000Y-12630000D02*
X8970000Y-12670000D01*
X8970000Y-12630000D02*
X8930000Y-12670000D01*
X8930000Y-13855000D02*
X8970000Y-13895000D01*
X8970000Y-13855000D02*
X8930000Y-13895000D01*
X9039000Y-13536500D02*
X9079000Y-13576500D01*
X9079000Y-13536500D02*
X9039000Y-13576500D01*
X9039000Y-15568500D02*
X9079000Y-15608500D01*
X9079000Y-15568500D02*
X9039000Y-15608500D01*
X9293000Y-12266500D02*
X9333000Y-12306500D01*
X9333000Y-12266500D02*
X9293000Y-12306500D01*
X9293000Y-14044500D02*
X9333000Y-14084500D01*
X9333000Y-14044500D02*
X9293000Y-14084500D01*
X9293000Y-16076500D02*
X9333000Y-16116500D01*
X9333000Y-16076500D02*
X9293000Y-16116500D01*
X9405000Y-11705000D02*
X9445000Y-11745000D01*
X9445000Y-11705000D02*
X9405000Y-11745000D01*
X9547000Y-11758500D02*
X9587000Y-11798500D01*
X9587000Y-11758500D02*
X9547000Y-11798500D01*
X9547000Y-12774500D02*
X9587000Y-12814500D01*
X9587000Y-12774500D02*
X9547000Y-12814500D01*
X9547000Y-14806500D02*
X9587000Y-14846500D01*
X9587000Y-14806500D02*
X9547000Y-14846500D01*
X9801000Y-13282500D02*
X9841000Y-13322500D01*
X9841000Y-13282500D02*
X9801000Y-13322500D01*
X9801000Y-14298500D02*
X9841000Y-14338500D01*
X9841000Y-14298500D02*
X9801000Y-14338500D01*
X9801000Y-15314500D02*
X9841000Y-15354500D01*
X9841000Y-15314500D02*
X9801000Y-15354500D01*
D11*
X5252619Y-16565476D02*
X5252619Y-16365476D01*
X5300238Y-16365476D01*
X5328810Y-16375000D01*
X5347857Y-16394048D01*
X5357381Y-16413095D01*
X5366905Y-16451190D01*
X5366905Y-16479762D01*
X5357381Y-16517857D01*
X5347857Y-16536905D01*
X5328810Y-16555952D01*
X5300238Y-16565476D01*
X5252619Y-16565476D01*
X5452619Y-16565476D02*
X5452619Y-16432143D01*
X5452619Y-16470238D02*
X5462143Y-16451190D01*
X5471667Y-16441667D01*
X5490714Y-16432143D01*
X5509762Y-16432143D01*
X5576429Y-16565476D02*
X5576429Y-16432143D01*
X5576429Y-16365476D02*
X5566905Y-16375000D01*
X5576429Y-16384524D01*
X5585952Y-16375000D01*
X5576429Y-16365476D01*
X5576429Y-16384524D01*
X5700238Y-16565476D02*
X5681190Y-16555952D01*
X5671667Y-16536905D01*
X5671667Y-16365476D01*
X5805000Y-16565476D02*
X5785952Y-16555952D01*
X5776428Y-16536905D01*
X5776428Y-16365476D01*
X6033571Y-16565476D02*
X6033571Y-16365476D01*
X6100238Y-16508333D01*
X6166905Y-16365476D01*
X6166905Y-16565476D01*
X6347857Y-16565476D02*
X6347857Y-16460714D01*
X6338333Y-16441667D01*
X6319286Y-16432143D01*
X6281190Y-16432143D01*
X6262143Y-16441667D01*
X6347857Y-16555952D02*
X6328809Y-16565476D01*
X6281190Y-16565476D01*
X6262143Y-16555952D01*
X6252619Y-16536905D01*
X6252619Y-16517857D01*
X6262143Y-16498809D01*
X6281190Y-16489286D01*
X6328809Y-16489286D01*
X6347857Y-16479762D01*
X6443095Y-16432143D02*
X6443095Y-16632143D01*
X6443095Y-16441667D02*
X6462143Y-16432143D01*
X6500238Y-16432143D01*
X6519286Y-16441667D01*
X6528809Y-16451190D01*
X6538333Y-16470238D01*
X6538333Y-16527381D01*
X6528809Y-16546428D01*
X6519286Y-16555952D01*
X6500238Y-16565476D01*
X6462143Y-16565476D01*
X6443095Y-16555952D01*
X6624048Y-16546428D02*
X6633571Y-16555952D01*
X6624048Y-16565476D01*
X6614524Y-16555952D01*
X6624048Y-16546428D01*
X6624048Y-16565476D01*
X6624048Y-16441667D02*
X6633571Y-16451190D01*
X6624048Y-16460714D01*
X6614524Y-16451190D01*
X6624048Y-16441667D01*
X6624048Y-16460714D01*
D12*
X4955000Y-16875000D02*
X4995000Y-16915000D01*
X4995000Y-16875000D02*
X4955000Y-16915000D01*
D11*
X5290714Y-16785476D02*
X5309762Y-16785476D01*
X5328810Y-16795000D01*
X5338333Y-16804524D01*
X5347857Y-16823571D01*
X5357381Y-16861667D01*
X5357381Y-16909286D01*
X5347857Y-16947381D01*
X5338333Y-16966429D01*
X5328810Y-16975952D01*
X5309762Y-16985476D01*
X5290714Y-16985476D01*
X5271667Y-16975952D01*
X5262143Y-16966429D01*
X5252619Y-16947381D01*
X5243095Y-16909286D01*
X5243095Y-16861667D01*
X5252619Y-16823571D01*
X5262143Y-16804524D01*
X5271667Y-16795000D01*
X5290714Y-16785476D01*
X5443095Y-16966429D02*
X5452619Y-16975952D01*
X5443095Y-16985476D01*
X5433571Y-16975952D01*
X5443095Y-16966429D01*
X5443095Y-16985476D01*
X5624048Y-16852143D02*
X5624048Y-16985476D01*
X5576429Y-16775952D02*
X5528810Y-16918810D01*
X5652619Y-16918810D01*
X5766905Y-16785476D02*
X5785952Y-16785476D01*
X5805000Y-16795000D01*
X5814524Y-16804524D01*
X5824048Y-16823571D01*
X5833571Y-16861667D01*
X5833571Y-16909286D01*
X5824048Y-16947381D01*
X5814524Y-16966429D01*
X5805000Y-16975952D01*
X5785952Y-16985476D01*
X5766905Y-16985476D01*
X5747857Y-16975952D01*
X5738333Y-16966429D01*
X5728809Y-16947381D01*
X5719286Y-16909286D01*
X5719286Y-16861667D01*
X5728809Y-16823571D01*
X5738333Y-16804524D01*
X5747857Y-16795000D01*
X5766905Y-16785476D01*
X5957381Y-16785476D02*
X5976428Y-16785476D01*
X5995476Y-16795000D01*
X6005000Y-16804524D01*
X6014524Y-16823571D01*
X6024048Y-16861667D01*
X6024048Y-16909286D01*
X6014524Y-16947381D01*
X6005000Y-16966429D01*
X5995476Y-16975952D01*
X5976428Y-16985476D01*
X5957381Y-16985476D01*
X5938333Y-16975952D01*
X5928809Y-16966429D01*
X5919286Y-16947381D01*
X5909762Y-16909286D01*
X5909762Y-16861667D01*
X5919286Y-16823571D01*
X5928809Y-16804524D01*
X5938333Y-16795000D01*
X5957381Y-16785476D01*
X6109762Y-16985476D02*
X6109762Y-16852143D01*
X6109762Y-16871190D02*
X6119286Y-16861667D01*
X6138333Y-16852143D01*
X6166905Y-16852143D01*
X6185952Y-16861667D01*
X6195476Y-16880714D01*
X6195476Y-16985476D01*
X6195476Y-16880714D02*
X6205000Y-16861667D01*
X6224048Y-16852143D01*
X6252619Y-16852143D01*
X6271667Y-16861667D01*
X6281190Y-16880714D01*
X6281190Y-16985476D01*
X6376428Y-16985476D02*
X6376428Y-16852143D01*
X6376428Y-16871190D02*
X6385952Y-16861667D01*
X6405000Y-16852143D01*
X6433571Y-16852143D01*
X6452619Y-16861667D01*
X6462143Y-16880714D01*
X6462143Y-16985476D01*
X6462143Y-16880714D02*
X6471667Y-16861667D01*
X6490714Y-16852143D01*
X6519286Y-16852143D01*
X6538333Y-16861667D01*
X6547857Y-16880714D01*
X6547857Y-16985476D01*
X6938333Y-16775952D02*
X6766905Y-17033095D01*
X7195476Y-16785476D02*
X7214524Y-16785476D01*
X7233571Y-16795000D01*
X7243095Y-16804524D01*
X7252619Y-16823571D01*
X7262143Y-16861667D01*
X7262143Y-16909286D01*
X7252619Y-16947381D01*
X7243095Y-16966429D01*
X7233571Y-16975952D01*
X7214524Y-16985476D01*
X7195476Y-16985476D01*
X7176428Y-16975952D01*
X7166905Y-16966429D01*
X7157381Y-16947381D01*
X7147857Y-16909286D01*
X7147857Y-16861667D01*
X7157381Y-16823571D01*
X7166905Y-16804524D01*
X7176428Y-16795000D01*
X7195476Y-16785476D01*
X7347857Y-16966429D02*
X7357381Y-16975952D01*
X7347857Y-16985476D01*
X7338333Y-16975952D01*
X7347857Y-16966429D01*
X7347857Y-16985476D01*
X7481190Y-16785476D02*
X7500238Y-16785476D01*
X7519286Y-16795000D01*
X7528809Y-16804524D01*
X7538333Y-16823571D01*
X7547857Y-16861667D01*
X7547857Y-16909286D01*
X7538333Y-16947381D01*
X7528809Y-16966429D01*
X7519286Y-16975952D01*
X7500238Y-16985476D01*
X7481190Y-16985476D01*
X7462143Y-16975952D01*
X7452619Y-16966429D01*
X7443095Y-16947381D01*
X7433571Y-16909286D01*
X7433571Y-16861667D01*
X7443095Y-16823571D01*
X7452619Y-16804524D01*
X7462143Y-16795000D01*
X7481190Y-16785476D01*
X7738333Y-16985476D02*
X7624048Y-16985476D01*
X7681190Y-16985476D02*
X7681190Y-16785476D01*
X7662143Y-16814048D01*
X7643095Y-16833095D01*
X7624048Y-16842619D01*
X7919286Y-16785476D02*
X7824048Y-16785476D01*
X7814524Y-16880714D01*
X7824048Y-16871190D01*
X7843095Y-16861667D01*
X7890714Y-16861667D01*
X7909762Y-16871190D01*
X7919286Y-16880714D01*
X7928809Y-16899762D01*
X7928809Y-16947381D01*
X7919286Y-16966429D01*
X7909762Y-16975952D01*
X7890714Y-16985476D01*
X7843095Y-16985476D01*
X7824048Y-16975952D01*
X7814524Y-16966429D01*
X7995476Y-16785476D02*
X8128809Y-16785476D01*
X8043095Y-16985476D01*
X8195476Y-16785476D02*
X8195476Y-16823571D01*
X8271667Y-16785476D02*
X8271667Y-16823571D01*
X8566905Y-17061667D02*
X8557381Y-17052143D01*
X8538333Y-17023571D01*
X8528810Y-17004524D01*
X8519286Y-16975952D01*
X8509762Y-16928333D01*
X8509762Y-16890238D01*
X8519286Y-16842619D01*
X8528810Y-16814048D01*
X8538333Y-16795000D01*
X8557381Y-16766428D01*
X8566905Y-16756905D01*
X8728810Y-16785476D02*
X8690714Y-16785476D01*
X8671667Y-16795000D01*
X8662143Y-16804524D01*
X8643095Y-16833095D01*
X8633571Y-16871190D01*
X8633571Y-16947381D01*
X8643095Y-16966429D01*
X8652619Y-16975952D01*
X8671667Y-16985476D01*
X8709762Y-16985476D01*
X8728810Y-16975952D01*
X8738333Y-16966429D01*
X8747857Y-16947381D01*
X8747857Y-16899762D01*
X8738333Y-16880714D01*
X8728810Y-16871190D01*
X8709762Y-16861667D01*
X8671667Y-16861667D01*
X8652619Y-16871190D01*
X8643095Y-16880714D01*
X8633571Y-16899762D01*
X8919286Y-16852143D02*
X8919286Y-16985476D01*
X8871667Y-16775952D02*
X8824048Y-16918810D01*
X8947857Y-16918810D01*
X9176429Y-16985476D02*
X9176429Y-16785476D01*
X9262143Y-16985476D02*
X9262143Y-16880714D01*
X9252619Y-16861667D01*
X9233571Y-16852143D01*
X9205000Y-16852143D01*
X9185952Y-16861667D01*
X9176429Y-16871190D01*
X9385952Y-16985476D02*
X9366905Y-16975952D01*
X9357381Y-16966429D01*
X9347857Y-16947381D01*
X9347857Y-16890238D01*
X9357381Y-16871190D01*
X9366905Y-16861667D01*
X9385952Y-16852143D01*
X9414524Y-16852143D01*
X9433571Y-16861667D01*
X9443095Y-16871190D01*
X9452619Y-16890238D01*
X9452619Y-16947381D01*
X9443095Y-16966429D01*
X9433571Y-16975952D01*
X9414524Y-16985476D01*
X9385952Y-16985476D01*
X9566905Y-16985476D02*
X9547857Y-16975952D01*
X9538333Y-16956905D01*
X9538333Y-16785476D01*
X9719286Y-16975952D02*
X9700238Y-16985476D01*
X9662143Y-16985476D01*
X9643095Y-16975952D01*
X9633571Y-16956905D01*
X9633571Y-16880714D01*
X9643095Y-16861667D01*
X9662143Y-16852143D01*
X9700238Y-16852143D01*
X9719286Y-16861667D01*
X9728810Y-16880714D01*
X9728810Y-16899762D01*
X9633571Y-16918810D01*
X9805000Y-16975952D02*
X9824048Y-16985476D01*
X9862143Y-16985476D01*
X9881190Y-16975952D01*
X9890714Y-16956905D01*
X9890714Y-16947381D01*
X9881190Y-16928333D01*
X9862143Y-16918810D01*
X9833571Y-16918810D01*
X9814524Y-16909286D01*
X9805000Y-16890238D01*
X9805000Y-16880714D01*
X9814524Y-16861667D01*
X9833571Y-16852143D01*
X9862143Y-16852143D01*
X9881190Y-16861667D01*
X9957381Y-17061667D02*
X9966905Y-17052143D01*
X9985952Y-17023571D01*
X9995476Y-17004524D01*
X10005000Y-16975952D01*
X10014524Y-16928333D01*
X10014524Y-16890238D01*
X10005000Y-16842619D01*
X9995476Y-16814048D01*
X9985952Y-16795000D01*
X9966905Y-16766428D01*
X9957381Y-16756905D01*
M02*
