M48
; DRILL file {KiCad 6.0.6-1.fc36} date Sun 31 Jul 2022 18:36:52 CEST
; FORMAT={-:-/ absolute / inch / decimal}
; #@! TF.CreationDate,2022-07-31T18:36:52+02:00
; #@! TF.GenerationSoftware,Kicad,Pcbnew,6.0.6-1.fc36
; #@! TF.FileFunction,Plated,1,2,PTH
FMAT,2
INCH
; #@! TA.AperFunction,Plated,PTH,ViaDrill
T1C0.0157
%
G90
G05
T1
X2.0665Y-4.6372
X2.0665Y-4.9372
X2.0665Y-5.2372
X2.0665Y-5.5372
X2.0665Y-5.8372
X2.0665Y-6.1372
X2.1665Y-6.3372
X2.185Y-4.9311
X2.2665Y-4.8372
X2.2665Y-5.1372
X2.2665Y-5.4372
X2.2665Y-5.7372
X2.3665Y-5.9372
X2.3665Y-6.2372
X2.4665Y-4.5372
X2.4665Y-5.3372
X2.5394Y-4.8031
X2.5665Y-6.0372
X2.5665Y-6.3372
X2.5886Y-4.9311
X2.5984Y-4.872
X2.7665Y-5.9372
X2.7665Y-6.2372
X2.7953Y-5.8661
X2.8425Y-5.3327
X2.8721Y-5.5236
X2.9626Y-4.9213
X2.9665Y-4.5372
X2.9665Y-6.0372
X2.9665Y-6.3372
X3.0118Y-4.7343
X3.063Y-5.4941
X3.0807Y-4.9213
X3.1004Y-4.626
X3.1102Y-5.8661
X3.1665Y-5.9372
X3.2665Y-4.6372
X3.2665Y-6.1372
X3.2776Y-4.7343
X3.3665Y-6.3372
X3.4094Y-4.878
X3.4252Y-4.685
X3.4252Y-5.3543
X3.435Y-4.9606
X3.4646Y-4.7284
X3.4665Y-5.1372
X3.4665Y-5.6372
X3.4665Y-5.9372
X3.4941Y-4.6161
X3.5039Y-4.7933
X3.5236Y-4.9803
X3.5236Y-5.4626
X3.5665Y-5.3372
X3.5665Y-6.1372
X3.6665Y-4.8372
X3.6665Y-5.5372
X3.6665Y-6.3372
X3.7106Y-4.6161
X3.7665Y-4.6372
X3.7665Y-5.0372
X3.7665Y-5.8372
X3.8665Y-5.2372
X3.8665Y-5.6372
X3.8665Y-6.0372
T0
M30
