M48
; DRILL file {KiCad 6.0.6-1.fc36} date Fri 29 Jul 2022 12:49:36 CEST
; FORMAT={-:-/ absolute / metric / decimal}
; #@! TF.CreationDate,2022-07-29T12:49:36+02:00
; #@! TF.GenerationSoftware,Kicad,Pcbnew,6.0.6-1.fc36
; #@! TF.FileFunction,MixedPlating,1,2
FMAT,2
METRIC
; #@! TA.AperFunction,Plated,PTH,ViaDrill
T1C0.400
%
G90
G05
T1
X52.49Y-117.785
X52.49Y-125.405
X52.49Y-133.025
X52.49Y-140.645
X52.49Y-148.265
X52.49Y-155.885
X55.03Y-160.965
X55.5Y-125.25
X57.57Y-122.865
X57.57Y-130.485
X57.57Y-138.105
X57.57Y-145.725
X60.11Y-150.805
X60.11Y-158.425
X62.65Y-115.245
X62.65Y-135.565
X64.5Y-122.0
X65.19Y-140.645
X65.19Y-153.345
X65.75Y-125.25
X66.0Y-123.75
X67.73Y-145.725
X67.73Y-158.425
X70.27Y-127.945
X70.27Y-135.565
X70.27Y-150.805
X71.0Y-149.0
X72.2Y-135.45
X72.81Y-143.185
X72.95Y-140.3
X75.25Y-125.0
X75.35Y-115.245
X75.35Y-130.485
X75.35Y-148.265
X75.35Y-158.425
X76.5Y-120.25
X77.8Y-139.55
X77.89Y-153.345
X78.25Y-125.0
X78.75Y-117.5
X79.0Y-149.0
X80.43Y-127.945
X80.43Y-135.565
X82.97Y-117.785
X82.97Y-140.645
X82.97Y-148.265
X82.97Y-155.885
X83.25Y-120.25
X86.6Y-123.9
X87.0Y-119.0
X87.0Y-136.0
X87.25Y-126.0
X88.0Y-120.1
X88.05Y-130.485
X88.05Y-143.185
X88.05Y-150.805
X88.05Y-158.425
X88.75Y-117.25
X89.0Y-121.75
X89.5Y-126.5
X89.5Y-138.75
X90.59Y-135.565
X93.13Y-122.865
X93.13Y-140.645
X93.13Y-155.885
X94.25Y-117.25
X95.67Y-117.785
X95.67Y-127.945
X95.67Y-148.265
X98.21Y-133.025
X98.21Y-143.185
X98.21Y-153.345
X98.21Y-160.965
T0
M30
