G04 #@! TF.GenerationSoftware,KiCad,Pcbnew,6.0.6-1.fc36*
G04 #@! TF.CreationDate,2022-07-29T12:49:35+02:00*
G04 #@! TF.ProjectId,CosmicWatch-ventidue,436f736d-6963-4576-9174-63682d76656e,rev?*
G04 #@! TF.SameCoordinates,Original*
G04 #@! TF.FileFunction,Copper,L2,Bot*
G04 #@! TF.FilePolarity,Positive*
%FSLAX46Y46*%
G04 Gerber Fmt 4.6, Leading zero omitted, Abs format (unit mm)*
G04 Created by KiCad (PCBNEW 6.0.6-1.fc36) date 2022-07-29 12:49:35*
%MOMM*%
%LPD*%
G01*
G04 APERTURE LIST*
G04 Aperture macros list*
%AMRoundRect*
0 Rectangle with rounded corners*
0 $1 Rounding radius*
0 $2 $3 $4 $5 $6 $7 $8 $9 X,Y pos of 4 corners*
0 Add a 4 corners polygon primitive as box body*
4,1,4,$2,$3,$4,$5,$6,$7,$8,$9,$2,$3,0*
0 Add four circle primitives for the rounded corners*
1,1,$1+$1,$2,$3*
1,1,$1+$1,$4,$5*
1,1,$1+$1,$6,$7*
1,1,$1+$1,$8,$9*
0 Add four rect primitives between the rounded corners*
20,1,$1+$1,$2,$3,$4,$5,0*
20,1,$1+$1,$4,$5,$6,$7,0*
20,1,$1+$1,$6,$7,$8,$9,0*
20,1,$1+$1,$8,$9,$2,$3,0*%
%AMFreePoly0*
4,1,219,1.346005,3.150048,1.346010,3.150049,1.351005,3.149050,1.357000,3.149050,1.363008,3.148049,1.368012,3.146048,1.374008,3.145049,1.379022,3.143045,1.385022,3.140045,1.390026,3.138043,1.405026,3.129043,1.409029,3.125041,1.414026,3.122043,1.422035,3.114035,1.422043,3.114026,1.425041,3.109029,1.429035,3.105035,1.429043,3.105026,1.438046,3.090019,1.440045,3.085022,
1.443046,3.079019,1.445046,3.074019,1.446048,3.068014,1.448046,3.063019,1.449050,3.057000,1.449050,3.051005,1.450049,3.046010,1.450050,1.450050,3.036000,1.450050,3.043007,1.449050,3.049000,1.449050,3.049008,1.449046,3.049016,1.449047,3.055012,1.447048,3.061016,1.446047,3.079026,1.440043,3.084026,1.437043,3.090026,1.434043,3.095028,1.431042,3.101031,1.427039,
3.106035,1.423035,3.110031,1.419039,3.115031,1.415039,3.119039,1.410031,3.123039,1.406031,3.127042,1.401028,3.131043,1.395026,3.134045,1.390022,3.137043,1.384026,3.140043,1.379026,3.146049,1.361008,3.147048,1.355012,3.149048,1.349015,3.149047,1.349007,3.149050,1.349000,3.149050,1.343000,3.150050,1.336000,3.150050,-1.346000,3.149050,-1.351005,3.149050,-1.357000,
3.148049,-1.363008,3.146048,-1.368014,3.145049,-1.374008,3.143045,-1.379023,3.140045,-1.385022,3.138043,-1.390026,3.129043,-1.405026,3.125042,-1.409028,3.122043,-1.414026,3.114035,-1.422035,3.114026,-1.422043,3.109029,-1.425042,3.105035,-1.429035,3.105026,-1.429043,3.090026,-1.438043,3.085022,-1.440045,3.079018,-1.443046,3.074019,-1.445046,3.068012,-1.446048,3.063019,-1.448046,
3.057000,-1.449050,3.051005,-1.449050,3.046010,-1.450049,1.450050,-1.450050,1.450050,-3.036000,1.449050,-3.043000,1.449050,-3.049000,1.449047,-3.049007,1.449048,-3.049015,1.447048,-3.055012,1.446048,-3.061015,1.440047,-3.079016,1.437045,-3.084023,1.434043,-3.090026,1.431042,-3.095028,1.427039,-3.101031,1.423035,-3.106035,1.419039,-3.110031,1.415039,-3.115031,1.410031,-3.119039,
1.406031,-3.123039,1.401028,-3.127042,1.395026,-3.131043,1.390022,-3.134045,1.384026,-3.137043,1.379026,-3.140043,1.361008,-3.146049,1.355012,-3.147048,1.349016,-3.149047,1.349008,-3.149046,1.349000,-3.149050,1.343007,-3.149050,1.336000,-3.150050,-1.346000,-3.150050,-1.351005,-3.149050,-1.357000,-3.149050,-1.363008,-3.148049,-1.368014,-3.146048,-1.374008,-3.145049,-1.379023,-3.143045,
-1.385022,-3.140045,-1.390026,-3.138043,-1.405026,-3.129043,-1.409029,-3.125041,-1.414026,-3.122043,-1.422035,-3.114035,-1.422043,-3.114026,-1.425041,-3.109029,-1.429035,-3.105035,-1.429043,-3.105026,-1.438043,-3.090026,-1.440045,-3.085022,-1.443046,-3.079018,-1.445046,-3.074019,-1.446048,-3.068012,-1.448046,-3.063019,-1.449050,-3.057000,-1.449050,-3.051005,-1.450049,-3.046010,-1.450050,-1.450050,
-3.046000,-1.450050,-3.051005,-1.449050,-3.057000,-1.449050,-3.063008,-1.448049,-3.068014,-1.446048,-3.074008,-1.445049,-3.079023,-1.443045,-3.085022,-1.440045,-3.090026,-1.438043,-3.105026,-1.429043,-3.109029,-1.425042,-3.114026,-1.422043,-3.122035,-1.414035,-3.122043,-1.414026,-3.125042,-1.409028,-3.129035,-1.405035,-3.129043,-1.405026,-3.138043,-1.390026,-3.140045,-1.385022,-3.143046,-1.379018,
-3.145046,-1.374019,-3.146048,-1.368012,-3.148046,-1.363019,-3.149050,-1.357000,-3.149050,-1.351005,-3.150049,-1.346010,-3.150050,1.327000,-3.149049,1.334009,-3.148049,1.340008,-3.146050,1.354007,-3.144046,1.360020,-3.141046,1.367020,-3.139045,1.373022,-3.133042,1.385028,-3.129039,1.391031,-3.125042,1.396028,-3.121039,1.402031,-3.117035,1.407035,-3.107031,1.417039,-3.102028,1.421042,
-3.096027,1.425042,-3.091028,1.429042,-3.085022,1.433045,-3.073023,1.439045,-3.067015,1.441048,-3.060016,1.444047,-3.054015,1.446048,-3.040008,1.448049,-3.034007,1.449049,-3.027000,1.450050,-1.450050,1.450050,-1.450050,3.046000,-1.449050,3.051005,-1.449050,3.057000,-1.448049,3.063008,-1.446048,3.068012,-1.445049,3.074008,-1.443045,3.079022,-1.440045,3.085022,-1.438043,3.090026,
-1.429043,3.105026,-1.425041,3.109029,-1.422043,3.114026,-1.414035,3.122035,-1.414026,3.122043,-1.409029,3.125041,-1.405035,3.129035,-1.405026,3.129043,-1.390019,3.138046,-1.385022,3.140045,-1.379019,3.143046,-1.374019,3.145046,-1.368014,3.146048,-1.363019,3.148046,-1.357000,3.149050,-1.351005,3.149050,-1.346010,3.150049,1.346000,3.150050,1.346005,3.150048,1.346005,3.150048,
$1*%
G04 Aperture macros list end*
G04 #@! TA.AperFunction,SMDPad,CuDef*
%ADD10RoundRect,0.090000X0.210000X-0.647500X0.210000X0.647500X-0.210000X0.647500X-0.210000X-0.647500X0*%
G04 #@! TD*
G04 #@! TA.AperFunction,SMDPad,CuDef*
%ADD11RoundRect,0.090000X-0.647500X-0.210000X0.647500X-0.210000X0.647500X0.210000X-0.647500X0.210000X0*%
G04 #@! TD*
G04 #@! TA.AperFunction,SMDPad,CuDef*
%ADD12RoundRect,0.090000X-0.210000X0.647500X-0.210000X-0.647500X0.210000X-0.647500X0.210000X0.647500X0*%
G04 #@! TD*
G04 #@! TA.AperFunction,SMDPad,CuDef*
%ADD13RoundRect,0.090000X0.647500X0.210000X-0.647500X0.210000X-0.647500X-0.210000X0.647500X-0.210000X0*%
G04 #@! TD*
G04 #@! TA.AperFunction,SMDPad,CuDef*
%ADD14FreePoly0,180.000000*%
G04 #@! TD*
G04 #@! TA.AperFunction,ViaPad*
%ADD15C,0.800000*%
G04 #@! TD*
G04 #@! TA.AperFunction,Conductor*
%ADD16C,0.250000*%
G04 #@! TD*
G04 APERTURE END LIST*
D10*
X77850000Y-140687500D03*
D11*
X71812500Y-140350000D03*
D12*
X72150000Y-134312500D03*
D13*
X78187500Y-134650000D03*
D14*
X75000000Y-137500000D03*
D15*
X79000000Y-149000000D03*
X71000000Y-149000000D03*
X77800000Y-139549550D03*
X78250000Y-125000000D03*
X87000000Y-136000000D03*
X89500000Y-138750000D03*
X89500000Y-126500000D03*
X72200000Y-135450450D03*
X72950450Y-140300000D03*
X86600000Y-123900000D03*
X88000000Y-120100500D03*
X88750000Y-117250000D03*
X87000000Y-119000000D03*
X65750000Y-125250000D03*
X94250000Y-117250000D03*
X55500000Y-125250000D03*
X89000000Y-121750000D03*
X66000000Y-123750000D03*
X75250000Y-125000000D03*
X78750000Y-117500000D03*
X83250000Y-120250000D03*
X87250000Y-126000000D03*
X64500000Y-122000000D03*
X76500000Y-120250000D03*
X60110000Y-150805000D03*
X52490000Y-125405000D03*
X52490000Y-140645000D03*
X82970000Y-155885000D03*
X95670000Y-127945000D03*
X70270000Y-150805000D03*
X75350000Y-130485000D03*
X77890000Y-153345000D03*
X88050000Y-150805000D03*
X57570000Y-122865000D03*
X65190000Y-140645000D03*
X62650000Y-115245000D03*
X52490000Y-133025000D03*
X52490000Y-148265000D03*
X95670000Y-117785000D03*
X55030000Y-160965000D03*
X82970000Y-117785000D03*
X67730000Y-145725000D03*
X93130000Y-155885000D03*
X75350000Y-115245000D03*
X75350000Y-148265000D03*
X88050000Y-130485000D03*
X80430000Y-135565000D03*
X67730000Y-158425000D03*
X70270000Y-135565000D03*
X52490000Y-155885000D03*
X95670000Y-148265000D03*
X82970000Y-140645000D03*
X57570000Y-145725000D03*
X98210000Y-133025000D03*
X52490000Y-117785000D03*
X60110000Y-158425000D03*
X75350000Y-158425000D03*
X88050000Y-158425000D03*
X65190000Y-153345000D03*
X70270000Y-127945000D03*
X82970000Y-148265000D03*
X57570000Y-138105000D03*
X72810000Y-143185000D03*
X98210000Y-143185000D03*
X90590000Y-135565000D03*
X93130000Y-122865000D03*
X88050000Y-143185000D03*
X98210000Y-160965000D03*
X80430000Y-127945000D03*
X93130000Y-140645000D03*
X57570000Y-130485000D03*
X98210000Y-153345000D03*
X62650000Y-135565000D03*
D16*
X71000000Y-149000000D02*
X79000000Y-149000000D01*
X77825000Y-140662500D02*
X77850000Y-140687500D01*
X77800000Y-139549550D02*
X77800000Y-140602144D01*
X77825013Y-140662487D02*
G75*
G02*
X77800000Y-140602144I60387J60387D01*
G01*
X65750000Y-125250000D02*
X68087022Y-125250000D01*
X70413771Y-124286229D02*
X74106208Y-120593792D01*
X77947756Y-119000000D02*
X87000000Y-119000000D01*
X79875000Y-125000000D02*
X78250000Y-125000000D01*
X82649048Y-126149048D02*
X85406207Y-128906207D01*
X87000000Y-132753963D02*
X87000000Y-136000000D01*
X82649049Y-126149047D02*
G75*
G03*
X79875000Y-125000000I-2774049J-2774053D01*
G01*
X87000010Y-132753963D02*
G75*
G03*
X85406206Y-128906208I-5441610J-37D01*
G01*
X89500000Y-138750000D02*
X89500000Y-126500000D01*
X72200000Y-134397855D02*
X72200000Y-135450450D01*
X72175000Y-134337500D02*
X72150000Y-134312500D01*
X72174987Y-134337513D02*
G75*
G02*
X72200000Y-134397855I-60387J-60387D01*
G01*
X71837500Y-140325000D02*
X71812500Y-140350000D01*
X72950450Y-140300000D02*
X71897855Y-140300000D01*
X71837513Y-140325013D02*
G75*
G02*
X71897855Y-140300000I60387J-60387D01*
G01*
X86600000Y-123900000D02*
X88000000Y-122500000D01*
X88000000Y-122500000D02*
X88000000Y-120100500D01*
X94250000Y-117250000D02*
X88750000Y-117250000D01*
X55500000Y-125250000D02*
X65750000Y-125250000D01*
X88750000Y-117250000D02*
X87000000Y-119000000D01*
X77947756Y-118999955D02*
G75*
G03*
X74100001Y-120593793I44J-5441545D01*
G01*
X70413756Y-124286214D02*
G75*
G02*
X68087022Y-125250000I-2326756J2326714D01*
G01*
G04 #@! TA.AperFunction,Conductor*
G36*
X98980242Y-112702466D02*
G01*
X98985811Y-112702476D01*
X98999641Y-112705656D01*
X99013482Y-112702524D01*
X99014605Y-112702526D01*
X99026731Y-112703133D01*
X99081618Y-112708539D01*
X99143626Y-112714646D01*
X99167848Y-112719464D01*
X99294085Y-112757757D01*
X99316897Y-112767206D01*
X99363623Y-112792182D01*
X99433232Y-112829389D01*
X99453770Y-112843112D01*
X99555739Y-112926796D01*
X99573204Y-112944261D01*
X99656888Y-113046230D01*
X99670611Y-113066768D01*
X99732793Y-113183102D01*
X99742242Y-113205912D01*
X99780538Y-113332156D01*
X99785354Y-113356373D01*
X99796917Y-113473770D01*
X99797503Y-113485905D01*
X99794344Y-113499641D01*
X99797475Y-113513480D01*
X99797467Y-113518310D01*
X99799500Y-113536504D01*
X99799500Y-161462920D01*
X99797534Y-161480242D01*
X99797524Y-161485811D01*
X99794344Y-161499641D01*
X99797476Y-161513482D01*
X99797474Y-161514605D01*
X99796867Y-161526736D01*
X99785354Y-161643626D01*
X99780537Y-161667846D01*
X99742244Y-161794082D01*
X99732794Y-161816897D01*
X99703276Y-161872121D01*
X99670611Y-161933232D01*
X99656888Y-161953770D01*
X99573204Y-162055739D01*
X99555739Y-162073204D01*
X99453770Y-162156888D01*
X99433235Y-162170609D01*
X99316898Y-162232793D01*
X99294088Y-162242242D01*
X99167844Y-162280538D01*
X99143627Y-162285354D01*
X99118814Y-162287798D01*
X99026230Y-162296917D01*
X99014095Y-162297503D01*
X99000359Y-162294344D01*
X98986520Y-162297475D01*
X98981690Y-162297467D01*
X98963496Y-162299500D01*
X75187765Y-162299500D01*
X51037081Y-162299499D01*
X51019759Y-162297533D01*
X51014190Y-162297523D01*
X51000360Y-162294343D01*
X50986519Y-162297475D01*
X50985396Y-162297473D01*
X50973269Y-162296866D01*
X50856377Y-162285354D01*
X50832157Y-162280537D01*
X50705915Y-162242242D01*
X50683104Y-162232793D01*
X50566764Y-162170608D01*
X50546229Y-162156886D01*
X50444262Y-162073203D01*
X50426797Y-162055738D01*
X50343114Y-161953771D01*
X50329391Y-161933234D01*
X50296726Y-161872122D01*
X50267207Y-161816896D01*
X50257757Y-161794082D01*
X50257756Y-161794077D01*
X50219463Y-161667843D01*
X50214646Y-161643620D01*
X50203085Y-161526239D01*
X50202498Y-161514094D01*
X50205657Y-161500358D01*
X50202526Y-161486519D01*
X50202534Y-161481689D01*
X50200501Y-161463495D01*
X50200501Y-149000000D01*
X70394318Y-149000000D01*
X70414956Y-149156762D01*
X70475464Y-149302841D01*
X70571718Y-149428282D01*
X70697159Y-149524536D01*
X70843238Y-149585044D01*
X71000000Y-149605682D01*
X71008188Y-149604604D01*
X71148574Y-149586122D01*
X71156762Y-149585044D01*
X71302841Y-149524536D01*
X71428282Y-149428282D01*
X71469323Y-149374796D01*
X71526661Y-149332929D01*
X71569286Y-149325500D01*
X78430714Y-149325500D01*
X78498835Y-149345502D01*
X78530677Y-149374796D01*
X78571718Y-149428282D01*
X78697159Y-149524536D01*
X78843238Y-149585044D01*
X79000000Y-149605682D01*
X79008188Y-149604604D01*
X79148574Y-149586122D01*
X79156762Y-149585044D01*
X79302841Y-149524536D01*
X79428282Y-149428282D01*
X79524536Y-149302841D01*
X79585044Y-149156762D01*
X79605682Y-149000000D01*
X79585044Y-148843238D01*
X79524536Y-148697159D01*
X79428282Y-148571718D01*
X79302841Y-148475464D01*
X79156762Y-148414956D01*
X79000000Y-148394318D01*
X78843238Y-148414956D01*
X78697159Y-148475464D01*
X78571718Y-148571718D01*
X78566695Y-148578264D01*
X78530677Y-148625204D01*
X78473339Y-148667071D01*
X78430714Y-148674500D01*
X71569286Y-148674500D01*
X71501165Y-148654498D01*
X71469323Y-148625204D01*
X71433305Y-148578264D01*
X71428282Y-148571718D01*
X71302841Y-148475464D01*
X71156762Y-148414956D01*
X71000000Y-148394318D01*
X70843238Y-148414956D01*
X70697159Y-148475464D01*
X70571718Y-148571718D01*
X70475464Y-148697159D01*
X70414956Y-148843238D01*
X70394318Y-149000000D01*
X50200501Y-149000000D01*
X50200501Y-140603158D01*
X70874500Y-140603158D01*
X70874942Y-140606870D01*
X70876258Y-140617930D01*
X70877514Y-140628489D01*
X70881351Y-140637128D01*
X70881352Y-140637131D01*
X70916723Y-140716763D01*
X70921444Y-140727391D01*
X70998034Y-140803847D01*
X71008673Y-140808551D01*
X71008674Y-140808551D01*
X71024476Y-140815537D01*
X71097013Y-140847605D01*
X71113283Y-140849502D01*
X71118203Y-140850076D01*
X71118208Y-140850076D01*
X71121842Y-140850500D01*
X72503158Y-140850500D01*
X72511745Y-140849478D01*
X72519097Y-140848604D01*
X72519100Y-140848603D01*
X72528489Y-140847486D01*
X72537129Y-140843648D01*
X72537134Y-140843647D01*
X72563294Y-140832027D01*
X72633669Y-140822655D01*
X72662659Y-140830770D01*
X72714869Y-140852396D01*
X72793688Y-140885044D01*
X72950450Y-140905682D01*
X72958638Y-140904604D01*
X73099024Y-140886122D01*
X73107212Y-140885044D01*
X73253291Y-140824536D01*
X73308828Y-140781921D01*
X73375048Y-140756321D01*
X73444597Y-140770586D01*
X73456869Y-140778024D01*
X73477061Y-140791893D01*
X73481773Y-140795689D01*
X73480787Y-140797332D01*
X73485776Y-140800326D01*
X73486347Y-140799375D01*
X73490666Y-140802855D01*
X73489782Y-140804329D01*
X73494784Y-140807331D01*
X73494796Y-140807337D01*
X73497097Y-140808718D01*
X73497099Y-140808720D01*
X73499774Y-140810325D01*
X73499786Y-140810331D01*
X73499785Y-140810332D01*
X73499790Y-140810335D01*
X73500489Y-140810755D01*
X73500499Y-140810759D01*
X73503924Y-140812815D01*
X73503924Y-140812816D01*
X73504703Y-140813284D01*
X73504715Y-140813290D01*
X73504764Y-140813319D01*
X73504767Y-140813314D01*
X73507873Y-140814771D01*
X73508727Y-140815228D01*
X73508550Y-140815537D01*
X73508557Y-140815541D01*
X73511071Y-140816482D01*
X73516371Y-140819319D01*
X73518550Y-140820889D01*
X73518552Y-140820890D01*
X73518711Y-140820571D01*
X73519575Y-140821033D01*
X73523346Y-140823314D01*
X73523557Y-140822892D01*
X73529549Y-140825888D01*
X73529558Y-140825870D01*
X73529564Y-140825873D01*
X73529555Y-140825891D01*
X73529563Y-140825895D01*
X73539436Y-140830401D01*
X73542755Y-140831916D01*
X73542739Y-140831952D01*
X73544745Y-140832793D01*
X73545049Y-140832852D01*
X73545050Y-140832850D01*
X73545055Y-140832852D01*
X73545055Y-140832853D01*
X73545062Y-140832854D01*
X73550051Y-140834850D01*
X73550051Y-140834849D01*
X73550055Y-140834851D01*
X73549997Y-140834995D01*
X73552759Y-140836153D01*
X73553324Y-140836449D01*
X73553690Y-140835555D01*
X73557566Y-140837141D01*
X73561337Y-140838985D01*
X73561340Y-140838986D01*
X73563894Y-140839730D01*
X73563897Y-140839731D01*
X73568506Y-140841073D01*
X73576405Y-140843373D01*
X73576409Y-140843374D01*
X73576572Y-140843394D01*
X73578741Y-140843981D01*
X73578729Y-140844024D01*
X73582070Y-140844820D01*
X73585127Y-140845710D01*
X73585130Y-140845711D01*
X73587405Y-140846373D01*
X73587409Y-140846374D01*
X73593561Y-140847131D01*
X73603394Y-140849651D01*
X73603386Y-140849697D01*
X73609380Y-140850696D01*
X73609489Y-140850041D01*
X73609496Y-140850042D01*
X73609387Y-140850697D01*
X73609393Y-140850698D01*
X73614124Y-140850509D01*
X73616945Y-140850509D01*
X73621427Y-140850790D01*
X73628942Y-140851488D01*
X73633936Y-140852103D01*
X73637759Y-140852648D01*
X73637992Y-140852667D01*
X73642991Y-140853478D01*
X73642995Y-140853478D01*
X73642995Y-140853088D01*
X73643005Y-140853090D01*
X73643005Y-140853478D01*
X73646658Y-140853478D01*
X73648984Y-140853665D01*
X73653991Y-140854478D01*
X73653994Y-140854478D01*
X73653994Y-140854069D01*
X73654004Y-140854070D01*
X73654004Y-140854478D01*
X76345996Y-140854478D01*
X76345996Y-140854070D01*
X76346006Y-140854069D01*
X76346006Y-140854478D01*
X76346009Y-140854478D01*
X76351016Y-140853665D01*
X76353342Y-140853478D01*
X76356995Y-140853478D01*
X76356995Y-140853090D01*
X76357005Y-140853088D01*
X76357005Y-140853478D01*
X76357009Y-140853478D01*
X76362008Y-140852667D01*
X76362241Y-140852648D01*
X76366064Y-140852103D01*
X76371058Y-140851488D01*
X76378573Y-140850790D01*
X76383055Y-140850509D01*
X76385876Y-140850509D01*
X76390607Y-140850698D01*
X76390613Y-140850697D01*
X76390504Y-140850042D01*
X76390511Y-140850042D01*
X76390620Y-140850696D01*
X76396614Y-140849697D01*
X76396608Y-140849659D01*
X76397411Y-140849609D01*
X76405367Y-140847264D01*
X76408754Y-140846847D01*
X76408765Y-140846845D01*
X76412591Y-140846374D01*
X76412595Y-140846373D01*
X76414870Y-140845711D01*
X76414873Y-140845710D01*
X76417930Y-140844820D01*
X76421271Y-140844024D01*
X76421259Y-140843981D01*
X76423428Y-140843394D01*
X76423591Y-140843374D01*
X76423595Y-140843373D01*
X76438660Y-140838986D01*
X76438663Y-140838985D01*
X76442435Y-140837140D01*
X76445814Y-140835758D01*
X76449852Y-140834608D01*
X76449949Y-140834850D01*
X76454941Y-140832853D01*
X76454945Y-140832851D01*
X76454945Y-140832852D01*
X76454950Y-140832850D01*
X76454952Y-140832849D01*
X76459337Y-140831431D01*
X76461154Y-140830401D01*
X76460936Y-140829855D01*
X76465929Y-140827858D01*
X76465875Y-140827724D01*
X76467856Y-140826602D01*
X76470437Y-140825895D01*
X76470445Y-140825891D01*
X76470173Y-140825346D01*
X76470179Y-140825343D01*
X76470451Y-140825888D01*
X76476443Y-140822892D01*
X76476466Y-140822938D01*
X76478671Y-140822094D01*
X76480425Y-140821033D01*
X76481288Y-140820571D01*
X76481448Y-140820890D01*
X76481450Y-140820889D01*
X76483629Y-140819319D01*
X76488929Y-140816482D01*
X76491443Y-140815541D01*
X76491450Y-140815537D01*
X76491273Y-140815228D01*
X76492127Y-140814771D01*
X76495233Y-140813313D01*
X76495236Y-140813319D01*
X76495293Y-140813285D01*
X76496425Y-140812606D01*
X76496430Y-140812602D01*
X76500221Y-140810327D01*
X76500226Y-140810325D01*
X76505211Y-140807333D01*
X76505216Y-140807331D01*
X76510218Y-140804329D01*
X76509396Y-140802959D01*
X76513612Y-140799306D01*
X76514224Y-140800326D01*
X76519213Y-140797332D01*
X76518077Y-140795438D01*
X76519228Y-140794441D01*
X76544816Y-140776867D01*
X76544818Y-140776865D01*
X76549581Y-140773594D01*
X76551323Y-140771852D01*
X76552470Y-140770984D01*
X76553804Y-140769875D01*
X76558581Y-140766594D01*
X76566594Y-140758581D01*
X76569875Y-140753804D01*
X76570984Y-140752470D01*
X76571852Y-140751323D01*
X76573594Y-140749581D01*
X76591891Y-140722941D01*
X76595689Y-140718227D01*
X76597332Y-140719213D01*
X76600326Y-140714224D01*
X76599375Y-140713653D01*
X76602855Y-140709334D01*
X76604329Y-140710218D01*
X76607331Y-140705216D01*
X76607337Y-140705204D01*
X76608718Y-140702903D01*
X76608720Y-140702901D01*
X76610325Y-140700226D01*
X76610326Y-140700226D01*
X76610335Y-140700210D01*
X76610540Y-140699868D01*
X76610546Y-140699856D01*
X76613325Y-140695226D01*
X76614579Y-140691984D01*
X76615231Y-140691271D01*
X76614916Y-140691112D01*
X76621499Y-140678044D01*
X76622619Y-140676307D01*
X76622892Y-140676443D01*
X76625888Y-140670451D01*
X76625870Y-140670442D01*
X76625873Y-140670436D01*
X76625891Y-140670445D01*
X76625895Y-140670437D01*
X76631916Y-140657245D01*
X76631952Y-140657261D01*
X76632793Y-140655255D01*
X76632852Y-140654951D01*
X76632850Y-140654950D01*
X76632852Y-140654945D01*
X76632853Y-140654945D01*
X76632854Y-140654938D01*
X76634850Y-140649949D01*
X76634849Y-140649949D01*
X76634851Y-140649945D01*
X76634995Y-140650003D01*
X76636153Y-140647241D01*
X76636449Y-140646676D01*
X76635555Y-140646310D01*
X76637141Y-140642434D01*
X76638985Y-140638663D01*
X76638986Y-140638660D01*
X76643373Y-140623595D01*
X76643374Y-140623591D01*
X76643394Y-140623428D01*
X76643981Y-140621259D01*
X76644024Y-140621271D01*
X76644820Y-140617930D01*
X76645711Y-140614870D01*
X76645712Y-140614866D01*
X76646373Y-140612595D01*
X76646374Y-140612591D01*
X76647131Y-140606443D01*
X76649651Y-140596612D01*
X76649696Y-140596619D01*
X76650695Y-140590626D01*
X76650041Y-140590517D01*
X76650042Y-140590504D01*
X76650697Y-140590613D01*
X76650698Y-140590607D01*
X76650509Y-140585876D01*
X76650509Y-140583058D01*
X76650791Y-140578560D01*
X76651487Y-140571063D01*
X76652096Y-140566112D01*
X76652647Y-140562244D01*
X76652665Y-140562015D01*
X76653478Y-140557010D01*
X76653478Y-140557005D01*
X76653070Y-140557005D01*
X76653070Y-140556995D01*
X76653478Y-140556995D01*
X76653478Y-140551941D01*
X76653601Y-140550420D01*
X76654478Y-140546010D01*
X76654478Y-140546006D01*
X76653977Y-140546006D01*
X76653978Y-140545996D01*
X76654478Y-140545996D01*
X76654478Y-139280478D01*
X76674480Y-139212357D01*
X76728136Y-139165864D01*
X76780478Y-139154478D01*
X77125095Y-139154478D01*
X77193216Y-139174480D01*
X77239709Y-139228136D01*
X77249813Y-139298410D01*
X77241504Y-139328695D01*
X77214956Y-139392788D01*
X77194318Y-139549550D01*
X77214956Y-139706312D01*
X77275464Y-139852391D01*
X77294440Y-139877121D01*
X77323744Y-139915311D01*
X77349344Y-139981532D01*
X77349533Y-139996559D01*
X77349500Y-139996842D01*
X77349500Y-141378158D01*
X77352514Y-141403489D01*
X77356351Y-141412128D01*
X77356352Y-141412131D01*
X77391529Y-141491326D01*
X77396444Y-141502391D01*
X77473034Y-141578847D01*
X77572013Y-141622605D01*
X77588283Y-141624502D01*
X77593203Y-141625076D01*
X77593208Y-141625076D01*
X77596842Y-141625500D01*
X78103158Y-141625500D01*
X78111745Y-141624478D01*
X78119097Y-141623604D01*
X78119100Y-141623603D01*
X78128489Y-141622486D01*
X78137128Y-141618649D01*
X78137131Y-141618648D01*
X78216763Y-141583277D01*
X78216764Y-141583276D01*
X78227391Y-141578556D01*
X78303847Y-141501966D01*
X78347605Y-141402987D01*
X78350500Y-141378158D01*
X78350500Y-139996842D01*
X78349478Y-139988255D01*
X78348604Y-139980903D01*
X78348603Y-139980900D01*
X78347486Y-139971511D01*
X78343648Y-139962871D01*
X78343647Y-139962866D01*
X78332027Y-139936706D01*
X78322655Y-139866331D01*
X78330770Y-139837341D01*
X78381884Y-139713941D01*
X78385044Y-139706312D01*
X78405682Y-139549550D01*
X78385044Y-139392788D01*
X78324536Y-139246709D01*
X78319509Y-139240158D01*
X78319507Y-139240154D01*
X78278181Y-139186296D01*
X78252581Y-139120076D01*
X78264369Y-139062603D01*
X78262053Y-139061677D01*
X78262059Y-139061662D01*
X78265507Y-139057057D01*
X78266846Y-139050527D01*
X78275692Y-139037066D01*
X78275379Y-139036850D01*
X78277900Y-139033198D01*
X78280657Y-139029753D01*
X78280414Y-139029558D01*
X78280418Y-139029552D01*
X78280428Y-139029539D01*
X78280672Y-139029734D01*
X78280676Y-139029729D01*
X78282183Y-139027179D01*
X78285709Y-139022438D01*
X78285895Y-139022205D01*
X78285895Y-139022204D01*
X78288660Y-139018749D01*
X78288416Y-139018554D01*
X78288427Y-139018538D01*
X78288672Y-139018734D01*
X78288676Y-139018729D01*
X78289890Y-139016675D01*
X78291131Y-139015431D01*
X78295131Y-139009432D01*
X78295215Y-139009488D01*
X78298475Y-139005506D01*
X78298978Y-139005918D01*
X78299073Y-139005742D01*
X78298725Y-139005542D01*
X78299299Y-139004543D01*
X78299131Y-139004431D01*
X78299135Y-139004425D01*
X78299303Y-139004537D01*
X78299307Y-139004530D01*
X78299139Y-139004418D01*
X78303133Y-138998427D01*
X78302901Y-138998273D01*
X78302905Y-138998267D01*
X78303137Y-138998422D01*
X78303141Y-138998416D01*
X78306438Y-138991675D01*
X78312456Y-138980875D01*
X78315887Y-138976453D01*
X78315889Y-138976449D01*
X78315344Y-138976177D01*
X78315357Y-138976156D01*
X78315900Y-138976428D01*
X78318887Y-138970453D01*
X78321889Y-138964449D01*
X78321871Y-138964440D01*
X78321872Y-138964438D01*
X78321890Y-138964447D01*
X78321895Y-138964437D01*
X78327916Y-138951245D01*
X78327919Y-138951229D01*
X78329051Y-138947619D01*
X78328935Y-138947569D01*
X78331939Y-138940562D01*
X78332281Y-138938895D01*
X78332854Y-138937611D01*
X78332986Y-138937655D01*
X78334983Y-138931664D01*
X78335440Y-138931816D01*
X78337733Y-138926680D01*
X78338099Y-138924701D01*
X78337984Y-138924663D01*
X78339980Y-138918676D01*
X78339261Y-138918437D01*
X78340558Y-138911445D01*
X78343341Y-138903334D01*
X78343366Y-138903340D01*
X78344130Y-138903603D01*
X78344143Y-138903534D01*
X78344373Y-138903592D01*
X78344374Y-138903588D01*
X78344692Y-138901008D01*
X78344746Y-138900769D01*
X78344750Y-138900530D01*
X78345001Y-138898494D01*
X78345004Y-138898484D01*
X78345005Y-138898484D01*
X78345363Y-138897440D01*
X78345673Y-138896697D01*
X78345782Y-138896218D01*
X78346506Y-138894108D01*
X78346507Y-138894103D01*
X78346274Y-138894056D01*
X78346286Y-138894002D01*
X78345565Y-138893913D01*
X78345889Y-138891281D01*
X78347948Y-138882838D01*
X78348425Y-138882906D01*
X78349421Y-138875931D01*
X78349882Y-138872709D01*
X78350256Y-138870288D01*
X78350270Y-138870179D01*
X78350698Y-138867607D01*
X78350845Y-138865825D01*
X78351509Y-138863116D01*
X78351518Y-138862930D01*
X78351423Y-138862916D01*
X78352421Y-138855932D01*
X78351838Y-138855849D01*
X78351839Y-138855832D01*
X78352423Y-138855915D01*
X78352424Y-138855908D01*
X78352143Y-138850462D01*
X78352232Y-138849070D01*
X78353212Y-138837225D01*
X78353311Y-138836420D01*
X78353666Y-138832012D01*
X78354478Y-138827010D01*
X78354478Y-138827005D01*
X78354070Y-138827005D01*
X78354071Y-138826994D01*
X78354478Y-138826994D01*
X78354478Y-138750000D01*
X88894318Y-138750000D01*
X88895396Y-138758188D01*
X88913868Y-138898494D01*
X88914956Y-138906762D01*
X88918116Y-138914391D01*
X88921523Y-138922615D01*
X88975464Y-139052841D01*
X89029234Y-139122915D01*
X89051877Y-139152424D01*
X89071718Y-139178282D01*
X89197159Y-139274536D01*
X89343238Y-139335044D01*
X89500000Y-139355682D01*
X89508188Y-139354604D01*
X89648574Y-139336122D01*
X89656762Y-139335044D01*
X89802841Y-139274536D01*
X89928282Y-139178282D01*
X89948124Y-139152424D01*
X89970766Y-139122915D01*
X90024536Y-139052841D01*
X90078477Y-138922615D01*
X90081884Y-138914391D01*
X90085044Y-138906762D01*
X90086133Y-138898494D01*
X90104604Y-138758188D01*
X90105682Y-138750000D01*
X90085044Y-138593238D01*
X90024536Y-138447159D01*
X89928282Y-138321718D01*
X89874796Y-138280677D01*
X89832929Y-138223339D01*
X89825500Y-138180714D01*
X89825500Y-127069286D01*
X89845502Y-127001165D01*
X89874796Y-126969323D01*
X89921736Y-126933305D01*
X89928282Y-126928282D01*
X90024536Y-126802841D01*
X90085044Y-126656762D01*
X90105682Y-126500000D01*
X90085044Y-126343238D01*
X90024536Y-126197159D01*
X89928282Y-126071718D01*
X89802841Y-125975464D01*
X89656762Y-125914956D01*
X89500000Y-125894318D01*
X89343238Y-125914956D01*
X89197159Y-125975464D01*
X89071718Y-126071718D01*
X88975464Y-126197159D01*
X88914956Y-126343238D01*
X88894318Y-126500000D01*
X88914956Y-126656762D01*
X88975464Y-126802841D01*
X89071718Y-126928282D01*
X89078264Y-126933305D01*
X89125204Y-126969323D01*
X89167071Y-127026661D01*
X89174500Y-127069286D01*
X89174500Y-138180714D01*
X89154498Y-138248835D01*
X89125204Y-138280677D01*
X89071718Y-138321718D01*
X88975464Y-138447159D01*
X88914956Y-138593238D01*
X88894318Y-138750000D01*
X78354478Y-138750000D01*
X78354478Y-136154005D01*
X78354459Y-136154005D01*
X78354459Y-136153995D01*
X78354478Y-136153995D01*
X78354478Y-136153990D01*
X78353964Y-136139498D01*
X78353498Y-136137798D01*
X78353453Y-136137317D01*
X78353223Y-136135808D01*
X78352964Y-136128498D01*
X78352060Y-136125196D01*
X78351964Y-136122499D01*
X78350829Y-136118354D01*
X78350509Y-136115374D01*
X78350509Y-136114125D01*
X78350698Y-136109394D01*
X78350697Y-136109388D01*
X78350696Y-136109388D01*
X78349700Y-136103408D01*
X78349629Y-136103420D01*
X78348590Y-136097310D01*
X78346791Y-136092953D01*
X78346699Y-136092403D01*
X78346629Y-136092415D01*
X78345590Y-136086310D01*
X78342905Y-136079809D01*
X78342904Y-136079805D01*
X78340223Y-136073313D01*
X78336832Y-136061476D01*
X78337856Y-136061066D01*
X78335860Y-136056075D01*
X78335344Y-136056281D01*
X78333699Y-136050537D01*
X78334858Y-136050073D01*
X78332857Y-136045069D01*
X78329340Y-136039735D01*
X78329279Y-136039618D01*
X78329200Y-136039329D01*
X78329856Y-136039067D01*
X78327857Y-136034069D01*
X78327111Y-136034367D01*
X78325365Y-136029807D01*
X78325886Y-136029546D01*
X78322893Y-136023560D01*
X78322141Y-136023936D01*
X78317145Y-136017435D01*
X78315142Y-136012586D01*
X78315138Y-136012580D01*
X78314831Y-136012784D01*
X78311889Y-136005659D01*
X78313335Y-136004791D01*
X78307344Y-135994806D01*
X78304337Y-135989794D01*
X78299944Y-135985035D01*
X78299631Y-135984619D01*
X78297337Y-135980794D01*
X78292957Y-135976050D01*
X78292953Y-135976044D01*
X78288628Y-135971359D01*
X78280800Y-135959600D01*
X78277216Y-135955582D01*
X78277579Y-135955309D01*
X78277576Y-135955305D01*
X78273690Y-135951630D01*
X78273082Y-135950947D01*
X78273602Y-135950427D01*
X78269610Y-135946434D01*
X78269418Y-135946626D01*
X78265956Y-135942071D01*
X78266601Y-135941427D01*
X78262598Y-135937423D01*
X78262597Y-135937422D01*
X78258608Y-135933432D01*
X78258205Y-135933835D01*
X78258178Y-135933813D01*
X78258583Y-135933408D01*
X78258580Y-135933405D01*
X78253607Y-135930038D01*
X78251685Y-135928451D01*
X78251451Y-135928276D01*
X78249608Y-135926432D01*
X78249343Y-135926697D01*
X78249315Y-135926676D01*
X78249583Y-135926408D01*
X78249580Y-135926405D01*
X78244610Y-135923040D01*
X78242127Y-135920990D01*
X78240859Y-135919616D01*
X78240852Y-135919611D01*
X78240706Y-135919816D01*
X78239988Y-135919223D01*
X78240216Y-135918947D01*
X78233137Y-135913267D01*
X78231317Y-135911545D01*
X78227430Y-135907868D01*
X78227427Y-135907866D01*
X78227175Y-135908244D01*
X78221162Y-135903452D01*
X78218430Y-135900868D01*
X78218427Y-135900866D01*
X78218175Y-135901245D01*
X78218160Y-135901233D01*
X78217957Y-135901572D01*
X78217794Y-135901816D01*
X78214908Y-135900085D01*
X78209836Y-135896249D01*
X78210193Y-135895655D01*
X78205206Y-135892663D01*
X78200206Y-135889663D01*
X78195204Y-135886662D01*
X78195276Y-135886543D01*
X78195239Y-135886520D01*
X78194834Y-135887278D01*
X78176315Y-135877392D01*
X78176542Y-135876968D01*
X78176531Y-135876960D01*
X78176454Y-135877114D01*
X78171419Y-135874596D01*
X78170465Y-135874119D01*
X78170457Y-135874136D01*
X78170432Y-135874124D01*
X78170441Y-135874107D01*
X78170437Y-135874105D01*
X78169445Y-135873652D01*
X78169430Y-135873645D01*
X78168518Y-135873229D01*
X78168525Y-135873213D01*
X78168421Y-135873163D01*
X78168662Y-135872658D01*
X78168394Y-135872572D01*
X78168167Y-135873069D01*
X78157245Y-135868084D01*
X78156145Y-135867865D01*
X78155790Y-135867703D01*
X78154951Y-135867150D01*
X78154941Y-135867146D01*
X78154884Y-135867290D01*
X78154859Y-135867278D01*
X78154916Y-135867136D01*
X78149927Y-135865141D01*
X78149748Y-135865587D01*
X78144393Y-135864522D01*
X78143868Y-135864282D01*
X78143925Y-135864140D01*
X78138934Y-135862144D01*
X78138756Y-135862589D01*
X78121792Y-135859215D01*
X78110214Y-135855142D01*
X78110212Y-135855140D01*
X78107456Y-135854171D01*
X78107586Y-135853802D01*
X78107514Y-135853797D01*
X78107597Y-135853301D01*
X78101606Y-135852303D01*
X78101499Y-135852946D01*
X78096447Y-135851169D01*
X78096592Y-135850300D01*
X78090612Y-135849304D01*
X78090612Y-135849303D01*
X78090606Y-135849302D01*
X78090600Y-135849302D01*
X78087093Y-135849442D01*
X78080216Y-135848873D01*
X78080234Y-135848655D01*
X78069299Y-135847798D01*
X78069246Y-135848337D01*
X78065008Y-135847920D01*
X78063009Y-135847522D01*
X78063006Y-135847522D01*
X78063006Y-135847715D01*
X78057010Y-135846522D01*
X78057004Y-135846522D01*
X78057004Y-135847131D01*
X78056994Y-135847130D01*
X78056994Y-135846522D01*
X78051037Y-135846522D01*
X78046010Y-135845522D01*
X78046005Y-135845522D01*
X78046005Y-135846048D01*
X78045995Y-135846047D01*
X78045995Y-135845522D01*
X76780478Y-135845522D01*
X76712357Y-135825520D01*
X76665864Y-135771864D01*
X76654478Y-135719522D01*
X76654478Y-134903158D01*
X77249500Y-134903158D01*
X77252514Y-134928489D01*
X77256351Y-134937128D01*
X77256352Y-134937131D01*
X77285680Y-135003158D01*
X77296444Y-135027391D01*
X77373034Y-135103847D01*
X77472013Y-135147605D01*
X77488283Y-135149502D01*
X77493203Y-135150076D01*
X77493208Y-135150076D01*
X77496842Y-135150500D01*
X78878158Y-135150500D01*
X78886745Y-135149478D01*
X78894097Y-135148604D01*
X78894100Y-135148603D01*
X78903489Y-135147486D01*
X78912128Y-135143649D01*
X78912131Y-135143648D01*
X78991763Y-135108277D01*
X78991764Y-135108276D01*
X79002391Y-135103556D01*
X79078847Y-135026966D01*
X79122605Y-134927987D01*
X79125500Y-134903158D01*
X79125500Y-134396842D01*
X79124247Y-134386310D01*
X79123604Y-134380903D01*
X79123603Y-134380900D01*
X79122486Y-134371511D01*
X79118649Y-134362872D01*
X79118648Y-134362869D01*
X79083277Y-134283237D01*
X79083276Y-134283236D01*
X79078556Y-134272609D01*
X79001966Y-134196153D01*
X78988483Y-134190192D01*
X78950113Y-134173229D01*
X78902987Y-134152395D01*
X78886717Y-134150498D01*
X78881797Y-134149924D01*
X78881792Y-134149924D01*
X78878158Y-134149500D01*
X77496842Y-134149500D01*
X77488255Y-134150522D01*
X77480903Y-134151396D01*
X77480900Y-134151397D01*
X77471511Y-134152514D01*
X77462872Y-134156351D01*
X77462869Y-134156352D01*
X77383237Y-134191723D01*
X77383236Y-134191724D01*
X77372609Y-134196444D01*
X77296153Y-134273034D01*
X77291449Y-134283673D01*
X77291449Y-134283674D01*
X77288032Y-134291404D01*
X77252395Y-134372013D01*
X77251298Y-134381425D01*
X77250018Y-134392403D01*
X77249500Y-134396842D01*
X77249500Y-134903158D01*
X76654478Y-134903158D01*
X76654478Y-134454005D01*
X76654459Y-134454005D01*
X76654459Y-134453995D01*
X76654478Y-134453995D01*
X76654478Y-134453990D01*
X76653964Y-134439498D01*
X76653498Y-134437798D01*
X76653453Y-134437317D01*
X76653223Y-134435808D01*
X76652964Y-134428498D01*
X76652060Y-134425196D01*
X76651964Y-134422499D01*
X76650829Y-134418354D01*
X76650509Y-134415374D01*
X76650509Y-134414125D01*
X76650698Y-134409394D01*
X76650697Y-134409388D01*
X76650696Y-134409388D01*
X76649700Y-134403408D01*
X76649629Y-134403420D01*
X76648590Y-134397310D01*
X76646791Y-134392953D01*
X76646699Y-134392403D01*
X76646629Y-134392415D01*
X76645590Y-134386310D01*
X76642905Y-134379809D01*
X76642904Y-134379805D01*
X76640223Y-134373313D01*
X76636832Y-134361476D01*
X76637856Y-134361066D01*
X76635860Y-134356075D01*
X76635344Y-134356281D01*
X76633699Y-134350537D01*
X76634858Y-134350073D01*
X76632857Y-134345069D01*
X76629340Y-134339735D01*
X76629279Y-134339618D01*
X76629200Y-134339329D01*
X76629856Y-134339067D01*
X76627857Y-134334069D01*
X76627111Y-134334367D01*
X76625365Y-134329807D01*
X76625886Y-134329546D01*
X76622893Y-134323560D01*
X76622136Y-134323939D01*
X76617142Y-134317429D01*
X76615142Y-134312586D01*
X76615138Y-134312580D01*
X76614831Y-134312784D01*
X76611884Y-134305648D01*
X76613329Y-134304781D01*
X76610337Y-134299795D01*
X76607344Y-134294806D01*
X76604337Y-134289794D01*
X76599943Y-134285034D01*
X76599632Y-134284620D01*
X76597337Y-134280794D01*
X76592957Y-134276050D01*
X76592953Y-134276044D01*
X76588628Y-134271359D01*
X76580800Y-134259600D01*
X76577216Y-134255582D01*
X76577579Y-134255309D01*
X76577576Y-134255305D01*
X76573690Y-134251630D01*
X76573082Y-134250947D01*
X76573602Y-134250427D01*
X76569610Y-134246434D01*
X76569418Y-134246626D01*
X76565956Y-134242071D01*
X76566601Y-134241427D01*
X76562598Y-134237423D01*
X76562597Y-134237422D01*
X76558608Y-134233432D01*
X76558205Y-134233835D01*
X76558178Y-134233813D01*
X76558583Y-134233408D01*
X76558580Y-134233405D01*
X76553607Y-134230038D01*
X76551685Y-134228451D01*
X76551451Y-134228276D01*
X76549608Y-134226432D01*
X76549343Y-134226697D01*
X76549315Y-134226676D01*
X76549583Y-134226408D01*
X76549580Y-134226405D01*
X76544610Y-134223040D01*
X76542127Y-134220990D01*
X76540859Y-134219616D01*
X76540852Y-134219611D01*
X76540706Y-134219816D01*
X76539988Y-134219223D01*
X76540216Y-134218947D01*
X76533137Y-134213267D01*
X76531317Y-134211545D01*
X76527430Y-134207868D01*
X76527427Y-134207866D01*
X76527175Y-134208244D01*
X76521162Y-134203452D01*
X76518430Y-134200868D01*
X76518427Y-134200866D01*
X76518175Y-134201245D01*
X76518160Y-134201233D01*
X76517957Y-134201572D01*
X76517794Y-134201816D01*
X76514908Y-134200085D01*
X76509836Y-134196249D01*
X76510193Y-134195655D01*
X76505206Y-134192663D01*
X76500206Y-134189663D01*
X76495204Y-134186662D01*
X76495276Y-134186543D01*
X76495239Y-134186520D01*
X76494834Y-134187278D01*
X76476315Y-134177392D01*
X76476542Y-134176968D01*
X76476531Y-134176960D01*
X76476454Y-134177114D01*
X76471419Y-134174596D01*
X76470465Y-134174119D01*
X76470457Y-134174136D01*
X76470432Y-134174124D01*
X76470441Y-134174107D01*
X76470437Y-134174105D01*
X76469445Y-134173652D01*
X76469430Y-134173645D01*
X76468518Y-134173229D01*
X76468525Y-134173213D01*
X76468421Y-134173163D01*
X76468662Y-134172658D01*
X76468394Y-134172572D01*
X76468167Y-134173069D01*
X76467536Y-134172781D01*
X76457245Y-134168084D01*
X76456145Y-134167865D01*
X76455790Y-134167703D01*
X76454951Y-134167150D01*
X76454941Y-134167146D01*
X76454884Y-134167290D01*
X76454859Y-134167278D01*
X76454916Y-134167136D01*
X76449927Y-134165141D01*
X76449748Y-134165587D01*
X76444393Y-134164522D01*
X76443868Y-134164282D01*
X76443925Y-134164140D01*
X76438934Y-134162144D01*
X76438756Y-134162589D01*
X76421792Y-134159215D01*
X76410214Y-134155142D01*
X76410212Y-134155140D01*
X76407456Y-134154171D01*
X76407586Y-134153802D01*
X76407514Y-134153797D01*
X76407597Y-134153301D01*
X76401606Y-134152303D01*
X76401499Y-134152946D01*
X76396447Y-134151169D01*
X76396592Y-134150300D01*
X76390612Y-134149304D01*
X76390612Y-134149303D01*
X76390606Y-134149302D01*
X76390600Y-134149302D01*
X76387093Y-134149442D01*
X76380216Y-134148873D01*
X76380234Y-134148655D01*
X76369299Y-134147798D01*
X76369246Y-134148337D01*
X76365008Y-134147920D01*
X76363009Y-134147522D01*
X76363006Y-134147522D01*
X76363006Y-134147715D01*
X76357010Y-134146522D01*
X76357004Y-134146522D01*
X76357004Y-134147131D01*
X76356994Y-134147130D01*
X76356994Y-134146522D01*
X76351037Y-134146522D01*
X76346010Y-134145522D01*
X76346005Y-134145522D01*
X76346005Y-134146048D01*
X76345995Y-134146047D01*
X76345995Y-134145522D01*
X73664007Y-134145522D01*
X73664007Y-134145930D01*
X73663996Y-134145930D01*
X73663996Y-134145522D01*
X73663990Y-134145522D01*
X73659889Y-134146188D01*
X73653217Y-134146456D01*
X73653218Y-134146502D01*
X73652093Y-134146522D01*
X73651004Y-134146522D01*
X73651004Y-134146541D01*
X73650991Y-134146542D01*
X73650991Y-134146522D01*
X73650990Y-134146522D01*
X73636498Y-134147036D01*
X73633916Y-134147743D01*
X73632140Y-134147997D01*
X73631207Y-134148130D01*
X73631206Y-134148130D01*
X73628074Y-134148578D01*
X73628140Y-134149043D01*
X73627302Y-134149293D01*
X73622440Y-134150035D01*
X73617161Y-134152332D01*
X73616343Y-134152556D01*
X73611630Y-134152734D01*
X73611391Y-134151303D01*
X73605401Y-134152301D01*
X73605517Y-134152996D01*
X73605496Y-134153001D01*
X73605380Y-134152304D01*
X73605374Y-134152305D01*
X73601444Y-134153859D01*
X73597235Y-134154128D01*
X73597420Y-134154910D01*
X73590480Y-134156551D01*
X73586350Y-134157012D01*
X73586350Y-134157011D01*
X73581033Y-134158783D01*
X73580516Y-134158908D01*
X73579130Y-134159236D01*
X73574348Y-134160012D01*
X73574342Y-134160014D01*
X73574471Y-134160401D01*
X73574452Y-134160406D01*
X73574323Y-134160020D01*
X73569535Y-134161616D01*
X73569537Y-134161616D01*
X73568342Y-134162014D01*
X73568334Y-134162016D01*
X73563211Y-134163724D01*
X73563209Y-134163725D01*
X73556342Y-134166014D01*
X73556681Y-134167032D01*
X73551978Y-134169414D01*
X73549843Y-134170147D01*
X73547560Y-134170930D01*
X73545571Y-134171435D01*
X73545056Y-134170147D01*
X73545051Y-134170149D01*
X73540743Y-134172659D01*
X73540264Y-134172781D01*
X73536139Y-134174650D01*
X73533531Y-134175743D01*
X73529560Y-134177106D01*
X73529556Y-134177108D01*
X73529681Y-134177358D01*
X73526960Y-134178499D01*
X73524477Y-134180001D01*
X73524536Y-134180119D01*
X73518551Y-134183112D01*
X73518733Y-134183476D01*
X73518732Y-134183476D01*
X73518550Y-134183112D01*
X73518546Y-134183114D01*
X73516602Y-134184515D01*
X73515893Y-134184845D01*
X73515787Y-134184668D01*
X73510789Y-134187667D01*
X73510578Y-134187316D01*
X73504725Y-134190037D01*
X73504514Y-134190192D01*
X73504796Y-134190662D01*
X73502150Y-134192249D01*
X73502142Y-134192254D01*
X73499794Y-134193663D01*
X73497573Y-134195274D01*
X73495286Y-134196785D01*
X73495161Y-134196596D01*
X73491425Y-134198640D01*
X73491575Y-134198865D01*
X73486006Y-134202577D01*
X73486004Y-134202579D01*
X73485588Y-134202856D01*
X73485589Y-134202858D01*
X73485581Y-134202861D01*
X73485578Y-134202863D01*
X73481742Y-134205483D01*
X73481732Y-134205490D01*
X73478338Y-134208961D01*
X73478031Y-134209164D01*
X73473359Y-134212833D01*
X73471794Y-134213968D01*
X73471452Y-134213498D01*
X73471426Y-134213515D01*
X73471272Y-134213323D01*
X73466271Y-134217323D01*
X73460019Y-134222531D01*
X73458803Y-134224097D01*
X73457281Y-134225315D01*
X73457574Y-134225681D01*
X73457216Y-134226142D01*
X73449686Y-134232661D01*
X73449425Y-134232400D01*
X73445428Y-134236396D01*
X73445580Y-134236548D01*
X73444521Y-134237449D01*
X73440415Y-134240409D01*
X73440409Y-134240415D01*
X73438686Y-134242805D01*
X73434689Y-134247135D01*
X73432435Y-134249389D01*
X73432449Y-134249403D01*
X73432425Y-134249428D01*
X73432411Y-134249414D01*
X73432405Y-134249420D01*
X73422521Y-134260030D01*
X73421386Y-134262021D01*
X73421382Y-134262026D01*
X73418388Y-134265371D01*
X73417336Y-134266256D01*
X73417334Y-134266258D01*
X73413343Y-134271246D01*
X73413218Y-134271146D01*
X73413023Y-134271363D01*
X73412142Y-134272758D01*
X73412291Y-134272878D01*
X73411262Y-134274154D01*
X73411189Y-134274270D01*
X73409422Y-134276307D01*
X73409413Y-134276319D01*
X73407283Y-134280384D01*
X73402978Y-134285681D01*
X73402851Y-134285596D01*
X73398861Y-134291582D01*
X73398593Y-134291404D01*
X73395179Y-134298118D01*
X73393673Y-134299778D01*
X73390669Y-134304784D01*
X73390663Y-134304796D01*
X73390662Y-134304796D01*
X73390656Y-134304806D01*
X73389607Y-134306889D01*
X73389602Y-134306898D01*
X73389601Y-134306900D01*
X73389161Y-134307700D01*
X73388994Y-134308042D01*
X73388977Y-134308111D01*
X73388763Y-134308565D01*
X73387521Y-134311031D01*
X73384654Y-134315810D01*
X73384273Y-134316883D01*
X73383208Y-134318584D01*
X73383118Y-134318539D01*
X73380122Y-134324529D01*
X73380602Y-134324769D01*
X73377085Y-134331752D01*
X73375573Y-134339350D01*
X73370506Y-134348144D01*
X73369821Y-134349659D01*
X73366021Y-134356325D01*
X73366020Y-134356325D01*
X73364018Y-134362329D01*
X73364018Y-134362331D01*
X73362018Y-134368329D01*
X73362018Y-134368331D01*
X73360023Y-134374314D01*
X73360408Y-134374443D01*
X73360401Y-134374471D01*
X73360014Y-134374342D01*
X73360012Y-134374348D01*
X73359198Y-134379365D01*
X73358908Y-134380543D01*
X73358855Y-134380819D01*
X73357018Y-134386329D01*
X73356281Y-134392938D01*
X73356226Y-134393188D01*
X73354705Y-134399306D01*
X73352305Y-134405374D01*
X73352304Y-134405380D01*
X73353001Y-134405496D01*
X73352993Y-134405528D01*
X73352299Y-134405412D01*
X73351301Y-134411404D01*
X73351358Y-134411413D01*
X73349424Y-134418377D01*
X73349035Y-134418269D01*
X73348480Y-134422954D01*
X73348713Y-134422965D01*
X73348483Y-134428051D01*
X73348580Y-134428065D01*
X73347581Y-134435052D01*
X73348163Y-134435135D01*
X73348161Y-134435169D01*
X73347577Y-134435086D01*
X73347576Y-134435093D01*
X73347890Y-134441171D01*
X73347704Y-134445280D01*
X73347112Y-134451004D01*
X73346522Y-134451004D01*
X73346522Y-134456716D01*
X73346496Y-134456968D01*
X73346333Y-134458988D01*
X73345522Y-134463990D01*
X73345522Y-134463996D01*
X73345930Y-134463996D01*
X73345929Y-134464007D01*
X73345522Y-134464007D01*
X73345522Y-135719522D01*
X73325520Y-135787643D01*
X73271864Y-135834136D01*
X73219522Y-135845522D01*
X72874905Y-135845522D01*
X72806784Y-135825520D01*
X72760291Y-135771864D01*
X72750187Y-135701590D01*
X72758496Y-135671304D01*
X72781884Y-135614841D01*
X72785044Y-135607212D01*
X72805682Y-135450450D01*
X72785044Y-135293688D01*
X72724536Y-135147609D01*
X72676256Y-135084689D01*
X72650656Y-135018468D01*
X72650467Y-135003441D01*
X72650500Y-135003158D01*
X72650500Y-133621842D01*
X72647486Y-133596511D01*
X72643649Y-133587872D01*
X72643648Y-133587869D01*
X72608277Y-133508237D01*
X72608276Y-133508236D01*
X72603556Y-133497609D01*
X72526966Y-133421153D01*
X72427987Y-133377395D01*
X72411717Y-133375498D01*
X72406797Y-133374924D01*
X72406792Y-133374924D01*
X72403158Y-133374500D01*
X71896842Y-133374500D01*
X71888255Y-133375522D01*
X71880903Y-133376396D01*
X71880900Y-133376397D01*
X71871511Y-133377514D01*
X71862872Y-133381351D01*
X71862869Y-133381352D01*
X71783237Y-133416723D01*
X71783236Y-133416724D01*
X71772609Y-133421444D01*
X71696153Y-133498034D01*
X71652395Y-133597013D01*
X71649500Y-133621842D01*
X71649500Y-135003158D01*
X71649942Y-135006870D01*
X71651322Y-135018468D01*
X71652514Y-135028489D01*
X71656352Y-135037129D01*
X71656353Y-135037134D01*
X71667973Y-135063294D01*
X71677345Y-135133669D01*
X71669230Y-135162659D01*
X71614956Y-135293688D01*
X71594318Y-135450450D01*
X71614956Y-135607212D01*
X71675464Y-135753291D01*
X71680489Y-135759840D01*
X71680491Y-135759843D01*
X71698051Y-135782727D01*
X71717472Y-135808036D01*
X71743072Y-135874255D01*
X71728808Y-135943804D01*
X71714283Y-135964030D01*
X71714876Y-135964503D01*
X71711545Y-135968683D01*
X71707868Y-135972570D01*
X71707866Y-135972573D01*
X71708244Y-135972825D01*
X71703452Y-135978838D01*
X71700868Y-135981570D01*
X71700866Y-135981573D01*
X71701245Y-135981826D01*
X71701237Y-135981836D01*
X71701473Y-135981977D01*
X71701816Y-135982206D01*
X71700085Y-135985092D01*
X71696246Y-135990168D01*
X71695652Y-135989812D01*
X71692656Y-135994806D01*
X71686665Y-136004791D01*
X71685650Y-136004182D01*
X71685591Y-136004259D01*
X71687281Y-136005161D01*
X71677391Y-136023687D01*
X71677113Y-136023548D01*
X71674119Y-136029535D01*
X71674237Y-136029594D01*
X71673085Y-136031752D01*
X71672793Y-136033220D01*
X71672326Y-136034142D01*
X71672143Y-136034069D01*
X71671316Y-136036137D01*
X71671049Y-136036664D01*
X71670741Y-136037385D01*
X71670805Y-136037414D01*
X71669874Y-136039454D01*
X71669794Y-136039597D01*
X71669567Y-136040127D01*
X71667690Y-136044240D01*
X71667143Y-136045069D01*
X71665142Y-136050073D01*
X71665587Y-136050251D01*
X71664522Y-136055607D01*
X71664282Y-136056132D01*
X71664140Y-136056075D01*
X71662144Y-136061066D01*
X71662589Y-136061244D01*
X71659215Y-136078208D01*
X71655142Y-136089786D01*
X71655140Y-136089788D01*
X71654171Y-136092544D01*
X71653802Y-136092414D01*
X71653797Y-136092486D01*
X71653301Y-136092403D01*
X71652303Y-136098394D01*
X71652946Y-136098501D01*
X71651169Y-136103553D01*
X71650300Y-136103408D01*
X71649304Y-136109388D01*
X71649303Y-136109388D01*
X71649302Y-136109394D01*
X71649491Y-136114125D01*
X71649491Y-136116946D01*
X71649155Y-136122308D01*
X71648456Y-136122264D01*
X71647795Y-136130701D01*
X71648337Y-136130754D01*
X71647920Y-136134992D01*
X71647522Y-136136991D01*
X71647522Y-136136994D01*
X71647715Y-136136994D01*
X71646522Y-136142990D01*
X71646522Y-136142996D01*
X71647131Y-136142996D01*
X71647130Y-136143006D01*
X71646522Y-136143006D01*
X71646522Y-136148963D01*
X71645522Y-136153990D01*
X71645522Y-136153995D01*
X71646048Y-136153995D01*
X71646047Y-136154005D01*
X71645522Y-136154005D01*
X71645522Y-138835994D01*
X71645930Y-138835994D01*
X71645931Y-138836005D01*
X71645522Y-138836005D01*
X71645522Y-138836010D01*
X71646317Y-138840907D01*
X71646427Y-138842158D01*
X71646522Y-138843338D01*
X71646522Y-138849010D01*
X71647577Y-138854487D01*
X71647886Y-138858896D01*
X71647576Y-138864908D01*
X71647577Y-138864915D01*
X71648161Y-138864832D01*
X71648162Y-138864852D01*
X71647579Y-138864936D01*
X71648438Y-138870943D01*
X71648578Y-138871926D01*
X71648483Y-138871940D01*
X71648713Y-138877035D01*
X71648243Y-138877056D01*
X71650486Y-138888769D01*
X71651306Y-138888632D01*
X71652307Y-138894636D01*
X71652583Y-138895942D01*
X71652584Y-138895949D01*
X71654200Y-138903603D01*
X71655920Y-138911752D01*
X71657424Y-138914888D01*
X71657714Y-138915758D01*
X71657714Y-138915759D01*
X71659007Y-138919639D01*
X71657893Y-138920010D01*
X71658156Y-138926255D01*
X71660008Y-138925638D01*
X71662008Y-138931641D01*
X71662012Y-138931651D01*
X71664011Y-138937650D01*
X71664013Y-138937655D01*
X71666004Y-138943630D01*
X71666116Y-138943592D01*
X71666118Y-138943596D01*
X71666216Y-138943559D01*
X71669088Y-138951255D01*
X71670471Y-138953325D01*
X71674431Y-138962644D01*
X71675742Y-138966467D01*
X71675745Y-138966474D01*
X71677106Y-138970441D01*
X71677109Y-138970447D01*
X71677832Y-138971451D01*
X71677973Y-138971786D01*
X71680097Y-138974599D01*
X71680497Y-138975261D01*
X71680113Y-138975453D01*
X71682038Y-138979302D01*
X71683112Y-138981450D01*
X71682850Y-138981581D01*
X71684323Y-138984435D01*
X71684674Y-138984224D01*
X71687670Y-138989216D01*
X71686999Y-138989619D01*
X71689633Y-138994724D01*
X71690198Y-138995492D01*
X71690666Y-138995211D01*
X71693666Y-139000210D01*
X71693665Y-139000211D01*
X71693668Y-139000215D01*
X71696526Y-139003794D01*
X71697024Y-139004660D01*
X71698867Y-139008429D01*
X71702865Y-139014425D01*
X71702869Y-139014431D01*
X71704082Y-139016023D01*
X71704088Y-139016031D01*
X71712384Y-139026916D01*
X71712155Y-139027091D01*
X71713316Y-139028713D01*
X71713324Y-139028729D01*
X71713328Y-139028734D01*
X71713330Y-139028733D01*
X71713344Y-139028752D01*
X71713343Y-139028753D01*
X71713356Y-139028770D01*
X71713358Y-139028772D01*
X71717334Y-139033741D01*
X71717125Y-139033909D01*
X71717854Y-139034581D01*
X71719430Y-139037005D01*
X71719795Y-139036643D01*
X71721098Y-139037958D01*
X71721347Y-139037759D01*
X71725344Y-139042754D01*
X71725619Y-139042534D01*
X71730531Y-139048980D01*
X71732209Y-139050282D01*
X71732406Y-139050581D01*
X71736411Y-139054586D01*
X71736655Y-139054342D01*
X71739348Y-139056367D01*
X71742773Y-139059822D01*
X71741932Y-139060655D01*
X71745466Y-139063537D01*
X71745414Y-139063589D01*
X71749419Y-139067594D01*
X71754642Y-139071038D01*
X71757693Y-139074097D01*
X71757246Y-139074656D01*
X71762220Y-139078636D01*
X71762241Y-139078653D01*
X71762239Y-139078655D01*
X71766250Y-139082677D01*
X71766259Y-139082666D01*
X71771247Y-139086657D01*
X71771442Y-139086414D01*
X71771461Y-139086428D01*
X71771266Y-139086672D01*
X71771271Y-139086676D01*
X71775089Y-139088933D01*
X71778754Y-139091463D01*
X71778581Y-139091713D01*
X71783783Y-139095349D01*
X71785569Y-139097131D01*
X71791571Y-139101133D01*
X71795334Y-139102973D01*
X71795608Y-139103131D01*
X71799832Y-139106263D01*
X71799790Y-139106334D01*
X71804789Y-139109334D01*
X71806870Y-139110382D01*
X71806873Y-139110384D01*
X71806902Y-139110399D01*
X71807557Y-139110760D01*
X71807640Y-139110780D01*
X71807903Y-139110903D01*
X71811030Y-139112478D01*
X71815779Y-139115328D01*
X71816698Y-139115645D01*
X71818584Y-139116821D01*
X71818550Y-139116888D01*
X71819263Y-139117245D01*
X71824547Y-139119887D01*
X71824787Y-139119407D01*
X71831751Y-139122915D01*
X71834715Y-139123505D01*
X71844966Y-139129167D01*
X71845564Y-139127916D01*
X71847576Y-139128878D01*
X71847568Y-139128895D01*
X71847570Y-139128896D01*
X71848543Y-139129340D01*
X71856658Y-139133044D01*
X71855937Y-139134624D01*
X71856115Y-139134673D01*
X71856344Y-139133986D01*
X71869194Y-139138269D01*
X71869195Y-139138270D01*
X71872954Y-139139523D01*
X71872956Y-139139523D01*
X71874332Y-139139982D01*
X71874410Y-139139747D01*
X71879208Y-139140485D01*
X71879212Y-139140462D01*
X71880064Y-139140617D01*
X71880081Y-139140620D01*
X71880425Y-139140682D01*
X71880326Y-139140980D01*
X71886318Y-139142978D01*
X71886649Y-139141986D01*
X71886669Y-139141992D01*
X71886695Y-139141848D01*
X71886704Y-139141821D01*
X71892947Y-139142953D01*
X71899544Y-139146262D01*
X71900231Y-139144273D01*
X71900234Y-139144274D01*
X71905444Y-139146072D01*
X71905649Y-139146218D01*
X71905403Y-139147699D01*
X71911400Y-139148698D01*
X71911490Y-139148159D01*
X71913627Y-139148897D01*
X71913635Y-139148898D01*
X71913647Y-139148799D01*
X71916662Y-139149744D01*
X71921376Y-139149998D01*
X71926533Y-139151197D01*
X71926475Y-139151445D01*
X71928065Y-139151517D01*
X71928079Y-139151422D01*
X71935070Y-139152421D01*
X71935153Y-139151837D01*
X71935169Y-139151838D01*
X71935085Y-139152423D01*
X71935092Y-139152424D01*
X71940755Y-139152132D01*
X71944494Y-139152385D01*
X71945425Y-139152469D01*
X71950991Y-139153478D01*
X71956645Y-139153478D01*
X71960024Y-139153782D01*
X71960646Y-139153813D01*
X71963991Y-139154478D01*
X71963995Y-139154478D01*
X71963995Y-139153977D01*
X71964006Y-139153978D01*
X71964006Y-139154478D01*
X73219522Y-139154478D01*
X73287643Y-139174480D01*
X73334136Y-139228136D01*
X73345522Y-139280478D01*
X73345522Y-139625095D01*
X73325520Y-139693216D01*
X73271864Y-139739709D01*
X73201590Y-139749813D01*
X73171304Y-139741504D01*
X73114841Y-139718116D01*
X73107212Y-139714956D01*
X72950450Y-139694318D01*
X72793688Y-139714956D01*
X72647609Y-139775464D01*
X72641058Y-139780491D01*
X72584689Y-139823744D01*
X72518468Y-139849344D01*
X72503441Y-139849533D01*
X72503158Y-139849500D01*
X71121842Y-139849500D01*
X71113255Y-139850522D01*
X71105903Y-139851396D01*
X71105900Y-139851397D01*
X71096511Y-139852514D01*
X71087872Y-139856351D01*
X71087869Y-139856352D01*
X71008237Y-139891723D01*
X71008236Y-139891724D01*
X70997609Y-139896444D01*
X70921153Y-139973034D01*
X70877395Y-140072013D01*
X70874500Y-140096842D01*
X70874500Y-140603158D01*
X50200501Y-140603158D01*
X50200500Y-125250000D01*
X54894318Y-125250000D01*
X54914956Y-125406762D01*
X54975464Y-125552841D01*
X55071718Y-125678282D01*
X55197159Y-125774536D01*
X55343238Y-125835044D01*
X55500000Y-125855682D01*
X55508188Y-125854604D01*
X55648574Y-125836122D01*
X55656762Y-125835044D01*
X55802841Y-125774536D01*
X55928282Y-125678282D01*
X55969323Y-125624796D01*
X56026661Y-125582929D01*
X56069286Y-125575500D01*
X65180714Y-125575500D01*
X65248835Y-125595502D01*
X65280677Y-125624796D01*
X65321718Y-125678282D01*
X65447159Y-125774536D01*
X65593238Y-125835044D01*
X65750000Y-125855682D01*
X65758188Y-125854604D01*
X65898574Y-125836122D01*
X65906762Y-125835044D01*
X66052841Y-125774536D01*
X66178282Y-125678282D01*
X66219323Y-125624796D01*
X66276661Y-125582929D01*
X66319286Y-125575500D01*
X68047523Y-125575500D01*
X68069401Y-125577414D01*
X68076167Y-125578607D01*
X68076169Y-125578607D01*
X68087024Y-125580521D01*
X68092213Y-125579606D01*
X68270100Y-125570866D01*
X68438795Y-125562577D01*
X68438800Y-125562576D01*
X68441883Y-125562425D01*
X68675999Y-125527696D01*
X68790271Y-125510745D01*
X68790276Y-125510744D01*
X68793323Y-125510292D01*
X68904292Y-125482495D01*
X69134961Y-125424714D01*
X69134966Y-125424712D01*
X69137962Y-125423962D01*
X69140871Y-125422921D01*
X69140878Y-125422919D01*
X69291073Y-125369177D01*
X69472478Y-125304267D01*
X69610633Y-125238923D01*
X69790862Y-125153679D01*
X69790868Y-125153676D01*
X69793652Y-125152359D01*
X70047843Y-125000000D01*
X77644318Y-125000000D01*
X77664956Y-125156762D01*
X77725464Y-125302841D01*
X77821718Y-125428282D01*
X77947159Y-125524536D01*
X78031309Y-125559392D01*
X78082319Y-125580521D01*
X78093238Y-125585044D01*
X78250000Y-125605682D01*
X78258188Y-125604604D01*
X78277991Y-125601997D01*
X78406762Y-125585044D01*
X78417682Y-125580521D01*
X78468691Y-125559392D01*
X78552841Y-125524536D01*
X78678282Y-125428282D01*
X78719323Y-125374796D01*
X78776661Y-125332929D01*
X78819286Y-125325500D01*
X79835500Y-125325500D01*
X79857379Y-125327414D01*
X79875000Y-125330521D01*
X79885855Y-125328607D01*
X79890406Y-125328607D01*
X79911401Y-125327288D01*
X80221448Y-125342520D01*
X80233744Y-125343730D01*
X80570740Y-125393720D01*
X80582846Y-125396127D01*
X80913319Y-125478906D01*
X80925151Y-125482495D01*
X81245913Y-125597265D01*
X81257337Y-125601997D01*
X81565301Y-125747653D01*
X81576202Y-125753480D01*
X81707011Y-125831884D01*
X81868412Y-125928624D01*
X81878693Y-125935494D01*
X82152320Y-126138429D01*
X82161878Y-126146273D01*
X82391879Y-126354733D01*
X82405792Y-126370512D01*
X82409013Y-126373733D01*
X82415335Y-126382762D01*
X82424365Y-126389085D01*
X82424367Y-126389087D01*
X82429997Y-126393029D01*
X82446820Y-126407146D01*
X85148112Y-129108438D01*
X85162227Y-129125258D01*
X85172493Y-129139920D01*
X85181527Y-129146246D01*
X85182537Y-129147256D01*
X85201034Y-129163407D01*
X85445365Y-129427723D01*
X85451790Y-129435246D01*
X85590106Y-129610698D01*
X85692447Y-129740517D01*
X85694357Y-129742940D01*
X85700172Y-129750944D01*
X85917849Y-130076721D01*
X85923015Y-130085152D01*
X85950237Y-130133758D01*
X86114465Y-130427007D01*
X86118957Y-130435823D01*
X86282991Y-130791642D01*
X86286777Y-130800782D01*
X86422391Y-131168377D01*
X86425448Y-131177786D01*
X86531801Y-131554878D01*
X86534111Y-131564497D01*
X86591609Y-131853548D01*
X86610552Y-131948780D01*
X86612100Y-131958552D01*
X86658154Y-132347651D01*
X86658930Y-132357513D01*
X86673062Y-132717122D01*
X86671393Y-132741761D01*
X86671393Y-132743110D01*
X86669479Y-132753965D01*
X86671393Y-132764819D01*
X86671393Y-132764820D01*
X86672586Y-132771586D01*
X86674500Y-132793466D01*
X86674500Y-135430714D01*
X86654498Y-135498835D01*
X86625204Y-135530677D01*
X86571718Y-135571718D01*
X86475464Y-135697159D01*
X86414956Y-135843238D01*
X86413878Y-135851426D01*
X86411735Y-135867703D01*
X86394318Y-136000000D01*
X86399145Y-136036664D01*
X86412354Y-136136994D01*
X86414956Y-136156762D01*
X86475464Y-136302841D01*
X86571718Y-136428282D01*
X86697159Y-136524536D01*
X86843238Y-136585044D01*
X87000000Y-136605682D01*
X87008188Y-136604604D01*
X87148574Y-136586122D01*
X87156762Y-136585044D01*
X87302841Y-136524536D01*
X87428282Y-136428282D01*
X87524536Y-136302841D01*
X87585044Y-136156762D01*
X87587647Y-136136994D01*
X87600855Y-136036664D01*
X87605682Y-136000000D01*
X87588265Y-135867703D01*
X87586122Y-135851426D01*
X87585044Y-135843238D01*
X87524536Y-135697159D01*
X87428282Y-135571718D01*
X87374796Y-135530677D01*
X87332929Y-135473339D01*
X87325500Y-135430714D01*
X87325500Y-132793462D01*
X87327414Y-132771584D01*
X87328607Y-132764820D01*
X87328607Y-132764816D01*
X87330521Y-132753961D01*
X87329799Y-132749867D01*
X87312166Y-132301134D01*
X87310357Y-132285848D01*
X87259188Y-131853548D01*
X87259187Y-131853542D01*
X87258898Y-131851100D01*
X87170486Y-131406632D01*
X87169820Y-131404271D01*
X87169817Y-131404258D01*
X87048148Y-130972861D01*
X87047474Y-130970471D01*
X86890621Y-130545306D01*
X86838076Y-130431327D01*
X86701928Y-130136003D01*
X86701928Y-130136002D01*
X86700893Y-130133758D01*
X86479462Y-129738364D01*
X86276924Y-129435246D01*
X86229070Y-129363628D01*
X86229067Y-129363625D01*
X86227690Y-129361563D01*
X85947132Y-129005676D01*
X85642349Y-128675962D01*
X85639921Y-128672494D01*
X85630891Y-128666171D01*
X85630888Y-128666168D01*
X85625259Y-128662227D01*
X85608436Y-128648110D01*
X82907145Y-125946819D01*
X82893028Y-125929996D01*
X82889084Y-125924364D01*
X82882761Y-125915334D01*
X82876665Y-125911065D01*
X82816225Y-125855682D01*
X82610583Y-125667246D01*
X82610575Y-125667239D01*
X82608547Y-125665381D01*
X82496763Y-125579606D01*
X82316407Y-125441213D01*
X82316400Y-125441208D01*
X82314217Y-125439533D01*
X82243728Y-125394627D01*
X82003652Y-125241682D01*
X82003646Y-125241678D01*
X82001322Y-125240198D01*
X81672245Y-125068891D01*
X81329490Y-124926918D01*
X81326870Y-124926092D01*
X81326862Y-124926089D01*
X80978295Y-124816186D01*
X80978290Y-124816185D01*
X80975665Y-124815357D01*
X80613464Y-124735059D01*
X80610745Y-124734701D01*
X80610739Y-124734700D01*
X80472568Y-124716510D01*
X80245642Y-124686635D01*
X80242893Y-124686515D01*
X80242882Y-124686514D01*
X79889411Y-124671081D01*
X79882334Y-124670772D01*
X79875000Y-124669479D01*
X79857380Y-124672586D01*
X79835500Y-124674500D01*
X78819286Y-124674500D01*
X78751165Y-124654498D01*
X78719323Y-124625204D01*
X78683305Y-124578264D01*
X78678282Y-124571718D01*
X78552841Y-124475464D01*
X78406762Y-124414956D01*
X78250000Y-124394318D01*
X78093238Y-124414956D01*
X77947159Y-124475464D01*
X77821718Y-124571718D01*
X77725464Y-124697159D01*
X77664956Y-124843238D01*
X77644318Y-125000000D01*
X70047843Y-125000000D01*
X70098390Y-124969703D01*
X70383757Y-124758057D01*
X70408474Y-124735655D01*
X70636419Y-124529054D01*
X70643030Y-124523062D01*
X70647487Y-124519941D01*
X70657751Y-124505282D01*
X70671870Y-124488456D01*
X71260326Y-123900000D01*
X85994318Y-123900000D01*
X86014956Y-124056762D01*
X86075464Y-124202841D01*
X86171718Y-124328282D01*
X86297159Y-124424536D01*
X86443238Y-124485044D01*
X86600000Y-124505682D01*
X86608188Y-124504604D01*
X86748574Y-124486122D01*
X86756762Y-124485044D01*
X86902841Y-124424536D01*
X87028282Y-124328282D01*
X87124536Y-124202841D01*
X87185044Y-124056762D01*
X87205682Y-123900000D01*
X87196882Y-123833157D01*
X87207821Y-123763010D01*
X87232709Y-123727617D01*
X88216215Y-122744111D01*
X88224319Y-122736684D01*
X88244749Y-122719541D01*
X88253194Y-122712455D01*
X88258707Y-122702906D01*
X88272039Y-122679815D01*
X88277945Y-122670544D01*
X88293230Y-122648715D01*
X88299554Y-122639684D01*
X88302408Y-122629034D01*
X88303885Y-122625866D01*
X88305077Y-122622590D01*
X88310588Y-122613045D01*
X88317130Y-122575942D01*
X88319509Y-122565210D01*
X88326410Y-122539456D01*
X88329264Y-122528807D01*
X88325980Y-122491272D01*
X88325500Y-122480290D01*
X88325500Y-120669786D01*
X88345502Y-120601665D01*
X88374796Y-120569823D01*
X88421736Y-120533805D01*
X88428282Y-120528782D01*
X88524536Y-120403341D01*
X88585044Y-120257262D01*
X88605682Y-120100500D01*
X88585044Y-119943738D01*
X88524536Y-119797659D01*
X88428282Y-119672218D01*
X88302841Y-119575964D01*
X88156762Y-119515456D01*
X88000000Y-119494818D01*
X87843238Y-119515456D01*
X87697159Y-119575964D01*
X87571718Y-119672218D01*
X87475464Y-119797659D01*
X87414956Y-119943738D01*
X87394318Y-120100500D01*
X87414956Y-120257262D01*
X87475464Y-120403341D01*
X87571718Y-120528782D01*
X87578264Y-120533805D01*
X87625204Y-120569823D01*
X87667071Y-120627161D01*
X87674500Y-120669786D01*
X87674500Y-122312984D01*
X87654498Y-122381105D01*
X87637595Y-122402079D01*
X86772383Y-123267291D01*
X86710071Y-123301317D01*
X86666843Y-123303118D01*
X86600000Y-123294318D01*
X86443238Y-123314956D01*
X86297159Y-123375464D01*
X86171718Y-123471718D01*
X86075464Y-123597159D01*
X86014956Y-123743238D01*
X85994318Y-123900000D01*
X71260326Y-123900000D01*
X74326570Y-120833757D01*
X74330740Y-120829587D01*
X74333716Y-120827503D01*
X74335799Y-120824528D01*
X74356506Y-120803821D01*
X74359661Y-120799315D01*
X74363202Y-120795095D01*
X74363645Y-120795467D01*
X74374805Y-120782689D01*
X74621518Y-120554625D01*
X74629041Y-120548200D01*
X74811359Y-120404468D01*
X74936745Y-120305619D01*
X74944725Y-120299822D01*
X75270513Y-120082132D01*
X75278938Y-120076969D01*
X75502213Y-119951926D01*
X75620804Y-119885511D01*
X75629618Y-119881020D01*
X75651828Y-119870781D01*
X75985438Y-119716980D01*
X75994553Y-119713203D01*
X76362172Y-119577577D01*
X76371580Y-119574521D01*
X76748666Y-119468169D01*
X76758285Y-119465859D01*
X77142584Y-119389413D01*
X77152356Y-119387866D01*
X77541432Y-119341812D01*
X77551295Y-119341035D01*
X77818839Y-119330521D01*
X77910751Y-119326909D01*
X77935810Y-119328607D01*
X77936905Y-119328607D01*
X77947759Y-119330521D01*
X77958613Y-119328607D01*
X77958614Y-119328607D01*
X77965380Y-119327414D01*
X77987260Y-119325500D01*
X86430714Y-119325500D01*
X86498835Y-119345502D01*
X86530677Y-119374796D01*
X86571718Y-119428282D01*
X86697159Y-119524536D01*
X86843238Y-119585044D01*
X87000000Y-119605682D01*
X87008188Y-119604604D01*
X87148574Y-119586122D01*
X87156762Y-119585044D01*
X87302841Y-119524536D01*
X87428282Y-119428282D01*
X87524536Y-119302841D01*
X87585044Y-119156762D01*
X87605682Y-119000000D01*
X87596882Y-118933157D01*
X87607821Y-118863010D01*
X87632709Y-118827617D01*
X88577617Y-117882709D01*
X88639929Y-117848683D01*
X88683157Y-117846882D01*
X88750000Y-117855682D01*
X88758188Y-117854604D01*
X88898574Y-117836122D01*
X88906762Y-117835044D01*
X89052841Y-117774536D01*
X89178282Y-117678282D01*
X89219323Y-117624796D01*
X89276661Y-117582929D01*
X89319286Y-117575500D01*
X93680714Y-117575500D01*
X93748835Y-117595502D01*
X93780677Y-117624796D01*
X93821718Y-117678282D01*
X93947159Y-117774536D01*
X94093238Y-117835044D01*
X94250000Y-117855682D01*
X94258188Y-117854604D01*
X94398574Y-117836122D01*
X94406762Y-117835044D01*
X94552841Y-117774536D01*
X94678282Y-117678282D01*
X94774536Y-117552841D01*
X94835044Y-117406762D01*
X94855682Y-117250000D01*
X94835044Y-117093238D01*
X94774536Y-116947159D01*
X94678282Y-116821718D01*
X94552841Y-116725464D01*
X94406762Y-116664956D01*
X94250000Y-116644318D01*
X94093238Y-116664956D01*
X93947159Y-116725464D01*
X93821718Y-116821718D01*
X93816695Y-116828264D01*
X93780677Y-116875204D01*
X93723339Y-116917071D01*
X93680714Y-116924500D01*
X89319286Y-116924500D01*
X89251165Y-116904498D01*
X89219323Y-116875204D01*
X89183305Y-116828264D01*
X89178282Y-116821718D01*
X89052841Y-116725464D01*
X88906762Y-116664956D01*
X88750000Y-116644318D01*
X88593238Y-116664956D01*
X88447159Y-116725464D01*
X88321718Y-116821718D01*
X88225464Y-116947159D01*
X88164956Y-117093238D01*
X88144318Y-117250000D01*
X88145396Y-117258188D01*
X88153118Y-117316842D01*
X88142179Y-117386990D01*
X88117291Y-117422383D01*
X87172383Y-118367291D01*
X87110071Y-118401317D01*
X87066843Y-118403118D01*
X87000000Y-118394318D01*
X86843238Y-118414956D01*
X86697159Y-118475464D01*
X86571718Y-118571718D01*
X86566695Y-118578264D01*
X86530677Y-118625204D01*
X86473339Y-118667071D01*
X86430714Y-118674500D01*
X77987254Y-118674500D01*
X77965376Y-118672586D01*
X77958612Y-118671393D01*
X77958608Y-118671393D01*
X77947753Y-118669479D01*
X77943915Y-118670156D01*
X77494925Y-118687800D01*
X77492464Y-118688091D01*
X77492455Y-118688092D01*
X77269907Y-118714435D01*
X77044889Y-118741070D01*
X76600419Y-118829484D01*
X76451256Y-118871554D01*
X76166639Y-118951827D01*
X76166635Y-118951828D01*
X76164257Y-118952499D01*
X75739091Y-119109356D01*
X75327543Y-119299088D01*
X75325396Y-119300290D01*
X75325385Y-119300296D01*
X74934309Y-119519314D01*
X74934303Y-119519318D01*
X74932149Y-119520524D01*
X74555348Y-119772300D01*
X74199463Y-120052864D01*
X73869756Y-120357650D01*
X73866284Y-120360081D01*
X73859962Y-120369110D01*
X73841527Y-120395439D01*
X73827408Y-120412265D01*
X70211542Y-124028132D01*
X70194721Y-124042248D01*
X70180055Y-124052517D01*
X70173730Y-124061550D01*
X70170394Y-124064886D01*
X70156656Y-124080466D01*
X69972587Y-124247299D01*
X69963029Y-124255144D01*
X69739254Y-124421109D01*
X69728973Y-124427978D01*
X69490023Y-124571202D01*
X69479118Y-124577031D01*
X69353196Y-124636589D01*
X69227268Y-124696150D01*
X69215854Y-124700878D01*
X69065702Y-124754605D01*
X68953548Y-124794735D01*
X68941715Y-124798325D01*
X68870412Y-124816186D01*
X68671461Y-124866022D01*
X68659343Y-124868432D01*
X68383760Y-124909313D01*
X68371460Y-124910525D01*
X68123420Y-124922712D01*
X68102423Y-124921393D01*
X68097875Y-124921393D01*
X68087020Y-124919479D01*
X68076166Y-124921393D01*
X68076165Y-124921393D01*
X68069399Y-124922586D01*
X68047519Y-124924500D01*
X66319286Y-124924500D01*
X66251165Y-124904498D01*
X66219323Y-124875204D01*
X66183305Y-124828264D01*
X66178282Y-124821718D01*
X66052841Y-124725464D01*
X65920803Y-124670772D01*
X65914391Y-124668116D01*
X65906762Y-124664956D01*
X65750000Y-124644318D01*
X65593238Y-124664956D01*
X65585609Y-124668116D01*
X65579197Y-124670772D01*
X65447159Y-124725464D01*
X65321718Y-124821718D01*
X65316695Y-124828264D01*
X65280677Y-124875204D01*
X65223339Y-124917071D01*
X65180714Y-124924500D01*
X56069286Y-124924500D01*
X56001165Y-124904498D01*
X55969323Y-124875204D01*
X55933305Y-124828264D01*
X55928282Y-124821718D01*
X55802841Y-124725464D01*
X55670803Y-124670772D01*
X55664391Y-124668116D01*
X55656762Y-124664956D01*
X55500000Y-124644318D01*
X55343238Y-124664956D01*
X55335609Y-124668116D01*
X55329197Y-124670772D01*
X55197159Y-124725464D01*
X55071718Y-124821718D01*
X54975464Y-124947159D01*
X54914956Y-125093238D01*
X54894318Y-125250000D01*
X50200500Y-125250000D01*
X50200500Y-113537371D01*
X50203755Y-113508918D01*
X50204043Y-113507676D01*
X50204044Y-113507669D01*
X50205655Y-113500718D01*
X50205656Y-113500000D01*
X50204074Y-113493064D01*
X50204010Y-113492493D01*
X50203836Y-113466133D01*
X50214646Y-113356374D01*
X50219462Y-113332156D01*
X50257758Y-113205912D01*
X50267207Y-113183102D01*
X50329389Y-113066768D01*
X50343112Y-113046230D01*
X50426796Y-112944261D01*
X50444261Y-112926796D01*
X50546230Y-112843112D01*
X50566768Y-112829389D01*
X50636378Y-112792182D01*
X50683103Y-112767206D01*
X50705912Y-112757758D01*
X50832156Y-112719462D01*
X50856373Y-112714646D01*
X50881186Y-112712202D01*
X50973770Y-112703083D01*
X50985905Y-112702497D01*
X50999641Y-112705656D01*
X51013480Y-112702525D01*
X51018310Y-112702533D01*
X51036504Y-112700500D01*
X98962920Y-112700500D01*
X98980242Y-112702466D01*
G37*
G04 #@! TD.AperFunction*
M02*
