G04 #@! TF.GenerationSoftware,KiCad,Pcbnew,6.0.6-1.fc36*
G04 #@! TF.CreationDate,2022-07-29T11:52:02+02:00*
G04 #@! TF.ProjectId,CosmicWatch-ventidue,436f736d-6963-4576-9174-63682d76656e,rev?*
G04 #@! TF.SameCoordinates,Original*
G04 #@! TF.FileFunction,Soldermask,Top*
G04 #@! TF.FilePolarity,Negative*
%FSLAX46Y46*%
G04 Gerber Fmt 4.6, Leading zero omitted, Abs format (unit mm)*
G04 Created by KiCad (PCBNEW 6.0.6-1.fc36) date 2022-07-29 11:52:02*
%MOMM*%
%LPD*%
G01*
G04 APERTURE LIST*
G04 Aperture macros list*
%AMRoundRect*
0 Rectangle with rounded corners*
0 $1 Rounding radius*
0 $2 $3 $4 $5 $6 $7 $8 $9 X,Y pos of 4 corners*
0 Add a 4 corners polygon primitive as box body*
4,1,4,$2,$3,$4,$5,$6,$7,$8,$9,$2,$3,0*
0 Add four circle primitives for the rounded corners*
1,1,$1+$1,$2,$3*
1,1,$1+$1,$4,$5*
1,1,$1+$1,$6,$7*
1,1,$1+$1,$8,$9*
0 Add four rect primitives between the rounded corners*
20,1,$1+$1,$2,$3,$4,$5,0*
20,1,$1+$1,$4,$5,$6,$7,0*
20,1,$1+$1,$6,$7,$8,$9,0*
20,1,$1+$1,$8,$9,$2,$3,0*%
G04 Aperture macros list end*
%ADD10R,2.510000X1.000000*%
%ADD11C,2.000000*%
%ADD12RoundRect,0.250000X0.475000X-0.337500X0.475000X0.337500X-0.475000X0.337500X-0.475000X-0.337500X0*%
%ADD13RoundRect,0.250000X-0.475000X0.337500X-0.475000X-0.337500X0.475000X-0.337500X0.475000X0.337500X0*%
%ADD14RoundRect,0.250000X0.450000X-0.350000X0.450000X0.350000X-0.450000X0.350000X-0.450000X-0.350000X0*%
%ADD15RoundRect,0.250000X0.350000X0.450000X-0.350000X0.450000X-0.350000X-0.450000X0.350000X-0.450000X0*%
%ADD16RoundRect,0.100000X-0.712500X-0.100000X0.712500X-0.100000X0.712500X0.100000X-0.712500X0.100000X0*%
%ADD17RoundRect,0.250000X-0.337500X-0.475000X0.337500X-0.475000X0.337500X0.475000X-0.337500X0.475000X0*%
%ADD18RoundRect,0.250000X-0.350000X-0.450000X0.350000X-0.450000X0.350000X0.450000X-0.350000X0.450000X0*%
%ADD19R,0.375000X0.500000*%
%ADD20R,0.300000X0.650000*%
%ADD21RoundRect,0.250000X-0.450000X0.350000X-0.450000X-0.350000X0.450000X-0.350000X0.450000X0.350000X0*%
%ADD22RoundRect,0.250000X0.337500X0.475000X-0.337500X0.475000X-0.337500X-0.475000X0.337500X-0.475000X0*%
%ADD23R,1.000000X1.000000*%
%ADD24R,1.050000X2.200000*%
%ADD25R,3.000000X3.000000*%
G04 APERTURE END LIST*
D10*
X96655000Y-129880000D03*
X93345000Y-132420000D03*
X96655000Y-134960000D03*
X93345000Y-137500000D03*
X96655000Y-140040000D03*
X93345000Y-142580000D03*
X96655000Y-145120000D03*
D11*
X96000000Y-121000000D03*
D12*
X77000000Y-118037500D03*
X77000000Y-115962500D03*
D13*
X89500000Y-142462500D03*
X89500000Y-144537500D03*
D14*
X65000000Y-119750000D03*
X65000000Y-117750000D03*
D15*
X55500000Y-116000000D03*
X53500000Y-116000000D03*
D16*
X81387500Y-119525000D03*
X81387500Y-120175000D03*
X81387500Y-120825000D03*
X81387500Y-121475000D03*
X85612500Y-121475000D03*
X85612500Y-120825000D03*
X85612500Y-120175000D03*
X85612500Y-119525000D03*
D13*
X65750000Y-149000000D03*
X65750000Y-151075000D03*
X87000000Y-137462500D03*
X87000000Y-139537500D03*
D17*
X79962500Y-116000000D03*
X82037500Y-116000000D03*
D11*
X96000000Y-124000000D03*
D18*
X58500000Y-120000000D03*
X60500000Y-120000000D03*
D17*
X60712500Y-153000000D03*
X62787500Y-153000000D03*
D14*
X69000000Y-123500000D03*
X69000000Y-121500000D03*
D18*
X55750000Y-149000000D03*
X57750000Y-149000000D03*
D19*
X76462500Y-123350000D03*
D20*
X77000000Y-123425000D03*
D19*
X77537500Y-123350000D03*
X77537500Y-121650000D03*
D20*
X77000000Y-121575000D03*
D19*
X76462500Y-121650000D03*
D18*
X90000000Y-120000000D03*
X92000000Y-120000000D03*
D21*
X90000000Y-123000000D03*
X90000000Y-125000000D03*
D17*
X89962500Y-116000000D03*
X92037500Y-116000000D03*
D22*
X55537500Y-120000000D03*
X53462500Y-120000000D03*
D14*
X73000000Y-123500000D03*
X73000000Y-121500000D03*
D22*
X55537500Y-124000000D03*
X53462500Y-124000000D03*
D16*
X60387500Y-126025000D03*
X60387500Y-126675000D03*
X60387500Y-127325000D03*
X60387500Y-127975000D03*
X64612500Y-127975000D03*
X64612500Y-127325000D03*
X64612500Y-126675000D03*
X64612500Y-126025000D03*
D23*
X73750000Y-154750000D03*
X73750000Y-157750000D03*
D24*
X72275000Y-156250000D03*
X75225000Y-156250000D03*
D18*
X85000000Y-116000000D03*
X87000000Y-116000000D03*
D22*
X57787500Y-153000000D03*
X55712500Y-153000000D03*
D17*
X58462500Y-116000000D03*
X60537500Y-116000000D03*
D15*
X57000000Y-127500000D03*
X55000000Y-127500000D03*
D23*
X93250000Y-154750000D03*
X93250000Y-157750000D03*
D24*
X94725000Y-156250000D03*
X91775000Y-156250000D03*
D17*
X94962500Y-116000000D03*
X97037500Y-116000000D03*
D10*
X61655000Y-132382500D03*
X58345000Y-134922500D03*
X61655000Y-137462500D03*
X58345000Y-140002500D03*
X61655000Y-142542500D03*
D14*
X73000000Y-118000000D03*
X73000000Y-116000000D03*
D25*
X67750000Y-156250000D03*
D23*
X80250000Y-154750000D03*
D24*
X78775000Y-156250000D03*
X81725000Y-156250000D03*
D23*
X80250000Y-157750000D03*
D14*
X69000000Y-118000000D03*
X69000000Y-116000000D03*
D18*
X60750000Y-149000000D03*
X62750000Y-149000000D03*
D23*
X86750000Y-154750000D03*
D24*
X85275000Y-156250000D03*
D23*
X86750000Y-157750000D03*
D24*
X88225000Y-156250000D03*
M02*
