G04 #@! TF.GenerationSoftware,KiCad,Pcbnew,6.0.6-1.fc36*
G04 #@! TF.CreationDate,2022-07-29T12:49:35+02:00*
G04 #@! TF.ProjectId,CosmicWatch-ventidue,436f736d-6963-4576-9174-63682d76656e,rev?*
G04 #@! TF.SameCoordinates,Original*
G04 #@! TF.FileFunction,Legend,Top*
G04 #@! TF.FilePolarity,Positive*
%FSLAX46Y46*%
G04 Gerber Fmt 4.6, Leading zero omitted, Abs format (unit mm)*
G04 Created by KiCad (PCBNEW 6.0.6-1.fc36) date 2022-07-29 12:49:35*
%MOMM*%
%LPD*%
G01*
G04 APERTURE LIST*
G04 Aperture macros list*
%AMRoundRect*
0 Rectangle with rounded corners*
0 $1 Rounding radius*
0 $2 $3 $4 $5 $6 $7 $8 $9 X,Y pos of 4 corners*
0 Add a 4 corners polygon primitive as box body*
4,1,4,$2,$3,$4,$5,$6,$7,$8,$9,$2,$3,0*
0 Add four circle primitives for the rounded corners*
1,1,$1+$1,$2,$3*
1,1,$1+$1,$4,$5*
1,1,$1+$1,$6,$7*
1,1,$1+$1,$8,$9*
0 Add four rect primitives between the rounded corners*
20,1,$1+$1,$2,$3,$4,$5,0*
20,1,$1+$1,$4,$5,$6,$7,0*
20,1,$1+$1,$6,$7,$8,$9,0*
20,1,$1+$1,$8,$9,$2,$3,0*%
G04 Aperture macros list end*
%ADD10C,0.150000*%
%ADD11C,0.120000*%
%ADD12R,2.510000X1.000000*%
%ADD13RoundRect,0.250000X0.450000X-0.350000X0.450000X0.350000X-0.450000X0.350000X-0.450000X-0.350000X0*%
%ADD14RoundRect,0.250000X-0.475000X0.337500X-0.475000X-0.337500X0.475000X-0.337500X0.475000X0.337500X0*%
%ADD15R,3.000000X3.000000*%
%ADD16R,1.000000X1.000000*%
%ADD17R,1.050000X2.200000*%
%ADD18RoundRect,0.100000X-0.712500X-0.100000X0.712500X-0.100000X0.712500X0.100000X-0.712500X0.100000X0*%
%ADD19RoundRect,0.250000X-0.337500X-0.475000X0.337500X-0.475000X0.337500X0.475000X-0.337500X0.475000X0*%
%ADD20RoundRect,0.250000X-0.450000X0.350000X-0.450000X-0.350000X0.450000X-0.350000X0.450000X0.350000X0*%
%ADD21RoundRect,0.250000X0.350000X0.450000X-0.350000X0.450000X-0.350000X-0.450000X0.350000X-0.450000X0*%
%ADD22RoundRect,0.250000X0.475000X-0.337500X0.475000X0.337500X-0.475000X0.337500X-0.475000X-0.337500X0*%
%ADD23RoundRect,0.250000X-0.350000X-0.450000X0.350000X-0.450000X0.350000X0.450000X-0.350000X0.450000X0*%
%ADD24RoundRect,0.250000X0.337500X0.475000X-0.337500X0.475000X-0.337500X-0.475000X0.337500X-0.475000X0*%
%ADD25C,2.000000*%
%ADD26R,0.375000X1.250000*%
%ADD27R,0.300000X1.400000*%
G04 APERTURE END LIST*
D10*
X91226190Y-161452380D02*
X91226190Y-160452380D01*
X91607142Y-160452380D01*
X91702380Y-160500000D01*
X91750000Y-160547619D01*
X91797619Y-160642857D01*
X91797619Y-160785714D01*
X91750000Y-160880952D01*
X91702380Y-160928571D01*
X91607142Y-160976190D01*
X91226190Y-160976190D01*
X92226190Y-160928571D02*
X92559523Y-160928571D01*
X92702380Y-161452380D02*
X92226190Y-161452380D01*
X92226190Y-160452380D01*
X92702380Y-160452380D01*
X93083333Y-161166666D02*
X93559523Y-161166666D01*
X92988095Y-161452380D02*
X93321428Y-160452380D01*
X93654761Y-161452380D01*
X93988095Y-161452380D02*
X93988095Y-160452380D01*
X94559523Y-161452380D02*
X94130952Y-160880952D01*
X94559523Y-160452380D02*
X93988095Y-161023809D01*
X94902380Y-160838095D02*
X94940476Y-160800000D01*
X95016666Y-160761904D01*
X95207142Y-160761904D01*
X95283333Y-160800000D01*
X95321428Y-160838095D01*
X95359523Y-160914285D01*
X95359523Y-160990476D01*
X95321428Y-161104761D01*
X94864285Y-161561904D01*
X95359523Y-161561904D01*
X79440476Y-160928571D02*
X79107142Y-160928571D01*
X79107142Y-161452380D02*
X79107142Y-160452380D01*
X79583333Y-160452380D01*
X80030952Y-161561904D02*
X79954761Y-161523809D01*
X79916666Y-161485714D01*
X79878571Y-161409523D01*
X79878571Y-161180952D01*
X79916666Y-161104761D01*
X79954761Y-161066666D01*
X80030952Y-161028571D01*
X80145238Y-161028571D01*
X80221428Y-161066666D01*
X80259523Y-161104761D01*
X80297619Y-161180952D01*
X80297619Y-161409523D01*
X80259523Y-161485714D01*
X80221428Y-161523809D01*
X80145238Y-161561904D01*
X80030952Y-161561904D01*
X80983333Y-161028571D02*
X80983333Y-161561904D01*
X80640476Y-161028571D02*
X80640476Y-161447619D01*
X80678571Y-161523809D01*
X80754761Y-161561904D01*
X80869047Y-161561904D01*
X80945238Y-161523809D01*
X80983333Y-161485714D01*
X81250000Y-161028571D02*
X81554761Y-161028571D01*
X81364285Y-160761904D02*
X81364285Y-161447619D01*
X81402380Y-161523809D01*
X81478571Y-161561904D01*
X81554761Y-161561904D01*
X98666666Y-121940476D02*
X98666666Y-121464285D01*
X98952380Y-122035714D02*
X97952380Y-121702380D01*
X98952380Y-121369047D01*
X98952380Y-121035714D02*
X97952380Y-121035714D01*
X98666666Y-120702380D01*
X97952380Y-120369047D01*
X98952380Y-120369047D01*
X98952380Y-119892857D02*
X97952380Y-119892857D01*
X97952380Y-119511904D01*
X98000000Y-119416666D01*
X98047619Y-119369047D01*
X98142857Y-119321428D01*
X98285714Y-119321428D01*
X98380952Y-119369047D01*
X98428571Y-119416666D01*
X98476190Y-119511904D01*
X98476190Y-119892857D01*
X98338095Y-118978571D02*
X98300000Y-118940476D01*
X98261904Y-118864285D01*
X98261904Y-118673809D01*
X98300000Y-118597619D01*
X98338095Y-118559523D01*
X98414285Y-118521428D01*
X98490476Y-118521428D01*
X98604761Y-118559523D01*
X99061904Y-119016666D01*
X99061904Y-118521428D01*
X66988095Y-160500000D02*
X66892857Y-160452380D01*
X66750000Y-160452380D01*
X66607142Y-160500000D01*
X66511904Y-160595238D01*
X66464285Y-160690476D01*
X66416666Y-160880952D01*
X66416666Y-161023809D01*
X66464285Y-161214285D01*
X66511904Y-161309523D01*
X66607142Y-161404761D01*
X66750000Y-161452380D01*
X66845238Y-161452380D01*
X66988095Y-161404761D01*
X67035714Y-161357142D01*
X67035714Y-161023809D01*
X66845238Y-161023809D01*
X67464285Y-161452380D02*
X67464285Y-160452380D01*
X68035714Y-161452380D01*
X68035714Y-160452380D01*
X68511904Y-161452380D02*
X68511904Y-160452380D01*
X68750000Y-160452380D01*
X68892857Y-160500000D01*
X68988095Y-160595238D01*
X69035714Y-160690476D01*
X69083333Y-160880952D01*
X69083333Y-161023809D01*
X69035714Y-161214285D01*
X68988095Y-161309523D01*
X68892857Y-161404761D01*
X68750000Y-161452380D01*
X68511904Y-161452380D01*
X84726190Y-161452380D02*
X84726190Y-160452380D01*
X85107142Y-160452380D01*
X85202380Y-160500000D01*
X85250000Y-160547619D01*
X85297619Y-160642857D01*
X85297619Y-160785714D01*
X85250000Y-160880952D01*
X85202380Y-160928571D01*
X85107142Y-160976190D01*
X84726190Y-160976190D01*
X85726190Y-160928571D02*
X86059523Y-160928571D01*
X86202380Y-161452380D02*
X85726190Y-161452380D01*
X85726190Y-160452380D01*
X86202380Y-160452380D01*
X86583333Y-161166666D02*
X87059523Y-161166666D01*
X86488095Y-161452380D02*
X86821428Y-160452380D01*
X87154761Y-161452380D01*
X87488095Y-161452380D02*
X87488095Y-160452380D01*
X88059523Y-161452380D02*
X87630952Y-160880952D01*
X88059523Y-160452380D02*
X87488095Y-161023809D01*
X88859523Y-161561904D02*
X88402380Y-161561904D01*
X88630952Y-161561904D02*
X88630952Y-160761904D01*
X88554761Y-160876190D01*
X88478571Y-160952380D01*
X88402380Y-160990476D01*
X98666666Y-126690476D02*
X98666666Y-126214285D01*
X98952380Y-126785714D02*
X97952380Y-126452380D01*
X98952380Y-126119047D01*
X98952380Y-125785714D02*
X97952380Y-125785714D01*
X98666666Y-125452380D01*
X97952380Y-125119047D01*
X98952380Y-125119047D01*
X98952380Y-124642857D02*
X97952380Y-124642857D01*
X97952380Y-124261904D01*
X98000000Y-124166666D01*
X98047619Y-124119047D01*
X98142857Y-124071428D01*
X98285714Y-124071428D01*
X98380952Y-124119047D01*
X98428571Y-124166666D01*
X98476190Y-124261904D01*
X98476190Y-124642857D01*
X99061904Y-123271428D02*
X99061904Y-123728571D01*
X99061904Y-123500000D02*
X98261904Y-123500000D01*
X98376190Y-123576190D01*
X98452380Y-123652380D01*
X98490476Y-123728571D01*
X72511904Y-161404761D02*
X72654761Y-161452380D01*
X72892857Y-161452380D01*
X72988095Y-161404761D01*
X73035714Y-161357142D01*
X73083333Y-161261904D01*
X73083333Y-161166666D01*
X73035714Y-161071428D01*
X72988095Y-161023809D01*
X72892857Y-160976190D01*
X72702380Y-160928571D01*
X72607142Y-160880952D01*
X72559523Y-160833333D01*
X72511904Y-160738095D01*
X72511904Y-160642857D01*
X72559523Y-160547619D01*
X72607142Y-160500000D01*
X72702380Y-160452380D01*
X72940476Y-160452380D01*
X73083333Y-160500000D01*
X73578571Y-161561904D02*
X73502380Y-161523809D01*
X73464285Y-161485714D01*
X73426190Y-161409523D01*
X73426190Y-161180952D01*
X73464285Y-161104761D01*
X73502380Y-161066666D01*
X73578571Y-161028571D01*
X73692857Y-161028571D01*
X73769047Y-161066666D01*
X73807142Y-161104761D01*
X73845238Y-161180952D01*
X73845238Y-161409523D01*
X73807142Y-161485714D01*
X73769047Y-161523809D01*
X73692857Y-161561904D01*
X73578571Y-161561904D01*
X74530952Y-161028571D02*
X74530952Y-161561904D01*
X74188095Y-161028571D02*
X74188095Y-161447619D01*
X74226190Y-161523809D01*
X74302380Y-161561904D01*
X74416666Y-161561904D01*
X74492857Y-161523809D01*
X74530952Y-161485714D01*
X74797619Y-161028571D02*
X75102380Y-161028571D01*
X74911904Y-160761904D02*
X74911904Y-161447619D01*
X74950000Y-161523809D01*
X75026190Y-161561904D01*
X75102380Y-161561904D01*
X93714285Y-127002380D02*
X93714285Y-127716666D01*
X93666666Y-127859523D01*
X93571428Y-127954761D01*
X93428571Y-128002380D01*
X93333333Y-128002380D01*
X94714285Y-128002380D02*
X94142857Y-128002380D01*
X94428571Y-128002380D02*
X94428571Y-127002380D01*
X94333333Y-127145238D01*
X94238095Y-127240476D01*
X94142857Y-127288095D01*
X95333333Y-127002380D02*
X95428571Y-127002380D01*
X95523809Y-127050000D01*
X95571428Y-127097619D01*
X95619047Y-127192857D01*
X95666666Y-127383333D01*
X95666666Y-127621428D01*
X95619047Y-127811904D01*
X95571428Y-127907142D01*
X95523809Y-127954761D01*
X95428571Y-128002380D01*
X95333333Y-128002380D01*
X95238095Y-127954761D01*
X95190476Y-127907142D01*
X95142857Y-127811904D01*
X95095238Y-127621428D01*
X95095238Y-127383333D01*
X95142857Y-127192857D01*
X95190476Y-127097619D01*
X95238095Y-127050000D01*
X95333333Y-127002380D01*
X96047619Y-127097619D02*
X96095238Y-127050000D01*
X96190476Y-127002380D01*
X96428571Y-127002380D01*
X96523809Y-127050000D01*
X96571428Y-127097619D01*
X96619047Y-127192857D01*
X96619047Y-127288095D01*
X96571428Y-127430952D01*
X96000000Y-128002380D01*
X96619047Y-128002380D01*
X63702380Y-119869047D02*
X63226190Y-120202380D01*
X63702380Y-120440476D02*
X62702380Y-120440476D01*
X62702380Y-120059523D01*
X62750000Y-119964285D01*
X62797619Y-119916666D01*
X62892857Y-119869047D01*
X63035714Y-119869047D01*
X63130952Y-119916666D01*
X63178571Y-119964285D01*
X63226190Y-120059523D01*
X63226190Y-120440476D01*
X62702380Y-119535714D02*
X62702380Y-118916666D01*
X63083333Y-119250000D01*
X63083333Y-119107142D01*
X63130952Y-119011904D01*
X63178571Y-118964285D01*
X63273809Y-118916666D01*
X63511904Y-118916666D01*
X63607142Y-118964285D01*
X63654761Y-119011904D01*
X63702380Y-119107142D01*
X63702380Y-119392857D01*
X63654761Y-119488095D01*
X63607142Y-119535714D01*
X62702380Y-118297619D02*
X62702380Y-118202380D01*
X62750000Y-118107142D01*
X62797619Y-118059523D01*
X62892857Y-118011904D01*
X63083333Y-117964285D01*
X63321428Y-117964285D01*
X63511904Y-118011904D01*
X63607142Y-118059523D01*
X63654761Y-118107142D01*
X63702380Y-118202380D01*
X63702380Y-118297619D01*
X63654761Y-118392857D01*
X63607142Y-118440476D01*
X63511904Y-118488095D01*
X63321428Y-118535714D01*
X63083333Y-118535714D01*
X62892857Y-118488095D01*
X62797619Y-118440476D01*
X62750000Y-118392857D01*
X62702380Y-118297619D01*
X62702380Y-117107142D02*
X62702380Y-117297619D01*
X62750000Y-117392857D01*
X62797619Y-117440476D01*
X62940476Y-117535714D01*
X63130952Y-117583333D01*
X63511904Y-117583333D01*
X63607142Y-117535714D01*
X63654761Y-117488095D01*
X63702380Y-117392857D01*
X63702380Y-117202380D01*
X63654761Y-117107142D01*
X63607142Y-117059523D01*
X63511904Y-117011904D01*
X63273809Y-117011904D01*
X63178571Y-117059523D01*
X63130952Y-117107142D01*
X63083333Y-117202380D01*
X63083333Y-117392857D01*
X63130952Y-117488095D01*
X63178571Y-117535714D01*
X63273809Y-117583333D01*
X89107142Y-139619047D02*
X89154761Y-139666666D01*
X89202380Y-139809523D01*
X89202380Y-139904761D01*
X89154761Y-140047619D01*
X89059523Y-140142857D01*
X88964285Y-140190476D01*
X88773809Y-140238095D01*
X88630952Y-140238095D01*
X88440476Y-140190476D01*
X88345238Y-140142857D01*
X88250000Y-140047619D01*
X88202380Y-139904761D01*
X88202380Y-139809523D01*
X88250000Y-139666666D01*
X88297619Y-139619047D01*
X88202380Y-139285714D02*
X88202380Y-138666666D01*
X88583333Y-139000000D01*
X88583333Y-138857142D01*
X88630952Y-138761904D01*
X88678571Y-138714285D01*
X88773809Y-138666666D01*
X89011904Y-138666666D01*
X89107142Y-138714285D01*
X89154761Y-138761904D01*
X89202380Y-138857142D01*
X89202380Y-139142857D01*
X89154761Y-139238095D01*
X89107142Y-139285714D01*
X89202380Y-137714285D02*
X89202380Y-138285714D01*
X89202380Y-138000000D02*
X88202380Y-138000000D01*
X88345238Y-138095238D01*
X88440476Y-138190476D01*
X88488095Y-138285714D01*
X89202380Y-136761904D02*
X89202380Y-137333333D01*
X89202380Y-137047619D02*
X88202380Y-137047619D01*
X88345238Y-137142857D01*
X88440476Y-137238095D01*
X88488095Y-137333333D01*
X65535714Y-153304380D02*
X66107142Y-153304380D01*
X65821428Y-154304380D02*
X65821428Y-153304380D01*
X66440476Y-154304380D02*
X66440476Y-153304380D01*
X66821428Y-153304380D01*
X66916666Y-153352000D01*
X66964285Y-153399619D01*
X67011904Y-153494857D01*
X67011904Y-153637714D01*
X66964285Y-153732952D01*
X66916666Y-153780571D01*
X66821428Y-153828190D01*
X66440476Y-153828190D01*
X67345238Y-153304380D02*
X67964285Y-153304380D01*
X67630952Y-153685333D01*
X67773809Y-153685333D01*
X67869047Y-153732952D01*
X67916666Y-153780571D01*
X67964285Y-153875809D01*
X67964285Y-154113904D01*
X67916666Y-154209142D01*
X67869047Y-154256761D01*
X67773809Y-154304380D01*
X67488095Y-154304380D01*
X67392857Y-154256761D01*
X67345238Y-154209142D01*
X68583333Y-153304380D02*
X68678571Y-153304380D01*
X68773809Y-153352000D01*
X68821428Y-153399619D01*
X68869047Y-153494857D01*
X68916666Y-153685333D01*
X68916666Y-153923428D01*
X68869047Y-154113904D01*
X68821428Y-154209142D01*
X68773809Y-154256761D01*
X68678571Y-154304380D01*
X68583333Y-154304380D01*
X68488095Y-154256761D01*
X68440476Y-154209142D01*
X68392857Y-154113904D01*
X68345238Y-153923428D01*
X68345238Y-153685333D01*
X68392857Y-153494857D01*
X68440476Y-153399619D01*
X68488095Y-153352000D01*
X68583333Y-153304380D01*
X69250000Y-153304380D02*
X69869047Y-153304380D01*
X69535714Y-153685333D01*
X69678571Y-153685333D01*
X69773809Y-153732952D01*
X69821428Y-153780571D01*
X69869047Y-153875809D01*
X69869047Y-154113904D01*
X69821428Y-154209142D01*
X69773809Y-154256761D01*
X69678571Y-154304380D01*
X69392857Y-154304380D01*
X69297619Y-154256761D01*
X69250000Y-154209142D01*
X71702380Y-123619047D02*
X71226190Y-123952380D01*
X71702380Y-124190476D02*
X70702380Y-124190476D01*
X70702380Y-123809523D01*
X70750000Y-123714285D01*
X70797619Y-123666666D01*
X70892857Y-123619047D01*
X71035714Y-123619047D01*
X71130952Y-123666666D01*
X71178571Y-123714285D01*
X71226190Y-123809523D01*
X71226190Y-124190476D01*
X70702380Y-123285714D02*
X70702380Y-122666666D01*
X71083333Y-123000000D01*
X71083333Y-122857142D01*
X71130952Y-122761904D01*
X71178571Y-122714285D01*
X71273809Y-122666666D01*
X71511904Y-122666666D01*
X71607142Y-122714285D01*
X71654761Y-122761904D01*
X71702380Y-122857142D01*
X71702380Y-123142857D01*
X71654761Y-123238095D01*
X71607142Y-123285714D01*
X71702380Y-121714285D02*
X71702380Y-122285714D01*
X71702380Y-122000000D02*
X70702380Y-122000000D01*
X70845238Y-122095238D01*
X70940476Y-122190476D01*
X70988095Y-122285714D01*
X71702380Y-120761904D02*
X71702380Y-121333333D01*
X71702380Y-121047619D02*
X70702380Y-121047619D01*
X70845238Y-121142857D01*
X70940476Y-121238095D01*
X70988095Y-121333333D01*
X74714285Y-152514880D02*
X74714285Y-153229166D01*
X74666666Y-153372023D01*
X74571428Y-153467261D01*
X74428571Y-153514880D01*
X74333333Y-153514880D01*
X75095238Y-152514880D02*
X75714285Y-152514880D01*
X75380952Y-152895833D01*
X75523809Y-152895833D01*
X75619047Y-152943452D01*
X75666666Y-152991071D01*
X75714285Y-153086309D01*
X75714285Y-153324404D01*
X75666666Y-153419642D01*
X75619047Y-153467261D01*
X75523809Y-153514880D01*
X75238095Y-153514880D01*
X75142857Y-153467261D01*
X75095238Y-153419642D01*
X76333333Y-152514880D02*
X76428571Y-152514880D01*
X76523809Y-152562500D01*
X76571428Y-152610119D01*
X76619047Y-152705357D01*
X76666666Y-152895833D01*
X76666666Y-153133928D01*
X76619047Y-153324404D01*
X76571428Y-153419642D01*
X76523809Y-153467261D01*
X76428571Y-153514880D01*
X76333333Y-153514880D01*
X76238095Y-153467261D01*
X76190476Y-153419642D01*
X76142857Y-153324404D01*
X76095238Y-153133928D01*
X76095238Y-152895833D01*
X76142857Y-152705357D01*
X76190476Y-152610119D01*
X76238095Y-152562500D01*
X76333333Y-152514880D01*
X77047619Y-152610119D02*
X77095238Y-152562500D01*
X77190476Y-152514880D01*
X77428571Y-152514880D01*
X77523809Y-152562500D01*
X77571428Y-152610119D01*
X77619047Y-152705357D01*
X77619047Y-152800595D01*
X77571428Y-152943452D01*
X77000000Y-153514880D01*
X77619047Y-153514880D01*
X94214285Y-152452380D02*
X94214285Y-153166666D01*
X94166666Y-153309523D01*
X94071428Y-153404761D01*
X93928571Y-153452380D01*
X93833333Y-153452380D01*
X94595238Y-152452380D02*
X95214285Y-152452380D01*
X94880952Y-152833333D01*
X95023809Y-152833333D01*
X95119047Y-152880952D01*
X95166666Y-152928571D01*
X95214285Y-153023809D01*
X95214285Y-153261904D01*
X95166666Y-153357142D01*
X95119047Y-153404761D01*
X95023809Y-153452380D01*
X94738095Y-153452380D01*
X94642857Y-153404761D01*
X94595238Y-153357142D01*
X95833333Y-152452380D02*
X95928571Y-152452380D01*
X96023809Y-152500000D01*
X96071428Y-152547619D01*
X96119047Y-152642857D01*
X96166666Y-152833333D01*
X96166666Y-153071428D01*
X96119047Y-153261904D01*
X96071428Y-153357142D01*
X96023809Y-153404761D01*
X95928571Y-153452380D01*
X95833333Y-153452380D01*
X95738095Y-153404761D01*
X95690476Y-153357142D01*
X95642857Y-153261904D01*
X95595238Y-153071428D01*
X95595238Y-152833333D01*
X95642857Y-152642857D01*
X95690476Y-152547619D01*
X95738095Y-152500000D01*
X95833333Y-152452380D01*
X96500000Y-152452380D02*
X97119047Y-152452380D01*
X96785714Y-152833333D01*
X96928571Y-152833333D01*
X97023809Y-152880952D01*
X97071428Y-152928571D01*
X97119047Y-153023809D01*
X97119047Y-153261904D01*
X97071428Y-153357142D01*
X97023809Y-153404761D01*
X96928571Y-153452380D01*
X96642857Y-153452380D01*
X96547619Y-153404761D01*
X96500000Y-153357142D01*
X60785714Y-123952380D02*
X60785714Y-124761904D01*
X60833333Y-124857142D01*
X60880952Y-124904761D01*
X60976190Y-124952380D01*
X61166666Y-124952380D01*
X61261904Y-124904761D01*
X61309523Y-124857142D01*
X61357142Y-124761904D01*
X61357142Y-123952380D01*
X61738095Y-123952380D02*
X62357142Y-123952380D01*
X62023809Y-124333333D01*
X62166666Y-124333333D01*
X62261904Y-124380952D01*
X62309523Y-124428571D01*
X62357142Y-124523809D01*
X62357142Y-124761904D01*
X62309523Y-124857142D01*
X62261904Y-124904761D01*
X62166666Y-124952380D01*
X61880952Y-124952380D01*
X61785714Y-124904761D01*
X61738095Y-124857142D01*
X62976190Y-123952380D02*
X63071428Y-123952380D01*
X63166666Y-124000000D01*
X63214285Y-124047619D01*
X63261904Y-124142857D01*
X63309523Y-124333333D01*
X63309523Y-124571428D01*
X63261904Y-124761904D01*
X63214285Y-124857142D01*
X63166666Y-124904761D01*
X63071428Y-124952380D01*
X62976190Y-124952380D01*
X62880952Y-124904761D01*
X62833333Y-124857142D01*
X62785714Y-124761904D01*
X62738095Y-124571428D01*
X62738095Y-124333333D01*
X62785714Y-124142857D01*
X62833333Y-124047619D01*
X62880952Y-124000000D01*
X62976190Y-123952380D01*
X64261904Y-124952380D02*
X63690476Y-124952380D01*
X63976190Y-124952380D02*
X63976190Y-123952380D01*
X63880952Y-124095238D01*
X63785714Y-124190476D01*
X63690476Y-124238095D01*
X60630952Y-151607142D02*
X60583333Y-151654761D01*
X60440476Y-151702380D01*
X60345238Y-151702380D01*
X60202380Y-151654761D01*
X60107142Y-151559523D01*
X60059523Y-151464285D01*
X60011904Y-151273809D01*
X60011904Y-151130952D01*
X60059523Y-150940476D01*
X60107142Y-150845238D01*
X60202380Y-150750000D01*
X60345238Y-150702380D01*
X60440476Y-150702380D01*
X60583333Y-150750000D01*
X60630952Y-150797619D01*
X60964285Y-150702380D02*
X61583333Y-150702380D01*
X61250000Y-151083333D01*
X61392857Y-151083333D01*
X61488095Y-151130952D01*
X61535714Y-151178571D01*
X61583333Y-151273809D01*
X61583333Y-151511904D01*
X61535714Y-151607142D01*
X61488095Y-151654761D01*
X61392857Y-151702380D01*
X61107142Y-151702380D01*
X61011904Y-151654761D01*
X60964285Y-151607142D01*
X62202380Y-150702380D02*
X62297619Y-150702380D01*
X62392857Y-150750000D01*
X62440476Y-150797619D01*
X62488095Y-150892857D01*
X62535714Y-151083333D01*
X62535714Y-151321428D01*
X62488095Y-151511904D01*
X62440476Y-151607142D01*
X62392857Y-151654761D01*
X62297619Y-151702380D01*
X62202380Y-151702380D01*
X62107142Y-151654761D01*
X62059523Y-151607142D01*
X62011904Y-151511904D01*
X61964285Y-151321428D01*
X61964285Y-151083333D01*
X62011904Y-150892857D01*
X62059523Y-150797619D01*
X62107142Y-150750000D01*
X62202380Y-150702380D01*
X62869047Y-150702380D02*
X63488095Y-150702380D01*
X63154761Y-151083333D01*
X63297619Y-151083333D01*
X63392857Y-151130952D01*
X63440476Y-151178571D01*
X63488095Y-151273809D01*
X63488095Y-151511904D01*
X63440476Y-151607142D01*
X63392857Y-151654761D01*
X63297619Y-151702380D01*
X63011904Y-151702380D01*
X62916666Y-151654761D01*
X62869047Y-151607142D01*
X92452380Y-125119047D02*
X91976190Y-125452380D01*
X92452380Y-125690476D02*
X91452380Y-125690476D01*
X91452380Y-125309523D01*
X91500000Y-125214285D01*
X91547619Y-125166666D01*
X91642857Y-125119047D01*
X91785714Y-125119047D01*
X91880952Y-125166666D01*
X91928571Y-125214285D01*
X91976190Y-125309523D01*
X91976190Y-125690476D01*
X91452380Y-124785714D02*
X91452380Y-124166666D01*
X91833333Y-124500000D01*
X91833333Y-124357142D01*
X91880952Y-124261904D01*
X91928571Y-124214285D01*
X92023809Y-124166666D01*
X92261904Y-124166666D01*
X92357142Y-124214285D01*
X92404761Y-124261904D01*
X92452380Y-124357142D01*
X92452380Y-124642857D01*
X92404761Y-124738095D01*
X92357142Y-124785714D01*
X92452380Y-123214285D02*
X92452380Y-123785714D01*
X92452380Y-123500000D02*
X91452380Y-123500000D01*
X91595238Y-123595238D01*
X91690476Y-123690476D01*
X91738095Y-123785714D01*
X91452380Y-122880952D02*
X91452380Y-122261904D01*
X91833333Y-122595238D01*
X91833333Y-122452380D01*
X91880952Y-122357142D01*
X91928571Y-122309523D01*
X92023809Y-122261904D01*
X92261904Y-122261904D01*
X92357142Y-122309523D01*
X92404761Y-122357142D01*
X92452380Y-122452380D01*
X92452380Y-122738095D01*
X92404761Y-122833333D01*
X92357142Y-122880952D01*
X89880952Y-114607142D02*
X89833333Y-114654761D01*
X89690476Y-114702380D01*
X89595238Y-114702380D01*
X89452380Y-114654761D01*
X89357142Y-114559523D01*
X89309523Y-114464285D01*
X89261904Y-114273809D01*
X89261904Y-114130952D01*
X89309523Y-113940476D01*
X89357142Y-113845238D01*
X89452380Y-113750000D01*
X89595238Y-113702380D01*
X89690476Y-113702380D01*
X89833333Y-113750000D01*
X89880952Y-113797619D01*
X90214285Y-113702380D02*
X90833333Y-113702380D01*
X90500000Y-114083333D01*
X90642857Y-114083333D01*
X90738095Y-114130952D01*
X90785714Y-114178571D01*
X90833333Y-114273809D01*
X90833333Y-114511904D01*
X90785714Y-114607142D01*
X90738095Y-114654761D01*
X90642857Y-114702380D01*
X90357142Y-114702380D01*
X90261904Y-114654761D01*
X90214285Y-114607142D01*
X91452380Y-113702380D02*
X91547619Y-113702380D01*
X91642857Y-113750000D01*
X91690476Y-113797619D01*
X91738095Y-113892857D01*
X91785714Y-114083333D01*
X91785714Y-114321428D01*
X91738095Y-114511904D01*
X91690476Y-114607142D01*
X91642857Y-114654761D01*
X91547619Y-114702380D01*
X91452380Y-114702380D01*
X91357142Y-114654761D01*
X91309523Y-114607142D01*
X91261904Y-114511904D01*
X91214285Y-114321428D01*
X91214285Y-114083333D01*
X91261904Y-113892857D01*
X91309523Y-113797619D01*
X91357142Y-113750000D01*
X91452380Y-113702380D01*
X92119047Y-113702380D02*
X92785714Y-113702380D01*
X92357142Y-114702380D01*
X54880952Y-129702380D02*
X54547619Y-129226190D01*
X54309523Y-129702380D02*
X54309523Y-128702380D01*
X54690476Y-128702380D01*
X54785714Y-128750000D01*
X54833333Y-128797619D01*
X54880952Y-128892857D01*
X54880952Y-129035714D01*
X54833333Y-129130952D01*
X54785714Y-129178571D01*
X54690476Y-129226190D01*
X54309523Y-129226190D01*
X55214285Y-128702380D02*
X55833333Y-128702380D01*
X55500000Y-129083333D01*
X55642857Y-129083333D01*
X55738095Y-129130952D01*
X55785714Y-129178571D01*
X55833333Y-129273809D01*
X55833333Y-129511904D01*
X55785714Y-129607142D01*
X55738095Y-129654761D01*
X55642857Y-129702380D01*
X55357142Y-129702380D01*
X55261904Y-129654761D01*
X55214285Y-129607142D01*
X56452380Y-128702380D02*
X56547619Y-128702380D01*
X56642857Y-128750000D01*
X56690476Y-128797619D01*
X56738095Y-128892857D01*
X56785714Y-129083333D01*
X56785714Y-129321428D01*
X56738095Y-129511904D01*
X56690476Y-129607142D01*
X56642857Y-129654761D01*
X56547619Y-129702380D01*
X56452380Y-129702380D01*
X56357142Y-129654761D01*
X56309523Y-129607142D01*
X56261904Y-129511904D01*
X56214285Y-129321428D01*
X56214285Y-129083333D01*
X56261904Y-128892857D01*
X56309523Y-128797619D01*
X56357142Y-128750000D01*
X56452380Y-128702380D01*
X57119047Y-128702380D02*
X57738095Y-128702380D01*
X57404761Y-129083333D01*
X57547619Y-129083333D01*
X57642857Y-129130952D01*
X57690476Y-129178571D01*
X57738095Y-129273809D01*
X57738095Y-129511904D01*
X57690476Y-129607142D01*
X57642857Y-129654761D01*
X57547619Y-129702380D01*
X57261904Y-129702380D01*
X57166666Y-129654761D01*
X57119047Y-129607142D01*
X88107142Y-144619047D02*
X88154761Y-144666666D01*
X88202380Y-144809523D01*
X88202380Y-144904761D01*
X88154761Y-145047619D01*
X88059523Y-145142857D01*
X87964285Y-145190476D01*
X87773809Y-145238095D01*
X87630952Y-145238095D01*
X87440476Y-145190476D01*
X87345238Y-145142857D01*
X87250000Y-145047619D01*
X87202380Y-144904761D01*
X87202380Y-144809523D01*
X87250000Y-144666666D01*
X87297619Y-144619047D01*
X87202380Y-144285714D02*
X87202380Y-143666666D01*
X87583333Y-144000000D01*
X87583333Y-143857142D01*
X87630952Y-143761904D01*
X87678571Y-143714285D01*
X87773809Y-143666666D01*
X88011904Y-143666666D01*
X88107142Y-143714285D01*
X88154761Y-143761904D01*
X88202380Y-143857142D01*
X88202380Y-144142857D01*
X88154761Y-144238095D01*
X88107142Y-144285714D01*
X88202380Y-142714285D02*
X88202380Y-143285714D01*
X88202380Y-143000000D02*
X87202380Y-143000000D01*
X87345238Y-143095238D01*
X87440476Y-143190476D01*
X87488095Y-143285714D01*
X87297619Y-142333333D02*
X87250000Y-142285714D01*
X87202380Y-142190476D01*
X87202380Y-141952380D01*
X87250000Y-141857142D01*
X87297619Y-141809523D01*
X87392857Y-141761904D01*
X87488095Y-141761904D01*
X87630952Y-141809523D01*
X88202380Y-142380952D01*
X88202380Y-141761904D01*
X75607142Y-118119047D02*
X75654761Y-118166666D01*
X75702380Y-118309523D01*
X75702380Y-118404761D01*
X75654761Y-118547619D01*
X75559523Y-118642857D01*
X75464285Y-118690476D01*
X75273809Y-118738095D01*
X75130952Y-118738095D01*
X74940476Y-118690476D01*
X74845238Y-118642857D01*
X74750000Y-118547619D01*
X74702380Y-118404761D01*
X74702380Y-118309523D01*
X74750000Y-118166666D01*
X74797619Y-118119047D01*
X74702380Y-117785714D02*
X74702380Y-117166666D01*
X75083333Y-117500000D01*
X75083333Y-117357142D01*
X75130952Y-117261904D01*
X75178571Y-117214285D01*
X75273809Y-117166666D01*
X75511904Y-117166666D01*
X75607142Y-117214285D01*
X75654761Y-117261904D01*
X75702380Y-117357142D01*
X75702380Y-117642857D01*
X75654761Y-117738095D01*
X75607142Y-117785714D01*
X74702380Y-116547619D02*
X74702380Y-116452380D01*
X74750000Y-116357142D01*
X74797619Y-116309523D01*
X74892857Y-116261904D01*
X75083333Y-116214285D01*
X75321428Y-116214285D01*
X75511904Y-116261904D01*
X75607142Y-116309523D01*
X75654761Y-116357142D01*
X75702380Y-116452380D01*
X75702380Y-116547619D01*
X75654761Y-116642857D01*
X75607142Y-116690476D01*
X75511904Y-116738095D01*
X75321428Y-116785714D01*
X75083333Y-116785714D01*
X74892857Y-116738095D01*
X74797619Y-116690476D01*
X74750000Y-116642857D01*
X74702380Y-116547619D01*
X75702380Y-115738095D02*
X75702380Y-115547619D01*
X75654761Y-115452380D01*
X75607142Y-115404761D01*
X75464285Y-115309523D01*
X75273809Y-115261904D01*
X74892857Y-115261904D01*
X74797619Y-115309523D01*
X74750000Y-115357142D01*
X74702380Y-115452380D01*
X74702380Y-115642857D01*
X74750000Y-115738095D01*
X74797619Y-115785714D01*
X74892857Y-115833333D01*
X75130952Y-115833333D01*
X75226190Y-115785714D01*
X75273809Y-115738095D01*
X75321428Y-115642857D01*
X75321428Y-115452380D01*
X75273809Y-115357142D01*
X75226190Y-115309523D01*
X75130952Y-115261904D01*
X81214285Y-152452380D02*
X81214285Y-153166666D01*
X81166666Y-153309523D01*
X81071428Y-153404761D01*
X80928571Y-153452380D01*
X80833333Y-153452380D01*
X81595238Y-152452380D02*
X82214285Y-152452380D01*
X81880952Y-152833333D01*
X82023809Y-152833333D01*
X82119047Y-152880952D01*
X82166666Y-152928571D01*
X82214285Y-153023809D01*
X82214285Y-153261904D01*
X82166666Y-153357142D01*
X82119047Y-153404761D01*
X82023809Y-153452380D01*
X81738095Y-153452380D01*
X81642857Y-153404761D01*
X81595238Y-153357142D01*
X82833333Y-152452380D02*
X82928571Y-152452380D01*
X83023809Y-152500000D01*
X83071428Y-152547619D01*
X83119047Y-152642857D01*
X83166666Y-152833333D01*
X83166666Y-153071428D01*
X83119047Y-153261904D01*
X83071428Y-153357142D01*
X83023809Y-153404761D01*
X82928571Y-153452380D01*
X82833333Y-153452380D01*
X82738095Y-153404761D01*
X82690476Y-153357142D01*
X82642857Y-153261904D01*
X82595238Y-153071428D01*
X82595238Y-152833333D01*
X82642857Y-152642857D01*
X82690476Y-152547619D01*
X82738095Y-152500000D01*
X82833333Y-152452380D01*
X84119047Y-153452380D02*
X83547619Y-153452380D01*
X83833333Y-153452380D02*
X83833333Y-152452380D01*
X83738095Y-152595238D01*
X83642857Y-152690476D01*
X83547619Y-152738095D01*
X81785714Y-117452380D02*
X81785714Y-118261904D01*
X81833333Y-118357142D01*
X81880952Y-118404761D01*
X81976190Y-118452380D01*
X82166666Y-118452380D01*
X82261904Y-118404761D01*
X82309523Y-118357142D01*
X82357142Y-118261904D01*
X82357142Y-117452380D01*
X82738095Y-117452380D02*
X83357142Y-117452380D01*
X83023809Y-117833333D01*
X83166666Y-117833333D01*
X83261904Y-117880952D01*
X83309523Y-117928571D01*
X83357142Y-118023809D01*
X83357142Y-118261904D01*
X83309523Y-118357142D01*
X83261904Y-118404761D01*
X83166666Y-118452380D01*
X82880952Y-118452380D01*
X82785714Y-118404761D01*
X82738095Y-118357142D01*
X83976190Y-117452380D02*
X84071428Y-117452380D01*
X84166666Y-117500000D01*
X84214285Y-117547619D01*
X84261904Y-117642857D01*
X84309523Y-117833333D01*
X84309523Y-118071428D01*
X84261904Y-118261904D01*
X84214285Y-118357142D01*
X84166666Y-118404761D01*
X84071428Y-118452380D01*
X83976190Y-118452380D01*
X83880952Y-118404761D01*
X83833333Y-118357142D01*
X83785714Y-118261904D01*
X83738095Y-118071428D01*
X83738095Y-117833333D01*
X83785714Y-117642857D01*
X83833333Y-117547619D01*
X83880952Y-117500000D01*
X83976190Y-117452380D01*
X84690476Y-117547619D02*
X84738095Y-117500000D01*
X84833333Y-117452380D01*
X85071428Y-117452380D01*
X85166666Y-117500000D01*
X85214285Y-117547619D01*
X85261904Y-117642857D01*
X85261904Y-117738095D01*
X85214285Y-117880952D01*
X84642857Y-118452380D01*
X85261904Y-118452380D01*
X86964285Y-152452380D02*
X86964285Y-153166666D01*
X86916666Y-153309523D01*
X86821428Y-153404761D01*
X86678571Y-153452380D01*
X86583333Y-153452380D01*
X87345238Y-152452380D02*
X87964285Y-152452380D01*
X87630952Y-152833333D01*
X87773809Y-152833333D01*
X87869047Y-152880952D01*
X87916666Y-152928571D01*
X87964285Y-153023809D01*
X87964285Y-153261904D01*
X87916666Y-153357142D01*
X87869047Y-153404761D01*
X87773809Y-153452380D01*
X87488095Y-153452380D01*
X87392857Y-153404761D01*
X87345238Y-153357142D01*
X88583333Y-152452380D02*
X88678571Y-152452380D01*
X88773809Y-152500000D01*
X88821428Y-152547619D01*
X88869047Y-152642857D01*
X88916666Y-152833333D01*
X88916666Y-153071428D01*
X88869047Y-153261904D01*
X88821428Y-153357142D01*
X88773809Y-153404761D01*
X88678571Y-153452380D01*
X88583333Y-153452380D01*
X88488095Y-153404761D01*
X88440476Y-153357142D01*
X88392857Y-153261904D01*
X88345238Y-153071428D01*
X88345238Y-152833333D01*
X88392857Y-152642857D01*
X88440476Y-152547619D01*
X88488095Y-152500000D01*
X88583333Y-152452380D01*
X89773809Y-152785714D02*
X89773809Y-153452380D01*
X89535714Y-152404761D02*
X89297619Y-153119047D01*
X89916666Y-153119047D01*
X89880952Y-118702380D02*
X89547619Y-118226190D01*
X89309523Y-118702380D02*
X89309523Y-117702380D01*
X89690476Y-117702380D01*
X89785714Y-117750000D01*
X89833333Y-117797619D01*
X89880952Y-117892857D01*
X89880952Y-118035714D01*
X89833333Y-118130952D01*
X89785714Y-118178571D01*
X89690476Y-118226190D01*
X89309523Y-118226190D01*
X90214285Y-117702380D02*
X90833333Y-117702380D01*
X90500000Y-118083333D01*
X90642857Y-118083333D01*
X90738095Y-118130952D01*
X90785714Y-118178571D01*
X90833333Y-118273809D01*
X90833333Y-118511904D01*
X90785714Y-118607142D01*
X90738095Y-118654761D01*
X90642857Y-118702380D01*
X90357142Y-118702380D01*
X90261904Y-118654761D01*
X90214285Y-118607142D01*
X91785714Y-118702380D02*
X91214285Y-118702380D01*
X91500000Y-118702380D02*
X91500000Y-117702380D01*
X91404761Y-117845238D01*
X91309523Y-117940476D01*
X91214285Y-117988095D01*
X92166666Y-117797619D02*
X92214285Y-117750000D01*
X92309523Y-117702380D01*
X92547619Y-117702380D01*
X92642857Y-117750000D01*
X92690476Y-117797619D01*
X92738095Y-117892857D01*
X92738095Y-117988095D01*
X92690476Y-118130952D01*
X92119047Y-118702380D01*
X92738095Y-118702380D01*
X53380952Y-118607142D02*
X53333333Y-118654761D01*
X53190476Y-118702380D01*
X53095238Y-118702380D01*
X52952380Y-118654761D01*
X52857142Y-118559523D01*
X52809523Y-118464285D01*
X52761904Y-118273809D01*
X52761904Y-118130952D01*
X52809523Y-117940476D01*
X52857142Y-117845238D01*
X52952380Y-117750000D01*
X53095238Y-117702380D01*
X53190476Y-117702380D01*
X53333333Y-117750000D01*
X53380952Y-117797619D01*
X53714285Y-117702380D02*
X54333333Y-117702380D01*
X54000000Y-118083333D01*
X54142857Y-118083333D01*
X54238095Y-118130952D01*
X54285714Y-118178571D01*
X54333333Y-118273809D01*
X54333333Y-118511904D01*
X54285714Y-118607142D01*
X54238095Y-118654761D01*
X54142857Y-118702380D01*
X53857142Y-118702380D01*
X53761904Y-118654761D01*
X53714285Y-118607142D01*
X54952380Y-117702380D02*
X55047619Y-117702380D01*
X55142857Y-117750000D01*
X55190476Y-117797619D01*
X55238095Y-117892857D01*
X55285714Y-118083333D01*
X55285714Y-118321428D01*
X55238095Y-118511904D01*
X55190476Y-118607142D01*
X55142857Y-118654761D01*
X55047619Y-118702380D01*
X54952380Y-118702380D01*
X54857142Y-118654761D01*
X54809523Y-118607142D01*
X54761904Y-118511904D01*
X54714285Y-118321428D01*
X54714285Y-118083333D01*
X54761904Y-117892857D01*
X54809523Y-117797619D01*
X54857142Y-117750000D01*
X54952380Y-117702380D01*
X56238095Y-118702380D02*
X55666666Y-118702380D01*
X55952380Y-118702380D02*
X55952380Y-117702380D01*
X55857142Y-117845238D01*
X55761904Y-117940476D01*
X55666666Y-117988095D01*
X58380952Y-118702380D02*
X58047619Y-118226190D01*
X57809523Y-118702380D02*
X57809523Y-117702380D01*
X58190476Y-117702380D01*
X58285714Y-117750000D01*
X58333333Y-117797619D01*
X58380952Y-117892857D01*
X58380952Y-118035714D01*
X58333333Y-118130952D01*
X58285714Y-118178571D01*
X58190476Y-118226190D01*
X57809523Y-118226190D01*
X58714285Y-117702380D02*
X59333333Y-117702380D01*
X59000000Y-118083333D01*
X59142857Y-118083333D01*
X59238095Y-118130952D01*
X59285714Y-118178571D01*
X59333333Y-118273809D01*
X59333333Y-118511904D01*
X59285714Y-118607142D01*
X59238095Y-118654761D01*
X59142857Y-118702380D01*
X58857142Y-118702380D01*
X58761904Y-118654761D01*
X58714285Y-118607142D01*
X59952380Y-117702380D02*
X60047619Y-117702380D01*
X60142857Y-117750000D01*
X60190476Y-117797619D01*
X60238095Y-117892857D01*
X60285714Y-118083333D01*
X60285714Y-118321428D01*
X60238095Y-118511904D01*
X60190476Y-118607142D01*
X60142857Y-118654761D01*
X60047619Y-118702380D01*
X59952380Y-118702380D01*
X59857142Y-118654761D01*
X59809523Y-118607142D01*
X59761904Y-118511904D01*
X59714285Y-118321428D01*
X59714285Y-118083333D01*
X59761904Y-117892857D01*
X59809523Y-117797619D01*
X59857142Y-117750000D01*
X59952380Y-117702380D01*
X61190476Y-117702380D02*
X60714285Y-117702380D01*
X60666666Y-118178571D01*
X60714285Y-118130952D01*
X60809523Y-118083333D01*
X61047619Y-118083333D01*
X61142857Y-118130952D01*
X61190476Y-118178571D01*
X61238095Y-118273809D01*
X61238095Y-118511904D01*
X61190476Y-118607142D01*
X61142857Y-118654761D01*
X61047619Y-118702380D01*
X60809523Y-118702380D01*
X60714285Y-118654761D01*
X60666666Y-118607142D01*
X84880952Y-114702380D02*
X84547619Y-114226190D01*
X84309523Y-114702380D02*
X84309523Y-113702380D01*
X84690476Y-113702380D01*
X84785714Y-113750000D01*
X84833333Y-113797619D01*
X84880952Y-113892857D01*
X84880952Y-114035714D01*
X84833333Y-114130952D01*
X84785714Y-114178571D01*
X84690476Y-114226190D01*
X84309523Y-114226190D01*
X85214285Y-113702380D02*
X85833333Y-113702380D01*
X85500000Y-114083333D01*
X85642857Y-114083333D01*
X85738095Y-114130952D01*
X85785714Y-114178571D01*
X85833333Y-114273809D01*
X85833333Y-114511904D01*
X85785714Y-114607142D01*
X85738095Y-114654761D01*
X85642857Y-114702380D01*
X85357142Y-114702380D01*
X85261904Y-114654761D01*
X85214285Y-114607142D01*
X86785714Y-114702380D02*
X86214285Y-114702380D01*
X86500000Y-114702380D02*
X86500000Y-113702380D01*
X86404761Y-113845238D01*
X86309523Y-113940476D01*
X86214285Y-113988095D01*
X87404761Y-113702380D02*
X87500000Y-113702380D01*
X87595238Y-113750000D01*
X87642857Y-113797619D01*
X87690476Y-113892857D01*
X87738095Y-114083333D01*
X87738095Y-114321428D01*
X87690476Y-114511904D01*
X87642857Y-114607142D01*
X87595238Y-114654761D01*
X87500000Y-114702380D01*
X87404761Y-114702380D01*
X87309523Y-114654761D01*
X87261904Y-114607142D01*
X87214285Y-114511904D01*
X87166666Y-114321428D01*
X87166666Y-114083333D01*
X87214285Y-113892857D01*
X87261904Y-113797619D01*
X87309523Y-113750000D01*
X87404761Y-113702380D01*
X54952380Y-138748214D02*
X55666666Y-138748214D01*
X55809523Y-138795833D01*
X55904761Y-138891071D01*
X55952380Y-139033928D01*
X55952380Y-139129166D01*
X55952380Y-137748214D02*
X55952380Y-138319642D01*
X55952380Y-138033928D02*
X54952380Y-138033928D01*
X55095238Y-138129166D01*
X55190476Y-138224404D01*
X55238095Y-138319642D01*
X54952380Y-137129166D02*
X54952380Y-137033928D01*
X55000000Y-136938690D01*
X55047619Y-136891071D01*
X55142857Y-136843452D01*
X55333333Y-136795833D01*
X55571428Y-136795833D01*
X55761904Y-136843452D01*
X55857142Y-136891071D01*
X55904761Y-136938690D01*
X55952380Y-137033928D01*
X55952380Y-137129166D01*
X55904761Y-137224404D01*
X55857142Y-137272023D01*
X55761904Y-137319642D01*
X55571428Y-137367261D01*
X55333333Y-137367261D01*
X55142857Y-137319642D01*
X55047619Y-137272023D01*
X55000000Y-137224404D01*
X54952380Y-137129166D01*
X55952380Y-135843452D02*
X55952380Y-136414880D01*
X55952380Y-136129166D02*
X54952380Y-136129166D01*
X55095238Y-136224404D01*
X55190476Y-136319642D01*
X55238095Y-136414880D01*
X94880952Y-114607142D02*
X94833333Y-114654761D01*
X94690476Y-114702380D01*
X94595238Y-114702380D01*
X94452380Y-114654761D01*
X94357142Y-114559523D01*
X94309523Y-114464285D01*
X94261904Y-114273809D01*
X94261904Y-114130952D01*
X94309523Y-113940476D01*
X94357142Y-113845238D01*
X94452380Y-113750000D01*
X94595238Y-113702380D01*
X94690476Y-113702380D01*
X94833333Y-113750000D01*
X94880952Y-113797619D01*
X95214285Y-113702380D02*
X95833333Y-113702380D01*
X95500000Y-114083333D01*
X95642857Y-114083333D01*
X95738095Y-114130952D01*
X95785714Y-114178571D01*
X95833333Y-114273809D01*
X95833333Y-114511904D01*
X95785714Y-114607142D01*
X95738095Y-114654761D01*
X95642857Y-114702380D01*
X95357142Y-114702380D01*
X95261904Y-114654761D01*
X95214285Y-114607142D01*
X96452380Y-113702380D02*
X96547619Y-113702380D01*
X96642857Y-113750000D01*
X96690476Y-113797619D01*
X96738095Y-113892857D01*
X96785714Y-114083333D01*
X96785714Y-114321428D01*
X96738095Y-114511904D01*
X96690476Y-114607142D01*
X96642857Y-114654761D01*
X96547619Y-114702380D01*
X96452380Y-114702380D01*
X96357142Y-114654761D01*
X96309523Y-114607142D01*
X96261904Y-114511904D01*
X96214285Y-114321428D01*
X96214285Y-114083333D01*
X96261904Y-113892857D01*
X96309523Y-113797619D01*
X96357142Y-113750000D01*
X96452380Y-113702380D01*
X97642857Y-113702380D02*
X97452380Y-113702380D01*
X97357142Y-113750000D01*
X97309523Y-113797619D01*
X97214285Y-113940476D01*
X97166666Y-114130952D01*
X97166666Y-114511904D01*
X97214285Y-114607142D01*
X97261904Y-114654761D01*
X97357142Y-114702380D01*
X97547619Y-114702380D01*
X97642857Y-114654761D01*
X97690476Y-114607142D01*
X97738095Y-114511904D01*
X97738095Y-114273809D01*
X97690476Y-114178571D01*
X97642857Y-114130952D01*
X97547619Y-114083333D01*
X97357142Y-114083333D01*
X97261904Y-114130952D01*
X97214285Y-114178571D01*
X97166666Y-114273809D01*
X53380952Y-114702380D02*
X53047619Y-114226190D01*
X52809523Y-114702380D02*
X52809523Y-113702380D01*
X53190476Y-113702380D01*
X53285714Y-113750000D01*
X53333333Y-113797619D01*
X53380952Y-113892857D01*
X53380952Y-114035714D01*
X53333333Y-114130952D01*
X53285714Y-114178571D01*
X53190476Y-114226190D01*
X52809523Y-114226190D01*
X53714285Y-113702380D02*
X54333333Y-113702380D01*
X54000000Y-114083333D01*
X54142857Y-114083333D01*
X54238095Y-114130952D01*
X54285714Y-114178571D01*
X54333333Y-114273809D01*
X54333333Y-114511904D01*
X54285714Y-114607142D01*
X54238095Y-114654761D01*
X54142857Y-114702380D01*
X53857142Y-114702380D01*
X53761904Y-114654761D01*
X53714285Y-114607142D01*
X54952380Y-113702380D02*
X55047619Y-113702380D01*
X55142857Y-113750000D01*
X55190476Y-113797619D01*
X55238095Y-113892857D01*
X55285714Y-114083333D01*
X55285714Y-114321428D01*
X55238095Y-114511904D01*
X55190476Y-114607142D01*
X55142857Y-114654761D01*
X55047619Y-114702380D01*
X54952380Y-114702380D01*
X54857142Y-114654761D01*
X54809523Y-114607142D01*
X54761904Y-114511904D01*
X54714285Y-114321428D01*
X54714285Y-114083333D01*
X54761904Y-113892857D01*
X54809523Y-113797619D01*
X54857142Y-113750000D01*
X54952380Y-113702380D01*
X56142857Y-114035714D02*
X56142857Y-114702380D01*
X55904761Y-113654761D02*
X55666666Y-114369047D01*
X56285714Y-114369047D01*
X53380952Y-122607142D02*
X53333333Y-122654761D01*
X53190476Y-122702380D01*
X53095238Y-122702380D01*
X52952380Y-122654761D01*
X52857142Y-122559523D01*
X52809523Y-122464285D01*
X52761904Y-122273809D01*
X52761904Y-122130952D01*
X52809523Y-121940476D01*
X52857142Y-121845238D01*
X52952380Y-121750000D01*
X53095238Y-121702380D01*
X53190476Y-121702380D01*
X53333333Y-121750000D01*
X53380952Y-121797619D01*
X53714285Y-121702380D02*
X54333333Y-121702380D01*
X54000000Y-122083333D01*
X54142857Y-122083333D01*
X54238095Y-122130952D01*
X54285714Y-122178571D01*
X54333333Y-122273809D01*
X54333333Y-122511904D01*
X54285714Y-122607142D01*
X54238095Y-122654761D01*
X54142857Y-122702380D01*
X53857142Y-122702380D01*
X53761904Y-122654761D01*
X53714285Y-122607142D01*
X54952380Y-121702380D02*
X55047619Y-121702380D01*
X55142857Y-121750000D01*
X55190476Y-121797619D01*
X55238095Y-121892857D01*
X55285714Y-122083333D01*
X55285714Y-122321428D01*
X55238095Y-122511904D01*
X55190476Y-122607142D01*
X55142857Y-122654761D01*
X55047619Y-122702380D01*
X54952380Y-122702380D01*
X54857142Y-122654761D01*
X54809523Y-122607142D01*
X54761904Y-122511904D01*
X54714285Y-122321428D01*
X54714285Y-122083333D01*
X54761904Y-121892857D01*
X54809523Y-121797619D01*
X54857142Y-121750000D01*
X54952380Y-121702380D01*
X55666666Y-121797619D02*
X55714285Y-121750000D01*
X55809523Y-121702380D01*
X56047619Y-121702380D01*
X56142857Y-121750000D01*
X56190476Y-121797619D01*
X56238095Y-121892857D01*
X56238095Y-121988095D01*
X56190476Y-122130952D01*
X55619047Y-122702380D01*
X56238095Y-122702380D01*
X55630952Y-151607142D02*
X55583333Y-151654761D01*
X55440476Y-151702380D01*
X55345238Y-151702380D01*
X55202380Y-151654761D01*
X55107142Y-151559523D01*
X55059523Y-151464285D01*
X55011904Y-151273809D01*
X55011904Y-151130952D01*
X55059523Y-150940476D01*
X55107142Y-150845238D01*
X55202380Y-150750000D01*
X55345238Y-150702380D01*
X55440476Y-150702380D01*
X55583333Y-150750000D01*
X55630952Y-150797619D01*
X55964285Y-150702380D02*
X56583333Y-150702380D01*
X56250000Y-151083333D01*
X56392857Y-151083333D01*
X56488095Y-151130952D01*
X56535714Y-151178571D01*
X56583333Y-151273809D01*
X56583333Y-151511904D01*
X56535714Y-151607142D01*
X56488095Y-151654761D01*
X56392857Y-151702380D01*
X56107142Y-151702380D01*
X56011904Y-151654761D01*
X55964285Y-151607142D01*
X57202380Y-150702380D02*
X57297619Y-150702380D01*
X57392857Y-150750000D01*
X57440476Y-150797619D01*
X57488095Y-150892857D01*
X57535714Y-151083333D01*
X57535714Y-151321428D01*
X57488095Y-151511904D01*
X57440476Y-151607142D01*
X57392857Y-151654761D01*
X57297619Y-151702380D01*
X57202380Y-151702380D01*
X57107142Y-151654761D01*
X57059523Y-151607142D01*
X57011904Y-151511904D01*
X56964285Y-151321428D01*
X56964285Y-151083333D01*
X57011904Y-150892857D01*
X57059523Y-150797619D01*
X57107142Y-150750000D01*
X57202380Y-150702380D01*
X58392857Y-151035714D02*
X58392857Y-151702380D01*
X58154761Y-150654761D02*
X57916666Y-151369047D01*
X58535714Y-151369047D01*
X67957142Y-152181547D02*
X68004761Y-152229166D01*
X68052380Y-152372023D01*
X68052380Y-152467261D01*
X68004761Y-152610119D01*
X67909523Y-152705357D01*
X67814285Y-152752976D01*
X67623809Y-152800595D01*
X67480952Y-152800595D01*
X67290476Y-152752976D01*
X67195238Y-152705357D01*
X67100000Y-152610119D01*
X67052380Y-152467261D01*
X67052380Y-152372023D01*
X67100000Y-152229166D01*
X67147619Y-152181547D01*
X67052380Y-151848214D02*
X67052380Y-151229166D01*
X67433333Y-151562500D01*
X67433333Y-151419642D01*
X67480952Y-151324404D01*
X67528571Y-151276785D01*
X67623809Y-151229166D01*
X67861904Y-151229166D01*
X67957142Y-151276785D01*
X68004761Y-151324404D01*
X68052380Y-151419642D01*
X68052380Y-151705357D01*
X68004761Y-151800595D01*
X67957142Y-151848214D01*
X67052380Y-150610119D02*
X67052380Y-150514880D01*
X67100000Y-150419642D01*
X67147619Y-150372023D01*
X67242857Y-150324404D01*
X67433333Y-150276785D01*
X67671428Y-150276785D01*
X67861904Y-150324404D01*
X67957142Y-150372023D01*
X68004761Y-150419642D01*
X68052380Y-150514880D01*
X68052380Y-150610119D01*
X68004761Y-150705357D01*
X67957142Y-150752976D01*
X67861904Y-150800595D01*
X67671428Y-150848214D01*
X67433333Y-150848214D01*
X67242857Y-150800595D01*
X67147619Y-150752976D01*
X67100000Y-150705357D01*
X67052380Y-150610119D01*
X67052380Y-149372023D02*
X67052380Y-149848214D01*
X67528571Y-149895833D01*
X67480952Y-149848214D01*
X67433333Y-149752976D01*
X67433333Y-149514880D01*
X67480952Y-149419642D01*
X67528571Y-149372023D01*
X67623809Y-149324404D01*
X67861904Y-149324404D01*
X67957142Y-149372023D01*
X68004761Y-149419642D01*
X68052380Y-149514880D01*
X68052380Y-149752976D01*
X68004761Y-149848214D01*
X67957142Y-149895833D01*
X79880952Y-114607142D02*
X79833333Y-114654761D01*
X79690476Y-114702380D01*
X79595238Y-114702380D01*
X79452380Y-114654761D01*
X79357142Y-114559523D01*
X79309523Y-114464285D01*
X79261904Y-114273809D01*
X79261904Y-114130952D01*
X79309523Y-113940476D01*
X79357142Y-113845238D01*
X79452380Y-113750000D01*
X79595238Y-113702380D01*
X79690476Y-113702380D01*
X79833333Y-113750000D01*
X79880952Y-113797619D01*
X80214285Y-113702380D02*
X80833333Y-113702380D01*
X80500000Y-114083333D01*
X80642857Y-114083333D01*
X80738095Y-114130952D01*
X80785714Y-114178571D01*
X80833333Y-114273809D01*
X80833333Y-114511904D01*
X80785714Y-114607142D01*
X80738095Y-114654761D01*
X80642857Y-114702380D01*
X80357142Y-114702380D01*
X80261904Y-114654761D01*
X80214285Y-114607142D01*
X81785714Y-114702380D02*
X81214285Y-114702380D01*
X81500000Y-114702380D02*
X81500000Y-113702380D01*
X81404761Y-113845238D01*
X81309523Y-113940476D01*
X81214285Y-113988095D01*
X82404761Y-113702380D02*
X82500000Y-113702380D01*
X82595238Y-113750000D01*
X82642857Y-113797619D01*
X82690476Y-113892857D01*
X82738095Y-114083333D01*
X82738095Y-114321428D01*
X82690476Y-114511904D01*
X82642857Y-114607142D01*
X82595238Y-114654761D01*
X82500000Y-114702380D01*
X82404761Y-114702380D01*
X82309523Y-114654761D01*
X82261904Y-114607142D01*
X82214285Y-114511904D01*
X82166666Y-114321428D01*
X82166666Y-114083333D01*
X82214285Y-113892857D01*
X82261904Y-113797619D01*
X82309523Y-113750000D01*
X82404761Y-113702380D01*
X58380952Y-114607142D02*
X58333333Y-114654761D01*
X58190476Y-114702380D01*
X58095238Y-114702380D01*
X57952380Y-114654761D01*
X57857142Y-114559523D01*
X57809523Y-114464285D01*
X57761904Y-114273809D01*
X57761904Y-114130952D01*
X57809523Y-113940476D01*
X57857142Y-113845238D01*
X57952380Y-113750000D01*
X58095238Y-113702380D01*
X58190476Y-113702380D01*
X58333333Y-113750000D01*
X58380952Y-113797619D01*
X58714285Y-113702380D02*
X59333333Y-113702380D01*
X59000000Y-114083333D01*
X59142857Y-114083333D01*
X59238095Y-114130952D01*
X59285714Y-114178571D01*
X59333333Y-114273809D01*
X59333333Y-114511904D01*
X59285714Y-114607142D01*
X59238095Y-114654761D01*
X59142857Y-114702380D01*
X58857142Y-114702380D01*
X58761904Y-114654761D01*
X58714285Y-114607142D01*
X59952380Y-113702380D02*
X60047619Y-113702380D01*
X60142857Y-113750000D01*
X60190476Y-113797619D01*
X60238095Y-113892857D01*
X60285714Y-114083333D01*
X60285714Y-114321428D01*
X60238095Y-114511904D01*
X60190476Y-114607142D01*
X60142857Y-114654761D01*
X60047619Y-114702380D01*
X59952380Y-114702380D01*
X59857142Y-114654761D01*
X59809523Y-114607142D01*
X59761904Y-114511904D01*
X59714285Y-114321428D01*
X59714285Y-114083333D01*
X59761904Y-113892857D01*
X59809523Y-113797619D01*
X59857142Y-113750000D01*
X59952380Y-113702380D01*
X60857142Y-114130952D02*
X60761904Y-114083333D01*
X60714285Y-114035714D01*
X60666666Y-113940476D01*
X60666666Y-113892857D01*
X60714285Y-113797619D01*
X60761904Y-113750000D01*
X60857142Y-113702380D01*
X61047619Y-113702380D01*
X61142857Y-113750000D01*
X61190476Y-113797619D01*
X61238095Y-113892857D01*
X61238095Y-113940476D01*
X61190476Y-114035714D01*
X61142857Y-114083333D01*
X61047619Y-114130952D01*
X60857142Y-114130952D01*
X60761904Y-114178571D01*
X60714285Y-114226190D01*
X60666666Y-114321428D01*
X60666666Y-114511904D01*
X60714285Y-114607142D01*
X60761904Y-114654761D01*
X60857142Y-114702380D01*
X61047619Y-114702380D01*
X61142857Y-114654761D01*
X61190476Y-114607142D01*
X61238095Y-114511904D01*
X61238095Y-114321428D01*
X61190476Y-114226190D01*
X61142857Y-114178571D01*
X61047619Y-114130952D01*
X67702380Y-123619047D02*
X67226190Y-123952380D01*
X67702380Y-124190476D02*
X66702380Y-124190476D01*
X66702380Y-123809523D01*
X66750000Y-123714285D01*
X66797619Y-123666666D01*
X66892857Y-123619047D01*
X67035714Y-123619047D01*
X67130952Y-123666666D01*
X67178571Y-123714285D01*
X67226190Y-123809523D01*
X67226190Y-124190476D01*
X66702380Y-123285714D02*
X66702380Y-122666666D01*
X67083333Y-123000000D01*
X67083333Y-122857142D01*
X67130952Y-122761904D01*
X67178571Y-122714285D01*
X67273809Y-122666666D01*
X67511904Y-122666666D01*
X67607142Y-122714285D01*
X67654761Y-122761904D01*
X67702380Y-122857142D01*
X67702380Y-123142857D01*
X67654761Y-123238095D01*
X67607142Y-123285714D01*
X66702380Y-122047619D02*
X66702380Y-121952380D01*
X66750000Y-121857142D01*
X66797619Y-121809523D01*
X66892857Y-121761904D01*
X67083333Y-121714285D01*
X67321428Y-121714285D01*
X67511904Y-121761904D01*
X67607142Y-121809523D01*
X67654761Y-121857142D01*
X67702380Y-121952380D01*
X67702380Y-122047619D01*
X67654761Y-122142857D01*
X67607142Y-122190476D01*
X67511904Y-122238095D01*
X67321428Y-122285714D01*
X67083333Y-122285714D01*
X66892857Y-122238095D01*
X66797619Y-122190476D01*
X66750000Y-122142857D01*
X66702380Y-122047619D01*
X67702380Y-121238095D02*
X67702380Y-121047619D01*
X67654761Y-120952380D01*
X67607142Y-120904761D01*
X67464285Y-120809523D01*
X67273809Y-120761904D01*
X66892857Y-120761904D01*
X66797619Y-120809523D01*
X66750000Y-120857142D01*
X66702380Y-120952380D01*
X66702380Y-121142857D01*
X66750000Y-121238095D01*
X66797619Y-121285714D01*
X66892857Y-121333333D01*
X67130952Y-121333333D01*
X67226190Y-121285714D01*
X67273809Y-121238095D01*
X67321428Y-121142857D01*
X67321428Y-120952380D01*
X67273809Y-120857142D01*
X67226190Y-120809523D01*
X67130952Y-120761904D01*
X55630952Y-147702380D02*
X55297619Y-147226190D01*
X55059523Y-147702380D02*
X55059523Y-146702380D01*
X55440476Y-146702380D01*
X55535714Y-146750000D01*
X55583333Y-146797619D01*
X55630952Y-146892857D01*
X55630952Y-147035714D01*
X55583333Y-147130952D01*
X55535714Y-147178571D01*
X55440476Y-147226190D01*
X55059523Y-147226190D01*
X55964285Y-146702380D02*
X56583333Y-146702380D01*
X56250000Y-147083333D01*
X56392857Y-147083333D01*
X56488095Y-147130952D01*
X56535714Y-147178571D01*
X56583333Y-147273809D01*
X56583333Y-147511904D01*
X56535714Y-147607142D01*
X56488095Y-147654761D01*
X56392857Y-147702380D01*
X56107142Y-147702380D01*
X56011904Y-147654761D01*
X55964285Y-147607142D01*
X57202380Y-146702380D02*
X57297619Y-146702380D01*
X57392857Y-146750000D01*
X57440476Y-146797619D01*
X57488095Y-146892857D01*
X57535714Y-147083333D01*
X57535714Y-147321428D01*
X57488095Y-147511904D01*
X57440476Y-147607142D01*
X57392857Y-147654761D01*
X57297619Y-147702380D01*
X57202380Y-147702380D01*
X57107142Y-147654761D01*
X57059523Y-147607142D01*
X57011904Y-147511904D01*
X56964285Y-147321428D01*
X56964285Y-147083333D01*
X57011904Y-146892857D01*
X57059523Y-146797619D01*
X57107142Y-146750000D01*
X57202380Y-146702380D01*
X58488095Y-147702380D02*
X57916666Y-147702380D01*
X58202380Y-147702380D02*
X58202380Y-146702380D01*
X58107142Y-146845238D01*
X58011904Y-146940476D01*
X57916666Y-146988095D01*
X67702380Y-118119047D02*
X67226190Y-118452380D01*
X67702380Y-118690476D02*
X66702380Y-118690476D01*
X66702380Y-118309523D01*
X66750000Y-118214285D01*
X66797619Y-118166666D01*
X66892857Y-118119047D01*
X67035714Y-118119047D01*
X67130952Y-118166666D01*
X67178571Y-118214285D01*
X67226190Y-118309523D01*
X67226190Y-118690476D01*
X66702380Y-117785714D02*
X66702380Y-117166666D01*
X67083333Y-117500000D01*
X67083333Y-117357142D01*
X67130952Y-117261904D01*
X67178571Y-117214285D01*
X67273809Y-117166666D01*
X67511904Y-117166666D01*
X67607142Y-117214285D01*
X67654761Y-117261904D01*
X67702380Y-117357142D01*
X67702380Y-117642857D01*
X67654761Y-117738095D01*
X67607142Y-117785714D01*
X66702380Y-116547619D02*
X66702380Y-116452380D01*
X66750000Y-116357142D01*
X66797619Y-116309523D01*
X66892857Y-116261904D01*
X67083333Y-116214285D01*
X67321428Y-116214285D01*
X67511904Y-116261904D01*
X67607142Y-116309523D01*
X67654761Y-116357142D01*
X67702380Y-116452380D01*
X67702380Y-116547619D01*
X67654761Y-116642857D01*
X67607142Y-116690476D01*
X67511904Y-116738095D01*
X67321428Y-116785714D01*
X67083333Y-116785714D01*
X66892857Y-116738095D01*
X66797619Y-116690476D01*
X66750000Y-116642857D01*
X66702380Y-116547619D01*
X66702380Y-115880952D02*
X66702380Y-115214285D01*
X67702380Y-115642857D01*
X71702380Y-118119047D02*
X71226190Y-118452380D01*
X71702380Y-118690476D02*
X70702380Y-118690476D01*
X70702380Y-118309523D01*
X70750000Y-118214285D01*
X70797619Y-118166666D01*
X70892857Y-118119047D01*
X71035714Y-118119047D01*
X71130952Y-118166666D01*
X71178571Y-118214285D01*
X71226190Y-118309523D01*
X71226190Y-118690476D01*
X70702380Y-117785714D02*
X70702380Y-117166666D01*
X71083333Y-117500000D01*
X71083333Y-117357142D01*
X71130952Y-117261904D01*
X71178571Y-117214285D01*
X71273809Y-117166666D01*
X71511904Y-117166666D01*
X71607142Y-117214285D01*
X71654761Y-117261904D01*
X71702380Y-117357142D01*
X71702380Y-117642857D01*
X71654761Y-117738095D01*
X71607142Y-117785714D01*
X70702380Y-116547619D02*
X70702380Y-116452380D01*
X70750000Y-116357142D01*
X70797619Y-116309523D01*
X70892857Y-116261904D01*
X71083333Y-116214285D01*
X71321428Y-116214285D01*
X71511904Y-116261904D01*
X71607142Y-116309523D01*
X71654761Y-116357142D01*
X71702380Y-116452380D01*
X71702380Y-116547619D01*
X71654761Y-116642857D01*
X71607142Y-116690476D01*
X71511904Y-116738095D01*
X71321428Y-116785714D01*
X71083333Y-116785714D01*
X70892857Y-116738095D01*
X70797619Y-116690476D01*
X70750000Y-116642857D01*
X70702380Y-116547619D01*
X71130952Y-115642857D02*
X71083333Y-115738095D01*
X71035714Y-115785714D01*
X70940476Y-115833333D01*
X70892857Y-115833333D01*
X70797619Y-115785714D01*
X70750000Y-115738095D01*
X70702380Y-115642857D01*
X70702380Y-115452380D01*
X70750000Y-115357142D01*
X70797619Y-115309523D01*
X70892857Y-115261904D01*
X70940476Y-115261904D01*
X71035714Y-115309523D01*
X71083333Y-115357142D01*
X71130952Y-115452380D01*
X71130952Y-115642857D01*
X71178571Y-115738095D01*
X71226190Y-115785714D01*
X71321428Y-115833333D01*
X71511904Y-115833333D01*
X71607142Y-115785714D01*
X71654761Y-115738095D01*
X71702380Y-115642857D01*
X71702380Y-115452380D01*
X71654761Y-115357142D01*
X71607142Y-115309523D01*
X71511904Y-115261904D01*
X71321428Y-115261904D01*
X71226190Y-115309523D01*
X71178571Y-115357142D01*
X71130952Y-115452380D01*
X75702380Y-124190476D02*
X74702380Y-124190476D01*
X74702380Y-123952380D01*
X74750000Y-123809523D01*
X74845238Y-123714285D01*
X74940476Y-123666666D01*
X75130952Y-123619047D01*
X75273809Y-123619047D01*
X75464285Y-123666666D01*
X75559523Y-123714285D01*
X75654761Y-123809523D01*
X75702380Y-123952380D01*
X75702380Y-124190476D01*
X74702380Y-123285714D02*
X74702380Y-122666666D01*
X75083333Y-123000000D01*
X75083333Y-122857142D01*
X75130952Y-122761904D01*
X75178571Y-122714285D01*
X75273809Y-122666666D01*
X75511904Y-122666666D01*
X75607142Y-122714285D01*
X75654761Y-122761904D01*
X75702380Y-122857142D01*
X75702380Y-123142857D01*
X75654761Y-123238095D01*
X75607142Y-123285714D01*
X74702380Y-122047619D02*
X74702380Y-121952380D01*
X74750000Y-121857142D01*
X74797619Y-121809523D01*
X74892857Y-121761904D01*
X75083333Y-121714285D01*
X75321428Y-121714285D01*
X75511904Y-121761904D01*
X75607142Y-121809523D01*
X75654761Y-121857142D01*
X75702380Y-121952380D01*
X75702380Y-122047619D01*
X75654761Y-122142857D01*
X75607142Y-122190476D01*
X75511904Y-122238095D01*
X75321428Y-122285714D01*
X75083333Y-122285714D01*
X74892857Y-122238095D01*
X74797619Y-122190476D01*
X74750000Y-122142857D01*
X74702380Y-122047619D01*
X74797619Y-121333333D02*
X74750000Y-121285714D01*
X74702380Y-121190476D01*
X74702380Y-120952380D01*
X74750000Y-120857142D01*
X74797619Y-120809523D01*
X74892857Y-120761904D01*
X74988095Y-120761904D01*
X75130952Y-120809523D01*
X75702380Y-121380952D01*
X75702380Y-120761904D01*
X60630952Y-147702380D02*
X60297619Y-147226190D01*
X60059523Y-147702380D02*
X60059523Y-146702380D01*
X60440476Y-146702380D01*
X60535714Y-146750000D01*
X60583333Y-146797619D01*
X60630952Y-146892857D01*
X60630952Y-147035714D01*
X60583333Y-147130952D01*
X60535714Y-147178571D01*
X60440476Y-147226190D01*
X60059523Y-147226190D01*
X60964285Y-146702380D02*
X61583333Y-146702380D01*
X61250000Y-147083333D01*
X61392857Y-147083333D01*
X61488095Y-147130952D01*
X61535714Y-147178571D01*
X61583333Y-147273809D01*
X61583333Y-147511904D01*
X61535714Y-147607142D01*
X61488095Y-147654761D01*
X61392857Y-147702380D01*
X61107142Y-147702380D01*
X61011904Y-147654761D01*
X60964285Y-147607142D01*
X62202380Y-146702380D02*
X62297619Y-146702380D01*
X62392857Y-146750000D01*
X62440476Y-146797619D01*
X62488095Y-146892857D01*
X62535714Y-147083333D01*
X62535714Y-147321428D01*
X62488095Y-147511904D01*
X62440476Y-147607142D01*
X62392857Y-147654761D01*
X62297619Y-147702380D01*
X62202380Y-147702380D01*
X62107142Y-147654761D01*
X62059523Y-147607142D01*
X62011904Y-147511904D01*
X61964285Y-147321428D01*
X61964285Y-147083333D01*
X62011904Y-146892857D01*
X62059523Y-146797619D01*
X62107142Y-146750000D01*
X62202380Y-146702380D01*
X62916666Y-146797619D02*
X62964285Y-146750000D01*
X63059523Y-146702380D01*
X63297619Y-146702380D01*
X63392857Y-146750000D01*
X63440476Y-146797619D01*
X63488095Y-146892857D01*
X63488095Y-146988095D01*
X63440476Y-147130952D01*
X62869047Y-147702380D01*
X63488095Y-147702380D01*
X73918095Y-135289523D02*
X73918095Y-134649523D01*
X74070476Y-134649523D01*
X74161904Y-134680000D01*
X74222857Y-134740952D01*
X74253333Y-134801904D01*
X74283809Y-134923809D01*
X74283809Y-135015238D01*
X74253333Y-135137142D01*
X74222857Y-135198095D01*
X74161904Y-135259047D01*
X74070476Y-135289523D01*
X73918095Y-135289523D01*
X74497142Y-134649523D02*
X74893333Y-134649523D01*
X74680000Y-134893333D01*
X74771428Y-134893333D01*
X74832380Y-134923809D01*
X74862857Y-134954285D01*
X74893333Y-135015238D01*
X74893333Y-135167619D01*
X74862857Y-135228571D01*
X74832380Y-135259047D01*
X74771428Y-135289523D01*
X74588571Y-135289523D01*
X74527619Y-135259047D01*
X74497142Y-135228571D01*
X75289523Y-134649523D02*
X75350476Y-134649523D01*
X75411428Y-134680000D01*
X75441904Y-134710476D01*
X75472380Y-134771428D01*
X75502857Y-134893333D01*
X75502857Y-135045714D01*
X75472380Y-135167619D01*
X75441904Y-135228571D01*
X75411428Y-135259047D01*
X75350476Y-135289523D01*
X75289523Y-135289523D01*
X75228571Y-135259047D01*
X75198095Y-135228571D01*
X75167619Y-135167619D01*
X75137142Y-135045714D01*
X75137142Y-134893333D01*
X75167619Y-134771428D01*
X75198095Y-134710476D01*
X75228571Y-134680000D01*
X75289523Y-134649523D01*
X76112380Y-135289523D02*
X75746666Y-135289523D01*
X75929523Y-135289523D02*
X75929523Y-134649523D01*
X75868571Y-134740952D01*
X75807619Y-134801904D01*
X75746666Y-134832380D01*
D11*
X96330000Y-135720000D02*
X96330000Y-139280000D01*
X96330000Y-140800000D02*
X96330000Y-144360000D01*
X93670000Y-138260000D02*
X93670000Y-141820000D01*
X93670000Y-143340000D02*
X93670000Y-146450000D01*
X93670000Y-128550000D02*
X93670000Y-131660000D01*
X93670000Y-145880000D02*
X93670000Y-146450000D01*
X93670000Y-133180000D02*
X93670000Y-136740000D01*
X96330000Y-129120000D02*
X97850000Y-129120000D01*
X96330000Y-130640000D02*
X96330000Y-134200000D01*
X93670000Y-128550000D02*
X96330000Y-128550000D01*
X93670000Y-146450000D02*
X96330000Y-146450000D01*
X96330000Y-128550000D02*
X96330000Y-129120000D01*
X64265000Y-118977064D02*
X64265000Y-118522936D01*
X65735000Y-118977064D02*
X65735000Y-118522936D01*
X87735000Y-138238748D02*
X87735000Y-138761252D01*
X86265000Y-138238748D02*
X86265000Y-138761252D01*
X66050000Y-157950000D02*
X66050000Y-154550000D01*
X69450000Y-154550000D02*
X69450000Y-157950000D01*
X66050000Y-154550000D02*
X69450000Y-154550000D01*
X69450000Y-157950000D02*
X66050000Y-157950000D01*
X72265000Y-122727064D02*
X72265000Y-122272936D01*
X73735000Y-122727064D02*
X73735000Y-122272936D01*
X72250000Y-157750000D02*
X72250000Y-157550000D01*
X75050000Y-154750000D02*
X75250000Y-154950000D01*
X75250000Y-157550000D02*
X75250000Y-157750000D01*
X75250000Y-157750000D02*
X74450000Y-157750000D01*
X74450000Y-154750000D02*
X75050000Y-154750000D01*
X73050000Y-157750000D02*
X72250000Y-157750000D01*
X72250000Y-154750000D02*
X73050000Y-154750000D01*
X72250000Y-154950000D02*
X72250000Y-154750000D01*
X74450000Y-154750000D02*
X74450000Y-154250000D01*
X73050000Y-154750000D02*
X73050000Y-154250000D01*
X91750000Y-157750000D02*
X91750000Y-157550000D01*
X94550000Y-154750000D02*
X94750000Y-154950000D01*
X94750000Y-157550000D02*
X94750000Y-157750000D01*
X94750000Y-157750000D02*
X93950000Y-157750000D01*
X93950000Y-154750000D02*
X94550000Y-154750000D01*
X92550000Y-157750000D02*
X91750000Y-157750000D01*
X91750000Y-154750000D02*
X92550000Y-154750000D01*
X91750000Y-154950000D02*
X91750000Y-154750000D01*
X93950000Y-154750000D02*
X93950000Y-154250000D01*
X92550000Y-154750000D02*
X92550000Y-154250000D01*
X62500000Y-128610000D02*
X61000000Y-128610000D01*
X62500000Y-125390000D02*
X59575000Y-125390000D01*
X62500000Y-128610000D02*
X64000000Y-128610000D01*
X62500000Y-125390000D02*
X64000000Y-125390000D01*
X61488748Y-152265000D02*
X62011252Y-152265000D01*
X61488748Y-153735000D02*
X62011252Y-153735000D01*
X90735000Y-123772936D02*
X90735000Y-124227064D01*
X89265000Y-123772936D02*
X89265000Y-124227064D01*
X90738748Y-115265000D02*
X91261252Y-115265000D01*
X90738748Y-116735000D02*
X91261252Y-116735000D01*
X56227064Y-128235000D02*
X55772936Y-128235000D01*
X56227064Y-126765000D02*
X55772936Y-126765000D01*
X90235000Y-143238748D02*
X90235000Y-143761252D01*
X88765000Y-143238748D02*
X88765000Y-143761252D01*
X76265000Y-117261252D02*
X76265000Y-116738748D01*
X77735000Y-117261252D02*
X77735000Y-116738748D01*
X78750000Y-157750000D02*
X78750000Y-157550000D01*
X81550000Y-154750000D02*
X81750000Y-154950000D01*
X81750000Y-157550000D02*
X81750000Y-157750000D01*
X81750000Y-157750000D02*
X80950000Y-157750000D01*
X80950000Y-154750000D02*
X81550000Y-154750000D01*
X79550000Y-157750000D02*
X78750000Y-157750000D01*
X78750000Y-154750000D02*
X79550000Y-154750000D01*
X78750000Y-154950000D02*
X78750000Y-154750000D01*
X80950000Y-154750000D02*
X80950000Y-154250000D01*
X79550000Y-154750000D02*
X79550000Y-154250000D01*
X83500000Y-122110000D02*
X82000000Y-122110000D01*
X83500000Y-118890000D02*
X80575000Y-118890000D01*
X83500000Y-122110000D02*
X85000000Y-122110000D01*
X83500000Y-118890000D02*
X85000000Y-118890000D01*
X85250000Y-157750000D02*
X85250000Y-157550000D01*
X88050000Y-154750000D02*
X88250000Y-154950000D01*
X88250000Y-157550000D02*
X88250000Y-157750000D01*
X88250000Y-157750000D02*
X87450000Y-157750000D01*
X87450000Y-154750000D02*
X88050000Y-154750000D01*
X86050000Y-157750000D02*
X85250000Y-157750000D01*
X85250000Y-154750000D02*
X86050000Y-154750000D01*
X85250000Y-154950000D02*
X85250000Y-154750000D01*
X87450000Y-154750000D02*
X87450000Y-154250000D01*
X86050000Y-154750000D02*
X86050000Y-154250000D01*
X90772936Y-119265000D02*
X91227064Y-119265000D01*
X90772936Y-120735000D02*
X91227064Y-120735000D01*
X54761252Y-120735000D02*
X54238748Y-120735000D01*
X54761252Y-119265000D02*
X54238748Y-119265000D01*
X59272936Y-119265000D02*
X59727064Y-119265000D01*
X59272936Y-120735000D02*
X59727064Y-120735000D01*
X85772936Y-115265000D02*
X86227064Y-115265000D01*
X85772936Y-116735000D02*
X86227064Y-116735000D01*
X58670000Y-131052500D02*
X58670000Y-134162500D01*
X58670000Y-143302500D02*
X58670000Y-143872500D01*
X58670000Y-131052500D02*
X61330000Y-131052500D01*
X58670000Y-143872500D02*
X61330000Y-143872500D01*
X58670000Y-135682500D02*
X58670000Y-139242500D01*
X61330000Y-131052500D02*
X61330000Y-131622500D01*
X58670000Y-140762500D02*
X58670000Y-143872500D01*
X61330000Y-133142500D02*
X61330000Y-136702500D01*
X61330000Y-138222500D02*
X61330000Y-141782500D01*
X61330000Y-131622500D02*
X62850000Y-131622500D01*
X97200000Y-124000000D02*
G75*
G03*
X97200000Y-124000000I-1200000J0D01*
G01*
X95738748Y-115265000D02*
X96261252Y-115265000D01*
X95738748Y-116735000D02*
X96261252Y-116735000D01*
X54727064Y-116735000D02*
X54272936Y-116735000D01*
X54727064Y-115265000D02*
X54272936Y-115265000D01*
X54761252Y-124735000D02*
X54238748Y-124735000D01*
X54761252Y-123265000D02*
X54238748Y-123265000D01*
X57011252Y-153735000D02*
X56488748Y-153735000D01*
X57011252Y-152265000D02*
X56488748Y-152265000D01*
X66485000Y-149776248D02*
X66485000Y-150298752D01*
X65015000Y-149776248D02*
X65015000Y-150298752D01*
X80738748Y-115265000D02*
X81261252Y-115265000D01*
X80738748Y-116735000D02*
X81261252Y-116735000D01*
X59238748Y-115265000D02*
X59761252Y-115265000D01*
X59238748Y-116735000D02*
X59761252Y-116735000D01*
X68265000Y-122727064D02*
X68265000Y-122272936D01*
X69735000Y-122727064D02*
X69735000Y-122272936D01*
X56522936Y-148265000D02*
X56977064Y-148265000D01*
X56522936Y-149735000D02*
X56977064Y-149735000D01*
X97200000Y-121000000D02*
G75*
G03*
X97200000Y-121000000I-1200000J0D01*
G01*
X68265000Y-117227064D02*
X68265000Y-116772936D01*
X69735000Y-117227064D02*
X69735000Y-116772936D01*
X72265000Y-117227064D02*
X72265000Y-116772936D01*
X73735000Y-117227064D02*
X73735000Y-116772936D01*
X76100000Y-121700000D02*
X76100000Y-123600000D01*
X77900000Y-123300000D02*
X77900000Y-121700000D01*
X61522936Y-148265000D02*
X61977064Y-148265000D01*
X61522936Y-149735000D02*
X61977064Y-149735000D01*
%LPC*%
D12*
X96655000Y-129880000D03*
X93345000Y-132420000D03*
X96655000Y-134960000D03*
X93345000Y-137500000D03*
X96655000Y-140040000D03*
X93345000Y-142580000D03*
X96655000Y-145120000D03*
D13*
X65000000Y-119750000D03*
X65000000Y-117750000D03*
D14*
X87000000Y-137462500D03*
X87000000Y-139537500D03*
D15*
X67750000Y-156250000D03*
D13*
X73000000Y-123500000D03*
X73000000Y-121500000D03*
D16*
X73750000Y-154750000D03*
D17*
X72275000Y-156250000D03*
D16*
X73750000Y-157750000D03*
D17*
X75225000Y-156250000D03*
D16*
X93250000Y-154750000D03*
D17*
X91775000Y-156250000D03*
D16*
X93250000Y-157750000D03*
D17*
X94725000Y-156250000D03*
D18*
X60387500Y-126025000D03*
X60387500Y-126675000D03*
X60387500Y-127325000D03*
X60387500Y-127975000D03*
X64612500Y-127975000D03*
X64612500Y-127325000D03*
X64612500Y-126675000D03*
X64612500Y-126025000D03*
D19*
X60712500Y-153000000D03*
X62787500Y-153000000D03*
D20*
X90000000Y-123000000D03*
X90000000Y-125000000D03*
D19*
X89962500Y-116000000D03*
X92037500Y-116000000D03*
D21*
X57000000Y-127500000D03*
X55000000Y-127500000D03*
D14*
X89500000Y-142462500D03*
X89500000Y-144537500D03*
D22*
X77000000Y-118037500D03*
X77000000Y-115962500D03*
D16*
X80250000Y-154750000D03*
D17*
X78775000Y-156250000D03*
D16*
X80250000Y-157750000D03*
D17*
X81725000Y-156250000D03*
D18*
X81387500Y-119525000D03*
X81387500Y-120175000D03*
X81387500Y-120825000D03*
X81387500Y-121475000D03*
X85612500Y-121475000D03*
X85612500Y-120825000D03*
X85612500Y-120175000D03*
X85612500Y-119525000D03*
D16*
X86750000Y-154750000D03*
D17*
X85275000Y-156250000D03*
D16*
X86750000Y-157750000D03*
D17*
X88225000Y-156250000D03*
D23*
X90000000Y-120000000D03*
X92000000Y-120000000D03*
D24*
X55537500Y-120000000D03*
X53462500Y-120000000D03*
D23*
X58500000Y-120000000D03*
X60500000Y-120000000D03*
X85000000Y-116000000D03*
X87000000Y-116000000D03*
D12*
X61655000Y-132382500D03*
X58345000Y-134922500D03*
X61655000Y-137462500D03*
X58345000Y-140002500D03*
X61655000Y-142542500D03*
D25*
X96000000Y-124000000D03*
D19*
X94962500Y-116000000D03*
X97037500Y-116000000D03*
D21*
X55500000Y-116000000D03*
X53500000Y-116000000D03*
D24*
X55537500Y-124000000D03*
X53462500Y-124000000D03*
X57787500Y-153000000D03*
X55712500Y-153000000D03*
D14*
X65750000Y-149000000D03*
X65750000Y-151075000D03*
D19*
X79962500Y-116000000D03*
X82037500Y-116000000D03*
X58462500Y-116000000D03*
X60537500Y-116000000D03*
D13*
X69000000Y-123500000D03*
X69000000Y-121500000D03*
D23*
X55750000Y-149000000D03*
X57750000Y-149000000D03*
D25*
X96000000Y-121000000D03*
D13*
X69000000Y-118000000D03*
X69000000Y-116000000D03*
X73000000Y-118000000D03*
X73000000Y-116000000D03*
D26*
X76462500Y-123725000D03*
D27*
X77000000Y-123800000D03*
D26*
X77537500Y-123725000D03*
X77537500Y-121275000D03*
D27*
X77000000Y-121200000D03*
D26*
X76462500Y-121275000D03*
D23*
X60750000Y-149000000D03*
X62750000Y-149000000D03*
M02*
