%TF.GenerationSoftware,KiCad,Pcbnew,6.0.6-1.fc36*%
%TF.CreationDate,2022-07-31T18:36:50+02:00*%
%TF.ProjectId,CosmicWatch-ventidue,436f736d-6963-4576-9174-63682d76656e,rev?*%
%TF.SameCoordinates,Original*%
%TF.FileFunction,Soldermask,Top*%
%TF.FilePolarity,Negative*%
%FSLAX46Y46*%
G04 Gerber Fmt 4.6, Leading zero omitted, Abs format (unit mm)*
G04 Created by KiCad (PCBNEW 6.0.6-1.fc36) date 2022-07-31 18:36:50*
%MOMM*%
%LPD*%
G01*
G04 APERTURE LIST*
G04 Aperture macros list*
%AMRoundRect*
0 Rectangle with rounded corners*
0 $1 Rounding radius*
0 $2 $3 $4 $5 $6 $7 $8 $9 X,Y pos of 4 corners*
0 Add a 4 corners polygon primitive as box body*
4,1,4,$2,$3,$4,$5,$6,$7,$8,$9,$2,$3,0*
0 Add four circle primitives for the rounded corners*
1,1,$1+$1,$2,$3*
1,1,$1+$1,$4,$5*
1,1,$1+$1,$6,$7*
1,1,$1+$1,$8,$9*
0 Add four rect primitives between the rounded corners*
20,1,$1+$1,$2,$3,$4,$5,0*
20,1,$1+$1,$4,$5,$6,$7,0*
20,1,$1+$1,$6,$7,$8,$9,0*
20,1,$1+$1,$8,$9,$2,$3,0*%
G04 Aperture macros list end*
%ADD10RoundRect,0.250000X0.475000X-0.337500X0.475000X0.337500X-0.475000X0.337500X-0.475000X-0.337500X0*%
%ADD11RoundRect,0.250000X-0.475000X0.337500X-0.475000X-0.337500X0.475000X-0.337500X0.475000X0.337500X0*%
%ADD12RoundRect,0.250000X0.450000X-0.350000X0.450000X0.350000X-0.450000X0.350000X-0.450000X-0.350000X0*%
%ADD13C,2.000000*%
%ADD14R,3.000000X3.000000*%
%ADD15RoundRect,0.250000X-0.337500X-0.475000X0.337500X-0.475000X0.337500X0.475000X-0.337500X0.475000X0*%
%ADD16R,2.510000X1.000000*%
%ADD17RoundRect,0.250000X-0.350000X-0.450000X0.350000X-0.450000X0.350000X0.450000X-0.350000X0.450000X0*%
%ADD18RoundRect,0.250000X0.337500X0.475000X-0.337500X0.475000X-0.337500X-0.475000X0.337500X-0.475000X0*%
%ADD19R,1.000000X1.000000*%
%ADD20R,1.050000X2.200000*%
%ADD21RoundRect,0.250000X0.350000X0.450000X-0.350000X0.450000X-0.350000X-0.450000X0.350000X-0.450000X0*%
%ADD22RoundRect,0.250000X-0.450000X0.350000X-0.450000X-0.350000X0.450000X-0.350000X0.450000X0.350000X0*%
%ADD23RoundRect,0.100000X-0.712500X-0.100000X0.712500X-0.100000X0.712500X0.100000X-0.712500X0.100000X0*%
%ADD24R,0.375000X1.025000*%
%ADD25R,0.300000X1.125000*%
%ADD26R,0.375000X1.000000*%
G04 APERTURE END LIST*
D10*
%TO.C,C309*%
X77000000Y-118037500D03*
X77000000Y-115962500D03*
%TD*%
D11*
%TO.C,C312*%
X89500000Y-142462500D03*
X89500000Y-144537500D03*
%TD*%
D12*
%TO.C,R308*%
X73000000Y-118000000D03*
X73000000Y-116000000D03*
%TD*%
%TO.C,R307*%
X69000000Y-118000000D03*
X69000000Y-116000000D03*
%TD*%
D13*
%TO.C,TP302*%
X96000000Y-121000000D03*
%TD*%
D14*
%TO.C,TP303*%
X67750000Y-156250000D03*
%TD*%
D15*
%TO.C,C308*%
X58462500Y-116000000D03*
X60537500Y-116000000D03*
%TD*%
D16*
%TO.C,J102*%
X96655000Y-129880000D03*
X93345000Y-132420000D03*
X96655000Y-134960000D03*
X93345000Y-137500000D03*
X96655000Y-140040000D03*
X93345000Y-142580000D03*
X96655000Y-145120000D03*
%TD*%
D17*
%TO.C,R301*%
X55750000Y-149000000D03*
X57750000Y-149000000D03*
%TD*%
D12*
%TO.C,R309*%
X69000000Y-123500000D03*
X69000000Y-121500000D03*
%TD*%
D11*
%TO.C,C305*%
X65750000Y-149000000D03*
X65750000Y-151075000D03*
%TD*%
D18*
%TO.C,C304*%
X57787500Y-153000000D03*
X55712500Y-153000000D03*
%TD*%
%TO.C,C302*%
X55537500Y-124000000D03*
X53462500Y-124000000D03*
%TD*%
D15*
%TO.C,C306*%
X94962500Y-116000000D03*
X97037500Y-116000000D03*
%TD*%
D16*
%TO.C,J101*%
X61655000Y-132382500D03*
X58345000Y-134922500D03*
X61655000Y-137462500D03*
X58345000Y-140002500D03*
X61655000Y-142542500D03*
%TD*%
D13*
%TO.C,TP301*%
X96000000Y-124000000D03*
%TD*%
D17*
%TO.C,R310*%
X85000000Y-116000000D03*
X87000000Y-116000000D03*
%TD*%
%TO.C,R305*%
X58500000Y-120000000D03*
X60500000Y-120000000D03*
%TD*%
D18*
%TO.C,C301*%
X55537500Y-120000000D03*
X53462500Y-120000000D03*
%TD*%
D19*
%TO.C,J303*%
X93250000Y-154750000D03*
D20*
X91775000Y-156250000D03*
X94725000Y-156250000D03*
D19*
X93250000Y-157750000D03*
%TD*%
%TO.C,J302*%
X73750000Y-154750000D03*
D20*
X72275000Y-156250000D03*
X75225000Y-156250000D03*
D19*
X73750000Y-157750000D03*
%TD*%
D17*
%TO.C,R312*%
X90000000Y-120000000D03*
X92000000Y-120000000D03*
%TD*%
D12*
%TO.C,R311*%
X73000000Y-123500000D03*
X73000000Y-121500000D03*
%TD*%
D21*
%TO.C,R303*%
X57000000Y-127500000D03*
X55000000Y-127500000D03*
%TD*%
D15*
%TO.C,C310*%
X79962500Y-116000000D03*
X82037500Y-116000000D03*
%TD*%
D17*
%TO.C,R302*%
X60750000Y-149000000D03*
X62750000Y-149000000D03*
%TD*%
D15*
%TO.C,C307*%
X89962500Y-116000000D03*
X92037500Y-116000000D03*
%TD*%
D22*
%TO.C,R313*%
X90000000Y-123000000D03*
X90000000Y-125000000D03*
%TD*%
D23*
%TO.C,U301*%
X60387500Y-126025000D03*
X60387500Y-126675000D03*
X60387500Y-127325000D03*
X60387500Y-127975000D03*
X64612500Y-127975000D03*
X64612500Y-127325000D03*
X64612500Y-126675000D03*
X64612500Y-126025000D03*
%TD*%
%TO.C,U302*%
X81387500Y-119525000D03*
X81387500Y-120175000D03*
X81387500Y-120825000D03*
X81387500Y-121475000D03*
X85612500Y-121475000D03*
X85612500Y-120825000D03*
X85612500Y-120175000D03*
X85612500Y-119525000D03*
%TD*%
D19*
%TO.C,J301*%
X80250000Y-154750000D03*
X80250000Y-157750000D03*
D20*
X81725000Y-156250000D03*
X78775000Y-156250000D03*
%TD*%
D19*
%TO.C,J304*%
X86750000Y-154750000D03*
D20*
X88225000Y-156250000D03*
D19*
X86750000Y-157750000D03*
D20*
X85275000Y-156250000D03*
%TD*%
D24*
%TO.C,D302*%
X76462500Y-123612500D03*
D25*
X77000000Y-123662500D03*
D24*
X77537500Y-123612500D03*
D26*
X77537500Y-121400000D03*
D25*
X77000000Y-121337500D03*
D26*
X76462500Y-121400000D03*
%TD*%
D15*
%TO.C,C303*%
X60712500Y-153000000D03*
X62787500Y-153000000D03*
%TD*%
D11*
%TO.C,C311*%
X87000000Y-137462500D03*
X87000000Y-139537500D03*
%TD*%
D12*
%TO.C,R306*%
X65000000Y-119750000D03*
X65000000Y-117750000D03*
%TD*%
D21*
%TO.C,R304*%
X55500000Y-116000000D03*
X53500000Y-116000000D03*
%TD*%
M02*
