<svg version="1.1" xmlns="http://www.w3.org/2000/svg" xmlns:xlink="http://www.w3.org/1999/xlink" stroke-linecap="round" stroke-linejoin="round" stroke-width="0" fill-rule="evenodd" width="49.599mm" height="49.599mm" viewBox="50200.5 -162299.5 49599 49599" id="hft2b-DeVg3MLzLw0EUs"><defs><g id="hft2b-DeVg3MLzLw0EUs_pad-10"><polygon points="210,-647.5 210,647.5 -210,647.5 -210,-647.5"/><circle cx="210" cy="-647.5" r="90"/><circle cx="210" cy="647.5" r="90"/><circle cx="-210" cy="647.5" r="90"/><circle cx="-210" cy="-647.5" r="90"/><polygon points="300,-647.5 300,647.5 120,647.5 120,-647.5"/><polygon points="210,557.5 -210,557.5 -210,737.5 210,737.5"/><polygon points="-120,647.5 -120,-647.5 -300,-647.5 -300,647.5"/><polygon points="-210,-737.5 210,-737.5 210,-557.5 -210,-557.5"/></g><g id="hft2b-DeVg3MLzLw0EUs_pad-11"><polygon points="-647.5,-210 647.5,-210 647.5,210 -647.5,210"/><circle cx="-647.5" cy="-210" r="90"/><circle cx="647.5" cy="-210" r="90"/><circle cx="647.5" cy="210" r="90"/><circle cx="-647.5" cy="210" r="90"/><polygon points="-647.5,-300 647.5,-300 647.5,-120 -647.5,-120"/><polygon points="737.5,-210 737.5,210 557.5,210 557.5,-210"/><polygon points="647.5,120 -647.5,120 -647.5,300 647.5,300"/><polygon points="-557.5,210 -557.5,-210 -737.5,-210 -737.5,210"/></g><g id="hft2b-DeVg3MLzLw0EUs_pad-12"><polygon points="-210,647.5 -210,-647.5 210,-647.5 210,647.5"/><circle cx="-210" cy="647.5" r="90"/><circle cx="-210" cy="-647.5" r="90"/><circle cx="210" cy="-647.5" r="90"/><circle cx="210" cy="647.5" r="90"/><polygon points="-120,647.5 -120,-647.5 -300,-647.5 -300,647.5"/><polygon points="-210,-737.5 210,-737.5 210,-557.5 -210,-557.5"/><polygon points="300,-647.5 300,647.5 120,647.5 120,-647.5"/><polygon points="210,557.5 -210,557.5 -210,737.5 210,737.5"/></g><g id="hft2b-DeVg3MLzLw0EUs_pad-13"><polygon points="647.5,210 -647.5,210 -647.5,-210 647.5,-210"/><circle cx="647.5" cy="210" r="90"/><circle cx="-647.5" cy="210" r="90"/><circle cx="-647.5" cy="-210" r="90"/><circle cx="647.5" cy="-210" r="90"/><polygon points="647.5,120 -647.5,120 -647.5,300 647.5,300"/><polygon points="-557.5,210 -557.5,-210 -737.5,-210 -737.5,210"/><polygon points="-647.5,-300 647.5,-300 647.5,-120 -647.5,-120"/><polygon points="737.5,-210 737.5,210 557.5,210 557.5,-210"/></g><polygon points="-1346.005,-3150.048 -1346.01,-3150.049 -1351.005,-3149.05 -1357,-3149.05 -1363.008,-3148.049 -1368.012,-3146.048 -1374.008,-3145.049 -1379.022,-3143.045 -1385.022,-3140.045 -1390.026,-3138.043 -1405.026,-3129.043 -1409.029,-3125.041 -1414.026,-3122.043 -1422.035,-3114.035 -1422.043,-3114.026 -1425.041,-3109.029 -1429.035,-3105.035 -1429.043,-3105.026 -1438.046,-3090.019 -1440.045,-3085.022 -1443.046,-3079.019 -1445.046,-3074.019 -1446.048,-3068.014 -1448.046,-3063.019 -1449.05,-3057 -1449.05,-3051.005 -1450.049,-3046.01 -1450.05,-1450.05 -3036,-1450.05 -3043.007,-1449.05 -3049,-1449.05 -3049.008,-1449.046 -3049.016,-1449.047 -3055.012,-1447.048 -3061.016,-1446.047 -3079.026,-1440.043 -3084.026,-1437.043 -3090.026,-1434.043 -3095.028,-1431.042 -3101.031,-1427.039 -3106.035,-1423.035 -3110.031,-1419.039 -3115.031,-1415.039 -3119.039,-1410.031 -3123.039,-1406.031 -3127.042,-1401.028 -3131.043,-1395.026 -3134.045,-1390.022 -3137.043,-1384.026 -3140.043,-1379.026 -3146.049,-1361.008 -3147.048,-1355.012 -3149.048,-1349.015 -3149.047,-1349.007 -3149.05,-1349 -3149.05,-1343 -3150.05,-1336 -3150.05,1346 -3149.05,1351.005 -3149.05,1357 -3148.049,1363.008 -3146.048,1368.014 -3145.049,1374.008 -3143.045,1379.023 -3140.045,1385.022 -3138.043,1390.026 -3129.043,1405.026 -3125.042,1409.028 -3122.043,1414.026 -3114.035,1422.035 -3114.026,1422.043 -3109.029,1425.042 -3105.035,1429.035 -3105.026,1429.043 -3090.026,1438.043 -3085.022,1440.045 -3079.018,1443.046 -3074.019,1445.046 -3068.012,1446.048 -3063.019,1448.046 -3057,1449.05 -3051.005,1449.05 -3046.01,1450.049 -1450.05,1450.05 -1450.05,3036 -1449.05,3043 -1449.05,3049 -1449.047,3049.007 -1449.048,3049.015 -1447.048,3055.012 -1446.048,3061.015 -1440.047,3079.016 -1437.045,3084.023 -1434.043,3090.026 -1431.042,3095.028 -1427.039,3101.031 -1423.035,3106.035 -1419.039,3110.031 -1415.039,3115.031 -1410.031,3119.039 -1406.031,3123.039 -1401.028,3127.042 -1395.026,3131.043 -1390.022,3134.045 -1384.026,3137.043 -1379.026,3140.043 -1361.008,3146.049 -1355.012,3147.048 -1349.016,3149.047 -1349.008,3149.046 -1349,3149.05 -1343.007,3149.05 -1336,3150.05 1346,3150.05 1351.005,3149.05 1357,3149.05 1363.008,3148.049 1368.014,3146.048 1374.008,3145.049 1379.023,3143.045 1385.022,3140.045 1390.026,3138.043 1405.026,3129.043 1409.029,3125.041 1414.026,3122.043 1422.035,3114.035 1422.043,3114.026 1425.041,3109.029 1429.035,3105.035 1429.043,3105.026 1438.043,3090.026 1440.045,3085.022 1443.046,3079.018 1445.046,3074.019 1446.048,3068.012 1448.046,3063.019 1449.05,3057 1449.05,3051.005 1450.049,3046.01 1450.05,1450.05 3046,1450.05 3051.005,1449.05 3057,1449.05 3063.008,1448.049 3068.014,1446.048 3074.008,1445.049 3079.023,1443.045 3085.022,1440.045 3090.026,1438.043 3105.026,1429.043 3109.029,1425.042 3114.026,1422.043 3122.035,1414.035 3122.043,1414.026 3125.042,1409.028 3129.035,1405.035 3129.043,1405.026 3138.043,1390.026 3140.045,1385.022 3143.046,1379.018 3145.046,1374.019 3146.048,1368.012 3148.046,1363.019 3149.05,1357 3149.05,1351.005 3150.049,1346.01 3150.05,-1327 3149.049,-1334.009 3148.049,-1340.008 3146.05,-1354.007 3144.046,-1360.02 3141.046,-1367.02 3139.045,-1373.022 3133.042,-1385.028 3129.039,-1391.031 3125.042,-1396.028 3121.039,-1402.031 3117.035,-1407.035 3107.031,-1417.039 3102.028,-1421.042 3096.027,-1425.042 3091.028,-1429.042 3085.022,-1433.045 3073.023,-1439.045 3067.015,-1441.048 3060.016,-1444.047 3054.015,-1446.048 3040.008,-1448.049 3034.007,-1449.049 3027,-1450.05 1450.05,-1450.05 1450.05,-3046 1449.05,-3051.005 1449.05,-3057 1448.049,-3063.008 1446.048,-3068.012 1445.049,-3074.008 1443.045,-3079.022 1440.045,-3085.022 1438.043,-3090.026 1429.043,-3105.026 1425.041,-3109.029 1422.043,-3114.026 1414.035,-3122.035 1414.026,-3122.043 1409.029,-3125.041 1405.035,-3129.035 1405.026,-3129.043 1390.019,-3138.046 1385.022,-3140.045 1379.019,-3143.046 1374.019,-3145.046 1368.014,-3146.048 1363.019,-3148.046 1357,-3149.05 1351.005,-3149.05 1346.01,-3150.049 -1346,-3150.05 -1346.005,-3150.048" id="hft2b-DeVg3MLzLw0EUs_pad-14"/><circle cx="0" cy="0" r="400" id="hft2b-DeVg3MLzLw0EUs_pad-15"/></defs><g transform="translate(0,-275000) scale(1,-1)" fill="currentColor" stroke="currentColor"><use xlink:href="#hft2b-DeVg3MLzLw0EUs_pad-10" x="77850" y="-140687.5"/><use xlink:href="#hft2b-DeVg3MLzLw0EUs_pad-11" x="71812.5" y="-140350"/><use xlink:href="#hft2b-DeVg3MLzLw0EUs_pad-12" x="72150" y="-134312.5"/><use xlink:href="#hft2b-DeVg3MLzLw0EUs_pad-13" x="78187.5" y="-134650"/><use xlink:href="#hft2b-DeVg3MLzLw0EUs_pad-14" x="75000" y="-137500"/><use xlink:href="#hft2b-DeVg3MLzLw0EUs_pad-15" x="79000" y="-149000"/><use xlink:href="#hft2b-DeVg3MLzLw0EUs_pad-15" x="71000" y="-149000"/><use xlink:href="#hft2b-DeVg3MLzLw0EUs_pad-15" x="77800" y="-139549.55"/><use xlink:href="#hft2b-DeVg3MLzLw0EUs_pad-15" x="78250" y="-125000"/><use xlink:href="#hft2b-DeVg3MLzLw0EUs_pad-15" x="87000" y="-136000"/><use xlink:href="#hft2b-DeVg3MLzLw0EUs_pad-15" x="89500" y="-138750"/><use xlink:href="#hft2b-DeVg3MLzLw0EUs_pad-15" x="89500" y="-126500"/><use xlink:href="#hft2b-DeVg3MLzLw0EUs_pad-15" x="72200" y="-135450.45"/><use xlink:href="#hft2b-DeVg3MLzLw0EUs_pad-15" x="72950.45" y="-140300"/><use xlink:href="#hft2b-DeVg3MLzLw0EUs_pad-15" x="86600" y="-123900"/><use xlink:href="#hft2b-DeVg3MLzLw0EUs_pad-15" x="88000" y="-120100.5"/><use xlink:href="#hft2b-DeVg3MLzLw0EUs_pad-15" x="88750" y="-117250"/><use xlink:href="#hft2b-DeVg3MLzLw0EUs_pad-15" x="87000" y="-119000"/><use xlink:href="#hft2b-DeVg3MLzLw0EUs_pad-15" x="65750" y="-125250"/><use xlink:href="#hft2b-DeVg3MLzLw0EUs_pad-15" x="94250" y="-117250"/><use xlink:href="#hft2b-DeVg3MLzLw0EUs_pad-15" x="55500" y="-125250"/><use xlink:href="#hft2b-DeVg3MLzLw0EUs_pad-15" x="89000" y="-121750"/><use xlink:href="#hft2b-DeVg3MLzLw0EUs_pad-15" x="66000" y="-123750"/><use xlink:href="#hft2b-DeVg3MLzLw0EUs_pad-15" x="75250" y="-125000"/><use xlink:href="#hft2b-DeVg3MLzLw0EUs_pad-15" x="78750" y="-117500"/><use xlink:href="#hft2b-DeVg3MLzLw0EUs_pad-15" x="83250" y="-120250"/><use xlink:href="#hft2b-DeVg3MLzLw0EUs_pad-15" x="87250" y="-126000"/><use xlink:href="#hft2b-DeVg3MLzLw0EUs_pad-15" x="64500" y="-122000"/><use xlink:href="#hft2b-DeVg3MLzLw0EUs_pad-15" x="76500" y="-120250"/><use xlink:href="#hft2b-DeVg3MLzLw0EUs_pad-15" x="60110" y="-150805"/><use xlink:href="#hft2b-DeVg3MLzLw0EUs_pad-15" x="52490" y="-125405"/><use xlink:href="#hft2b-DeVg3MLzLw0EUs_pad-15" x="52490" y="-140645"/><use xlink:href="#hft2b-DeVg3MLzLw0EUs_pad-15" x="82970" y="-155885"/><use xlink:href="#hft2b-DeVg3MLzLw0EUs_pad-15" x="95670" y="-127945"/><use xlink:href="#hft2b-DeVg3MLzLw0EUs_pad-15" x="70270" y="-150805"/><use xlink:href="#hft2b-DeVg3MLzLw0EUs_pad-15" x="75350" y="-130485"/><use xlink:href="#hft2b-DeVg3MLzLw0EUs_pad-15" x="77890" y="-153345"/><use xlink:href="#hft2b-DeVg3MLzLw0EUs_pad-15" x="88050" y="-150805"/><use xlink:href="#hft2b-DeVg3MLzLw0EUs_pad-15" x="57570" y="-122865"/><use xlink:href="#hft2b-DeVg3MLzLw0EUs_pad-15" x="65190" y="-140645"/><use xlink:href="#hft2b-DeVg3MLzLw0EUs_pad-15" x="62650" y="-115245"/><use xlink:href="#hft2b-DeVg3MLzLw0EUs_pad-15" x="52490" y="-133025"/><use xlink:href="#hft2b-DeVg3MLzLw0EUs_pad-15" x="52490" y="-148265"/><use xlink:href="#hft2b-DeVg3MLzLw0EUs_pad-15" x="95670" y="-117785"/><use xlink:href="#hft2b-DeVg3MLzLw0EUs_pad-15" x="55030" y="-160965"/><use xlink:href="#hft2b-DeVg3MLzLw0EUs_pad-15" x="82970" y="-117785"/><use xlink:href="#hft2b-DeVg3MLzLw0EUs_pad-15" x="67730" y="-145725"/><use xlink:href="#hft2b-DeVg3MLzLw0EUs_pad-15" x="93130" y="-155885"/><use xlink:href="#hft2b-DeVg3MLzLw0EUs_pad-15" x="75350" y="-115245"/><use xlink:href="#hft2b-DeVg3MLzLw0EUs_pad-15" x="75350" y="-148265"/><use xlink:href="#hft2b-DeVg3MLzLw0EUs_pad-15" x="88050" y="-130485"/><use xlink:href="#hft2b-DeVg3MLzLw0EUs_pad-15" x="80430" y="-135565"/><use xlink:href="#hft2b-DeVg3MLzLw0EUs_pad-15" x="67730" y="-158425"/><use xlink:href="#hft2b-DeVg3MLzLw0EUs_pad-15" x="70270" y="-135565"/><use xlink:href="#hft2b-DeVg3MLzLw0EUs_pad-15" x="52490" y="-155885"/><use xlink:href="#hft2b-DeVg3MLzLw0EUs_pad-15" x="95670" y="-148265"/><use xlink:href="#hft2b-DeVg3MLzLw0EUs_pad-15" x="82970" y="-140645"/><use xlink:href="#hft2b-DeVg3MLzLw0EUs_pad-15" x="57570" y="-145725"/><use xlink:href="#hft2b-DeVg3MLzLw0EUs_pad-15" x="98210" y="-133025"/><use xlink:href="#hft2b-DeVg3MLzLw0EUs_pad-15" x="52490" y="-117785"/><use xlink:href="#hft2b-DeVg3MLzLw0EUs_pad-15" x="60110" y="-158425"/><use xlink:href="#hft2b-DeVg3MLzLw0EUs_pad-15" x="75350" y="-158425"/><use xlink:href="#hft2b-DeVg3MLzLw0EUs_pad-15" x="88050" y="-158425"/><use xlink:href="#hft2b-DeVg3MLzLw0EUs_pad-15" x="65190" y="-153345"/><use xlink:href="#hft2b-DeVg3MLzLw0EUs_pad-15" x="70270" y="-127945"/><use xlink:href="#hft2b-DeVg3MLzLw0EUs_pad-15" x="82970" y="-148265"/><use xlink:href="#hft2b-DeVg3MLzLw0EUs_pad-15" x="57570" y="-138105"/><use xlink:href="#hft2b-DeVg3MLzLw0EUs_pad-15" x="72810" y="-143185"/><use xlink:href="#hft2b-DeVg3MLzLw0EUs_pad-15" x="98210" y="-143185"/><use xlink:href="#hft2b-DeVg3MLzLw0EUs_pad-15" x="90590" y="-135565"/><use xlink:href="#hft2b-DeVg3MLzLw0EUs_pad-15" x="93130" y="-122865"/><use xlink:href="#hft2b-DeVg3MLzLw0EUs_pad-15" x="88050" y="-143185"/><use xlink:href="#hft2b-DeVg3MLzLw0EUs_pad-15" x="98210" y="-160965"/><use xlink:href="#hft2b-DeVg3MLzLw0EUs_pad-15" x="80430" y="-127945"/><use xlink:href="#hft2b-DeVg3MLzLw0EUs_pad-15" x="93130" y="-140645"/><use xlink:href="#hft2b-DeVg3MLzLw0EUs_pad-15" x="57570" y="-130485"/><use xlink:href="#hft2b-DeVg3MLzLw0EUs_pad-15" x="98210" y="-153345"/><use xlink:href="#hft2b-DeVg3MLzLw0EUs_pad-15" x="62650" y="-135565"/><path d="M 71000 -149000 79000 -149000 M 77825 -140662.5 77850 -140687.5 M 77800 -139549.55 77800 -140602.144 M 77825.013 -140662.487 A 85.4001144 85.4001144 0 0 0 77800 -140602.144 M 65750 -125250 68087.022 -125250 M 70413.771 -124286.229 74106.208 -120593.792 M 77947.756 -119000 87000 -119000 M 79875 -125000 78250 -125000 M 82649.048 -126149.048 85406.207 -128906.207 M 87000 -132753.963 87000 -136000 M 82649.049 -126149.047 A 3923.1005469 3923.1005469 0 0 1 79875 -125000 M 87000.01 -132753.963 A 5441.6100001 5441.6100001 0 0 1 85406.206 -128906.208 M 89500 -138750 89500 -126500 M 72200 -134397.855 72200 -135450.45 M 72175 -134337.5 72150 -134312.5 M 72174.987 -134337.513 A 85.4001144 85.4001144 0 0 0 72200 -134397.855 M 71837.5 -140325 71812.5 -140350 M 72950.45 -140300 71897.855 -140300 M 71837.513 -140325.013 A 85.4001144 85.4001144 0 0 0 71897.855 -140300 M 86600 -123900 88000 -122500 88000 -120100.5 M 94250 -117250 88750 -117250 M 55500 -125250 65750 -125250 M 88750 -117250 87000 -119000 M 77947.756 -118999.955 A 5441.5450002 5441.5450002 0 0 1 74100.001 -120593.793 M 70413.756 -124286.214 A 3290.5001932 3290.5001932 0 0 0 68087.022 -125250" fill="none" stroke-width="250"/><path d="M 98980.242 -112702.466 98985.811 -112702.476 98999.641 -112705.656 99013.482 -112702.524 99014.605 -112702.526 99026.731 -112703.133 99081.618 -112708.539 99143.626 -112714.646 99167.848 -112719.464 99294.085 -112757.757 99316.897 -112767.206 99363.623 -112792.182 99433.232 -112829.389 99453.77 -112843.112 99555.739 -112926.796 99573.204 -112944.261 99656.888 -113046.23 99670.611 -113066.768 99732.793 -113183.102 99742.242 -113205.912 99780.538 -113332.156 99785.354 -113356.373 99796.917 -113473.77 99797.503 -113485.905 99794.344 -113499.641 99797.475 -113513.48 99797.467 -113518.31 99799.5 -113536.504 99799.5 -161462.92 99797.534 -161480.242 99797.524 -161485.811 99794.344 -161499.641 99797.476 -161513.482 99797.474 -161514.605 99796.867 -161526.736 99785.354 -161643.626 99780.537 -161667.846 99742.244 -161794.082 99732.794 -161816.897 99703.276 -161872.121 99670.611 -161933.232 99656.888 -161953.77 99573.204 -162055.739 99555.739 -162073.204 99453.77 -162156.888 99433.235 -162170.609 99316.898 -162232.793 99294.088 -162242.242 99167.844 -162280.538 99143.627 -162285.354 99118.814 -162287.798 99026.23 -162296.917 99014.095 -162297.503 99000.359 -162294.344 98986.52 -162297.475 98981.69 -162297.467 98963.496 -162299.5 75187.765 -162299.5 51037.081 -162299.499 51019.759 -162297.533 51014.19 -162297.523 51000.36 -162294.343 50986.519 -162297.475 50985.396 -162297.473 50973.269 -162296.866 50856.377 -162285.354 50832.157 -162280.537 50705.915 -162242.242 50683.104 -162232.793 50566.764 -162170.608 50546.229 -162156.886 50444.262 -162073.203 50426.797 -162055.738 50343.114 -161953.771 50329.391 -161933.234 50296.726 -161872.122 50267.207 -161816.896 50257.757 -161794.082 50257.756 -161794.077 50219.463 -161667.843 50214.646 -161643.62 50203.085 -161526.239 50202.498 -161514.094 50205.657 -161500.358 50202.526 -161486.519 50202.534 -161481.689 50200.501 -161463.495 50200.501 -149000 70394.318 -149000 70414.956 -149156.762 70475.464 -149302.841 70571.718 -149428.282 70697.159 -149524.536 70843.238 -149585.044 71000 -149605.682 71008.188 -149604.604 71148.574 -149586.122 71156.762 -149585.044 71302.841 -149524.536 71428.282 -149428.282 71469.323 -149374.796 71526.661 -149332.929 71569.286 -149325.5 78430.714 -149325.5 78498.835 -149345.502 78530.677 -149374.796 78571.718 -149428.282 78697.159 -149524.536 78843.238 -149585.044 79000 -149605.682 79008.188 -149604.604 79148.574 -149586.122 79156.762 -149585.044 79302.841 -149524.536 79428.282 -149428.282 79524.536 -149302.841 79585.044 -149156.762 79605.682 -149000 79585.044 -148843.238 79524.536 -148697.159 79428.282 -148571.718 79302.841 -148475.464 79156.762 -148414.956 79000 -148394.318 78843.238 -148414.956 78697.159 -148475.464 78571.718 -148571.718 78566.695 -148578.264 78530.677 -148625.204 78473.339 -148667.071 78430.714 -148674.5 71569.286 -148674.5 71501.165 -148654.498 71469.323 -148625.204 71433.305 -148578.264 71428.282 -148571.718 71302.841 -148475.464 71156.762 -148414.956 71000 -148394.318 70843.238 -148414.956 70697.159 -148475.464 70571.718 -148571.718 70475.464 -148697.159 70414.956 -148843.238 70394.318 -149000 50200.501 -149000 50200.501 -140603.158 70874.5 -140603.158 70874.942 -140606.87 70876.258 -140617.93 70877.514 -140628.489 70881.351 -140637.128 70881.352 -140637.131 70916.723 -140716.763 70921.444 -140727.391 70998.034 -140803.847 71008.673 -140808.551 71008.674 -140808.551 71024.476 -140815.537 71097.013 -140847.605 71113.283 -140849.502 71118.203 -140850.076 71118.208 -140850.076 71121.842 -140850.5 72503.158 -140850.5 72511.745 -140849.478 72519.097 -140848.604 72519.1 -140848.603 72528.489 -140847.486 72537.129 -140843.648 72537.134 -140843.647 72563.294 -140832.027 72633.669 -140822.655 72662.659 -140830.77 72714.869 -140852.396 72793.688 -140885.044 72950.45 -140905.682 72958.638 -140904.604 73099.024 -140886.122 73107.212 -140885.044 73253.291 -140824.536 73308.828 -140781.921 73375.048 -140756.321 73444.597 -140770.586 73456.869 -140778.024 73477.061 -140791.893 73481.773 -140795.689 73480.787 -140797.332 73485.776 -140800.326 73486.347 -140799.375 73490.666 -140802.855 73489.782 -140804.329 73494.784 -140807.331 73494.796 -140807.337 73497.097 -140808.718 73497.099 -140808.72 73499.774 -140810.325 73499.786 -140810.331 73499.785 -140810.332 73499.79 -140810.335 73500.489 -140810.755 73500.499 -140810.759 73503.924 -140812.815 73503.924 -140812.816 73504.703 -140813.284 73504.715 -140813.29 73504.764 -140813.319 73504.767 -140813.314 73507.873 -140814.771 73508.727 -140815.228 73508.55 -140815.537 73508.557 -140815.541 73511.071 -140816.482 73516.371 -140819.319 73518.55 -140820.889 73518.552 -140820.89 73518.711 -140820.571 73519.575 -140821.033 73523.346 -140823.314 73523.557 -140822.892 73529.549 -140825.888 73529.558 -140825.87 73529.564 -140825.873 73529.555 -140825.891 73529.563 -140825.895 73539.436 -140830.401 73542.755 -140831.916 73542.739 -140831.952 73544.745 -140832.793 73545.049 -140832.852 73545.05 -140832.85 73545.055 -140832.852 73545.055 -140832.853 73545.062 -140832.854 73550.051 -140834.85 73550.051 -140834.849 73550.055 -140834.851 73549.997 -140834.995 73552.759 -140836.153 73553.324 -140836.449 73553.69 -140835.555 73557.566 -140837.141 73561.337 -140838.985 73561.34 -140838.986 73563.894 -140839.73 73563.897 -140839.731 73568.506 -140841.073 73576.405 -140843.373 73576.409 -140843.374 73576.572 -140843.394 73578.741 -140843.981 73578.729 -140844.024 73582.07 -140844.82 73585.127 -140845.71 73585.13 -140845.711 73587.405 -140846.373 73587.409 -140846.374 73593.561 -140847.131 73603.394 -140849.651 73603.386 -140849.697 73609.38 -140850.696 73609.489 -140850.041 73609.496 -140850.042 73609.387 -140850.697 73609.393 -140850.698 73614.124 -140850.509 73616.945 -140850.509 73621.427 -140850.79 73628.942 -140851.488 73633.936 -140852.103 73637.759 -140852.648 73637.992 -140852.667 73642.991 -140853.478 73642.995 -140853.478 73642.995 -140853.088 73643.005 -140853.09 73643.005 -140853.478 73646.658 -140853.478 73648.984 -140853.665 73653.991 -140854.478 73653.994 -140854.478 73653.994 -140854.069 73654.004 -140854.07 73654.004 -140854.478 76345.996 -140854.478 76345.996 -140854.07 76346.006 -140854.069 76346.006 -140854.478 76346.009 -140854.478 76351.016 -140853.665 76353.342 -140853.478 76356.995 -140853.478 76356.995 -140853.09 76357.005 -140853.088 76357.005 -140853.478 76357.009 -140853.478 76362.008 -140852.667 76362.241 -140852.648 76366.064 -140852.103 76371.058 -140851.488 76378.573 -140850.79 76383.055 -140850.509 76385.876 -140850.509 76390.607 -140850.698 76390.613 -140850.697 76390.504 -140850.042 76390.511 -140850.042 76390.62 -140850.696 76396.614 -140849.697 76396.608 -140849.659 76397.411 -140849.609 76405.367 -140847.264 76408.754 -140846.847 76408.765 -140846.845 76412.591 -140846.374 76412.595 -140846.373 76414.87 -140845.711 76414.873 -140845.71 76417.93 -140844.82 76421.271 -140844.024 76421.259 -140843.981 76423.428 -140843.394 76423.591 -140843.374 76423.595 -140843.373 76438.66 -140838.986 76438.663 -140838.985 76442.435 -140837.14 76445.814 -140835.758 76449.852 -140834.608 76449.949 -140834.85 76454.941 -140832.853 76454.945 -140832.851 76454.945 -140832.852 76454.95 -140832.85 76454.952 -140832.849 76459.337 -140831.431 76461.154 -140830.401 76460.936 -140829.855 76465.929 -140827.858 76465.875 -140827.724 76467.856 -140826.602 76470.437 -140825.895 76470.445 -140825.891 76470.173 -140825.346 76470.179 -140825.343 76470.451 -140825.888 76476.443 -140822.892 76476.466 -140822.938 76478.671 -140822.094 76480.425 -140821.033 76481.288 -140820.571 76481.448 -140820.89 76481.45 -140820.889 76483.629 -140819.319 76488.929 -140816.482 76491.443 -140815.541 76491.45 -140815.537 76491.273 -140815.228 76492.127 -140814.771 76495.233 -140813.313 76495.236 -140813.319 76495.293 -140813.285 76496.425 -140812.606 76496.43 -140812.602 76500.221 -140810.327 76500.226 -140810.325 76505.211 -140807.333 76505.216 -140807.331 76510.218 -140804.329 76509.396 -140802.959 76513.612 -140799.306 76514.224 -140800.326 76519.213 -140797.332 76518.077 -140795.438 76519.228 -140794.441 76544.816 -140776.867 76544.818 -140776.865 76549.581 -140773.594 76551.323 -140771.852 76552.47 -140770.984 76553.804 -140769.875 76558.581 -140766.594 76566.594 -140758.581 76569.875 -140753.804 76570.984 -140752.47 76571.852 -140751.323 76573.594 -140749.581 76591.891 -140722.941 76595.689 -140718.227 76597.332 -140719.213 76600.326 -140714.224 76599.375 -140713.653 76602.855 -140709.334 76604.329 -140710.218 76607.331 -140705.216 76607.337 -140705.204 76608.718 -140702.903 76608.72 -140702.901 76610.325 -140700.226 76610.326 -140700.226 76610.335 -140700.21 76610.54 -140699.868 76610.546 -140699.856 76613.325 -140695.226 76614.579 -140691.984 76615.231 -140691.271 76614.916 -140691.112 76621.499 -140678.044 76622.619 -140676.307 76622.892 -140676.443 76625.888 -140670.451 76625.87 -140670.442 76625.873 -140670.436 76625.891 -140670.445 76625.895 -140670.437 76631.916 -140657.245 76631.952 -140657.261 76632.793 -140655.255 76632.852 -140654.951 76632.85 -140654.95 76632.852 -140654.945 76632.853 -140654.945 76632.854 -140654.938 76634.85 -140649.949 76634.849 -140649.949 76634.851 -140649.945 76634.995 -140650.003 76636.153 -140647.241 76636.449 -140646.676 76635.555 -140646.31 76637.141 -140642.434 76638.985 -140638.663 76638.986 -140638.66 76643.373 -140623.595 76643.374 -140623.591 76643.394 -140623.428 76643.981 -140621.259 76644.024 -140621.271 76644.82 -140617.93 76645.711 -140614.87 76645.712 -140614.866 76646.373 -140612.595 76646.374 -140612.591 76647.131 -140606.443 76649.651 -140596.612 76649.696 -140596.619 76650.695 -140590.626 76650.041 -140590.517 76650.042 -140590.504 76650.697 -140590.613 76650.698 -140590.607 76650.509 -140585.876 76650.509 -140583.058 76650.791 -140578.56 76651.487 -140571.063 76652.096 -140566.112 76652.647 -140562.244 76652.665 -140562.015 76653.478 -140557.01 76653.478 -140557.005 76653.07 -140557.005 76653.07 -140556.995 76653.478 -140556.995 76653.478 -140551.941 76653.601 -140550.42 76654.478 -140546.01 76654.478 -140546.006 76653.977 -140546.006 76653.978 -140545.996 76654.478 -140545.996 76654.478 -139280.478 76674.48 -139212.357 76728.136 -139165.864 76780.478 -139154.478 77125.095 -139154.478 77193.216 -139174.48 77239.709 -139228.136 77249.813 -139298.41 77241.504 -139328.695 77214.956 -139392.788 77194.318 -139549.55 77214.956 -139706.312 77275.464 -139852.391 77294.44 -139877.121 77323.744 -139915.311 77349.344 -139981.532 77349.533 -139996.559 77349.5 -139996.842 77349.5 -141378.158 77352.514 -141403.489 77356.351 -141412.128 77356.352 -141412.131 77391.529 -141491.326 77396.444 -141502.391 77473.034 -141578.847 77572.013 -141622.605 77588.283 -141624.502 77593.203 -141625.076 77593.208 -141625.076 77596.842 -141625.5 78103.158 -141625.5 78111.745 -141624.478 78119.097 -141623.604 78119.1 -141623.603 78128.489 -141622.486 78137.128 -141618.649 78137.131 -141618.648 78216.763 -141583.277 78216.764 -141583.276 78227.391 -141578.556 78303.847 -141501.966 78347.605 -141402.987 78350.5 -141378.158 78350.5 -139996.842 78349.478 -139988.255 78348.604 -139980.903 78348.603 -139980.9 78347.486 -139971.511 78343.648 -139962.871 78343.647 -139962.866 78332.027 -139936.706 78322.655 -139866.331 78330.77 -139837.341 78381.884 -139713.941 78385.044 -139706.312 78405.682 -139549.55 78385.044 -139392.788 78324.536 -139246.709 78319.509 -139240.158 78319.507 -139240.154 78278.181 -139186.296 78252.581 -139120.076 78264.369 -139062.603 78262.053 -139061.677 78262.059 -139061.662 78265.507 -139057.057 78266.846 -139050.527 78275.692 -139037.066 78275.379 -139036.85 78277.9 -139033.198 78280.657 -139029.753 78280.414 -139029.558 78280.418 -139029.552 78280.428 -139029.539 78280.672 -139029.734 78280.676 -139029.729 78282.183 -139027.179 78285.709 -139022.438 78285.895 -139022.205 78285.895 -139022.204 78288.66 -139018.749 78288.416 -139018.554 78288.427 -139018.538 78288.672 -139018.734 78288.676 -139018.729 78289.89 -139016.675 78291.131 -139015.431 78295.131 -139009.432 78295.215 -139009.488 78298.475 -139005.506 78298.978 -139005.918 78299.073 -139005.742 78298.725 -139005.542 78299.299 -139004.543 78299.131 -139004.431 78299.135 -139004.425 78299.303 -139004.537 78299.307 -139004.53 78299.139 -139004.418 78303.133 -138998.427 78302.901 -138998.273 78302.905 -138998.267 78303.137 -138998.422 78303.141 -138998.416 78306.438 -138991.675 78312.456 -138980.875 78315.887 -138976.453 78315.889 -138976.449 78315.344 -138976.177 78315.357 -138976.156 78315.9 -138976.428 78318.887 -138970.453 78321.889 -138964.449 78321.871 -138964.44 78321.872 -138964.438 78321.89 -138964.447 78321.895 -138964.437 78327.916 -138951.245 78327.919 -138951.229 78329.051 -138947.619 78328.935 -138947.569 78331.939 -138940.562 78332.281 -138938.895 78332.854 -138937.611 78332.986 -138937.655 78334.983 -138931.664 78335.44 -138931.816 78337.733 -138926.68 78338.099 -138924.701 78337.984 -138924.663 78339.98 -138918.676 78339.261 -138918.437 78340.558 -138911.445 78343.341 -138903.334 78343.366 -138903.34 78344.13 -138903.603 78344.143 -138903.534 78344.373 -138903.592 78344.374 -138903.588 78344.692 -138901.008 78344.746 -138900.769 78344.75 -138900.53 78345.001 -138898.494 78345.004 -138898.484 78345.005 -138898.484 78345.363 -138897.44 78345.673 -138896.697 78345.782 -138896.218 78346.506 -138894.108 78346.507 -138894.103 78346.274 -138894.056 78346.286 -138894.002 78345.565 -138893.913 78345.889 -138891.281 78347.948 -138882.838 78348.425 -138882.906 78349.421 -138875.931 78349.882 -138872.709 78350.256 -138870.288 78350.27 -138870.179 78350.698 -138867.607 78350.845 -138865.825 78351.509 -138863.116 78351.518 -138862.93 78351.423 -138862.916 78352.421 -138855.932 78351.838 -138855.849 78351.839 -138855.832 78352.423 -138855.915 78352.424 -138855.908 78352.143 -138850.462 78352.232 -138849.07 78353.212 -138837.225 78353.311 -138836.42 78353.666 -138832.012 78354.478 -138827.01 78354.478 -138827.005 78354.07 -138827.005 78354.071 -138826.994 78354.478 -138826.994 78354.478 -138750 88894.318 -138750 88895.396 -138758.188 88913.868 -138898.494 88914.956 -138906.762 88918.116 -138914.391 88921.523 -138922.615 88975.464 -139052.841 89029.234 -139122.915 89051.877 -139152.424 89071.718 -139178.282 89197.159 -139274.536 89343.238 -139335.044 89500 -139355.682 89508.188 -139354.604 89648.574 -139336.122 89656.762 -139335.044 89802.841 -139274.536 89928.282 -139178.282 89948.124 -139152.424 89970.766 -139122.915 90024.536 -139052.841 90078.477 -138922.615 90081.884 -138914.391 90085.044 -138906.762 90086.133 -138898.494 90104.604 -138758.188 90105.682 -138750 90085.044 -138593.238 90024.536 -138447.159 89928.282 -138321.718 89874.796 -138280.677 89832.929 -138223.339 89825.5 -138180.714 89825.5 -127069.286 89845.502 -127001.165 89874.796 -126969.323 89921.736 -126933.305 89928.282 -126928.282 90024.536 -126802.841 90085.044 -126656.762 90105.682 -126500 90085.044 -126343.238 90024.536 -126197.159 89928.282 -126071.718 89802.841 -125975.464 89656.762 -125914.956 89500 -125894.318 89343.238 -125914.956 89197.159 -125975.464 89071.718 -126071.718 88975.464 -126197.159 88914.956 -126343.238 88894.318 -126500 88914.956 -126656.762 88975.464 -126802.841 89071.718 -126928.282 89078.264 -126933.305 89125.204 -126969.323 89167.071 -127026.661 89174.5 -127069.286 89174.5 -138180.714 89154.498 -138248.835 89125.204 -138280.677 89071.718 -138321.718 88975.464 -138447.159 88914.956 -138593.238 88894.318 -138750 78354.478 -138750 78354.478 -136154.005 78354.459 -136154.005 78354.459 -136153.995 78354.478 -136153.995 78354.478 -136153.99 78353.964 -136139.498 78353.498 -136137.798 78353.453 -136137.317 78353.223 -136135.808 78352.964 -136128.498 78352.06 -136125.196 78351.964 -136122.499 78350.829 -136118.354 78350.509 -136115.374 78350.509 -136114.125 78350.698 -136109.394 78350.697 -136109.388 78350.696 -136109.388 78349.7 -136103.408 78349.629 -136103.42 78348.59 -136097.31 78346.791 -136092.953 78346.699 -136092.403 78346.629 -136092.415 78345.59 -136086.31 78342.905 -136079.809 78342.904 -136079.805 78340.223 -136073.313 78336.832 -136061.476 78337.856 -136061.066 78335.86 -136056.075 78335.344 -136056.281 78333.699 -136050.537 78334.858 -136050.073 78332.857 -136045.069 78329.34 -136039.735 78329.279 -136039.618 78329.2 -136039.329 78329.856 -136039.067 78327.857 -136034.069 78327.111 -136034.367 78325.365 -136029.807 78325.886 -136029.546 78322.893 -136023.56 78322.141 -136023.936 78317.145 -136017.435 78315.142 -136012.586 78315.138 -136012.58 78314.831 -136012.784 78311.889 -136005.659 78313.335 -136004.791 78307.344 -135994.806 78304.337 -135989.794 78299.944 -135985.035 78299.631 -135984.619 78297.337 -135980.794 78292.957 -135976.05 78292.953 -135976.044 78288.628 -135971.359 78280.8 -135959.6 78277.216 -135955.582 78277.579 -135955.309 78277.576 -135955.305 78273.69 -135951.63 78273.082 -135950.947 78273.602 -135950.427 78269.61 -135946.434 78269.418 -135946.626 78265.956 -135942.071 78266.601 -135941.427 78262.598 -135937.423 78262.597 -135937.422 78258.608 -135933.432 78258.205 -135933.835 78258.178 -135933.813 78258.583 -135933.408 78258.58 -135933.405 78253.607 -135930.038 78251.685 -135928.451 78251.451 -135928.276 78249.608 -135926.432 78249.343 -135926.697 78249.315 -135926.676 78249.583 -135926.408 78249.58 -135926.405 78244.61 -135923.04 78242.127 -135920.99 78240.859 -135919.616 78240.852 -135919.611 78240.706 -135919.816 78239.988 -135919.223 78240.216 -135918.947 78233.137 -135913.267 78231.317 -135911.545 78227.43 -135907.868 78227.427 -135907.866 78227.175 -135908.244 78221.162 -135903.452 78218.43 -135900.868 78218.427 -135900.866 78218.175 -135901.245 78218.16 -135901.233 78217.957 -135901.572 78217.794 -135901.816 78214.908 -135900.085 78209.836 -135896.249 78210.193 -135895.655 78205.206 -135892.663 78200.206 -135889.663 78195.204 -135886.662 78195.276 -135886.543 78195.239 -135886.52 78194.834 -135887.278 78176.315 -135877.392 78176.542 -135876.968 78176.531 -135876.96 78176.454 -135877.114 78171.419 -135874.596 78170.465 -135874.119 78170.457 -135874.136 78170.432 -135874.124 78170.441 -135874.107 78170.437 -135874.105 78169.445 -135873.652 78169.43 -135873.645 78168.518 -135873.229 78168.525 -135873.213 78168.421 -135873.163 78168.662 -135872.658 78168.394 -135872.572 78168.167 -135873.069 78157.245 -135868.084 78156.145 -135867.865 78155.79 -135867.703 78154.951 -135867.15 78154.941 -135867.146 78154.884 -135867.29 78154.859 -135867.278 78154.916 -135867.136 78149.927 -135865.141 78149.748 -135865.587 78144.393 -135864.522 78143.868 -135864.282 78143.925 -135864.14 78138.934 -135862.144 78138.756 -135862.589 78121.792 -135859.215 78110.214 -135855.142 78110.212 -135855.14 78107.456 -135854.171 78107.586 -135853.802 78107.514 -135853.797 78107.597 -135853.301 78101.606 -135852.303 78101.499 -135852.946 78096.447 -135851.169 78096.592 -135850.3 78090.612 -135849.304 78090.612 -135849.303 78090.606 -135849.302 78090.6 -135849.302 78087.093 -135849.442 78080.216 -135848.873 78080.234 -135848.655 78069.299 -135847.798 78069.246 -135848.337 78065.008 -135847.92 78063.009 -135847.522 78063.006 -135847.522 78063.006 -135847.715 78057.01 -135846.522 78057.004 -135846.522 78057.004 -135847.131 78056.994 -135847.13 78056.994 -135846.522 78051.037 -135846.522 78046.01 -135845.522 78046.005 -135845.522 78046.005 -135846.048 78045.995 -135846.047 78045.995 -135845.522 76780.478 -135845.522 76712.357 -135825.52 76665.864 -135771.864 76654.478 -135719.522 76654.478 -134903.158 77249.5 -134903.158 77252.514 -134928.489 77256.351 -134937.128 77256.352 -134937.131 77285.68 -135003.158 77296.444 -135027.391 77373.034 -135103.847 77472.013 -135147.605 77488.283 -135149.502 77493.203 -135150.076 77493.208 -135150.076 77496.842 -135150.5 78878.158 -135150.5 78886.745 -135149.478 78894.097 -135148.604 78894.1 -135148.603 78903.489 -135147.486 78912.128 -135143.649 78912.131 -135143.648 78991.763 -135108.277 78991.764 -135108.276 79002.391 -135103.556 79078.847 -135026.966 79122.605 -134927.987 79125.5 -134903.158 79125.5 -134396.842 79124.247 -134386.31 79123.604 -134380.903 79123.603 -134380.9 79122.486 -134371.511 79118.649 -134362.872 79118.648 -134362.869 79083.277 -134283.237 79083.276 -134283.236 79078.556 -134272.609 79001.966 -134196.153 78988.483 -134190.192 78950.113 -134173.229 78902.987 -134152.395 78886.717 -134150.498 78881.797 -134149.924 78881.792 -134149.924 78878.158 -134149.5 77496.842 -134149.5 77488.255 -134150.522 77480.903 -134151.396 77480.9 -134151.397 77471.511 -134152.514 77462.872 -134156.351 77462.869 -134156.352 77383.237 -134191.723 77383.236 -134191.724 77372.609 -134196.444 77296.153 -134273.034 77291.449 -134283.673 77291.449 -134283.674 77288.032 -134291.404 77252.395 -134372.013 77251.298 -134381.425 77250.018 -134392.403 77249.5 -134396.842 77249.5 -134903.158 76654.478 -134903.158 76654.478 -134454.005 76654.459 -134454.005 76654.459 -134453.995 76654.478 -134453.995 76654.478 -134453.99 76653.964 -134439.498 76653.498 -134437.798 76653.453 -134437.317 76653.223 -134435.808 76652.964 -134428.498 76652.06 -134425.196 76651.964 -134422.499 76650.829 -134418.354 76650.509 -134415.374 76650.509 -134414.125 76650.698 -134409.394 76650.697 -134409.388 76650.696 -134409.388 76649.7 -134403.408 76649.629 -134403.42 76648.59 -134397.31 76646.791 -134392.953 76646.699 -134392.403 76646.629 -134392.415 76645.59 -134386.31 76642.905 -134379.809 76642.904 -134379.805 76640.223 -134373.313 76636.832 -134361.476 76637.856 -134361.066 76635.86 -134356.075 76635.344 -134356.281 76633.699 -134350.537 76634.858 -134350.073 76632.857 -134345.069 76629.34 -134339.735 76629.279 -134339.618 76629.2 -134339.329 76629.856 -134339.067 76627.857 -134334.069 76627.111 -134334.367 76625.365 -134329.807 76625.886 -134329.546 76622.893 -134323.56 76622.136 -134323.939 76617.142 -134317.429 76615.142 -134312.586 76615.138 -134312.58 76614.831 -134312.784 76611.884 -134305.648 76613.329 -134304.781 76610.337 -134299.795 76607.344 -134294.806 76604.337 -134289.794 76599.943 -134285.034 76599.632 -134284.62 76597.337 -134280.794 76592.957 -134276.05 76592.953 -134276.044 76588.628 -134271.359 76580.8 -134259.6 76577.216 -134255.582 76577.579 -134255.309 76577.576 -134255.305 76573.69 -134251.63 76573.082 -134250.947 76573.602 -134250.427 76569.61 -134246.434 76569.418 -134246.626 76565.956 -134242.071 76566.601 -134241.427 76562.598 -134237.423 76562.597 -134237.422 76558.608 -134233.432 76558.205 -134233.835 76558.178 -134233.813 76558.583 -134233.408 76558.58 -134233.405 76553.607 -134230.038 76551.685 -134228.451 76551.451 -134228.276 76549.608 -134226.432 76549.343 -134226.697 76549.315 -134226.676 76549.583 -134226.408 76549.58 -134226.405 76544.61 -134223.04 76542.127 -134220.99 76540.859 -134219.616 76540.852 -134219.611 76540.706 -134219.816 76539.988 -134219.223 76540.216 -134218.947 76533.137 -134213.267 76531.317 -134211.545 76527.43 -134207.868 76527.427 -134207.866 76527.175 -134208.244 76521.162 -134203.452 76518.43 -134200.868 76518.427 -134200.866 76518.175 -134201.245 76518.16 -134201.233 76517.957 -134201.572 76517.794 -134201.816 76514.908 -134200.085 76509.836 -134196.249 76510.193 -134195.655 76505.206 -134192.663 76500.206 -134189.663 76495.204 -134186.662 76495.276 -134186.543 76495.239 -134186.52 76494.834 -134187.278 76476.315 -134177.392 76476.542 -134176.968 76476.531 -134176.96 76476.454 -134177.114 76471.419 -134174.596 76470.465 -134174.119 76470.457 -134174.136 76470.432 -134174.124 76470.441 -134174.107 76470.437 -134174.105 76469.445 -134173.652 76469.43 -134173.645 76468.518 -134173.229 76468.525 -134173.213 76468.421 -134173.163 76468.662 -134172.658 76468.394 -134172.572 76468.167 -134173.069 76467.536 -134172.781 76457.245 -134168.084 76456.145 -134167.865 76455.79 -134167.703 76454.951 -134167.15 76454.941 -134167.146 76454.884 -134167.29 76454.859 -134167.278 76454.916 -134167.136 76449.927 -134165.141 76449.748 -134165.587 76444.393 -134164.522 76443.868 -134164.282 76443.925 -134164.14 76438.934 -134162.144 76438.756 -134162.589 76421.792 -134159.215 76410.214 -134155.142 76410.212 -134155.14 76407.456 -134154.171 76407.586 -134153.802 76407.514 -134153.797 76407.597 -134153.301 76401.606 -134152.303 76401.499 -134152.946 76396.447 -134151.169 76396.592 -134150.3 76390.612 -134149.304 76390.612 -134149.303 76390.606 -134149.302 76390.6 -134149.302 76387.093 -134149.442 76380.216 -134148.873 76380.234 -134148.655 76369.299 -134147.798 76369.246 -134148.337 76365.008 -134147.92 76363.009 -134147.522 76363.006 -134147.522 76363.006 -134147.715 76357.01 -134146.522 76357.004 -134146.522 76357.004 -134147.131 76356.994 -134147.13 76356.994 -134146.522 76351.037 -134146.522 76346.01 -134145.522 76346.005 -134145.522 76346.005 -134146.048 76345.995 -134146.047 76345.995 -134145.522 73664.007 -134145.522 73664.007 -134145.93 73663.996 -134145.93 73663.996 -134145.522 73663.99 -134145.522 73659.889 -134146.188 73653.217 -134146.456 73653.218 -134146.502 73652.093 -134146.522 73651.004 -134146.522 73651.004 -134146.541 73650.991 -134146.542 73650.991 -134146.522 73650.99 -134146.522 73636.498 -134147.036 73633.916 -134147.743 73632.14 -134147.997 73631.207 -134148.13 73631.206 -134148.13 73628.074 -134148.578 73628.14 -134149.043 73627.302 -134149.293 73622.44 -134150.035 73617.161 -134152.332 73616.343 -134152.556 73611.63 -134152.734 73611.391 -134151.303 73605.401 -134152.301 73605.517 -134152.996 73605.496 -134153.001 73605.38 -134152.304 73605.374 -134152.305 73601.444 -134153.859 73597.235 -134154.128 73597.42 -134154.91 73590.48 -134156.551 73586.35 -134157.012 73586.35 -134157.011 73581.033 -134158.783 73580.516 -134158.908 73579.13 -134159.236 73574.348 -134160.012 73574.342 -134160.014 73574.471 -134160.401 73574.452 -134160.406 73574.323 -134160.02 73569.535 -134161.616 73569.537 -134161.616 73568.342 -134162.014 73568.334 -134162.016 73563.211 -134163.724 73563.209 -134163.725 73556.342 -134166.014 73556.681 -134167.032 73551.978 -134169.414 73549.843 -134170.147 73547.56 -134170.93 73545.571 -134171.435 73545.056 -134170.147 73545.051 -134170.149 73540.743 -134172.659 73540.264 -134172.781 73536.139 -134174.65 73533.531 -134175.743 73529.56 -134177.106 73529.556 -134177.108 73529.681 -134177.358 73526.96 -134178.499 73524.477 -134180.001 73524.536 -134180.119 73518.551 -134183.112 73518.733 -134183.476 73518.732 -134183.476 73518.55 -134183.112 73518.546 -134183.114 73516.602 -134184.515 73515.893 -134184.845 73515.787 -134184.668 73510.789 -134187.667 73510.578 -134187.316 73504.725 -134190.037 73504.514 -134190.192 73504.796 -134190.662 73502.15 -134192.249 73502.142 -134192.254 73499.794 -134193.663 73497.573 -134195.274 73495.286 -134196.785 73495.161 -134196.596 73491.425 -134198.64 73491.575 -134198.865 73486.006 -134202.577 73486.004 -134202.579 73485.588 -134202.856 73485.589 -134202.858 73485.581 -134202.861 73485.578 -134202.863 73481.742 -134205.483 73481.732 -134205.49 73478.338 -134208.961 73478.031 -134209.164 73473.359 -134212.833 73471.794 -134213.968 73471.452 -134213.498 73471.426 -134213.515 73471.272 -134213.323 73466.271 -134217.323 73460.019 -134222.531 73458.803 -134224.097 73457.281 -134225.315 73457.574 -134225.681 73457.216 -134226.142 73449.686 -134232.661 73449.425 -134232.4 73445.428 -134236.396 73445.58 -134236.548 73444.521 -134237.449 73440.415 -134240.409 73440.409 -134240.415 73438.686 -134242.805 73434.689 -134247.135 73432.435 -134249.389 73432.449 -134249.403 73432.425 -134249.428 73432.411 -134249.414 73432.405 -134249.42 73422.521 -134260.03 73421.386 -134262.021 73421.382 -134262.026 73418.388 -134265.371 73417.336 -134266.256 73417.334 -134266.258 73413.343 -134271.246 73413.218 -134271.146 73413.023 -134271.363 73412.142 -134272.758 73412.291 -134272.878 73411.262 -134274.154 73411.189 -134274.27 73409.422 -134276.307 73409.413 -134276.319 73407.283 -134280.384 73402.978 -134285.681 73402.851 -134285.596 73398.861 -134291.582 73398.593 -134291.404 73395.179 -134298.118 73393.673 -134299.778 73390.669 -134304.784 73390.663 -134304.796 73390.662 -134304.796 73390.656 -134304.806 73389.607 -134306.889 73389.602 -134306.898 73389.601 -134306.9 73389.161 -134307.7 73388.994 -134308.042 73388.977 -134308.111 73388.763 -134308.565 73387.521 -134311.031 73384.654 -134315.81 73384.273 -134316.883 73383.208 -134318.584 73383.118 -134318.539 73380.122 -134324.529 73380.602 -134324.769 73377.085 -134331.752 73375.573 -134339.35 73370.506 -134348.144 73369.821 -134349.659 73366.021 -134356.325 73366.02 -134356.325 73364.018 -134362.329 73364.018 -134362.331 73362.018 -134368.329 73362.018 -134368.331 73360.023 -134374.314 73360.408 -134374.443 73360.401 -134374.471 73360.014 -134374.342 73360.012 -134374.348 73359.198 -134379.365 73358.908 -134380.543 73358.855 -134380.819 73357.018 -134386.329 73356.281 -134392.938 73356.226 -134393.188 73354.705 -134399.306 73352.305 -134405.374 73352.304 -134405.38 73353.001 -134405.496 73352.993 -134405.528 73352.299 -134405.412 73351.301 -134411.404 73351.358 -134411.413 73349.424 -134418.377 73349.035 -134418.269 73348.48 -134422.954 73348.713 -134422.965 73348.483 -134428.051 73348.58 -134428.065 73347.581 -134435.052 73348.163 -134435.135 73348.161 -134435.169 73347.577 -134435.086 73347.576 -134435.093 73347.89 -134441.171 73347.704 -134445.28 73347.112 -134451.004 73346.522 -134451.004 73346.522 -134456.716 73346.496 -134456.968 73346.333 -134458.988 73345.522 -134463.99 73345.522 -134463.996 73345.93 -134463.996 73345.929 -134464.007 73345.522 -134464.007 73345.522 -135719.522 73325.52 -135787.643 73271.864 -135834.136 73219.522 -135845.522 72874.905 -135845.522 72806.784 -135825.52 72760.291 -135771.864 72750.187 -135701.59 72758.496 -135671.304 72781.884 -135614.841 72785.044 -135607.212 72805.682 -135450.45 72785.044 -135293.688 72724.536 -135147.609 72676.256 -135084.689 72650.656 -135018.468 72650.467 -135003.441 72650.5 -135003.158 72650.5 -133621.842 72647.486 -133596.511 72643.649 -133587.872 72643.648 -133587.869 72608.277 -133508.237 72608.276 -133508.236 72603.556 -133497.609 72526.966 -133421.153 72427.987 -133377.395 72411.717 -133375.498 72406.797 -133374.924 72406.792 -133374.924 72403.158 -133374.5 71896.842 -133374.5 71888.255 -133375.522 71880.903 -133376.396 71880.9 -133376.397 71871.511 -133377.514 71862.872 -133381.351 71862.869 -133381.352 71783.237 -133416.723 71783.236 -133416.724 71772.609 -133421.444 71696.153 -133498.034 71652.395 -133597.013 71649.5 -133621.842 71649.5 -135003.158 71649.942 -135006.87 71651.322 -135018.468 71652.514 -135028.489 71656.352 -135037.129 71656.353 -135037.134 71667.973 -135063.294 71677.345 -135133.669 71669.23 -135162.659 71614.956 -135293.688 71594.318 -135450.45 71614.956 -135607.212 71675.464 -135753.291 71680.489 -135759.84 71680.491 -135759.843 71698.051 -135782.727 71717.472 -135808.036 71743.072 -135874.255 71728.808 -135943.804 71714.283 -135964.03 71714.876 -135964.503 71711.545 -135968.683 71707.868 -135972.57 71707.866 -135972.573 71708.244 -135972.825 71703.452 -135978.838 71700.868 -135981.57 71700.866 -135981.573 71701.245 -135981.826 71701.237 -135981.836 71701.473 -135981.977 71701.816 -135982.206 71700.085 -135985.092 71696.246 -135990.168 71695.652 -135989.812 71692.656 -135994.806 71686.665 -136004.791 71685.65 -136004.182 71685.591 -136004.259 71687.281 -136005.161 71677.391 -136023.687 71677.113 -136023.548 71674.119 -136029.535 71674.237 -136029.594 71673.085 -136031.752 71672.793 -136033.22 71672.326 -136034.142 71672.143 -136034.069 71671.316 -136036.137 71671.049 -136036.664 71670.741 -136037.385 71670.805 -136037.414 71669.874 -136039.454 71669.794 -136039.597 71669.567 -136040.127 71667.69 -136044.24 71667.143 -136045.069 71665.142 -136050.073 71665.587 -136050.251 71664.522 -136055.607 71664.282 -136056.132 71664.14 -136056.075 71662.144 -136061.066 71662.589 -136061.244 71659.215 -136078.208 71655.142 -136089.786 71655.14 -136089.788 71654.171 -136092.544 71653.802 -136092.414 71653.797 -136092.486 71653.301 -136092.403 71652.303 -136098.394 71652.946 -136098.501 71651.169 -136103.553 71650.3 -136103.408 71649.304 -136109.388 71649.303 -136109.388 71649.302 -136109.394 71649.491 -136114.125 71649.491 -136116.946 71649.155 -136122.308 71648.456 -136122.264 71647.795 -136130.701 71648.337 -136130.754 71647.92 -136134.992 71647.522 -136136.991 71647.522 -136136.994 71647.715 -136136.994 71646.522 -136142.99 71646.522 -136142.996 71647.131 -136142.996 71647.13 -136143.006 71646.522 -136143.006 71646.522 -136148.963 71645.522 -136153.99 71645.522 -136153.995 71646.048 -136153.995 71646.047 -136154.005 71645.522 -136154.005 71645.522 -138835.994 71645.93 -138835.994 71645.931 -138836.005 71645.522 -138836.005 71645.522 -138836.01 71646.317 -138840.907 71646.427 -138842.158 71646.522 -138843.338 71646.522 -138849.01 71647.577 -138854.487 71647.886 -138858.896 71647.576 -138864.908 71647.577 -138864.915 71648.161 -138864.832 71648.162 -138864.852 71647.579 -138864.936 71648.438 -138870.943 71648.578 -138871.926 71648.483 -138871.94 71648.713 -138877.035 71648.243 -138877.056 71650.486 -138888.769 71651.306 -138888.632 71652.307 -138894.636 71652.583 -138895.942 71652.584 -138895.949 71654.2 -138903.603 71655.92 -138911.752 71657.424 -138914.888 71657.714 -138915.758 71657.714 -138915.759 71659.007 -138919.639 71657.893 -138920.01 71658.156 -138926.255 71660.008 -138925.638 71662.008 -138931.641 71662.012 -138931.651 71664.011 -138937.65 71664.013 -138937.655 71666.004 -138943.63 71666.116 -138943.592 71666.118 -138943.596 71666.216 -138943.559 71669.088 -138951.255 71670.471 -138953.325 71674.431 -138962.644 71675.742 -138966.467 71675.745 -138966.474 71677.106 -138970.441 71677.109 -138970.447 71677.832 -138971.451 71677.973 -138971.786 71680.097 -138974.599 71680.497 -138975.261 71680.113 -138975.453 71682.038 -138979.302 71683.112 -138981.45 71682.85 -138981.581 71684.323 -138984.435 71684.674 -138984.224 71687.67 -138989.216 71686.999 -138989.619 71689.633 -138994.724 71690.198 -138995.492 71690.666 -138995.211 71693.666 -139000.21 71693.665 -139000.211 71693.668 -139000.215 71696.526 -139003.794 71697.024 -139004.66 71698.867 -139008.429 71702.865 -139014.425 71702.869 -139014.431 71704.082 -139016.023 71704.088 -139016.031 71712.384 -139026.916 71712.155 -139027.091 71713.316 -139028.713 71713.324 -139028.729 71713.328 -139028.734 71713.33 -139028.733 71713.344 -139028.752 71713.343 -139028.753 71713.356 -139028.77 71713.358 -139028.772 71717.334 -139033.741 71717.125 -139033.909 71717.854 -139034.581 71719.43 -139037.005 71719.795 -139036.643 71721.098 -139037.958 71721.347 -139037.759 71725.344 -139042.754 71725.619 -139042.534 71730.531 -139048.98 71732.209 -139050.282 71732.406 -139050.581 71736.411 -139054.586 71736.655 -139054.342 71739.348 -139056.367 71742.773 -139059.822 71741.932 -139060.655 71745.466 -139063.537 71745.414 -139063.589 71749.419 -139067.594 71754.642 -139071.038 71757.693 -139074.097 71757.246 -139074.656 71762.22 -139078.636 71762.241 -139078.653 71762.239 -139078.655 71766.25 -139082.677 71766.259 -139082.666 71771.247 -139086.657 71771.442 -139086.414 71771.461 -139086.428 71771.266 -139086.672 71771.271 -139086.676 71775.089 -139088.933 71778.754 -139091.463 71778.581 -139091.713 71783.783 -139095.349 71785.569 -139097.131 71791.571 -139101.133 71795.334 -139102.973 71795.608 -139103.131 71799.832 -139106.263 71799.79 -139106.334 71804.789 -139109.334 71806.87 -139110.382 71806.873 -139110.384 71806.902 -139110.399 71807.557 -139110.76 71807.64 -139110.78 71807.903 -139110.903 71811.03 -139112.478 71815.779 -139115.328 71816.698 -139115.645 71818.584 -139116.821 71818.55 -139116.888 71819.263 -139117.245 71824.547 -139119.887 71824.787 -139119.407 71831.751 -139122.915 71834.715 -139123.505 71844.966 -139129.167 71845.564 -139127.916 71847.576 -139128.878 71847.568 -139128.895 71847.57 -139128.896 71848.543 -139129.34 71856.658 -139133.044 71855.937 -139134.624 71856.115 -139134.673 71856.344 -139133.986 71869.194 -139138.269 71869.195 -139138.27 71872.954 -139139.523 71872.956 -139139.523 71874.332 -139139.982 71874.41 -139139.747 71879.208 -139140.485 71879.212 -139140.462 71880.064 -139140.617 71880.081 -139140.62 71880.425 -139140.682 71880.326 -139140.98 71886.318 -139142.978 71886.649 -139141.986 71886.669 -139141.992 71886.695 -139141.848 71886.704 -139141.821 71892.947 -139142.953 71899.544 -139146.262 71900.231 -139144.273 71900.234 -139144.274 71905.444 -139146.072 71905.649 -139146.218 71905.403 -139147.699 71911.4 -139148.698 71911.49 -139148.159 71913.627 -139148.897 71913.635 -139148.898 71913.647 -139148.799 71916.662 -139149.744 71921.376 -139149.998 71926.533 -139151.197 71926.475 -139151.445 71928.065 -139151.517 71928.079 -139151.422 71935.07 -139152.421 71935.153 -139151.837 71935.169 -139151.838 71935.085 -139152.423 71935.092 -139152.424 71940.755 -139152.132 71944.494 -139152.385 71945.425 -139152.469 71950.991 -139153.478 71956.645 -139153.478 71960.024 -139153.782 71960.646 -139153.813 71963.991 -139154.478 71963.995 -139154.478 71963.995 -139153.977 71964.006 -139153.978 71964.006 -139154.478 73219.522 -139154.478 73287.643 -139174.48 73334.136 -139228.136 73345.522 -139280.478 73345.522 -139625.095 73325.52 -139693.216 73271.864 -139739.709 73201.59 -139749.813 73171.304 -139741.504 73114.841 -139718.116 73107.212 -139714.956 72950.45 -139694.318 72793.688 -139714.956 72647.609 -139775.464 72641.058 -139780.491 72584.689 -139823.744 72518.468 -139849.344 72503.441 -139849.533 72503.158 -139849.5 71121.842 -139849.5 71113.255 -139850.522 71105.903 -139851.396 71105.9 -139851.397 71096.511 -139852.514 71087.872 -139856.351 71087.869 -139856.352 71008.237 -139891.723 71008.236 -139891.724 70997.609 -139896.444 70921.153 -139973.034 70877.395 -140072.013 70874.5 -140096.842 70874.5 -140603.158 50200.501 -140603.158 50200.5 -125250 54894.318 -125250 54914.956 -125406.762 54975.464 -125552.841 55071.718 -125678.282 55197.159 -125774.536 55343.238 -125835.044 55500 -125855.682 55508.188 -125854.604 55648.574 -125836.122 55656.762 -125835.044 55802.841 -125774.536 55928.282 -125678.282 55969.323 -125624.796 56026.661 -125582.929 56069.286 -125575.5 65180.714 -125575.5 65248.835 -125595.502 65280.677 -125624.796 65321.718 -125678.282 65447.159 -125774.536 65593.238 -125835.044 65750 -125855.682 65758.188 -125854.604 65898.574 -125836.122 65906.762 -125835.044 66052.841 -125774.536 66178.282 -125678.282 66219.323 -125624.796 66276.661 -125582.929 66319.286 -125575.5 68047.523 -125575.5 68069.401 -125577.414 68076.167 -125578.607 68076.169 -125578.607 68087.024 -125580.521 68092.213 -125579.606 68270.1 -125570.866 68438.795 -125562.577 68438.8 -125562.576 68441.883 -125562.425 68675.999 -125527.696 68790.271 -125510.745 68790.276 -125510.744 68793.323 -125510.292 68904.292 -125482.495 69134.961 -125424.714 69134.966 -125424.712 69137.962 -125423.962 69140.871 -125422.921 69140.878 -125422.919 69291.073 -125369.177 69472.478 -125304.267 69610.633 -125238.923 69790.862 -125153.679 69790.868 -125153.676 69793.652 -125152.359 70047.843 -125000 77644.318 -125000 77664.956 -125156.762 77725.464 -125302.841 77821.718 -125428.282 77947.159 -125524.536 78031.309 -125559.392 78082.319 -125580.521 78093.238 -125585.044 78250 -125605.682 78258.188 -125604.604 78277.991 -125601.997 78406.762 -125585.044 78417.682 -125580.521 78468.691 -125559.392 78552.841 -125524.536 78678.282 -125428.282 78719.323 -125374.796 78776.661 -125332.929 78819.286 -125325.5 79835.5 -125325.5 79857.379 -125327.414 79875 -125330.521 79885.855 -125328.607 79890.406 -125328.607 79911.401 -125327.288 80221.448 -125342.52 80233.744 -125343.73 80570.74 -125393.72 80582.846 -125396.127 80913.319 -125478.906 80925.151 -125482.495 81245.913 -125597.265 81257.337 -125601.997 81565.301 -125747.653 81576.202 -125753.48 81707.011 -125831.884 81868.412 -125928.624 81878.693 -125935.494 82152.32 -126138.429 82161.878 -126146.273 82391.879 -126354.733 82405.792 -126370.512 82409.013 -126373.733 82415.335 -126382.762 82424.365 -126389.085 82424.367 -126389.087 82429.997 -126393.029 82446.82 -126407.146 85148.112 -129108.438 85162.227 -129125.258 85172.493 -129139.92 85181.527 -129146.246 85182.537 -129147.256 85201.034 -129163.407 85445.365 -129427.723 85451.79 -129435.246 85590.106 -129610.698 85692.447 -129740.517 85694.357 -129742.94 85700.172 -129750.944 85917.849 -130076.721 85923.015 -130085.152 85950.237 -130133.758 86114.465 -130427.007 86118.957 -130435.823 86282.991 -130791.642 86286.777 -130800.782 86422.391 -131168.377 86425.448 -131177.786 86531.801 -131554.878 86534.111 -131564.497 86591.609 -131853.548 86610.552 -131948.78 86612.1 -131958.552 86658.154 -132347.651 86658.93 -132357.513 86673.062 -132717.122 86671.393 -132741.761 86671.393 -132743.11 86669.479 -132753.965 86671.393 -132764.819 86671.393 -132764.82 86672.586 -132771.586 86674.5 -132793.466 86674.5 -135430.714 86654.498 -135498.835 86625.204 -135530.677 86571.718 -135571.718 86475.464 -135697.159 86414.956 -135843.238 86413.878 -135851.426 86411.735 -135867.703 86394.318 -136000 86399.145 -136036.664 86412.354 -136136.994 86414.956 -136156.762 86475.464 -136302.841 86571.718 -136428.282 86697.159 -136524.536 86843.238 -136585.044 87000 -136605.682 87008.188 -136604.604 87148.574 -136586.122 87156.762 -136585.044 87302.841 -136524.536 87428.282 -136428.282 87524.536 -136302.841 87585.044 -136156.762 87587.647 -136136.994 87600.855 -136036.664 87605.682 -136000 87588.265 -135867.703 87586.122 -135851.426 87585.044 -135843.238 87524.536 -135697.159 87428.282 -135571.718 87374.796 -135530.677 87332.929 -135473.339 87325.5 -135430.714 87325.5 -132793.462 87327.414 -132771.584 87328.607 -132764.82 87328.607 -132764.816 87330.521 -132753.961 87329.799 -132749.867 87312.166 -132301.134 87310.357 -132285.848 87259.188 -131853.548 87259.187 -131853.542 87258.898 -131851.1 87170.486 -131406.632 87169.82 -131404.271 87169.817 -131404.258 87048.148 -130972.861 87047.474 -130970.471 86890.621 -130545.306 86838.076 -130431.327 86701.928 -130136.003 86701.928 -130136.002 86700.893 -130133.758 86479.462 -129738.364 86276.924 -129435.246 86229.07 -129363.628 86229.067 -129363.625 86227.69 -129361.563 85947.132 -129005.676 85642.349 -128675.962 85639.921 -128672.494 85630.891 -128666.171 85630.888 -128666.168 85625.259 -128662.227 85608.436 -128648.11 82907.145 -125946.819 82893.028 -125929.996 82889.084 -125924.364 82882.761 -125915.334 82876.665 -125911.065 82816.225 -125855.682 82610.583 -125667.246 82610.575 -125667.239 82608.547 -125665.381 82496.763 -125579.606 82316.407 -125441.213 82316.4 -125441.208 82314.217 -125439.533 82243.728 -125394.627 82003.652 -125241.682 82003.646 -125241.678 82001.322 -125240.198 81672.245 -125068.891 81329.49 -124926.918 81326.87 -124926.092 81326.862 -124926.089 80978.295 -124816.186 80978.29 -124816.185 80975.665 -124815.357 80613.464 -124735.059 80610.745 -124734.701 80610.739 -124734.7 80472.568 -124716.51 80245.642 -124686.635 80242.893 -124686.515 80242.882 -124686.514 79889.411 -124671.081 79882.334 -124670.772 79875 -124669.479 79857.38 -124672.586 79835.5 -124674.5 78819.286 -124674.5 78751.165 -124654.498 78719.323 -124625.204 78683.305 -124578.264 78678.282 -124571.718 78552.841 -124475.464 78406.762 -124414.956 78250 -124394.318 78093.238 -124414.956 77947.159 -124475.464 77821.718 -124571.718 77725.464 -124697.159 77664.956 -124843.238 77644.318 -125000 70047.843 -125000 70098.39 -124969.703 70383.757 -124758.057 70408.474 -124735.655 70636.419 -124529.054 70643.03 -124523.062 70647.487 -124519.941 70657.751 -124505.282 70671.87 -124488.456 71260.326 -123900 85994.318 -123900 86014.956 -124056.762 86075.464 -124202.841 86171.718 -124328.282 86297.159 -124424.536 86443.238 -124485.044 86600 -124505.682 86608.188 -124504.604 86748.574 -124486.122 86756.762 -124485.044 86902.841 -124424.536 87028.282 -124328.282 87124.536 -124202.841 87185.044 -124056.762 87205.682 -123900 87196.882 -123833.157 87207.821 -123763.01 87232.709 -123727.617 88216.215 -122744.111 88224.319 -122736.684 88244.749 -122719.541 88253.194 -122712.455 88258.707 -122702.906 88272.039 -122679.815 88277.945 -122670.544 88293.23 -122648.715 88299.554 -122639.684 88302.408 -122629.034 88303.885 -122625.866 88305.077 -122622.59 88310.588 -122613.045 88317.13 -122575.942 88319.509 -122565.21 88326.41 -122539.456 88329.264 -122528.807 88325.98 -122491.272 88325.5 -122480.29 88325.5 -120669.786 88345.502 -120601.665 88374.796 -120569.823 88421.736 -120533.805 88428.282 -120528.782 88524.536 -120403.341 88585.044 -120257.262 88605.682 -120100.5 88585.044 -119943.738 88524.536 -119797.659 88428.282 -119672.218 88302.841 -119575.964 88156.762 -119515.456 88000 -119494.818 87843.238 -119515.456 87697.159 -119575.964 87571.718 -119672.218 87475.464 -119797.659 87414.956 -119943.738 87394.318 -120100.5 87414.956 -120257.262 87475.464 -120403.341 87571.718 -120528.782 87578.264 -120533.805 87625.204 -120569.823 87667.071 -120627.161 87674.5 -120669.786 87674.5 -122312.984 87654.498 -122381.105 87637.595 -122402.079 86772.383 -123267.291 86710.071 -123301.317 86666.843 -123303.118 86600 -123294.318 86443.238 -123314.956 86297.159 -123375.464 86171.718 -123471.718 86075.464 -123597.159 86014.956 -123743.238 85994.318 -123900 71260.326 -123900 74326.57 -120833.757 74330.74 -120829.587 74333.716 -120827.503 74335.799 -120824.528 74356.506 -120803.821 74359.661 -120799.315 74363.202 -120795.095 74363.645 -120795.467 74374.805 -120782.689 74621.518 -120554.625 74629.041 -120548.2 74811.359 -120404.468 74936.745 -120305.619 74944.725 -120299.822 75270.513 -120082.132 75278.938 -120076.969 75502.213 -119951.926 75620.804 -119885.511 75629.618 -119881.02 75651.828 -119870.781 75985.438 -119716.98 75994.553 -119713.203 76362.172 -119577.577 76371.58 -119574.521 76748.666 -119468.169 76758.285 -119465.859 77142.584 -119389.413 77152.356 -119387.866 77541.432 -119341.812 77551.295 -119341.035 77818.839 -119330.521 77910.751 -119326.909 77935.81 -119328.607 77936.905 -119328.607 77947.759 -119330.521 77958.613 -119328.607 77958.614 -119328.607 77965.38 -119327.414 77987.26 -119325.5 86430.714 -119325.5 86498.835 -119345.502 86530.677 -119374.796 86571.718 -119428.282 86697.159 -119524.536 86843.238 -119585.044 87000 -119605.682 87008.188 -119604.604 87148.574 -119586.122 87156.762 -119585.044 87302.841 -119524.536 87428.282 -119428.282 87524.536 -119302.841 87585.044 -119156.762 87605.682 -119000 87596.882 -118933.157 87607.821 -118863.01 87632.709 -118827.617 88577.617 -117882.709 88639.929 -117848.683 88683.157 -117846.882 88750 -117855.682 88758.188 -117854.604 88898.574 -117836.122 88906.762 -117835.044 89052.841 -117774.536 89178.282 -117678.282 89219.323 -117624.796 89276.661 -117582.929 89319.286 -117575.5 93680.714 -117575.5 93748.835 -117595.502 93780.677 -117624.796 93821.718 -117678.282 93947.159 -117774.536 94093.238 -117835.044 94250 -117855.682 94258.188 -117854.604 94398.574 -117836.122 94406.762 -117835.044 94552.841 -117774.536 94678.282 -117678.282 94774.536 -117552.841 94835.044 -117406.762 94855.682 -117250 94835.044 -117093.238 94774.536 -116947.159 94678.282 -116821.718 94552.841 -116725.464 94406.762 -116664.956 94250 -116644.318 94093.238 -116664.956 93947.159 -116725.464 93821.718 -116821.718 93816.695 -116828.264 93780.677 -116875.204 93723.339 -116917.071 93680.714 -116924.5 89319.286 -116924.5 89251.165 -116904.498 89219.323 -116875.204 89183.305 -116828.264 89178.282 -116821.718 89052.841 -116725.464 88906.762 -116664.956 88750 -116644.318 88593.238 -116664.956 88447.159 -116725.464 88321.718 -116821.718 88225.464 -116947.159 88164.956 -117093.238 88144.318 -117250 88145.396 -117258.188 88153.118 -117316.842 88142.179 -117386.99 88117.291 -117422.383 87172.383 -118367.291 87110.071 -118401.317 87066.843 -118403.118 87000 -118394.318 86843.238 -118414.956 86697.159 -118475.464 86571.718 -118571.718 86566.695 -118578.264 86530.677 -118625.204 86473.339 -118667.071 86430.714 -118674.5 77987.254 -118674.5 77965.376 -118672.586 77958.612 -118671.393 77958.608 -118671.393 77947.753 -118669.479 77943.915 -118670.156 77494.925 -118687.8 77492.464 -118688.091 77492.455 -118688.092 77269.907 -118714.435 77044.889 -118741.07 76600.419 -118829.484 76451.256 -118871.554 76166.639 -118951.827 76166.635 -118951.828 76164.257 -118952.499 75739.091 -119109.356 75327.543 -119299.088 75325.396 -119300.29 75325.385 -119300.296 74934.309 -119519.314 74934.303 -119519.318 74932.149 -119520.524 74555.348 -119772.3 74199.463 -120052.864 73869.756 -120357.65 73866.284 -120360.081 73859.962 -120369.11 73841.527 -120395.439 73827.408 -120412.265 70211.542 -124028.132 70194.721 -124042.248 70180.055 -124052.517 70173.73 -124061.55 70170.394 -124064.886 70156.656 -124080.466 69972.587 -124247.299 69963.029 -124255.144 69739.254 -124421.109 69728.973 -124427.978 69490.023 -124571.202 69479.118 -124577.031 69353.196 -124636.589 69227.268 -124696.15 69215.854 -124700.878 69065.702 -124754.605 68953.548 -124794.735 68941.715 -124798.325 68870.412 -124816.186 68671.461 -124866.022 68659.343 -124868.432 68383.76 -124909.313 68371.46 -124910.525 68123.42 -124922.712 68102.423 -124921.393 68097.875 -124921.393 68087.02 -124919.479 68076.166 -124921.393 68076.165 -124921.393 68069.399 -124922.586 68047.519 -124924.5 66319.286 -124924.5 66251.165 -124904.498 66219.323 -124875.204 66183.305 -124828.264 66178.282 -124821.718 66052.841 -124725.464 65920.803 -124670.772 65914.391 -124668.116 65906.762 -124664.956 65750 -124644.318 65593.238 -124664.956 65585.609 -124668.116 65579.197 -124670.772 65447.159 -124725.464 65321.718 -124821.718 65316.695 -124828.264 65280.677 -124875.204 65223.339 -124917.071 65180.714 -124924.5 56069.286 -124924.5 56001.165 -124904.498 55969.323 -124875.204 55933.305 -124828.264 55928.282 -124821.718 55802.841 -124725.464 55670.803 -124670.772 55664.391 -124668.116 55656.762 -124664.956 55500 -124644.318 55343.238 -124664.956 55335.609 -124668.116 55329.197 -124670.772 55197.159 -124725.464 55071.718 -124821.718 54975.464 -124947.159 54914.956 -125093.238 54894.318 -125250 50200.5 -125250 50200.5 -113537.371 50203.755 -113508.918 50204.043 -113507.676 50204.044 -113507.669 50205.655 -113500.718 50205.656 -113500 50204.074 -113493.064 50204.01 -113492.493 50203.836 -113466.133 50214.646 -113356.374 50219.462 -113332.156 50257.758 -113205.912 50267.207 -113183.102 50329.389 -113066.768 50343.112 -113046.23 50426.796 -112944.261 50444.261 -112926.796 50546.23 -112843.112 50566.768 -112829.389 50636.378 -112792.182 50683.103 -112767.206 50705.912 -112757.758 50832.156 -112719.462 50856.373 -112714.646 50881.186 -112712.202 50973.77 -112703.083 50985.905 -112702.497 50999.641 -112705.656 51013.48 -112702.525 51018.31 -112702.533 51036.504 -112700.5 98962.92 -112700.5 98980.242 -112702.466"/></g></svg>