<svg version="1.1" xmlns="http://www.w3.org/2000/svg" xmlns:xlink="http://www.w3.org/1999/xlink" stroke-linecap="round" stroke-linejoin="round" stroke-width="0" fill-rule="evenodd" width="50.71524mm" height="58.26667mm" viewBox="49530 -170716.67 50715.24 58266.67" id="j7WyOE61KjBrh289eXVG"><g transform="translate(0,-283166.67000000004) scale(1,-1)" fill="currentColor" stroke="currentColor"><path d="M 50000 -161500 A 1000 1000 0 0 1 51000 -162500 M 51000 -112500 A 1000 1000 0 0 1 50000 -113500 M 99000 -162500 51000 -162500 M 50000 -161500 50000 -113500 M 100000 -113500 100000 -161500 M 99000 -162500 A 1000 1000 0 0 1 100000 -161500 M 99000 -112500 51000 -112500 M 100000 -113500 A 1000 1000 0 0 1 99000 -112500" fill="none" stroke-width="100"/><path d="M 52290 -117585 52690 -117985 M 52690 -117585 52290 -117985 M 52290 -125205 52690 -125605 M 52690 -125205 52290 -125605 M 52290 -132825 52690 -133225 M 52690 -132825 52290 -133225 M 52290 -140445 52690 -140845 M 52690 -140445 52290 -140845 M 52290 -148065 52690 -148465 M 52690 -148065 52290 -148465 M 52290 -155685 52690 -156085 M 52690 -155685 52290 -156085 M 54830 -160765 55230 -161165 M 55230 -160765 54830 -161165 M 55300 -125050 55700 -125450 M 55700 -125050 55300 -125450 M 57370 -122665 57770 -123065 M 57770 -122665 57370 -123065 M 57370 -130285 57770 -130685 M 57770 -130285 57370 -130685 M 57370 -137905 57770 -138305 M 57770 -137905 57370 -138305 M 57370 -145525 57770 -145925 M 57770 -145525 57370 -145925 M 59910 -150605 60310 -151005 M 60310 -150605 59910 -151005 M 59910 -158225 60310 -158625 M 60310 -158225 59910 -158625 M 62450 -115045 62850 -115445 M 62850 -115045 62450 -115445 M 62450 -135365 62850 -135765 M 62850 -135365 62450 -135765 M 64300 -121800 64700 -122200 M 64700 -121800 64300 -122200 M 64990 -140445 65390 -140845 M 65390 -140445 64990 -140845 M 64990 -153145 65390 -153545 M 65390 -153145 64990 -153545 M 65550 -125050 65950 -125450 M 65950 -125050 65550 -125450 M 65800 -123550 66200 -123950 M 66200 -123550 65800 -123950 M 67530 -145525 67930 -145925 M 67930 -145525 67530 -145925 M 67530 -158225 67930 -158625 M 67930 -158225 67530 -158625 M 70070 -127745 70470 -128145 M 70470 -127745 70070 -128145 M 70070 -135365 70470 -135765 M 70470 -135365 70070 -135765 M 70070 -150605 70470 -151005 M 70470 -150605 70070 -151005 M 70800 -148800 71200 -149200 M 71200 -148800 70800 -149200 M 72000 -135250.45 72400 -135650.45 M 72400 -135250.45 72000 -135650.45 M 72610 -142985 73010 -143385 M 73010 -142985 72610 -143385 M 72750.45 -140100 73150.45 -140500 M 73150.45 -140100 72750.45 -140500 M 75050 -124800 75450 -125200 M 75450 -124800 75050 -125200 M 75150 -115045 75550 -115445 M 75550 -115045 75150 -115445 M 75150 -130285 75550 -130685 M 75550 -130285 75150 -130685 M 75150 -148065 75550 -148465 M 75550 -148065 75150 -148465 M 75150 -158225 75550 -158625 M 75550 -158225 75150 -158625 M 76300 -120050 76700 -120450 M 76700 -120050 76300 -120450 M 77600 -139349.55 78000 -139749.55 M 78000 -139349.55 77600 -139749.55 M 77690 -153145 78090 -153545 M 78090 -153145 77690 -153545 M 78050 -124800 78450 -125200 M 78450 -124800 78050 -125200 M 78550 -117300 78950 -117700 M 78950 -117300 78550 -117700 M 78800 -148800 79200 -149200 M 79200 -148800 78800 -149200 M 80230 -127745 80630 -128145 M 80630 -127745 80230 -128145 M 80230 -135365 80630 -135765 M 80630 -135365 80230 -135765 M 82770 -117585 83170 -117985 M 83170 -117585 82770 -117985 M 82770 -140445 83170 -140845 M 83170 -140445 82770 -140845 M 82770 -148065 83170 -148465 M 83170 -148065 82770 -148465 M 82770 -155685 83170 -156085 M 83170 -155685 82770 -156085 M 83050 -120050 83450 -120450 M 83450 -120050 83050 -120450 M 86400 -123700 86800 -124100 M 86800 -123700 86400 -124100 M 86800 -118800 87200 -119200 M 87200 -118800 86800 -119200 M 86800 -135800 87200 -136200 M 87200 -135800 86800 -136200 M 87050 -125800 87450 -126200 M 87450 -125800 87050 -126200 M 87800 -119900.5 88200 -120300.5 M 88200 -119900.5 87800 -120300.5 M 87850 -130285 88250 -130685 M 88250 -130285 87850 -130685 M 87850 -142985 88250 -143385 M 88250 -142985 87850 -143385 M 87850 -150605 88250 -151005 M 88250 -150605 87850 -151005 M 87850 -158225 88250 -158625 M 88250 -158225 87850 -158625 M 88550 -117050 88950 -117450 M 88950 -117050 88550 -117450 M 88800 -121550 89200 -121950 M 89200 -121550 88800 -121950 M 89300 -126300 89700 -126700 M 89700 -126300 89300 -126700 M 89300 -138550 89700 -138950 M 89700 -138550 89300 -138950 M 90390 -135365 90790 -135765 M 90790 -135365 90390 -135765 M 92930 -122665 93330 -123065 M 93330 -122665 92930 -123065 M 92930 -140445 93330 -140845 M 93330 -140445 92930 -140845 M 92930 -155685 93330 -156085 M 93330 -155685 92930 -156085 M 94050 -117050 94450 -117450 M 94450 -117050 94050 -117450 M 95470 -117585 95870 -117985 M 95870 -117585 95470 -117985 M 95470 -127745 95870 -128145 M 95870 -127745 95470 -128145 M 95470 -148065 95870 -148465 M 95870 -148065 95470 -148465 M 98010 -132825 98410 -133225 M 98410 -132825 98010 -133225 M 98010 -142985 98410 -143385 M 98410 -142985 98010 -143385 M 98010 -153145 98410 -153545 M 98410 -153145 98010 -153545 M 98010 -160765 98410 -161165 M 98410 -160765 98010 -161165" fill="none" stroke-width="40"/><path d="M 52526.19 -165654.76 52526.19 -163654.76 53002.38 -163654.76 53288.1 -163750 53478.57 -163940.48 53573.81 -164130.95 53669.05 -164511.9 53669.05 -164797.62 53573.81 -165178.57 53478.57 -165369.05 53288.1 -165559.52 53002.38 -165654.76 52526.19 -165654.76 M 54526.19 -165654.76 54526.19 -164321.43 M 54526.19 -164702.38 54621.43 -164511.9 54716.67 -164416.67 54907.14 -164321.43 55097.62 -164321.43 M 55764.29 -165654.76 55764.29 -164321.43 M 55764.29 -163654.76 55669.05 -163750 55764.29 -163845.24 55859.52 -163750 55764.29 -163654.76 55764.29 -163845.24 M 57002.38 -165654.76 56811.9 -165559.52 56716.67 -165369.05 56716.67 -163654.76 M 58050 -165654.76 57859.52 -165559.52 57764.28 -165369.05 57764.28 -163654.76 M 60335.71 -165654.76 60335.71 -163654.76 61002.38 -165083.33 61669.05 -163654.76 61669.05 -165654.76 M 63478.57 -165654.76 63478.57 -164607.14 63383.33 -164416.67 63192.86 -164321.43 62811.9 -164321.43 62621.43 -164416.67 M 63478.57 -165559.52 63288.09 -165654.76 62811.9 -165654.76 62621.43 -165559.52 62526.19 -165369.05 62526.19 -165178.57 62621.43 -164988.09 62811.9 -164892.86 63288.09 -164892.86 63478.57 -164797.62 M 64430.95 -164321.43 64430.95 -166321.43 M 64430.95 -164416.67 64621.43 -164321.43 65002.38 -164321.43 65192.86 -164416.67 65288.09 -164511.9 65383.33 -164702.38 65383.33 -165273.81 65288.09 -165464.28 65192.86 -165559.52 65002.38 -165654.76 64621.43 -165654.76 64430.95 -165559.52 M 66240.48 -165464.28 66335.71 -165559.52 66240.48 -165654.76 66145.24 -165559.52 66240.48 -165464.28 66240.48 -165654.76 M 66240.48 -164416.67 66335.71 -164511.9 66240.48 -164607.14 66145.24 -164511.9 66240.48 -164416.67 66240.48 -164607.14" fill="none" stroke-width="200"/><path d="M 49550 -168750 49950 -169150 M 49950 -168750 49550 -169150" fill="none" stroke-width="40"/><path d="M 52907.14 -167854.76 53097.62 -167854.76 53288.1 -167950 53383.33 -168045.24 53478.57 -168235.71 53573.81 -168616.67 53573.81 -169092.86 53478.57 -169473.81 53383.33 -169664.29 53288.1 -169759.52 53097.62 -169854.76 52907.14 -169854.76 52716.67 -169759.52 52621.43 -169664.29 52526.19 -169473.81 52430.95 -169092.86 52430.95 -168616.67 52526.19 -168235.71 52621.43 -168045.24 52716.67 -167950 52907.14 -167854.76 M 54430.95 -169664.29 54526.19 -169759.52 54430.95 -169854.76 54335.71 -169759.52 54430.95 -169664.29 54430.95 -169854.76 M 56240.48 -168521.43 56240.48 -169854.76 M 55764.29 -167759.52 55288.1 -169188.1 56526.19 -169188.1 M 57669.05 -167854.76 57859.52 -167854.76 58050 -167950 58145.24 -168045.24 58240.48 -168235.71 58335.71 -168616.67 58335.71 -169092.86 58240.48 -169473.81 58145.24 -169664.29 58050 -169759.52 57859.52 -169854.76 57669.05 -169854.76 57478.57 -169759.52 57383.33 -169664.29 57288.09 -169473.81 57192.86 -169092.86 57192.86 -168616.67 57288.09 -168235.71 57383.33 -168045.24 57478.57 -167950 57669.05 -167854.76 M 59573.81 -167854.76 59764.28 -167854.76 59954.76 -167950 60050 -168045.24 60145.24 -168235.71 60240.48 -168616.67 60240.48 -169092.86 60145.24 -169473.81 60050 -169664.29 59954.76 -169759.52 59764.28 -169854.76 59573.81 -169854.76 59383.33 -169759.52 59288.09 -169664.29 59192.86 -169473.81 59097.62 -169092.86 59097.62 -168616.67 59192.86 -168235.71 59288.09 -168045.24 59383.33 -167950 59573.81 -167854.76 M 61097.62 -169854.76 61097.62 -168521.43 M 61097.62 -168711.9 61192.86 -168616.67 61383.33 -168521.43 61669.05 -168521.43 61859.52 -168616.67 61954.76 -168807.14 61954.76 -169854.76 M 61954.76 -168807.14 62050 -168616.67 62240.48 -168521.43 62526.19 -168521.43 62716.67 -168616.67 62811.9 -168807.14 62811.9 -169854.76 M 63764.28 -169854.76 63764.28 -168521.43 M 63764.28 -168711.9 63859.52 -168616.67 64050 -168521.43 64335.71 -168521.43 64526.19 -168616.67 64621.43 -168807.14 64621.43 -169854.76 M 64621.43 -168807.14 64716.67 -168616.67 64907.14 -168521.43 65192.86 -168521.43 65383.33 -168616.67 65478.57 -168807.14 65478.57 -169854.76 M 69383.33 -167759.52 67669.05 -170330.95 M 71954.76 -167854.76 72145.24 -167854.76 72335.71 -167950 72430.95 -168045.24 72526.19 -168235.71 72621.43 -168616.67 72621.43 -169092.86 72526.19 -169473.81 72430.95 -169664.29 72335.71 -169759.52 72145.24 -169854.76 71954.76 -169854.76 71764.28 -169759.52 71669.05 -169664.29 71573.81 -169473.81 71478.57 -169092.86 71478.57 -168616.67 71573.81 -168235.71 71669.05 -168045.24 71764.28 -167950 71954.76 -167854.76 M 73478.57 -169664.29 73573.81 -169759.52 73478.57 -169854.76 73383.33 -169759.52 73478.57 -169664.29 73478.57 -169854.76 M 74811.9 -167854.76 75002.38 -167854.76 75192.86 -167950 75288.09 -168045.24 75383.33 -168235.71 75478.57 -168616.67 75478.57 -169092.86 75383.33 -169473.81 75288.09 -169664.29 75192.86 -169759.52 75002.38 -169854.76 74811.9 -169854.76 74621.43 -169759.52 74526.19 -169664.29 74430.95 -169473.81 74335.71 -169092.86 74335.71 -168616.67 74430.95 -168235.71 74526.19 -168045.24 74621.43 -167950 74811.9 -167854.76 M 77383.33 -169854.76 76240.48 -169854.76 M 76811.9 -169854.76 76811.9 -167854.76 76621.43 -168140.48 76430.95 -168330.95 76240.48 -168426.19 M 79192.86 -167854.76 78240.48 -167854.76 78145.24 -168807.14 78240.48 -168711.9 78430.95 -168616.67 78907.14 -168616.67 79097.62 -168711.9 79192.86 -168807.14 79288.09 -168997.62 79288.09 -169473.81 79192.86 -169664.29 79097.62 -169759.52 78907.14 -169854.76 78430.95 -169854.76 78240.48 -169759.52 78145.24 -169664.29 M 79954.76 -167854.76 81288.09 -167854.76 80430.95 -169854.76 M 81954.76 -167854.76 81954.76 -168235.71 M 82716.67 -167854.76 82716.67 -168235.71 M 85669.05 -170616.67 85573.81 -170521.43 85383.33 -170235.71 85288.1 -170045.24 85192.86 -169759.52 85097.62 -169283.33 85097.62 -168902.38 85192.86 -168426.19 85288.1 -168140.48 85383.33 -167950 85573.81 -167664.28 85669.05 -167569.05 M 86240.48 -167854.76 87573.81 -167854.76 86716.67 -169854.76 M 88145.24 -167854.76 89383.33 -167854.76 88716.67 -168616.67 89002.38 -168616.67 89192.86 -168711.9 89288.1 -168807.14 89383.33 -168997.62 89383.33 -169473.81 89288.1 -169664.29 89192.86 -169759.52 89002.38 -169854.76 88430.95 -169854.76 88240.48 -169759.52 88145.24 -169664.29 M 91764.29 -169854.76 91764.29 -167854.76 M 92621.43 -169854.76 92621.43 -168807.14 92526.19 -168616.67 92335.71 -168521.43 92050 -168521.43 91859.52 -168616.67 91764.29 -168711.9 M 93859.52 -169854.76 93669.05 -169759.52 93573.81 -169664.29 93478.57 -169473.81 93478.57 -168902.38 93573.81 -168711.9 93669.05 -168616.67 93859.52 -168521.43 94145.24 -168521.43 94335.71 -168616.67 94430.95 -168711.9 94526.19 -168902.38 94526.19 -169473.81 94430.95 -169664.29 94335.71 -169759.52 94145.24 -169854.76 93859.52 -169854.76 M 95669.05 -169854.76 95478.57 -169759.52 95383.33 -169569.05 95383.33 -167854.76 M 97192.86 -169759.52 97002.38 -169854.76 96621.43 -169854.76 96430.95 -169759.52 96335.71 -169569.05 96335.71 -168807.14 96430.95 -168616.67 96621.43 -168521.43 97002.38 -168521.43 97192.86 -168616.67 97288.1 -168807.14 97288.1 -168997.62 96335.71 -169188.1 M 98050 -169759.52 98240.48 -169854.76 98621.43 -169854.76 98811.9 -169759.52 98907.14 -169569.05 98907.14 -169473.81 98811.9 -169283.33 98621.43 -169188.1 98335.71 -169188.1 98145.24 -169092.86 98050 -168902.38 98050 -168807.14 98145.24 -168616.67 98335.71 -168521.43 98621.43 -168521.43 98811.9 -168616.67 M 99573.81 -170616.67 99669.05 -170521.43 99859.52 -170235.71 99954.76 -170045.24 100050 -169759.52 100145.24 -169283.33 100145.24 -168902.38 100050 -168426.19 99954.76 -168140.48 99859.52 -167950 99669.05 -167664.28 99573.81 -167569.05" fill="none" stroke-width="200"/></g></svg>