<svg version="1.1" xmlns="http://www.w3.org/2000/svg" xmlns:xlink="http://www.w3.org/1999/xlink" stroke-linecap="round" stroke-linejoin="round" stroke-width="0" fill-rule="evenodd" width="45.035mm" height="42.975mm" viewBox="52875 -158250 45035 42975" id="p0nLQ2zLPIK4pwTnWwSl"><defs><rect x="-1255" y="-500" width="2510" height="1000" id="p0nLQ2zLPIK4pwTnWwSl_pad-10"/><g id="p0nLQ2zLPIK4pwTnWwSl_pad-11"><polygon points="450,-350 450,350 -450,350 -450,-350"/><circle cx="450" cy="-350" r="250"/><circle cx="450" cy="350" r="250"/><circle cx="-450" cy="350" r="250"/><circle cx="-450" cy="-350" r="250"/><polygon points="700,-350 700,350 200,350 200,-350"/><polygon points="450,100 -450,100 -450,600 450,600"/><polygon points="-200,350 -200,-350 -700,-350 -700,350"/><polygon points="-450,-600 450,-600 450,-100 -450,-100"/></g><g id="p0nLQ2zLPIK4pwTnWwSl_pad-12"><polygon points="-475,337.5 -475,-337.5 475,-337.5 475,337.5"/><circle cx="-475" cy="337.5" r="250"/><circle cx="-475" cy="-337.5" r="250"/><circle cx="475" cy="-337.5" r="250"/><circle cx="475" cy="337.5" r="250"/><polygon points="-225,337.5 -225,-337.5 -725,-337.5 -725,337.5"/><polygon points="-475,-587.5 475,-587.5 475,-87.5 -475,-87.5"/><polygon points="725,-337.5 725,337.5 225,337.5 225,-337.5"/><polygon points="475,87.5 -475,87.5 -475,587.5 475,587.5"/></g><rect x="-1500" y="-1500" width="3000" height="3000" id="p0nLQ2zLPIK4pwTnWwSl_pad-13"/><rect x="-500" y="-500" width="1000" height="1000" id="p0nLQ2zLPIK4pwTnWwSl_pad-14"/><rect x="-525" y="-1100" width="1050" height="2200" id="p0nLQ2zLPIK4pwTnWwSl_pad-15"/><g id="p0nLQ2zLPIK4pwTnWwSl_pad-16"><polygon points="-712.5,-100 712.5,-100 712.5,100 -712.5,100"/><circle cx="-712.5" cy="-100" r="100"/><circle cx="712.5" cy="-100" r="100"/><circle cx="712.5" cy="100" r="100"/><circle cx="-712.5" cy="100" r="100"/><polygon points="-712.5,-200 712.5,-200 712.5,0 -712.5,0"/><polygon points="812.5,-100 812.5,100 612.5,100 612.5,-100"/><polygon points="712.5,0 -712.5,0 -712.5,200 712.5,200"/><polygon points="-612.5,100 -612.5,-100 -812.5,-100 -812.5,100"/></g><g id="p0nLQ2zLPIK4pwTnWwSl_pad-17"><polygon points="-337.5,-475 337.5,-475 337.5,475 -337.5,475"/><circle cx="-337.5" cy="-475" r="250"/><circle cx="337.5" cy="-475" r="250"/><circle cx="337.5" cy="475" r="250"/><circle cx="-337.5" cy="475" r="250"/><polygon points="-337.5,-725 337.5,-725 337.5,-225 -337.5,-225"/><polygon points="587.5,-475 587.5,475 87.5,475 87.5,-475"/><polygon points="337.5,225 -337.5,225 -337.5,725 337.5,725"/><polygon points="-87.5,475 -87.5,-475 -587.5,-475 -587.5,475"/></g><g id="p0nLQ2zLPIK4pwTnWwSl_pad-18"><polygon points="-450,350 -450,-350 450,-350 450,350"/><circle cx="-450" cy="350" r="250"/><circle cx="-450" cy="-350" r="250"/><circle cx="450" cy="-350" r="250"/><circle cx="450" cy="350" r="250"/><polygon points="-200,350 -200,-350 -700,-350 -700,350"/><polygon points="-450,-600 450,-600 450,-100 -450,-100"/><polygon points="700,-350 700,350 200,350 200,-350"/><polygon points="450,100 -450,100 -450,600 450,600"/></g><g id="p0nLQ2zLPIK4pwTnWwSl_pad-19"><polygon points="350,450 -350,450 -350,-450 350,-450"/><circle cx="350" cy="450" r="250"/><circle cx="-350" cy="450" r="250"/><circle cx="-350" cy="-450" r="250"/><circle cx="350" cy="-450" r="250"/><polygon points="350,200 -350,200 -350,700 350,700"/><polygon points="-100,450 -100,-450 -600,-450 -600,450"/><polygon points="-350,-700 350,-700 350,-200 -350,-200"/><polygon points="600,-450 600,450 100,450 100,-450"/></g><g id="p0nLQ2zLPIK4pwTnWwSl_pad-20"><polygon points="475,-337.5 475,337.5 -475,337.5 -475,-337.5"/><circle cx="475" cy="-337.5" r="250"/><circle cx="475" cy="337.5" r="250"/><circle cx="-475" cy="337.5" r="250"/><circle cx="-475" cy="-337.5" r="250"/><polygon points="725,-337.5 725,337.5 225,337.5 225,-337.5"/><polygon points="475,87.5 -475,87.5 -475,587.5 475,587.5"/><polygon points="-225,337.5 -225,-337.5 -725,-337.5 -725,337.5"/><polygon points="-475,-587.5 475,-587.5 475,-87.5 -475,-87.5"/></g><g id="p0nLQ2zLPIK4pwTnWwSl_pad-21"><polygon points="-350,-450 350,-450 350,450 -350,450"/><circle cx="-350" cy="-450" r="250"/><circle cx="350" cy="-450" r="250"/><circle cx="350" cy="450" r="250"/><circle cx="-350" cy="450" r="250"/><polygon points="-350,-700 350,-700 350,-200 -350,-200"/><polygon points="600,-450 600,450 100,450 100,-450"/><polygon points="350,200 -350,200 -350,700 350,700"/><polygon points="-100,450 -100,-450 -600,-450 -600,450"/></g><g id="p0nLQ2zLPIK4pwTnWwSl_pad-22"><polygon points="337.5,475 -337.5,475 -337.5,-475 337.5,-475"/><circle cx="337.5" cy="475" r="250"/><circle cx="-337.5" cy="475" r="250"/><circle cx="-337.5" cy="-475" r="250"/><circle cx="337.5" cy="-475" r="250"/><polygon points="337.5,225 -337.5,225 -337.5,725 337.5,725"/><polygon points="-87.5,475 -87.5,-475 -587.5,-475 -587.5,475"/><polygon points="-337.5,-725 337.5,-725 337.5,-225 -337.5,-225"/><polygon points="587.5,-475 587.5,475 87.5,475 87.5,-475"/></g><circle cx="0" cy="0" r="1000" id="p0nLQ2zLPIK4pwTnWwSl_pad-23"/><rect x="-187.5" y="-625" width="375" height="1250" id="p0nLQ2zLPIK4pwTnWwSl_pad-24"/><rect x="-150" y="-700" width="300" height="1400" id="p0nLQ2zLPIK4pwTnWwSl_pad-25"/></defs><g transform="translate(0,-273525) scale(1,-1)" fill="currentColor" stroke="currentColor"><use xlink:href="#p0nLQ2zLPIK4pwTnWwSl_pad-10" x="96655" y="-129880"/><use xlink:href="#p0nLQ2zLPIK4pwTnWwSl_pad-10" x="93345" y="-132420"/><use xlink:href="#p0nLQ2zLPIK4pwTnWwSl_pad-10" x="96655" y="-134960"/><use xlink:href="#p0nLQ2zLPIK4pwTnWwSl_pad-10" x="93345" y="-137500"/><use xlink:href="#p0nLQ2zLPIK4pwTnWwSl_pad-10" x="96655" y="-140040"/><use xlink:href="#p0nLQ2zLPIK4pwTnWwSl_pad-10" x="93345" y="-142580"/><use xlink:href="#p0nLQ2zLPIK4pwTnWwSl_pad-10" x="96655" y="-145120"/><use xlink:href="#p0nLQ2zLPIK4pwTnWwSl_pad-11" x="65000" y="-119750"/><use xlink:href="#p0nLQ2zLPIK4pwTnWwSl_pad-11" x="65000" y="-117750"/><use xlink:href="#p0nLQ2zLPIK4pwTnWwSl_pad-12" x="87000" y="-137462.5"/><use xlink:href="#p0nLQ2zLPIK4pwTnWwSl_pad-12" x="87000" y="-139537.5"/><use xlink:href="#p0nLQ2zLPIK4pwTnWwSl_pad-13" x="67750" y="-156250"/><use xlink:href="#p0nLQ2zLPIK4pwTnWwSl_pad-11" x="73000" y="-123500"/><use xlink:href="#p0nLQ2zLPIK4pwTnWwSl_pad-11" x="73000" y="-121500"/><use xlink:href="#p0nLQ2zLPIK4pwTnWwSl_pad-14" x="73750" y="-154750"/><use xlink:href="#p0nLQ2zLPIK4pwTnWwSl_pad-15" x="72275" y="-156250"/><use xlink:href="#p0nLQ2zLPIK4pwTnWwSl_pad-14" x="73750" y="-157750"/><use xlink:href="#p0nLQ2zLPIK4pwTnWwSl_pad-15" x="75225" y="-156250"/><use xlink:href="#p0nLQ2zLPIK4pwTnWwSl_pad-14" x="93250" y="-154750"/><use xlink:href="#p0nLQ2zLPIK4pwTnWwSl_pad-15" x="91775" y="-156250"/><use xlink:href="#p0nLQ2zLPIK4pwTnWwSl_pad-14" x="93250" y="-157750"/><use xlink:href="#p0nLQ2zLPIK4pwTnWwSl_pad-15" x="94725" y="-156250"/><use xlink:href="#p0nLQ2zLPIK4pwTnWwSl_pad-16" x="60387.5" y="-126025"/><use xlink:href="#p0nLQ2zLPIK4pwTnWwSl_pad-16" x="60387.5" y="-126675"/><use xlink:href="#p0nLQ2zLPIK4pwTnWwSl_pad-16" x="60387.5" y="-127325"/><use xlink:href="#p0nLQ2zLPIK4pwTnWwSl_pad-16" x="60387.5" y="-127975"/><use xlink:href="#p0nLQ2zLPIK4pwTnWwSl_pad-16" x="64612.5" y="-127975"/><use xlink:href="#p0nLQ2zLPIK4pwTnWwSl_pad-16" x="64612.5" y="-127325"/><use xlink:href="#p0nLQ2zLPIK4pwTnWwSl_pad-16" x="64612.5" y="-126675"/><use xlink:href="#p0nLQ2zLPIK4pwTnWwSl_pad-16" x="64612.5" y="-126025"/><use xlink:href="#p0nLQ2zLPIK4pwTnWwSl_pad-17" x="60712.5" y="-153000"/><use xlink:href="#p0nLQ2zLPIK4pwTnWwSl_pad-17" x="62787.5" y="-153000"/><use xlink:href="#p0nLQ2zLPIK4pwTnWwSl_pad-18" x="90000" y="-123000"/><use xlink:href="#p0nLQ2zLPIK4pwTnWwSl_pad-18" x="90000" y="-125000"/><use xlink:href="#p0nLQ2zLPIK4pwTnWwSl_pad-17" x="89962.5" y="-116000"/><use xlink:href="#p0nLQ2zLPIK4pwTnWwSl_pad-17" x="92037.5" y="-116000"/><use xlink:href="#p0nLQ2zLPIK4pwTnWwSl_pad-19" x="57000" y="-127500"/><use xlink:href="#p0nLQ2zLPIK4pwTnWwSl_pad-19" x="55000" y="-127500"/><use xlink:href="#p0nLQ2zLPIK4pwTnWwSl_pad-12" x="89500" y="-142462.5"/><use xlink:href="#p0nLQ2zLPIK4pwTnWwSl_pad-12" x="89500" y="-144537.5"/><use xlink:href="#p0nLQ2zLPIK4pwTnWwSl_pad-20" x="77000" y="-118037.5"/><use xlink:href="#p0nLQ2zLPIK4pwTnWwSl_pad-20" x="77000" y="-115962.5"/><use xlink:href="#p0nLQ2zLPIK4pwTnWwSl_pad-14" x="80250" y="-154750"/><use xlink:href="#p0nLQ2zLPIK4pwTnWwSl_pad-15" x="78775" y="-156250"/><use xlink:href="#p0nLQ2zLPIK4pwTnWwSl_pad-14" x="80250" y="-157750"/><use xlink:href="#p0nLQ2zLPIK4pwTnWwSl_pad-15" x="81725" y="-156250"/><use xlink:href="#p0nLQ2zLPIK4pwTnWwSl_pad-16" x="81387.5" y="-119525"/><use xlink:href="#p0nLQ2zLPIK4pwTnWwSl_pad-16" x="81387.5" y="-120175"/><use xlink:href="#p0nLQ2zLPIK4pwTnWwSl_pad-16" x="81387.5" y="-120825"/><use xlink:href="#p0nLQ2zLPIK4pwTnWwSl_pad-16" x="81387.5" y="-121475"/><use xlink:href="#p0nLQ2zLPIK4pwTnWwSl_pad-16" x="85612.5" y="-121475"/><use xlink:href="#p0nLQ2zLPIK4pwTnWwSl_pad-16" x="85612.5" y="-120825"/><use xlink:href="#p0nLQ2zLPIK4pwTnWwSl_pad-16" x="85612.5" y="-120175"/><use xlink:href="#p0nLQ2zLPIK4pwTnWwSl_pad-16" x="85612.5" y="-119525"/><use xlink:href="#p0nLQ2zLPIK4pwTnWwSl_pad-14" x="86750" y="-154750"/><use xlink:href="#p0nLQ2zLPIK4pwTnWwSl_pad-15" x="85275" y="-156250"/><use xlink:href="#p0nLQ2zLPIK4pwTnWwSl_pad-14" x="86750" y="-157750"/><use xlink:href="#p0nLQ2zLPIK4pwTnWwSl_pad-15" x="88225" y="-156250"/><use xlink:href="#p0nLQ2zLPIK4pwTnWwSl_pad-21" x="90000" y="-120000"/><use xlink:href="#p0nLQ2zLPIK4pwTnWwSl_pad-21" x="92000" y="-120000"/><use xlink:href="#p0nLQ2zLPIK4pwTnWwSl_pad-22" x="55537.5" y="-120000"/><use xlink:href="#p0nLQ2zLPIK4pwTnWwSl_pad-22" x="53462.5" y="-120000"/><use xlink:href="#p0nLQ2zLPIK4pwTnWwSl_pad-21" x="58500" y="-120000"/><use xlink:href="#p0nLQ2zLPIK4pwTnWwSl_pad-21" x="60500" y="-120000"/><use xlink:href="#p0nLQ2zLPIK4pwTnWwSl_pad-21" x="85000" y="-116000"/><use xlink:href="#p0nLQ2zLPIK4pwTnWwSl_pad-21" x="87000" y="-116000"/><use xlink:href="#p0nLQ2zLPIK4pwTnWwSl_pad-10" x="61655" y="-132382.5"/><use xlink:href="#p0nLQ2zLPIK4pwTnWwSl_pad-10" x="58345" y="-134922.5"/><use xlink:href="#p0nLQ2zLPIK4pwTnWwSl_pad-10" x="61655" y="-137462.5"/><use xlink:href="#p0nLQ2zLPIK4pwTnWwSl_pad-10" x="58345" y="-140002.5"/><use xlink:href="#p0nLQ2zLPIK4pwTnWwSl_pad-10" x="61655" y="-142542.5"/><use xlink:href="#p0nLQ2zLPIK4pwTnWwSl_pad-23" x="96000" y="-124000"/><use xlink:href="#p0nLQ2zLPIK4pwTnWwSl_pad-17" x="94962.5" y="-116000"/><use xlink:href="#p0nLQ2zLPIK4pwTnWwSl_pad-17" x="97037.5" y="-116000"/><use xlink:href="#p0nLQ2zLPIK4pwTnWwSl_pad-19" x="55500" y="-116000"/><use xlink:href="#p0nLQ2zLPIK4pwTnWwSl_pad-19" x="53500" y="-116000"/><use xlink:href="#p0nLQ2zLPIK4pwTnWwSl_pad-22" x="55537.5" y="-124000"/><use xlink:href="#p0nLQ2zLPIK4pwTnWwSl_pad-22" x="53462.5" y="-124000"/><use xlink:href="#p0nLQ2zLPIK4pwTnWwSl_pad-22" x="57787.5" y="-153000"/><use xlink:href="#p0nLQ2zLPIK4pwTnWwSl_pad-22" x="55712.5" y="-153000"/><use xlink:href="#p0nLQ2zLPIK4pwTnWwSl_pad-12" x="65750" y="-149000"/><use xlink:href="#p0nLQ2zLPIK4pwTnWwSl_pad-12" x="65750" y="-151075"/><use xlink:href="#p0nLQ2zLPIK4pwTnWwSl_pad-17" x="79962.5" y="-116000"/><use xlink:href="#p0nLQ2zLPIK4pwTnWwSl_pad-17" x="82037.5" y="-116000"/><use xlink:href="#p0nLQ2zLPIK4pwTnWwSl_pad-17" x="58462.5" y="-116000"/><use xlink:href="#p0nLQ2zLPIK4pwTnWwSl_pad-17" x="60537.5" y="-116000"/><use xlink:href="#p0nLQ2zLPIK4pwTnWwSl_pad-11" x="69000" y="-123500"/><use xlink:href="#p0nLQ2zLPIK4pwTnWwSl_pad-11" x="69000" y="-121500"/><use xlink:href="#p0nLQ2zLPIK4pwTnWwSl_pad-21" x="55750" y="-149000"/><use xlink:href="#p0nLQ2zLPIK4pwTnWwSl_pad-21" x="57750" y="-149000"/><use xlink:href="#p0nLQ2zLPIK4pwTnWwSl_pad-23" x="96000" y="-121000"/><use xlink:href="#p0nLQ2zLPIK4pwTnWwSl_pad-11" x="69000" y="-118000"/><use xlink:href="#p0nLQ2zLPIK4pwTnWwSl_pad-11" x="69000" y="-116000"/><use xlink:href="#p0nLQ2zLPIK4pwTnWwSl_pad-11" x="73000" y="-118000"/><use xlink:href="#p0nLQ2zLPIK4pwTnWwSl_pad-11" x="73000" y="-116000"/><use xlink:href="#p0nLQ2zLPIK4pwTnWwSl_pad-24" x="76462.5" y="-123725"/><use xlink:href="#p0nLQ2zLPIK4pwTnWwSl_pad-25" x="77000" y="-123800"/><use xlink:href="#p0nLQ2zLPIK4pwTnWwSl_pad-24" x="77537.5" y="-123725"/><use xlink:href="#p0nLQ2zLPIK4pwTnWwSl_pad-24" x="77537.5" y="-121275"/><use xlink:href="#p0nLQ2zLPIK4pwTnWwSl_pad-25" x="77000" y="-121200"/><use xlink:href="#p0nLQ2zLPIK4pwTnWwSl_pad-24" x="76462.5" y="-121275"/><use xlink:href="#p0nLQ2zLPIK4pwTnWwSl_pad-21" x="60750" y="-149000"/><use xlink:href="#p0nLQ2zLPIK4pwTnWwSl_pad-21" x="62750" y="-149000"/></g></svg>