<svg version="1.1" xmlns="http://www.w3.org/2000/svg" xmlns:xlink="http://www.w3.org/1999/xlink" stroke-linecap="round" stroke-linejoin="round" stroke-width="0" fill-rule="evenodd" width="20mm" height="21mm" viewBox="65000 -148000 20000 21000" id="S9TBR8qXUchho6Pic_Dv"><defs><g id="S9TBR8qXUchho6Pic_Dv_pad-13"><polygon points="210,-647.5 210,647.5 -210,647.5 -210,-647.5"/><circle cx="210" cy="-647.5" r="90"/><circle cx="210" cy="647.5" r="90"/><circle cx="-210" cy="647.5" r="90"/><circle cx="-210" cy="-647.5" r="90"/><polygon points="300,-647.5 300,647.5 120,647.5 120,-647.5"/><polygon points="210,557.5 -210,557.5 -210,737.5 210,737.5"/><polygon points="-120,647.5 -120,-647.5 -300,-647.5 -300,647.5"/><polygon points="-210,-737.5 210,-737.5 210,-557.5 -210,-557.5"/></g><g id="S9TBR8qXUchho6Pic_Dv_pad-14"><polygon points="-647.5,-210 647.5,-210 647.5,210 -647.5,210"/><circle cx="-647.5" cy="-210" r="90"/><circle cx="647.5" cy="-210" r="90"/><circle cx="647.5" cy="210" r="90"/><circle cx="-647.5" cy="210" r="90"/><polygon points="-647.5,-300 647.5,-300 647.5,-120 -647.5,-120"/><polygon points="737.5,-210 737.5,210 557.5,210 557.5,-210"/><polygon points="647.5,120 -647.5,120 -647.5,300 647.5,300"/><polygon points="-557.5,210 -557.5,-210 -737.5,-210 -737.5,210"/></g><g id="S9TBR8qXUchho6Pic_Dv_pad-15"><polygon points="-210,647.5 -210,-647.5 210,-647.5 210,647.5"/><circle cx="-210" cy="647.5" r="90"/><circle cx="-210" cy="-647.5" r="90"/><circle cx="210" cy="-647.5" r="90"/><circle cx="210" cy="647.5" r="90"/><polygon points="-120,647.5 -120,-647.5 -300,-647.5 -300,647.5"/><polygon points="-210,-737.5 210,-737.5 210,-557.5 -210,-557.5"/><polygon points="300,-647.5 300,647.5 120,647.5 120,-647.5"/><polygon points="210,557.5 -210,557.5 -210,737.5 210,737.5"/></g><g id="S9TBR8qXUchho6Pic_Dv_pad-16"><polygon points="647.5,210 -647.5,210 -647.5,-210 647.5,-210"/><circle cx="647.5" cy="210" r="90"/><circle cx="-647.5" cy="210" r="90"/><circle cx="-647.5" cy="-210" r="90"/><circle cx="647.5" cy="-210" r="90"/><polygon points="647.5,120 -647.5,120 -647.5,300 647.5,300"/><polygon points="-557.5,210 -557.5,-210 -737.5,-210 -737.5,210"/><polygon points="-647.5,-300 647.5,-300 647.5,-120 -647.5,-120"/><polygon points="737.5,-210 737.5,210 557.5,210 557.5,-210"/></g><mask id="S9TBR8qXUchho6Pic_Dv_clear-1" fill="#000" stroke="#000"><g><rect x="71436.5" y="-141063.5" width="7863.5" height="7127" fill="#fff"/><path d="M 76362 -134251 76384 -134255 76394 -134257 76405 -134260 76425 -134268 76445 -134278 76463 -134290 76481 -134304 76488 -134312 76496 -134319 76510 -134337 76522 -134355 76532 -134375 76540 -134395 76543 -134406 76545 -134416 76549 -134438 76550 -134449 76550 -135950 78051 -135950 78062 -135951 78084 -135955 78094 -135957 78105 -135960 78125 -135968 78145 -135978 78163 -135990 78181 -136004 78188 -136012 78196 -136019 78210 -136037 78222 -136055 78232 -136075 78240 -136095 78243 -136106 78245 -136116 78249 -136138 78250 -136149 78250 -138832 78249 -138844 78245 -138868 78242 -138880 78239 -138891 78235 -138902 78230 -138914 78225 -138924 78219 -138935 78213 -138945 78199 -138965 78183 -138983 78165 -138999 78145 -139013 78135 -139019 78124 -139025 78114 -139030 78102 -139035 78091 -139039 78080 -139042 78068 -139045 78044 -139049 78032 -139050 76550 -139050 76550 -140551 76549 -140562 76545 -140584 76543 -140594 76540 -140605 76532 -140625 76522 -140645 76510 -140663 76496 -140681 76488 -140688 76481 -140696 76463 -140710 76445 -140722 76425 -140732 76405 -140740 76394 -140743 76384 -140745 76362 -140749 76351 -140750 73649 -140750 73638 -140749 73616 -140745 73606 -140743 73595 -140740 73575 -140732 73555 -140722 73537 -140710 73519 -140696 73512 -140688 73504 -140681 73490 -140663 73478 -140645 73468 -140625 73460 -140605 73457 -140594 73455 -140584 73451 -140562 73450 -140551 73450 -139050 71958 -139050 71947 -139049 71936 -139047 71924 -139045 71913 -139043 71891 -139035 71881 -139031 71870 -139026 71860 -139021 71850 -139015 71832 -139001 71823 -138993 71814 -138986 71807 -138977 71799 -138968 71785 -138950 71779 -138940 71774 -138930 71769 -138919 71765 -138909 71757 -138887 71755 -138876 71753 -138864 71751 -138853 71750 -138842 71750 -136149 71751 -136138 71755 -136116 71757 -136106 71760 -136095 71768 -136075 71778 -136055 71790 -136037 71804 -136019 71812 -136012 71819 -136004 71837 -135990 71855 -135978 71875 -135968 71895 -135960 71906 -135957 71916 -135955 71938 -135951 71949 -135950 73450 -135950 73450 -134458 73451 -134447 73453 -134436 73455 -134424 73457 -134413 73465 -134391 73469 -134381 73474 -134370 73479 -134360 73485 -134350 73499 -134332 73507 -134323 73514 -134314 73523 -134307 73532 -134299 73550 -134285 73560 -134279 73570 -134274 73581 -134269 73591 -134265 73613 -134257 73624 -134255 73636 -134253 73647 -134251 73658 -134250 76351 -134250 76362 -134251"/><path d="M 76362 -134251 76384 -134255 76394 -134257 76405 -134260 76425 -134268 76445 -134278 76463 -134290 76481 -134304 76488 -134312 76496 -134319 76510 -134337 76522 -134355 76532 -134375 76540 -134395 76543 -134406 76545 -134416 76549 -134438 76550 -134449 76550 -135950 78051 -135950 78062 -135951 78084 -135955 78094 -135957 78105 -135960 78125 -135968 78145 -135978 78163 -135990 78181 -136004 78188 -136012 78196 -136019 78210 -136037 78222 -136055 78232 -136075 78240 -136095 78243 -136106 78245 -136116 78249 -136138 78250 -136149 78250 -138832 78249 -138844 78245 -138868 78242 -138880 78239 -138891 78235 -138902 78230 -138914 78225 -138924 78219 -138935 78213 -138945 78199 -138965 78183 -138983 78165 -138999 78145 -139013 78135 -139019 78124 -139025 78114 -139030 78102 -139035 78091 -139039 78080 -139042 78068 -139045 78044 -139049 78032 -139050 76550 -139050 76550 -140551 76549 -140562 76545 -140584 76543 -140594 76540 -140605 76532 -140625 76522 -140645 76510 -140663 76496 -140681 76488 -140688 76481 -140696 76463 -140710 76445 -140722 76425 -140732 76405 -140740 76394 -140743 76384 -140745 76362 -140749 76351 -140750 73649 -140750 73638 -140749 73616 -140745 73606 -140743 73595 -140740 73575 -140732 73555 -140722 73537 -140710 73519 -140696 73512 -140688 73504 -140681 73490 -140663 73478 -140645 73468 -140625 73460 -140605 73457 -140594 73455 -140584 73451 -140562 73450 -140551 73450 -139050 71958 -139050 71947 -139049 71936 -139047 71924 -139045 71913 -139043 71891 -139035 71881 -139031 71870 -139026 71860 -139021 71850 -139015 71832 -139001 71823 -138993 71814 -138986 71807 -138977 71799 -138968 71785 -138950 71779 -138940 71774 -138930 71769 -138919 71765 -138909 71757 -138887 71755 -138876 71753 -138864 71751 -138853 71750 -138842 71750 -136149 71751 -136138 71755 -136116 71757 -136106 71760 -136095 71768 -136075 71778 -136055 71790 -136037 71804 -136019 71812 -136012 71819 -136004 71837 -135990 71855 -135978 71875 -135968 71895 -135960 71906 -135957 71916 -135955 71938 -135951 71949 -135950 73450 -135950 73450 -134458 73451 -134447 73453 -134436 73455 -134424 73457 -134413 73465 -134391 73469 -134381 73474 -134370 73479 -134360 73485 -134350 73499 -134332 73507 -134323 73514 -134314 73523 -134307 73532 -134299 73550 -134285 73560 -134279 73570 -134274 73581 -134269 73591 -134265 73613 -134257 73624 -134255 73636 -134253 73647 -134251 73658 -134250 76351 -134250 76362 -134251" fill="none" stroke-width="0.1"/><use xlink:href="#S9TBR8qXUchho6Pic_Dv_pad-13" x="77850" y="-140687.5"/><use xlink:href="#S9TBR8qXUchho6Pic_Dv_pad-14" x="71812.5" y="-140350"/><use xlink:href="#S9TBR8qXUchho6Pic_Dv_pad-15" x="72150" y="-134312.5"/><use xlink:href="#S9TBR8qXUchho6Pic_Dv_pad-16" x="78187.5" y="-134650"/><path d="M 79431.68 -127000.12 79859.215 -127018.787 79870.165 -127019.745 80291.719 -127075.243 80302.545 -127077.152 80717.658 -127169.181 80728.275 -127172.026 81133.782 -127299.881 81144.111 -127303.64 81536.947 -127466.358 81546.909 -127471.004 81924.049 -127667.331 81933.569 -127672.827 82292.169 -127901.281 82301.173 -127907.585 82638.511 -128166.433 82646.931 -128173.499 82962.446 -128462.615 82966.417 -128466.417 83533.583 -129033.583 83537.385 -129037.554 83826.501 -129353.069 83833.567 -129361.489 84092.415 -129698.827 84098.719 -129707.831 84327.173 -130066.431 84332.669 -130075.951 84528.996 -130453.091 84533.642 -130463.053 84696.36 -130855.889 84700.119 -130866.218 84827.974 -131271.725 84830.819 -131282.342 84922.848 -131697.455 84924.757 -131708.281 84980.255 -132129.835 84981.213 -132140.785 84999.88 -132568.32 85000 -132573.816 85000 -142426.184 84999.88 -142431.68 84981.213 -142859.215 84980.255 -142870.165 84924.757 -143291.719 84922.848 -143302.545 84830.819 -143717.658 84827.974 -143728.275 84700.119 -144133.782 84696.36 -144144.111 84533.642 -144536.947 84528.996 -144546.909 84332.669 -144924.049 84327.173 -144933.569 84098.719 -145292.169 84092.415 -145301.173 83833.567 -145638.511 83826.501 -145646.931 83537.385 -145962.446 83533.583 -145966.417 82966.417 -146533.583 82962.446 -146537.385 82646.931 -146826.501 82638.511 -146833.567 82301.173 -147092.415 82292.169 -147098.719 81933.569 -147327.173 81924.049 -147332.669 81546.909 -147528.996 81536.947 -147533.642 81144.111 -147696.36 81133.782 -147700.119 80728.275 -147827.974 80717.658 -147830.819 80302.545 -147922.848 80291.719 -147924.757 79870.165 -147980.255 79859.215 -147981.213 79431.68 -147999.88 79426.184 -148000 70573.816 -148000 70568.32 -147999.88 70140.785 -147981.213 70129.835 -147980.255 69708.281 -147924.757 69697.455 -147922.848 69282.342 -147830.819 69271.725 -147827.974 68866.218 -147700.119 68855.889 -147696.36 68463.053 -147533.642 68453.091 -147528.996 68075.951 -147332.669 68066.431 -147327.173 67707.831 -147098.719 67698.827 -147092.415 67361.489 -146833.567 67353.069 -146826.501 67037.554 -146537.385 67033.583 -146533.583 66466.417 -145966.417 66462.615 -145962.446 66173.499 -145646.931 66166.433 -145638.511 65907.585 -145301.173 65901.281 -145292.169 65672.827 -144933.569 65667.331 -144924.049 65471.004 -144546.909 65466.358 -144536.947 65303.64 -144144.111 65299.881 -144133.782 65172.026 -143728.275 65169.181 -143717.658 65077.152 -143302.545 65075.243 -143291.719 65019.745 -142870.165 65018.787 -142859.215 65000.12 -142431.68 65000 -142426.184 65000 -140778.852 70400 -140778.852 70400.765 -140788.635 70419.684 -140908.821 70425.667 -140927.355 70478.366 -141031.514 70489.753 -141047.313 70571.901 -141130.244 70587.595 -141141.783 70695.623 -141197.733 70704.674 -141201.558 70886.316 -141262.105 70921.11 -141280.125 70941.039 -141294.778 70986.307 -141357.584 70999.221 -141397.587 71000.97 -141402.342 71022.356 -141453.972 71039.129 -141474.787 71088.534 -141495.251 71112.41 -141500 76687.59 -141500 76712.171 -141502.421 76790.223 -141517.946 76835.645 -141536.76 76891.294 -141573.944 76926.056 -141608.706 76963.24 -141664.355 76982.054 -141709.777 77020.415 -141902.633 77029.731 -141925.124 77080.975 -142001.816 77098.184 -142019.025 77174.876 -142070.269 77197.367 -142079.585 77293.932 -142098.793 77306.187 -142100 78493.813 -142100 78506.068 -142098.793 78602.633 -142079.585 78625.124 -142070.269 78701.816 -142019.025 78719.025 -142001.816 78770.269 -141925.124 78779.585 -141902.633 78798.793 -141806.068 78800 -141793.813 78800 -141625.611 78820.002 -141557.49 78877.783 -141509.202 78953.973 -141477.644 78974.787 -141460.871 78995.251 -141411.466 79000 -141387.59 79000 -141035.265 79002.139 -141012.146 79020.045 -140916.212 79036.724 -140873.089 79081.796 -140800.161 79112.908 -140765.958 79190.705 -140707.04 79210.43 -140694.785 79215.913 -140692.044 79225.752 -140685.931 79306.486 -140624.789 79321.911 -140607.832 79372.081 -140526.654 79380.352 -140505.271 79397.861 -140411.46 79397.861 -140388.54 79380.352 -140294.729 79372.081 -140273.346 79321.911 -140192.168 79306.486 -140175.211 79225.752 -140114.069 79215.913 -140107.956 79210.43 -140105.215 79190.705 -140092.96 79112.908 -140034.042 79081.796 -139999.839 79036.724 -139926.911 79020.045 -139883.788 79002.139 -139787.854 79000 -139764.735 79000 -135826.082 79001.533 -135806.489 79018.133 -135701.033 79030.171 -135663.743 79073.862 -135577.388 79096.774 -135545.599 79164.882 -135476.842 79196.452 -135453.63 79412.405 -135341.783 79428.099 -135330.244 79510.247 -135247.313 79521.634 -135231.514 79574.333 -135127.355 79580.316 -135108.821 79599.235 -134988.635 79600 -134978.852 79600 -134221.148 79599.235 -134211.365 79580.316 -134091.179 79574.333 -134072.645 79521.634 -133968.486 79510.247 -133952.687 79428.099 -133869.756 79412.405 -133858.217 79304.377 -133802.267 79295.326 -133798.442 79113.684 -133737.895 79078.89 -133719.875 79058.961 -133705.222 79013.693 -133642.416 79000.779 -133602.413 78999.03 -133597.658 78977.644 -133546.028 78960.871 -133525.213 78911.466 -133504.749 78887.59 -133500 73326.082 -133500 73306.489 -133498.467 73201.033 -133481.867 73163.743 -133469.829 73077.388 -133426.138 73045.599 -133403.226 72976.842 -133335.118 72953.63 -133303.548 72841.783 -133087.595 72830.244 -133071.901 72747.313 -132989.753 72731.514 -132978.366 72627.355 -132925.667 72608.821 -132919.684 72488.635 -132900.765 72478.852 -132900 71721.148 -132900 71711.365 -132900.765 71591.179 -132919.684 71572.645 -132925.667 71468.486 -132978.366 71452.687 -132989.753 71369.756 -133071.901 71358.217 -133087.595 71302.267 -133195.623 71298.442 -133204.674 71237.895 -133386.316 71219.875 -133421.11 71205.222 -133441.039 71142.416 -133486.307 71102.413 -133499.221 71097.658 -133500.97 71046.028 -133522.356 71025.213 -133539.129 71004.749 -133588.534 71000 -133612.41 71000 -139173.918 70998.467 -139193.511 70981.867 -139298.967 70969.829 -139336.257 70926.138 -139422.612 70903.226 -139454.401 70835.118 -139523.158 70803.548 -139546.37 70587.595 -139658.217 70571.901 -139669.756 70489.753 -139752.687 70478.366 -139768.486 70425.667 -139872.645 70419.684 -139891.179 70400.765 -140011.365 70400 -140021.148 70400 -140778.852 65000 -140778.852 65000 -132573.816 65000.12 -132568.32 65018.787 -132140.785 65019.745 -132129.835 65075.243 -131708.281 65077.152 -131697.455 65169.181 -131282.342 65172.026 -131271.725 65299.881 -130866.218 65303.64 -130855.889 65466.358 -130463.053 65471.004 -130453.091 65667.331 -130075.951 65672.827 -130066.431 65901.281 -129707.831 65907.585 -129698.827 66166.433 -129361.489 66173.499 -129353.069 66462.615 -129037.554 66466.417 -129033.583 67033.583 -128466.417 67037.554 -128462.615 67353.069 -128173.499 67361.489 -128166.433 67698.827 -127907.585 67707.831 -127901.281 68066.431 -127672.827 68075.951 -127667.331 68453.091 -127471.004 68463.053 -127466.358 68855.889 -127303.64 68866.218 -127299.881 69271.725 -127172.026 69282.342 -127169.181 69697.455 -127077.152 69708.281 -127075.243 70129.835 -127019.745 70140.785 -127018.787 70568.32 -127000.12 70573.816 -127000 79426.184 -127000 79431.68 -127000.12"/></g></mask></defs><g transform="translate(0,-275000) scale(1,-1)" fill="currentColor" stroke="currentColor"><g mask="url(#S9TBR8qXUchho6Pic_Dv_clear-1)"><path d="M 77230 -141000 71500 -141000 M 78500 -134000 72770 -134000 M 78500 -135270 78500 -141000 M 71500 -134000 71500 -139730" fill="none" stroke-width="127"/><path d="M 79200 -140400 A 100 100 0 0 1 79000 -140400 100 100 0 0 1 79200 -140400" fill="none" stroke-width="200"/></g></g></svg>