<svg version="1.1" xmlns="http://www.w3.org/2000/svg" xmlns:xlink="http://www.w3.org/1999/xlink" stroke-linecap="round" stroke-linejoin="round" stroke-width="0" fill-rule="evenodd" width="46.45mm" height="48.057142999999996mm" viewBox="52686.904 -161636.904 46450 48057.143" id="h5ua9SQcI19rIVxq4_Xe"><defs><rect x="-1255" y="-500" width="2510" height="1000" id="h5ua9SQcI19rIVxq4_Xe_pad-12"/><g id="h5ua9SQcI19rIVxq4_Xe_pad-13"><polygon points="450,-350 450,350 -450,350 -450,-350"/><circle cx="450" cy="-350" r="250"/><circle cx="450" cy="350" r="250"/><circle cx="-450" cy="350" r="250"/><circle cx="-450" cy="-350" r="250"/><polygon points="700,-350 700,350 200,350 200,-350"/><polygon points="450,100 -450,100 -450,600 450,600"/><polygon points="-200,350 -200,-350 -700,-350 -700,350"/><polygon points="-450,-600 450,-600 450,-100 -450,-100"/></g><g id="h5ua9SQcI19rIVxq4_Xe_pad-14"><polygon points="-475,337.5 -475,-337.5 475,-337.5 475,337.5"/><circle cx="-475" cy="337.5" r="250"/><circle cx="-475" cy="-337.5" r="250"/><circle cx="475" cy="-337.5" r="250"/><circle cx="475" cy="337.5" r="250"/><polygon points="-225,337.5 -225,-337.5 -725,-337.5 -725,337.5"/><polygon points="-475,-587.5 475,-587.5 475,-87.5 -475,-87.5"/><polygon points="725,-337.5 725,337.5 225,337.5 225,-337.5"/><polygon points="475,87.5 -475,87.5 -475,587.5 475,587.5"/></g><rect x="-1500" y="-1500" width="3000" height="3000" id="h5ua9SQcI19rIVxq4_Xe_pad-15"/><rect x="-500" y="-500" width="1000" height="1000" id="h5ua9SQcI19rIVxq4_Xe_pad-16"/><rect x="-525" y="-1100" width="1050" height="2200" id="h5ua9SQcI19rIVxq4_Xe_pad-17"/><g id="h5ua9SQcI19rIVxq4_Xe_pad-18"><polygon points="-712.5,-100 712.5,-100 712.5,100 -712.5,100"/><circle cx="-712.5" cy="-100" r="100"/><circle cx="712.5" cy="-100" r="100"/><circle cx="712.5" cy="100" r="100"/><circle cx="-712.5" cy="100" r="100"/><polygon points="-712.5,-200 712.5,-200 712.5,0 -712.5,0"/><polygon points="812.5,-100 812.5,100 612.5,100 612.5,-100"/><polygon points="712.5,0 -712.5,0 -712.5,200 712.5,200"/><polygon points="-612.5,100 -612.5,-100 -812.5,-100 -812.5,100"/></g><g id="h5ua9SQcI19rIVxq4_Xe_pad-19"><polygon points="-337.5,-475 337.5,-475 337.5,475 -337.5,475"/><circle cx="-337.5" cy="-475" r="250"/><circle cx="337.5" cy="-475" r="250"/><circle cx="337.5" cy="475" r="250"/><circle cx="-337.5" cy="475" r="250"/><polygon points="-337.5,-725 337.5,-725 337.5,-225 -337.5,-225"/><polygon points="587.5,-475 587.5,475 87.5,475 87.5,-475"/><polygon points="337.5,225 -337.5,225 -337.5,725 337.5,725"/><polygon points="-87.5,475 -87.5,-475 -587.5,-475 -587.5,475"/></g><g id="h5ua9SQcI19rIVxq4_Xe_pad-20"><polygon points="-450,350 -450,-350 450,-350 450,350"/><circle cx="-450" cy="350" r="250"/><circle cx="-450" cy="-350" r="250"/><circle cx="450" cy="-350" r="250"/><circle cx="450" cy="350" r="250"/><polygon points="-200,350 -200,-350 -700,-350 -700,350"/><polygon points="-450,-600 450,-600 450,-100 -450,-100"/><polygon points="700,-350 700,350 200,350 200,-350"/><polygon points="450,100 -450,100 -450,600 450,600"/></g><g id="h5ua9SQcI19rIVxq4_Xe_pad-21"><polygon points="350,450 -350,450 -350,-450 350,-450"/><circle cx="350" cy="450" r="250"/><circle cx="-350" cy="450" r="250"/><circle cx="-350" cy="-450" r="250"/><circle cx="350" cy="-450" r="250"/><polygon points="350,200 -350,200 -350,700 350,700"/><polygon points="-100,450 -100,-450 -600,-450 -600,450"/><polygon points="-350,-700 350,-700 350,-200 -350,-200"/><polygon points="600,-450 600,450 100,450 100,-450"/></g><g id="h5ua9SQcI19rIVxq4_Xe_pad-22"><polygon points="475,-337.5 475,337.5 -475,337.5 -475,-337.5"/><circle cx="475" cy="-337.5" r="250"/><circle cx="475" cy="337.5" r="250"/><circle cx="-475" cy="337.5" r="250"/><circle cx="-475" cy="-337.5" r="250"/><polygon points="725,-337.5 725,337.5 225,337.5 225,-337.5"/><polygon points="475,87.5 -475,87.5 -475,587.5 475,587.5"/><polygon points="-225,337.5 -225,-337.5 -725,-337.5 -725,337.5"/><polygon points="-475,-587.5 475,-587.5 475,-87.5 -475,-87.5"/></g><g id="h5ua9SQcI19rIVxq4_Xe_pad-23"><polygon points="-350,-450 350,-450 350,450 -350,450"/><circle cx="-350" cy="-450" r="250"/><circle cx="350" cy="-450" r="250"/><circle cx="350" cy="450" r="250"/><circle cx="-350" cy="450" r="250"/><polygon points="-350,-700 350,-700 350,-200 -350,-200"/><polygon points="600,-450 600,450 100,450 100,-450"/><polygon points="350,200 -350,200 -350,700 350,700"/><polygon points="-100,450 -100,-450 -600,-450 -600,450"/></g><g id="h5ua9SQcI19rIVxq4_Xe_pad-24"><polygon points="337.5,475 -337.5,475 -337.5,-475 337.5,-475"/><circle cx="337.5" cy="475" r="250"/><circle cx="-337.5" cy="475" r="250"/><circle cx="-337.5" cy="-475" r="250"/><circle cx="337.5" cy="-475" r="250"/><polygon points="337.5,225 -337.5,225 -337.5,725 337.5,725"/><polygon points="-87.5,475 -87.5,-475 -587.5,-475 -587.5,475"/><polygon points="-337.5,-725 337.5,-725 337.5,-225 -337.5,-225"/><polygon points="587.5,-475 587.5,475 87.5,475 87.5,-475"/></g><circle cx="0" cy="0" r="1000" id="h5ua9SQcI19rIVxq4_Xe_pad-25"/><rect x="-187.5" y="-625" width="375" height="1250" id="h5ua9SQcI19rIVxq4_Xe_pad-26"/><rect x="-150" y="-700" width="300" height="1400" id="h5ua9SQcI19rIVxq4_Xe_pad-27"/><mask id="h5ua9SQcI19rIVxq4_Xe_clear-1" fill="#000" stroke="#000"><g><rect x="52686.904" y="-161636.904" width="46450" height="48057.143" fill="#fff"/><use xlink:href="#h5ua9SQcI19rIVxq4_Xe_pad-12" x="96655" y="-129880"/><use xlink:href="#h5ua9SQcI19rIVxq4_Xe_pad-12" x="93345" y="-132420"/><use xlink:href="#h5ua9SQcI19rIVxq4_Xe_pad-12" x="96655" y="-134960"/><use xlink:href="#h5ua9SQcI19rIVxq4_Xe_pad-12" x="93345" y="-137500"/><use xlink:href="#h5ua9SQcI19rIVxq4_Xe_pad-12" x="96655" y="-140040"/><use xlink:href="#h5ua9SQcI19rIVxq4_Xe_pad-12" x="93345" y="-142580"/><use xlink:href="#h5ua9SQcI19rIVxq4_Xe_pad-12" x="96655" y="-145120"/><use xlink:href="#h5ua9SQcI19rIVxq4_Xe_pad-13" x="65000" y="-119750"/><use xlink:href="#h5ua9SQcI19rIVxq4_Xe_pad-13" x="65000" y="-117750"/><use xlink:href="#h5ua9SQcI19rIVxq4_Xe_pad-14" x="87000" y="-137462.5"/><use xlink:href="#h5ua9SQcI19rIVxq4_Xe_pad-14" x="87000" y="-139537.5"/><use xlink:href="#h5ua9SQcI19rIVxq4_Xe_pad-15" x="67750" y="-156250"/><use xlink:href="#h5ua9SQcI19rIVxq4_Xe_pad-13" x="73000" y="-123500"/><use xlink:href="#h5ua9SQcI19rIVxq4_Xe_pad-13" x="73000" y="-121500"/><use xlink:href="#h5ua9SQcI19rIVxq4_Xe_pad-16" x="73750" y="-154750"/><use xlink:href="#h5ua9SQcI19rIVxq4_Xe_pad-17" x="72275" y="-156250"/><use xlink:href="#h5ua9SQcI19rIVxq4_Xe_pad-16" x="73750" y="-157750"/><use xlink:href="#h5ua9SQcI19rIVxq4_Xe_pad-17" x="75225" y="-156250"/><use xlink:href="#h5ua9SQcI19rIVxq4_Xe_pad-16" x="93250" y="-154750"/><use xlink:href="#h5ua9SQcI19rIVxq4_Xe_pad-17" x="91775" y="-156250"/><use xlink:href="#h5ua9SQcI19rIVxq4_Xe_pad-16" x="93250" y="-157750"/><use xlink:href="#h5ua9SQcI19rIVxq4_Xe_pad-17" x="94725" y="-156250"/><use xlink:href="#h5ua9SQcI19rIVxq4_Xe_pad-18" x="60387.5" y="-126025"/><use xlink:href="#h5ua9SQcI19rIVxq4_Xe_pad-18" x="60387.5" y="-126675"/><use xlink:href="#h5ua9SQcI19rIVxq4_Xe_pad-18" x="60387.5" y="-127325"/><use xlink:href="#h5ua9SQcI19rIVxq4_Xe_pad-18" x="60387.5" y="-127975"/><use xlink:href="#h5ua9SQcI19rIVxq4_Xe_pad-18" x="64612.5" y="-127975"/><use xlink:href="#h5ua9SQcI19rIVxq4_Xe_pad-18" x="64612.5" y="-127325"/><use xlink:href="#h5ua9SQcI19rIVxq4_Xe_pad-18" x="64612.5" y="-126675"/><use xlink:href="#h5ua9SQcI19rIVxq4_Xe_pad-18" x="64612.5" y="-126025"/><use xlink:href="#h5ua9SQcI19rIVxq4_Xe_pad-19" x="60712.5" y="-153000"/><use xlink:href="#h5ua9SQcI19rIVxq4_Xe_pad-19" x="62787.5" y="-153000"/><use xlink:href="#h5ua9SQcI19rIVxq4_Xe_pad-20" x="90000" y="-123000"/><use xlink:href="#h5ua9SQcI19rIVxq4_Xe_pad-20" x="90000" y="-125000"/><use xlink:href="#h5ua9SQcI19rIVxq4_Xe_pad-19" x="89962.5" y="-116000"/><use xlink:href="#h5ua9SQcI19rIVxq4_Xe_pad-19" x="92037.5" y="-116000"/><use xlink:href="#h5ua9SQcI19rIVxq4_Xe_pad-21" x="57000" y="-127500"/><use xlink:href="#h5ua9SQcI19rIVxq4_Xe_pad-21" x="55000" y="-127500"/><use xlink:href="#h5ua9SQcI19rIVxq4_Xe_pad-14" x="89500" y="-142462.5"/><use xlink:href="#h5ua9SQcI19rIVxq4_Xe_pad-14" x="89500" y="-144537.5"/><use xlink:href="#h5ua9SQcI19rIVxq4_Xe_pad-22" x="77000" y="-118037.5"/><use xlink:href="#h5ua9SQcI19rIVxq4_Xe_pad-22" x="77000" y="-115962.5"/><use xlink:href="#h5ua9SQcI19rIVxq4_Xe_pad-16" x="80250" y="-154750"/><use xlink:href="#h5ua9SQcI19rIVxq4_Xe_pad-17" x="78775" y="-156250"/><use xlink:href="#h5ua9SQcI19rIVxq4_Xe_pad-16" x="80250" y="-157750"/><use xlink:href="#h5ua9SQcI19rIVxq4_Xe_pad-17" x="81725" y="-156250"/><use xlink:href="#h5ua9SQcI19rIVxq4_Xe_pad-18" x="81387.5" y="-119525"/><use xlink:href="#h5ua9SQcI19rIVxq4_Xe_pad-18" x="81387.5" y="-120175"/><use xlink:href="#h5ua9SQcI19rIVxq4_Xe_pad-18" x="81387.5" y="-120825"/><use xlink:href="#h5ua9SQcI19rIVxq4_Xe_pad-18" x="81387.5" y="-121475"/><use xlink:href="#h5ua9SQcI19rIVxq4_Xe_pad-18" x="85612.5" y="-121475"/><use xlink:href="#h5ua9SQcI19rIVxq4_Xe_pad-18" x="85612.5" y="-120825"/><use xlink:href="#h5ua9SQcI19rIVxq4_Xe_pad-18" x="85612.5" y="-120175"/><use xlink:href="#h5ua9SQcI19rIVxq4_Xe_pad-18" x="85612.5" y="-119525"/><use xlink:href="#h5ua9SQcI19rIVxq4_Xe_pad-16" x="86750" y="-154750"/><use xlink:href="#h5ua9SQcI19rIVxq4_Xe_pad-17" x="85275" y="-156250"/><use xlink:href="#h5ua9SQcI19rIVxq4_Xe_pad-16" x="86750" y="-157750"/><use xlink:href="#h5ua9SQcI19rIVxq4_Xe_pad-17" x="88225" y="-156250"/><use xlink:href="#h5ua9SQcI19rIVxq4_Xe_pad-23" x="90000" y="-120000"/><use xlink:href="#h5ua9SQcI19rIVxq4_Xe_pad-23" x="92000" y="-120000"/><use xlink:href="#h5ua9SQcI19rIVxq4_Xe_pad-24" x="55537.5" y="-120000"/><use xlink:href="#h5ua9SQcI19rIVxq4_Xe_pad-24" x="53462.5" y="-120000"/><use xlink:href="#h5ua9SQcI19rIVxq4_Xe_pad-23" x="58500" y="-120000"/><use xlink:href="#h5ua9SQcI19rIVxq4_Xe_pad-23" x="60500" y="-120000"/><use xlink:href="#h5ua9SQcI19rIVxq4_Xe_pad-23" x="85000" y="-116000"/><use xlink:href="#h5ua9SQcI19rIVxq4_Xe_pad-23" x="87000" y="-116000"/><use xlink:href="#h5ua9SQcI19rIVxq4_Xe_pad-12" x="61655" y="-132382.5"/><use xlink:href="#h5ua9SQcI19rIVxq4_Xe_pad-12" x="58345" y="-134922.5"/><use xlink:href="#h5ua9SQcI19rIVxq4_Xe_pad-12" x="61655" y="-137462.5"/><use xlink:href="#h5ua9SQcI19rIVxq4_Xe_pad-12" x="58345" y="-140002.5"/><use xlink:href="#h5ua9SQcI19rIVxq4_Xe_pad-12" x="61655" y="-142542.5"/><use xlink:href="#h5ua9SQcI19rIVxq4_Xe_pad-25" x="96000" y="-124000"/><use xlink:href="#h5ua9SQcI19rIVxq4_Xe_pad-19" x="94962.5" y="-116000"/><use xlink:href="#h5ua9SQcI19rIVxq4_Xe_pad-19" x="97037.5" y="-116000"/><use xlink:href="#h5ua9SQcI19rIVxq4_Xe_pad-21" x="55500" y="-116000"/><use xlink:href="#h5ua9SQcI19rIVxq4_Xe_pad-21" x="53500" y="-116000"/><use xlink:href="#h5ua9SQcI19rIVxq4_Xe_pad-24" x="55537.5" y="-124000"/><use xlink:href="#h5ua9SQcI19rIVxq4_Xe_pad-24" x="53462.5" y="-124000"/><use xlink:href="#h5ua9SQcI19rIVxq4_Xe_pad-24" x="57787.5" y="-153000"/><use xlink:href="#h5ua9SQcI19rIVxq4_Xe_pad-24" x="55712.5" y="-153000"/><use xlink:href="#h5ua9SQcI19rIVxq4_Xe_pad-14" x="65750" y="-149000"/><use xlink:href="#h5ua9SQcI19rIVxq4_Xe_pad-14" x="65750" y="-151075"/><use xlink:href="#h5ua9SQcI19rIVxq4_Xe_pad-19" x="79962.5" y="-116000"/><use xlink:href="#h5ua9SQcI19rIVxq4_Xe_pad-19" x="82037.5" y="-116000"/><use xlink:href="#h5ua9SQcI19rIVxq4_Xe_pad-19" x="58462.5" y="-116000"/><use xlink:href="#h5ua9SQcI19rIVxq4_Xe_pad-19" x="60537.5" y="-116000"/><use xlink:href="#h5ua9SQcI19rIVxq4_Xe_pad-13" x="69000" y="-123500"/><use xlink:href="#h5ua9SQcI19rIVxq4_Xe_pad-13" x="69000" y="-121500"/><use xlink:href="#h5ua9SQcI19rIVxq4_Xe_pad-23" x="55750" y="-149000"/><use xlink:href="#h5ua9SQcI19rIVxq4_Xe_pad-23" x="57750" y="-149000"/><use xlink:href="#h5ua9SQcI19rIVxq4_Xe_pad-25" x="96000" y="-121000"/><use xlink:href="#h5ua9SQcI19rIVxq4_Xe_pad-13" x="69000" y="-118000"/><use xlink:href="#h5ua9SQcI19rIVxq4_Xe_pad-13" x="69000" y="-116000"/><use xlink:href="#h5ua9SQcI19rIVxq4_Xe_pad-13" x="73000" y="-118000"/><use xlink:href="#h5ua9SQcI19rIVxq4_Xe_pad-13" x="73000" y="-116000"/><use xlink:href="#h5ua9SQcI19rIVxq4_Xe_pad-26" x="76462.5" y="-123725"/><use xlink:href="#h5ua9SQcI19rIVxq4_Xe_pad-27" x="77000" y="-123800"/><use xlink:href="#h5ua9SQcI19rIVxq4_Xe_pad-26" x="77537.5" y="-123725"/><use xlink:href="#h5ua9SQcI19rIVxq4_Xe_pad-26" x="77537.5" y="-121275"/><use xlink:href="#h5ua9SQcI19rIVxq4_Xe_pad-27" x="77000" y="-121200"/><use xlink:href="#h5ua9SQcI19rIVxq4_Xe_pad-26" x="76462.5" y="-121275"/><use xlink:href="#h5ua9SQcI19rIVxq4_Xe_pad-23" x="60750" y="-149000"/><use xlink:href="#h5ua9SQcI19rIVxq4_Xe_pad-23" x="62750" y="-149000"/></g></mask></defs><g transform="translate(0,-275216.66500000004) scale(1,-1)" fill="currentColor" stroke="currentColor"><g mask="url(#h5ua9SQcI19rIVxq4_Xe_clear-1)"><path d="M 91226.19 -161452.38 91226.19 -160452.38 91607.142 -160452.38 91702.38 -160500 91750 -160547.619 91797.619 -160642.857 91797.619 -160785.714 91750 -160880.952 91702.38 -160928.571 91607.142 -160976.19 91226.19 -160976.19 M 92226.19 -160928.571 92559.523 -160928.571 M 92702.38 -161452.38 92226.19 -161452.38 92226.19 -160452.38 92702.38 -160452.38 M 93083.333 -161166.666 93559.523 -161166.666 M 92988.095 -161452.38 93321.428 -160452.38 93654.761 -161452.38 M 93988.095 -161452.38 93988.095 -160452.38 M 94559.523 -161452.38 94130.952 -160880.952 M 94559.523 -160452.38 93988.095 -161023.809 M 94902.38 -160838.095 94940.476 -160800 95016.666 -160761.904 95207.142 -160761.904 95283.333 -160800 95321.428 -160838.095 95359.523 -160914.285 95359.523 -160990.476 95321.428 -161104.761 94864.285 -161561.904 95359.523 -161561.904 M 79440.476 -160928.571 79107.142 -160928.571 M 79107.142 -161452.38 79107.142 -160452.38 79583.333 -160452.38 M 80030.952 -161561.904 79954.761 -161523.809 79916.666 -161485.714 79878.571 -161409.523 79878.571 -161180.952 79916.666 -161104.761 79954.761 -161066.666 80030.952 -161028.571 80145.238 -161028.571 80221.428 -161066.666 80259.523 -161104.761 80297.619 -161180.952 80297.619 -161409.523 80259.523 -161485.714 80221.428 -161523.809 80145.238 -161561.904 80030.952 -161561.904 M 80983.333 -161028.571 80983.333 -161561.904 M 80640.476 -161028.571 80640.476 -161447.619 80678.571 -161523.809 80754.761 -161561.904 80869.047 -161561.904 80945.238 -161523.809 80983.333 -161485.714 M 81250 -161028.571 81554.761 -161028.571 M 81364.285 -160761.904 81364.285 -161447.619 81402.38 -161523.809 81478.571 -161561.904 81554.761 -161561.904 M 98666.666 -121940.476 98666.666 -121464.285 M 98952.38 -122035.714 97952.38 -121702.38 98952.38 -121369.047 M 98952.38 -121035.714 97952.38 -121035.714 98666.666 -120702.38 97952.38 -120369.047 98952.38 -120369.047 M 98952.38 -119892.857 97952.38 -119892.857 97952.38 -119511.904 98000 -119416.666 98047.619 -119369.047 98142.857 -119321.428 98285.714 -119321.428 98380.952 -119369.047 98428.571 -119416.666 98476.19 -119511.904 98476.19 -119892.857 M 98338.095 -118978.571 98300 -118940.476 98261.904 -118864.285 98261.904 -118673.809 98300 -118597.619 98338.095 -118559.523 98414.285 -118521.428 98490.476 -118521.428 98604.761 -118559.523 99061.904 -119016.666 99061.904 -118521.428 M 66988.095 -160500 66892.857 -160452.38 66750 -160452.38 66607.142 -160500 66511.904 -160595.238 66464.285 -160690.476 66416.666 -160880.952 66416.666 -161023.809 66464.285 -161214.285 66511.904 -161309.523 66607.142 -161404.761 66750 -161452.38 66845.238 -161452.38 66988.095 -161404.761 67035.714 -161357.142 67035.714 -161023.809 66845.238 -161023.809 M 67464.285 -161452.38 67464.285 -160452.38 68035.714 -161452.38 68035.714 -160452.38 M 68511.904 -161452.38 68511.904 -160452.38 68750 -160452.38 68892.857 -160500 68988.095 -160595.238 69035.714 -160690.476 69083.333 -160880.952 69083.333 -161023.809 69035.714 -161214.285 68988.095 -161309.523 68892.857 -161404.761 68750 -161452.38 68511.904 -161452.38 M 84726.19 -161452.38 84726.19 -160452.38 85107.142 -160452.38 85202.38 -160500 85250 -160547.619 85297.619 -160642.857 85297.619 -160785.714 85250 -160880.952 85202.38 -160928.571 85107.142 -160976.19 84726.19 -160976.19 M 85726.19 -160928.571 86059.523 -160928.571 M 86202.38 -161452.38 85726.19 -161452.38 85726.19 -160452.38 86202.38 -160452.38 M 86583.333 -161166.666 87059.523 -161166.666 M 86488.095 -161452.38 86821.428 -160452.38 87154.761 -161452.38 M 87488.095 -161452.38 87488.095 -160452.38 M 88059.523 -161452.38 87630.952 -160880.952 M 88059.523 -160452.38 87488.095 -161023.809 M 88859.523 -161561.904 88402.38 -161561.904 M 88630.952 -161561.904 88630.952 -160761.904 88554.761 -160876.19 88478.571 -160952.38 88402.38 -160990.476 M 98666.666 -126690.476 98666.666 -126214.285 M 98952.38 -126785.714 97952.38 -126452.38 98952.38 -126119.047 M 98952.38 -125785.714 97952.38 -125785.714 98666.666 -125452.38 97952.38 -125119.047 98952.38 -125119.047 M 98952.38 -124642.857 97952.38 -124642.857 97952.38 -124261.904 98000 -124166.666 98047.619 -124119.047 98142.857 -124071.428 98285.714 -124071.428 98380.952 -124119.047 98428.571 -124166.666 98476.19 -124261.904 98476.19 -124642.857 M 99061.904 -123271.428 99061.904 -123728.571 M 99061.904 -123500 98261.904 -123500 98376.19 -123576.19 98452.38 -123652.38 98490.476 -123728.571 M 72511.904 -161404.761 72654.761 -161452.38 72892.857 -161452.38 72988.095 -161404.761 73035.714 -161357.142 73083.333 -161261.904 73083.333 -161166.666 73035.714 -161071.428 72988.095 -161023.809 72892.857 -160976.19 72702.38 -160928.571 72607.142 -160880.952 72559.523 -160833.333 72511.904 -160738.095 72511.904 -160642.857 72559.523 -160547.619 72607.142 -160500 72702.38 -160452.38 72940.476 -160452.38 73083.333 -160500 M 73578.571 -161561.904 73502.38 -161523.809 73464.285 -161485.714 73426.19 -161409.523 73426.19 -161180.952 73464.285 -161104.761 73502.38 -161066.666 73578.571 -161028.571 73692.857 -161028.571 73769.047 -161066.666 73807.142 -161104.761 73845.238 -161180.952 73845.238 -161409.523 73807.142 -161485.714 73769.047 -161523.809 73692.857 -161561.904 73578.571 -161561.904 M 74530.952 -161028.571 74530.952 -161561.904 M 74188.095 -161028.571 74188.095 -161447.619 74226.19 -161523.809 74302.38 -161561.904 74416.666 -161561.904 74492.857 -161523.809 74530.952 -161485.714 M 74797.619 -161028.571 75102.38 -161028.571 M 74911.904 -160761.904 74911.904 -161447.619 74950 -161523.809 75026.19 -161561.904 75102.38 -161561.904 M 93714.285 -127002.38 93714.285 -127716.666 93666.666 -127859.523 93571.428 -127954.761 93428.571 -128002.38 93333.333 -128002.38 M 94714.285 -128002.38 94142.857 -128002.38 M 94428.571 -128002.38 94428.571 -127002.38 94333.333 -127145.238 94238.095 -127240.476 94142.857 -127288.095 M 95333.333 -127002.38 95428.571 -127002.38 95523.809 -127050 95571.428 -127097.619 95619.047 -127192.857 95666.666 -127383.333 95666.666 -127621.428 95619.047 -127811.904 95571.428 -127907.142 95523.809 -127954.761 95428.571 -128002.38 95333.333 -128002.38 95238.095 -127954.761 95190.476 -127907.142 95142.857 -127811.904 95095.238 -127621.428 95095.238 -127383.333 95142.857 -127192.857 95190.476 -127097.619 95238.095 -127050 95333.333 -127002.38 M 96047.619 -127097.619 96095.238 -127050 96190.476 -127002.38 96428.571 -127002.38 96523.809 -127050 96571.428 -127097.619 96619.047 -127192.857 96619.047 -127288.095 96571.428 -127430.952 96000 -128002.38 96619.047 -128002.38 M 63702.38 -119869.047 63226.19 -120202.38 M 63702.38 -120440.476 62702.38 -120440.476 62702.38 -120059.523 62750 -119964.285 62797.619 -119916.666 62892.857 -119869.047 63035.714 -119869.047 63130.952 -119916.666 63178.571 -119964.285 63226.19 -120059.523 63226.19 -120440.476 M 62702.38 -119535.714 62702.38 -118916.666 63083.333 -119250 63083.333 -119107.142 63130.952 -119011.904 63178.571 -118964.285 63273.809 -118916.666 63511.904 -118916.666 63607.142 -118964.285 63654.761 -119011.904 63702.38 -119107.142 63702.38 -119392.857 63654.761 -119488.095 63607.142 -119535.714 M 62702.38 -118297.619 62702.38 -118202.38 62750 -118107.142 62797.619 -118059.523 62892.857 -118011.904 63083.333 -117964.285 63321.428 -117964.285 63511.904 -118011.904 63607.142 -118059.523 63654.761 -118107.142 63702.38 -118202.38 63702.38 -118297.619 63654.761 -118392.857 63607.142 -118440.476 63511.904 -118488.095 63321.428 -118535.714 63083.333 -118535.714 62892.857 -118488.095 62797.619 -118440.476 62750 -118392.857 62702.38 -118297.619 M 62702.38 -117107.142 62702.38 -117297.619 62750 -117392.857 62797.619 -117440.476 62940.476 -117535.714 63130.952 -117583.333 63511.904 -117583.333 63607.142 -117535.714 63654.761 -117488.095 63702.38 -117392.857 63702.38 -117202.38 63654.761 -117107.142 63607.142 -117059.523 63511.904 -117011.904 63273.809 -117011.904 63178.571 -117059.523 63130.952 -117107.142 63083.333 -117202.38 63083.333 -117392.857 63130.952 -117488.095 63178.571 -117535.714 63273.809 -117583.333 M 89107.142 -139619.047 89154.761 -139666.666 89202.38 -139809.523 89202.38 -139904.761 89154.761 -140047.619 89059.523 -140142.857 88964.285 -140190.476 88773.809 -140238.095 88630.952 -140238.095 88440.476 -140190.476 88345.238 -140142.857 88250 -140047.619 88202.38 -139904.761 88202.38 -139809.523 88250 -139666.666 88297.619 -139619.047 M 88202.38 -139285.714 88202.38 -138666.666 88583.333 -139000 88583.333 -138857.142 88630.952 -138761.904 88678.571 -138714.285 88773.809 -138666.666 89011.904 -138666.666 89107.142 -138714.285 89154.761 -138761.904 89202.38 -138857.142 89202.38 -139142.857 89154.761 -139238.095 89107.142 -139285.714 M 89202.38 -137714.285 89202.38 -138285.714 M 89202.38 -138000 88202.38 -138000 88345.238 -138095.238 88440.476 -138190.476 88488.095 -138285.714 M 89202.38 -136761.904 89202.38 -137333.333 M 89202.38 -137047.619 88202.38 -137047.619 88345.238 -137142.857 88440.476 -137238.095 88488.095 -137333.333 M 65535.714 -153304.38 66107.142 -153304.38 M 65821.428 -154304.38 65821.428 -153304.38 M 66440.476 -154304.38 66440.476 -153304.38 66821.428 -153304.38 66916.666 -153352 66964.285 -153399.619 67011.904 -153494.857 67011.904 -153637.714 66964.285 -153732.952 66916.666 -153780.571 66821.428 -153828.19 66440.476 -153828.19 M 67345.238 -153304.38 67964.285 -153304.38 67630.952 -153685.333 67773.809 -153685.333 67869.047 -153732.952 67916.666 -153780.571 67964.285 -153875.809 67964.285 -154113.904 67916.666 -154209.142 67869.047 -154256.761 67773.809 -154304.38 67488.095 -154304.38 67392.857 -154256.761 67345.238 -154209.142 M 68583.333 -153304.38 68678.571 -153304.38 68773.809 -153352 68821.428 -153399.619 68869.047 -153494.857 68916.666 -153685.333 68916.666 -153923.428 68869.047 -154113.904 68821.428 -154209.142 68773.809 -154256.761 68678.571 -154304.38 68583.333 -154304.38 68488.095 -154256.761 68440.476 -154209.142 68392.857 -154113.904 68345.238 -153923.428 68345.238 -153685.333 68392.857 -153494.857 68440.476 -153399.619 68488.095 -153352 68583.333 -153304.38 M 69250 -153304.38 69869.047 -153304.38 69535.714 -153685.333 69678.571 -153685.333 69773.809 -153732.952 69821.428 -153780.571 69869.047 -153875.809 69869.047 -154113.904 69821.428 -154209.142 69773.809 -154256.761 69678.571 -154304.38 69392.857 -154304.38 69297.619 -154256.761 69250 -154209.142 M 71702.38 -123619.047 71226.19 -123952.38 M 71702.38 -124190.476 70702.38 -124190.476 70702.38 -123809.523 70750 -123714.285 70797.619 -123666.666 70892.857 -123619.047 71035.714 -123619.047 71130.952 -123666.666 71178.571 -123714.285 71226.19 -123809.523 71226.19 -124190.476 M 70702.38 -123285.714 70702.38 -122666.666 71083.333 -123000 71083.333 -122857.142 71130.952 -122761.904 71178.571 -122714.285 71273.809 -122666.666 71511.904 -122666.666 71607.142 -122714.285 71654.761 -122761.904 71702.38 -122857.142 71702.38 -123142.857 71654.761 -123238.095 71607.142 -123285.714 M 71702.38 -121714.285 71702.38 -122285.714 M 71702.38 -122000 70702.38 -122000 70845.238 -122095.238 70940.476 -122190.476 70988.095 -122285.714 M 71702.38 -120761.904 71702.38 -121333.333 M 71702.38 -121047.619 70702.38 -121047.619 70845.238 -121142.857 70940.476 -121238.095 70988.095 -121333.333 M 74714.285 -152514.88 74714.285 -153229.166 74666.666 -153372.023 74571.428 -153467.261 74428.571 -153514.88 74333.333 -153514.88 M 75095.238 -152514.88 75714.285 -152514.88 75380.952 -152895.833 75523.809 -152895.833 75619.047 -152943.452 75666.666 -152991.071 75714.285 -153086.309 75714.285 -153324.404 75666.666 -153419.642 75619.047 -153467.261 75523.809 -153514.88 75238.095 -153514.88 75142.857 -153467.261 75095.238 -153419.642 M 76333.333 -152514.88 76428.571 -152514.88 76523.809 -152562.5 76571.428 -152610.119 76619.047 -152705.357 76666.666 -152895.833 76666.666 -153133.928 76619.047 -153324.404 76571.428 -153419.642 76523.809 -153467.261 76428.571 -153514.88 76333.333 -153514.88 76238.095 -153467.261 76190.476 -153419.642 76142.857 -153324.404 76095.238 -153133.928 76095.238 -152895.833 76142.857 -152705.357 76190.476 -152610.119 76238.095 -152562.5 76333.333 -152514.88 M 77047.619 -152610.119 77095.238 -152562.5 77190.476 -152514.88 77428.571 -152514.88 77523.809 -152562.5 77571.428 -152610.119 77619.047 -152705.357 77619.047 -152800.595 77571.428 -152943.452 77000 -153514.88 77619.047 -153514.88 M 94214.285 -152452.38 94214.285 -153166.666 94166.666 -153309.523 94071.428 -153404.761 93928.571 -153452.38 93833.333 -153452.38 M 94595.238 -152452.38 95214.285 -152452.38 94880.952 -152833.333 95023.809 -152833.333 95119.047 -152880.952 95166.666 -152928.571 95214.285 -153023.809 95214.285 -153261.904 95166.666 -153357.142 95119.047 -153404.761 95023.809 -153452.38 94738.095 -153452.38 94642.857 -153404.761 94595.238 -153357.142 M 95833.333 -152452.38 95928.571 -152452.38 96023.809 -152500 96071.428 -152547.619 96119.047 -152642.857 96166.666 -152833.333 96166.666 -153071.428 96119.047 -153261.904 96071.428 -153357.142 96023.809 -153404.761 95928.571 -153452.38 95833.333 -153452.38 95738.095 -153404.761 95690.476 -153357.142 95642.857 -153261.904 95595.238 -153071.428 95595.238 -152833.333 95642.857 -152642.857 95690.476 -152547.619 95738.095 -152500 95833.333 -152452.38 M 96500 -152452.38 97119.047 -152452.38 96785.714 -152833.333 96928.571 -152833.333 97023.809 -152880.952 97071.428 -152928.571 97119.047 -153023.809 97119.047 -153261.904 97071.428 -153357.142 97023.809 -153404.761 96928.571 -153452.38 96642.857 -153452.38 96547.619 -153404.761 96500 -153357.142 M 60785.714 -123952.38 60785.714 -124761.904 60833.333 -124857.142 60880.952 -124904.761 60976.19 -124952.38 61166.666 -124952.38 61261.904 -124904.761 61309.523 -124857.142 61357.142 -124761.904 61357.142 -123952.38 M 61738.095 -123952.38 62357.142 -123952.38 62023.809 -124333.333 62166.666 -124333.333 62261.904 -124380.952 62309.523 -124428.571 62357.142 -124523.809 62357.142 -124761.904 62309.523 -124857.142 62261.904 -124904.761 62166.666 -124952.38 61880.952 -124952.38 61785.714 -124904.761 61738.095 -124857.142 M 62976.19 -123952.38 63071.428 -123952.38 63166.666 -124000 63214.285 -124047.619 63261.904 -124142.857 63309.523 -124333.333 63309.523 -124571.428 63261.904 -124761.904 63214.285 -124857.142 63166.666 -124904.761 63071.428 -124952.38 62976.19 -124952.38 62880.952 -124904.761 62833.333 -124857.142 62785.714 -124761.904 62738.095 -124571.428 62738.095 -124333.333 62785.714 -124142.857 62833.333 -124047.619 62880.952 -124000 62976.19 -123952.38 M 64261.904 -124952.38 63690.476 -124952.38 M 63976.19 -124952.38 63976.19 -123952.38 63880.952 -124095.238 63785.714 -124190.476 63690.476 -124238.095 M 60630.952 -151607.142 60583.333 -151654.761 60440.476 -151702.38 60345.238 -151702.38 60202.38 -151654.761 60107.142 -151559.523 60059.523 -151464.285 60011.904 -151273.809 60011.904 -151130.952 60059.523 -150940.476 60107.142 -150845.238 60202.38 -150750 60345.238 -150702.38 60440.476 -150702.38 60583.333 -150750 60630.952 -150797.619 M 60964.285 -150702.38 61583.333 -150702.38 61250 -151083.333 61392.857 -151083.333 61488.095 -151130.952 61535.714 -151178.571 61583.333 -151273.809 61583.333 -151511.904 61535.714 -151607.142 61488.095 -151654.761 61392.857 -151702.38 61107.142 -151702.38 61011.904 -151654.761 60964.285 -151607.142 M 62202.38 -150702.38 62297.619 -150702.38 62392.857 -150750 62440.476 -150797.619 62488.095 -150892.857 62535.714 -151083.333 62535.714 -151321.428 62488.095 -151511.904 62440.476 -151607.142 62392.857 -151654.761 62297.619 -151702.38 62202.38 -151702.38 62107.142 -151654.761 62059.523 -151607.142 62011.904 -151511.904 61964.285 -151321.428 61964.285 -151083.333 62011.904 -150892.857 62059.523 -150797.619 62107.142 -150750 62202.38 -150702.38 M 62869.047 -150702.38 63488.095 -150702.38 63154.761 -151083.333 63297.619 -151083.333 63392.857 -151130.952 63440.476 -151178.571 63488.095 -151273.809 63488.095 -151511.904 63440.476 -151607.142 63392.857 -151654.761 63297.619 -151702.38 63011.904 -151702.38 62916.666 -151654.761 62869.047 -151607.142 M 92452.38 -125119.047 91976.19 -125452.38 M 92452.38 -125690.476 91452.38 -125690.476 91452.38 -125309.523 91500 -125214.285 91547.619 -125166.666 91642.857 -125119.047 91785.714 -125119.047 91880.952 -125166.666 91928.571 -125214.285 91976.19 -125309.523 91976.19 -125690.476 M 91452.38 -124785.714 91452.38 -124166.666 91833.333 -124500 91833.333 -124357.142 91880.952 -124261.904 91928.571 -124214.285 92023.809 -124166.666 92261.904 -124166.666 92357.142 -124214.285 92404.761 -124261.904 92452.38 -124357.142 92452.38 -124642.857 92404.761 -124738.095 92357.142 -124785.714 M 92452.38 -123214.285 92452.38 -123785.714 M 92452.38 -123500 91452.38 -123500 91595.238 -123595.238 91690.476 -123690.476 91738.095 -123785.714 M 91452.38 -122880.952 91452.38 -122261.904 91833.333 -122595.238 91833.333 -122452.38 91880.952 -122357.142 91928.571 -122309.523 92023.809 -122261.904 92261.904 -122261.904 92357.142 -122309.523 92404.761 -122357.142 92452.38 -122452.38 92452.38 -122738.095 92404.761 -122833.333 92357.142 -122880.952 M 89880.952 -114607.142 89833.333 -114654.761 89690.476 -114702.38 89595.238 -114702.38 89452.38 -114654.761 89357.142 -114559.523 89309.523 -114464.285 89261.904 -114273.809 89261.904 -114130.952 89309.523 -113940.476 89357.142 -113845.238 89452.38 -113750 89595.238 -113702.38 89690.476 -113702.38 89833.333 -113750 89880.952 -113797.619 M 90214.285 -113702.38 90833.333 -113702.38 90500 -114083.333 90642.857 -114083.333 90738.095 -114130.952 90785.714 -114178.571 90833.333 -114273.809 90833.333 -114511.904 90785.714 -114607.142 90738.095 -114654.761 90642.857 -114702.38 90357.142 -114702.38 90261.904 -114654.761 90214.285 -114607.142 M 91452.38 -113702.38 91547.619 -113702.38 91642.857 -113750 91690.476 -113797.619 91738.095 -113892.857 91785.714 -114083.333 91785.714 -114321.428 91738.095 -114511.904 91690.476 -114607.142 91642.857 -114654.761 91547.619 -114702.38 91452.38 -114702.38 91357.142 -114654.761 91309.523 -114607.142 91261.904 -114511.904 91214.285 -114321.428 91214.285 -114083.333 91261.904 -113892.857 91309.523 -113797.619 91357.142 -113750 91452.38 -113702.38 M 92119.047 -113702.38 92785.714 -113702.38 92357.142 -114702.38 M 54880.952 -129702.38 54547.619 -129226.19 M 54309.523 -129702.38 54309.523 -128702.38 54690.476 -128702.38 54785.714 -128750 54833.333 -128797.619 54880.952 -128892.857 54880.952 -129035.714 54833.333 -129130.952 54785.714 -129178.571 54690.476 -129226.19 54309.523 -129226.19 M 55214.285 -128702.38 55833.333 -128702.38 55500 -129083.333 55642.857 -129083.333 55738.095 -129130.952 55785.714 -129178.571 55833.333 -129273.809 55833.333 -129511.904 55785.714 -129607.142 55738.095 -129654.761 55642.857 -129702.38 55357.142 -129702.38 55261.904 -129654.761 55214.285 -129607.142 M 56452.38 -128702.38 56547.619 -128702.38 56642.857 -128750 56690.476 -128797.619 56738.095 -128892.857 56785.714 -129083.333 56785.714 -129321.428 56738.095 -129511.904 56690.476 -129607.142 56642.857 -129654.761 56547.619 -129702.38 56452.38 -129702.38 56357.142 -129654.761 56309.523 -129607.142 56261.904 -129511.904 56214.285 -129321.428 56214.285 -129083.333 56261.904 -128892.857 56309.523 -128797.619 56357.142 -128750 56452.38 -128702.38 M 57119.047 -128702.38 57738.095 -128702.38 57404.761 -129083.333 57547.619 -129083.333 57642.857 -129130.952 57690.476 -129178.571 57738.095 -129273.809 57738.095 -129511.904 57690.476 -129607.142 57642.857 -129654.761 57547.619 -129702.38 57261.904 -129702.38 57166.666 -129654.761 57119.047 -129607.142 M 88107.142 -144619.047 88154.761 -144666.666 88202.38 -144809.523 88202.38 -144904.761 88154.761 -145047.619 88059.523 -145142.857 87964.285 -145190.476 87773.809 -145238.095 87630.952 -145238.095 87440.476 -145190.476 87345.238 -145142.857 87250 -145047.619 87202.38 -144904.761 87202.38 -144809.523 87250 -144666.666 87297.619 -144619.047 M 87202.38 -144285.714 87202.38 -143666.666 87583.333 -144000 87583.333 -143857.142 87630.952 -143761.904 87678.571 -143714.285 87773.809 -143666.666 88011.904 -143666.666 88107.142 -143714.285 88154.761 -143761.904 88202.38 -143857.142 88202.38 -144142.857 88154.761 -144238.095 88107.142 -144285.714 M 88202.38 -142714.285 88202.38 -143285.714 M 88202.38 -143000 87202.38 -143000 87345.238 -143095.238 87440.476 -143190.476 87488.095 -143285.714 M 87297.619 -142333.333 87250 -142285.714 87202.38 -142190.476 87202.38 -141952.38 87250 -141857.142 87297.619 -141809.523 87392.857 -141761.904 87488.095 -141761.904 87630.952 -141809.523 88202.38 -142380.952 88202.38 -141761.904 M 75607.142 -118119.047 75654.761 -118166.666 75702.38 -118309.523 75702.38 -118404.761 75654.761 -118547.619 75559.523 -118642.857 75464.285 -118690.476 75273.809 -118738.095 75130.952 -118738.095 74940.476 -118690.476 74845.238 -118642.857 74750 -118547.619 74702.38 -118404.761 74702.38 -118309.523 74750 -118166.666 74797.619 -118119.047 M 74702.38 -117785.714 74702.38 -117166.666 75083.333 -117500 75083.333 -117357.142 75130.952 -117261.904 75178.571 -117214.285 75273.809 -117166.666 75511.904 -117166.666 75607.142 -117214.285 75654.761 -117261.904 75702.38 -117357.142 75702.38 -117642.857 75654.761 -117738.095 75607.142 -117785.714 M 74702.38 -116547.619 74702.38 -116452.38 74750 -116357.142 74797.619 -116309.523 74892.857 -116261.904 75083.333 -116214.285 75321.428 -116214.285 75511.904 -116261.904 75607.142 -116309.523 75654.761 -116357.142 75702.38 -116452.38 75702.38 -116547.619 75654.761 -116642.857 75607.142 -116690.476 75511.904 -116738.095 75321.428 -116785.714 75083.333 -116785.714 74892.857 -116738.095 74797.619 -116690.476 74750 -116642.857 74702.38 -116547.619 M 75702.38 -115738.095 75702.38 -115547.619 75654.761 -115452.38 75607.142 -115404.761 75464.285 -115309.523 75273.809 -115261.904 74892.857 -115261.904 74797.619 -115309.523 74750 -115357.142 74702.38 -115452.38 74702.38 -115642.857 74750 -115738.095 74797.619 -115785.714 74892.857 -115833.333 75130.952 -115833.333 75226.19 -115785.714 75273.809 -115738.095 75321.428 -115642.857 75321.428 -115452.38 75273.809 -115357.142 75226.19 -115309.523 75130.952 -115261.904 M 81214.285 -152452.38 81214.285 -153166.666 81166.666 -153309.523 81071.428 -153404.761 80928.571 -153452.38 80833.333 -153452.38 M 81595.238 -152452.38 82214.285 -152452.38 81880.952 -152833.333 82023.809 -152833.333 82119.047 -152880.952 82166.666 -152928.571 82214.285 -153023.809 82214.285 -153261.904 82166.666 -153357.142 82119.047 -153404.761 82023.809 -153452.38 81738.095 -153452.38 81642.857 -153404.761 81595.238 -153357.142 M 82833.333 -152452.38 82928.571 -152452.38 83023.809 -152500 83071.428 -152547.619 83119.047 -152642.857 83166.666 -152833.333 83166.666 -153071.428 83119.047 -153261.904 83071.428 -153357.142 83023.809 -153404.761 82928.571 -153452.38 82833.333 -153452.38 82738.095 -153404.761 82690.476 -153357.142 82642.857 -153261.904 82595.238 -153071.428 82595.238 -152833.333 82642.857 -152642.857 82690.476 -152547.619 82738.095 -152500 82833.333 -152452.38 M 84119.047 -153452.38 83547.619 -153452.38 M 83833.333 -153452.38 83833.333 -152452.38 83738.095 -152595.238 83642.857 -152690.476 83547.619 -152738.095 M 81785.714 -117452.38 81785.714 -118261.904 81833.333 -118357.142 81880.952 -118404.761 81976.19 -118452.38 82166.666 -118452.38 82261.904 -118404.761 82309.523 -118357.142 82357.142 -118261.904 82357.142 -117452.38 M 82738.095 -117452.38 83357.142 -117452.38 83023.809 -117833.333 83166.666 -117833.333 83261.904 -117880.952 83309.523 -117928.571 83357.142 -118023.809 83357.142 -118261.904 83309.523 -118357.142 83261.904 -118404.761 83166.666 -118452.38 82880.952 -118452.38 82785.714 -118404.761 82738.095 -118357.142 M 83976.19 -117452.38 84071.428 -117452.38 84166.666 -117500 84214.285 -117547.619 84261.904 -117642.857 84309.523 -117833.333 84309.523 -118071.428 84261.904 -118261.904 84214.285 -118357.142 84166.666 -118404.761 84071.428 -118452.38 83976.19 -118452.38 83880.952 -118404.761 83833.333 -118357.142 83785.714 -118261.904 83738.095 -118071.428 83738.095 -117833.333 83785.714 -117642.857 83833.333 -117547.619 83880.952 -117500 83976.19 -117452.38 M 84690.476 -117547.619 84738.095 -117500 84833.333 -117452.38 85071.428 -117452.38 85166.666 -117500 85214.285 -117547.619 85261.904 -117642.857 85261.904 -117738.095 85214.285 -117880.952 84642.857 -118452.38 85261.904 -118452.38 M 86964.285 -152452.38 86964.285 -153166.666 86916.666 -153309.523 86821.428 -153404.761 86678.571 -153452.38 86583.333 -153452.38 M 87345.238 -152452.38 87964.285 -152452.38 87630.952 -152833.333 87773.809 -152833.333 87869.047 -152880.952 87916.666 -152928.571 87964.285 -153023.809 87964.285 -153261.904 87916.666 -153357.142 87869.047 -153404.761 87773.809 -153452.38 87488.095 -153452.38 87392.857 -153404.761 87345.238 -153357.142 M 88583.333 -152452.38 88678.571 -152452.38 88773.809 -152500 88821.428 -152547.619 88869.047 -152642.857 88916.666 -152833.333 88916.666 -153071.428 88869.047 -153261.904 88821.428 -153357.142 88773.809 -153404.761 88678.571 -153452.38 88583.333 -153452.38 88488.095 -153404.761 88440.476 -153357.142 88392.857 -153261.904 88345.238 -153071.428 88345.238 -152833.333 88392.857 -152642.857 88440.476 -152547.619 88488.095 -152500 88583.333 -152452.38 M 89773.809 -152785.714 89773.809 -153452.38 M 89535.714 -152404.761 89297.619 -153119.047 89916.666 -153119.047 M 89880.952 -118702.38 89547.619 -118226.19 M 89309.523 -118702.38 89309.523 -117702.38 89690.476 -117702.38 89785.714 -117750 89833.333 -117797.619 89880.952 -117892.857 89880.952 -118035.714 89833.333 -118130.952 89785.714 -118178.571 89690.476 -118226.19 89309.523 -118226.19 M 90214.285 -117702.38 90833.333 -117702.38 90500 -118083.333 90642.857 -118083.333 90738.095 -118130.952 90785.714 -118178.571 90833.333 -118273.809 90833.333 -118511.904 90785.714 -118607.142 90738.095 -118654.761 90642.857 -118702.38 90357.142 -118702.38 90261.904 -118654.761 90214.285 -118607.142 M 91785.714 -118702.38 91214.285 -118702.38 M 91500 -118702.38 91500 -117702.38 91404.761 -117845.238 91309.523 -117940.476 91214.285 -117988.095 M 92166.666 -117797.619 92214.285 -117750 92309.523 -117702.38 92547.619 -117702.38 92642.857 -117750 92690.476 -117797.619 92738.095 -117892.857 92738.095 -117988.095 92690.476 -118130.952 92119.047 -118702.38 92738.095 -118702.38 M 53380.952 -118607.142 53333.333 -118654.761 53190.476 -118702.38 53095.238 -118702.38 52952.38 -118654.761 52857.142 -118559.523 52809.523 -118464.285 52761.904 -118273.809 52761.904 -118130.952 52809.523 -117940.476 52857.142 -117845.238 52952.38 -117750 53095.238 -117702.38 53190.476 -117702.38 53333.333 -117750 53380.952 -117797.619 M 53714.285 -117702.38 54333.333 -117702.38 54000 -118083.333 54142.857 -118083.333 54238.095 -118130.952 54285.714 -118178.571 54333.333 -118273.809 54333.333 -118511.904 54285.714 -118607.142 54238.095 -118654.761 54142.857 -118702.38 53857.142 -118702.38 53761.904 -118654.761 53714.285 -118607.142 M 54952.38 -117702.38 55047.619 -117702.38 55142.857 -117750 55190.476 -117797.619 55238.095 -117892.857 55285.714 -118083.333 55285.714 -118321.428 55238.095 -118511.904 55190.476 -118607.142 55142.857 -118654.761 55047.619 -118702.38 54952.38 -118702.38 54857.142 -118654.761 54809.523 -118607.142 54761.904 -118511.904 54714.285 -118321.428 54714.285 -118083.333 54761.904 -117892.857 54809.523 -117797.619 54857.142 -117750 54952.38 -117702.38 M 56238.095 -118702.38 55666.666 -118702.38 M 55952.38 -118702.38 55952.38 -117702.38 55857.142 -117845.238 55761.904 -117940.476 55666.666 -117988.095 M 58380.952 -118702.38 58047.619 -118226.19 M 57809.523 -118702.38 57809.523 -117702.38 58190.476 -117702.38 58285.714 -117750 58333.333 -117797.619 58380.952 -117892.857 58380.952 -118035.714 58333.333 -118130.952 58285.714 -118178.571 58190.476 -118226.19 57809.523 -118226.19 M 58714.285 -117702.38 59333.333 -117702.38 59000 -118083.333 59142.857 -118083.333 59238.095 -118130.952 59285.714 -118178.571 59333.333 -118273.809 59333.333 -118511.904 59285.714 -118607.142 59238.095 -118654.761 59142.857 -118702.38 58857.142 -118702.38 58761.904 -118654.761 58714.285 -118607.142 M 59952.38 -117702.38 60047.619 -117702.38 60142.857 -117750 60190.476 -117797.619 60238.095 -117892.857 60285.714 -118083.333 60285.714 -118321.428 60238.095 -118511.904 60190.476 -118607.142 60142.857 -118654.761 60047.619 -118702.38 59952.38 -118702.38 59857.142 -118654.761 59809.523 -118607.142 59761.904 -118511.904 59714.285 -118321.428 59714.285 -118083.333 59761.904 -117892.857 59809.523 -117797.619 59857.142 -117750 59952.38 -117702.38 M 61190.476 -117702.38 60714.285 -117702.38 60666.666 -118178.571 60714.285 -118130.952 60809.523 -118083.333 61047.619 -118083.333 61142.857 -118130.952 61190.476 -118178.571 61238.095 -118273.809 61238.095 -118511.904 61190.476 -118607.142 61142.857 -118654.761 61047.619 -118702.38 60809.523 -118702.38 60714.285 -118654.761 60666.666 -118607.142 M 84880.952 -114702.38 84547.619 -114226.19 M 84309.523 -114702.38 84309.523 -113702.38 84690.476 -113702.38 84785.714 -113750 84833.333 -113797.619 84880.952 -113892.857 84880.952 -114035.714 84833.333 -114130.952 84785.714 -114178.571 84690.476 -114226.19 84309.523 -114226.19 M 85214.285 -113702.38 85833.333 -113702.38 85500 -114083.333 85642.857 -114083.333 85738.095 -114130.952 85785.714 -114178.571 85833.333 -114273.809 85833.333 -114511.904 85785.714 -114607.142 85738.095 -114654.761 85642.857 -114702.38 85357.142 -114702.38 85261.904 -114654.761 85214.285 -114607.142 M 86785.714 -114702.38 86214.285 -114702.38 M 86500 -114702.38 86500 -113702.38 86404.761 -113845.238 86309.523 -113940.476 86214.285 -113988.095 M 87404.761 -113702.38 87500 -113702.38 87595.238 -113750 87642.857 -113797.619 87690.476 -113892.857 87738.095 -114083.333 87738.095 -114321.428 87690.476 -114511.904 87642.857 -114607.142 87595.238 -114654.761 87500 -114702.38 87404.761 -114702.38 87309.523 -114654.761 87261.904 -114607.142 87214.285 -114511.904 87166.666 -114321.428 87166.666 -114083.333 87214.285 -113892.857 87261.904 -113797.619 87309.523 -113750 87404.761 -113702.38 M 54952.38 -138748.214 55666.666 -138748.214 55809.523 -138795.833 55904.761 -138891.071 55952.38 -139033.928 55952.38 -139129.166 M 55952.38 -137748.214 55952.38 -138319.642 M 55952.38 -138033.928 54952.38 -138033.928 55095.238 -138129.166 55190.476 -138224.404 55238.095 -138319.642 M 54952.38 -137129.166 54952.38 -137033.928 55000 -136938.69 55047.619 -136891.071 55142.857 -136843.452 55333.333 -136795.833 55571.428 -136795.833 55761.904 -136843.452 55857.142 -136891.071 55904.761 -136938.69 55952.38 -137033.928 55952.38 -137129.166 55904.761 -137224.404 55857.142 -137272.023 55761.904 -137319.642 55571.428 -137367.261 55333.333 -137367.261 55142.857 -137319.642 55047.619 -137272.023 55000 -137224.404 54952.38 -137129.166 M 55952.38 -135843.452 55952.38 -136414.88 M 55952.38 -136129.166 54952.38 -136129.166 55095.238 -136224.404 55190.476 -136319.642 55238.095 -136414.88 M 94880.952 -114607.142 94833.333 -114654.761 94690.476 -114702.38 94595.238 -114702.38 94452.38 -114654.761 94357.142 -114559.523 94309.523 -114464.285 94261.904 -114273.809 94261.904 -114130.952 94309.523 -113940.476 94357.142 -113845.238 94452.38 -113750 94595.238 -113702.38 94690.476 -113702.38 94833.333 -113750 94880.952 -113797.619 M 95214.285 -113702.38 95833.333 -113702.38 95500 -114083.333 95642.857 -114083.333 95738.095 -114130.952 95785.714 -114178.571 95833.333 -114273.809 95833.333 -114511.904 95785.714 -114607.142 95738.095 -114654.761 95642.857 -114702.38 95357.142 -114702.38 95261.904 -114654.761 95214.285 -114607.142 M 96452.38 -113702.38 96547.619 -113702.38 96642.857 -113750 96690.476 -113797.619 96738.095 -113892.857 96785.714 -114083.333 96785.714 -114321.428 96738.095 -114511.904 96690.476 -114607.142 96642.857 -114654.761 96547.619 -114702.38 96452.38 -114702.38 96357.142 -114654.761 96309.523 -114607.142 96261.904 -114511.904 96214.285 -114321.428 96214.285 -114083.333 96261.904 -113892.857 96309.523 -113797.619 96357.142 -113750 96452.38 -113702.38 M 97642.857 -113702.38 97452.38 -113702.38 97357.142 -113750 97309.523 -113797.619 97214.285 -113940.476 97166.666 -114130.952 97166.666 -114511.904 97214.285 -114607.142 97261.904 -114654.761 97357.142 -114702.38 97547.619 -114702.38 97642.857 -114654.761 97690.476 -114607.142 97738.095 -114511.904 97738.095 -114273.809 97690.476 -114178.571 97642.857 -114130.952 97547.619 -114083.333 97357.142 -114083.333 97261.904 -114130.952 97214.285 -114178.571 97166.666 -114273.809 M 53380.952 -114702.38 53047.619 -114226.19 M 52809.523 -114702.38 52809.523 -113702.38 53190.476 -113702.38 53285.714 -113750 53333.333 -113797.619 53380.952 -113892.857 53380.952 -114035.714 53333.333 -114130.952 53285.714 -114178.571 53190.476 -114226.19 52809.523 -114226.19 M 53714.285 -113702.38 54333.333 -113702.38 54000 -114083.333 54142.857 -114083.333 54238.095 -114130.952 54285.714 -114178.571 54333.333 -114273.809 54333.333 -114511.904 54285.714 -114607.142 54238.095 -114654.761 54142.857 -114702.38 53857.142 -114702.38 53761.904 -114654.761 53714.285 -114607.142 M 54952.38 -113702.38 55047.619 -113702.38 55142.857 -113750 55190.476 -113797.619 55238.095 -113892.857 55285.714 -114083.333 55285.714 -114321.428 55238.095 -114511.904 55190.476 -114607.142 55142.857 -114654.761 55047.619 -114702.38 54952.38 -114702.38 54857.142 -114654.761 54809.523 -114607.142 54761.904 -114511.904 54714.285 -114321.428 54714.285 -114083.333 54761.904 -113892.857 54809.523 -113797.619 54857.142 -113750 54952.38 -113702.38 M 56142.857 -114035.714 56142.857 -114702.38 M 55904.761 -113654.761 55666.666 -114369.047 56285.714 -114369.047 M 53380.952 -122607.142 53333.333 -122654.761 53190.476 -122702.38 53095.238 -122702.38 52952.38 -122654.761 52857.142 -122559.523 52809.523 -122464.285 52761.904 -122273.809 52761.904 -122130.952 52809.523 -121940.476 52857.142 -121845.238 52952.38 -121750 53095.238 -121702.38 53190.476 -121702.38 53333.333 -121750 53380.952 -121797.619 M 53714.285 -121702.38 54333.333 -121702.38 54000 -122083.333 54142.857 -122083.333 54238.095 -122130.952 54285.714 -122178.571 54333.333 -122273.809 54333.333 -122511.904 54285.714 -122607.142 54238.095 -122654.761 54142.857 -122702.38 53857.142 -122702.38 53761.904 -122654.761 53714.285 -122607.142 M 54952.38 -121702.38 55047.619 -121702.38 55142.857 -121750 55190.476 -121797.619 55238.095 -121892.857 55285.714 -122083.333 55285.714 -122321.428 55238.095 -122511.904 55190.476 -122607.142 55142.857 -122654.761 55047.619 -122702.38 54952.38 -122702.38 54857.142 -122654.761 54809.523 -122607.142 54761.904 -122511.904 54714.285 -122321.428 54714.285 -122083.333 54761.904 -121892.857 54809.523 -121797.619 54857.142 -121750 54952.38 -121702.38 M 55666.666 -121797.619 55714.285 -121750 55809.523 -121702.38 56047.619 -121702.38 56142.857 -121750 56190.476 -121797.619 56238.095 -121892.857 56238.095 -121988.095 56190.476 -122130.952 55619.047 -122702.38 56238.095 -122702.38 M 55630.952 -151607.142 55583.333 -151654.761 55440.476 -151702.38 55345.238 -151702.38 55202.38 -151654.761 55107.142 -151559.523 55059.523 -151464.285 55011.904 -151273.809 55011.904 -151130.952 55059.523 -150940.476 55107.142 -150845.238 55202.38 -150750 55345.238 -150702.38 55440.476 -150702.38 55583.333 -150750 55630.952 -150797.619 M 55964.285 -150702.38 56583.333 -150702.38 56250 -151083.333 56392.857 -151083.333 56488.095 -151130.952 56535.714 -151178.571 56583.333 -151273.809 56583.333 -151511.904 56535.714 -151607.142 56488.095 -151654.761 56392.857 -151702.38 56107.142 -151702.38 56011.904 -151654.761 55964.285 -151607.142 M 57202.38 -150702.38 57297.619 -150702.38 57392.857 -150750 57440.476 -150797.619 57488.095 -150892.857 57535.714 -151083.333 57535.714 -151321.428 57488.095 -151511.904 57440.476 -151607.142 57392.857 -151654.761 57297.619 -151702.38 57202.38 -151702.38 57107.142 -151654.761 57059.523 -151607.142 57011.904 -151511.904 56964.285 -151321.428 56964.285 -151083.333 57011.904 -150892.857 57059.523 -150797.619 57107.142 -150750 57202.38 -150702.38 M 58392.857 -151035.714 58392.857 -151702.38 M 58154.761 -150654.761 57916.666 -151369.047 58535.714 -151369.047 M 67957.142 -152181.547 68004.761 -152229.166 68052.38 -152372.023 68052.38 -152467.261 68004.761 -152610.119 67909.523 -152705.357 67814.285 -152752.976 67623.809 -152800.595 67480.952 -152800.595 67290.476 -152752.976 67195.238 -152705.357 67100 -152610.119 67052.38 -152467.261 67052.38 -152372.023 67100 -152229.166 67147.619 -152181.547 M 67052.38 -151848.214 67052.38 -151229.166 67433.333 -151562.5 67433.333 -151419.642 67480.952 -151324.404 67528.571 -151276.785 67623.809 -151229.166 67861.904 -151229.166 67957.142 -151276.785 68004.761 -151324.404 68052.38 -151419.642 68052.38 -151705.357 68004.761 -151800.595 67957.142 -151848.214 M 67052.38 -150610.119 67052.38 -150514.88 67100 -150419.642 67147.619 -150372.023 67242.857 -150324.404 67433.333 -150276.785 67671.428 -150276.785 67861.904 -150324.404 67957.142 -150372.023 68004.761 -150419.642 68052.38 -150514.88 68052.38 -150610.119 68004.761 -150705.357 67957.142 -150752.976 67861.904 -150800.595 67671.428 -150848.214 67433.333 -150848.214 67242.857 -150800.595 67147.619 -150752.976 67100 -150705.357 67052.38 -150610.119 M 67052.38 -149372.023 67052.38 -149848.214 67528.571 -149895.833 67480.952 -149848.214 67433.333 -149752.976 67433.333 -149514.88 67480.952 -149419.642 67528.571 -149372.023 67623.809 -149324.404 67861.904 -149324.404 67957.142 -149372.023 68004.761 -149419.642 68052.38 -149514.88 68052.38 -149752.976 68004.761 -149848.214 67957.142 -149895.833 M 79880.952 -114607.142 79833.333 -114654.761 79690.476 -114702.38 79595.238 -114702.38 79452.38 -114654.761 79357.142 -114559.523 79309.523 -114464.285 79261.904 -114273.809 79261.904 -114130.952 79309.523 -113940.476 79357.142 -113845.238 79452.38 -113750 79595.238 -113702.38 79690.476 -113702.38 79833.333 -113750 79880.952 -113797.619 M 80214.285 -113702.38 80833.333 -113702.38 80500 -114083.333 80642.857 -114083.333 80738.095 -114130.952 80785.714 -114178.571 80833.333 -114273.809 80833.333 -114511.904 80785.714 -114607.142 80738.095 -114654.761 80642.857 -114702.38 80357.142 -114702.38 80261.904 -114654.761 80214.285 -114607.142 M 81785.714 -114702.38 81214.285 -114702.38 M 81500 -114702.38 81500 -113702.38 81404.761 -113845.238 81309.523 -113940.476 81214.285 -113988.095 M 82404.761 -113702.38 82500 -113702.38 82595.238 -113750 82642.857 -113797.619 82690.476 -113892.857 82738.095 -114083.333 82738.095 -114321.428 82690.476 -114511.904 82642.857 -114607.142 82595.238 -114654.761 82500 -114702.38 82404.761 -114702.38 82309.523 -114654.761 82261.904 -114607.142 82214.285 -114511.904 82166.666 -114321.428 82166.666 -114083.333 82214.285 -113892.857 82261.904 -113797.619 82309.523 -113750 82404.761 -113702.38 M 58380.952 -114607.142 58333.333 -114654.761 58190.476 -114702.38 58095.238 -114702.38 57952.38 -114654.761 57857.142 -114559.523 57809.523 -114464.285 57761.904 -114273.809 57761.904 -114130.952 57809.523 -113940.476 57857.142 -113845.238 57952.38 -113750 58095.238 -113702.38 58190.476 -113702.38 58333.333 -113750 58380.952 -113797.619 M 58714.285 -113702.38 59333.333 -113702.38 59000 -114083.333 59142.857 -114083.333 59238.095 -114130.952 59285.714 -114178.571 59333.333 -114273.809 59333.333 -114511.904 59285.714 -114607.142 59238.095 -114654.761 59142.857 -114702.38 58857.142 -114702.38 58761.904 -114654.761 58714.285 -114607.142 M 59952.38 -113702.38 60047.619 -113702.38 60142.857 -113750 60190.476 -113797.619 60238.095 -113892.857 60285.714 -114083.333 60285.714 -114321.428 60238.095 -114511.904 60190.476 -114607.142 60142.857 -114654.761 60047.619 -114702.38 59952.38 -114702.38 59857.142 -114654.761 59809.523 -114607.142 59761.904 -114511.904 59714.285 -114321.428 59714.285 -114083.333 59761.904 -113892.857 59809.523 -113797.619 59857.142 -113750 59952.38 -113702.38 M 60857.142 -114130.952 60761.904 -114083.333 60714.285 -114035.714 60666.666 -113940.476 60666.666 -113892.857 60714.285 -113797.619 60761.904 -113750 60857.142 -113702.38 61047.619 -113702.38 61142.857 -113750 61190.476 -113797.619 61238.095 -113892.857 61238.095 -113940.476 61190.476 -114035.714 61142.857 -114083.333 61047.619 -114130.952 60857.142 -114130.952 60761.904 -114178.571 60714.285 -114226.19 60666.666 -114321.428 60666.666 -114511.904 60714.285 -114607.142 60761.904 -114654.761 60857.142 -114702.38 61047.619 -114702.38 61142.857 -114654.761 61190.476 -114607.142 61238.095 -114511.904 61238.095 -114321.428 61190.476 -114226.19 61142.857 -114178.571 61047.619 -114130.952 M 67702.38 -123619.047 67226.19 -123952.38 M 67702.38 -124190.476 66702.38 -124190.476 66702.38 -123809.523 66750 -123714.285 66797.619 -123666.666 66892.857 -123619.047 67035.714 -123619.047 67130.952 -123666.666 67178.571 -123714.285 67226.19 -123809.523 67226.19 -124190.476 M 66702.38 -123285.714 66702.38 -122666.666 67083.333 -123000 67083.333 -122857.142 67130.952 -122761.904 67178.571 -122714.285 67273.809 -122666.666 67511.904 -122666.666 67607.142 -122714.285 67654.761 -122761.904 67702.38 -122857.142 67702.38 -123142.857 67654.761 -123238.095 67607.142 -123285.714 M 66702.38 -122047.619 66702.38 -121952.38 66750 -121857.142 66797.619 -121809.523 66892.857 -121761.904 67083.333 -121714.285 67321.428 -121714.285 67511.904 -121761.904 67607.142 -121809.523 67654.761 -121857.142 67702.38 -121952.38 67702.38 -122047.619 67654.761 -122142.857 67607.142 -122190.476 67511.904 -122238.095 67321.428 -122285.714 67083.333 -122285.714 66892.857 -122238.095 66797.619 -122190.476 66750 -122142.857 66702.38 -122047.619 M 67702.38 -121238.095 67702.38 -121047.619 67654.761 -120952.38 67607.142 -120904.761 67464.285 -120809.523 67273.809 -120761.904 66892.857 -120761.904 66797.619 -120809.523 66750 -120857.142 66702.38 -120952.38 66702.38 -121142.857 66750 -121238.095 66797.619 -121285.714 66892.857 -121333.333 67130.952 -121333.333 67226.19 -121285.714 67273.809 -121238.095 67321.428 -121142.857 67321.428 -120952.38 67273.809 -120857.142 67226.19 -120809.523 67130.952 -120761.904 M 55630.952 -147702.38 55297.619 -147226.19 M 55059.523 -147702.38 55059.523 -146702.38 55440.476 -146702.38 55535.714 -146750 55583.333 -146797.619 55630.952 -146892.857 55630.952 -147035.714 55583.333 -147130.952 55535.714 -147178.571 55440.476 -147226.19 55059.523 -147226.19 M 55964.285 -146702.38 56583.333 -146702.38 56250 -147083.333 56392.857 -147083.333 56488.095 -147130.952 56535.714 -147178.571 56583.333 -147273.809 56583.333 -147511.904 56535.714 -147607.142 56488.095 -147654.761 56392.857 -147702.38 56107.142 -147702.38 56011.904 -147654.761 55964.285 -147607.142 M 57202.38 -146702.38 57297.619 -146702.38 57392.857 -146750 57440.476 -146797.619 57488.095 -146892.857 57535.714 -147083.333 57535.714 -147321.428 57488.095 -147511.904 57440.476 -147607.142 57392.857 -147654.761 57297.619 -147702.38 57202.38 -147702.38 57107.142 -147654.761 57059.523 -147607.142 57011.904 -147511.904 56964.285 -147321.428 56964.285 -147083.333 57011.904 -146892.857 57059.523 -146797.619 57107.142 -146750 57202.38 -146702.38 M 58488.095 -147702.38 57916.666 -147702.38 M 58202.38 -147702.38 58202.38 -146702.38 58107.142 -146845.238 58011.904 -146940.476 57916.666 -146988.095 M 67702.38 -118119.047 67226.19 -118452.38 M 67702.38 -118690.476 66702.38 -118690.476 66702.38 -118309.523 66750 -118214.285 66797.619 -118166.666 66892.857 -118119.047 67035.714 -118119.047 67130.952 -118166.666 67178.571 -118214.285 67226.19 -118309.523 67226.19 -118690.476 M 66702.38 -117785.714 66702.38 -117166.666 67083.333 -117500 67083.333 -117357.142 67130.952 -117261.904 67178.571 -117214.285 67273.809 -117166.666 67511.904 -117166.666 67607.142 -117214.285 67654.761 -117261.904 67702.38 -117357.142 67702.38 -117642.857 67654.761 -117738.095 67607.142 -117785.714 M 66702.38 -116547.619 66702.38 -116452.38 66750 -116357.142 66797.619 -116309.523 66892.857 -116261.904 67083.333 -116214.285 67321.428 -116214.285 67511.904 -116261.904 67607.142 -116309.523 67654.761 -116357.142 67702.38 -116452.38 67702.38 -116547.619 67654.761 -116642.857 67607.142 -116690.476 67511.904 -116738.095 67321.428 -116785.714 67083.333 -116785.714 66892.857 -116738.095 66797.619 -116690.476 66750 -116642.857 66702.38 -116547.619 M 66702.38 -115880.952 66702.38 -115214.285 67702.38 -115642.857 M 71702.38 -118119.047 71226.19 -118452.38 M 71702.38 -118690.476 70702.38 -118690.476 70702.38 -118309.523 70750 -118214.285 70797.619 -118166.666 70892.857 -118119.047 71035.714 -118119.047 71130.952 -118166.666 71178.571 -118214.285 71226.19 -118309.523 71226.19 -118690.476 M 70702.38 -117785.714 70702.38 -117166.666 71083.333 -117500 71083.333 -117357.142 71130.952 -117261.904 71178.571 -117214.285 71273.809 -117166.666 71511.904 -117166.666 71607.142 -117214.285 71654.761 -117261.904 71702.38 -117357.142 71702.38 -117642.857 71654.761 -117738.095 71607.142 -117785.714 M 70702.38 -116547.619 70702.38 -116452.38 70750 -116357.142 70797.619 -116309.523 70892.857 -116261.904 71083.333 -116214.285 71321.428 -116214.285 71511.904 -116261.904 71607.142 -116309.523 71654.761 -116357.142 71702.38 -116452.38 71702.38 -116547.619 71654.761 -116642.857 71607.142 -116690.476 71511.904 -116738.095 71321.428 -116785.714 71083.333 -116785.714 70892.857 -116738.095 70797.619 -116690.476 70750 -116642.857 70702.38 -116547.619 M 71130.952 -115642.857 71083.333 -115738.095 71035.714 -115785.714 70940.476 -115833.333 70892.857 -115833.333 70797.619 -115785.714 70750 -115738.095 70702.38 -115642.857 70702.38 -115452.38 70750 -115357.142 70797.619 -115309.523 70892.857 -115261.904 70940.476 -115261.904 71035.714 -115309.523 71083.333 -115357.142 71130.952 -115452.38 71130.952 -115642.857 71178.571 -115738.095 71226.19 -115785.714 71321.428 -115833.333 71511.904 -115833.333 71607.142 -115785.714 71654.761 -115738.095 71702.38 -115642.857 71702.38 -115452.38 71654.761 -115357.142 71607.142 -115309.523 71511.904 -115261.904 71321.428 -115261.904 71226.19 -115309.523 71178.571 -115357.142 71130.952 -115452.38 M 75702.38 -124190.476 74702.38 -124190.476 74702.38 -123952.38 74750 -123809.523 74845.238 -123714.285 74940.476 -123666.666 75130.952 -123619.047 75273.809 -123619.047 75464.285 -123666.666 75559.523 -123714.285 75654.761 -123809.523 75702.38 -123952.38 75702.38 -124190.476 M 74702.38 -123285.714 74702.38 -122666.666 75083.333 -123000 75083.333 -122857.142 75130.952 -122761.904 75178.571 -122714.285 75273.809 -122666.666 75511.904 -122666.666 75607.142 -122714.285 75654.761 -122761.904 75702.38 -122857.142 75702.38 -123142.857 75654.761 -123238.095 75607.142 -123285.714 M 74702.38 -122047.619 74702.38 -121952.38 74750 -121857.142 74797.619 -121809.523 74892.857 -121761.904 75083.333 -121714.285 75321.428 -121714.285 75511.904 -121761.904 75607.142 -121809.523 75654.761 -121857.142 75702.38 -121952.38 75702.38 -122047.619 75654.761 -122142.857 75607.142 -122190.476 75511.904 -122238.095 75321.428 -122285.714 75083.333 -122285.714 74892.857 -122238.095 74797.619 -122190.476 74750 -122142.857 74702.38 -122047.619 M 74797.619 -121333.333 74750 -121285.714 74702.38 -121190.476 74702.38 -120952.38 74750 -120857.142 74797.619 -120809.523 74892.857 -120761.904 74988.095 -120761.904 75130.952 -120809.523 75702.38 -121380.952 75702.38 -120761.904 M 60630.952 -147702.38 60297.619 -147226.19 M 60059.523 -147702.38 60059.523 -146702.38 60440.476 -146702.38 60535.714 -146750 60583.333 -146797.619 60630.952 -146892.857 60630.952 -147035.714 60583.333 -147130.952 60535.714 -147178.571 60440.476 -147226.19 60059.523 -147226.19 M 60964.285 -146702.38 61583.333 -146702.38 61250 -147083.333 61392.857 -147083.333 61488.095 -147130.952 61535.714 -147178.571 61583.333 -147273.809 61583.333 -147511.904 61535.714 -147607.142 61488.095 -147654.761 61392.857 -147702.38 61107.142 -147702.38 61011.904 -147654.761 60964.285 -147607.142 M 62202.38 -146702.38 62297.619 -146702.38 62392.857 -146750 62440.476 -146797.619 62488.095 -146892.857 62535.714 -147083.333 62535.714 -147321.428 62488.095 -147511.904 62440.476 -147607.142 62392.857 -147654.761 62297.619 -147702.38 62202.38 -147702.38 62107.142 -147654.761 62059.523 -147607.142 62011.904 -147511.904 61964.285 -147321.428 61964.285 -147083.333 62011.904 -146892.857 62059.523 -146797.619 62107.142 -146750 62202.38 -146702.38 M 62916.666 -146797.619 62964.285 -146750 63059.523 -146702.38 63297.619 -146702.38 63392.857 -146750 63440.476 -146797.619 63488.095 -146892.857 63488.095 -146988.095 63440.476 -147130.952 62869.047 -147702.38 63488.095 -147702.38 M 73918.095 -135289.523 73918.095 -134649.523 74070.476 -134649.523 74161.904 -134680 74222.857 -134740.952 74253.333 -134801.904 74283.809 -134923.809 74283.809 -135015.238 74253.333 -135137.142 74222.857 -135198.095 74161.904 -135259.047 74070.476 -135289.523 73918.095 -135289.523 M 74497.142 -134649.523 74893.333 -134649.523 74680 -134893.333 74771.428 -134893.333 74832.38 -134923.809 74862.857 -134954.285 74893.333 -135015.238 74893.333 -135167.619 74862.857 -135228.571 74832.38 -135259.047 74771.428 -135289.523 74588.571 -135289.523 74527.619 -135259.047 74497.142 -135228.571 M 75289.523 -134649.523 75350.476 -134649.523 75411.428 -134680 75441.904 -134710.476 75472.38 -134771.428 75502.857 -134893.333 75502.857 -135045.714 75472.38 -135167.619 75441.904 -135228.571 75411.428 -135259.047 75350.476 -135289.523 75289.523 -135289.523 75228.571 -135259.047 75198.095 -135228.571 75167.619 -135167.619 75137.142 -135045.714 75137.142 -134893.333 75167.619 -134771.428 75198.095 -134710.476 75228.571 -134680 75289.523 -134649.523 M 76112.38 -135289.523 75746.666 -135289.523 M 75929.523 -135289.523 75929.523 -134649.523 75868.571 -134740.952 75807.619 -134801.904 75746.666 -134832.38" fill="none" stroke-width="150"/><path d="M 96330 -135720 96330 -139280 M 96330 -140800 96330 -144360 M 93670 -138260 93670 -141820 M 93670 -143340 93670 -146450 M 93670 -128550 93670 -131660 M 93670 -145880 93670 -146450 M 93670 -133180 93670 -136740 M 96330 -129120 97850 -129120 M 96330 -130640 96330 -134200 M 93670 -128550 96330 -128550 M 93670 -146450 96330 -146450 M 96330 -128550 96330 -129120 M 64265 -118977.064 64265 -118522.936 M 65735 -118977.064 65735 -118522.936 M 87735 -138238.748 87735 -138761.252 M 86265 -138238.748 86265 -138761.252 M 66050 -157950 66050 -154550 M 69450 -154550 69450 -157950 M 66050 -154550 69450 -154550 M 69450 -157950 66050 -157950 M 72265 -122727.064 72265 -122272.936 M 73735 -122727.064 73735 -122272.936 M 72250 -157750 72250 -157550 M 75050 -154750 75250 -154950 M 75250 -157550 75250 -157750 74450 -157750 M 74450 -154750 75050 -154750 M 73050 -157750 72250 -157750 M 72250 -154750 73050 -154750 M 72250 -154950 72250 -154750 M 74450 -154750 74450 -154250 M 73050 -154750 73050 -154250 M 91750 -157750 91750 -157550 M 94550 -154750 94750 -154950 M 94750 -157550 94750 -157750 93950 -157750 M 93950 -154750 94550 -154750 M 92550 -157750 91750 -157750 M 91750 -154750 92550 -154750 M 91750 -154950 91750 -154750 M 93950 -154750 93950 -154250 M 92550 -154750 92550 -154250 M 62500 -128610 61000 -128610 M 62500 -125390 59575 -125390 M 62500 -128610 64000 -128610 M 62500 -125390 64000 -125390 M 61488.748 -152265 62011.252 -152265 M 61488.748 -153735 62011.252 -153735 M 90735 -123772.936 90735 -124227.064 M 89265 -123772.936 89265 -124227.064 M 90738.748 -115265 91261.252 -115265 M 90738.748 -116735 91261.252 -116735 M 56227.064 -128235 55772.936 -128235 M 56227.064 -126765 55772.936 -126765 M 90235 -143238.748 90235 -143761.252 M 88765 -143238.748 88765 -143761.252 M 76265 -117261.252 76265 -116738.748 M 77735 -117261.252 77735 -116738.748 M 78750 -157750 78750 -157550 M 81550 -154750 81750 -154950 M 81750 -157550 81750 -157750 80950 -157750 M 80950 -154750 81550 -154750 M 79550 -157750 78750 -157750 M 78750 -154750 79550 -154750 M 78750 -154950 78750 -154750 M 80950 -154750 80950 -154250 M 79550 -154750 79550 -154250 M 83500 -122110 82000 -122110 M 83500 -118890 80575 -118890 M 83500 -122110 85000 -122110 M 83500 -118890 85000 -118890 M 85250 -157750 85250 -157550 M 88050 -154750 88250 -154950 M 88250 -157550 88250 -157750 87450 -157750 M 87450 -154750 88050 -154750 M 86050 -157750 85250 -157750 M 85250 -154750 86050 -154750 M 85250 -154950 85250 -154750 M 87450 -154750 87450 -154250 M 86050 -154750 86050 -154250 M 90772.936 -119265 91227.064 -119265 M 90772.936 -120735 91227.064 -120735 M 54761.252 -120735 54238.748 -120735 M 54761.252 -119265 54238.748 -119265 M 59272.936 -119265 59727.064 -119265 M 59272.936 -120735 59727.064 -120735 M 85772.936 -115265 86227.064 -115265 M 85772.936 -116735 86227.064 -116735 M 58670 -131052.5 58670 -134162.5 M 58670 -143302.5 58670 -143872.5 M 58670 -131052.5 61330 -131052.5 M 58670 -143872.5 61330 -143872.5 M 58670 -135682.5 58670 -139242.5 M 61330 -131052.5 61330 -131622.5 M 58670 -140762.5 58670 -143872.5 M 61330 -133142.5 61330 -136702.5 M 61330 -138222.5 61330 -141782.5 M 61330 -131622.5 62850 -131622.5 M 97200 -124000 A 1200 1200 0 0 1 94800 -124000 1200 1200 0 0 1 97200 -124000 M 95738.748 -115265 96261.252 -115265 M 95738.748 -116735 96261.252 -116735 M 54727.064 -116735 54272.936 -116735 M 54727.064 -115265 54272.936 -115265 M 54761.252 -124735 54238.748 -124735 M 54761.252 -123265 54238.748 -123265 M 57011.252 -153735 56488.748 -153735 M 57011.252 -152265 56488.748 -152265 M 66485 -149776.248 66485 -150298.752 M 65015 -149776.248 65015 -150298.752 M 80738.748 -115265 81261.252 -115265 M 80738.748 -116735 81261.252 -116735 M 59238.748 -115265 59761.252 -115265 M 59238.748 -116735 59761.252 -116735 M 68265 -122727.064 68265 -122272.936 M 69735 -122727.064 69735 -122272.936 M 56522.936 -148265 56977.064 -148265 M 56522.936 -149735 56977.064 -149735 M 97200 -121000 A 1200 1200 0 0 1 94800 -121000 1200 1200 0 0 1 97200 -121000 M 68265 -117227.064 68265 -116772.936 M 69735 -117227.064 69735 -116772.936 M 72265 -117227.064 72265 -116772.936 M 73735 -117227.064 73735 -116772.936 M 76100 -121700 76100 -123600 M 77900 -123300 77900 -121700 M 61522.936 -148265 61977.064 -148265 M 61522.936 -149735 61977.064 -149735" fill="none" stroke-width="120"/></g></g></svg>