<svg version="1.1" xmlns="http://www.w3.org/2000/svg" xmlns:xlink="http://www.w3.org/1999/xlink" stroke-linecap="round" stroke-linejoin="round" stroke-width="0" fill-rule="evenodd" width="46.12mm" height="46.12mm" viewBox="52290 -161165 46120 46120" id="unZx-kgSziNZ00HczHmc"><defs><circle cx="0" cy="0" r="200" id="unZx-kgSziNZ00HczHmc_pad-1"/></defs><g transform="translate(0,-276210) scale(1,-1)" fill="currentColor" stroke="currentColor"><use xlink:href="#unZx-kgSziNZ00HczHmc_pad-1" x="52490" y="-117785"/><use xlink:href="#unZx-kgSziNZ00HczHmc_pad-1" x="52490" y="-125405"/><use xlink:href="#unZx-kgSziNZ00HczHmc_pad-1" x="52490" y="-133025"/><use xlink:href="#unZx-kgSziNZ00HczHmc_pad-1" x="52490" y="-140645"/><use xlink:href="#unZx-kgSziNZ00HczHmc_pad-1" x="52490" y="-148265"/><use xlink:href="#unZx-kgSziNZ00HczHmc_pad-1" x="52490" y="-155885"/><use xlink:href="#unZx-kgSziNZ00HczHmc_pad-1" x="55030" y="-160965"/><use xlink:href="#unZx-kgSziNZ00HczHmc_pad-1" x="55500" y="-125250"/><use xlink:href="#unZx-kgSziNZ00HczHmc_pad-1" x="57570" y="-122865"/><use xlink:href="#unZx-kgSziNZ00HczHmc_pad-1" x="57570" y="-130485"/><use xlink:href="#unZx-kgSziNZ00HczHmc_pad-1" x="57570" y="-138105"/><use xlink:href="#unZx-kgSziNZ00HczHmc_pad-1" x="57570" y="-145725"/><use xlink:href="#unZx-kgSziNZ00HczHmc_pad-1" x="60110" y="-150805"/><use xlink:href="#unZx-kgSziNZ00HczHmc_pad-1" x="60110" y="-158425"/><use xlink:href="#unZx-kgSziNZ00HczHmc_pad-1" x="62650" y="-115245"/><use xlink:href="#unZx-kgSziNZ00HczHmc_pad-1" x="62650" y="-135565"/><use xlink:href="#unZx-kgSziNZ00HczHmc_pad-1" x="64500" y="-122000"/><use xlink:href="#unZx-kgSziNZ00HczHmc_pad-1" x="65190" y="-140645"/><use xlink:href="#unZx-kgSziNZ00HczHmc_pad-1" x="65190" y="-153345"/><use xlink:href="#unZx-kgSziNZ00HczHmc_pad-1" x="65750" y="-125250"/><use xlink:href="#unZx-kgSziNZ00HczHmc_pad-1" x="66000" y="-123750"/><use xlink:href="#unZx-kgSziNZ00HczHmc_pad-1" x="67730" y="-145725"/><use xlink:href="#unZx-kgSziNZ00HczHmc_pad-1" x="67730" y="-158425"/><use xlink:href="#unZx-kgSziNZ00HczHmc_pad-1" x="70270" y="-127945"/><use xlink:href="#unZx-kgSziNZ00HczHmc_pad-1" x="70270" y="-135565"/><use xlink:href="#unZx-kgSziNZ00HczHmc_pad-1" x="70270" y="-150805"/><use xlink:href="#unZx-kgSziNZ00HczHmc_pad-1" x="71000" y="-149000"/><use xlink:href="#unZx-kgSziNZ00HczHmc_pad-1" x="72200" y="-135450"/><use xlink:href="#unZx-kgSziNZ00HczHmc_pad-1" x="72810" y="-143185"/><use xlink:href="#unZx-kgSziNZ00HczHmc_pad-1" x="72950" y="-140300"/><use xlink:href="#unZx-kgSziNZ00HczHmc_pad-1" x="75250" y="-125000"/><use xlink:href="#unZx-kgSziNZ00HczHmc_pad-1" x="75350" y="-115245"/><use xlink:href="#unZx-kgSziNZ00HczHmc_pad-1" x="75350" y="-130485"/><use xlink:href="#unZx-kgSziNZ00HczHmc_pad-1" x="75350" y="-148265"/><use xlink:href="#unZx-kgSziNZ00HczHmc_pad-1" x="75350" y="-158425"/><use xlink:href="#unZx-kgSziNZ00HczHmc_pad-1" x="76500" y="-120250"/><use xlink:href="#unZx-kgSziNZ00HczHmc_pad-1" x="77800" y="-139550"/><use xlink:href="#unZx-kgSziNZ00HczHmc_pad-1" x="77890" y="-153345"/><use xlink:href="#unZx-kgSziNZ00HczHmc_pad-1" x="78250" y="-125000"/><use xlink:href="#unZx-kgSziNZ00HczHmc_pad-1" x="78750" y="-117500"/><use xlink:href="#unZx-kgSziNZ00HczHmc_pad-1" x="79000" y="-149000"/><use xlink:href="#unZx-kgSziNZ00HczHmc_pad-1" x="80430" y="-127945"/><use xlink:href="#unZx-kgSziNZ00HczHmc_pad-1" x="80430" y="-135565"/><use xlink:href="#unZx-kgSziNZ00HczHmc_pad-1" x="82970" y="-117785"/><use xlink:href="#unZx-kgSziNZ00HczHmc_pad-1" x="82970" y="-140645"/><use xlink:href="#unZx-kgSziNZ00HczHmc_pad-1" x="82970" y="-148265"/><use xlink:href="#unZx-kgSziNZ00HczHmc_pad-1" x="82970" y="-155885"/><use xlink:href="#unZx-kgSziNZ00HczHmc_pad-1" x="83250" y="-120250"/><use xlink:href="#unZx-kgSziNZ00HczHmc_pad-1" x="86600" y="-123900"/><use xlink:href="#unZx-kgSziNZ00HczHmc_pad-1" x="87000" y="-119000"/><use xlink:href="#unZx-kgSziNZ00HczHmc_pad-1" x="87000" y="-136000"/><use xlink:href="#unZx-kgSziNZ00HczHmc_pad-1" x="87250" y="-126000"/><use xlink:href="#unZx-kgSziNZ00HczHmc_pad-1" x="88000" y="-120100"/><use xlink:href="#unZx-kgSziNZ00HczHmc_pad-1" x="88050" y="-130485"/><use xlink:href="#unZx-kgSziNZ00HczHmc_pad-1" x="88050" y="-143185"/><use xlink:href="#unZx-kgSziNZ00HczHmc_pad-1" x="88050" y="-150805"/><use xlink:href="#unZx-kgSziNZ00HczHmc_pad-1" x="88050" y="-158425"/><use xlink:href="#unZx-kgSziNZ00HczHmc_pad-1" x="88750" y="-117250"/><use xlink:href="#unZx-kgSziNZ00HczHmc_pad-1" x="89000" y="-121750"/><use xlink:href="#unZx-kgSziNZ00HczHmc_pad-1" x="89500" y="-126500"/><use xlink:href="#unZx-kgSziNZ00HczHmc_pad-1" x="89500" y="-138750"/><use xlink:href="#unZx-kgSziNZ00HczHmc_pad-1" x="90590" y="-135565"/><use xlink:href="#unZx-kgSziNZ00HczHmc_pad-1" x="93130" y="-122865"/><use xlink:href="#unZx-kgSziNZ00HczHmc_pad-1" x="93130" y="-140645"/><use xlink:href="#unZx-kgSziNZ00HczHmc_pad-1" x="93130" y="-155885"/><use xlink:href="#unZx-kgSziNZ00HczHmc_pad-1" x="94250" y="-117250"/><use xlink:href="#unZx-kgSziNZ00HczHmc_pad-1" x="95670" y="-117785"/><use xlink:href="#unZx-kgSziNZ00HczHmc_pad-1" x="95670" y="-127945"/><use xlink:href="#unZx-kgSziNZ00HczHmc_pad-1" x="95670" y="-148265"/><use xlink:href="#unZx-kgSziNZ00HczHmc_pad-1" x="98210" y="-133025"/><use xlink:href="#unZx-kgSziNZ00HczHmc_pad-1" x="98210" y="-143185"/><use xlink:href="#unZx-kgSziNZ00HczHmc_pad-1" x="98210" y="-153345"/><use xlink:href="#unZx-kgSziNZ00HczHmc_pad-1" x="98210" y="-160965"/></g></svg>