<svg version="1.1" xmlns="http://www.w3.org/2000/svg" xmlns:xlink="http://www.w3.org/1999/xlink" stroke-linecap="round" stroke-linejoin="round" stroke-width="0" fill-rule="evenodd" width="7.85mm" height="7.85mm" viewBox="71075 -141425 7850 7850" id="AcE8SIr4GXIioPEzxqLb"><defs><g id="AcE8SIr4GXIioPEzxqLb_pad-11"><polygon points="210,-647.5 210,647.5 -210,647.5 -210,-647.5"/><circle cx="210" cy="-647.5" r="90"/><circle cx="210" cy="647.5" r="90"/><circle cx="-210" cy="647.5" r="90"/><circle cx="-210" cy="-647.5" r="90"/><polygon points="300,-647.5 300,647.5 120,647.5 120,-647.5"/><polygon points="210,557.5 -210,557.5 -210,737.5 210,737.5"/><polygon points="-120,647.5 -120,-647.5 -300,-647.5 -300,647.5"/><polygon points="-210,-737.5 210,-737.5 210,-557.5 -210,-557.5"/></g><g id="AcE8SIr4GXIioPEzxqLb_pad-12"><polygon points="-647.5,-210 647.5,-210 647.5,210 -647.5,210"/><circle cx="-647.5" cy="-210" r="90"/><circle cx="647.5" cy="-210" r="90"/><circle cx="647.5" cy="210" r="90"/><circle cx="-647.5" cy="210" r="90"/><polygon points="-647.5,-300 647.5,-300 647.5,-120 -647.5,-120"/><polygon points="737.5,-210 737.5,210 557.5,210 557.5,-210"/><polygon points="647.5,120 -647.5,120 -647.5,300 647.5,300"/><polygon points="-557.5,210 -557.5,-210 -737.5,-210 -737.5,210"/></g><g id="AcE8SIr4GXIioPEzxqLb_pad-13"><polygon points="-210,647.5 -210,-647.5 210,-647.5 210,647.5"/><circle cx="-210" cy="647.5" r="90"/><circle cx="-210" cy="-647.5" r="90"/><circle cx="210" cy="-647.5" r="90"/><circle cx="210" cy="647.5" r="90"/><polygon points="-120,647.5 -120,-647.5 -300,-647.5 -300,647.5"/><polygon points="-210,-737.5 210,-737.5 210,-557.5 -210,-557.5"/><polygon points="300,-647.5 300,647.5 120,647.5 120,-647.5"/><polygon points="210,557.5 -210,557.5 -210,737.5 210,737.5"/></g><g id="AcE8SIr4GXIioPEzxqLb_pad-14"><polygon points="647.5,210 -647.5,210 -647.5,-210 647.5,-210"/><circle cx="647.5" cy="210" r="90"/><circle cx="-647.5" cy="210" r="90"/><circle cx="-647.5" cy="-210" r="90"/><circle cx="647.5" cy="-210" r="90"/><polygon points="647.5,120 -647.5,120 -647.5,300 647.5,300"/><polygon points="-557.5,210 -557.5,-210 -737.5,-210 -737.5,210"/><polygon points="-647.5,-300 647.5,-300 647.5,-120 -647.5,-120"/><polygon points="737.5,-210 737.5,210 557.5,210 557.5,-210"/></g></defs><g transform="translate(0,-275000) scale(1,-1)" fill="currentColor" stroke="currentColor"><path d="M 76025 -135800 73975 -135800 73975 -134600 76025 -134600 76025 -135800"/><path d="M 76025 -135800 73975 -135800 73975 -134600 76025 -134600 76025 -135800" fill="none" stroke-width="10"/><path d="M 76025 -140400 73975 -140400 73975 -139200 76025 -139200 76025 -140400"/><path d="M 76025 -140400 73975 -140400 73975 -139200 76025 -139200 76025 -140400" fill="none" stroke-width="10"/><path d="M 73725 -138100 71675 -138100 71675 -136900 73725 -136900 73725 -138100"/><path d="M 73725 -138100 71675 -138100 71675 -136900 73725 -136900 73725 -138100" fill="none" stroke-width="10"/><path d="M 76025 -138525 73975 -138525 73975 -136475 76025 -136475 76025 -138525"/><path d="M 76025 -138525 73975 -138525 73975 -136475 76025 -136475 76025 -138525" fill="none" stroke-width="10"/><path d="M 78325 -138100 76275 -138100 76275 -136900 78325 -136900 78325 -138100"/><path d="M 78325 -138100 76275 -138100 76275 -136900 78325 -136900 78325 -138100" fill="none" stroke-width="10"/><use xlink:href="#AcE8SIr4GXIioPEzxqLb_pad-11" x="77850" y="-140687.5"/><use xlink:href="#AcE8SIr4GXIioPEzxqLb_pad-12" x="71812.5" y="-140350"/><use xlink:href="#AcE8SIr4GXIioPEzxqLb_pad-13" x="72150" y="-134312.5"/><use xlink:href="#AcE8SIr4GXIioPEzxqLb_pad-14" x="78187.5" y="-134650"/></g></svg>