%TF.GenerationSoftware,KiCad,Pcbnew,6.0.6-1.fc36*%
%TF.CreationDate,2022-07-31T18:36:15+02:00*%
%TF.ProjectId,CosmicWatch-ventidue,436f736d-6963-4576-9174-63682d76656e,rev?*%
%TF.SameCoordinates,Original*%
%TF.FileFunction,Legend,Top*%
%TF.FilePolarity,Positive*%
%FSLAX46Y46*%
G04 Gerber Fmt 4.6, Leading zero omitted, Abs format (unit mm)*
G04 Created by KiCad (PCBNEW 6.0.6-1.fc36) date 2022-07-31 18:36:15*
%MOMM*%
%LPD*%
G01*
G04 APERTURE LIST*
%ADD10C,0.150000*%
%ADD11C,0.120000*%
%ADD12C,0.127000*%
%ADD13C,0.200000*%
G04 APERTURE END LIST*
D10*
X99000000Y-56000000D02*
X149000000Y-56000000D01*
X149000000Y-56000000D02*
X149000000Y-106000000D01*
X149000000Y-106000000D02*
X99000000Y-106000000D01*
X99000000Y-106000000D02*
X99000000Y-56000000D01*
%TO.C,J111*%
X92822619Y-87442380D02*
X93013095Y-87442380D01*
X93108333Y-87490000D01*
X93203571Y-87585238D01*
X93251190Y-87775714D01*
X93251190Y-88109047D01*
X93203571Y-88299523D01*
X93108333Y-88394761D01*
X93013095Y-88442380D01*
X92822619Y-88442380D01*
X92727380Y-88394761D01*
X92632142Y-88299523D01*
X92584523Y-88109047D01*
X92584523Y-87775714D01*
X92632142Y-87585238D01*
X92727380Y-87490000D01*
X92822619Y-87442380D01*
X94155952Y-88442380D02*
X93679761Y-88442380D01*
X93679761Y-87442380D01*
X94489285Y-87918571D02*
X94822619Y-87918571D01*
X94965476Y-88442380D02*
X94489285Y-88442380D01*
X94489285Y-87442380D01*
X94965476Y-87442380D01*
X95394047Y-88442380D02*
X95394047Y-87442380D01*
X95632142Y-87442380D01*
X95775000Y-87490000D01*
X95870238Y-87585238D01*
X95917857Y-87680476D01*
X95965476Y-87870952D01*
X95965476Y-88013809D01*
X95917857Y-88204285D01*
X95870238Y-88299523D01*
X95775000Y-88394761D01*
X95632142Y-88442380D01*
X95394047Y-88442380D01*
%TO.C,SW101*%
X74154761Y-55535714D02*
X74202380Y-55392857D01*
X74202380Y-55154761D01*
X74154761Y-55059523D01*
X74107142Y-55011904D01*
X74011904Y-54964285D01*
X73916666Y-54964285D01*
X73821428Y-55011904D01*
X73773809Y-55059523D01*
X73726190Y-55154761D01*
X73678571Y-55345238D01*
X73630952Y-55440476D01*
X73583333Y-55488095D01*
X73488095Y-55535714D01*
X73392857Y-55535714D01*
X73297619Y-55488095D01*
X73250000Y-55440476D01*
X73202380Y-55345238D01*
X73202380Y-55107142D01*
X73250000Y-54964285D01*
X73202380Y-54630952D02*
X74202380Y-54392857D01*
X73488095Y-54202380D01*
X74202380Y-54011904D01*
X73202380Y-53773809D01*
X74202380Y-52869047D02*
X74202380Y-53440476D01*
X74202380Y-53154761D02*
X73202380Y-53154761D01*
X73345238Y-53250000D01*
X73440476Y-53345238D01*
X73488095Y-53440476D01*
X73202380Y-52250000D02*
X73202380Y-52154761D01*
X73250000Y-52059523D01*
X73297619Y-52011904D01*
X73392857Y-51964285D01*
X73583333Y-51916666D01*
X73821428Y-51916666D01*
X74011904Y-51964285D01*
X74107142Y-52011904D01*
X74154761Y-52059523D01*
X74202380Y-52154761D01*
X74202380Y-52250000D01*
X74154761Y-52345238D01*
X74107142Y-52392857D01*
X74011904Y-52440476D01*
X73821428Y-52488095D01*
X73583333Y-52488095D01*
X73392857Y-52440476D01*
X73297619Y-52392857D01*
X73250000Y-52345238D01*
X73202380Y-52250000D01*
X74202380Y-50964285D02*
X74202380Y-51535714D01*
X74202380Y-51250000D02*
X73202380Y-51250000D01*
X73345238Y-51345238D01*
X73440476Y-51440476D01*
X73488095Y-51535714D01*
%TO.C,J108*%
X113062380Y-62285714D02*
X113776666Y-62285714D01*
X113919523Y-62333333D01*
X114014761Y-62428571D01*
X114062380Y-62571428D01*
X114062380Y-62666666D01*
X114062380Y-61285714D02*
X114062380Y-61857142D01*
X114062380Y-61571428D02*
X113062380Y-61571428D01*
X113205238Y-61666666D01*
X113300476Y-61761904D01*
X113348095Y-61857142D01*
X113062380Y-60666666D02*
X113062380Y-60571428D01*
X113110000Y-60476190D01*
X113157619Y-60428571D01*
X113252857Y-60380952D01*
X113443333Y-60333333D01*
X113681428Y-60333333D01*
X113871904Y-60380952D01*
X113967142Y-60428571D01*
X114014761Y-60476190D01*
X114062380Y-60571428D01*
X114062380Y-60666666D01*
X114014761Y-60761904D01*
X113967142Y-60809523D01*
X113871904Y-60857142D01*
X113681428Y-60904761D01*
X113443333Y-60904761D01*
X113252857Y-60857142D01*
X113157619Y-60809523D01*
X113110000Y-60761904D01*
X113062380Y-60666666D01*
X113490952Y-59761904D02*
X113443333Y-59857142D01*
X113395714Y-59904761D01*
X113300476Y-59952380D01*
X113252857Y-59952380D01*
X113157619Y-59904761D01*
X113110000Y-59857142D01*
X113062380Y-59761904D01*
X113062380Y-59571428D01*
X113110000Y-59476190D01*
X113157619Y-59428571D01*
X113252857Y-59380952D01*
X113300476Y-59380952D01*
X113395714Y-59428571D01*
X113443333Y-59476190D01*
X113490952Y-59571428D01*
X113490952Y-59761904D01*
X113538571Y-59857142D01*
X113586190Y-59904761D01*
X113681428Y-59952380D01*
X113871904Y-59952380D01*
X113967142Y-59904761D01*
X114014761Y-59857142D01*
X114062380Y-59761904D01*
X114062380Y-59571428D01*
X114014761Y-59476190D01*
X113967142Y-59428571D01*
X113871904Y-59380952D01*
X113681428Y-59380952D01*
X113586190Y-59428571D01*
X113538571Y-59476190D01*
X113490952Y-59571428D01*
%TO.C,C405*%
X62357142Y-55119047D02*
X62404761Y-55166666D01*
X62452380Y-55309523D01*
X62452380Y-55404761D01*
X62404761Y-55547619D01*
X62309523Y-55642857D01*
X62214285Y-55690476D01*
X62023809Y-55738095D01*
X61880952Y-55738095D01*
X61690476Y-55690476D01*
X61595238Y-55642857D01*
X61500000Y-55547619D01*
X61452380Y-55404761D01*
X61452380Y-55309523D01*
X61500000Y-55166666D01*
X61547619Y-55119047D01*
X61785714Y-54261904D02*
X62452380Y-54261904D01*
X61404761Y-54500000D02*
X62119047Y-54738095D01*
X62119047Y-54119047D01*
X61452380Y-53547619D02*
X61452380Y-53452380D01*
X61500000Y-53357142D01*
X61547619Y-53309523D01*
X61642857Y-53261904D01*
X61833333Y-53214285D01*
X62071428Y-53214285D01*
X62261904Y-53261904D01*
X62357142Y-53309523D01*
X62404761Y-53357142D01*
X62452380Y-53452380D01*
X62452380Y-53547619D01*
X62404761Y-53642857D01*
X62357142Y-53690476D01*
X62261904Y-53738095D01*
X62071428Y-53785714D01*
X61833333Y-53785714D01*
X61642857Y-53738095D01*
X61547619Y-53690476D01*
X61500000Y-53642857D01*
X61452380Y-53547619D01*
X61452380Y-52309523D02*
X61452380Y-52785714D01*
X61928571Y-52833333D01*
X61880952Y-52785714D01*
X61833333Y-52690476D01*
X61833333Y-52452380D01*
X61880952Y-52357142D01*
X61928571Y-52309523D01*
X62023809Y-52261904D01*
X62261904Y-52261904D01*
X62357142Y-52309523D01*
X62404761Y-52357142D01*
X62452380Y-52452380D01*
X62452380Y-52690476D01*
X62404761Y-52785714D01*
X62357142Y-52833333D01*
%TO.C,BZ101*%
X103666666Y-94428571D02*
X103809523Y-94476190D01*
X103857142Y-94523809D01*
X103904761Y-94619047D01*
X103904761Y-94761904D01*
X103857142Y-94857142D01*
X103809523Y-94904761D01*
X103714285Y-94952380D01*
X103333333Y-94952380D01*
X103333333Y-93952380D01*
X103666666Y-93952380D01*
X103761904Y-94000000D01*
X103809523Y-94047619D01*
X103857142Y-94142857D01*
X103857142Y-94238095D01*
X103809523Y-94333333D01*
X103761904Y-94380952D01*
X103666666Y-94428571D01*
X103333333Y-94428571D01*
X104238095Y-93952380D02*
X104904761Y-93952380D01*
X104238095Y-94952380D01*
X104904761Y-94952380D01*
X105809523Y-94952380D02*
X105238095Y-94952380D01*
X105523809Y-94952380D02*
X105523809Y-93952380D01*
X105428571Y-94095238D01*
X105333333Y-94190476D01*
X105238095Y-94238095D01*
X106428571Y-93952380D02*
X106523809Y-93952380D01*
X106619047Y-94000000D01*
X106666666Y-94047619D01*
X106714285Y-94142857D01*
X106761904Y-94333333D01*
X106761904Y-94571428D01*
X106714285Y-94761904D01*
X106666666Y-94857142D01*
X106619047Y-94904761D01*
X106523809Y-94952380D01*
X106428571Y-94952380D01*
X106333333Y-94904761D01*
X106285714Y-94857142D01*
X106238095Y-94761904D01*
X106190476Y-94571428D01*
X106190476Y-94333333D01*
X106238095Y-94142857D01*
X106285714Y-94047619D01*
X106333333Y-94000000D01*
X106428571Y-93952380D01*
X107714285Y-94952380D02*
X107142857Y-94952380D01*
X107428571Y-94952380D02*
X107428571Y-93952380D01*
X107333333Y-94095238D01*
X107238095Y-94190476D01*
X107142857Y-94238095D01*
%TO.C,R401*%
X62452380Y-60119047D02*
X61976190Y-60452380D01*
X62452380Y-60690476D02*
X61452380Y-60690476D01*
X61452380Y-60309523D01*
X61500000Y-60214285D01*
X61547619Y-60166666D01*
X61642857Y-60119047D01*
X61785714Y-60119047D01*
X61880952Y-60166666D01*
X61928571Y-60214285D01*
X61976190Y-60309523D01*
X61976190Y-60690476D01*
X61785714Y-59261904D02*
X62452380Y-59261904D01*
X61404761Y-59500000D02*
X62119047Y-59738095D01*
X62119047Y-59119047D01*
X61452380Y-58547619D02*
X61452380Y-58452380D01*
X61500000Y-58357142D01*
X61547619Y-58309523D01*
X61642857Y-58261904D01*
X61833333Y-58214285D01*
X62071428Y-58214285D01*
X62261904Y-58261904D01*
X62357142Y-58309523D01*
X62404761Y-58357142D01*
X62452380Y-58452380D01*
X62452380Y-58547619D01*
X62404761Y-58642857D01*
X62357142Y-58690476D01*
X62261904Y-58738095D01*
X62071428Y-58785714D01*
X61833333Y-58785714D01*
X61642857Y-58738095D01*
X61547619Y-58690476D01*
X61500000Y-58642857D01*
X61452380Y-58547619D01*
X62452380Y-57261904D02*
X62452380Y-57833333D01*
X62452380Y-57547619D02*
X61452380Y-57547619D01*
X61595238Y-57642857D01*
X61690476Y-57738095D01*
X61738095Y-57833333D01*
%TO.C,U101*%
X54785714Y-103952380D02*
X54785714Y-104761904D01*
X54833333Y-104857142D01*
X54880952Y-104904761D01*
X54976190Y-104952380D01*
X55166666Y-104952380D01*
X55261904Y-104904761D01*
X55309523Y-104857142D01*
X55357142Y-104761904D01*
X55357142Y-103952380D01*
X56357142Y-104952380D02*
X55785714Y-104952380D01*
X56071428Y-104952380D02*
X56071428Y-103952380D01*
X55976190Y-104095238D01*
X55880952Y-104190476D01*
X55785714Y-104238095D01*
X56976190Y-103952380D02*
X57071428Y-103952380D01*
X57166666Y-104000000D01*
X57214285Y-104047619D01*
X57261904Y-104142857D01*
X57309523Y-104333333D01*
X57309523Y-104571428D01*
X57261904Y-104761904D01*
X57214285Y-104857142D01*
X57166666Y-104904761D01*
X57071428Y-104952380D01*
X56976190Y-104952380D01*
X56880952Y-104904761D01*
X56833333Y-104857142D01*
X56785714Y-104761904D01*
X56738095Y-104571428D01*
X56738095Y-104333333D01*
X56785714Y-104142857D01*
X56833333Y-104047619D01*
X56880952Y-104000000D01*
X56976190Y-103952380D01*
X58261904Y-104952380D02*
X57690476Y-104952380D01*
X57976190Y-104952380D02*
X57976190Y-103952380D01*
X57880952Y-104095238D01*
X57785714Y-104190476D01*
X57690476Y-104238095D01*
%TO.C,J107*%
X115632380Y-97510714D02*
X116346666Y-97510714D01*
X116489523Y-97558333D01*
X116584761Y-97653571D01*
X116632380Y-97796428D01*
X116632380Y-97891666D01*
X116632380Y-96510714D02*
X116632380Y-97082142D01*
X116632380Y-96796428D02*
X115632380Y-96796428D01*
X115775238Y-96891666D01*
X115870476Y-96986904D01*
X115918095Y-97082142D01*
X115632380Y-95891666D02*
X115632380Y-95796428D01*
X115680000Y-95701190D01*
X115727619Y-95653571D01*
X115822857Y-95605952D01*
X116013333Y-95558333D01*
X116251428Y-95558333D01*
X116441904Y-95605952D01*
X116537142Y-95653571D01*
X116584761Y-95701190D01*
X116632380Y-95796428D01*
X116632380Y-95891666D01*
X116584761Y-95986904D01*
X116537142Y-96034523D01*
X116441904Y-96082142D01*
X116251428Y-96129761D01*
X116013333Y-96129761D01*
X115822857Y-96082142D01*
X115727619Y-96034523D01*
X115680000Y-95986904D01*
X115632380Y-95891666D01*
X115632380Y-95225000D02*
X115632380Y-94558333D01*
X116632380Y-94986904D01*
%TO.C,BT401*%
X92641904Y-57128571D02*
X92784761Y-57176190D01*
X92832380Y-57223809D01*
X92880000Y-57319047D01*
X92880000Y-57461904D01*
X92832380Y-57557142D01*
X92784761Y-57604761D01*
X92689523Y-57652380D01*
X92308571Y-57652380D01*
X92308571Y-56652380D01*
X92641904Y-56652380D01*
X92737142Y-56700000D01*
X92784761Y-56747619D01*
X92832380Y-56842857D01*
X92832380Y-56938095D01*
X92784761Y-57033333D01*
X92737142Y-57080952D01*
X92641904Y-57128571D01*
X92308571Y-57128571D01*
X93165714Y-56652380D02*
X93737142Y-56652380D01*
X93451428Y-57652380D02*
X93451428Y-56652380D01*
X94499047Y-56985714D02*
X94499047Y-57652380D01*
X94260952Y-56604761D02*
X94022857Y-57319047D01*
X94641904Y-57319047D01*
X95213333Y-56652380D02*
X95308571Y-56652380D01*
X95403809Y-56700000D01*
X95451428Y-56747619D01*
X95499047Y-56842857D01*
X95546666Y-57033333D01*
X95546666Y-57271428D01*
X95499047Y-57461904D01*
X95451428Y-57557142D01*
X95403809Y-57604761D01*
X95308571Y-57652380D01*
X95213333Y-57652380D01*
X95118095Y-57604761D01*
X95070476Y-57557142D01*
X95022857Y-57461904D01*
X94975238Y-57271428D01*
X94975238Y-57033333D01*
X95022857Y-56842857D01*
X95070476Y-56747619D01*
X95118095Y-56700000D01*
X95213333Y-56652380D01*
X96499047Y-57652380D02*
X95927619Y-57652380D01*
X96213333Y-57652380D02*
X96213333Y-56652380D01*
X96118095Y-56795238D01*
X96022857Y-56890476D01*
X95927619Y-56938095D01*
%TO.C,C407*%
X55357142Y-55119047D02*
X55404761Y-55166666D01*
X55452380Y-55309523D01*
X55452380Y-55404761D01*
X55404761Y-55547619D01*
X55309523Y-55642857D01*
X55214285Y-55690476D01*
X55023809Y-55738095D01*
X54880952Y-55738095D01*
X54690476Y-55690476D01*
X54595238Y-55642857D01*
X54500000Y-55547619D01*
X54452380Y-55404761D01*
X54452380Y-55309523D01*
X54500000Y-55166666D01*
X54547619Y-55119047D01*
X54785714Y-54261904D02*
X55452380Y-54261904D01*
X54404761Y-54500000D02*
X55119047Y-54738095D01*
X55119047Y-54119047D01*
X54452380Y-53547619D02*
X54452380Y-53452380D01*
X54500000Y-53357142D01*
X54547619Y-53309523D01*
X54642857Y-53261904D01*
X54833333Y-53214285D01*
X55071428Y-53214285D01*
X55261904Y-53261904D01*
X55357142Y-53309523D01*
X55404761Y-53357142D01*
X55452380Y-53452380D01*
X55452380Y-53547619D01*
X55404761Y-53642857D01*
X55357142Y-53690476D01*
X55261904Y-53738095D01*
X55071428Y-53785714D01*
X54833333Y-53785714D01*
X54642857Y-53738095D01*
X54547619Y-53690476D01*
X54500000Y-53642857D01*
X54452380Y-53547619D01*
X54452380Y-52880952D02*
X54452380Y-52214285D01*
X55452380Y-52642857D01*
%TO.C,D101*%
X55452380Y-77190476D02*
X54452380Y-77190476D01*
X54452380Y-76952380D01*
X54500000Y-76809523D01*
X54595238Y-76714285D01*
X54690476Y-76666666D01*
X54880952Y-76619047D01*
X55023809Y-76619047D01*
X55214285Y-76666666D01*
X55309523Y-76714285D01*
X55404761Y-76809523D01*
X55452380Y-76952380D01*
X55452380Y-77190476D01*
X55452380Y-75666666D02*
X55452380Y-76238095D01*
X55452380Y-75952380D02*
X54452380Y-75952380D01*
X54595238Y-76047619D01*
X54690476Y-76142857D01*
X54738095Y-76238095D01*
X54452380Y-75047619D02*
X54452380Y-74952380D01*
X54500000Y-74857142D01*
X54547619Y-74809523D01*
X54642857Y-74761904D01*
X54833333Y-74714285D01*
X55071428Y-74714285D01*
X55261904Y-74761904D01*
X55357142Y-74809523D01*
X55404761Y-74857142D01*
X55452380Y-74952380D01*
X55452380Y-75047619D01*
X55404761Y-75142857D01*
X55357142Y-75190476D01*
X55261904Y-75238095D01*
X55071428Y-75285714D01*
X54833333Y-75285714D01*
X54642857Y-75238095D01*
X54547619Y-75190476D01*
X54500000Y-75142857D01*
X54452380Y-75047619D01*
X55452380Y-73761904D02*
X55452380Y-74333333D01*
X55452380Y-74047619D02*
X54452380Y-74047619D01*
X54595238Y-74142857D01*
X54690476Y-74238095D01*
X54738095Y-74333333D01*
%TO.C,C406*%
X55357142Y-60119047D02*
X55404761Y-60166666D01*
X55452380Y-60309523D01*
X55452380Y-60404761D01*
X55404761Y-60547619D01*
X55309523Y-60642857D01*
X55214285Y-60690476D01*
X55023809Y-60738095D01*
X54880952Y-60738095D01*
X54690476Y-60690476D01*
X54595238Y-60642857D01*
X54500000Y-60547619D01*
X54452380Y-60404761D01*
X54452380Y-60309523D01*
X54500000Y-60166666D01*
X54547619Y-60119047D01*
X54785714Y-59261904D02*
X55452380Y-59261904D01*
X54404761Y-59500000D02*
X55119047Y-59738095D01*
X55119047Y-59119047D01*
X54452380Y-58547619D02*
X54452380Y-58452380D01*
X54500000Y-58357142D01*
X54547619Y-58309523D01*
X54642857Y-58261904D01*
X54833333Y-58214285D01*
X55071428Y-58214285D01*
X55261904Y-58261904D01*
X55357142Y-58309523D01*
X55404761Y-58357142D01*
X55452380Y-58452380D01*
X55452380Y-58547619D01*
X55404761Y-58642857D01*
X55357142Y-58690476D01*
X55261904Y-58738095D01*
X55071428Y-58785714D01*
X54833333Y-58785714D01*
X54642857Y-58738095D01*
X54547619Y-58690476D01*
X54500000Y-58642857D01*
X54452380Y-58547619D01*
X54452380Y-57357142D02*
X54452380Y-57547619D01*
X54500000Y-57642857D01*
X54547619Y-57690476D01*
X54690476Y-57785714D01*
X54880952Y-57833333D01*
X55261904Y-57833333D01*
X55357142Y-57785714D01*
X55404761Y-57738095D01*
X55452380Y-57642857D01*
X55452380Y-57452380D01*
X55404761Y-57357142D01*
X55357142Y-57309523D01*
X55261904Y-57261904D01*
X55023809Y-57261904D01*
X54928571Y-57309523D01*
X54880952Y-57357142D01*
X54833333Y-57452380D01*
X54833333Y-57642857D01*
X54880952Y-57738095D01*
X54928571Y-57785714D01*
X55023809Y-57833333D01*
%TO.C,R402*%
X59052380Y-55119047D02*
X58576190Y-55452380D01*
X59052380Y-55690476D02*
X58052380Y-55690476D01*
X58052380Y-55309523D01*
X58100000Y-55214285D01*
X58147619Y-55166666D01*
X58242857Y-55119047D01*
X58385714Y-55119047D01*
X58480952Y-55166666D01*
X58528571Y-55214285D01*
X58576190Y-55309523D01*
X58576190Y-55690476D01*
X58385714Y-54261904D02*
X59052380Y-54261904D01*
X58004761Y-54500000D02*
X58719047Y-54738095D01*
X58719047Y-54119047D01*
X58052380Y-53547619D02*
X58052380Y-53452380D01*
X58100000Y-53357142D01*
X58147619Y-53309523D01*
X58242857Y-53261904D01*
X58433333Y-53214285D01*
X58671428Y-53214285D01*
X58861904Y-53261904D01*
X58957142Y-53309523D01*
X59004761Y-53357142D01*
X59052380Y-53452380D01*
X59052380Y-53547619D01*
X59004761Y-53642857D01*
X58957142Y-53690476D01*
X58861904Y-53738095D01*
X58671428Y-53785714D01*
X58433333Y-53785714D01*
X58242857Y-53738095D01*
X58147619Y-53690476D01*
X58100000Y-53642857D01*
X58052380Y-53547619D01*
X58147619Y-52833333D02*
X58100000Y-52785714D01*
X58052380Y-52690476D01*
X58052380Y-52452380D01*
X58100000Y-52357142D01*
X58147619Y-52309523D01*
X58242857Y-52261904D01*
X58338095Y-52261904D01*
X58480952Y-52309523D01*
X59052380Y-52880952D01*
X59052380Y-52261904D01*
%TO.C,J110*%
X91952380Y-77119047D02*
X90952380Y-77119047D01*
X91666666Y-76785714D01*
X90952380Y-76452380D01*
X91952380Y-76452380D01*
X91952380Y-75976190D02*
X91285714Y-75976190D01*
X90952380Y-75976190D02*
X91000000Y-76023809D01*
X91047619Y-75976190D01*
X91000000Y-75928571D01*
X90952380Y-75976190D01*
X91047619Y-75976190D01*
X91285714Y-75500000D02*
X91952380Y-75500000D01*
X91380952Y-75500000D02*
X91333333Y-75452380D01*
X91285714Y-75357142D01*
X91285714Y-75214285D01*
X91333333Y-75119047D01*
X91428571Y-75071428D01*
X91952380Y-75071428D01*
X91952380Y-74595238D02*
X91285714Y-74595238D01*
X90952380Y-74595238D02*
X91000000Y-74642857D01*
X91047619Y-74595238D01*
X91000000Y-74547619D01*
X90952380Y-74595238D01*
X91047619Y-74595238D01*
X91000000Y-72833333D02*
X90952380Y-72928571D01*
X90952380Y-73071428D01*
X91000000Y-73214285D01*
X91095238Y-73309523D01*
X91190476Y-73357142D01*
X91380952Y-73404761D01*
X91523809Y-73404761D01*
X91714285Y-73357142D01*
X91809523Y-73309523D01*
X91904761Y-73214285D01*
X91952380Y-73071428D01*
X91952380Y-72976190D01*
X91904761Y-72833333D01*
X91857142Y-72785714D01*
X91523809Y-72785714D01*
X91523809Y-72976190D01*
X91952380Y-72357142D02*
X90952380Y-72357142D01*
X90952380Y-71976190D01*
X91000000Y-71880952D01*
X91047619Y-71833333D01*
X91142857Y-71785714D01*
X91285714Y-71785714D01*
X91380952Y-71833333D01*
X91428571Y-71880952D01*
X91476190Y-71976190D01*
X91476190Y-72357142D01*
X91904761Y-71404761D02*
X91952380Y-71261904D01*
X91952380Y-71023809D01*
X91904761Y-70928571D01*
X91857142Y-70880952D01*
X91761904Y-70833333D01*
X91666666Y-70833333D01*
X91571428Y-70880952D01*
X91523809Y-70928571D01*
X91476190Y-71023809D01*
X91428571Y-71214285D01*
X91380952Y-71309523D01*
X91333333Y-71357142D01*
X91238095Y-71404761D01*
X91142857Y-71404761D01*
X91047619Y-71357142D01*
X91000000Y-71309523D01*
X90952380Y-71214285D01*
X90952380Y-70976190D01*
X91000000Y-70833333D01*
%TO.C,U501*%
X79540714Y-88182380D02*
X79540714Y-88991904D01*
X79588333Y-89087142D01*
X79635952Y-89134761D01*
X79731190Y-89182380D01*
X79921666Y-89182380D01*
X80016904Y-89134761D01*
X80064523Y-89087142D01*
X80112142Y-88991904D01*
X80112142Y-88182380D01*
X81064523Y-88182380D02*
X80588333Y-88182380D01*
X80540714Y-88658571D01*
X80588333Y-88610952D01*
X80683571Y-88563333D01*
X80921666Y-88563333D01*
X81016904Y-88610952D01*
X81064523Y-88658571D01*
X81112142Y-88753809D01*
X81112142Y-88991904D01*
X81064523Y-89087142D01*
X81016904Y-89134761D01*
X80921666Y-89182380D01*
X80683571Y-89182380D01*
X80588333Y-89134761D01*
X80540714Y-89087142D01*
X81731190Y-88182380D02*
X81826428Y-88182380D01*
X81921666Y-88230000D01*
X81969285Y-88277619D01*
X82016904Y-88372857D01*
X82064523Y-88563333D01*
X82064523Y-88801428D01*
X82016904Y-88991904D01*
X81969285Y-89087142D01*
X81921666Y-89134761D01*
X81826428Y-89182380D01*
X81731190Y-89182380D01*
X81635952Y-89134761D01*
X81588333Y-89087142D01*
X81540714Y-88991904D01*
X81493095Y-88801428D01*
X81493095Y-88563333D01*
X81540714Y-88372857D01*
X81588333Y-88277619D01*
X81635952Y-88230000D01*
X81731190Y-88182380D01*
X83016904Y-89182380D02*
X82445476Y-89182380D01*
X82731190Y-89182380D02*
X82731190Y-88182380D01*
X82635952Y-88325238D01*
X82540714Y-88420476D01*
X82445476Y-88468095D01*
%TO.C,R403*%
X58952380Y-60119047D02*
X58476190Y-60452380D01*
X58952380Y-60690476D02*
X57952380Y-60690476D01*
X57952380Y-60309523D01*
X58000000Y-60214285D01*
X58047619Y-60166666D01*
X58142857Y-60119047D01*
X58285714Y-60119047D01*
X58380952Y-60166666D01*
X58428571Y-60214285D01*
X58476190Y-60309523D01*
X58476190Y-60690476D01*
X58285714Y-59261904D02*
X58952380Y-59261904D01*
X57904761Y-59500000D02*
X58619047Y-59738095D01*
X58619047Y-59119047D01*
X57952380Y-58547619D02*
X57952380Y-58452380D01*
X58000000Y-58357142D01*
X58047619Y-58309523D01*
X58142857Y-58261904D01*
X58333333Y-58214285D01*
X58571428Y-58214285D01*
X58761904Y-58261904D01*
X58857142Y-58309523D01*
X58904761Y-58357142D01*
X58952380Y-58452380D01*
X58952380Y-58547619D01*
X58904761Y-58642857D01*
X58857142Y-58690476D01*
X58761904Y-58738095D01*
X58571428Y-58785714D01*
X58333333Y-58785714D01*
X58142857Y-58738095D01*
X58047619Y-58690476D01*
X58000000Y-58642857D01*
X57952380Y-58547619D01*
X57952380Y-57880952D02*
X57952380Y-57261904D01*
X58333333Y-57595238D01*
X58333333Y-57452380D01*
X58380952Y-57357142D01*
X58428571Y-57309523D01*
X58523809Y-57261904D01*
X58761904Y-57261904D01*
X58857142Y-57309523D01*
X58904761Y-57357142D01*
X58952380Y-57452380D01*
X58952380Y-57738095D01*
X58904761Y-57833333D01*
X58857142Y-57880952D01*
D11*
%TO.C,J111*%
X94275000Y-107330000D02*
X92945000Y-107330000D01*
X92945000Y-107330000D02*
X92945000Y-106000000D01*
X92945000Y-104730000D02*
X92945000Y-89430000D01*
X95605000Y-89430000D02*
X92945000Y-89430000D01*
X95605000Y-104730000D02*
X92945000Y-104730000D01*
X95605000Y-104730000D02*
X95605000Y-89430000D01*
%TO.C,SW101*%
X85020000Y-51920000D02*
X74800000Y-51920000D01*
X74800000Y-51920000D02*
X74800000Y-54580000D01*
X85020000Y-54580000D02*
X74800000Y-54580000D01*
X87620000Y-54580000D02*
X86290000Y-54580000D01*
X87620000Y-53250000D02*
X87620000Y-54580000D01*
X85020000Y-51920000D02*
X85020000Y-54580000D01*
%TO.C,J108*%
X117650000Y-59670000D02*
X132950000Y-59670000D01*
X117650000Y-62330000D02*
X117650000Y-59670000D01*
X117650000Y-62330000D02*
X132950000Y-62330000D01*
X115050000Y-59670000D02*
X116380000Y-59670000D01*
X132950000Y-62330000D02*
X132950000Y-59670000D01*
X115050000Y-61000000D02*
X115050000Y-59670000D01*
%TO.C,C405*%
X64485000Y-53738748D02*
X64485000Y-54261252D01*
X63015000Y-53738748D02*
X63015000Y-54261252D01*
%TO.C,BZ101*%
X104000000Y-108020785D02*
G75*
G03*
X106999999Y-108020785I1500000J6400000D01*
G01*
X111730000Y-101620785D02*
G75*
G03*
X111730000Y-101620785I-6230000J0D01*
G01*
%TO.C,R401*%
X63015000Y-58772936D02*
X63015000Y-59227064D01*
X64485000Y-58772936D02*
X64485000Y-59227064D01*
D12*
%TO.C,U101*%
X51610000Y-50020000D02*
X69390000Y-50020000D01*
X51610000Y-110980000D02*
X51610000Y-50020000D01*
X56470000Y-110980000D02*
X56470000Y-111680000D01*
X64530000Y-110980000D02*
X64530000Y-111680000D01*
X69390000Y-50020000D02*
X69390000Y-110980000D01*
X51610000Y-110980000D02*
X56470000Y-110980000D01*
X64530000Y-111680000D02*
X56470000Y-111680000D01*
X69390000Y-110980000D02*
X64530000Y-110980000D01*
D13*
X70100000Y-104630000D02*
G75*
G03*
X70100000Y-104630000I-100000J0D01*
G01*
D11*
%TO.C,J107*%
X130440000Y-97555000D02*
X130440000Y-94895000D01*
X120220000Y-97555000D02*
X130440000Y-97555000D01*
X117620000Y-94895000D02*
X118950000Y-94895000D01*
X120220000Y-97555000D02*
X120220000Y-94895000D01*
X117620000Y-96225000D02*
X117620000Y-94895000D01*
X120220000Y-94895000D02*
X130440000Y-94895000D01*
%TO.C,BT401*%
X92650000Y-53200000D02*
X92650000Y-53950000D01*
X92650000Y-53950000D02*
X92450000Y-53950000D01*
X96100000Y-53950000D02*
X96300000Y-53950000D01*
X96900000Y-52400000D02*
X95900000Y-52400000D01*
X92140000Y-52690000D02*
X92140000Y-56110000D01*
X92650000Y-54750000D02*
X92650000Y-55600000D01*
X92450000Y-53950000D02*
X92450000Y-54750000D01*
X94375000Y-53200000D02*
X92650000Y-53200000D01*
X92650000Y-55600000D02*
X94375000Y-55600000D01*
X96300000Y-54750000D02*
X96100000Y-54750000D01*
X92140000Y-56110000D02*
X96610000Y-56110000D01*
X92450000Y-54750000D02*
X92650000Y-54750000D01*
X96610000Y-52690000D02*
X92140000Y-52690000D01*
X96100000Y-53200000D02*
X96100000Y-53950000D01*
X96610000Y-56110000D02*
X96610000Y-52690000D01*
X96300000Y-53950000D02*
X96300000Y-54750000D01*
X96100000Y-55600000D02*
X94375000Y-55600000D01*
X96100000Y-54750000D02*
X96100000Y-55600000D01*
X94375000Y-53200000D02*
X96100000Y-53200000D01*
X96900000Y-52400000D02*
X96900000Y-53400000D01*
%TO.C,C407*%
X57485000Y-54261252D02*
X57485000Y-53738748D01*
X56015000Y-54261252D02*
X56015000Y-53738748D01*
%TO.C,D101*%
X55850000Y-74700000D02*
X55850000Y-76600000D01*
X57650000Y-76300000D02*
X57650000Y-74700000D01*
%TO.C,C406*%
X57485000Y-58738748D02*
X57485000Y-59261252D01*
X56015000Y-58738748D02*
X56015000Y-59261252D01*
%TO.C,R402*%
X59515000Y-54227064D02*
X59515000Y-53772936D01*
X60985000Y-54227064D02*
X60985000Y-53772936D01*
%TO.C,J110*%
X95615786Y-66482893D02*
X92955786Y-66482893D01*
X95615786Y-79242893D02*
X95615786Y-66482893D01*
X92955786Y-79242893D02*
X92955786Y-66482893D01*
X92955786Y-81842893D02*
X92955786Y-80512893D01*
X95615786Y-79242893D02*
X92955786Y-79242893D01*
X94285786Y-81842893D02*
X92955786Y-81842893D01*
%TO.C,U501*%
X89615000Y-90240000D02*
X89615000Y-96360000D01*
X89615000Y-99340000D02*
X89615000Y-111760000D01*
X77055000Y-90240000D02*
X89615000Y-90240000D01*
X73385000Y-94550000D02*
X73385000Y-96360000D01*
X89615000Y-111760000D02*
X73385000Y-111760000D01*
X73385000Y-99350000D02*
X73385000Y-111760000D01*
%TO.C,R403*%
X59515000Y-58772936D02*
X59515000Y-59227064D01*
X60985000Y-58772936D02*
X60985000Y-59227064D01*
%TD*%
M02*
