G04 #@! TF.GenerationSoftware,KiCad,Pcbnew,6.0.6-1.fc36*
G04 #@! TF.CreationDate,2022-07-29T11:51:07+02:00*
G04 #@! TF.ProjectId,CosmicWatch-ventidue,436f736d-6963-4576-9174-63682d76656e,rev?*
G04 #@! TF.SameCoordinates,Original*
G04 #@! TF.FileFunction,Legend,Top*
G04 #@! TF.FilePolarity,Positive*
%FSLAX46Y46*%
G04 Gerber Fmt 4.6, Leading zero omitted, Abs format (unit mm)*
G04 Created by KiCad (PCBNEW 6.0.6-1.fc36) date 2022-07-29 11:51:07*
%MOMM*%
%LPD*%
G01*
G04 APERTURE LIST*
G04 Aperture macros list*
%AMRoundRect*
0 Rectangle with rounded corners*
0 $1 Rounding radius*
0 $2 $3 $4 $5 $6 $7 $8 $9 X,Y pos of 4 corners*
0 Add a 4 corners polygon primitive as box body*
4,1,4,$2,$3,$4,$5,$6,$7,$8,$9,$2,$3,0*
0 Add four circle primitives for the rounded corners*
1,1,$1+$1,$2,$3*
1,1,$1+$1,$4,$5*
1,1,$1+$1,$6,$7*
1,1,$1+$1,$8,$9*
0 Add four rect primitives between the rounded corners*
20,1,$1+$1,$2,$3,$4,$5,0*
20,1,$1+$1,$4,$5,$6,$7,0*
20,1,$1+$1,$6,$7,$8,$9,0*
20,1,$1+$1,$8,$9,$2,$3,0*%
G04 Aperture macros list end*
%ADD10C,0.150000*%
%ADD11C,0.120000*%
%ADD12C,0.127000*%
%ADD13C,0.200000*%
%ADD14R,1.700000X1.700000*%
%ADD15O,1.700000X1.700000*%
%ADD16RoundRect,0.250000X-0.475000X0.337500X-0.475000X-0.337500X0.475000X-0.337500X0.475000X0.337500X0*%
%ADD17R,2.000000X2.000000*%
%ADD18C,2.000000*%
%ADD19RoundRect,0.250000X-0.450000X0.350000X-0.450000X-0.350000X0.450000X-0.350000X0.450000X0.350000X0*%
%ADD20C,1.308000*%
%ADD21C,1.258000*%
%ADD22C,1.208000*%
%ADD23RoundRect,0.250000X-0.625000X0.350000X-0.625000X-0.350000X0.625000X-0.350000X0.625000X0.350000X0*%
%ADD24O,1.750000X1.200000*%
%ADD25RoundRect,0.250000X0.475000X-0.337500X0.475000X0.337500X-0.475000X0.337500X-0.475000X-0.337500X0*%
%ADD26R,0.375000X0.500000*%
%ADD27R,0.300000X0.650000*%
%ADD28RoundRect,0.250000X0.450000X-0.350000X0.450000X0.350000X-0.450000X0.350000X-0.450000X-0.350000X0*%
%ADD29C,3.250000*%
%ADD30RoundRect,0.250500X-0.499500X-0.499500X0.499500X-0.499500X0.499500X0.499500X-0.499500X0.499500X0*%
%ADD31C,1.500000*%
%ADD32C,2.500000*%
G04 APERTURE END LIST*
D10*
X99000000Y-56000000D02*
X149000000Y-56000000D01*
X149000000Y-56000000D02*
X149000000Y-106000000D01*
X149000000Y-106000000D02*
X99000000Y-106000000D01*
X99000000Y-106000000D02*
X99000000Y-56000000D01*
X92989285Y-108222380D02*
X92989285Y-108936666D01*
X92941666Y-109079523D01*
X92846428Y-109174761D01*
X92703571Y-109222380D01*
X92608333Y-109222380D01*
X93989285Y-109222380D02*
X93417857Y-109222380D01*
X93703571Y-109222380D02*
X93703571Y-108222380D01*
X93608333Y-108365238D01*
X93513095Y-108460476D01*
X93417857Y-108508095D01*
X94941666Y-109222380D02*
X94370238Y-109222380D01*
X94655952Y-109222380D02*
X94655952Y-108222380D01*
X94560714Y-108365238D01*
X94465476Y-108460476D01*
X94370238Y-108508095D01*
X95894047Y-109222380D02*
X95322619Y-109222380D01*
X95608333Y-109222380D02*
X95608333Y-108222380D01*
X95513095Y-108365238D01*
X95417857Y-108460476D01*
X95322619Y-108508095D01*
X74154761Y-55535714D02*
X74202380Y-55392857D01*
X74202380Y-55154761D01*
X74154761Y-55059523D01*
X74107142Y-55011904D01*
X74011904Y-54964285D01*
X73916666Y-54964285D01*
X73821428Y-55011904D01*
X73773809Y-55059523D01*
X73726190Y-55154761D01*
X73678571Y-55345238D01*
X73630952Y-55440476D01*
X73583333Y-55488095D01*
X73488095Y-55535714D01*
X73392857Y-55535714D01*
X73297619Y-55488095D01*
X73250000Y-55440476D01*
X73202380Y-55345238D01*
X73202380Y-55107142D01*
X73250000Y-54964285D01*
X73202380Y-54630952D02*
X74202380Y-54392857D01*
X73488095Y-54202380D01*
X74202380Y-54011904D01*
X73202380Y-53773809D01*
X74202380Y-52869047D02*
X74202380Y-53440476D01*
X74202380Y-53154761D02*
X73202380Y-53154761D01*
X73345238Y-53250000D01*
X73440476Y-53345238D01*
X73488095Y-53440476D01*
X73202380Y-52250000D02*
X73202380Y-52154761D01*
X73250000Y-52059523D01*
X73297619Y-52011904D01*
X73392857Y-51964285D01*
X73583333Y-51916666D01*
X73821428Y-51916666D01*
X74011904Y-51964285D01*
X74107142Y-52011904D01*
X74154761Y-52059523D01*
X74202380Y-52154761D01*
X74202380Y-52250000D01*
X74154761Y-52345238D01*
X74107142Y-52392857D01*
X74011904Y-52440476D01*
X73821428Y-52488095D01*
X73583333Y-52488095D01*
X73392857Y-52440476D01*
X73297619Y-52392857D01*
X73250000Y-52345238D01*
X73202380Y-52250000D01*
X74202380Y-50964285D02*
X74202380Y-51535714D01*
X74202380Y-51250000D02*
X73202380Y-51250000D01*
X73345238Y-51345238D01*
X73440476Y-51440476D01*
X73488095Y-51535714D01*
X113062380Y-62285714D02*
X113776666Y-62285714D01*
X113919523Y-62333333D01*
X114014761Y-62428571D01*
X114062380Y-62571428D01*
X114062380Y-62666666D01*
X114062380Y-61285714D02*
X114062380Y-61857142D01*
X114062380Y-61571428D02*
X113062380Y-61571428D01*
X113205238Y-61666666D01*
X113300476Y-61761904D01*
X113348095Y-61857142D01*
X113062380Y-60666666D02*
X113062380Y-60571428D01*
X113110000Y-60476190D01*
X113157619Y-60428571D01*
X113252857Y-60380952D01*
X113443333Y-60333333D01*
X113681428Y-60333333D01*
X113871904Y-60380952D01*
X113967142Y-60428571D01*
X114014761Y-60476190D01*
X114062380Y-60571428D01*
X114062380Y-60666666D01*
X114014761Y-60761904D01*
X113967142Y-60809523D01*
X113871904Y-60857142D01*
X113681428Y-60904761D01*
X113443333Y-60904761D01*
X113252857Y-60857142D01*
X113157619Y-60809523D01*
X113110000Y-60761904D01*
X113062380Y-60666666D01*
X113490952Y-59761904D02*
X113443333Y-59857142D01*
X113395714Y-59904761D01*
X113300476Y-59952380D01*
X113252857Y-59952380D01*
X113157619Y-59904761D01*
X113110000Y-59857142D01*
X113062380Y-59761904D01*
X113062380Y-59571428D01*
X113110000Y-59476190D01*
X113157619Y-59428571D01*
X113252857Y-59380952D01*
X113300476Y-59380952D01*
X113395714Y-59428571D01*
X113443333Y-59476190D01*
X113490952Y-59571428D01*
X113490952Y-59761904D01*
X113538571Y-59857142D01*
X113586190Y-59904761D01*
X113681428Y-59952380D01*
X113871904Y-59952380D01*
X113967142Y-59904761D01*
X114014761Y-59857142D01*
X114062380Y-59761904D01*
X114062380Y-59571428D01*
X114014761Y-59476190D01*
X113967142Y-59428571D01*
X113871904Y-59380952D01*
X113681428Y-59380952D01*
X113586190Y-59428571D01*
X113538571Y-59476190D01*
X113490952Y-59571428D01*
X62357142Y-55119047D02*
X62404761Y-55166666D01*
X62452380Y-55309523D01*
X62452380Y-55404761D01*
X62404761Y-55547619D01*
X62309523Y-55642857D01*
X62214285Y-55690476D01*
X62023809Y-55738095D01*
X61880952Y-55738095D01*
X61690476Y-55690476D01*
X61595238Y-55642857D01*
X61500000Y-55547619D01*
X61452380Y-55404761D01*
X61452380Y-55309523D01*
X61500000Y-55166666D01*
X61547619Y-55119047D01*
X61785714Y-54261904D02*
X62452380Y-54261904D01*
X61404761Y-54500000D02*
X62119047Y-54738095D01*
X62119047Y-54119047D01*
X61452380Y-53547619D02*
X61452380Y-53452380D01*
X61500000Y-53357142D01*
X61547619Y-53309523D01*
X61642857Y-53261904D01*
X61833333Y-53214285D01*
X62071428Y-53214285D01*
X62261904Y-53261904D01*
X62357142Y-53309523D01*
X62404761Y-53357142D01*
X62452380Y-53452380D01*
X62452380Y-53547619D01*
X62404761Y-53642857D01*
X62357142Y-53690476D01*
X62261904Y-53738095D01*
X62071428Y-53785714D01*
X61833333Y-53785714D01*
X61642857Y-53738095D01*
X61547619Y-53690476D01*
X61500000Y-53642857D01*
X61452380Y-53547619D01*
X61452380Y-52309523D02*
X61452380Y-52785714D01*
X61928571Y-52833333D01*
X61880952Y-52785714D01*
X61833333Y-52690476D01*
X61833333Y-52452380D01*
X61880952Y-52357142D01*
X61928571Y-52309523D01*
X62023809Y-52261904D01*
X62261904Y-52261904D01*
X62357142Y-52309523D01*
X62404761Y-52357142D01*
X62452380Y-52452380D01*
X62452380Y-52690476D01*
X62404761Y-52785714D01*
X62357142Y-52833333D01*
X103666666Y-94428571D02*
X103809523Y-94476190D01*
X103857142Y-94523809D01*
X103904761Y-94619047D01*
X103904761Y-94761904D01*
X103857142Y-94857142D01*
X103809523Y-94904761D01*
X103714285Y-94952380D01*
X103333333Y-94952380D01*
X103333333Y-93952380D01*
X103666666Y-93952380D01*
X103761904Y-94000000D01*
X103809523Y-94047619D01*
X103857142Y-94142857D01*
X103857142Y-94238095D01*
X103809523Y-94333333D01*
X103761904Y-94380952D01*
X103666666Y-94428571D01*
X103333333Y-94428571D01*
X104238095Y-93952380D02*
X104904761Y-93952380D01*
X104238095Y-94952380D01*
X104904761Y-94952380D01*
X105809523Y-94952380D02*
X105238095Y-94952380D01*
X105523809Y-94952380D02*
X105523809Y-93952380D01*
X105428571Y-94095238D01*
X105333333Y-94190476D01*
X105238095Y-94238095D01*
X106428571Y-93952380D02*
X106523809Y-93952380D01*
X106619047Y-94000000D01*
X106666666Y-94047619D01*
X106714285Y-94142857D01*
X106761904Y-94333333D01*
X106761904Y-94571428D01*
X106714285Y-94761904D01*
X106666666Y-94857142D01*
X106619047Y-94904761D01*
X106523809Y-94952380D01*
X106428571Y-94952380D01*
X106333333Y-94904761D01*
X106285714Y-94857142D01*
X106238095Y-94761904D01*
X106190476Y-94571428D01*
X106190476Y-94333333D01*
X106238095Y-94142857D01*
X106285714Y-94047619D01*
X106333333Y-94000000D01*
X106428571Y-93952380D01*
X107714285Y-94952380D02*
X107142857Y-94952380D01*
X107428571Y-94952380D02*
X107428571Y-93952380D01*
X107333333Y-94095238D01*
X107238095Y-94190476D01*
X107142857Y-94238095D01*
X62452380Y-60119047D02*
X61976190Y-60452380D01*
X62452380Y-60690476D02*
X61452380Y-60690476D01*
X61452380Y-60309523D01*
X61500000Y-60214285D01*
X61547619Y-60166666D01*
X61642857Y-60119047D01*
X61785714Y-60119047D01*
X61880952Y-60166666D01*
X61928571Y-60214285D01*
X61976190Y-60309523D01*
X61976190Y-60690476D01*
X61785714Y-59261904D02*
X62452380Y-59261904D01*
X61404761Y-59500000D02*
X62119047Y-59738095D01*
X62119047Y-59119047D01*
X61452380Y-58547619D02*
X61452380Y-58452380D01*
X61500000Y-58357142D01*
X61547619Y-58309523D01*
X61642857Y-58261904D01*
X61833333Y-58214285D01*
X62071428Y-58214285D01*
X62261904Y-58261904D01*
X62357142Y-58309523D01*
X62404761Y-58357142D01*
X62452380Y-58452380D01*
X62452380Y-58547619D01*
X62404761Y-58642857D01*
X62357142Y-58690476D01*
X62261904Y-58738095D01*
X62071428Y-58785714D01*
X61833333Y-58785714D01*
X61642857Y-58738095D01*
X61547619Y-58690476D01*
X61500000Y-58642857D01*
X61452380Y-58547619D01*
X62452380Y-57261904D02*
X62452380Y-57833333D01*
X62452380Y-57547619D02*
X61452380Y-57547619D01*
X61595238Y-57642857D01*
X61690476Y-57738095D01*
X61738095Y-57833333D01*
X54785714Y-103952380D02*
X54785714Y-104761904D01*
X54833333Y-104857142D01*
X54880952Y-104904761D01*
X54976190Y-104952380D01*
X55166666Y-104952380D01*
X55261904Y-104904761D01*
X55309523Y-104857142D01*
X55357142Y-104761904D01*
X55357142Y-103952380D01*
X56357142Y-104952380D02*
X55785714Y-104952380D01*
X56071428Y-104952380D02*
X56071428Y-103952380D01*
X55976190Y-104095238D01*
X55880952Y-104190476D01*
X55785714Y-104238095D01*
X56976190Y-103952380D02*
X57071428Y-103952380D01*
X57166666Y-104000000D01*
X57214285Y-104047619D01*
X57261904Y-104142857D01*
X57309523Y-104333333D01*
X57309523Y-104571428D01*
X57261904Y-104761904D01*
X57214285Y-104857142D01*
X57166666Y-104904761D01*
X57071428Y-104952380D01*
X56976190Y-104952380D01*
X56880952Y-104904761D01*
X56833333Y-104857142D01*
X56785714Y-104761904D01*
X56738095Y-104571428D01*
X56738095Y-104333333D01*
X56785714Y-104142857D01*
X56833333Y-104047619D01*
X56880952Y-104000000D01*
X56976190Y-103952380D01*
X58261904Y-104952380D02*
X57690476Y-104952380D01*
X57976190Y-104952380D02*
X57976190Y-103952380D01*
X57880952Y-104095238D01*
X57785714Y-104190476D01*
X57690476Y-104238095D01*
X115632380Y-97510714D02*
X116346666Y-97510714D01*
X116489523Y-97558333D01*
X116584761Y-97653571D01*
X116632380Y-97796428D01*
X116632380Y-97891666D01*
X116632380Y-96510714D02*
X116632380Y-97082142D01*
X116632380Y-96796428D02*
X115632380Y-96796428D01*
X115775238Y-96891666D01*
X115870476Y-96986904D01*
X115918095Y-97082142D01*
X115632380Y-95891666D02*
X115632380Y-95796428D01*
X115680000Y-95701190D01*
X115727619Y-95653571D01*
X115822857Y-95605952D01*
X116013333Y-95558333D01*
X116251428Y-95558333D01*
X116441904Y-95605952D01*
X116537142Y-95653571D01*
X116584761Y-95701190D01*
X116632380Y-95796428D01*
X116632380Y-95891666D01*
X116584761Y-95986904D01*
X116537142Y-96034523D01*
X116441904Y-96082142D01*
X116251428Y-96129761D01*
X116013333Y-96129761D01*
X115822857Y-96082142D01*
X115727619Y-96034523D01*
X115680000Y-95986904D01*
X115632380Y-95891666D01*
X115632380Y-95225000D02*
X115632380Y-94558333D01*
X116632380Y-94986904D01*
X90178571Y-56238095D02*
X90226190Y-56095238D01*
X90273809Y-56047619D01*
X90369047Y-56000000D01*
X90511904Y-56000000D01*
X90607142Y-56047619D01*
X90654761Y-56095238D01*
X90702380Y-56190476D01*
X90702380Y-56571428D01*
X89702380Y-56571428D01*
X89702380Y-56238095D01*
X89750000Y-56142857D01*
X89797619Y-56095238D01*
X89892857Y-56047619D01*
X89988095Y-56047619D01*
X90083333Y-56095238D01*
X90130952Y-56142857D01*
X90178571Y-56238095D01*
X90178571Y-56571428D01*
X89702380Y-55714285D02*
X89702380Y-55142857D01*
X90702380Y-55428571D02*
X89702380Y-55428571D01*
X90035714Y-54380952D02*
X90702380Y-54380952D01*
X89654761Y-54619047D02*
X90369047Y-54857142D01*
X90369047Y-54238095D01*
X89702380Y-53666666D02*
X89702380Y-53571428D01*
X89750000Y-53476190D01*
X89797619Y-53428571D01*
X89892857Y-53380952D01*
X90083333Y-53333333D01*
X90321428Y-53333333D01*
X90511904Y-53380952D01*
X90607142Y-53428571D01*
X90654761Y-53476190D01*
X90702380Y-53571428D01*
X90702380Y-53666666D01*
X90654761Y-53761904D01*
X90607142Y-53809523D01*
X90511904Y-53857142D01*
X90321428Y-53904761D01*
X90083333Y-53904761D01*
X89892857Y-53857142D01*
X89797619Y-53809523D01*
X89750000Y-53761904D01*
X89702380Y-53666666D01*
X90702380Y-52380952D02*
X90702380Y-52952380D01*
X90702380Y-52666666D02*
X89702380Y-52666666D01*
X89845238Y-52761904D01*
X89940476Y-52857142D01*
X89988095Y-52952380D01*
X55357142Y-55119047D02*
X55404761Y-55166666D01*
X55452380Y-55309523D01*
X55452380Y-55404761D01*
X55404761Y-55547619D01*
X55309523Y-55642857D01*
X55214285Y-55690476D01*
X55023809Y-55738095D01*
X54880952Y-55738095D01*
X54690476Y-55690476D01*
X54595238Y-55642857D01*
X54500000Y-55547619D01*
X54452380Y-55404761D01*
X54452380Y-55309523D01*
X54500000Y-55166666D01*
X54547619Y-55119047D01*
X54785714Y-54261904D02*
X55452380Y-54261904D01*
X54404761Y-54500000D02*
X55119047Y-54738095D01*
X55119047Y-54119047D01*
X54452380Y-53547619D02*
X54452380Y-53452380D01*
X54500000Y-53357142D01*
X54547619Y-53309523D01*
X54642857Y-53261904D01*
X54833333Y-53214285D01*
X55071428Y-53214285D01*
X55261904Y-53261904D01*
X55357142Y-53309523D01*
X55404761Y-53357142D01*
X55452380Y-53452380D01*
X55452380Y-53547619D01*
X55404761Y-53642857D01*
X55357142Y-53690476D01*
X55261904Y-53738095D01*
X55071428Y-53785714D01*
X54833333Y-53785714D01*
X54642857Y-53738095D01*
X54547619Y-53690476D01*
X54500000Y-53642857D01*
X54452380Y-53547619D01*
X54452380Y-52880952D02*
X54452380Y-52214285D01*
X55452380Y-52642857D01*
X55452380Y-77190476D02*
X54452380Y-77190476D01*
X54452380Y-76952380D01*
X54500000Y-76809523D01*
X54595238Y-76714285D01*
X54690476Y-76666666D01*
X54880952Y-76619047D01*
X55023809Y-76619047D01*
X55214285Y-76666666D01*
X55309523Y-76714285D01*
X55404761Y-76809523D01*
X55452380Y-76952380D01*
X55452380Y-77190476D01*
X55452380Y-75666666D02*
X55452380Y-76238095D01*
X55452380Y-75952380D02*
X54452380Y-75952380D01*
X54595238Y-76047619D01*
X54690476Y-76142857D01*
X54738095Y-76238095D01*
X54452380Y-75047619D02*
X54452380Y-74952380D01*
X54500000Y-74857142D01*
X54547619Y-74809523D01*
X54642857Y-74761904D01*
X54833333Y-74714285D01*
X55071428Y-74714285D01*
X55261904Y-74761904D01*
X55357142Y-74809523D01*
X55404761Y-74857142D01*
X55452380Y-74952380D01*
X55452380Y-75047619D01*
X55404761Y-75142857D01*
X55357142Y-75190476D01*
X55261904Y-75238095D01*
X55071428Y-75285714D01*
X54833333Y-75285714D01*
X54642857Y-75238095D01*
X54547619Y-75190476D01*
X54500000Y-75142857D01*
X54452380Y-75047619D01*
X55452380Y-73761904D02*
X55452380Y-74333333D01*
X55452380Y-74047619D02*
X54452380Y-74047619D01*
X54595238Y-74142857D01*
X54690476Y-74238095D01*
X54738095Y-74333333D01*
X55357142Y-60119047D02*
X55404761Y-60166666D01*
X55452380Y-60309523D01*
X55452380Y-60404761D01*
X55404761Y-60547619D01*
X55309523Y-60642857D01*
X55214285Y-60690476D01*
X55023809Y-60738095D01*
X54880952Y-60738095D01*
X54690476Y-60690476D01*
X54595238Y-60642857D01*
X54500000Y-60547619D01*
X54452380Y-60404761D01*
X54452380Y-60309523D01*
X54500000Y-60166666D01*
X54547619Y-60119047D01*
X54785714Y-59261904D02*
X55452380Y-59261904D01*
X54404761Y-59500000D02*
X55119047Y-59738095D01*
X55119047Y-59119047D01*
X54452380Y-58547619D02*
X54452380Y-58452380D01*
X54500000Y-58357142D01*
X54547619Y-58309523D01*
X54642857Y-58261904D01*
X54833333Y-58214285D01*
X55071428Y-58214285D01*
X55261904Y-58261904D01*
X55357142Y-58309523D01*
X55404761Y-58357142D01*
X55452380Y-58452380D01*
X55452380Y-58547619D01*
X55404761Y-58642857D01*
X55357142Y-58690476D01*
X55261904Y-58738095D01*
X55071428Y-58785714D01*
X54833333Y-58785714D01*
X54642857Y-58738095D01*
X54547619Y-58690476D01*
X54500000Y-58642857D01*
X54452380Y-58547619D01*
X54452380Y-57357142D02*
X54452380Y-57547619D01*
X54500000Y-57642857D01*
X54547619Y-57690476D01*
X54690476Y-57785714D01*
X54880952Y-57833333D01*
X55261904Y-57833333D01*
X55357142Y-57785714D01*
X55404761Y-57738095D01*
X55452380Y-57642857D01*
X55452380Y-57452380D01*
X55404761Y-57357142D01*
X55357142Y-57309523D01*
X55261904Y-57261904D01*
X55023809Y-57261904D01*
X54928571Y-57309523D01*
X54880952Y-57357142D01*
X54833333Y-57452380D01*
X54833333Y-57642857D01*
X54880952Y-57738095D01*
X54928571Y-57785714D01*
X55023809Y-57833333D01*
X59052380Y-55119047D02*
X58576190Y-55452380D01*
X59052380Y-55690476D02*
X58052380Y-55690476D01*
X58052380Y-55309523D01*
X58100000Y-55214285D01*
X58147619Y-55166666D01*
X58242857Y-55119047D01*
X58385714Y-55119047D01*
X58480952Y-55166666D01*
X58528571Y-55214285D01*
X58576190Y-55309523D01*
X58576190Y-55690476D01*
X58385714Y-54261904D02*
X59052380Y-54261904D01*
X58004761Y-54500000D02*
X58719047Y-54738095D01*
X58719047Y-54119047D01*
X58052380Y-53547619D02*
X58052380Y-53452380D01*
X58100000Y-53357142D01*
X58147619Y-53309523D01*
X58242857Y-53261904D01*
X58433333Y-53214285D01*
X58671428Y-53214285D01*
X58861904Y-53261904D01*
X58957142Y-53309523D01*
X59004761Y-53357142D01*
X59052380Y-53452380D01*
X59052380Y-53547619D01*
X59004761Y-53642857D01*
X58957142Y-53690476D01*
X58861904Y-53738095D01*
X58671428Y-53785714D01*
X58433333Y-53785714D01*
X58242857Y-53738095D01*
X58147619Y-53690476D01*
X58100000Y-53642857D01*
X58052380Y-53547619D01*
X58147619Y-52833333D02*
X58100000Y-52785714D01*
X58052380Y-52690476D01*
X58052380Y-52452380D01*
X58100000Y-52357142D01*
X58147619Y-52309523D01*
X58242857Y-52261904D01*
X58338095Y-52261904D01*
X58480952Y-52309523D01*
X59052380Y-52880952D01*
X59052380Y-52261904D01*
X93000071Y-82735273D02*
X93000071Y-83449559D01*
X92952452Y-83592416D01*
X92857214Y-83687654D01*
X92714357Y-83735273D01*
X92619119Y-83735273D01*
X94000071Y-83735273D02*
X93428643Y-83735273D01*
X93714357Y-83735273D02*
X93714357Y-82735273D01*
X93619119Y-82878131D01*
X93523881Y-82973369D01*
X93428643Y-83020988D01*
X94952452Y-83735273D02*
X94381024Y-83735273D01*
X94666738Y-83735273D02*
X94666738Y-82735273D01*
X94571500Y-82878131D01*
X94476262Y-82973369D01*
X94381024Y-83020988D01*
X95571500Y-82735273D02*
X95666738Y-82735273D01*
X95761976Y-82782893D01*
X95809595Y-82830512D01*
X95857214Y-82925750D01*
X95904833Y-83116226D01*
X95904833Y-83354321D01*
X95857214Y-83544797D01*
X95809595Y-83640035D01*
X95761976Y-83687654D01*
X95666738Y-83735273D01*
X95571500Y-83735273D01*
X95476262Y-83687654D01*
X95428643Y-83640035D01*
X95381024Y-83544797D01*
X95333405Y-83354321D01*
X95333405Y-83116226D01*
X95381024Y-82925750D01*
X95428643Y-82830512D01*
X95476262Y-82782893D01*
X95571500Y-82735273D01*
X79540714Y-88182380D02*
X79540714Y-88991904D01*
X79588333Y-89087142D01*
X79635952Y-89134761D01*
X79731190Y-89182380D01*
X79921666Y-89182380D01*
X80016904Y-89134761D01*
X80064523Y-89087142D01*
X80112142Y-88991904D01*
X80112142Y-88182380D01*
X81064523Y-88182380D02*
X80588333Y-88182380D01*
X80540714Y-88658571D01*
X80588333Y-88610952D01*
X80683571Y-88563333D01*
X80921666Y-88563333D01*
X81016904Y-88610952D01*
X81064523Y-88658571D01*
X81112142Y-88753809D01*
X81112142Y-88991904D01*
X81064523Y-89087142D01*
X81016904Y-89134761D01*
X80921666Y-89182380D01*
X80683571Y-89182380D01*
X80588333Y-89134761D01*
X80540714Y-89087142D01*
X81731190Y-88182380D02*
X81826428Y-88182380D01*
X81921666Y-88230000D01*
X81969285Y-88277619D01*
X82016904Y-88372857D01*
X82064523Y-88563333D01*
X82064523Y-88801428D01*
X82016904Y-88991904D01*
X81969285Y-89087142D01*
X81921666Y-89134761D01*
X81826428Y-89182380D01*
X81731190Y-89182380D01*
X81635952Y-89134761D01*
X81588333Y-89087142D01*
X81540714Y-88991904D01*
X81493095Y-88801428D01*
X81493095Y-88563333D01*
X81540714Y-88372857D01*
X81588333Y-88277619D01*
X81635952Y-88230000D01*
X81731190Y-88182380D01*
X83016904Y-89182380D02*
X82445476Y-89182380D01*
X82731190Y-89182380D02*
X82731190Y-88182380D01*
X82635952Y-88325238D01*
X82540714Y-88420476D01*
X82445476Y-88468095D01*
X58952380Y-60119047D02*
X58476190Y-60452380D01*
X58952380Y-60690476D02*
X57952380Y-60690476D01*
X57952380Y-60309523D01*
X58000000Y-60214285D01*
X58047619Y-60166666D01*
X58142857Y-60119047D01*
X58285714Y-60119047D01*
X58380952Y-60166666D01*
X58428571Y-60214285D01*
X58476190Y-60309523D01*
X58476190Y-60690476D01*
X58285714Y-59261904D02*
X58952380Y-59261904D01*
X57904761Y-59500000D02*
X58619047Y-59738095D01*
X58619047Y-59119047D01*
X57952380Y-58547619D02*
X57952380Y-58452380D01*
X58000000Y-58357142D01*
X58047619Y-58309523D01*
X58142857Y-58261904D01*
X58333333Y-58214285D01*
X58571428Y-58214285D01*
X58761904Y-58261904D01*
X58857142Y-58309523D01*
X58904761Y-58357142D01*
X58952380Y-58452380D01*
X58952380Y-58547619D01*
X58904761Y-58642857D01*
X58857142Y-58690476D01*
X58761904Y-58738095D01*
X58571428Y-58785714D01*
X58333333Y-58785714D01*
X58142857Y-58738095D01*
X58047619Y-58690476D01*
X58000000Y-58642857D01*
X57952380Y-58547619D01*
X57952380Y-57880952D02*
X57952380Y-57261904D01*
X58333333Y-57595238D01*
X58333333Y-57452380D01*
X58380952Y-57357142D01*
X58428571Y-57309523D01*
X58523809Y-57261904D01*
X58761904Y-57261904D01*
X58857142Y-57309523D01*
X58904761Y-57357142D01*
X58952380Y-57452380D01*
X58952380Y-57738095D01*
X58904761Y-57833333D01*
X58857142Y-57880952D01*
D11*
X95605000Y-104730000D02*
X95605000Y-89430000D01*
X95605000Y-89430000D02*
X92945000Y-89430000D01*
X92945000Y-104730000D02*
X92945000Y-89430000D01*
X94275000Y-107330000D02*
X92945000Y-107330000D01*
X92945000Y-107330000D02*
X92945000Y-106000000D01*
X95605000Y-104730000D02*
X92945000Y-104730000D01*
X87620000Y-53250000D02*
X87620000Y-54580000D01*
X85020000Y-51920000D02*
X85020000Y-54580000D01*
X85020000Y-51920000D02*
X74800000Y-51920000D01*
X85020000Y-54580000D02*
X74800000Y-54580000D01*
X74800000Y-51920000D02*
X74800000Y-54580000D01*
X87620000Y-54580000D02*
X86290000Y-54580000D01*
X115050000Y-61000000D02*
X115050000Y-59670000D01*
X117650000Y-62330000D02*
X117650000Y-59670000D01*
X117650000Y-59670000D02*
X132950000Y-59670000D01*
X132950000Y-62330000D02*
X132950000Y-59670000D01*
X117650000Y-62330000D02*
X132950000Y-62330000D01*
X115050000Y-59670000D02*
X116380000Y-59670000D01*
X63015000Y-53738748D02*
X63015000Y-54261252D01*
X64485000Y-53738748D02*
X64485000Y-54261252D01*
X104000000Y-108020785D02*
G75*
G03*
X106999999Y-108020785I1500000J6400000D01*
G01*
X111730000Y-101620785D02*
G75*
G03*
X111730000Y-101620785I-6230000J0D01*
G01*
X64485000Y-58772936D02*
X64485000Y-59227064D01*
X63015000Y-58772936D02*
X63015000Y-59227064D01*
D12*
X64530000Y-111680000D02*
X56470000Y-111680000D01*
X51610000Y-110980000D02*
X51610000Y-50020000D01*
X64530000Y-110980000D02*
X64530000Y-111680000D01*
X69390000Y-50020000D02*
X69390000Y-110980000D01*
X69390000Y-110980000D02*
X64530000Y-110980000D01*
X56470000Y-110980000D02*
X56470000Y-111680000D01*
X51610000Y-110980000D02*
X56470000Y-110980000D01*
X51610000Y-50020000D02*
X69390000Y-50020000D01*
D13*
X70100000Y-104630000D02*
G75*
G03*
X70100000Y-104630000I-100000J0D01*
G01*
D11*
X120220000Y-97555000D02*
X130440000Y-97555000D01*
X117620000Y-96225000D02*
X117620000Y-94895000D01*
X120220000Y-94895000D02*
X130440000Y-94895000D01*
X130440000Y-97555000D02*
X130440000Y-94895000D01*
X117620000Y-94895000D02*
X118950000Y-94895000D01*
X120220000Y-97555000D02*
X120220000Y-94895000D01*
X91540000Y-52340000D02*
X91540000Y-58460000D01*
X96460000Y-53800000D02*
X96260000Y-53800000D01*
X95650000Y-54900000D02*
X95650000Y-52950000D01*
X96460000Y-54100000D02*
X96460000Y-53800000D01*
X96260000Y-54100000D02*
X96460000Y-54100000D01*
X96360000Y-54100000D02*
X96360000Y-53800000D01*
X91540000Y-58460000D02*
X96260000Y-58460000D01*
X94950000Y-52340000D02*
X94950000Y-52950000D01*
X96260000Y-54900000D02*
X95650000Y-54900000D01*
X96560000Y-52040000D02*
X95310000Y-52040000D01*
X92650000Y-55500000D02*
X92150000Y-55500000D01*
X94950000Y-58460000D02*
X94950000Y-57850000D01*
X92150000Y-57850000D02*
X95650000Y-57850000D01*
X96560000Y-53290000D02*
X96560000Y-52040000D01*
X96260000Y-52340000D02*
X91540000Y-52340000D01*
X92150000Y-52950000D02*
X92150000Y-57850000D01*
X95650000Y-55900000D02*
X96260000Y-55900000D01*
X92150000Y-55300000D02*
X92650000Y-55300000D01*
X95650000Y-52950000D02*
X92150000Y-52950000D01*
X93650000Y-52340000D02*
X93650000Y-52950000D01*
X96260000Y-58460000D02*
X96260000Y-52340000D01*
X95650000Y-57850000D02*
X95650000Y-55900000D01*
X92150000Y-55400000D02*
X92650000Y-55400000D01*
X92650000Y-55300000D02*
X92650000Y-55500000D01*
X93650000Y-58460000D02*
X93650000Y-57850000D01*
X57485000Y-54261252D02*
X57485000Y-53738748D01*
X56015000Y-54261252D02*
X56015000Y-53738748D01*
X55850000Y-74700000D02*
X55850000Y-76600000D01*
X57650000Y-76300000D02*
X57650000Y-74700000D01*
X57485000Y-58738748D02*
X57485000Y-59261252D01*
X56015000Y-58738748D02*
X56015000Y-59261252D01*
X59515000Y-54227064D02*
X59515000Y-53772936D01*
X60985000Y-54227064D02*
X60985000Y-53772936D01*
X95615786Y-66482893D02*
X92955786Y-66482893D01*
X95615786Y-79242893D02*
X95615786Y-66482893D01*
X92955786Y-79242893D02*
X92955786Y-66482893D01*
X92955786Y-81842893D02*
X92955786Y-80512893D01*
X94285786Y-81842893D02*
X92955786Y-81842893D01*
X95615786Y-79242893D02*
X92955786Y-79242893D01*
X73385000Y-99350000D02*
X73385000Y-111760000D01*
X89615000Y-111760000D02*
X73385000Y-111760000D01*
X73385000Y-94550000D02*
X73385000Y-96360000D01*
X77055000Y-90240000D02*
X89615000Y-90240000D01*
X89615000Y-99340000D02*
X89615000Y-111760000D01*
X89615000Y-90240000D02*
X89615000Y-96360000D01*
X59515000Y-58772936D02*
X59515000Y-59227064D01*
X60985000Y-58772936D02*
X60985000Y-59227064D01*
%LPC*%
D14*
X94275000Y-106000000D03*
D15*
X94275000Y-103460000D03*
X94275000Y-100920000D03*
X94275000Y-98380000D03*
X94275000Y-95840000D03*
X94275000Y-93300000D03*
X94275000Y-90760000D03*
D14*
X86290000Y-53250000D03*
D15*
X83750000Y-53250000D03*
X81210000Y-53250000D03*
X78670000Y-53250000D03*
X76130000Y-53250000D03*
D14*
X116380000Y-61000000D03*
D15*
X118920000Y-61000000D03*
X121460000Y-61000000D03*
X124000000Y-61000000D03*
X126540000Y-61000000D03*
X129080000Y-61000000D03*
X131620000Y-61000000D03*
D16*
X63750000Y-52962500D03*
X63750000Y-55037500D03*
D17*
X105500000Y-104120785D03*
D18*
X105500000Y-99120785D03*
D19*
X63750000Y-58000000D03*
X63750000Y-60000000D03*
D20*
X68120000Y-107170000D03*
X68120000Y-104630000D03*
X68120000Y-102090000D03*
X68120000Y-99550000D03*
X68120000Y-74150000D03*
X52880000Y-104630000D03*
X63040000Y-63990000D03*
X68120000Y-97010000D03*
X68120000Y-94470000D03*
D21*
X65070000Y-103360000D03*
D20*
X68120000Y-91930000D03*
X68120000Y-89390000D03*
X68120000Y-86850000D03*
X68120000Y-84310000D03*
X68120000Y-81770000D03*
X68120000Y-79230000D03*
X68120000Y-76690000D03*
X52880000Y-76690000D03*
X52880000Y-79230000D03*
X52880000Y-81770000D03*
X52880000Y-84310000D03*
X52880000Y-86850000D03*
X52880000Y-89390000D03*
X52880000Y-91930000D03*
X52880000Y-94470000D03*
X52880000Y-97010000D03*
X52880000Y-99550000D03*
X52880000Y-102090000D03*
X68120000Y-71610000D03*
X68120000Y-69070000D03*
X68120000Y-66530000D03*
X68120000Y-63990000D03*
X68120000Y-61450000D03*
X68120000Y-58910000D03*
X68120000Y-56370000D03*
X68120000Y-53830000D03*
X68120000Y-51290000D03*
X52880000Y-51290000D03*
X52880000Y-53830000D03*
X52880000Y-56370000D03*
X52880000Y-58910000D03*
X52880000Y-61450000D03*
X52880000Y-63990000D03*
X52880000Y-66530000D03*
X52880000Y-69070000D03*
X52880000Y-71610000D03*
D21*
X65070000Y-98280000D03*
X65070000Y-100820000D03*
D20*
X68120000Y-109710000D03*
X52880000Y-74150000D03*
X52880000Y-107170000D03*
X60500000Y-63990000D03*
D22*
X57330000Y-94740000D03*
X57330000Y-96740000D03*
D20*
X55420000Y-63990000D03*
X57960000Y-63990000D03*
D22*
X55330000Y-96740000D03*
X55330000Y-94740000D03*
X59330000Y-94740000D03*
X59330000Y-96740000D03*
D21*
X65070000Y-95740000D03*
X65070000Y-93200000D03*
D20*
X65580000Y-63990000D03*
X52880000Y-109710000D03*
X55420000Y-107170000D03*
D14*
X118950000Y-96225000D03*
D15*
X121490000Y-96225000D03*
X124030000Y-96225000D03*
X126570000Y-96225000D03*
X129110000Y-96225000D03*
D23*
X94450000Y-54400000D03*
D24*
X94450000Y-56400000D03*
D25*
X56750000Y-55037500D03*
X56750000Y-52962500D03*
D26*
X56212500Y-76350000D03*
D27*
X56750000Y-76425000D03*
D26*
X57287500Y-76350000D03*
X57287500Y-74650000D03*
D27*
X56750000Y-74575000D03*
D26*
X56212500Y-74650000D03*
D16*
X56750000Y-57962500D03*
X56750000Y-60037500D03*
D28*
X60250000Y-55000000D03*
X60250000Y-53000000D03*
D14*
X94285786Y-80512893D03*
D15*
X94285786Y-77972893D03*
X94285786Y-75432893D03*
X94285786Y-72892893D03*
X94285786Y-70352893D03*
X94285786Y-67812893D03*
D29*
X75785000Y-100900000D03*
X87215000Y-100900000D03*
D30*
X77055000Y-94550000D03*
D31*
X78325000Y-92010000D03*
X79595000Y-94550000D03*
X80865000Y-92010000D03*
X82135000Y-94550000D03*
X83405000Y-92010000D03*
X84675000Y-94550000D03*
X85945000Y-92010000D03*
X75175000Y-105980000D03*
X77715000Y-104280000D03*
X85285000Y-105980000D03*
X87825000Y-104280000D03*
D32*
X89375000Y-97850000D03*
X73625000Y-97850000D03*
D19*
X60250000Y-58000000D03*
X60250000Y-60000000D03*
D14*
X116400000Y-101000000D03*
D15*
X118940000Y-101000000D03*
X121480000Y-101000000D03*
X124020000Y-101000000D03*
X126560000Y-101000000D03*
X129100000Y-101000000D03*
X131640000Y-101000000D03*
D14*
X76275000Y-86050000D03*
D15*
X76275000Y-83510000D03*
X76275000Y-80970000D03*
X76275000Y-78430000D03*
D14*
X118950000Y-66025000D03*
D15*
X121490000Y-66025000D03*
X124030000Y-66025000D03*
X126570000Y-66025000D03*
X129110000Y-66025000D03*
D14*
X76300000Y-73000000D03*
D15*
X76300000Y-70460000D03*
X76300000Y-67920000D03*
X76300000Y-65380000D03*
X76300000Y-62840000D03*
M02*
