%TF.GenerationSoftware,KiCad,Pcbnew,6.0.6-1.fc36*%
%TF.CreationDate,2022-07-31T18:36:15+02:00*%
%TF.ProjectId,CosmicWatch-ventidue,436f736d-6963-4576-9174-63682d76656e,rev?*%
%TF.SameCoordinates,Original*%
%TF.FileFunction,Soldermask,Bot*%
%TF.FilePolarity,Negative*%
%FSLAX46Y46*%
G04 Gerber Fmt 4.6, Leading zero omitted, Abs format (unit mm)*
G04 Created by KiCad (PCBNEW 6.0.6-1.fc36) date 2022-07-31 18:36:15*
%MOMM*%
%LPD*%
G01*
G04 APERTURE LIST*
G04 Aperture macros list*
%AMRoundRect*
0 Rectangle with rounded corners*
0 $1 Rounding radius*
0 $2 $3 $4 $5 $6 $7 $8 $9 X,Y pos of 4 corners*
0 Add a 4 corners polygon primitive as box body*
4,1,4,$2,$3,$4,$5,$6,$7,$8,$9,$2,$3,0*
0 Add four circle primitives for the rounded corners*
1,1,$1+$1,$2,$3*
1,1,$1+$1,$4,$5*
1,1,$1+$1,$6,$7*
1,1,$1+$1,$8,$9*
0 Add four rect primitives between the rounded corners*
20,1,$1+$1,$2,$3,$4,$5,0*
20,1,$1+$1,$4,$5,$6,$7,0*
20,1,$1+$1,$6,$7,$8,$9,0*
20,1,$1+$1,$8,$9,$2,$3,0*%
G04 Aperture macros list end*
%ADD10R,1.700000X1.700000*%
%ADD11O,1.700000X1.700000*%
%ADD12R,2.000000X2.000000*%
%ADD13C,2.000000*%
%ADD14C,1.308000*%
%ADD15C,1.258000*%
%ADD16C,1.208000*%
%ADD17RoundRect,0.200000X0.200000X0.450000X-0.200000X0.450000X-0.200000X-0.450000X0.200000X-0.450000X0*%
%ADD18O,0.800000X1.300000*%
%ADD19C,3.250000*%
%ADD20RoundRect,0.250500X-0.499500X-0.499500X0.499500X-0.499500X0.499500X0.499500X-0.499500X0.499500X0*%
%ADD21C,1.500000*%
%ADD22C,2.500000*%
%ADD23RoundRect,0.250000X-0.475000X0.337500X-0.475000X-0.337500X0.475000X-0.337500X0.475000X0.337500X0*%
%ADD24RoundRect,0.250000X-0.337500X-0.475000X0.337500X-0.475000X0.337500X0.475000X-0.337500X0.475000X0*%
%ADD25RoundRect,0.250000X0.337500X0.475000X-0.337500X0.475000X-0.337500X-0.475000X0.337500X-0.475000X0*%
%ADD26R,1.560000X0.650000*%
%ADD27R,2.000000X0.650000*%
%ADD28RoundRect,0.250000X-0.350000X-0.450000X0.350000X-0.450000X0.350000X0.450000X-0.350000X0.450000X0*%
%ADD29RoundRect,0.250001X1.074999X-0.462499X1.074999X0.462499X-1.074999X0.462499X-1.074999X-0.462499X0*%
%ADD30RoundRect,0.250000X0.475000X-0.337500X0.475000X0.337500X-0.475000X0.337500X-0.475000X-0.337500X0*%
%ADD31R,0.900000X1.200000*%
%ADD32RoundRect,0.250000X0.350000X0.450000X-0.350000X0.450000X-0.350000X-0.450000X0.350000X-0.450000X0*%
%ADD33R,3.000000X3.000000*%
G04 APERTURE END LIST*
D10*
%TO.C,J111*%
X94275000Y-106000000D03*
D11*
X94275000Y-103460000D03*
X94275000Y-100920000D03*
X94275000Y-98380000D03*
X94275000Y-95840000D03*
X94275000Y-93300000D03*
X94275000Y-90760000D03*
%TD*%
D10*
%TO.C,SW101*%
X86290000Y-53250000D03*
D11*
X83750000Y-53250000D03*
X81210000Y-53250000D03*
X78670000Y-53250000D03*
X76130000Y-53250000D03*
%TD*%
D10*
%TO.C,J108*%
X116380000Y-61000000D03*
D11*
X118920000Y-61000000D03*
X121460000Y-61000000D03*
X124000000Y-61000000D03*
X126540000Y-61000000D03*
X129080000Y-61000000D03*
X131620000Y-61000000D03*
%TD*%
D12*
%TO.C,BZ101*%
X105500000Y-104120785D03*
D13*
X105500000Y-99120785D03*
%TD*%
D14*
%TO.C,U101*%
X68120000Y-107170000D03*
X68120000Y-104630000D03*
X68120000Y-102090000D03*
X68120000Y-99550000D03*
X68120000Y-74150000D03*
X52880000Y-104630000D03*
X63040000Y-63990000D03*
X68120000Y-97010000D03*
X68120000Y-94470000D03*
D15*
X65070000Y-103360000D03*
D14*
X68120000Y-91930000D03*
X68120000Y-89390000D03*
X68120000Y-86850000D03*
X68120000Y-84310000D03*
X68120000Y-81770000D03*
X68120000Y-79230000D03*
X68120000Y-76690000D03*
X52880000Y-76690000D03*
X52880000Y-79230000D03*
X52880000Y-81770000D03*
X52880000Y-84310000D03*
X52880000Y-86850000D03*
X52880000Y-89390000D03*
X52880000Y-91930000D03*
X52880000Y-94470000D03*
X52880000Y-97010000D03*
X52880000Y-99550000D03*
X52880000Y-102090000D03*
X68120000Y-71610000D03*
X68120000Y-69070000D03*
X68120000Y-66530000D03*
X68120000Y-63990000D03*
X68120000Y-61450000D03*
X68120000Y-58910000D03*
X68120000Y-56370000D03*
X68120000Y-53830000D03*
X68120000Y-51290000D03*
X52880000Y-51290000D03*
X52880000Y-53830000D03*
X52880000Y-56370000D03*
X52880000Y-58910000D03*
X52880000Y-61450000D03*
X52880000Y-63990000D03*
X52880000Y-66530000D03*
X52880000Y-69070000D03*
X52880000Y-71610000D03*
D15*
X65070000Y-98280000D03*
X65070000Y-100820000D03*
D14*
X68120000Y-109710000D03*
X52880000Y-74150000D03*
X52880000Y-107170000D03*
X60500000Y-63990000D03*
D16*
X57330000Y-94740000D03*
X57330000Y-96740000D03*
D14*
X55420000Y-63990000D03*
X57960000Y-63990000D03*
D16*
X55330000Y-96740000D03*
X55330000Y-94740000D03*
X59330000Y-94740000D03*
X59330000Y-96740000D03*
D15*
X65070000Y-95740000D03*
X65070000Y-93200000D03*
D14*
X65580000Y-63990000D03*
X52880000Y-109710000D03*
X55420000Y-107170000D03*
%TD*%
D10*
%TO.C,J107*%
X118950000Y-96225000D03*
D11*
X121490000Y-96225000D03*
X124030000Y-96225000D03*
X126570000Y-96225000D03*
X129110000Y-96225000D03*
%TD*%
D17*
%TO.C,BT401*%
X95000000Y-53950000D03*
D18*
X93750000Y-53950000D03*
%TD*%
D10*
%TO.C,J110*%
X94285786Y-80512893D03*
D11*
X94285786Y-77972893D03*
X94285786Y-75432893D03*
X94285786Y-72892893D03*
X94285786Y-70352893D03*
X94285786Y-67812893D03*
%TD*%
D19*
%TO.C,U501*%
X75785000Y-100900000D03*
X87215000Y-100900000D03*
D20*
X77055000Y-94550000D03*
D21*
X78325000Y-92010000D03*
X79595000Y-94550000D03*
X80865000Y-92010000D03*
X82135000Y-94550000D03*
X83405000Y-92010000D03*
X84675000Y-94550000D03*
X85945000Y-92010000D03*
X75175000Y-105980000D03*
X77715000Y-104280000D03*
X85285000Y-105980000D03*
X87825000Y-104280000D03*
D22*
X73625000Y-97850000D03*
X89375000Y-97850000D03*
%TD*%
D13*
%TO.C,TP406*%
X109000000Y-53500000D03*
%TD*%
D23*
%TO.C,C501*%
X82250000Y-96962500D03*
X82250000Y-99037500D03*
%TD*%
D10*
%TO.C,J106*%
X116400000Y-101000000D03*
D11*
X118940000Y-101000000D03*
X121480000Y-101000000D03*
X124020000Y-101000000D03*
X126560000Y-101000000D03*
X129100000Y-101000000D03*
X131640000Y-101000000D03*
%TD*%
D24*
%TO.C,C403*%
X102737500Y-73950000D03*
X104812500Y-73950000D03*
%TD*%
D25*
%TO.C,C404*%
X58537500Y-53000000D03*
X56462500Y-53000000D03*
%TD*%
D26*
%TO.C,U401*%
X107362500Y-70700000D03*
X107362500Y-69750000D03*
X107362500Y-68800000D03*
X110062500Y-68800000D03*
X110062500Y-70700000D03*
%TD*%
D27*
%TO.C,U402*%
X64750000Y-57300000D03*
X64750000Y-58250000D03*
X64750000Y-59200000D03*
X61330000Y-59200000D03*
X61330000Y-58250000D03*
X61330000Y-57300000D03*
%TD*%
D10*
%TO.C,J109*%
X76275000Y-86050000D03*
D11*
X76275000Y-83510000D03*
X76275000Y-80970000D03*
X76275000Y-78430000D03*
%TD*%
D28*
%TO.C,R106*%
X55500000Y-71500000D03*
X57500000Y-71500000D03*
%TD*%
D13*
%TO.C,TP404*%
X99000000Y-53500000D03*
%TD*%
%TO.C,TP403*%
X104000000Y-53500000D03*
%TD*%
D29*
%TO.C,L401*%
X57250000Y-60237500D03*
X57250000Y-57262500D03*
%TD*%
D13*
%TO.C,TP405*%
X119000000Y-53500000D03*
%TD*%
D28*
%TO.C,R105*%
X55750000Y-84500000D03*
X57750000Y-84500000D03*
%TD*%
D25*
%TO.C,C402*%
X109750000Y-74000000D03*
X107675000Y-74000000D03*
%TD*%
D30*
%TO.C,C401*%
X103962500Y-70787500D03*
X103962500Y-68712500D03*
%TD*%
D13*
%TO.C,TP402*%
X114000000Y-53500000D03*
%TD*%
D31*
%TO.C,D401*%
X64650000Y-53250000D03*
X61350000Y-53250000D03*
%TD*%
D32*
%TO.C,R102*%
X102750000Y-104250000D03*
X100750000Y-104250000D03*
%TD*%
D10*
%TO.C,J105*%
X118950000Y-66025000D03*
D11*
X121490000Y-66025000D03*
X124030000Y-66025000D03*
X126570000Y-66025000D03*
X129110000Y-66025000D03*
%TD*%
D10*
%TO.C,J112*%
X76300000Y-73000000D03*
D11*
X76300000Y-70460000D03*
X76300000Y-67920000D03*
X76300000Y-65380000D03*
X76300000Y-62840000D03*
%TD*%
D33*
%TO.C,TP401*%
X124000000Y-53500000D03*
%TD*%
M02*
