M48
; DRILL file {KiCad 6.0.6-1.fc36} date Sun 31 Jul 2022 18:36:17 CEST
; FORMAT={-:-/ absolute / inch / decimal}
; #@! TF.CreationDate,2022-07-31T18:36:17+02:00
; #@! TF.GenerationSoftware,Kicad,Pcbnew,6.0.6-1.fc36
; #@! TF.FileFunction,Plated,1,2,PTH
FMAT,2
INCH
; #@! TA.AperFunction,Plated,PTH,ViaDrill
T1C0.0157
; #@! TA.AperFunction,Plated,PTH,ComponentDrill
T2C0.0197
; #@! TA.AperFunction,Plated,PTH,ComponentDrill
T3C0.0276
; #@! TA.AperFunction,Plated,PTH,ComponentDrill
T4C0.0295
; #@! TA.AperFunction,Plated,PTH,ComponentDrill
T5C0.0315
; #@! TA.AperFunction,Plated,PTH,ComponentDrill
T6C0.0354
; #@! TA.AperFunction,Plated,PTH,ComponentDrill
T7C0.0394
; #@! TA.AperFunction,Plated,PTH,ComponentDrill
T8C0.0402
; #@! TA.AperFunction,Plated,PTH,ComponentDrill
T9C0.0630
%
G90
G05
T1
X2.1665Y-2.6372
X2.1665Y-2.9372
X2.1665Y-3.4372
X2.1665Y-4.0372
X2.2665Y-3.2372
X2.3665Y-2.7372
X2.3665Y-3.0372
X2.3819Y-3.1654
X2.3819Y-4.3307
X2.4213Y-2.4409
X2.4213Y-2.6063
X2.4242Y-3.4252
X2.4449Y-3.8189
X2.4606Y-2.6535
X2.5595Y-2.5955
X2.5984Y-2.0866
X2.5984Y-2.1654
X2.5984Y-2.3622
X2.6024Y-3.0236
X2.626Y-2.4331
X2.6339Y-3.1654
X2.7598Y-2.3386
X2.7665Y-2.8372
X2.7665Y-3.8372
X2.815Y-2.2992
X2.8543Y-2.4488
X2.8622Y-2.2992
X2.8665Y-3.0372
X2.9173Y-2.2992
X2.9626Y-3.002
X3.1665Y-2.5372
X3.1665Y-2.9372
X3.1665Y-3.2372
X3.1665Y-4.1372
X3.1693Y-3.9665
X3.2665Y-2.7372
X3.2972Y-2.1752
X3.3665Y-3.0372
X3.3665Y-3.3372
X3.3665Y-3.8372
X3.4665Y-2.1372
X3.4665Y-2.5372
X3.5394Y-3.4409
X3.5472Y-3.5276
X3.5665Y-2.7372
X3.5665Y-3.1372
X3.5665Y-3.9372
X3.7047Y-2.3701
X3.7047Y-3.4409
X3.7362Y-2.4094
X3.8665Y-2.2372
X3.8665Y-2.8372
X3.8665Y-3.1372
X3.8665Y-3.5372
X3.8665Y-3.8372
X3.9665Y-4.2372
X4.1665Y-2.6372
X4.1665Y-3.2372
X4.1665Y-3.5372
X4.2665Y-2.2372
X4.2665Y-3.7372
X4.2665Y-4.0372
X4.2789Y-2.7087
X4.3665Y-2.0372
X4.3665Y-3.0372
X4.3665Y-3.3372
X4.4665Y-2.8372
X4.4665Y-3.5372
X4.4665Y-3.8372
X4.5665Y-2.1372
X4.5665Y-2.6372
X4.5665Y-3.1372
X4.5665Y-4.2372
X4.6665Y-2.9372
X4.6665Y-3.3372
X4.6665Y-3.6372
X4.7665Y-2.0372
X4.7665Y-4.1372
X4.8665Y-2.2372
X4.8665Y-2.7372
X4.8665Y-3.0372
X4.8665Y-3.4372
X4.9665Y-4.2372
X5.0665Y-2.0372
X5.0665Y-2.8372
X5.0665Y-3.1372
X5.0665Y-3.5372
X5.1665Y-2.2372
X5.1665Y-2.5372
X5.1665Y-3.3372
X5.1665Y-3.7372
X5.1665Y-4.1372
X5.2665Y-2.7372
X5.2665Y-3.0372
X5.2665Y-3.9372
X5.3665Y-2.0372
X5.3665Y-2.3372
X5.3665Y-3.2372
X5.3665Y-3.5372
X5.3665Y-4.2372
X5.4665Y-2.5372
X5.4665Y-2.8372
X5.4665Y-3.7372
X5.4665Y-4.0372
X5.5665Y-2.1372
X5.5665Y-3.0372
X5.5665Y-3.3372
X5.6665Y-2.3372
X5.6665Y-2.6372
X5.6665Y-3.5372
X5.6665Y-3.8372
X5.6665Y-4.1372
X5.7665Y-2.0372
X5.7665Y-2.8372
X5.7665Y-3.1372
X5.8665Y-2.2372
X5.8665Y-2.5372
X5.8665Y-3.3372
X5.8665Y-3.6372
X5.8665Y-3.9372
X5.8665Y-4.2372
T2
X3.6909Y-2.124
X3.7402Y-2.124
T3
X2.1783Y-3.7299
X2.1783Y-3.8087
X2.2571Y-3.7299
X2.2571Y-3.8087
X2.3358Y-3.7299
X2.3358Y-3.8087
T4
X2.5618Y-3.6693
X2.5618Y-3.7693
X2.5618Y-3.8693
X2.5618Y-3.9693
X2.5618Y-4.0693
T5
X2.0819Y-2.0193
X2.0819Y-2.1193
X2.0819Y-2.2193
X2.0819Y-2.3193
X2.0819Y-2.4193
X2.0819Y-2.5193
X2.0819Y-2.6193
X2.0819Y-2.7193
X2.0819Y-2.8193
X2.0819Y-2.9193
X2.0819Y-3.0193
X2.0819Y-3.1193
X2.0819Y-3.2193
X2.0819Y-3.3193
X2.0819Y-3.4193
X2.0819Y-3.5193
X2.0819Y-3.6193
X2.0819Y-3.7193
X2.0819Y-3.8193
X2.0819Y-3.9193
X2.0819Y-4.0193
X2.0819Y-4.1193
X2.0819Y-4.2193
X2.0819Y-4.3193
X2.1819Y-2.5193
X2.1819Y-4.2193
X2.2819Y-2.5193
X2.3819Y-2.5193
X2.4819Y-2.5193
X2.5819Y-2.5193
X2.6819Y-2.0193
X2.6819Y-2.1193
X2.6819Y-2.2193
X2.6819Y-2.3193
X2.6819Y-2.4193
X2.6819Y-2.5193
X2.6819Y-2.6193
X2.6819Y-2.7193
X2.6819Y-2.8193
X2.6819Y-2.9193
X2.6819Y-3.0193
X2.6819Y-3.1193
X2.6819Y-3.2193
X2.6819Y-3.3193
X2.6819Y-3.4193
X2.6819Y-3.5193
X2.6819Y-3.6193
X2.6819Y-3.7193
X2.6819Y-3.8193
X2.6819Y-3.9193
X2.6819Y-4.0193
X2.6819Y-4.1193
X2.6819Y-4.2193
X2.6819Y-4.3193
T6
X3.0337Y-3.7224
X3.0837Y-3.6224
X3.1337Y-3.7224
X3.1837Y-3.6224
X3.2337Y-3.7224
X3.2837Y-3.6224
X3.3337Y-3.7224
X3.3837Y-3.6224
T7
X2.9972Y-2.0965
X3.003Y-3.0878
X3.003Y-3.1878
X3.003Y-3.2878
X3.003Y-3.3878
X3.0039Y-2.474
X3.0039Y-2.574
X3.0039Y-2.674
X3.0039Y-2.774
X3.0039Y-2.874
X3.0972Y-2.0965
X3.1972Y-2.0965
X3.2972Y-2.0965
X3.3972Y-2.0965
X3.7116Y-3.5732
X3.7116Y-3.6732
X3.7116Y-3.7732
X3.7116Y-3.8732
X3.7116Y-3.9732
X3.7116Y-4.0732
X3.7116Y-4.1732
X3.712Y-2.6698
X3.712Y-2.7698
X3.712Y-2.8698
X3.712Y-2.9698
X3.712Y-3.0698
X3.712Y-3.1698
X4.1535Y-3.9024
X4.1535Y-4.0992
X4.5819Y-2.4016
X4.5827Y-3.9764
X4.6819Y-2.4016
X4.6827Y-3.9764
X4.6831Y-2.5994
X4.6831Y-3.7884
X4.7819Y-2.4016
X4.7827Y-3.9764
X4.7831Y-2.5994
X4.7831Y-3.7884
X4.8819Y-2.4016
X4.8827Y-3.9764
X4.8831Y-2.5994
X4.8831Y-3.7884
X4.9819Y-2.4016
X4.9827Y-3.9764
X4.9831Y-2.5994
X4.9831Y-3.7884
X5.0819Y-2.4016
X5.0827Y-3.9764
X5.0831Y-2.5994
X5.0831Y-3.7884
X5.1819Y-2.4016
X5.1827Y-3.9764
T8
X2.9596Y-4.1724
X3.0596Y-4.1055
X3.3577Y-4.1724
X3.4577Y-4.1055
T9
X2.8986Y-3.8524
X3.5187Y-3.8524
T0
M30
