M48
; DRILL file {KiCad 6.0.6-1.fc36} date Fri 29 Jul 2022 11:51:28 CEST
; FORMAT={-:-/ absolute / metric / decimal}
; #@! TF.CreationDate,2022-07-29T11:51:28+02:00
; #@! TF.GenerationSoftware,Kicad,Pcbnew,6.0.6-1.fc36
; #@! TF.FileFunction,MixedPlating,1,2
FMAT,2
METRIC
; #@! TA.AperFunction,Plated,PTH,ViaDrill
T1C0.400
; #@! TA.AperFunction,Plated,PTH,ComponentDrill
T2C0.700
; #@! TA.AperFunction,Plated,PTH,ComponentDrill
T3C0.750
; #@! TA.AperFunction,Plated,PTH,ComponentDrill
T4C0.800
; #@! TA.AperFunction,Plated,PTH,ComponentDrill
T5C0.900
; #@! TA.AperFunction,Plated,PTH,ComponentDrill
T6C1.000
; #@! TA.AperFunction,Plated,PTH,ComponentDrill
T7C1.020
; #@! TA.AperFunction,Plated,PTH,ComponentDrill
T8C1.600
; #@! TA.AperFunction,NonPlated,NPTH,ComponentDrill
T9C3.250
%
G90
G05
T1
X55.03Y-66.985
X55.03Y-74.605
X55.03Y-87.305
X55.03Y-102.545
X57.57Y-82.225
X60.11Y-69.525
X60.11Y-77.145
X60.5Y-80.4
X60.5Y-110.0
X61.5Y-62.0
X61.5Y-66.2
X61.575Y-87.0
X62.1Y-97.0
X62.5Y-67.4
X65.012Y-65.924
X66.0Y-53.0
X66.0Y-55.0
X66.0Y-60.0
X66.1Y-76.8
X66.7Y-61.8
X66.9Y-80.4
X70.1Y-59.4
X70.27Y-72.065
X70.27Y-97.465
X71.5Y-58.4
X72.5Y-62.2
X72.7Y-58.4
X72.81Y-77.145
X74.1Y-58.4
X75.25Y-76.25
X80.43Y-64.445
X80.43Y-74.605
X80.43Y-82.225
X80.43Y-105.085
X80.5Y-100.75
X82.97Y-69.525
X83.75Y-55.25
X85.51Y-77.145
X85.51Y-84.765
X85.51Y-97.465
X88.05Y-54.285
X88.05Y-64.445
X89.9Y-87.4
X90.1Y-89.6
X90.59Y-69.525
X90.59Y-79.685
X90.59Y-100.005
X94.1Y-60.2
X94.1Y-87.4
X94.9Y-61.2
X98.21Y-56.825
X98.21Y-72.065
X98.21Y-79.685
X98.21Y-89.845
X98.21Y-97.465
X100.75Y-107.625
X105.83Y-66.985
X105.83Y-82.225
X105.83Y-89.845
X108.37Y-56.825
X108.37Y-94.925
X108.37Y-102.545
X108.683Y-68.8
X110.91Y-51.745
X110.91Y-77.145
X110.91Y-84.765
X113.45Y-72.065
X113.45Y-89.845
X113.45Y-97.465
X115.99Y-54.285
X115.99Y-66.985
X115.99Y-79.685
X115.99Y-107.625
X118.53Y-74.605
X118.53Y-84.765
X118.53Y-92.385
X121.07Y-51.745
X121.07Y-105.085
X123.61Y-56.825
X123.61Y-69.525
X123.61Y-77.145
X123.61Y-87.305
X126.15Y-107.625
X128.69Y-51.745
X128.69Y-72.065
X128.69Y-79.685
X128.69Y-89.845
X131.23Y-56.825
X131.23Y-64.445
X131.23Y-84.765
X131.23Y-94.925
X131.23Y-105.085
X133.77Y-69.525
X133.77Y-77.145
X133.77Y-100.005
X136.31Y-51.745
X136.31Y-59.365
X136.31Y-82.225
X136.31Y-89.845
X136.31Y-107.625
X138.85Y-64.445
X138.85Y-72.065
X138.85Y-94.925
X138.85Y-102.545
X141.39Y-54.285
X141.39Y-77.145
X141.39Y-84.765
X143.93Y-59.365
X143.93Y-66.985
X143.93Y-89.845
X143.93Y-97.465
X143.93Y-105.085
X146.47Y-51.745
X146.47Y-72.065
X146.47Y-79.685
X149.01Y-56.825
X149.01Y-64.445
X149.01Y-84.765
X149.01Y-92.385
X149.01Y-100.005
X149.01Y-107.625
T2
X55.33Y-94.74
X55.33Y-96.74
X57.33Y-94.74
X57.33Y-96.74
X59.33Y-94.74
X59.33Y-96.74
T3
X65.07Y-93.2
X65.07Y-95.74
X65.07Y-98.28
X65.07Y-100.82
X65.07Y-103.36
X94.45Y-54.4
X94.45Y-56.4
T4
X52.88Y-51.29
X52.88Y-53.83
X52.88Y-56.37
X52.88Y-58.91
X52.88Y-61.45
X52.88Y-63.99
X52.88Y-66.53
X52.88Y-69.07
X52.88Y-71.61
X52.88Y-74.15
X52.88Y-76.69
X52.88Y-79.23
X52.88Y-81.77
X52.88Y-84.31
X52.88Y-86.85
X52.88Y-89.39
X52.88Y-91.93
X52.88Y-94.47
X52.88Y-97.01
X52.88Y-99.55
X52.88Y-102.09
X52.88Y-104.63
X52.88Y-107.17
X52.88Y-109.71
X55.42Y-63.99
X55.42Y-107.17
X57.96Y-63.99
X60.5Y-63.99
X63.04Y-63.99
X65.58Y-63.99
X68.12Y-51.29
X68.12Y-53.83
X68.12Y-56.37
X68.12Y-58.91
X68.12Y-61.45
X68.12Y-63.99
X68.12Y-66.53
X68.12Y-69.07
X68.12Y-71.61
X68.12Y-74.15
X68.12Y-76.69
X68.12Y-79.23
X68.12Y-81.77
X68.12Y-84.31
X68.12Y-86.85
X68.12Y-89.39
X68.12Y-91.93
X68.12Y-94.47
X68.12Y-97.01
X68.12Y-99.55
X68.12Y-102.09
X68.12Y-104.63
X68.12Y-107.17
X68.12Y-109.71
T5
X77.055Y-94.55
X78.325Y-92.01
X79.595Y-94.55
X80.865Y-92.01
X82.135Y-94.55
X83.405Y-92.01
X84.675Y-94.55
X85.945Y-92.01
T6
X76.13Y-53.25
X76.275Y-78.43
X76.275Y-80.97
X76.275Y-83.51
X76.275Y-86.05
X76.3Y-62.84
X76.3Y-65.38
X76.3Y-67.92
X76.3Y-70.46
X76.3Y-73.0
X78.67Y-53.25
X81.21Y-53.25
X83.75Y-53.25
X86.29Y-53.25
X94.275Y-90.76
X94.275Y-93.3
X94.275Y-95.84
X94.275Y-98.38
X94.275Y-100.92
X94.275Y-103.46
X94.275Y-106.0
X94.286Y-67.813
X94.286Y-70.353
X94.286Y-72.893
X94.286Y-75.433
X94.286Y-77.973
X94.286Y-80.513
X105.5Y-99.121
X105.5Y-104.121
X116.38Y-61.0
X116.4Y-101.0
X118.92Y-61.0
X118.94Y-101.0
X118.95Y-66.025
X118.95Y-96.225
X121.46Y-61.0
X121.48Y-101.0
X121.49Y-66.025
X121.49Y-96.225
X124.0Y-61.0
X124.02Y-101.0
X124.03Y-66.025
X124.03Y-96.225
X126.54Y-61.0
X126.56Y-101.0
X126.57Y-66.025
X126.57Y-96.225
X129.08Y-61.0
X129.1Y-101.0
X129.11Y-66.025
X129.11Y-96.225
X131.62Y-61.0
X131.64Y-101.0
T7
X75.175Y-105.98
X77.715Y-104.28
X85.285Y-105.98
X87.825Y-104.28
T8
X73.625Y-97.85
X89.375Y-97.85
T9
X75.785Y-100.9
X87.215Y-100.9
T0
M30
