%FSLAX45Y45*%
G04 Gerber Fmt 4.5, Leading zero omitted, Abs format (unit mm)*
G04 Created by KiCad (PCBNEW 6.0.6-1.fc36) date 2022-07-29 12:50:03*
%MOMM*%
%LPD*%
G01*
G04 APERTURE LIST*
%TA.AperFunction,Profile*%
%ADD10C,0.100000*%
%TD*%
%ADD11C,0.200000*%
%ADD12C,0.040000*%
%ADD13C,0.070000*%
%ADD14C,0.075000*%
%ADD15C,0.080000*%
%ADD16C,0.090000*%
%ADD17C,0.100000*%
%ADD18C,0.102000*%
%ADD19C,0.160000*%
%ADD20C,0.325000*%
G04 APERTURE END LIST*
D10*
X5100000Y-5000000D02*
G75*
G03*
X5000000Y-5100000I0J-100000D01*
G01*
X15150000Y-11100000D02*
G75*
G03*
X15250000Y-11000000I0J100000D01*
G01*
X5100000Y-11100000D02*
X15150000Y-11100000D01*
X15150000Y-5000000D02*
X5100000Y-5000000D01*
X5000000Y-11000000D02*
G75*
G03*
X5100000Y-11100000I100000J0D01*
G01*
X15250000Y-5100000D02*
G75*
G03*
X15150000Y-5000000I-100000J0D01*
G01*
X5000000Y-5100000D02*
X5000000Y-11000000D01*
X15250000Y-11000000D02*
X15250000Y-5100000D01*
D11*
D12*
X5483000Y-6678500D02*
X5523000Y-6718500D01*
X5523000Y-6678500D02*
X5483000Y-6718500D01*
X5483000Y-7440500D02*
X5523000Y-7480500D01*
X5523000Y-7440500D02*
X5483000Y-7480500D01*
X5483000Y-8710500D02*
X5523000Y-8750500D01*
X5523000Y-8710500D02*
X5483000Y-8750500D01*
X5483000Y-10234500D02*
X5523000Y-10274500D01*
X5523000Y-10234500D02*
X5483000Y-10274500D01*
X5737000Y-8202500D02*
X5777000Y-8242500D01*
X5777000Y-8202500D02*
X5737000Y-8242500D01*
X5991000Y-6932500D02*
X6031000Y-6972500D01*
X6031000Y-6932500D02*
X5991000Y-6972500D01*
X5991000Y-7694500D02*
X6031000Y-7734500D01*
X6031000Y-7694500D02*
X5991000Y-7734500D01*
X6030000Y-8020000D02*
X6070000Y-8060000D01*
X6070000Y-8020000D02*
X6030000Y-8060000D01*
X6030000Y-10980000D02*
X6070000Y-11020000D01*
X6070000Y-10980000D02*
X6030000Y-11020000D01*
X6080000Y-9130000D02*
X6120000Y-9170000D01*
X6120000Y-9130000D02*
X6080000Y-9170000D01*
X6130000Y-6180000D02*
X6170000Y-6220000D01*
X6170000Y-6180000D02*
X6130000Y-6220000D01*
X6130000Y-6600000D02*
X6170000Y-6640000D01*
X6170000Y-6600000D02*
X6130000Y-6640000D01*
X6137550Y-8680000D02*
X6177550Y-8720000D01*
X6177550Y-8680000D02*
X6137550Y-8720000D01*
X6190000Y-9680000D02*
X6230000Y-9720000D01*
X6230000Y-9680000D02*
X6190000Y-9720000D01*
X6230000Y-6720000D02*
X6270000Y-6760000D01*
X6270000Y-6720000D02*
X6230000Y-6760000D01*
X6481230Y-6572450D02*
X6521230Y-6612450D01*
X6521230Y-6572450D02*
X6481230Y-6612450D01*
X6580000Y-5280000D02*
X6620000Y-5320000D01*
X6620000Y-5280000D02*
X6580000Y-5320000D01*
X6580000Y-5480000D02*
X6620000Y-5520000D01*
X6620000Y-5480000D02*
X6580000Y-5520000D01*
X6580000Y-5980000D02*
X6620000Y-6020000D01*
X6620000Y-5980000D02*
X6580000Y-6020000D01*
X6580000Y-8930000D02*
X6620000Y-8970000D01*
X6620000Y-8930000D02*
X6580000Y-8970000D01*
X6590000Y-7660000D02*
X6630000Y-7700000D01*
X6630000Y-7660000D02*
X6590000Y-7700000D01*
X6650000Y-6160000D02*
X6690000Y-6200000D01*
X6690000Y-6160000D02*
X6650000Y-6200000D01*
X6670000Y-8020000D02*
X6710000Y-8060000D01*
X6710000Y-8020000D02*
X6670000Y-8060000D01*
X6990000Y-5920000D02*
X7030000Y-5960000D01*
X7030000Y-5920000D02*
X6990000Y-5960000D01*
X7007000Y-7186500D02*
X7047000Y-7226500D01*
X7047000Y-7186500D02*
X7007000Y-7226500D01*
X7007000Y-9726500D02*
X7047000Y-9766500D01*
X7047000Y-9726500D02*
X7007000Y-9766500D01*
X7130000Y-5820000D02*
X7170000Y-5860000D01*
X7170000Y-5820000D02*
X7130000Y-5860000D01*
X7230000Y-6200000D02*
X7270000Y-6240000D01*
X7270000Y-6200000D02*
X7230000Y-6240000D01*
X7250000Y-5820000D02*
X7290000Y-5860000D01*
X7290000Y-5820000D02*
X7250000Y-5860000D01*
X7261000Y-7694500D02*
X7301000Y-7734500D01*
X7301000Y-7694500D02*
X7261000Y-7734500D01*
X7390000Y-5820000D02*
X7430000Y-5860000D01*
X7430000Y-5820000D02*
X7390000Y-5860000D01*
X7505000Y-7605000D02*
X7545000Y-7645000D01*
X7545000Y-7605000D02*
X7505000Y-7645000D01*
X8023000Y-6424500D02*
X8063000Y-6464500D01*
X8063000Y-6424500D02*
X8023000Y-6464500D01*
X8023000Y-7440500D02*
X8063000Y-7480500D01*
X8063000Y-7440500D02*
X8023000Y-7480500D01*
X8023000Y-8202500D02*
X8063000Y-8242500D01*
X8063000Y-8202500D02*
X8023000Y-8242500D01*
X8023000Y-10488500D02*
X8063000Y-10528500D01*
X8063000Y-10488500D02*
X8023000Y-10528500D01*
X8030000Y-10055000D02*
X8070000Y-10095000D01*
X8070000Y-10055000D02*
X8030000Y-10095000D01*
X8277000Y-6932500D02*
X8317000Y-6972500D01*
X8317000Y-6932500D02*
X8277000Y-6972500D01*
X8355000Y-5505000D02*
X8395000Y-5545000D01*
X8395000Y-5505000D02*
X8355000Y-5545000D01*
X8531000Y-7694500D02*
X8571000Y-7734500D01*
X8571000Y-7694500D02*
X8531000Y-7734500D01*
X8531000Y-8456500D02*
X8571000Y-8496500D01*
X8571000Y-8456500D02*
X8531000Y-8496500D01*
X8531000Y-9726500D02*
X8571000Y-9766500D01*
X8571000Y-9726500D02*
X8531000Y-9766500D01*
X8785000Y-5408500D02*
X8825000Y-5448500D01*
X8825000Y-5408500D02*
X8785000Y-5448500D01*
X8785000Y-6424500D02*
X8825000Y-6464500D01*
X8825000Y-6424500D02*
X8785000Y-6464500D01*
X8970000Y-8720000D02*
X9010000Y-8760000D01*
X9010000Y-8720000D02*
X8970000Y-8760000D01*
X8990000Y-8940000D02*
X9030000Y-8980000D01*
X9030000Y-8940000D02*
X8990000Y-8980000D01*
X9039000Y-6932500D02*
X9079000Y-6972500D01*
X9079000Y-6932500D02*
X9039000Y-6972500D01*
X9039000Y-7948500D02*
X9079000Y-7988500D01*
X9079000Y-7948500D02*
X9039000Y-7988500D01*
X9039000Y-9980500D02*
X9079000Y-10020500D01*
X9079000Y-9980500D02*
X9039000Y-10020500D01*
X9390000Y-6000000D02*
X9430000Y-6040000D01*
X9430000Y-6000000D02*
X9390000Y-6040000D01*
X9390000Y-8720000D02*
X9430000Y-8760000D01*
X9430000Y-8720000D02*
X9390000Y-8760000D01*
X9470000Y-6100000D02*
X9510000Y-6140000D01*
X9510000Y-6100000D02*
X9470000Y-6140000D01*
X9801000Y-5662500D02*
X9841000Y-5702500D01*
X9841000Y-5662500D02*
X9801000Y-5702500D01*
X9801000Y-7186500D02*
X9841000Y-7226500D01*
X9841000Y-7186500D02*
X9801000Y-7226500D01*
X9801000Y-7948500D02*
X9841000Y-7988500D01*
X9841000Y-7948500D02*
X9801000Y-7988500D01*
X9801000Y-8964500D02*
X9841000Y-9004500D01*
X9841000Y-8964500D02*
X9801000Y-9004500D01*
X9801000Y-9726500D02*
X9841000Y-9766500D01*
X9841000Y-9726500D02*
X9801000Y-9766500D01*
X10055000Y-10742500D02*
X10095000Y-10782500D01*
X10095000Y-10742500D02*
X10055000Y-10782500D01*
X10563000Y-6678500D02*
X10603000Y-6718500D01*
X10603000Y-6678500D02*
X10563000Y-6718500D01*
X10563000Y-8202500D02*
X10603000Y-8242500D01*
X10603000Y-8202500D02*
X10563000Y-8242500D01*
X10563000Y-8964500D02*
X10603000Y-9004500D01*
X10603000Y-8964500D02*
X10563000Y-9004500D01*
X10817000Y-5662500D02*
X10857000Y-5702500D01*
X10857000Y-5662500D02*
X10817000Y-5702500D01*
X10817000Y-9472500D02*
X10857000Y-9512500D01*
X10857000Y-9472500D02*
X10817000Y-9512500D01*
X10817000Y-10234500D02*
X10857000Y-10274500D01*
X10857000Y-10234500D02*
X10817000Y-10274500D01*
X10848300Y-6860000D02*
X10888300Y-6900000D01*
X10888300Y-6860000D02*
X10848300Y-6900000D01*
X11071000Y-5154500D02*
X11111000Y-5194500D01*
X11111000Y-5154500D02*
X11071000Y-5194500D01*
X11071000Y-7694500D02*
X11111000Y-7734500D01*
X11111000Y-7694500D02*
X11071000Y-7734500D01*
X11071000Y-8456500D02*
X11111000Y-8496500D01*
X11111000Y-8456500D02*
X11071000Y-8496500D01*
X11325000Y-7186500D02*
X11365000Y-7226500D01*
X11365000Y-7186500D02*
X11325000Y-7226500D01*
X11325000Y-8964500D02*
X11365000Y-9004500D01*
X11365000Y-8964500D02*
X11325000Y-9004500D01*
X11325000Y-9726500D02*
X11365000Y-9766500D01*
X11365000Y-9726500D02*
X11325000Y-9766500D01*
X11579000Y-5408500D02*
X11619000Y-5448500D01*
X11619000Y-5408500D02*
X11579000Y-5448500D01*
X11579000Y-6678500D02*
X11619000Y-6718500D01*
X11619000Y-6678500D02*
X11579000Y-6718500D01*
X11579000Y-7948500D02*
X11619000Y-7988500D01*
X11619000Y-7948500D02*
X11579000Y-7988500D01*
X11579000Y-10742500D02*
X11619000Y-10782500D01*
X11619000Y-10742500D02*
X11579000Y-10782500D01*
X11833000Y-7440500D02*
X11873000Y-7480500D01*
X11873000Y-7440500D02*
X11833000Y-7480500D01*
X11833000Y-8456500D02*
X11873000Y-8496500D01*
X11873000Y-8456500D02*
X11833000Y-8496500D01*
X11833000Y-9218500D02*
X11873000Y-9258500D01*
X11873000Y-9218500D02*
X11833000Y-9258500D01*
X12087000Y-5154500D02*
X12127000Y-5194500D01*
X12127000Y-5154500D02*
X12087000Y-5194500D01*
X12087000Y-10488500D02*
X12127000Y-10528500D01*
X12127000Y-10488500D02*
X12087000Y-10528500D01*
X12341000Y-5662500D02*
X12381000Y-5702500D01*
X12381000Y-5662500D02*
X12341000Y-5702500D01*
X12341000Y-6932500D02*
X12381000Y-6972500D01*
X12381000Y-6932500D02*
X12341000Y-6972500D01*
X12341000Y-7694500D02*
X12381000Y-7734500D01*
X12381000Y-7694500D02*
X12341000Y-7734500D01*
X12341000Y-8710500D02*
X12381000Y-8750500D01*
X12381000Y-8710500D02*
X12341000Y-8750500D01*
X12595000Y-10742500D02*
X12635000Y-10782500D01*
X12635000Y-10742500D02*
X12595000Y-10782500D01*
X12849000Y-5154500D02*
X12889000Y-5194500D01*
X12889000Y-5154500D02*
X12849000Y-5194500D01*
X12849000Y-7186500D02*
X12889000Y-7226500D01*
X12889000Y-7186500D02*
X12849000Y-7226500D01*
X12849000Y-7948500D02*
X12889000Y-7988500D01*
X12889000Y-7948500D02*
X12849000Y-7988500D01*
X12849000Y-8964500D02*
X12889000Y-9004500D01*
X12889000Y-8964500D02*
X12849000Y-9004500D01*
X13103000Y-5662500D02*
X13143000Y-5702500D01*
X13143000Y-5662500D02*
X13103000Y-5702500D01*
X13103000Y-6424500D02*
X13143000Y-6464500D01*
X13143000Y-6424500D02*
X13103000Y-6464500D01*
X13103000Y-8456500D02*
X13143000Y-8496500D01*
X13143000Y-8456500D02*
X13103000Y-8496500D01*
X13103000Y-9472500D02*
X13143000Y-9512500D01*
X13143000Y-9472500D02*
X13103000Y-9512500D01*
X13103000Y-10488500D02*
X13143000Y-10528500D01*
X13143000Y-10488500D02*
X13103000Y-10528500D01*
X13357000Y-6932500D02*
X13397000Y-6972500D01*
X13397000Y-6932500D02*
X13357000Y-6972500D01*
X13357000Y-7694500D02*
X13397000Y-7734500D01*
X13397000Y-7694500D02*
X13357000Y-7734500D01*
X13357000Y-9980500D02*
X13397000Y-10020500D01*
X13397000Y-9980500D02*
X13357000Y-10020500D01*
X13611000Y-5154500D02*
X13651000Y-5194500D01*
X13651000Y-5154500D02*
X13611000Y-5194500D01*
X13611000Y-5916500D02*
X13651000Y-5956500D01*
X13651000Y-5916500D02*
X13611000Y-5956500D01*
X13611000Y-8202500D02*
X13651000Y-8242500D01*
X13651000Y-8202500D02*
X13611000Y-8242500D01*
X13611000Y-8964500D02*
X13651000Y-9004500D01*
X13651000Y-8964500D02*
X13611000Y-9004500D01*
X13611000Y-10742500D02*
X13651000Y-10782500D01*
X13651000Y-10742500D02*
X13611000Y-10782500D01*
X13865000Y-6424500D02*
X13905000Y-6464500D01*
X13905000Y-6424500D02*
X13865000Y-6464500D01*
X13865000Y-7186500D02*
X13905000Y-7226500D01*
X13905000Y-7186500D02*
X13865000Y-7226500D01*
X13865000Y-9472500D02*
X13905000Y-9512500D01*
X13905000Y-9472500D02*
X13865000Y-9512500D01*
X13865000Y-10234500D02*
X13905000Y-10274500D01*
X13905000Y-10234500D02*
X13865000Y-10274500D01*
X14119000Y-5408500D02*
X14159000Y-5448500D01*
X14159000Y-5408500D02*
X14119000Y-5448500D01*
X14119000Y-7694500D02*
X14159000Y-7734500D01*
X14159000Y-7694500D02*
X14119000Y-7734500D01*
X14119000Y-8456500D02*
X14159000Y-8496500D01*
X14159000Y-8456500D02*
X14119000Y-8496500D01*
X14373000Y-5916500D02*
X14413000Y-5956500D01*
X14413000Y-5916500D02*
X14373000Y-5956500D01*
X14373000Y-6678500D02*
X14413000Y-6718500D01*
X14413000Y-6678500D02*
X14373000Y-6718500D01*
X14373000Y-8964500D02*
X14413000Y-9004500D01*
X14413000Y-8964500D02*
X14373000Y-9004500D01*
X14373000Y-9726500D02*
X14413000Y-9766500D01*
X14413000Y-9726500D02*
X14373000Y-9766500D01*
X14373000Y-10488500D02*
X14413000Y-10528500D01*
X14413000Y-10488500D02*
X14373000Y-10528500D01*
X14627000Y-5154500D02*
X14667000Y-5194500D01*
X14667000Y-5154500D02*
X14627000Y-5194500D01*
X14627000Y-7186500D02*
X14667000Y-7226500D01*
X14667000Y-7186500D02*
X14627000Y-7226500D01*
X14627000Y-7948500D02*
X14667000Y-7988500D01*
X14667000Y-7948500D02*
X14627000Y-7988500D01*
X14881000Y-5662500D02*
X14921000Y-5702500D01*
X14921000Y-5662500D02*
X14881000Y-5702500D01*
X14881000Y-6424500D02*
X14921000Y-6464500D01*
X14921000Y-6424500D02*
X14881000Y-6464500D01*
X14881000Y-8456500D02*
X14921000Y-8496500D01*
X14921000Y-8456500D02*
X14881000Y-8496500D01*
X14881000Y-9218500D02*
X14921000Y-9258500D01*
X14921000Y-9218500D02*
X14881000Y-9258500D01*
X14881000Y-9980500D02*
X14921000Y-10020500D01*
X14921000Y-9980500D02*
X14881000Y-10020500D01*
X14881000Y-10742500D02*
X14921000Y-10782500D01*
X14921000Y-10742500D02*
X14881000Y-10782500D01*
D13*
X5568000Y-9474000D02*
G75*
G03*
X5568000Y-9474000I-35000J0D01*
G01*
X5568000Y-9674000D02*
G75*
G03*
X5568000Y-9674000I-35000J0D01*
G01*
X5768000Y-9474000D02*
G75*
G03*
X5768000Y-9474000I-35000J0D01*
G01*
X5768000Y-9674000D02*
G75*
G03*
X5768000Y-9674000I-35000J0D01*
G01*
X5968000Y-9474000D02*
G75*
G03*
X5968000Y-9474000I-35000J0D01*
G01*
X5968000Y-9674000D02*
G75*
G03*
X5968000Y-9674000I-35000J0D01*
G01*
D14*
X6507000Y-9282500D02*
X6507000Y-9357500D01*
X6469500Y-9320000D02*
X6544500Y-9320000D01*
X6507000Y-9536500D02*
X6507000Y-9611500D01*
X6469500Y-9574000D02*
X6544500Y-9574000D01*
X6507000Y-9790500D02*
X6507000Y-9865500D01*
X6469500Y-9828000D02*
X6544500Y-9828000D01*
X6507000Y-10044500D02*
X6507000Y-10119500D01*
X6469500Y-10082000D02*
X6544500Y-10082000D01*
X6507000Y-10298500D02*
X6507000Y-10373500D01*
X6469500Y-10336000D02*
X6544500Y-10336000D01*
X9445000Y-5402500D02*
X9445000Y-5477500D01*
X9407500Y-5440000D02*
X9482500Y-5440000D01*
X9445000Y-5602500D02*
X9445000Y-5677500D01*
X9407500Y-5640000D02*
X9482500Y-5640000D01*
D15*
X5316285Y-5157285D02*
X5316285Y-5100716D01*
X5259716Y-5100716D01*
X5259716Y-5157285D01*
X5316285Y-5157285D01*
X5316285Y-5411285D02*
X5316285Y-5354716D01*
X5259716Y-5354716D01*
X5259716Y-5411285D01*
X5316285Y-5411285D01*
X5316285Y-5665284D02*
X5316285Y-5608715D01*
X5259716Y-5608715D01*
X5259716Y-5665284D01*
X5316285Y-5665284D01*
X5316285Y-5919284D02*
X5316285Y-5862715D01*
X5259716Y-5862715D01*
X5259716Y-5919284D01*
X5316285Y-5919284D01*
X5316285Y-6173284D02*
X5316285Y-6116715D01*
X5259716Y-6116715D01*
X5259716Y-6173284D01*
X5316285Y-6173284D01*
X5316285Y-6427284D02*
X5316285Y-6370715D01*
X5259716Y-6370715D01*
X5259716Y-6427284D01*
X5316285Y-6427284D01*
X5316285Y-6681284D02*
X5316285Y-6624715D01*
X5259716Y-6624715D01*
X5259716Y-6681284D01*
X5316285Y-6681284D01*
X5316285Y-6935284D02*
X5316285Y-6878715D01*
X5259716Y-6878715D01*
X5259716Y-6935284D01*
X5316285Y-6935284D01*
X5316285Y-7189284D02*
X5316285Y-7132715D01*
X5259716Y-7132715D01*
X5259716Y-7189284D01*
X5316285Y-7189284D01*
X5316285Y-7443284D02*
X5316285Y-7386715D01*
X5259716Y-7386715D01*
X5259716Y-7443284D01*
X5316285Y-7443284D01*
X5316285Y-7697284D02*
X5316285Y-7640715D01*
X5259716Y-7640715D01*
X5259716Y-7697284D01*
X5316285Y-7697284D01*
X5316285Y-7951284D02*
X5316285Y-7894715D01*
X5259716Y-7894715D01*
X5259716Y-7951284D01*
X5316285Y-7951284D01*
X5316285Y-8205284D02*
X5316285Y-8148715D01*
X5259716Y-8148715D01*
X5259716Y-8205284D01*
X5316285Y-8205284D01*
X5316285Y-8459285D02*
X5316285Y-8402716D01*
X5259716Y-8402716D01*
X5259716Y-8459285D01*
X5316285Y-8459285D01*
X5316285Y-8713285D02*
X5316285Y-8656716D01*
X5259716Y-8656716D01*
X5259716Y-8713285D01*
X5316285Y-8713285D01*
X5316285Y-8967285D02*
X5316285Y-8910716D01*
X5259716Y-8910716D01*
X5259716Y-8967285D01*
X5316285Y-8967285D01*
X5316285Y-9221285D02*
X5316285Y-9164716D01*
X5259716Y-9164716D01*
X5259716Y-9221285D01*
X5316285Y-9221285D01*
X5316285Y-9475285D02*
X5316285Y-9418716D01*
X5259716Y-9418716D01*
X5259716Y-9475285D01*
X5316285Y-9475285D01*
X5316285Y-9729285D02*
X5316285Y-9672716D01*
X5259716Y-9672716D01*
X5259716Y-9729285D01*
X5316285Y-9729285D01*
X5316285Y-9983285D02*
X5316285Y-9926716D01*
X5259716Y-9926716D01*
X5259716Y-9983285D01*
X5316285Y-9983285D01*
X5316285Y-10237285D02*
X5316285Y-10180716D01*
X5259716Y-10180716D01*
X5259716Y-10237285D01*
X5316285Y-10237285D01*
X5316285Y-10491285D02*
X5316285Y-10434716D01*
X5259716Y-10434716D01*
X5259716Y-10491285D01*
X5316285Y-10491285D01*
X5316285Y-10745285D02*
X5316285Y-10688716D01*
X5259716Y-10688716D01*
X5259716Y-10745285D01*
X5316285Y-10745285D01*
X5316285Y-10999285D02*
X5316285Y-10942716D01*
X5259716Y-10942716D01*
X5259716Y-10999285D01*
X5316285Y-10999285D01*
X5570285Y-6427284D02*
X5570285Y-6370715D01*
X5513716Y-6370715D01*
X5513716Y-6427284D01*
X5570285Y-6427284D01*
X5570285Y-10745285D02*
X5570285Y-10688716D01*
X5513716Y-10688716D01*
X5513716Y-10745285D01*
X5570285Y-10745285D01*
X5824284Y-6427284D02*
X5824284Y-6370715D01*
X5767715Y-6370715D01*
X5767715Y-6427284D01*
X5824284Y-6427284D01*
X6078284Y-6427284D02*
X6078284Y-6370715D01*
X6021715Y-6370715D01*
X6021715Y-6427284D01*
X6078284Y-6427284D01*
X6332284Y-6427284D02*
X6332284Y-6370715D01*
X6275715Y-6370715D01*
X6275715Y-6427284D01*
X6332284Y-6427284D01*
X6586284Y-6427284D02*
X6586284Y-6370715D01*
X6529715Y-6370715D01*
X6529715Y-6427284D01*
X6586284Y-6427284D01*
X6840284Y-5157285D02*
X6840284Y-5100716D01*
X6783715Y-5100716D01*
X6783715Y-5157285D01*
X6840284Y-5157285D01*
X6840284Y-5411285D02*
X6840284Y-5354716D01*
X6783715Y-5354716D01*
X6783715Y-5411285D01*
X6840284Y-5411285D01*
X6840284Y-5665284D02*
X6840284Y-5608715D01*
X6783715Y-5608715D01*
X6783715Y-5665284D01*
X6840284Y-5665284D01*
X6840284Y-5919284D02*
X6840284Y-5862715D01*
X6783715Y-5862715D01*
X6783715Y-5919284D01*
X6840284Y-5919284D01*
X6840284Y-6173284D02*
X6840284Y-6116715D01*
X6783715Y-6116715D01*
X6783715Y-6173284D01*
X6840284Y-6173284D01*
X6840284Y-6427284D02*
X6840284Y-6370715D01*
X6783715Y-6370715D01*
X6783715Y-6427284D01*
X6840284Y-6427284D01*
X6840284Y-6681284D02*
X6840284Y-6624715D01*
X6783715Y-6624715D01*
X6783715Y-6681284D01*
X6840284Y-6681284D01*
X6840284Y-6935284D02*
X6840284Y-6878715D01*
X6783715Y-6878715D01*
X6783715Y-6935284D01*
X6840284Y-6935284D01*
X6840284Y-7189284D02*
X6840284Y-7132715D01*
X6783715Y-7132715D01*
X6783715Y-7189284D01*
X6840284Y-7189284D01*
X6840284Y-7443284D02*
X6840284Y-7386715D01*
X6783715Y-7386715D01*
X6783715Y-7443284D01*
X6840284Y-7443284D01*
X6840284Y-7697284D02*
X6840284Y-7640715D01*
X6783715Y-7640715D01*
X6783715Y-7697284D01*
X6840284Y-7697284D01*
X6840284Y-7951284D02*
X6840284Y-7894715D01*
X6783715Y-7894715D01*
X6783715Y-7951284D01*
X6840284Y-7951284D01*
X6840284Y-8205284D02*
X6840284Y-8148715D01*
X6783715Y-8148715D01*
X6783715Y-8205284D01*
X6840284Y-8205284D01*
X6840284Y-8459285D02*
X6840284Y-8402716D01*
X6783715Y-8402716D01*
X6783715Y-8459285D01*
X6840284Y-8459285D01*
X6840284Y-8713285D02*
X6840284Y-8656716D01*
X6783715Y-8656716D01*
X6783715Y-8713285D01*
X6840284Y-8713285D01*
X6840284Y-8967285D02*
X6840284Y-8910716D01*
X6783715Y-8910716D01*
X6783715Y-8967285D01*
X6840284Y-8967285D01*
X6840284Y-9221285D02*
X6840284Y-9164716D01*
X6783715Y-9164716D01*
X6783715Y-9221285D01*
X6840284Y-9221285D01*
X6840284Y-9475285D02*
X6840284Y-9418716D01*
X6783715Y-9418716D01*
X6783715Y-9475285D01*
X6840284Y-9475285D01*
X6840284Y-9729285D02*
X6840284Y-9672716D01*
X6783715Y-9672716D01*
X6783715Y-9729285D01*
X6840284Y-9729285D01*
X6840284Y-9983285D02*
X6840284Y-9926716D01*
X6783715Y-9926716D01*
X6783715Y-9983285D01*
X6840284Y-9983285D01*
X6840284Y-10237285D02*
X6840284Y-10180716D01*
X6783715Y-10180716D01*
X6783715Y-10237285D01*
X6840284Y-10237285D01*
X6840284Y-10491285D02*
X6840284Y-10434716D01*
X6783715Y-10434716D01*
X6783715Y-10491285D01*
X6840284Y-10491285D01*
X6840284Y-10745285D02*
X6840284Y-10688716D01*
X6783715Y-10688716D01*
X6783715Y-10745285D01*
X6840284Y-10745285D01*
X6840284Y-10999285D02*
X6840284Y-10942716D01*
X6783715Y-10942716D01*
X6783715Y-10999285D01*
X6840284Y-10999285D01*
D16*
X7705500Y-9500000D02*
X7750500Y-9455000D01*
X7705500Y-9410000D01*
X7660500Y-9455000D01*
X7705500Y-9500000D01*
X7832500Y-9246000D02*
X7877500Y-9201000D01*
X7832500Y-9156000D01*
X7787500Y-9201000D01*
X7832500Y-9246000D01*
X7959500Y-9500000D02*
X8004500Y-9455000D01*
X7959500Y-9410000D01*
X7914500Y-9455000D01*
X7959500Y-9500000D01*
X8086500Y-9246000D02*
X8131500Y-9201000D01*
X8086500Y-9156000D01*
X8041500Y-9201000D01*
X8086500Y-9246000D01*
X8213500Y-9500000D02*
X8258500Y-9455000D01*
X8213500Y-9410000D01*
X8168500Y-9455000D01*
X8213500Y-9500000D01*
X8340500Y-9246000D02*
X8385500Y-9201000D01*
X8340500Y-9156000D01*
X8295500Y-9201000D01*
X8340500Y-9246000D01*
X8467500Y-9500000D02*
X8512500Y-9455000D01*
X8467500Y-9410000D01*
X8422500Y-9455000D01*
X8467500Y-9500000D01*
X8594500Y-9246000D02*
X8639500Y-9201000D01*
X8594500Y-9156000D01*
X8549500Y-9201000D01*
X8594500Y-9246000D01*
D17*
X7563000Y-5275000D02*
X7663000Y-5375000D01*
X7663000Y-5275000D02*
X7563000Y-5375000D01*
X7663000Y-5325000D02*
G75*
G03*
X7663000Y-5325000I-50000J0D01*
G01*
X7577500Y-7793000D02*
X7677500Y-7893000D01*
X7677500Y-7793000D02*
X7577500Y-7893000D01*
X7677500Y-7843000D02*
G75*
G03*
X7677500Y-7843000I-50000J0D01*
G01*
X7577500Y-8047000D02*
X7677500Y-8147000D01*
X7677500Y-8047000D02*
X7577500Y-8147000D01*
X7677500Y-8097000D02*
G75*
G03*
X7677500Y-8097000I-50000J0D01*
G01*
X7577500Y-8301000D02*
X7677500Y-8401000D01*
X7677500Y-8301000D02*
X7577500Y-8401000D01*
X7677500Y-8351000D02*
G75*
G03*
X7677500Y-8351000I-50000J0D01*
G01*
X7577500Y-8555000D02*
X7677500Y-8655000D01*
X7677500Y-8555000D02*
X7577500Y-8655000D01*
X7677500Y-8605000D02*
G75*
G03*
X7677500Y-8605000I-50000J0D01*
G01*
X7580000Y-6234000D02*
X7680000Y-6334000D01*
X7680000Y-6234000D02*
X7580000Y-6334000D01*
X7680000Y-6284000D02*
G75*
G03*
X7680000Y-6284000I-50000J0D01*
G01*
X7580000Y-6488000D02*
X7680000Y-6588000D01*
X7680000Y-6488000D02*
X7580000Y-6588000D01*
X7680000Y-6538000D02*
G75*
G03*
X7680000Y-6538000I-50000J0D01*
G01*
X7580000Y-6742000D02*
X7680000Y-6842000D01*
X7680000Y-6742000D02*
X7580000Y-6842000D01*
X7680000Y-6792000D02*
G75*
G03*
X7680000Y-6792000I-50000J0D01*
G01*
X7580000Y-6996000D02*
X7680000Y-7096000D01*
X7680000Y-6996000D02*
X7580000Y-7096000D01*
X7680000Y-7046000D02*
G75*
G03*
X7680000Y-7046000I-50000J0D01*
G01*
X7580000Y-7250000D02*
X7680000Y-7350000D01*
X7680000Y-7250000D02*
X7580000Y-7350000D01*
X7680000Y-7300000D02*
G75*
G03*
X7680000Y-7300000I-50000J0D01*
G01*
X7817000Y-5275000D02*
X7917000Y-5375000D01*
X7917000Y-5275000D02*
X7817000Y-5375000D01*
X7917000Y-5325000D02*
G75*
G03*
X7917000Y-5325000I-50000J0D01*
G01*
X8071000Y-5275000D02*
X8171000Y-5375000D01*
X8171000Y-5275000D02*
X8071000Y-5375000D01*
X8171000Y-5325000D02*
G75*
G03*
X8171000Y-5325000I-50000J0D01*
G01*
X8325000Y-5275000D02*
X8425000Y-5375000D01*
X8425000Y-5275000D02*
X8325000Y-5375000D01*
X8425000Y-5325000D02*
G75*
G03*
X8425000Y-5325000I-50000J0D01*
G01*
X8579000Y-5275000D02*
X8679000Y-5375000D01*
X8679000Y-5275000D02*
X8579000Y-5375000D01*
X8679000Y-5325000D02*
G75*
G03*
X8679000Y-5325000I-50000J0D01*
G01*
X9377500Y-9026000D02*
X9477500Y-9126000D01*
X9477500Y-9026000D02*
X9377500Y-9126000D01*
X9477500Y-9076000D02*
G75*
G03*
X9477500Y-9076000I-50000J0D01*
G01*
X9377500Y-9280000D02*
X9477500Y-9380000D01*
X9477500Y-9280000D02*
X9377500Y-9380000D01*
X9477500Y-9330000D02*
G75*
G03*
X9477500Y-9330000I-50000J0D01*
G01*
X9377500Y-9534000D02*
X9477500Y-9634000D01*
X9477500Y-9534000D02*
X9377500Y-9634000D01*
X9477500Y-9584000D02*
G75*
G03*
X9477500Y-9584000I-50000J0D01*
G01*
X9377500Y-9788000D02*
X9477500Y-9888000D01*
X9477500Y-9788000D02*
X9377500Y-9888000D01*
X9477500Y-9838000D02*
G75*
G03*
X9477500Y-9838000I-50000J0D01*
G01*
X9377500Y-10042000D02*
X9477500Y-10142000D01*
X9477500Y-10042000D02*
X9377500Y-10142000D01*
X9477500Y-10092000D02*
G75*
G03*
X9477500Y-10092000I-50000J0D01*
G01*
X9377500Y-10296000D02*
X9477500Y-10396000D01*
X9477500Y-10296000D02*
X9377500Y-10396000D01*
X9477500Y-10346000D02*
G75*
G03*
X9477500Y-10346000I-50000J0D01*
G01*
X9377500Y-10550000D02*
X9477500Y-10650000D01*
X9477500Y-10550000D02*
X9377500Y-10650000D01*
X9477500Y-10600000D02*
G75*
G03*
X9477500Y-10600000I-50000J0D01*
G01*
X9378579Y-6731289D02*
X9478579Y-6831289D01*
X9478579Y-6731289D02*
X9378579Y-6831289D01*
X9478579Y-6781289D02*
G75*
G03*
X9478579Y-6781289I-50000J0D01*
G01*
X9378579Y-6985289D02*
X9478579Y-7085289D01*
X9478579Y-6985289D02*
X9378579Y-7085289D01*
X9478579Y-7035289D02*
G75*
G03*
X9478579Y-7035289I-50000J0D01*
G01*
X9378579Y-7239289D02*
X9478579Y-7339289D01*
X9478579Y-7239289D02*
X9378579Y-7339289D01*
X9478579Y-7289289D02*
G75*
G03*
X9478579Y-7289289I-50000J0D01*
G01*
X9378579Y-7493289D02*
X9478579Y-7593289D01*
X9478579Y-7493289D02*
X9378579Y-7593289D01*
X9478579Y-7543289D02*
G75*
G03*
X9478579Y-7543289I-50000J0D01*
G01*
X9378579Y-7747289D02*
X9478579Y-7847289D01*
X9478579Y-7747289D02*
X9378579Y-7847289D01*
X9478579Y-7797289D02*
G75*
G03*
X9478579Y-7797289I-50000J0D01*
G01*
X9378579Y-8001289D02*
X9478579Y-8101289D01*
X9478579Y-8001289D02*
X9378579Y-8101289D01*
X9478579Y-8051289D02*
G75*
G03*
X9478579Y-8051289I-50000J0D01*
G01*
X10500000Y-9862079D02*
X10600000Y-9962079D01*
X10600000Y-9862079D02*
X10500000Y-9962079D01*
X10600000Y-9912079D02*
G75*
G03*
X10600000Y-9912079I-50000J0D01*
G01*
X10500000Y-10362079D02*
X10600000Y-10462079D01*
X10600000Y-10362079D02*
X10500000Y-10462079D01*
X10600000Y-10412079D02*
G75*
G03*
X10600000Y-10412079I-50000J0D01*
G01*
X11588000Y-6050000D02*
X11688000Y-6150000D01*
X11688000Y-6050000D02*
X11588000Y-6150000D01*
X11688000Y-6100000D02*
G75*
G03*
X11688000Y-6100000I-50000J0D01*
G01*
X11590000Y-10050000D02*
X11690000Y-10150000D01*
X11690000Y-10050000D02*
X11590000Y-10150000D01*
X11690000Y-10100000D02*
G75*
G03*
X11690000Y-10100000I-50000J0D01*
G01*
X11842000Y-6050000D02*
X11942000Y-6150000D01*
X11942000Y-6050000D02*
X11842000Y-6150000D01*
X11942000Y-6100000D02*
G75*
G03*
X11942000Y-6100000I-50000J0D01*
G01*
X11844000Y-10050000D02*
X11944000Y-10150000D01*
X11944000Y-10050000D02*
X11844000Y-10150000D01*
X11944000Y-10100000D02*
G75*
G03*
X11944000Y-10100000I-50000J0D01*
G01*
X11845000Y-6552500D02*
X11945000Y-6652500D01*
X11945000Y-6552500D02*
X11845000Y-6652500D01*
X11945000Y-6602500D02*
G75*
G03*
X11945000Y-6602500I-50000J0D01*
G01*
X11845000Y-9572500D02*
X11945000Y-9672500D01*
X11945000Y-9572500D02*
X11845000Y-9672500D01*
X11945000Y-9622500D02*
G75*
G03*
X11945000Y-9622500I-50000J0D01*
G01*
X12096000Y-6050000D02*
X12196000Y-6150000D01*
X12196000Y-6050000D02*
X12096000Y-6150000D01*
X12196000Y-6100000D02*
G75*
G03*
X12196000Y-6100000I-50000J0D01*
G01*
X12098000Y-10050000D02*
X12198000Y-10150000D01*
X12198000Y-10050000D02*
X12098000Y-10150000D01*
X12198000Y-10100000D02*
G75*
G03*
X12198000Y-10100000I-50000J0D01*
G01*
X12099000Y-6552500D02*
X12199000Y-6652500D01*
X12199000Y-6552500D02*
X12099000Y-6652500D01*
X12199000Y-6602500D02*
G75*
G03*
X12199000Y-6602500I-50000J0D01*
G01*
X12099000Y-9572500D02*
X12199000Y-9672500D01*
X12199000Y-9572500D02*
X12099000Y-9672500D01*
X12199000Y-9622500D02*
G75*
G03*
X12199000Y-9622500I-50000J0D01*
G01*
X12350000Y-6050000D02*
X12450000Y-6150000D01*
X12450000Y-6050000D02*
X12350000Y-6150000D01*
X12450000Y-6100000D02*
G75*
G03*
X12450000Y-6100000I-50000J0D01*
G01*
X12352000Y-10050000D02*
X12452000Y-10150000D01*
X12452000Y-10050000D02*
X12352000Y-10150000D01*
X12452000Y-10100000D02*
G75*
G03*
X12452000Y-10100000I-50000J0D01*
G01*
X12353000Y-6552500D02*
X12453000Y-6652500D01*
X12453000Y-6552500D02*
X12353000Y-6652500D01*
X12453000Y-6602500D02*
G75*
G03*
X12453000Y-6602500I-50000J0D01*
G01*
X12353000Y-9572500D02*
X12453000Y-9672500D01*
X12453000Y-9572500D02*
X12353000Y-9672500D01*
X12453000Y-9622500D02*
G75*
G03*
X12453000Y-9622500I-50000J0D01*
G01*
X12604000Y-6050000D02*
X12704000Y-6150000D01*
X12704000Y-6050000D02*
X12604000Y-6150000D01*
X12704000Y-6100000D02*
G75*
G03*
X12704000Y-6100000I-50000J0D01*
G01*
X12606000Y-10050000D02*
X12706000Y-10150000D01*
X12706000Y-10050000D02*
X12606000Y-10150000D01*
X12706000Y-10100000D02*
G75*
G03*
X12706000Y-10100000I-50000J0D01*
G01*
X12607000Y-6552500D02*
X12707000Y-6652500D01*
X12707000Y-6552500D02*
X12607000Y-6652500D01*
X12707000Y-6602500D02*
G75*
G03*
X12707000Y-6602500I-50000J0D01*
G01*
X12607000Y-9572500D02*
X12707000Y-9672500D01*
X12707000Y-9572500D02*
X12607000Y-9672500D01*
X12707000Y-9622500D02*
G75*
G03*
X12707000Y-9622500I-50000J0D01*
G01*
X12858000Y-6050000D02*
X12958000Y-6150000D01*
X12958000Y-6050000D02*
X12858000Y-6150000D01*
X12958000Y-6100000D02*
G75*
G03*
X12958000Y-6100000I-50000J0D01*
G01*
X12860000Y-10050000D02*
X12960000Y-10150000D01*
X12960000Y-10050000D02*
X12860000Y-10150000D01*
X12960000Y-10100000D02*
G75*
G03*
X12960000Y-10100000I-50000J0D01*
G01*
X12861000Y-6552500D02*
X12961000Y-6652500D01*
X12961000Y-6552500D02*
X12861000Y-6652500D01*
X12961000Y-6602500D02*
G75*
G03*
X12961000Y-6602500I-50000J0D01*
G01*
X12861000Y-9572500D02*
X12961000Y-9672500D01*
X12961000Y-9572500D02*
X12861000Y-9672500D01*
X12961000Y-9622500D02*
G75*
G03*
X12961000Y-9622500I-50000J0D01*
G01*
X13112000Y-6050000D02*
X13212000Y-6150000D01*
X13212000Y-6050000D02*
X13112000Y-6150000D01*
X13212000Y-6100000D02*
G75*
G03*
X13212000Y-6100000I-50000J0D01*
G01*
X13114000Y-10050000D02*
X13214000Y-10150000D01*
X13214000Y-10050000D02*
X13114000Y-10150000D01*
X13214000Y-10100000D02*
G75*
G03*
X13214000Y-10100000I-50000J0D01*
G01*
D18*
X7466500Y-10547000D02*
X7568500Y-10649000D01*
X7568500Y-10547000D02*
X7466500Y-10649000D01*
X7517500Y-10547000D02*
X7517500Y-10649000D01*
X7466500Y-10598000D02*
X7568500Y-10598000D01*
X7720500Y-10377000D02*
X7822500Y-10479000D01*
X7822500Y-10377000D02*
X7720500Y-10479000D01*
X7771500Y-10377000D02*
X7771500Y-10479000D01*
X7720500Y-10428000D02*
X7822500Y-10428000D01*
X8477500Y-10547000D02*
X8579500Y-10649000D01*
X8579500Y-10547000D02*
X8477500Y-10649000D01*
X8528500Y-10547000D02*
X8528500Y-10649000D01*
X8477500Y-10598000D02*
X8579500Y-10598000D01*
X8731500Y-10377000D02*
X8833500Y-10479000D01*
X8833500Y-10377000D02*
X8731500Y-10479000D01*
X8782500Y-10377000D02*
X8782500Y-10479000D01*
X8731500Y-10428000D02*
X8833500Y-10428000D01*
D19*
X7282500Y-9705000D02*
X7442500Y-9865000D01*
X7442500Y-9705000D02*
X7282500Y-9865000D01*
X7419069Y-9841569D02*
X7419069Y-9728431D01*
X7305931Y-9728431D01*
X7305931Y-9841569D01*
X7419069Y-9841569D01*
X8857500Y-9705000D02*
X9017500Y-9865000D01*
X9017500Y-9705000D02*
X8857500Y-9865000D01*
X8994069Y-9841569D02*
X8994069Y-9728431D01*
X8880931Y-9728431D01*
X8880931Y-9841569D01*
X8994069Y-9841569D01*
D20*
X7416000Y-9927500D02*
X7741000Y-10252500D01*
X7741000Y-9927500D02*
X7416000Y-10252500D01*
X7578500Y-10252500D02*
X7741000Y-10090000D01*
X7578500Y-9927500D01*
X7416000Y-10090000D01*
X7578500Y-10252500D01*
X8559000Y-9927500D02*
X8884000Y-10252500D01*
X8884000Y-9927500D02*
X8559000Y-10252500D01*
X8721500Y-10252500D02*
X8884000Y-10090000D01*
X8721500Y-9927500D01*
X8559000Y-10090000D01*
X8721500Y-10252500D01*
D11*
X5252619Y-11415476D02*
X5252619Y-11215476D01*
X5300238Y-11215476D01*
X5328810Y-11225000D01*
X5347857Y-11244048D01*
X5357381Y-11263095D01*
X5366905Y-11301190D01*
X5366905Y-11329762D01*
X5357381Y-11367857D01*
X5347857Y-11386905D01*
X5328810Y-11405952D01*
X5300238Y-11415476D01*
X5252619Y-11415476D01*
X5452619Y-11415476D02*
X5452619Y-11282143D01*
X5452619Y-11320238D02*
X5462143Y-11301190D01*
X5471667Y-11291667D01*
X5490714Y-11282143D01*
X5509762Y-11282143D01*
X5576429Y-11415476D02*
X5576429Y-11282143D01*
X5576429Y-11215476D02*
X5566905Y-11225000D01*
X5576429Y-11234524D01*
X5585952Y-11225000D01*
X5576429Y-11215476D01*
X5576429Y-11234524D01*
X5700238Y-11415476D02*
X5681190Y-11405952D01*
X5671667Y-11386905D01*
X5671667Y-11215476D01*
X5805000Y-11415476D02*
X5785952Y-11405952D01*
X5776428Y-11386905D01*
X5776428Y-11215476D01*
X6033571Y-11415476D02*
X6033571Y-11215476D01*
X6100238Y-11358333D01*
X6166905Y-11215476D01*
X6166905Y-11415476D01*
X6347857Y-11415476D02*
X6347857Y-11310714D01*
X6338333Y-11291667D01*
X6319286Y-11282143D01*
X6281190Y-11282143D01*
X6262143Y-11291667D01*
X6347857Y-11405952D02*
X6328809Y-11415476D01*
X6281190Y-11415476D01*
X6262143Y-11405952D01*
X6252619Y-11386905D01*
X6252619Y-11367857D01*
X6262143Y-11348809D01*
X6281190Y-11339286D01*
X6328809Y-11339286D01*
X6347857Y-11329762D01*
X6443095Y-11282143D02*
X6443095Y-11482143D01*
X6443095Y-11291667D02*
X6462143Y-11282143D01*
X6500238Y-11282143D01*
X6519286Y-11291667D01*
X6528809Y-11301190D01*
X6538333Y-11320238D01*
X6538333Y-11377381D01*
X6528809Y-11396428D01*
X6519286Y-11405952D01*
X6500238Y-11415476D01*
X6462143Y-11415476D01*
X6443095Y-11405952D01*
X6624048Y-11396428D02*
X6633571Y-11405952D01*
X6624048Y-11415476D01*
X6614524Y-11405952D01*
X6624048Y-11396428D01*
X6624048Y-11415476D01*
X6624048Y-11291667D02*
X6633571Y-11301190D01*
X6624048Y-11310714D01*
X6614524Y-11301190D01*
X6624048Y-11291667D01*
X6624048Y-11310714D01*
D12*
X4955000Y-11725000D02*
X4995000Y-11765000D01*
X4995000Y-11725000D02*
X4955000Y-11765000D01*
D11*
X5290714Y-11635476D02*
X5309762Y-11635476D01*
X5328810Y-11645000D01*
X5338333Y-11654524D01*
X5347857Y-11673571D01*
X5357381Y-11711667D01*
X5357381Y-11759286D01*
X5347857Y-11797381D01*
X5338333Y-11816428D01*
X5328810Y-11825952D01*
X5309762Y-11835476D01*
X5290714Y-11835476D01*
X5271667Y-11825952D01*
X5262143Y-11816428D01*
X5252619Y-11797381D01*
X5243095Y-11759286D01*
X5243095Y-11711667D01*
X5252619Y-11673571D01*
X5262143Y-11654524D01*
X5271667Y-11645000D01*
X5290714Y-11635476D01*
X5443095Y-11816428D02*
X5452619Y-11825952D01*
X5443095Y-11835476D01*
X5433571Y-11825952D01*
X5443095Y-11816428D01*
X5443095Y-11835476D01*
X5624048Y-11702143D02*
X5624048Y-11835476D01*
X5576429Y-11625952D02*
X5528810Y-11768809D01*
X5652619Y-11768809D01*
X5766905Y-11635476D02*
X5785952Y-11635476D01*
X5805000Y-11645000D01*
X5814524Y-11654524D01*
X5824048Y-11673571D01*
X5833571Y-11711667D01*
X5833571Y-11759286D01*
X5824048Y-11797381D01*
X5814524Y-11816428D01*
X5805000Y-11825952D01*
X5785952Y-11835476D01*
X5766905Y-11835476D01*
X5747857Y-11825952D01*
X5738333Y-11816428D01*
X5728809Y-11797381D01*
X5719286Y-11759286D01*
X5719286Y-11711667D01*
X5728809Y-11673571D01*
X5738333Y-11654524D01*
X5747857Y-11645000D01*
X5766905Y-11635476D01*
X5957381Y-11635476D02*
X5976428Y-11635476D01*
X5995476Y-11645000D01*
X6005000Y-11654524D01*
X6014524Y-11673571D01*
X6024048Y-11711667D01*
X6024048Y-11759286D01*
X6014524Y-11797381D01*
X6005000Y-11816428D01*
X5995476Y-11825952D01*
X5976428Y-11835476D01*
X5957381Y-11835476D01*
X5938333Y-11825952D01*
X5928809Y-11816428D01*
X5919286Y-11797381D01*
X5909762Y-11759286D01*
X5909762Y-11711667D01*
X5919286Y-11673571D01*
X5928809Y-11654524D01*
X5938333Y-11645000D01*
X5957381Y-11635476D01*
X6109762Y-11835476D02*
X6109762Y-11702143D01*
X6109762Y-11721190D02*
X6119286Y-11711667D01*
X6138333Y-11702143D01*
X6166905Y-11702143D01*
X6185952Y-11711667D01*
X6195476Y-11730714D01*
X6195476Y-11835476D01*
X6195476Y-11730714D02*
X6205000Y-11711667D01*
X6224048Y-11702143D01*
X6252619Y-11702143D01*
X6271667Y-11711667D01*
X6281190Y-11730714D01*
X6281190Y-11835476D01*
X6376428Y-11835476D02*
X6376428Y-11702143D01*
X6376428Y-11721190D02*
X6385952Y-11711667D01*
X6405000Y-11702143D01*
X6433571Y-11702143D01*
X6452619Y-11711667D01*
X6462143Y-11730714D01*
X6462143Y-11835476D01*
X6462143Y-11730714D02*
X6471667Y-11711667D01*
X6490714Y-11702143D01*
X6519286Y-11702143D01*
X6538333Y-11711667D01*
X6547857Y-11730714D01*
X6547857Y-11835476D01*
X6938333Y-11625952D02*
X6766905Y-11883095D01*
X7195476Y-11635476D02*
X7214524Y-11635476D01*
X7233571Y-11645000D01*
X7243095Y-11654524D01*
X7252619Y-11673571D01*
X7262143Y-11711667D01*
X7262143Y-11759286D01*
X7252619Y-11797381D01*
X7243095Y-11816428D01*
X7233571Y-11825952D01*
X7214524Y-11835476D01*
X7195476Y-11835476D01*
X7176428Y-11825952D01*
X7166905Y-11816428D01*
X7157381Y-11797381D01*
X7147857Y-11759286D01*
X7147857Y-11711667D01*
X7157381Y-11673571D01*
X7166905Y-11654524D01*
X7176428Y-11645000D01*
X7195476Y-11635476D01*
X7347857Y-11816428D02*
X7357381Y-11825952D01*
X7347857Y-11835476D01*
X7338333Y-11825952D01*
X7347857Y-11816428D01*
X7347857Y-11835476D01*
X7481190Y-11635476D02*
X7500238Y-11635476D01*
X7519286Y-11645000D01*
X7528809Y-11654524D01*
X7538333Y-11673571D01*
X7547857Y-11711667D01*
X7547857Y-11759286D01*
X7538333Y-11797381D01*
X7528809Y-11816428D01*
X7519286Y-11825952D01*
X7500238Y-11835476D01*
X7481190Y-11835476D01*
X7462143Y-11825952D01*
X7452619Y-11816428D01*
X7443095Y-11797381D01*
X7433571Y-11759286D01*
X7433571Y-11711667D01*
X7443095Y-11673571D01*
X7452619Y-11654524D01*
X7462143Y-11645000D01*
X7481190Y-11635476D01*
X7738333Y-11835476D02*
X7624048Y-11835476D01*
X7681190Y-11835476D02*
X7681190Y-11635476D01*
X7662143Y-11664048D01*
X7643095Y-11683095D01*
X7624048Y-11692619D01*
X7919286Y-11635476D02*
X7824048Y-11635476D01*
X7814524Y-11730714D01*
X7824048Y-11721190D01*
X7843095Y-11711667D01*
X7890714Y-11711667D01*
X7909762Y-11721190D01*
X7919286Y-11730714D01*
X7928809Y-11749762D01*
X7928809Y-11797381D01*
X7919286Y-11816428D01*
X7909762Y-11825952D01*
X7890714Y-11835476D01*
X7843095Y-11835476D01*
X7824048Y-11825952D01*
X7814524Y-11816428D01*
X7995476Y-11635476D02*
X8128809Y-11635476D01*
X8043095Y-11835476D01*
X8195476Y-11635476D02*
X8195476Y-11673571D01*
X8271667Y-11635476D02*
X8271667Y-11673571D01*
X8566905Y-11911667D02*
X8557381Y-11902143D01*
X8538333Y-11873571D01*
X8528810Y-11854524D01*
X8519286Y-11825952D01*
X8509762Y-11778333D01*
X8509762Y-11740238D01*
X8519286Y-11692619D01*
X8528810Y-11664048D01*
X8538333Y-11645000D01*
X8557381Y-11616428D01*
X8566905Y-11606905D01*
X8747857Y-11835476D02*
X8633571Y-11835476D01*
X8690714Y-11835476D02*
X8690714Y-11635476D01*
X8671667Y-11664048D01*
X8652619Y-11683095D01*
X8633571Y-11692619D01*
X8824048Y-11654524D02*
X8833571Y-11645000D01*
X8852619Y-11635476D01*
X8900238Y-11635476D01*
X8919286Y-11645000D01*
X8928810Y-11654524D01*
X8938333Y-11673571D01*
X8938333Y-11692619D01*
X8928810Y-11721190D01*
X8814524Y-11835476D01*
X8938333Y-11835476D01*
X9005000Y-11635476D02*
X9128810Y-11635476D01*
X9062143Y-11711667D01*
X9090714Y-11711667D01*
X9109762Y-11721190D01*
X9119286Y-11730714D01*
X9128810Y-11749762D01*
X9128810Y-11797381D01*
X9119286Y-11816428D01*
X9109762Y-11825952D01*
X9090714Y-11835476D01*
X9033571Y-11835476D01*
X9014524Y-11825952D01*
X9005000Y-11816428D01*
X9366905Y-11835476D02*
X9366905Y-11635476D01*
X9452619Y-11835476D02*
X9452619Y-11730714D01*
X9443095Y-11711667D01*
X9424048Y-11702143D01*
X9395476Y-11702143D01*
X9376429Y-11711667D01*
X9366905Y-11721190D01*
X9576429Y-11835476D02*
X9557381Y-11825952D01*
X9547857Y-11816428D01*
X9538333Y-11797381D01*
X9538333Y-11740238D01*
X9547857Y-11721190D01*
X9557381Y-11711667D01*
X9576429Y-11702143D01*
X9605000Y-11702143D01*
X9624048Y-11711667D01*
X9633571Y-11721190D01*
X9643095Y-11740238D01*
X9643095Y-11797381D01*
X9633571Y-11816428D01*
X9624048Y-11825952D01*
X9605000Y-11835476D01*
X9576429Y-11835476D01*
X9757381Y-11835476D02*
X9738333Y-11825952D01*
X9728810Y-11806905D01*
X9728810Y-11635476D01*
X9909762Y-11825952D02*
X9890714Y-11835476D01*
X9852619Y-11835476D01*
X9833571Y-11825952D01*
X9824048Y-11806905D01*
X9824048Y-11730714D01*
X9833571Y-11711667D01*
X9852619Y-11702143D01*
X9890714Y-11702143D01*
X9909762Y-11711667D01*
X9919286Y-11730714D01*
X9919286Y-11749762D01*
X9824048Y-11768809D01*
X9995476Y-11825952D02*
X10014524Y-11835476D01*
X10052619Y-11835476D01*
X10071667Y-11825952D01*
X10081190Y-11806905D01*
X10081190Y-11797381D01*
X10071667Y-11778333D01*
X10052619Y-11768809D01*
X10024048Y-11768809D01*
X10005000Y-11759286D01*
X9995476Y-11740238D01*
X9995476Y-11730714D01*
X10005000Y-11711667D01*
X10024048Y-11702143D01*
X10052619Y-11702143D01*
X10071667Y-11711667D01*
X10147857Y-11911667D02*
X10157381Y-11902143D01*
X10176429Y-11873571D01*
X10185952Y-11854524D01*
X10195476Y-11825952D01*
X10205000Y-11778333D01*
X10205000Y-11740238D01*
X10195476Y-11692619D01*
X10185952Y-11664048D01*
X10176429Y-11645000D01*
X10157381Y-11616428D01*
X10147857Y-11606905D01*
D13*
X4995000Y-12009000D02*
G75*
G03*
X4995000Y-12009000I-35000J0D01*
G01*
D11*
X5290714Y-11899476D02*
X5309762Y-11899476D01*
X5328810Y-11909000D01*
X5338333Y-11918524D01*
X5347857Y-11937571D01*
X5357381Y-11975667D01*
X5357381Y-12023286D01*
X5347857Y-12061381D01*
X5338333Y-12080428D01*
X5328810Y-12089952D01*
X5309762Y-12099476D01*
X5290714Y-12099476D01*
X5271667Y-12089952D01*
X5262143Y-12080428D01*
X5252619Y-12061381D01*
X5243095Y-12023286D01*
X5243095Y-11975667D01*
X5252619Y-11937571D01*
X5262143Y-11918524D01*
X5271667Y-11909000D01*
X5290714Y-11899476D01*
X5443095Y-12080428D02*
X5452619Y-12089952D01*
X5443095Y-12099476D01*
X5433571Y-12089952D01*
X5443095Y-12080428D01*
X5443095Y-12099476D01*
X5519286Y-11899476D02*
X5652619Y-11899476D01*
X5566905Y-12099476D01*
X5766905Y-11899476D02*
X5785952Y-11899476D01*
X5805000Y-11909000D01*
X5814524Y-11918524D01*
X5824048Y-11937571D01*
X5833571Y-11975667D01*
X5833571Y-12023286D01*
X5824048Y-12061381D01*
X5814524Y-12080428D01*
X5805000Y-12089952D01*
X5785952Y-12099476D01*
X5766905Y-12099476D01*
X5747857Y-12089952D01*
X5738333Y-12080428D01*
X5728809Y-12061381D01*
X5719286Y-12023286D01*
X5719286Y-11975667D01*
X5728809Y-11937571D01*
X5738333Y-11918524D01*
X5747857Y-11909000D01*
X5766905Y-11899476D01*
X5957381Y-11899476D02*
X5976428Y-11899476D01*
X5995476Y-11909000D01*
X6005000Y-11918524D01*
X6014524Y-11937571D01*
X6024048Y-11975667D01*
X6024048Y-12023286D01*
X6014524Y-12061381D01*
X6005000Y-12080428D01*
X5995476Y-12089952D01*
X5976428Y-12099476D01*
X5957381Y-12099476D01*
X5938333Y-12089952D01*
X5928809Y-12080428D01*
X5919286Y-12061381D01*
X5909762Y-12023286D01*
X5909762Y-11975667D01*
X5919286Y-11937571D01*
X5928809Y-11918524D01*
X5938333Y-11909000D01*
X5957381Y-11899476D01*
X6109762Y-12099476D02*
X6109762Y-11966143D01*
X6109762Y-11985190D02*
X6119286Y-11975667D01*
X6138333Y-11966143D01*
X6166905Y-11966143D01*
X6185952Y-11975667D01*
X6195476Y-11994714D01*
X6195476Y-12099476D01*
X6195476Y-11994714D02*
X6205000Y-11975667D01*
X6224048Y-11966143D01*
X6252619Y-11966143D01*
X6271667Y-11975667D01*
X6281190Y-11994714D01*
X6281190Y-12099476D01*
X6376428Y-12099476D02*
X6376428Y-11966143D01*
X6376428Y-11985190D02*
X6385952Y-11975667D01*
X6405000Y-11966143D01*
X6433571Y-11966143D01*
X6452619Y-11975667D01*
X6462143Y-11994714D01*
X6462143Y-12099476D01*
X6462143Y-11994714D02*
X6471667Y-11975667D01*
X6490714Y-11966143D01*
X6519286Y-11966143D01*
X6538333Y-11975667D01*
X6547857Y-11994714D01*
X6547857Y-12099476D01*
X6938333Y-11889952D02*
X6766905Y-12147095D01*
X7195476Y-11899476D02*
X7214524Y-11899476D01*
X7233571Y-11909000D01*
X7243095Y-11918524D01*
X7252619Y-11937571D01*
X7262143Y-11975667D01*
X7262143Y-12023286D01*
X7252619Y-12061381D01*
X7243095Y-12080428D01*
X7233571Y-12089952D01*
X7214524Y-12099476D01*
X7195476Y-12099476D01*
X7176428Y-12089952D01*
X7166905Y-12080428D01*
X7157381Y-12061381D01*
X7147857Y-12023286D01*
X7147857Y-11975667D01*
X7157381Y-11937571D01*
X7166905Y-11918524D01*
X7176428Y-11909000D01*
X7195476Y-11899476D01*
X7347857Y-12080428D02*
X7357381Y-12089952D01*
X7347857Y-12099476D01*
X7338333Y-12089952D01*
X7347857Y-12080428D01*
X7347857Y-12099476D01*
X7481190Y-11899476D02*
X7500238Y-11899476D01*
X7519286Y-11909000D01*
X7528809Y-11918524D01*
X7538333Y-11937571D01*
X7547857Y-11975667D01*
X7547857Y-12023286D01*
X7538333Y-12061381D01*
X7528809Y-12080428D01*
X7519286Y-12089952D01*
X7500238Y-12099476D01*
X7481190Y-12099476D01*
X7462143Y-12089952D01*
X7452619Y-12080428D01*
X7443095Y-12061381D01*
X7433571Y-12023286D01*
X7433571Y-11975667D01*
X7443095Y-11937571D01*
X7452619Y-11918524D01*
X7462143Y-11909000D01*
X7481190Y-11899476D01*
X7624048Y-11918524D02*
X7633571Y-11909000D01*
X7652619Y-11899476D01*
X7700238Y-11899476D01*
X7719286Y-11909000D01*
X7728809Y-11918524D01*
X7738333Y-11937571D01*
X7738333Y-11956619D01*
X7728809Y-11985190D01*
X7614524Y-12099476D01*
X7738333Y-12099476D01*
X7805000Y-11899476D02*
X7938333Y-11899476D01*
X7852619Y-12099476D01*
X8100238Y-11899476D02*
X8062143Y-11899476D01*
X8043095Y-11909000D01*
X8033571Y-11918524D01*
X8014524Y-11947095D01*
X8005000Y-11985190D01*
X8005000Y-12061381D01*
X8014524Y-12080428D01*
X8024048Y-12089952D01*
X8043095Y-12099476D01*
X8081190Y-12099476D01*
X8100238Y-12089952D01*
X8109762Y-12080428D01*
X8119286Y-12061381D01*
X8119286Y-12013762D01*
X8109762Y-11994714D01*
X8100238Y-11985190D01*
X8081190Y-11975667D01*
X8043095Y-11975667D01*
X8024048Y-11985190D01*
X8014524Y-11994714D01*
X8005000Y-12013762D01*
X8195476Y-11899476D02*
X8195476Y-11937571D01*
X8271667Y-11899476D02*
X8271667Y-11937571D01*
X8566905Y-12175667D02*
X8557381Y-12166143D01*
X8538333Y-12137571D01*
X8528810Y-12118524D01*
X8519286Y-12089952D01*
X8509762Y-12042333D01*
X8509762Y-12004238D01*
X8519286Y-11956619D01*
X8528810Y-11928048D01*
X8538333Y-11909000D01*
X8557381Y-11880428D01*
X8566905Y-11870905D01*
X8728810Y-11899476D02*
X8690714Y-11899476D01*
X8671667Y-11909000D01*
X8662143Y-11918524D01*
X8643095Y-11947095D01*
X8633571Y-11985190D01*
X8633571Y-12061381D01*
X8643095Y-12080428D01*
X8652619Y-12089952D01*
X8671667Y-12099476D01*
X8709762Y-12099476D01*
X8728810Y-12089952D01*
X8738333Y-12080428D01*
X8747857Y-12061381D01*
X8747857Y-12013762D01*
X8738333Y-11994714D01*
X8728810Y-11985190D01*
X8709762Y-11975667D01*
X8671667Y-11975667D01*
X8652619Y-11985190D01*
X8643095Y-11994714D01*
X8633571Y-12013762D01*
X8985952Y-12099476D02*
X8985952Y-11899476D01*
X9071667Y-12099476D02*
X9071667Y-11994714D01*
X9062143Y-11975667D01*
X9043095Y-11966143D01*
X9014524Y-11966143D01*
X8995476Y-11975667D01*
X8985952Y-11985190D01*
X9195476Y-12099476D02*
X9176429Y-12089952D01*
X9166905Y-12080428D01*
X9157381Y-12061381D01*
X9157381Y-12004238D01*
X9166905Y-11985190D01*
X9176429Y-11975667D01*
X9195476Y-11966143D01*
X9224048Y-11966143D01*
X9243095Y-11975667D01*
X9252619Y-11985190D01*
X9262143Y-12004238D01*
X9262143Y-12061381D01*
X9252619Y-12080428D01*
X9243095Y-12089952D01*
X9224048Y-12099476D01*
X9195476Y-12099476D01*
X9376429Y-12099476D02*
X9357381Y-12089952D01*
X9347857Y-12070905D01*
X9347857Y-11899476D01*
X9528810Y-12089952D02*
X9509762Y-12099476D01*
X9471667Y-12099476D01*
X9452619Y-12089952D01*
X9443095Y-12070905D01*
X9443095Y-11994714D01*
X9452619Y-11975667D01*
X9471667Y-11966143D01*
X9509762Y-11966143D01*
X9528810Y-11975667D01*
X9538333Y-11994714D01*
X9538333Y-12013762D01*
X9443095Y-12032809D01*
X9614524Y-12089952D02*
X9633571Y-12099476D01*
X9671667Y-12099476D01*
X9690714Y-12089952D01*
X9700238Y-12070905D01*
X9700238Y-12061381D01*
X9690714Y-12042333D01*
X9671667Y-12032809D01*
X9643095Y-12032809D01*
X9624048Y-12023286D01*
X9614524Y-12004238D01*
X9614524Y-11994714D01*
X9624048Y-11975667D01*
X9643095Y-11966143D01*
X9671667Y-11966143D01*
X9690714Y-11975667D01*
X9766905Y-12175667D02*
X9776429Y-12166143D01*
X9795476Y-12137571D01*
X9805000Y-12118524D01*
X9814524Y-12089952D01*
X9824048Y-12042333D01*
X9824048Y-12004238D01*
X9814524Y-11956619D01*
X9805000Y-11928048D01*
X9795476Y-11909000D01*
X9776429Y-11880428D01*
X9766905Y-11870905D01*
D14*
X4957500Y-12235500D02*
X4957500Y-12310500D01*
X4920000Y-12273000D02*
X4995000Y-12273000D01*
D11*
X5290714Y-12163476D02*
X5309762Y-12163476D01*
X5328810Y-12173000D01*
X5338333Y-12182524D01*
X5347857Y-12201571D01*
X5357381Y-12239667D01*
X5357381Y-12287286D01*
X5347857Y-12325381D01*
X5338333Y-12344428D01*
X5328810Y-12353952D01*
X5309762Y-12363476D01*
X5290714Y-12363476D01*
X5271667Y-12353952D01*
X5262143Y-12344428D01*
X5252619Y-12325381D01*
X5243095Y-12287286D01*
X5243095Y-12239667D01*
X5252619Y-12201571D01*
X5262143Y-12182524D01*
X5271667Y-12173000D01*
X5290714Y-12163476D01*
X5443095Y-12344428D02*
X5452619Y-12353952D01*
X5443095Y-12363476D01*
X5433571Y-12353952D01*
X5443095Y-12344428D01*
X5443095Y-12363476D01*
X5519286Y-12163476D02*
X5652619Y-12163476D01*
X5566905Y-12363476D01*
X5824048Y-12163476D02*
X5728809Y-12163476D01*
X5719286Y-12258714D01*
X5728809Y-12249190D01*
X5747857Y-12239667D01*
X5795476Y-12239667D01*
X5814524Y-12249190D01*
X5824048Y-12258714D01*
X5833571Y-12277762D01*
X5833571Y-12325381D01*
X5824048Y-12344428D01*
X5814524Y-12353952D01*
X5795476Y-12363476D01*
X5747857Y-12363476D01*
X5728809Y-12353952D01*
X5719286Y-12344428D01*
X5957381Y-12163476D02*
X5976428Y-12163476D01*
X5995476Y-12173000D01*
X6005000Y-12182524D01*
X6014524Y-12201571D01*
X6024048Y-12239667D01*
X6024048Y-12287286D01*
X6014524Y-12325381D01*
X6005000Y-12344428D01*
X5995476Y-12353952D01*
X5976428Y-12363476D01*
X5957381Y-12363476D01*
X5938333Y-12353952D01*
X5928809Y-12344428D01*
X5919286Y-12325381D01*
X5909762Y-12287286D01*
X5909762Y-12239667D01*
X5919286Y-12201571D01*
X5928809Y-12182524D01*
X5938333Y-12173000D01*
X5957381Y-12163476D01*
X6109762Y-12363476D02*
X6109762Y-12230143D01*
X6109762Y-12249190D02*
X6119286Y-12239667D01*
X6138333Y-12230143D01*
X6166905Y-12230143D01*
X6185952Y-12239667D01*
X6195476Y-12258714D01*
X6195476Y-12363476D01*
X6195476Y-12258714D02*
X6205000Y-12239667D01*
X6224048Y-12230143D01*
X6252619Y-12230143D01*
X6271667Y-12239667D01*
X6281190Y-12258714D01*
X6281190Y-12363476D01*
X6376428Y-12363476D02*
X6376428Y-12230143D01*
X6376428Y-12249190D02*
X6385952Y-12239667D01*
X6405000Y-12230143D01*
X6433571Y-12230143D01*
X6452619Y-12239667D01*
X6462143Y-12258714D01*
X6462143Y-12363476D01*
X6462143Y-12258714D02*
X6471667Y-12239667D01*
X6490714Y-12230143D01*
X6519286Y-12230143D01*
X6538333Y-12239667D01*
X6547857Y-12258714D01*
X6547857Y-12363476D01*
X6938333Y-12153952D02*
X6766905Y-12411095D01*
X7195476Y-12163476D02*
X7214524Y-12163476D01*
X7233571Y-12173000D01*
X7243095Y-12182524D01*
X7252619Y-12201571D01*
X7262143Y-12239667D01*
X7262143Y-12287286D01*
X7252619Y-12325381D01*
X7243095Y-12344428D01*
X7233571Y-12353952D01*
X7214524Y-12363476D01*
X7195476Y-12363476D01*
X7176428Y-12353952D01*
X7166905Y-12344428D01*
X7157381Y-12325381D01*
X7147857Y-12287286D01*
X7147857Y-12239667D01*
X7157381Y-12201571D01*
X7166905Y-12182524D01*
X7176428Y-12173000D01*
X7195476Y-12163476D01*
X7347857Y-12344428D02*
X7357381Y-12353952D01*
X7347857Y-12363476D01*
X7338333Y-12353952D01*
X7347857Y-12344428D01*
X7347857Y-12363476D01*
X7481190Y-12163476D02*
X7500238Y-12163476D01*
X7519286Y-12173000D01*
X7528809Y-12182524D01*
X7538333Y-12201571D01*
X7547857Y-12239667D01*
X7547857Y-12287286D01*
X7538333Y-12325381D01*
X7528809Y-12344428D01*
X7519286Y-12353952D01*
X7500238Y-12363476D01*
X7481190Y-12363476D01*
X7462143Y-12353952D01*
X7452619Y-12344428D01*
X7443095Y-12325381D01*
X7433571Y-12287286D01*
X7433571Y-12239667D01*
X7443095Y-12201571D01*
X7452619Y-12182524D01*
X7462143Y-12173000D01*
X7481190Y-12163476D01*
X7624048Y-12182524D02*
X7633571Y-12173000D01*
X7652619Y-12163476D01*
X7700238Y-12163476D01*
X7719286Y-12173000D01*
X7728809Y-12182524D01*
X7738333Y-12201571D01*
X7738333Y-12220619D01*
X7728809Y-12249190D01*
X7614524Y-12363476D01*
X7738333Y-12363476D01*
X7833571Y-12363476D02*
X7871667Y-12363476D01*
X7890714Y-12353952D01*
X7900238Y-12344428D01*
X7919286Y-12315857D01*
X7928809Y-12277762D01*
X7928809Y-12201571D01*
X7919286Y-12182524D01*
X7909762Y-12173000D01*
X7890714Y-12163476D01*
X7852619Y-12163476D01*
X7833571Y-12173000D01*
X7824048Y-12182524D01*
X7814524Y-12201571D01*
X7814524Y-12249190D01*
X7824048Y-12268238D01*
X7833571Y-12277762D01*
X7852619Y-12287286D01*
X7890714Y-12287286D01*
X7909762Y-12277762D01*
X7919286Y-12268238D01*
X7928809Y-12249190D01*
X8109762Y-12163476D02*
X8014524Y-12163476D01*
X8005000Y-12258714D01*
X8014524Y-12249190D01*
X8033571Y-12239667D01*
X8081190Y-12239667D01*
X8100238Y-12249190D01*
X8109762Y-12258714D01*
X8119286Y-12277762D01*
X8119286Y-12325381D01*
X8109762Y-12344428D01*
X8100238Y-12353952D01*
X8081190Y-12363476D01*
X8033571Y-12363476D01*
X8014524Y-12353952D01*
X8005000Y-12344428D01*
X8195476Y-12163476D02*
X8195476Y-12201571D01*
X8271667Y-12163476D02*
X8271667Y-12201571D01*
X8566905Y-12439667D02*
X8557381Y-12430143D01*
X8538333Y-12401571D01*
X8528810Y-12382524D01*
X8519286Y-12353952D01*
X8509762Y-12306333D01*
X8509762Y-12268238D01*
X8519286Y-12220619D01*
X8528810Y-12192048D01*
X8538333Y-12173000D01*
X8557381Y-12144428D01*
X8566905Y-12134905D01*
X8624048Y-12163476D02*
X8757381Y-12163476D01*
X8671667Y-12363476D01*
X8985952Y-12363476D02*
X8985952Y-12163476D01*
X9071667Y-12363476D02*
X9071667Y-12258714D01*
X9062143Y-12239667D01*
X9043095Y-12230143D01*
X9014524Y-12230143D01*
X8995476Y-12239667D01*
X8985952Y-12249190D01*
X9195476Y-12363476D02*
X9176429Y-12353952D01*
X9166905Y-12344428D01*
X9157381Y-12325381D01*
X9157381Y-12268238D01*
X9166905Y-12249190D01*
X9176429Y-12239667D01*
X9195476Y-12230143D01*
X9224048Y-12230143D01*
X9243095Y-12239667D01*
X9252619Y-12249190D01*
X9262143Y-12268238D01*
X9262143Y-12325381D01*
X9252619Y-12344428D01*
X9243095Y-12353952D01*
X9224048Y-12363476D01*
X9195476Y-12363476D01*
X9376429Y-12363476D02*
X9357381Y-12353952D01*
X9347857Y-12334905D01*
X9347857Y-12163476D01*
X9528810Y-12353952D02*
X9509762Y-12363476D01*
X9471667Y-12363476D01*
X9452619Y-12353952D01*
X9443095Y-12334905D01*
X9443095Y-12258714D01*
X9452619Y-12239667D01*
X9471667Y-12230143D01*
X9509762Y-12230143D01*
X9528810Y-12239667D01*
X9538333Y-12258714D01*
X9538333Y-12277762D01*
X9443095Y-12296809D01*
X9614524Y-12353952D02*
X9633571Y-12363476D01*
X9671667Y-12363476D01*
X9690714Y-12353952D01*
X9700238Y-12334905D01*
X9700238Y-12325381D01*
X9690714Y-12306333D01*
X9671667Y-12296809D01*
X9643095Y-12296809D01*
X9624048Y-12287286D01*
X9614524Y-12268238D01*
X9614524Y-12258714D01*
X9624048Y-12239667D01*
X9643095Y-12230143D01*
X9671667Y-12230143D01*
X9690714Y-12239667D01*
X9766905Y-12439667D02*
X9776429Y-12430143D01*
X9795476Y-12401571D01*
X9805000Y-12382524D01*
X9814524Y-12353952D01*
X9824048Y-12306333D01*
X9824048Y-12268238D01*
X9814524Y-12220619D01*
X9805000Y-12192048D01*
X9795476Y-12173000D01*
X9776429Y-12144428D01*
X9766905Y-12134905D01*
D15*
X4983285Y-12565284D02*
X4983285Y-12508715D01*
X4926716Y-12508715D01*
X4926716Y-12565284D01*
X4983285Y-12565284D01*
D11*
X5290714Y-12427476D02*
X5309762Y-12427476D01*
X5328810Y-12437000D01*
X5338333Y-12446524D01*
X5347857Y-12465571D01*
X5357381Y-12503667D01*
X5357381Y-12551286D01*
X5347857Y-12589381D01*
X5338333Y-12608428D01*
X5328810Y-12617952D01*
X5309762Y-12627476D01*
X5290714Y-12627476D01*
X5271667Y-12617952D01*
X5262143Y-12608428D01*
X5252619Y-12589381D01*
X5243095Y-12551286D01*
X5243095Y-12503667D01*
X5252619Y-12465571D01*
X5262143Y-12446524D01*
X5271667Y-12437000D01*
X5290714Y-12427476D01*
X5443095Y-12608428D02*
X5452619Y-12617952D01*
X5443095Y-12627476D01*
X5433571Y-12617952D01*
X5443095Y-12608428D01*
X5443095Y-12627476D01*
X5566905Y-12513190D02*
X5547857Y-12503667D01*
X5538333Y-12494143D01*
X5528810Y-12475095D01*
X5528810Y-12465571D01*
X5538333Y-12446524D01*
X5547857Y-12437000D01*
X5566905Y-12427476D01*
X5605000Y-12427476D01*
X5624048Y-12437000D01*
X5633571Y-12446524D01*
X5643095Y-12465571D01*
X5643095Y-12475095D01*
X5633571Y-12494143D01*
X5624048Y-12503667D01*
X5605000Y-12513190D01*
X5566905Y-12513190D01*
X5547857Y-12522714D01*
X5538333Y-12532238D01*
X5528810Y-12551286D01*
X5528810Y-12589381D01*
X5538333Y-12608428D01*
X5547857Y-12617952D01*
X5566905Y-12627476D01*
X5605000Y-12627476D01*
X5624048Y-12617952D01*
X5633571Y-12608428D01*
X5643095Y-12589381D01*
X5643095Y-12551286D01*
X5633571Y-12532238D01*
X5624048Y-12522714D01*
X5605000Y-12513190D01*
X5766905Y-12427476D02*
X5785952Y-12427476D01*
X5805000Y-12437000D01*
X5814524Y-12446524D01*
X5824048Y-12465571D01*
X5833571Y-12503667D01*
X5833571Y-12551286D01*
X5824048Y-12589381D01*
X5814524Y-12608428D01*
X5805000Y-12617952D01*
X5785952Y-12627476D01*
X5766905Y-12627476D01*
X5747857Y-12617952D01*
X5738333Y-12608428D01*
X5728809Y-12589381D01*
X5719286Y-12551286D01*
X5719286Y-12503667D01*
X5728809Y-12465571D01*
X5738333Y-12446524D01*
X5747857Y-12437000D01*
X5766905Y-12427476D01*
X5957381Y-12427476D02*
X5976428Y-12427476D01*
X5995476Y-12437000D01*
X6005000Y-12446524D01*
X6014524Y-12465571D01*
X6024048Y-12503667D01*
X6024048Y-12551286D01*
X6014524Y-12589381D01*
X6005000Y-12608428D01*
X5995476Y-12617952D01*
X5976428Y-12627476D01*
X5957381Y-12627476D01*
X5938333Y-12617952D01*
X5928809Y-12608428D01*
X5919286Y-12589381D01*
X5909762Y-12551286D01*
X5909762Y-12503667D01*
X5919286Y-12465571D01*
X5928809Y-12446524D01*
X5938333Y-12437000D01*
X5957381Y-12427476D01*
X6109762Y-12627476D02*
X6109762Y-12494143D01*
X6109762Y-12513190D02*
X6119286Y-12503667D01*
X6138333Y-12494143D01*
X6166905Y-12494143D01*
X6185952Y-12503667D01*
X6195476Y-12522714D01*
X6195476Y-12627476D01*
X6195476Y-12522714D02*
X6205000Y-12503667D01*
X6224048Y-12494143D01*
X6252619Y-12494143D01*
X6271667Y-12503667D01*
X6281190Y-12522714D01*
X6281190Y-12627476D01*
X6376428Y-12627476D02*
X6376428Y-12494143D01*
X6376428Y-12513190D02*
X6385952Y-12503667D01*
X6405000Y-12494143D01*
X6433571Y-12494143D01*
X6452619Y-12503667D01*
X6462143Y-12522714D01*
X6462143Y-12627476D01*
X6462143Y-12522714D02*
X6471667Y-12503667D01*
X6490714Y-12494143D01*
X6519286Y-12494143D01*
X6538333Y-12503667D01*
X6547857Y-12522714D01*
X6547857Y-12627476D01*
X6938333Y-12417952D02*
X6766905Y-12675095D01*
X7195476Y-12427476D02*
X7214524Y-12427476D01*
X7233571Y-12437000D01*
X7243095Y-12446524D01*
X7252619Y-12465571D01*
X7262143Y-12503667D01*
X7262143Y-12551286D01*
X7252619Y-12589381D01*
X7243095Y-12608428D01*
X7233571Y-12617952D01*
X7214524Y-12627476D01*
X7195476Y-12627476D01*
X7176428Y-12617952D01*
X7166905Y-12608428D01*
X7157381Y-12589381D01*
X7147857Y-12551286D01*
X7147857Y-12503667D01*
X7157381Y-12465571D01*
X7166905Y-12446524D01*
X7176428Y-12437000D01*
X7195476Y-12427476D01*
X7347857Y-12608428D02*
X7357381Y-12617952D01*
X7347857Y-12627476D01*
X7338333Y-12617952D01*
X7347857Y-12608428D01*
X7347857Y-12627476D01*
X7481190Y-12427476D02*
X7500238Y-12427476D01*
X7519286Y-12437000D01*
X7528809Y-12446524D01*
X7538333Y-12465571D01*
X7547857Y-12503667D01*
X7547857Y-12551286D01*
X7538333Y-12589381D01*
X7528809Y-12608428D01*
X7519286Y-12617952D01*
X7500238Y-12627476D01*
X7481190Y-12627476D01*
X7462143Y-12617952D01*
X7452619Y-12608428D01*
X7443095Y-12589381D01*
X7433571Y-12551286D01*
X7433571Y-12503667D01*
X7443095Y-12465571D01*
X7452619Y-12446524D01*
X7462143Y-12437000D01*
X7481190Y-12427476D01*
X7614524Y-12427476D02*
X7738333Y-12427476D01*
X7671667Y-12503667D01*
X7700238Y-12503667D01*
X7719286Y-12513190D01*
X7728809Y-12522714D01*
X7738333Y-12541762D01*
X7738333Y-12589381D01*
X7728809Y-12608428D01*
X7719286Y-12617952D01*
X7700238Y-12627476D01*
X7643095Y-12627476D01*
X7624048Y-12617952D01*
X7614524Y-12608428D01*
X7928809Y-12627476D02*
X7814524Y-12627476D01*
X7871667Y-12627476D02*
X7871667Y-12427476D01*
X7852619Y-12456048D01*
X7833571Y-12475095D01*
X7814524Y-12484619D01*
X8109762Y-12427476D02*
X8014524Y-12427476D01*
X8005000Y-12522714D01*
X8014524Y-12513190D01*
X8033571Y-12503667D01*
X8081190Y-12503667D01*
X8100238Y-12513190D01*
X8109762Y-12522714D01*
X8119286Y-12541762D01*
X8119286Y-12589381D01*
X8109762Y-12608428D01*
X8100238Y-12617952D01*
X8081190Y-12627476D01*
X8033571Y-12627476D01*
X8014524Y-12617952D01*
X8005000Y-12608428D01*
X8195476Y-12427476D02*
X8195476Y-12465571D01*
X8271667Y-12427476D02*
X8271667Y-12465571D01*
X8566905Y-12703667D02*
X8557381Y-12694143D01*
X8538333Y-12665571D01*
X8528810Y-12646524D01*
X8519286Y-12617952D01*
X8509762Y-12570333D01*
X8509762Y-12532238D01*
X8519286Y-12484619D01*
X8528810Y-12456048D01*
X8538333Y-12437000D01*
X8557381Y-12408428D01*
X8566905Y-12398905D01*
X8738333Y-12427476D02*
X8643095Y-12427476D01*
X8633571Y-12522714D01*
X8643095Y-12513190D01*
X8662143Y-12503667D01*
X8709762Y-12503667D01*
X8728810Y-12513190D01*
X8738333Y-12522714D01*
X8747857Y-12541762D01*
X8747857Y-12589381D01*
X8738333Y-12608428D01*
X8728810Y-12617952D01*
X8709762Y-12627476D01*
X8662143Y-12627476D01*
X8643095Y-12617952D01*
X8633571Y-12608428D01*
X8919286Y-12494143D02*
X8919286Y-12627476D01*
X8871667Y-12417952D02*
X8824048Y-12560809D01*
X8947857Y-12560809D01*
X9176429Y-12627476D02*
X9176429Y-12427476D01*
X9262143Y-12627476D02*
X9262143Y-12522714D01*
X9252619Y-12503667D01*
X9233571Y-12494143D01*
X9205000Y-12494143D01*
X9185952Y-12503667D01*
X9176429Y-12513190D01*
X9385952Y-12627476D02*
X9366905Y-12617952D01*
X9357381Y-12608428D01*
X9347857Y-12589381D01*
X9347857Y-12532238D01*
X9357381Y-12513190D01*
X9366905Y-12503667D01*
X9385952Y-12494143D01*
X9414524Y-12494143D01*
X9433571Y-12503667D01*
X9443095Y-12513190D01*
X9452619Y-12532238D01*
X9452619Y-12589381D01*
X9443095Y-12608428D01*
X9433571Y-12617952D01*
X9414524Y-12627476D01*
X9385952Y-12627476D01*
X9566905Y-12627476D02*
X9547857Y-12617952D01*
X9538333Y-12598905D01*
X9538333Y-12427476D01*
X9719286Y-12617952D02*
X9700238Y-12627476D01*
X9662143Y-12627476D01*
X9643095Y-12617952D01*
X9633571Y-12598905D01*
X9633571Y-12522714D01*
X9643095Y-12503667D01*
X9662143Y-12494143D01*
X9700238Y-12494143D01*
X9719286Y-12503667D01*
X9728810Y-12522714D01*
X9728810Y-12541762D01*
X9633571Y-12560809D01*
X9805000Y-12617952D02*
X9824048Y-12627476D01*
X9862143Y-12627476D01*
X9881190Y-12617952D01*
X9890714Y-12598905D01*
X9890714Y-12589381D01*
X9881190Y-12570333D01*
X9862143Y-12560809D01*
X9833571Y-12560809D01*
X9814524Y-12551286D01*
X9805000Y-12532238D01*
X9805000Y-12522714D01*
X9814524Y-12503667D01*
X9833571Y-12494143D01*
X9862143Y-12494143D01*
X9881190Y-12503667D01*
X9957381Y-12703667D02*
X9966905Y-12694143D01*
X9985952Y-12665571D01*
X9995476Y-12646524D01*
X10005000Y-12617952D01*
X10014524Y-12570333D01*
X10014524Y-12532238D01*
X10005000Y-12484619D01*
X9995476Y-12456048D01*
X9985952Y-12437000D01*
X9966905Y-12408428D01*
X9957381Y-12398905D01*
D16*
X4950000Y-12846000D02*
X4995000Y-12801000D01*
X4950000Y-12756000D01*
X4905000Y-12801000D01*
X4950000Y-12846000D01*
D11*
X5290714Y-12691476D02*
X5309762Y-12691476D01*
X5328810Y-12701000D01*
X5338333Y-12710524D01*
X5347857Y-12729571D01*
X5357381Y-12767667D01*
X5357381Y-12815286D01*
X5347857Y-12853381D01*
X5338333Y-12872428D01*
X5328810Y-12881952D01*
X5309762Y-12891476D01*
X5290714Y-12891476D01*
X5271667Y-12881952D01*
X5262143Y-12872428D01*
X5252619Y-12853381D01*
X5243095Y-12815286D01*
X5243095Y-12767667D01*
X5252619Y-12729571D01*
X5262143Y-12710524D01*
X5271667Y-12701000D01*
X5290714Y-12691476D01*
X5443095Y-12872428D02*
X5452619Y-12881952D01*
X5443095Y-12891476D01*
X5433571Y-12881952D01*
X5443095Y-12872428D01*
X5443095Y-12891476D01*
X5547857Y-12891476D02*
X5585952Y-12891476D01*
X5605000Y-12881952D01*
X5614524Y-12872428D01*
X5633571Y-12843857D01*
X5643095Y-12805762D01*
X5643095Y-12729571D01*
X5633571Y-12710524D01*
X5624048Y-12701000D01*
X5605000Y-12691476D01*
X5566905Y-12691476D01*
X5547857Y-12701000D01*
X5538333Y-12710524D01*
X5528810Y-12729571D01*
X5528810Y-12777190D01*
X5538333Y-12796238D01*
X5547857Y-12805762D01*
X5566905Y-12815286D01*
X5605000Y-12815286D01*
X5624048Y-12805762D01*
X5633571Y-12796238D01*
X5643095Y-12777190D01*
X5766905Y-12691476D02*
X5785952Y-12691476D01*
X5805000Y-12701000D01*
X5814524Y-12710524D01*
X5824048Y-12729571D01*
X5833571Y-12767667D01*
X5833571Y-12815286D01*
X5824048Y-12853381D01*
X5814524Y-12872428D01*
X5805000Y-12881952D01*
X5785952Y-12891476D01*
X5766905Y-12891476D01*
X5747857Y-12881952D01*
X5738333Y-12872428D01*
X5728809Y-12853381D01*
X5719286Y-12815286D01*
X5719286Y-12767667D01*
X5728809Y-12729571D01*
X5738333Y-12710524D01*
X5747857Y-12701000D01*
X5766905Y-12691476D01*
X5957381Y-12691476D02*
X5976428Y-12691476D01*
X5995476Y-12701000D01*
X6005000Y-12710524D01*
X6014524Y-12729571D01*
X6024048Y-12767667D01*
X6024048Y-12815286D01*
X6014524Y-12853381D01*
X6005000Y-12872428D01*
X5995476Y-12881952D01*
X5976428Y-12891476D01*
X5957381Y-12891476D01*
X5938333Y-12881952D01*
X5928809Y-12872428D01*
X5919286Y-12853381D01*
X5909762Y-12815286D01*
X5909762Y-12767667D01*
X5919286Y-12729571D01*
X5928809Y-12710524D01*
X5938333Y-12701000D01*
X5957381Y-12691476D01*
X6109762Y-12891476D02*
X6109762Y-12758143D01*
X6109762Y-12777190D02*
X6119286Y-12767667D01*
X6138333Y-12758143D01*
X6166905Y-12758143D01*
X6185952Y-12767667D01*
X6195476Y-12786714D01*
X6195476Y-12891476D01*
X6195476Y-12786714D02*
X6205000Y-12767667D01*
X6224048Y-12758143D01*
X6252619Y-12758143D01*
X6271667Y-12767667D01*
X6281190Y-12786714D01*
X6281190Y-12891476D01*
X6376428Y-12891476D02*
X6376428Y-12758143D01*
X6376428Y-12777190D02*
X6385952Y-12767667D01*
X6405000Y-12758143D01*
X6433571Y-12758143D01*
X6452619Y-12767667D01*
X6462143Y-12786714D01*
X6462143Y-12891476D01*
X6462143Y-12786714D02*
X6471667Y-12767667D01*
X6490714Y-12758143D01*
X6519286Y-12758143D01*
X6538333Y-12767667D01*
X6547857Y-12786714D01*
X6547857Y-12891476D01*
X6938333Y-12681952D02*
X6766905Y-12939095D01*
X7195476Y-12691476D02*
X7214524Y-12691476D01*
X7233571Y-12701000D01*
X7243095Y-12710524D01*
X7252619Y-12729571D01*
X7262143Y-12767667D01*
X7262143Y-12815286D01*
X7252619Y-12853381D01*
X7243095Y-12872428D01*
X7233571Y-12881952D01*
X7214524Y-12891476D01*
X7195476Y-12891476D01*
X7176428Y-12881952D01*
X7166905Y-12872428D01*
X7157381Y-12853381D01*
X7147857Y-12815286D01*
X7147857Y-12767667D01*
X7157381Y-12729571D01*
X7166905Y-12710524D01*
X7176428Y-12701000D01*
X7195476Y-12691476D01*
X7347857Y-12872428D02*
X7357381Y-12881952D01*
X7347857Y-12891476D01*
X7338333Y-12881952D01*
X7347857Y-12872428D01*
X7347857Y-12891476D01*
X7481190Y-12691476D02*
X7500238Y-12691476D01*
X7519286Y-12701000D01*
X7528809Y-12710524D01*
X7538333Y-12729571D01*
X7547857Y-12767667D01*
X7547857Y-12815286D01*
X7538333Y-12853381D01*
X7528809Y-12872428D01*
X7519286Y-12881952D01*
X7500238Y-12891476D01*
X7481190Y-12891476D01*
X7462143Y-12881952D01*
X7452619Y-12872428D01*
X7443095Y-12853381D01*
X7433571Y-12815286D01*
X7433571Y-12767667D01*
X7443095Y-12729571D01*
X7452619Y-12710524D01*
X7462143Y-12701000D01*
X7481190Y-12691476D01*
X7614524Y-12691476D02*
X7738333Y-12691476D01*
X7671667Y-12767667D01*
X7700238Y-12767667D01*
X7719286Y-12777190D01*
X7728809Y-12786714D01*
X7738333Y-12805762D01*
X7738333Y-12853381D01*
X7728809Y-12872428D01*
X7719286Y-12881952D01*
X7700238Y-12891476D01*
X7643095Y-12891476D01*
X7624048Y-12881952D01*
X7614524Y-12872428D01*
X7919286Y-12691476D02*
X7824048Y-12691476D01*
X7814524Y-12786714D01*
X7824048Y-12777190D01*
X7843095Y-12767667D01*
X7890714Y-12767667D01*
X7909762Y-12777190D01*
X7919286Y-12786714D01*
X7928809Y-12805762D01*
X7928809Y-12853381D01*
X7919286Y-12872428D01*
X7909762Y-12881952D01*
X7890714Y-12891476D01*
X7843095Y-12891476D01*
X7824048Y-12881952D01*
X7814524Y-12872428D01*
X8100238Y-12758143D02*
X8100238Y-12891476D01*
X8052619Y-12681952D02*
X8005000Y-12824809D01*
X8128809Y-12824809D01*
X8195476Y-12691476D02*
X8195476Y-12729571D01*
X8271667Y-12691476D02*
X8271667Y-12729571D01*
X8566905Y-12967667D02*
X8557381Y-12958143D01*
X8538333Y-12929571D01*
X8528810Y-12910524D01*
X8519286Y-12881952D01*
X8509762Y-12834333D01*
X8509762Y-12796238D01*
X8519286Y-12748619D01*
X8528810Y-12720048D01*
X8538333Y-12701000D01*
X8557381Y-12672428D01*
X8566905Y-12662905D01*
X8671667Y-12777190D02*
X8652619Y-12767667D01*
X8643095Y-12758143D01*
X8633571Y-12739095D01*
X8633571Y-12729571D01*
X8643095Y-12710524D01*
X8652619Y-12701000D01*
X8671667Y-12691476D01*
X8709762Y-12691476D01*
X8728810Y-12701000D01*
X8738333Y-12710524D01*
X8747857Y-12729571D01*
X8747857Y-12739095D01*
X8738333Y-12758143D01*
X8728810Y-12767667D01*
X8709762Y-12777190D01*
X8671667Y-12777190D01*
X8652619Y-12786714D01*
X8643095Y-12796238D01*
X8633571Y-12815286D01*
X8633571Y-12853381D01*
X8643095Y-12872428D01*
X8652619Y-12881952D01*
X8671667Y-12891476D01*
X8709762Y-12891476D01*
X8728810Y-12881952D01*
X8738333Y-12872428D01*
X8747857Y-12853381D01*
X8747857Y-12815286D01*
X8738333Y-12796238D01*
X8728810Y-12786714D01*
X8709762Y-12777190D01*
X8985952Y-12891476D02*
X8985952Y-12691476D01*
X9071667Y-12891476D02*
X9071667Y-12786714D01*
X9062143Y-12767667D01*
X9043095Y-12758143D01*
X9014524Y-12758143D01*
X8995476Y-12767667D01*
X8985952Y-12777190D01*
X9195476Y-12891476D02*
X9176429Y-12881952D01*
X9166905Y-12872428D01*
X9157381Y-12853381D01*
X9157381Y-12796238D01*
X9166905Y-12777190D01*
X9176429Y-12767667D01*
X9195476Y-12758143D01*
X9224048Y-12758143D01*
X9243095Y-12767667D01*
X9252619Y-12777190D01*
X9262143Y-12796238D01*
X9262143Y-12853381D01*
X9252619Y-12872428D01*
X9243095Y-12881952D01*
X9224048Y-12891476D01*
X9195476Y-12891476D01*
X9376429Y-12891476D02*
X9357381Y-12881952D01*
X9347857Y-12862905D01*
X9347857Y-12691476D01*
X9528810Y-12881952D02*
X9509762Y-12891476D01*
X9471667Y-12891476D01*
X9452619Y-12881952D01*
X9443095Y-12862905D01*
X9443095Y-12786714D01*
X9452619Y-12767667D01*
X9471667Y-12758143D01*
X9509762Y-12758143D01*
X9528810Y-12767667D01*
X9538333Y-12786714D01*
X9538333Y-12805762D01*
X9443095Y-12824809D01*
X9614524Y-12881952D02*
X9633571Y-12891476D01*
X9671667Y-12891476D01*
X9690714Y-12881952D01*
X9700238Y-12862905D01*
X9700238Y-12853381D01*
X9690714Y-12834333D01*
X9671667Y-12824809D01*
X9643095Y-12824809D01*
X9624048Y-12815286D01*
X9614524Y-12796238D01*
X9614524Y-12786714D01*
X9624048Y-12767667D01*
X9643095Y-12758143D01*
X9671667Y-12758143D01*
X9690714Y-12767667D01*
X9766905Y-12967667D02*
X9776429Y-12958143D01*
X9795476Y-12929571D01*
X9805000Y-12910524D01*
X9814524Y-12881952D01*
X9824048Y-12834333D01*
X9824048Y-12796238D01*
X9814524Y-12748619D01*
X9805000Y-12720048D01*
X9795476Y-12701000D01*
X9776429Y-12672428D01*
X9766905Y-12662905D01*
D17*
X4895000Y-13015000D02*
X4995000Y-13115000D01*
X4995000Y-13015000D02*
X4895000Y-13115000D01*
X4995000Y-13065000D02*
G75*
G03*
X4995000Y-13065000I-50000J0D01*
G01*
D11*
X5357381Y-13155476D02*
X5243095Y-13155476D01*
X5300238Y-13155476D02*
X5300238Y-12955476D01*
X5281190Y-12984048D01*
X5262143Y-13003095D01*
X5243095Y-13012619D01*
X5443095Y-13136428D02*
X5452619Y-13145952D01*
X5443095Y-13155476D01*
X5433571Y-13145952D01*
X5443095Y-13136428D01*
X5443095Y-13155476D01*
X5576429Y-12955476D02*
X5595476Y-12955476D01*
X5614524Y-12965000D01*
X5624048Y-12974524D01*
X5633571Y-12993571D01*
X5643095Y-13031667D01*
X5643095Y-13079286D01*
X5633571Y-13117381D01*
X5624048Y-13136428D01*
X5614524Y-13145952D01*
X5595476Y-13155476D01*
X5576429Y-13155476D01*
X5557381Y-13145952D01*
X5547857Y-13136428D01*
X5538333Y-13117381D01*
X5528810Y-13079286D01*
X5528810Y-13031667D01*
X5538333Y-12993571D01*
X5547857Y-12974524D01*
X5557381Y-12965000D01*
X5576429Y-12955476D01*
X5766905Y-12955476D02*
X5785952Y-12955476D01*
X5805000Y-12965000D01*
X5814524Y-12974524D01*
X5824048Y-12993571D01*
X5833571Y-13031667D01*
X5833571Y-13079286D01*
X5824048Y-13117381D01*
X5814524Y-13136428D01*
X5805000Y-13145952D01*
X5785952Y-13155476D01*
X5766905Y-13155476D01*
X5747857Y-13145952D01*
X5738333Y-13136428D01*
X5728809Y-13117381D01*
X5719286Y-13079286D01*
X5719286Y-13031667D01*
X5728809Y-12993571D01*
X5738333Y-12974524D01*
X5747857Y-12965000D01*
X5766905Y-12955476D01*
X5957381Y-12955476D02*
X5976428Y-12955476D01*
X5995476Y-12965000D01*
X6005000Y-12974524D01*
X6014524Y-12993571D01*
X6024048Y-13031667D01*
X6024048Y-13079286D01*
X6014524Y-13117381D01*
X6005000Y-13136428D01*
X5995476Y-13145952D01*
X5976428Y-13155476D01*
X5957381Y-13155476D01*
X5938333Y-13145952D01*
X5928809Y-13136428D01*
X5919286Y-13117381D01*
X5909762Y-13079286D01*
X5909762Y-13031667D01*
X5919286Y-12993571D01*
X5928809Y-12974524D01*
X5938333Y-12965000D01*
X5957381Y-12955476D01*
X6109762Y-13155476D02*
X6109762Y-13022143D01*
X6109762Y-13041190D02*
X6119286Y-13031667D01*
X6138333Y-13022143D01*
X6166905Y-13022143D01*
X6185952Y-13031667D01*
X6195476Y-13050714D01*
X6195476Y-13155476D01*
X6195476Y-13050714D02*
X6205000Y-13031667D01*
X6224048Y-13022143D01*
X6252619Y-13022143D01*
X6271667Y-13031667D01*
X6281190Y-13050714D01*
X6281190Y-13155476D01*
X6376428Y-13155476D02*
X6376428Y-13022143D01*
X6376428Y-13041190D02*
X6385952Y-13031667D01*
X6405000Y-13022143D01*
X6433571Y-13022143D01*
X6452619Y-13031667D01*
X6462143Y-13050714D01*
X6462143Y-13155476D01*
X6462143Y-13050714D02*
X6471667Y-13031667D01*
X6490714Y-13022143D01*
X6519286Y-13022143D01*
X6538333Y-13031667D01*
X6547857Y-13050714D01*
X6547857Y-13155476D01*
X6938333Y-12945952D02*
X6766905Y-13203095D01*
X7195476Y-12955476D02*
X7214524Y-12955476D01*
X7233571Y-12965000D01*
X7243095Y-12974524D01*
X7252619Y-12993571D01*
X7262143Y-13031667D01*
X7262143Y-13079286D01*
X7252619Y-13117381D01*
X7243095Y-13136428D01*
X7233571Y-13145952D01*
X7214524Y-13155476D01*
X7195476Y-13155476D01*
X7176428Y-13145952D01*
X7166905Y-13136428D01*
X7157381Y-13117381D01*
X7147857Y-13079286D01*
X7147857Y-13031667D01*
X7157381Y-12993571D01*
X7166905Y-12974524D01*
X7176428Y-12965000D01*
X7195476Y-12955476D01*
X7347857Y-13136428D02*
X7357381Y-13145952D01*
X7347857Y-13155476D01*
X7338333Y-13145952D01*
X7347857Y-13136428D01*
X7347857Y-13155476D01*
X7481190Y-12955476D02*
X7500238Y-12955476D01*
X7519286Y-12965000D01*
X7528809Y-12974524D01*
X7538333Y-12993571D01*
X7547857Y-13031667D01*
X7547857Y-13079286D01*
X7538333Y-13117381D01*
X7528809Y-13136428D01*
X7519286Y-13145952D01*
X7500238Y-13155476D01*
X7481190Y-13155476D01*
X7462143Y-13145952D01*
X7452619Y-13136428D01*
X7443095Y-13117381D01*
X7433571Y-13079286D01*
X7433571Y-13031667D01*
X7443095Y-12993571D01*
X7452619Y-12974524D01*
X7462143Y-12965000D01*
X7481190Y-12955476D01*
X7614524Y-12955476D02*
X7738333Y-12955476D01*
X7671667Y-13031667D01*
X7700238Y-13031667D01*
X7719286Y-13041190D01*
X7728809Y-13050714D01*
X7738333Y-13069762D01*
X7738333Y-13117381D01*
X7728809Y-13136428D01*
X7719286Y-13145952D01*
X7700238Y-13155476D01*
X7643095Y-13155476D01*
X7624048Y-13145952D01*
X7614524Y-13136428D01*
X7833571Y-13155476D02*
X7871667Y-13155476D01*
X7890714Y-13145952D01*
X7900238Y-13136428D01*
X7919286Y-13107857D01*
X7928809Y-13069762D01*
X7928809Y-12993571D01*
X7919286Y-12974524D01*
X7909762Y-12965000D01*
X7890714Y-12955476D01*
X7852619Y-12955476D01*
X7833571Y-12965000D01*
X7824048Y-12974524D01*
X7814524Y-12993571D01*
X7814524Y-13041190D01*
X7824048Y-13060238D01*
X7833571Y-13069762D01*
X7852619Y-13079286D01*
X7890714Y-13079286D01*
X7909762Y-13069762D01*
X7919286Y-13060238D01*
X7928809Y-13041190D01*
X8100238Y-13022143D02*
X8100238Y-13155476D01*
X8052619Y-12945952D02*
X8005000Y-13088809D01*
X8128809Y-13088809D01*
X8195476Y-12955476D02*
X8195476Y-12993571D01*
X8271667Y-12955476D02*
X8271667Y-12993571D01*
X8566905Y-13231667D02*
X8557381Y-13222143D01*
X8538333Y-13193571D01*
X8528810Y-13174524D01*
X8519286Y-13145952D01*
X8509762Y-13098333D01*
X8509762Y-13060238D01*
X8519286Y-13012619D01*
X8528810Y-12984048D01*
X8538333Y-12965000D01*
X8557381Y-12936428D01*
X8566905Y-12926905D01*
X8738333Y-12955476D02*
X8643095Y-12955476D01*
X8633571Y-13050714D01*
X8643095Y-13041190D01*
X8662143Y-13031667D01*
X8709762Y-13031667D01*
X8728810Y-13041190D01*
X8738333Y-13050714D01*
X8747857Y-13069762D01*
X8747857Y-13117381D01*
X8738333Y-13136428D01*
X8728810Y-13145952D01*
X8709762Y-13155476D01*
X8662143Y-13155476D01*
X8643095Y-13145952D01*
X8633571Y-13136428D01*
X8814524Y-12955476D02*
X8938333Y-12955476D01*
X8871667Y-13031667D01*
X8900238Y-13031667D01*
X8919286Y-13041190D01*
X8928810Y-13050714D01*
X8938333Y-13069762D01*
X8938333Y-13117381D01*
X8928810Y-13136428D01*
X8919286Y-13145952D01*
X8900238Y-13155476D01*
X8843095Y-13155476D01*
X8824048Y-13145952D01*
X8814524Y-13136428D01*
X9176429Y-13155476D02*
X9176429Y-12955476D01*
X9262143Y-13155476D02*
X9262143Y-13050714D01*
X9252619Y-13031667D01*
X9233571Y-13022143D01*
X9205000Y-13022143D01*
X9185952Y-13031667D01*
X9176429Y-13041190D01*
X9385952Y-13155476D02*
X9366905Y-13145952D01*
X9357381Y-13136428D01*
X9347857Y-13117381D01*
X9347857Y-13060238D01*
X9357381Y-13041190D01*
X9366905Y-13031667D01*
X9385952Y-13022143D01*
X9414524Y-13022143D01*
X9433571Y-13031667D01*
X9443095Y-13041190D01*
X9452619Y-13060238D01*
X9452619Y-13117381D01*
X9443095Y-13136428D01*
X9433571Y-13145952D01*
X9414524Y-13155476D01*
X9385952Y-13155476D01*
X9566905Y-13155476D02*
X9547857Y-13145952D01*
X9538333Y-13126905D01*
X9538333Y-12955476D01*
X9719286Y-13145952D02*
X9700238Y-13155476D01*
X9662143Y-13155476D01*
X9643095Y-13145952D01*
X9633571Y-13126905D01*
X9633571Y-13050714D01*
X9643095Y-13031667D01*
X9662143Y-13022143D01*
X9700238Y-13022143D01*
X9719286Y-13031667D01*
X9728810Y-13050714D01*
X9728810Y-13069762D01*
X9633571Y-13088809D01*
X9805000Y-13145952D02*
X9824048Y-13155476D01*
X9862143Y-13155476D01*
X9881190Y-13145952D01*
X9890714Y-13126905D01*
X9890714Y-13117381D01*
X9881190Y-13098333D01*
X9862143Y-13088809D01*
X9833571Y-13088809D01*
X9814524Y-13079286D01*
X9805000Y-13060238D01*
X9805000Y-13050714D01*
X9814524Y-13031667D01*
X9833571Y-13022143D01*
X9862143Y-13022143D01*
X9881190Y-13031667D01*
X9957381Y-13231667D02*
X9966905Y-13222143D01*
X9985952Y-13193571D01*
X9995476Y-13174524D01*
X10005000Y-13145952D01*
X10014524Y-13098333D01*
X10014524Y-13060238D01*
X10005000Y-13012619D01*
X9995476Y-12984048D01*
X9985952Y-12965000D01*
X9966905Y-12936428D01*
X9957381Y-12926905D01*
D18*
X4893000Y-13278000D02*
X4995000Y-13380000D01*
X4995000Y-13278000D02*
X4893000Y-13380000D01*
X4944000Y-13278000D02*
X4944000Y-13380000D01*
X4893000Y-13329000D02*
X4995000Y-13329000D01*
D11*
X5357381Y-13419476D02*
X5243095Y-13419476D01*
X5300238Y-13419476D02*
X5300238Y-13219476D01*
X5281190Y-13248048D01*
X5262143Y-13267095D01*
X5243095Y-13276619D01*
X5443095Y-13400428D02*
X5452619Y-13409952D01*
X5443095Y-13419476D01*
X5433571Y-13409952D01*
X5443095Y-13400428D01*
X5443095Y-13419476D01*
X5576429Y-13219476D02*
X5595476Y-13219476D01*
X5614524Y-13229000D01*
X5624048Y-13238524D01*
X5633571Y-13257571D01*
X5643095Y-13295667D01*
X5643095Y-13343286D01*
X5633571Y-13381381D01*
X5624048Y-13400428D01*
X5614524Y-13409952D01*
X5595476Y-13419476D01*
X5576429Y-13419476D01*
X5557381Y-13409952D01*
X5547857Y-13400428D01*
X5538333Y-13381381D01*
X5528810Y-13343286D01*
X5528810Y-13295667D01*
X5538333Y-13257571D01*
X5547857Y-13238524D01*
X5557381Y-13229000D01*
X5576429Y-13219476D01*
X5719286Y-13238524D02*
X5728809Y-13229000D01*
X5747857Y-13219476D01*
X5795476Y-13219476D01*
X5814524Y-13229000D01*
X5824048Y-13238524D01*
X5833571Y-13257571D01*
X5833571Y-13276619D01*
X5824048Y-13305190D01*
X5709762Y-13419476D01*
X5833571Y-13419476D01*
X5957381Y-13219476D02*
X5976428Y-13219476D01*
X5995476Y-13229000D01*
X6005000Y-13238524D01*
X6014524Y-13257571D01*
X6024048Y-13295667D01*
X6024048Y-13343286D01*
X6014524Y-13381381D01*
X6005000Y-13400428D01*
X5995476Y-13409952D01*
X5976428Y-13419476D01*
X5957381Y-13419476D01*
X5938333Y-13409952D01*
X5928809Y-13400428D01*
X5919286Y-13381381D01*
X5909762Y-13343286D01*
X5909762Y-13295667D01*
X5919286Y-13257571D01*
X5928809Y-13238524D01*
X5938333Y-13229000D01*
X5957381Y-13219476D01*
X6109762Y-13419476D02*
X6109762Y-13286143D01*
X6109762Y-13305190D02*
X6119286Y-13295667D01*
X6138333Y-13286143D01*
X6166905Y-13286143D01*
X6185952Y-13295667D01*
X6195476Y-13314714D01*
X6195476Y-13419476D01*
X6195476Y-13314714D02*
X6205000Y-13295667D01*
X6224048Y-13286143D01*
X6252619Y-13286143D01*
X6271667Y-13295667D01*
X6281190Y-13314714D01*
X6281190Y-13419476D01*
X6376428Y-13419476D02*
X6376428Y-13286143D01*
X6376428Y-13305190D02*
X6385952Y-13295667D01*
X6405000Y-13286143D01*
X6433571Y-13286143D01*
X6452619Y-13295667D01*
X6462143Y-13314714D01*
X6462143Y-13419476D01*
X6462143Y-13314714D02*
X6471667Y-13295667D01*
X6490714Y-13286143D01*
X6519286Y-13286143D01*
X6538333Y-13295667D01*
X6547857Y-13314714D01*
X6547857Y-13419476D01*
X6938333Y-13209952D02*
X6766905Y-13467095D01*
X7195476Y-13219476D02*
X7214524Y-13219476D01*
X7233571Y-13229000D01*
X7243095Y-13238524D01*
X7252619Y-13257571D01*
X7262143Y-13295667D01*
X7262143Y-13343286D01*
X7252619Y-13381381D01*
X7243095Y-13400428D01*
X7233571Y-13409952D01*
X7214524Y-13419476D01*
X7195476Y-13419476D01*
X7176428Y-13409952D01*
X7166905Y-13400428D01*
X7157381Y-13381381D01*
X7147857Y-13343286D01*
X7147857Y-13295667D01*
X7157381Y-13257571D01*
X7166905Y-13238524D01*
X7176428Y-13229000D01*
X7195476Y-13219476D01*
X7347857Y-13400428D02*
X7357381Y-13409952D01*
X7347857Y-13419476D01*
X7338333Y-13409952D01*
X7347857Y-13400428D01*
X7347857Y-13419476D01*
X7481190Y-13219476D02*
X7500238Y-13219476D01*
X7519286Y-13229000D01*
X7528809Y-13238524D01*
X7538333Y-13257571D01*
X7547857Y-13295667D01*
X7547857Y-13343286D01*
X7538333Y-13381381D01*
X7528809Y-13400428D01*
X7519286Y-13409952D01*
X7500238Y-13419476D01*
X7481190Y-13419476D01*
X7462143Y-13409952D01*
X7452619Y-13400428D01*
X7443095Y-13381381D01*
X7433571Y-13343286D01*
X7433571Y-13295667D01*
X7443095Y-13257571D01*
X7452619Y-13238524D01*
X7462143Y-13229000D01*
X7481190Y-13219476D01*
X7719286Y-13286143D02*
X7719286Y-13419476D01*
X7671667Y-13209952D02*
X7624048Y-13352809D01*
X7747857Y-13352809D01*
X7862143Y-13219476D02*
X7881190Y-13219476D01*
X7900238Y-13229000D01*
X7909762Y-13238524D01*
X7919286Y-13257571D01*
X7928809Y-13295667D01*
X7928809Y-13343286D01*
X7919286Y-13381381D01*
X7909762Y-13400428D01*
X7900238Y-13409952D01*
X7881190Y-13419476D01*
X7862143Y-13419476D01*
X7843095Y-13409952D01*
X7833571Y-13400428D01*
X7824048Y-13381381D01*
X7814524Y-13343286D01*
X7814524Y-13295667D01*
X7824048Y-13257571D01*
X7833571Y-13238524D01*
X7843095Y-13229000D01*
X7862143Y-13219476D01*
X8005000Y-13238524D02*
X8014524Y-13229000D01*
X8033571Y-13219476D01*
X8081190Y-13219476D01*
X8100238Y-13229000D01*
X8109762Y-13238524D01*
X8119286Y-13257571D01*
X8119286Y-13276619D01*
X8109762Y-13305190D01*
X7995476Y-13419476D01*
X8119286Y-13419476D01*
X8195476Y-13219476D02*
X8195476Y-13257571D01*
X8271667Y-13219476D02*
X8271667Y-13257571D01*
X8566905Y-13495667D02*
X8557381Y-13486143D01*
X8538333Y-13457571D01*
X8528810Y-13438524D01*
X8519286Y-13409952D01*
X8509762Y-13362333D01*
X8509762Y-13324238D01*
X8519286Y-13276619D01*
X8528810Y-13248048D01*
X8538333Y-13229000D01*
X8557381Y-13200428D01*
X8566905Y-13190905D01*
X8728810Y-13286143D02*
X8728810Y-13419476D01*
X8681190Y-13209952D02*
X8633571Y-13352809D01*
X8757381Y-13352809D01*
X8985952Y-13419476D02*
X8985952Y-13219476D01*
X9071667Y-13419476D02*
X9071667Y-13314714D01*
X9062143Y-13295667D01*
X9043095Y-13286143D01*
X9014524Y-13286143D01*
X8995476Y-13295667D01*
X8985952Y-13305190D01*
X9195476Y-13419476D02*
X9176429Y-13409952D01*
X9166905Y-13400428D01*
X9157381Y-13381381D01*
X9157381Y-13324238D01*
X9166905Y-13305190D01*
X9176429Y-13295667D01*
X9195476Y-13286143D01*
X9224048Y-13286143D01*
X9243095Y-13295667D01*
X9252619Y-13305190D01*
X9262143Y-13324238D01*
X9262143Y-13381381D01*
X9252619Y-13400428D01*
X9243095Y-13409952D01*
X9224048Y-13419476D01*
X9195476Y-13419476D01*
X9376429Y-13419476D02*
X9357381Y-13409952D01*
X9347857Y-13390905D01*
X9347857Y-13219476D01*
X9528810Y-13409952D02*
X9509762Y-13419476D01*
X9471667Y-13419476D01*
X9452619Y-13409952D01*
X9443095Y-13390905D01*
X9443095Y-13314714D01*
X9452619Y-13295667D01*
X9471667Y-13286143D01*
X9509762Y-13286143D01*
X9528810Y-13295667D01*
X9538333Y-13314714D01*
X9538333Y-13333762D01*
X9443095Y-13352809D01*
X9614524Y-13409952D02*
X9633571Y-13419476D01*
X9671667Y-13419476D01*
X9690714Y-13409952D01*
X9700238Y-13390905D01*
X9700238Y-13381381D01*
X9690714Y-13362333D01*
X9671667Y-13352809D01*
X9643095Y-13352809D01*
X9624048Y-13343286D01*
X9614524Y-13324238D01*
X9614524Y-13314714D01*
X9624048Y-13295667D01*
X9643095Y-13286143D01*
X9671667Y-13286143D01*
X9690714Y-13295667D01*
X9766905Y-13495667D02*
X9776429Y-13486143D01*
X9795476Y-13457571D01*
X9805000Y-13438524D01*
X9814524Y-13409952D01*
X9824048Y-13362333D01*
X9824048Y-13324238D01*
X9814524Y-13276619D01*
X9805000Y-13248048D01*
X9795476Y-13229000D01*
X9776429Y-13200428D01*
X9766905Y-13190905D01*
D19*
X4835000Y-13513000D02*
X4995000Y-13673000D01*
X4995000Y-13513000D02*
X4835000Y-13673000D01*
X4971569Y-13649569D02*
X4971569Y-13536431D01*
X4858431Y-13536431D01*
X4858431Y-13649569D01*
X4971569Y-13649569D01*
D11*
X5357381Y-13683476D02*
X5243095Y-13683476D01*
X5300238Y-13683476D02*
X5300238Y-13483476D01*
X5281190Y-13512048D01*
X5262143Y-13531095D01*
X5243095Y-13540619D01*
X5443095Y-13664428D02*
X5452619Y-13673952D01*
X5443095Y-13683476D01*
X5433571Y-13673952D01*
X5443095Y-13664428D01*
X5443095Y-13683476D01*
X5624048Y-13483476D02*
X5585952Y-13483476D01*
X5566905Y-13493000D01*
X5557381Y-13502524D01*
X5538333Y-13531095D01*
X5528810Y-13569190D01*
X5528810Y-13645381D01*
X5538333Y-13664428D01*
X5547857Y-13673952D01*
X5566905Y-13683476D01*
X5605000Y-13683476D01*
X5624048Y-13673952D01*
X5633571Y-13664428D01*
X5643095Y-13645381D01*
X5643095Y-13597762D01*
X5633571Y-13578714D01*
X5624048Y-13569190D01*
X5605000Y-13559667D01*
X5566905Y-13559667D01*
X5547857Y-13569190D01*
X5538333Y-13578714D01*
X5528810Y-13597762D01*
X5766905Y-13483476D02*
X5785952Y-13483476D01*
X5805000Y-13493000D01*
X5814524Y-13502524D01*
X5824048Y-13521571D01*
X5833571Y-13559667D01*
X5833571Y-13607286D01*
X5824048Y-13645381D01*
X5814524Y-13664428D01*
X5805000Y-13673952D01*
X5785952Y-13683476D01*
X5766905Y-13683476D01*
X5747857Y-13673952D01*
X5738333Y-13664428D01*
X5728809Y-13645381D01*
X5719286Y-13607286D01*
X5719286Y-13559667D01*
X5728809Y-13521571D01*
X5738333Y-13502524D01*
X5747857Y-13493000D01*
X5766905Y-13483476D01*
X5957381Y-13483476D02*
X5976428Y-13483476D01*
X5995476Y-13493000D01*
X6005000Y-13502524D01*
X6014524Y-13521571D01*
X6024048Y-13559667D01*
X6024048Y-13607286D01*
X6014524Y-13645381D01*
X6005000Y-13664428D01*
X5995476Y-13673952D01*
X5976428Y-13683476D01*
X5957381Y-13683476D01*
X5938333Y-13673952D01*
X5928809Y-13664428D01*
X5919286Y-13645381D01*
X5909762Y-13607286D01*
X5909762Y-13559667D01*
X5919286Y-13521571D01*
X5928809Y-13502524D01*
X5938333Y-13493000D01*
X5957381Y-13483476D01*
X6109762Y-13683476D02*
X6109762Y-13550143D01*
X6109762Y-13569190D02*
X6119286Y-13559667D01*
X6138333Y-13550143D01*
X6166905Y-13550143D01*
X6185952Y-13559667D01*
X6195476Y-13578714D01*
X6195476Y-13683476D01*
X6195476Y-13578714D02*
X6205000Y-13559667D01*
X6224048Y-13550143D01*
X6252619Y-13550143D01*
X6271667Y-13559667D01*
X6281190Y-13578714D01*
X6281190Y-13683476D01*
X6376428Y-13683476D02*
X6376428Y-13550143D01*
X6376428Y-13569190D02*
X6385952Y-13559667D01*
X6405000Y-13550143D01*
X6433571Y-13550143D01*
X6452619Y-13559667D01*
X6462143Y-13578714D01*
X6462143Y-13683476D01*
X6462143Y-13578714D02*
X6471667Y-13559667D01*
X6490714Y-13550143D01*
X6519286Y-13550143D01*
X6538333Y-13559667D01*
X6547857Y-13578714D01*
X6547857Y-13683476D01*
X6938333Y-13473952D02*
X6766905Y-13731095D01*
X7195476Y-13483476D02*
X7214524Y-13483476D01*
X7233571Y-13493000D01*
X7243095Y-13502524D01*
X7252619Y-13521571D01*
X7262143Y-13559667D01*
X7262143Y-13607286D01*
X7252619Y-13645381D01*
X7243095Y-13664428D01*
X7233571Y-13673952D01*
X7214524Y-13683476D01*
X7195476Y-13683476D01*
X7176428Y-13673952D01*
X7166905Y-13664428D01*
X7157381Y-13645381D01*
X7147857Y-13607286D01*
X7147857Y-13559667D01*
X7157381Y-13521571D01*
X7166905Y-13502524D01*
X7176428Y-13493000D01*
X7195476Y-13483476D01*
X7347857Y-13664428D02*
X7357381Y-13673952D01*
X7347857Y-13683476D01*
X7338333Y-13673952D01*
X7347857Y-13664428D01*
X7347857Y-13683476D01*
X7481190Y-13483476D02*
X7500238Y-13483476D01*
X7519286Y-13493000D01*
X7528809Y-13502524D01*
X7538333Y-13521571D01*
X7547857Y-13559667D01*
X7547857Y-13607286D01*
X7538333Y-13645381D01*
X7528809Y-13664428D01*
X7519286Y-13673952D01*
X7500238Y-13683476D01*
X7481190Y-13683476D01*
X7462143Y-13673952D01*
X7452619Y-13664428D01*
X7443095Y-13645381D01*
X7433571Y-13607286D01*
X7433571Y-13559667D01*
X7443095Y-13521571D01*
X7452619Y-13502524D01*
X7462143Y-13493000D01*
X7481190Y-13483476D01*
X7719286Y-13483476D02*
X7681190Y-13483476D01*
X7662143Y-13493000D01*
X7652619Y-13502524D01*
X7633571Y-13531095D01*
X7624048Y-13569190D01*
X7624048Y-13645381D01*
X7633571Y-13664428D01*
X7643095Y-13673952D01*
X7662143Y-13683476D01*
X7700238Y-13683476D01*
X7719286Y-13673952D01*
X7728809Y-13664428D01*
X7738333Y-13645381D01*
X7738333Y-13597762D01*
X7728809Y-13578714D01*
X7719286Y-13569190D01*
X7700238Y-13559667D01*
X7662143Y-13559667D01*
X7643095Y-13569190D01*
X7633571Y-13578714D01*
X7624048Y-13597762D01*
X7805000Y-13483476D02*
X7928809Y-13483476D01*
X7862143Y-13559667D01*
X7890714Y-13559667D01*
X7909762Y-13569190D01*
X7919286Y-13578714D01*
X7928809Y-13597762D01*
X7928809Y-13645381D01*
X7919286Y-13664428D01*
X7909762Y-13673952D01*
X7890714Y-13683476D01*
X7833571Y-13683476D01*
X7814524Y-13673952D01*
X7805000Y-13664428D01*
X8052619Y-13483476D02*
X8071667Y-13483476D01*
X8090714Y-13493000D01*
X8100238Y-13502524D01*
X8109762Y-13521571D01*
X8119286Y-13559667D01*
X8119286Y-13607286D01*
X8109762Y-13645381D01*
X8100238Y-13664428D01*
X8090714Y-13673952D01*
X8071667Y-13683476D01*
X8052619Y-13683476D01*
X8033571Y-13673952D01*
X8024048Y-13664428D01*
X8014524Y-13645381D01*
X8005000Y-13607286D01*
X8005000Y-13559667D01*
X8014524Y-13521571D01*
X8024048Y-13502524D01*
X8033571Y-13493000D01*
X8052619Y-13483476D01*
X8195476Y-13483476D02*
X8195476Y-13521571D01*
X8271667Y-13483476D02*
X8271667Y-13521571D01*
X8566905Y-13759667D02*
X8557381Y-13750143D01*
X8538333Y-13721571D01*
X8528810Y-13702524D01*
X8519286Y-13673952D01*
X8509762Y-13626333D01*
X8509762Y-13588238D01*
X8519286Y-13540619D01*
X8528810Y-13512048D01*
X8538333Y-13493000D01*
X8557381Y-13464428D01*
X8566905Y-13454905D01*
X8633571Y-13502524D02*
X8643095Y-13493000D01*
X8662143Y-13483476D01*
X8709762Y-13483476D01*
X8728810Y-13493000D01*
X8738333Y-13502524D01*
X8747857Y-13521571D01*
X8747857Y-13540619D01*
X8738333Y-13569190D01*
X8624048Y-13683476D01*
X8747857Y-13683476D01*
X8985952Y-13683476D02*
X8985952Y-13483476D01*
X9071667Y-13683476D02*
X9071667Y-13578714D01*
X9062143Y-13559667D01*
X9043095Y-13550143D01*
X9014524Y-13550143D01*
X8995476Y-13559667D01*
X8985952Y-13569190D01*
X9195476Y-13683476D02*
X9176429Y-13673952D01*
X9166905Y-13664428D01*
X9157381Y-13645381D01*
X9157381Y-13588238D01*
X9166905Y-13569190D01*
X9176429Y-13559667D01*
X9195476Y-13550143D01*
X9224048Y-13550143D01*
X9243095Y-13559667D01*
X9252619Y-13569190D01*
X9262143Y-13588238D01*
X9262143Y-13645381D01*
X9252619Y-13664428D01*
X9243095Y-13673952D01*
X9224048Y-13683476D01*
X9195476Y-13683476D01*
X9376429Y-13683476D02*
X9357381Y-13673952D01*
X9347857Y-13654905D01*
X9347857Y-13483476D01*
X9528810Y-13673952D02*
X9509762Y-13683476D01*
X9471667Y-13683476D01*
X9452619Y-13673952D01*
X9443095Y-13654905D01*
X9443095Y-13578714D01*
X9452619Y-13559667D01*
X9471667Y-13550143D01*
X9509762Y-13550143D01*
X9528810Y-13559667D01*
X9538333Y-13578714D01*
X9538333Y-13597762D01*
X9443095Y-13616809D01*
X9614524Y-13673952D02*
X9633571Y-13683476D01*
X9671667Y-13683476D01*
X9690714Y-13673952D01*
X9700238Y-13654905D01*
X9700238Y-13645381D01*
X9690714Y-13626333D01*
X9671667Y-13616809D01*
X9643095Y-13616809D01*
X9624048Y-13607286D01*
X9614524Y-13588238D01*
X9614524Y-13578714D01*
X9624048Y-13559667D01*
X9643095Y-13550143D01*
X9671667Y-13550143D01*
X9690714Y-13559667D01*
X9766905Y-13759667D02*
X9776429Y-13750143D01*
X9795476Y-13721571D01*
X9805000Y-13702524D01*
X9814524Y-13673952D01*
X9824048Y-13626333D01*
X9824048Y-13588238D01*
X9814524Y-13540619D01*
X9805000Y-13512048D01*
X9795476Y-13493000D01*
X9776429Y-13464428D01*
X9766905Y-13454905D01*
X4795000Y-13773000D02*
X4995000Y-13973000D01*
X4995000Y-13773000D02*
X4795000Y-13973000D01*
X4895000Y-13973000D02*
X4995000Y-13873000D01*
X4895000Y-13773000D01*
X4795000Y-13873000D01*
X4895000Y-13973000D01*
X5233571Y-13763476D02*
X5357381Y-13763476D01*
X5290714Y-13839667D01*
X5319286Y-13839667D01*
X5338333Y-13849190D01*
X5347857Y-13858714D01*
X5357381Y-13877762D01*
X5357381Y-13925381D01*
X5347857Y-13944428D01*
X5338333Y-13953952D01*
X5319286Y-13963476D01*
X5262143Y-13963476D01*
X5243095Y-13953952D01*
X5233571Y-13944428D01*
X5443095Y-13944428D02*
X5452619Y-13953952D01*
X5443095Y-13963476D01*
X5433571Y-13953952D01*
X5443095Y-13944428D01*
X5443095Y-13963476D01*
X5528810Y-13782524D02*
X5538333Y-13773000D01*
X5557381Y-13763476D01*
X5605000Y-13763476D01*
X5624048Y-13773000D01*
X5633571Y-13782524D01*
X5643095Y-13801571D01*
X5643095Y-13820619D01*
X5633571Y-13849190D01*
X5519286Y-13963476D01*
X5643095Y-13963476D01*
X5824048Y-13763476D02*
X5728809Y-13763476D01*
X5719286Y-13858714D01*
X5728809Y-13849190D01*
X5747857Y-13839667D01*
X5795476Y-13839667D01*
X5814524Y-13849190D01*
X5824048Y-13858714D01*
X5833571Y-13877762D01*
X5833571Y-13925381D01*
X5824048Y-13944428D01*
X5814524Y-13953952D01*
X5795476Y-13963476D01*
X5747857Y-13963476D01*
X5728809Y-13953952D01*
X5719286Y-13944428D01*
X5957381Y-13763476D02*
X5976428Y-13763476D01*
X5995476Y-13773000D01*
X6005000Y-13782524D01*
X6014524Y-13801571D01*
X6024048Y-13839667D01*
X6024048Y-13887286D01*
X6014524Y-13925381D01*
X6005000Y-13944428D01*
X5995476Y-13953952D01*
X5976428Y-13963476D01*
X5957381Y-13963476D01*
X5938333Y-13953952D01*
X5928809Y-13944428D01*
X5919286Y-13925381D01*
X5909762Y-13887286D01*
X5909762Y-13839667D01*
X5919286Y-13801571D01*
X5928809Y-13782524D01*
X5938333Y-13773000D01*
X5957381Y-13763476D01*
X6109762Y-13963476D02*
X6109762Y-13830143D01*
X6109762Y-13849190D02*
X6119286Y-13839667D01*
X6138333Y-13830143D01*
X6166905Y-13830143D01*
X6185952Y-13839667D01*
X6195476Y-13858714D01*
X6195476Y-13963476D01*
X6195476Y-13858714D02*
X6205000Y-13839667D01*
X6224048Y-13830143D01*
X6252619Y-13830143D01*
X6271667Y-13839667D01*
X6281190Y-13858714D01*
X6281190Y-13963476D01*
X6376428Y-13963476D02*
X6376428Y-13830143D01*
X6376428Y-13849190D02*
X6385952Y-13839667D01*
X6405000Y-13830143D01*
X6433571Y-13830143D01*
X6452619Y-13839667D01*
X6462143Y-13858714D01*
X6462143Y-13963476D01*
X6462143Y-13858714D02*
X6471667Y-13839667D01*
X6490714Y-13830143D01*
X6519286Y-13830143D01*
X6538333Y-13839667D01*
X6547857Y-13858714D01*
X6547857Y-13963476D01*
X6938333Y-13753952D02*
X6766905Y-14011095D01*
X7195476Y-13763476D02*
X7214524Y-13763476D01*
X7233571Y-13773000D01*
X7243095Y-13782524D01*
X7252619Y-13801571D01*
X7262143Y-13839667D01*
X7262143Y-13887286D01*
X7252619Y-13925381D01*
X7243095Y-13944428D01*
X7233571Y-13953952D01*
X7214524Y-13963476D01*
X7195476Y-13963476D01*
X7176428Y-13953952D01*
X7166905Y-13944428D01*
X7157381Y-13925381D01*
X7147857Y-13887286D01*
X7147857Y-13839667D01*
X7157381Y-13801571D01*
X7166905Y-13782524D01*
X7176428Y-13773000D01*
X7195476Y-13763476D01*
X7347857Y-13944428D02*
X7357381Y-13953952D01*
X7347857Y-13963476D01*
X7338333Y-13953952D01*
X7347857Y-13944428D01*
X7347857Y-13963476D01*
X7547857Y-13963476D02*
X7433571Y-13963476D01*
X7490714Y-13963476D02*
X7490714Y-13763476D01*
X7471667Y-13792048D01*
X7452619Y-13811095D01*
X7433571Y-13820619D01*
X7624048Y-13782524D02*
X7633571Y-13773000D01*
X7652619Y-13763476D01*
X7700238Y-13763476D01*
X7719286Y-13773000D01*
X7728809Y-13782524D01*
X7738333Y-13801571D01*
X7738333Y-13820619D01*
X7728809Y-13849190D01*
X7614524Y-13963476D01*
X7738333Y-13963476D01*
X7852619Y-13849190D02*
X7833571Y-13839667D01*
X7824048Y-13830143D01*
X7814524Y-13811095D01*
X7814524Y-13801571D01*
X7824048Y-13782524D01*
X7833571Y-13773000D01*
X7852619Y-13763476D01*
X7890714Y-13763476D01*
X7909762Y-13773000D01*
X7919286Y-13782524D01*
X7928809Y-13801571D01*
X7928809Y-13811095D01*
X7919286Y-13830143D01*
X7909762Y-13839667D01*
X7890714Y-13849190D01*
X7852619Y-13849190D01*
X7833571Y-13858714D01*
X7824048Y-13868238D01*
X7814524Y-13887286D01*
X7814524Y-13925381D01*
X7824048Y-13944428D01*
X7833571Y-13953952D01*
X7852619Y-13963476D01*
X7890714Y-13963476D01*
X7909762Y-13953952D01*
X7919286Y-13944428D01*
X7928809Y-13925381D01*
X7928809Y-13887286D01*
X7919286Y-13868238D01*
X7909762Y-13858714D01*
X7890714Y-13849190D01*
X8052619Y-13763476D02*
X8071667Y-13763476D01*
X8090714Y-13773000D01*
X8100238Y-13782524D01*
X8109762Y-13801571D01*
X8119286Y-13839667D01*
X8119286Y-13887286D01*
X8109762Y-13925381D01*
X8100238Y-13944428D01*
X8090714Y-13953952D01*
X8071667Y-13963476D01*
X8052619Y-13963476D01*
X8033571Y-13953952D01*
X8024048Y-13944428D01*
X8014524Y-13925381D01*
X8005000Y-13887286D01*
X8005000Y-13839667D01*
X8014524Y-13801571D01*
X8024048Y-13782524D01*
X8033571Y-13773000D01*
X8052619Y-13763476D01*
X8195476Y-13763476D02*
X8195476Y-13801571D01*
X8271667Y-13763476D02*
X8271667Y-13801571D01*
X8566905Y-14039667D02*
X8557381Y-14030143D01*
X8538333Y-14001571D01*
X8528810Y-13982524D01*
X8519286Y-13953952D01*
X8509762Y-13906333D01*
X8509762Y-13868238D01*
X8519286Y-13820619D01*
X8528810Y-13792048D01*
X8538333Y-13773000D01*
X8557381Y-13744428D01*
X8566905Y-13734905D01*
X8633571Y-13782524D02*
X8643095Y-13773000D01*
X8662143Y-13763476D01*
X8709762Y-13763476D01*
X8728810Y-13773000D01*
X8738333Y-13782524D01*
X8747857Y-13801571D01*
X8747857Y-13820619D01*
X8738333Y-13849190D01*
X8624048Y-13963476D01*
X8747857Y-13963476D01*
X8985952Y-13963476D02*
X8985952Y-13763476D01*
X9071667Y-13963476D02*
X9071667Y-13858714D01*
X9062143Y-13839667D01*
X9043095Y-13830143D01*
X9014524Y-13830143D01*
X8995476Y-13839667D01*
X8985952Y-13849190D01*
X9195476Y-13963476D02*
X9176429Y-13953952D01*
X9166905Y-13944428D01*
X9157381Y-13925381D01*
X9157381Y-13868238D01*
X9166905Y-13849190D01*
X9176429Y-13839667D01*
X9195476Y-13830143D01*
X9224048Y-13830143D01*
X9243095Y-13839667D01*
X9252619Y-13849190D01*
X9262143Y-13868238D01*
X9262143Y-13925381D01*
X9252619Y-13944428D01*
X9243095Y-13953952D01*
X9224048Y-13963476D01*
X9195476Y-13963476D01*
X9376429Y-13963476D02*
X9357381Y-13953952D01*
X9347857Y-13934905D01*
X9347857Y-13763476D01*
X9528810Y-13953952D02*
X9509762Y-13963476D01*
X9471667Y-13963476D01*
X9452619Y-13953952D01*
X9443095Y-13934905D01*
X9443095Y-13858714D01*
X9452619Y-13839667D01*
X9471667Y-13830143D01*
X9509762Y-13830143D01*
X9528810Y-13839667D01*
X9538333Y-13858714D01*
X9538333Y-13877762D01*
X9443095Y-13896809D01*
X9614524Y-13953952D02*
X9633571Y-13963476D01*
X9671667Y-13963476D01*
X9690714Y-13953952D01*
X9700238Y-13934905D01*
X9700238Y-13925381D01*
X9690714Y-13906333D01*
X9671667Y-13896809D01*
X9643095Y-13896809D01*
X9624048Y-13887286D01*
X9614524Y-13868238D01*
X9614524Y-13858714D01*
X9624048Y-13839667D01*
X9643095Y-13830143D01*
X9671667Y-13830143D01*
X9690714Y-13839667D01*
X9766905Y-14039667D02*
X9776429Y-14030143D01*
X9795476Y-14001571D01*
X9805000Y-13982524D01*
X9814524Y-13953952D01*
X9824048Y-13906333D01*
X9824048Y-13868238D01*
X9814524Y-13820619D01*
X9805000Y-13792048D01*
X9795476Y-13773000D01*
X9776429Y-13744428D01*
X9766905Y-13734905D01*
X10128810Y-14039667D02*
X10119286Y-14030143D01*
X10100238Y-14001571D01*
X10090714Y-13982524D01*
X10081190Y-13953952D01*
X10071667Y-13906333D01*
X10071667Y-13868238D01*
X10081190Y-13820619D01*
X10090714Y-13792048D01*
X10100238Y-13773000D01*
X10119286Y-13744428D01*
X10128810Y-13734905D01*
X10205000Y-13830143D02*
X10205000Y-13963476D01*
X10205000Y-13849190D02*
X10214524Y-13839667D01*
X10233571Y-13830143D01*
X10262143Y-13830143D01*
X10281190Y-13839667D01*
X10290714Y-13858714D01*
X10290714Y-13963476D01*
X10414524Y-13963476D02*
X10395476Y-13953952D01*
X10385952Y-13944428D01*
X10376429Y-13925381D01*
X10376429Y-13868238D01*
X10385952Y-13849190D01*
X10395476Y-13839667D01*
X10414524Y-13830143D01*
X10443095Y-13830143D01*
X10462143Y-13839667D01*
X10471667Y-13849190D01*
X10481190Y-13868238D01*
X10481190Y-13925381D01*
X10471667Y-13944428D01*
X10462143Y-13953952D01*
X10443095Y-13963476D01*
X10414524Y-13963476D01*
X10538333Y-13830143D02*
X10614524Y-13830143D01*
X10566905Y-13763476D02*
X10566905Y-13934905D01*
X10576429Y-13953952D01*
X10595476Y-13963476D01*
X10614524Y-13963476D01*
X10833571Y-13830143D02*
X10833571Y-14030143D01*
X10833571Y-13839667D02*
X10852619Y-13830143D01*
X10890714Y-13830143D01*
X10909762Y-13839667D01*
X10919286Y-13849190D01*
X10928810Y-13868238D01*
X10928810Y-13925381D01*
X10919286Y-13944428D01*
X10909762Y-13953952D01*
X10890714Y-13963476D01*
X10852619Y-13963476D01*
X10833571Y-13953952D01*
X11043095Y-13963476D02*
X11024048Y-13953952D01*
X11014524Y-13934905D01*
X11014524Y-13763476D01*
X11205000Y-13963476D02*
X11205000Y-13858714D01*
X11195476Y-13839667D01*
X11176429Y-13830143D01*
X11138333Y-13830143D01*
X11119286Y-13839667D01*
X11205000Y-13953952D02*
X11185952Y-13963476D01*
X11138333Y-13963476D01*
X11119286Y-13953952D01*
X11109762Y-13934905D01*
X11109762Y-13915857D01*
X11119286Y-13896809D01*
X11138333Y-13887286D01*
X11185952Y-13887286D01*
X11205000Y-13877762D01*
X11271667Y-13830143D02*
X11347857Y-13830143D01*
X11300238Y-13763476D02*
X11300238Y-13934905D01*
X11309762Y-13953952D01*
X11328809Y-13963476D01*
X11347857Y-13963476D01*
X11490714Y-13953952D02*
X11471667Y-13963476D01*
X11433571Y-13963476D01*
X11414524Y-13953952D01*
X11405000Y-13934905D01*
X11405000Y-13858714D01*
X11414524Y-13839667D01*
X11433571Y-13830143D01*
X11471667Y-13830143D01*
X11490714Y-13839667D01*
X11500238Y-13858714D01*
X11500238Y-13877762D01*
X11405000Y-13896809D01*
X11671667Y-13963476D02*
X11671667Y-13763476D01*
X11671667Y-13953952D02*
X11652619Y-13963476D01*
X11614524Y-13963476D01*
X11595476Y-13953952D01*
X11585952Y-13944428D01*
X11576428Y-13925381D01*
X11576428Y-13868238D01*
X11585952Y-13849190D01*
X11595476Y-13839667D01*
X11614524Y-13830143D01*
X11652619Y-13830143D01*
X11671667Y-13839667D01*
X11747857Y-14039667D02*
X11757381Y-14030143D01*
X11776428Y-14001571D01*
X11785952Y-13982524D01*
X11795476Y-13953952D01*
X11805000Y-13906333D01*
X11805000Y-13868238D01*
X11795476Y-13820619D01*
X11785952Y-13792048D01*
X11776428Y-13773000D01*
X11757381Y-13744428D01*
X11747857Y-13734905D01*
M02*
