G04 #@! TF.GenerationSoftware,KiCad,Pcbnew,6.0.6-1.fc36*
G04 #@! TF.CreationDate,2022-07-29T12:50:01+02:00*
G04 #@! TF.ProjectId,CosmicWatch-ventidue,436f736d-6963-4576-9174-63682d76656e,rev?*
G04 #@! TF.SameCoordinates,Original*
G04 #@! TF.FileFunction,Legend,Bot*
G04 #@! TF.FilePolarity,Positive*
%FSLAX46Y46*%
G04 Gerber Fmt 4.6, Leading zero omitted, Abs format (unit mm)*
G04 Created by KiCad (PCBNEW 6.0.6-1.fc36) date 2022-07-29 12:50:01*
%MOMM*%
%LPD*%
G01*
G04 APERTURE LIST*
G04 Aperture macros list*
%AMRoundRect*
0 Rectangle with rounded corners*
0 $1 Rounding radius*
0 $2 $3 $4 $5 $6 $7 $8 $9 X,Y pos of 4 corners*
0 Add a 4 corners polygon primitive as box body*
4,1,4,$2,$3,$4,$5,$6,$7,$8,$9,$2,$3,0*
0 Add four circle primitives for the rounded corners*
1,1,$1+$1,$2,$3*
1,1,$1+$1,$4,$5*
1,1,$1+$1,$6,$7*
1,1,$1+$1,$8,$9*
0 Add four rect primitives between the rounded corners*
20,1,$1+$1,$2,$3,$4,$5,0*
20,1,$1+$1,$4,$5,$6,$7,0*
20,1,$1+$1,$6,$7,$8,$9,0*
20,1,$1+$1,$8,$9,$2,$3,0*%
G04 Aperture macros list end*
%ADD10C,0.150000*%
%ADD11C,0.120000*%
%ADD12R,1.700000X1.700000*%
%ADD13O,1.700000X1.700000*%
%ADD14RoundRect,0.250000X0.475000X-0.337500X0.475000X0.337500X-0.475000X0.337500X-0.475000X-0.337500X0*%
%ADD15R,2.000000X0.650000*%
%ADD16RoundRect,0.250001X1.074999X-0.462499X1.074999X0.462499X-1.074999X0.462499X-1.074999X-0.462499X0*%
%ADD17C,2.000000*%
%ADD18R,3.000000X3.000000*%
%ADD19RoundRect,0.250000X0.350000X0.450000X-0.350000X0.450000X-0.350000X-0.450000X0.350000X-0.450000X0*%
%ADD20C,3.250000*%
%ADD21RoundRect,0.250500X-0.499500X-0.499500X0.499500X-0.499500X0.499500X0.499500X-0.499500X0.499500X0*%
%ADD22C,1.500000*%
%ADD23C,2.500000*%
%ADD24R,1.560000X0.650000*%
%ADD25RoundRect,0.250000X-0.350000X-0.450000X0.350000X-0.450000X0.350000X0.450000X-0.350000X0.450000X0*%
%ADD26RoundRect,0.250000X-0.337500X-0.475000X0.337500X-0.475000X0.337500X0.475000X-0.337500X0.475000X0*%
%ADD27RoundRect,0.250000X0.337500X0.475000X-0.337500X0.475000X-0.337500X-0.475000X0.337500X-0.475000X0*%
%ADD28RoundRect,0.250000X-0.625000X0.350000X-0.625000X-0.350000X0.625000X-0.350000X0.625000X0.350000X0*%
%ADD29O,1.750000X1.200000*%
%ADD30RoundRect,0.250000X-0.475000X0.337500X-0.475000X-0.337500X0.475000X-0.337500X0.475000X0.337500X0*%
%ADD31R,2.000000X2.000000*%
%ADD32R,0.900000X1.200000*%
%ADD33C,1.308000*%
%ADD34C,1.258000*%
%ADD35C,1.208000*%
G04 APERTURE END LIST*
D10*
X99000000Y-106000000D02*
X149000000Y-106000000D01*
X149000000Y-106000000D02*
X149000000Y-56000000D01*
X149000000Y-56000000D02*
X99000000Y-56000000D01*
X99000000Y-56000000D02*
X99000000Y-106000000D01*
X121047619Y-51321428D02*
X120285714Y-51321428D01*
X120666666Y-51702380D02*
X120666666Y-50940476D01*
X119952380Y-50702380D02*
X119619047Y-51702380D01*
X119285714Y-50702380D01*
X119000000Y-51811904D02*
X119000000Y-51011904D01*
X119000000Y-51316666D02*
X118923809Y-51278571D01*
X118771428Y-51278571D01*
X118695238Y-51316666D01*
X118657142Y-51354761D01*
X118619047Y-51430952D01*
X118619047Y-51659523D01*
X118657142Y-51735714D01*
X118695238Y-51773809D01*
X118771428Y-51811904D01*
X118923809Y-51811904D01*
X119000000Y-51773809D01*
X118276190Y-51811904D02*
X118276190Y-51278571D01*
X118276190Y-51011904D02*
X118314285Y-51050000D01*
X118276190Y-51088095D01*
X118238095Y-51050000D01*
X118276190Y-51011904D01*
X118276190Y-51088095D01*
X117552380Y-51811904D02*
X117552380Y-51392857D01*
X117590476Y-51316666D01*
X117666666Y-51278571D01*
X117819047Y-51278571D01*
X117895238Y-51316666D01*
X117552380Y-51773809D02*
X117628571Y-51811904D01*
X117819047Y-51811904D01*
X117895238Y-51773809D01*
X117933333Y-51697619D01*
X117933333Y-51621428D01*
X117895238Y-51545238D01*
X117819047Y-51507142D01*
X117628571Y-51507142D01*
X117552380Y-51469047D01*
X117209523Y-51773809D02*
X117133333Y-51811904D01*
X116980952Y-51811904D01*
X116904761Y-51773809D01*
X116866666Y-51697619D01*
X116866666Y-51659523D01*
X116904761Y-51583333D01*
X116980952Y-51545238D01*
X117095238Y-51545238D01*
X117171428Y-51507142D01*
X117209523Y-51430952D01*
X117209523Y-51392857D01*
X117171428Y-51316666D01*
X117095238Y-51278571D01*
X116980952Y-51278571D01*
X116904761Y-51316666D01*
X126500000Y-52738095D02*
X126452380Y-52642857D01*
X126452380Y-52500000D01*
X126500000Y-52357142D01*
X126595238Y-52261904D01*
X126690476Y-52214285D01*
X126880952Y-52166666D01*
X127023809Y-52166666D01*
X127214285Y-52214285D01*
X127309523Y-52261904D01*
X127404761Y-52357142D01*
X127452380Y-52500000D01*
X127452380Y-52595238D01*
X127404761Y-52738095D01*
X127357142Y-52785714D01*
X127023809Y-52785714D01*
X127023809Y-52595238D01*
X127452380Y-53214285D02*
X126452380Y-53214285D01*
X127452380Y-53785714D01*
X126452380Y-53785714D01*
X127452380Y-54261904D02*
X126452380Y-54261904D01*
X126452380Y-54500000D01*
X126500000Y-54642857D01*
X126595238Y-54738095D01*
X126690476Y-54785714D01*
X126880952Y-54833333D01*
X127023809Y-54833333D01*
X127214285Y-54785714D01*
X127309523Y-54738095D01*
X127404761Y-54642857D01*
X127452380Y-54500000D01*
X127452380Y-54261904D01*
X110285714Y-51321428D02*
X109523809Y-51321428D01*
X109904761Y-51702380D02*
X109904761Y-50940476D01*
X108571428Y-50702380D02*
X109047619Y-50702380D01*
X109095238Y-51178571D01*
X109047619Y-51130952D01*
X108952380Y-51083333D01*
X108714285Y-51083333D01*
X108619047Y-51130952D01*
X108571428Y-51178571D01*
X108523809Y-51273809D01*
X108523809Y-51511904D01*
X108571428Y-51607142D01*
X108619047Y-51654761D01*
X108714285Y-51702380D01*
X108952380Y-51702380D01*
X109047619Y-51654761D01*
X109095238Y-51607142D01*
X108238095Y-50702380D02*
X107904761Y-51702380D01*
X107571428Y-50702380D01*
X116000000Y-51321428D02*
X115238095Y-51321428D01*
X115619047Y-51702380D02*
X115619047Y-50940476D01*
X114857142Y-50702380D02*
X114238095Y-50702380D01*
X114571428Y-51083333D01*
X114428571Y-51083333D01*
X114333333Y-51130952D01*
X114285714Y-51178571D01*
X114238095Y-51273809D01*
X114238095Y-51511904D01*
X114285714Y-51607142D01*
X114333333Y-51654761D01*
X114428571Y-51702380D01*
X114714285Y-51702380D01*
X114809523Y-51654761D01*
X114857142Y-51607142D01*
X113809523Y-51607142D02*
X113761904Y-51654761D01*
X113809523Y-51702380D01*
X113857142Y-51654761D01*
X113809523Y-51607142D01*
X113809523Y-51702380D01*
X112904761Y-50702380D02*
X113095238Y-50702380D01*
X113190476Y-50750000D01*
X113238095Y-50797619D01*
X113333333Y-50940476D01*
X113380952Y-51130952D01*
X113380952Y-51511904D01*
X113333333Y-51607142D01*
X113285714Y-51654761D01*
X113190476Y-51702380D01*
X113000000Y-51702380D01*
X112904761Y-51654761D01*
X112857142Y-51607142D01*
X112809523Y-51511904D01*
X112809523Y-51273809D01*
X112857142Y-51178571D01*
X112904761Y-51130952D01*
X113000000Y-51083333D01*
X113190476Y-51083333D01*
X113285714Y-51130952D01*
X113333333Y-51178571D01*
X113380952Y-51273809D01*
X112523809Y-50702380D02*
X112190476Y-51702380D01*
X111857142Y-50702380D01*
X106000000Y-51321428D02*
X105238095Y-51321428D01*
X105619047Y-51702380D02*
X105619047Y-50940476D01*
X104857142Y-50702380D02*
X104238095Y-50702380D01*
X104571428Y-51083333D01*
X104428571Y-51083333D01*
X104333333Y-51130952D01*
X104285714Y-51178571D01*
X104238095Y-51273809D01*
X104238095Y-51511904D01*
X104285714Y-51607142D01*
X104333333Y-51654761D01*
X104428571Y-51702380D01*
X104714285Y-51702380D01*
X104809523Y-51654761D01*
X104857142Y-51607142D01*
X103809523Y-51607142D02*
X103761904Y-51654761D01*
X103809523Y-51702380D01*
X103857142Y-51654761D01*
X103809523Y-51607142D01*
X103809523Y-51702380D01*
X103428571Y-50702380D02*
X102809523Y-50702380D01*
X103142857Y-51083333D01*
X103000000Y-51083333D01*
X102904761Y-51130952D01*
X102857142Y-51178571D01*
X102809523Y-51273809D01*
X102809523Y-51511904D01*
X102857142Y-51607142D01*
X102904761Y-51654761D01*
X103000000Y-51702380D01*
X103285714Y-51702380D01*
X103380952Y-51654761D01*
X103428571Y-51607142D01*
X102523809Y-50702380D02*
X102190476Y-51702380D01*
X101857142Y-50702380D01*
X101071428Y-51321428D02*
X100309523Y-51321428D01*
X100690476Y-51702380D02*
X100690476Y-50940476D01*
X99500000Y-51178571D02*
X99357142Y-51226190D01*
X99309523Y-51273809D01*
X99261904Y-51369047D01*
X99261904Y-51511904D01*
X99309523Y-51607142D01*
X99357142Y-51654761D01*
X99452380Y-51702380D01*
X99833333Y-51702380D01*
X99833333Y-50702380D01*
X99500000Y-50702380D01*
X99404761Y-50750000D01*
X99357142Y-50797619D01*
X99309523Y-50892857D01*
X99309523Y-50988095D01*
X99357142Y-51083333D01*
X99404761Y-51130952D01*
X99500000Y-51178571D01*
X99833333Y-51178571D01*
X98880952Y-51416666D02*
X98404761Y-51416666D01*
X98976190Y-51702380D02*
X98642857Y-50702380D01*
X98309523Y-51702380D01*
X98119047Y-50702380D02*
X97547619Y-50702380D01*
X97833333Y-51702380D02*
X97833333Y-50702380D01*
X97357142Y-50702380D02*
X96785714Y-50702380D01*
X97071428Y-51702380D02*
X97071428Y-50702380D01*
X77560714Y-88272380D02*
X77560714Y-88986666D01*
X77608333Y-89129523D01*
X77703571Y-89224761D01*
X77846428Y-89272380D01*
X77941666Y-89272380D01*
X76560714Y-89272380D02*
X77132142Y-89272380D01*
X76846428Y-89272380D02*
X76846428Y-88272380D01*
X76941666Y-88415238D01*
X77036904Y-88510476D01*
X77132142Y-88558095D01*
X75941666Y-88272380D02*
X75846428Y-88272380D01*
X75751190Y-88320000D01*
X75703571Y-88367619D01*
X75655952Y-88462857D01*
X75608333Y-88653333D01*
X75608333Y-88891428D01*
X75655952Y-89081904D01*
X75703571Y-89177142D01*
X75751190Y-89224761D01*
X75846428Y-89272380D01*
X75941666Y-89272380D01*
X76036904Y-89224761D01*
X76084523Y-89177142D01*
X76132142Y-89081904D01*
X76179761Y-88891428D01*
X76179761Y-88653333D01*
X76132142Y-88462857D01*
X76084523Y-88367619D01*
X76036904Y-88320000D01*
X75941666Y-88272380D01*
X75132142Y-89272380D02*
X74941666Y-89272380D01*
X74846428Y-89224761D01*
X74798809Y-89177142D01*
X74703571Y-89034285D01*
X74655952Y-88843809D01*
X74655952Y-88462857D01*
X74703571Y-88367619D01*
X74751190Y-88320000D01*
X74846428Y-88272380D01*
X75036904Y-88272380D01*
X75132142Y-88320000D01*
X75179761Y-88367619D01*
X75227380Y-88462857D01*
X75227380Y-88700952D01*
X75179761Y-88796190D01*
X75132142Y-88843809D01*
X75036904Y-88891428D01*
X74846428Y-88891428D01*
X74751190Y-88843809D01*
X74703571Y-88796190D01*
X74655952Y-88700952D01*
X102569642Y-68630952D02*
X102617261Y-68583333D01*
X102664880Y-68440476D01*
X102664880Y-68345238D01*
X102617261Y-68202380D01*
X102522023Y-68107142D01*
X102426785Y-68059523D01*
X102236309Y-68011904D01*
X102093452Y-68011904D01*
X101902976Y-68059523D01*
X101807738Y-68107142D01*
X101712500Y-68202380D01*
X101664880Y-68345238D01*
X101664880Y-68440476D01*
X101712500Y-68583333D01*
X101760119Y-68630952D01*
X101998214Y-69488095D02*
X102664880Y-69488095D01*
X101617261Y-69250000D02*
X102331547Y-69011904D01*
X102331547Y-69630952D01*
X101664880Y-70202380D02*
X101664880Y-70297619D01*
X101712500Y-70392857D01*
X101760119Y-70440476D01*
X101855357Y-70488095D01*
X102045833Y-70535714D01*
X102283928Y-70535714D01*
X102474404Y-70488095D01*
X102569642Y-70440476D01*
X102617261Y-70392857D01*
X102664880Y-70297619D01*
X102664880Y-70202380D01*
X102617261Y-70107142D01*
X102569642Y-70059523D01*
X102474404Y-70011904D01*
X102283928Y-69964285D01*
X102045833Y-69964285D01*
X101855357Y-70011904D01*
X101760119Y-70059523D01*
X101712500Y-70107142D01*
X101664880Y-70202380D01*
X102664880Y-71488095D02*
X102664880Y-70916666D01*
X102664880Y-71202380D02*
X101664880Y-71202380D01*
X101807738Y-71107142D01*
X101902976Y-71011904D01*
X101950595Y-70916666D01*
X64754285Y-60452380D02*
X64754285Y-61261904D01*
X64706666Y-61357142D01*
X64659047Y-61404761D01*
X64563809Y-61452380D01*
X64373333Y-61452380D01*
X64278095Y-61404761D01*
X64230476Y-61357142D01*
X64182857Y-61261904D01*
X64182857Y-60452380D01*
X63278095Y-60785714D02*
X63278095Y-61452380D01*
X63516190Y-60404761D02*
X63754285Y-61119047D01*
X63135238Y-61119047D01*
X62563809Y-60452380D02*
X62468571Y-60452380D01*
X62373333Y-60500000D01*
X62325714Y-60547619D01*
X62278095Y-60642857D01*
X62230476Y-60833333D01*
X62230476Y-61071428D01*
X62278095Y-61261904D01*
X62325714Y-61357142D01*
X62373333Y-61404761D01*
X62468571Y-61452380D01*
X62563809Y-61452380D01*
X62659047Y-61404761D01*
X62706666Y-61357142D01*
X62754285Y-61261904D01*
X62801904Y-61071428D01*
X62801904Y-60833333D01*
X62754285Y-60642857D01*
X62706666Y-60547619D01*
X62659047Y-60500000D01*
X62563809Y-60452380D01*
X61849523Y-60547619D02*
X61801904Y-60500000D01*
X61706666Y-60452380D01*
X61468571Y-60452380D01*
X61373333Y-60500000D01*
X61325714Y-60547619D01*
X61278095Y-60642857D01*
X61278095Y-60738095D01*
X61325714Y-60880952D01*
X61897142Y-61452380D01*
X61278095Y-61452380D01*
X55202380Y-57630952D02*
X55202380Y-57154761D01*
X54202380Y-57154761D01*
X54535714Y-58392857D02*
X55202380Y-58392857D01*
X54154761Y-58154761D02*
X54869047Y-57916666D01*
X54869047Y-58535714D01*
X54202380Y-59107142D02*
X54202380Y-59202380D01*
X54250000Y-59297619D01*
X54297619Y-59345238D01*
X54392857Y-59392857D01*
X54583333Y-59440476D01*
X54821428Y-59440476D01*
X55011904Y-59392857D01*
X55107142Y-59345238D01*
X55154761Y-59297619D01*
X55202380Y-59202380D01*
X55202380Y-59107142D01*
X55154761Y-59011904D01*
X55107142Y-58964285D01*
X55011904Y-58916666D01*
X54821428Y-58869047D01*
X54583333Y-58869047D01*
X54392857Y-58916666D01*
X54297619Y-58964285D01*
X54250000Y-59011904D01*
X54202380Y-59107142D01*
X55202380Y-60392857D02*
X55202380Y-59821428D01*
X55202380Y-60107142D02*
X54202380Y-60107142D01*
X54345238Y-60011904D01*
X54440476Y-59916666D01*
X54488095Y-59821428D01*
X102869047Y-103052380D02*
X103202380Y-102576190D01*
X103440476Y-103052380D02*
X103440476Y-102052380D01*
X103059523Y-102052380D01*
X102964285Y-102100000D01*
X102916666Y-102147619D01*
X102869047Y-102242857D01*
X102869047Y-102385714D01*
X102916666Y-102480952D01*
X102964285Y-102528571D01*
X103059523Y-102576190D01*
X103440476Y-102576190D01*
X101916666Y-103052380D02*
X102488095Y-103052380D01*
X102202380Y-103052380D02*
X102202380Y-102052380D01*
X102297619Y-102195238D01*
X102392857Y-102290476D01*
X102488095Y-102338095D01*
X101297619Y-102052380D02*
X101202380Y-102052380D01*
X101107142Y-102100000D01*
X101059523Y-102147619D01*
X101011904Y-102242857D01*
X100964285Y-102433333D01*
X100964285Y-102671428D01*
X101011904Y-102861904D01*
X101059523Y-102957142D01*
X101107142Y-103004761D01*
X101202380Y-103052380D01*
X101297619Y-103052380D01*
X101392857Y-103004761D01*
X101440476Y-102957142D01*
X101488095Y-102861904D01*
X101535714Y-102671428D01*
X101535714Y-102433333D01*
X101488095Y-102242857D01*
X101440476Y-102147619D01*
X101392857Y-102100000D01*
X101297619Y-102052380D01*
X100583333Y-102147619D02*
X100535714Y-102100000D01*
X100440476Y-102052380D01*
X100202380Y-102052380D01*
X100107142Y-102100000D01*
X100059523Y-102147619D01*
X100011904Y-102242857D01*
X100011904Y-102338095D01*
X100059523Y-102480952D01*
X100630952Y-103052380D01*
X100011904Y-103052380D01*
X110426785Y-66452380D02*
X110426785Y-67261904D01*
X110379166Y-67357142D01*
X110331547Y-67404761D01*
X110236309Y-67452380D01*
X110045833Y-67452380D01*
X109950595Y-67404761D01*
X109902976Y-67357142D01*
X109855357Y-67261904D01*
X109855357Y-66452380D01*
X108950595Y-66785714D02*
X108950595Y-67452380D01*
X109188690Y-66404761D02*
X109426785Y-67119047D01*
X108807738Y-67119047D01*
X108236309Y-66452380D02*
X108141071Y-66452380D01*
X108045833Y-66500000D01*
X107998214Y-66547619D01*
X107950595Y-66642857D01*
X107902976Y-66833333D01*
X107902976Y-67071428D01*
X107950595Y-67261904D01*
X107998214Y-67357142D01*
X108045833Y-67404761D01*
X108141071Y-67452380D01*
X108236309Y-67452380D01*
X108331547Y-67404761D01*
X108379166Y-67357142D01*
X108426785Y-67261904D01*
X108474404Y-67071428D01*
X108474404Y-66833333D01*
X108426785Y-66642857D01*
X108379166Y-66547619D01*
X108331547Y-66500000D01*
X108236309Y-66452380D01*
X106950595Y-67452380D02*
X107522023Y-67452380D01*
X107236309Y-67452380D02*
X107236309Y-66452380D01*
X107331547Y-66595238D01*
X107426785Y-66690476D01*
X107522023Y-66738095D01*
X57619047Y-73602380D02*
X57952380Y-73126190D01*
X58190476Y-73602380D02*
X58190476Y-72602380D01*
X57809523Y-72602380D01*
X57714285Y-72650000D01*
X57666666Y-72697619D01*
X57619047Y-72792857D01*
X57619047Y-72935714D01*
X57666666Y-73030952D01*
X57714285Y-73078571D01*
X57809523Y-73126190D01*
X58190476Y-73126190D01*
X56666666Y-73602380D02*
X57238095Y-73602380D01*
X56952380Y-73602380D02*
X56952380Y-72602380D01*
X57047619Y-72745238D01*
X57142857Y-72840476D01*
X57238095Y-72888095D01*
X56047619Y-72602380D02*
X55952380Y-72602380D01*
X55857142Y-72650000D01*
X55809523Y-72697619D01*
X55761904Y-72792857D01*
X55714285Y-72983333D01*
X55714285Y-73221428D01*
X55761904Y-73411904D01*
X55809523Y-73507142D01*
X55857142Y-73554761D01*
X55952380Y-73602380D01*
X56047619Y-73602380D01*
X56142857Y-73554761D01*
X56190476Y-73507142D01*
X56238095Y-73411904D01*
X56285714Y-73221428D01*
X56285714Y-72983333D01*
X56238095Y-72792857D01*
X56190476Y-72697619D01*
X56142857Y-72650000D01*
X56047619Y-72602380D01*
X54857142Y-72602380D02*
X55047619Y-72602380D01*
X55142857Y-72650000D01*
X55190476Y-72697619D01*
X55285714Y-72840476D01*
X55333333Y-73030952D01*
X55333333Y-73411904D01*
X55285714Y-73507142D01*
X55238095Y-73554761D01*
X55142857Y-73602380D01*
X54952380Y-73602380D01*
X54857142Y-73554761D01*
X54809523Y-73507142D01*
X54761904Y-73411904D01*
X54761904Y-73173809D01*
X54809523Y-73078571D01*
X54857142Y-73030952D01*
X54952380Y-72983333D01*
X55142857Y-72983333D01*
X55238095Y-73030952D01*
X55285714Y-73078571D01*
X55333333Y-73173809D01*
X104894047Y-75987142D02*
X104941666Y-76034761D01*
X105084523Y-76082380D01*
X105179761Y-76082380D01*
X105322619Y-76034761D01*
X105417857Y-75939523D01*
X105465476Y-75844285D01*
X105513095Y-75653809D01*
X105513095Y-75510952D01*
X105465476Y-75320476D01*
X105417857Y-75225238D01*
X105322619Y-75130000D01*
X105179761Y-75082380D01*
X105084523Y-75082380D01*
X104941666Y-75130000D01*
X104894047Y-75177619D01*
X104036904Y-75415714D02*
X104036904Y-76082380D01*
X104275000Y-75034761D02*
X104513095Y-75749047D01*
X103894047Y-75749047D01*
X103322619Y-75082380D02*
X103227380Y-75082380D01*
X103132142Y-75130000D01*
X103084523Y-75177619D01*
X103036904Y-75272857D01*
X102989285Y-75463333D01*
X102989285Y-75701428D01*
X103036904Y-75891904D01*
X103084523Y-75987142D01*
X103132142Y-76034761D01*
X103227380Y-76082380D01*
X103322619Y-76082380D01*
X103417857Y-76034761D01*
X103465476Y-75987142D01*
X103513095Y-75891904D01*
X103560714Y-75701428D01*
X103560714Y-75463333D01*
X103513095Y-75272857D01*
X103465476Y-75177619D01*
X103417857Y-75130000D01*
X103322619Y-75082380D01*
X102655952Y-75082380D02*
X102036904Y-75082380D01*
X102370238Y-75463333D01*
X102227380Y-75463333D01*
X102132142Y-75510952D01*
X102084523Y-75558571D01*
X102036904Y-75653809D01*
X102036904Y-75891904D01*
X102084523Y-75987142D01*
X102132142Y-76034761D01*
X102227380Y-76082380D01*
X102513095Y-76082380D01*
X102608333Y-76034761D01*
X102655952Y-75987142D01*
X57869047Y-86602380D02*
X58202380Y-86126190D01*
X58440476Y-86602380D02*
X58440476Y-85602380D01*
X58059523Y-85602380D01*
X57964285Y-85650000D01*
X57916666Y-85697619D01*
X57869047Y-85792857D01*
X57869047Y-85935714D01*
X57916666Y-86030952D01*
X57964285Y-86078571D01*
X58059523Y-86126190D01*
X58440476Y-86126190D01*
X56916666Y-86602380D02*
X57488095Y-86602380D01*
X57202380Y-86602380D02*
X57202380Y-85602380D01*
X57297619Y-85745238D01*
X57392857Y-85840476D01*
X57488095Y-85888095D01*
X56297619Y-85602380D02*
X56202380Y-85602380D01*
X56107142Y-85650000D01*
X56059523Y-85697619D01*
X56011904Y-85792857D01*
X55964285Y-85983333D01*
X55964285Y-86221428D01*
X56011904Y-86411904D01*
X56059523Y-86507142D01*
X56107142Y-86554761D01*
X56202380Y-86602380D01*
X56297619Y-86602380D01*
X56392857Y-86554761D01*
X56440476Y-86507142D01*
X56488095Y-86411904D01*
X56535714Y-86221428D01*
X56535714Y-85983333D01*
X56488095Y-85792857D01*
X56440476Y-85697619D01*
X56392857Y-85650000D01*
X56297619Y-85602380D01*
X55059523Y-85602380D02*
X55535714Y-85602380D01*
X55583333Y-86078571D01*
X55535714Y-86030952D01*
X55440476Y-85983333D01*
X55202380Y-85983333D01*
X55107142Y-86030952D01*
X55059523Y-86078571D01*
X55011904Y-86173809D01*
X55011904Y-86411904D01*
X55059523Y-86507142D01*
X55107142Y-86554761D01*
X55202380Y-86602380D01*
X55440476Y-86602380D01*
X55535714Y-86554761D01*
X55583333Y-86507142D01*
X113082380Y-99714285D02*
X113796666Y-99714285D01*
X113939523Y-99666666D01*
X114034761Y-99571428D01*
X114082380Y-99428571D01*
X114082380Y-99333333D01*
X114082380Y-100714285D02*
X114082380Y-100142857D01*
X114082380Y-100428571D02*
X113082380Y-100428571D01*
X113225238Y-100333333D01*
X113320476Y-100238095D01*
X113368095Y-100142857D01*
X113082380Y-101333333D02*
X113082380Y-101428571D01*
X113130000Y-101523809D01*
X113177619Y-101571428D01*
X113272857Y-101619047D01*
X113463333Y-101666666D01*
X113701428Y-101666666D01*
X113891904Y-101619047D01*
X113987142Y-101571428D01*
X114034761Y-101523809D01*
X114082380Y-101428571D01*
X114082380Y-101333333D01*
X114034761Y-101238095D01*
X113987142Y-101190476D01*
X113891904Y-101142857D01*
X113701428Y-101095238D01*
X113463333Y-101095238D01*
X113272857Y-101142857D01*
X113177619Y-101190476D01*
X113130000Y-101238095D01*
X113082380Y-101333333D01*
X113082380Y-102523809D02*
X113082380Y-102333333D01*
X113130000Y-102238095D01*
X113177619Y-102190476D01*
X113320476Y-102095238D01*
X113510952Y-102047619D01*
X113891904Y-102047619D01*
X113987142Y-102095238D01*
X114034761Y-102142857D01*
X114082380Y-102238095D01*
X114082380Y-102428571D01*
X114034761Y-102523809D01*
X113987142Y-102571428D01*
X113891904Y-102619047D01*
X113653809Y-102619047D01*
X113558571Y-102571428D01*
X113510952Y-102523809D01*
X113463333Y-102428571D01*
X113463333Y-102238095D01*
X113510952Y-102142857D01*
X113558571Y-102095238D01*
X113653809Y-102047619D01*
X109831547Y-76107142D02*
X109879166Y-76154761D01*
X110022023Y-76202380D01*
X110117261Y-76202380D01*
X110260119Y-76154761D01*
X110355357Y-76059523D01*
X110402976Y-75964285D01*
X110450595Y-75773809D01*
X110450595Y-75630952D01*
X110402976Y-75440476D01*
X110355357Y-75345238D01*
X110260119Y-75250000D01*
X110117261Y-75202380D01*
X110022023Y-75202380D01*
X109879166Y-75250000D01*
X109831547Y-75297619D01*
X108974404Y-75535714D02*
X108974404Y-76202380D01*
X109212500Y-75154761D02*
X109450595Y-75869047D01*
X108831547Y-75869047D01*
X108260119Y-75202380D02*
X108164880Y-75202380D01*
X108069642Y-75250000D01*
X108022023Y-75297619D01*
X107974404Y-75392857D01*
X107926785Y-75583333D01*
X107926785Y-75821428D01*
X107974404Y-76011904D01*
X108022023Y-76107142D01*
X108069642Y-76154761D01*
X108164880Y-76202380D01*
X108260119Y-76202380D01*
X108355357Y-76154761D01*
X108402976Y-76107142D01*
X108450595Y-76011904D01*
X108498214Y-75821428D01*
X108498214Y-75583333D01*
X108450595Y-75392857D01*
X108402976Y-75297619D01*
X108355357Y-75250000D01*
X108260119Y-75202380D01*
X107545833Y-75297619D02*
X107498214Y-75250000D01*
X107402976Y-75202380D01*
X107164880Y-75202380D01*
X107069642Y-75250000D01*
X107022023Y-75297619D01*
X106974404Y-75392857D01*
X106974404Y-75488095D01*
X107022023Y-75630952D01*
X107593452Y-76202380D01*
X106974404Y-76202380D01*
X58619047Y-55107142D02*
X58666666Y-55154761D01*
X58809523Y-55202380D01*
X58904761Y-55202380D01*
X59047619Y-55154761D01*
X59142857Y-55059523D01*
X59190476Y-54964285D01*
X59238095Y-54773809D01*
X59238095Y-54630952D01*
X59190476Y-54440476D01*
X59142857Y-54345238D01*
X59047619Y-54250000D01*
X58904761Y-54202380D01*
X58809523Y-54202380D01*
X58666666Y-54250000D01*
X58619047Y-54297619D01*
X57761904Y-54535714D02*
X57761904Y-55202380D01*
X58000000Y-54154761D02*
X58238095Y-54869047D01*
X57619047Y-54869047D01*
X57047619Y-54202380D02*
X56952380Y-54202380D01*
X56857142Y-54250000D01*
X56809523Y-54297619D01*
X56761904Y-54392857D01*
X56714285Y-54583333D01*
X56714285Y-54821428D01*
X56761904Y-55011904D01*
X56809523Y-55107142D01*
X56857142Y-55154761D01*
X56952380Y-55202380D01*
X57047619Y-55202380D01*
X57142857Y-55154761D01*
X57190476Y-55107142D01*
X57238095Y-55011904D01*
X57285714Y-54821428D01*
X57285714Y-54583333D01*
X57238095Y-54392857D01*
X57190476Y-54297619D01*
X57142857Y-54250000D01*
X57047619Y-54202380D01*
X55857142Y-54535714D02*
X55857142Y-55202380D01*
X56095238Y-54154761D02*
X56333333Y-54869047D01*
X55714285Y-54869047D01*
X84607142Y-96880952D02*
X84654761Y-96833333D01*
X84702380Y-96690476D01*
X84702380Y-96595238D01*
X84654761Y-96452380D01*
X84559523Y-96357142D01*
X84464285Y-96309523D01*
X84273809Y-96261904D01*
X84130952Y-96261904D01*
X83940476Y-96309523D01*
X83845238Y-96357142D01*
X83750000Y-96452380D01*
X83702380Y-96595238D01*
X83702380Y-96690476D01*
X83750000Y-96833333D01*
X83797619Y-96880952D01*
X83702380Y-97785714D02*
X83702380Y-97309523D01*
X84178571Y-97261904D01*
X84130952Y-97309523D01*
X84083333Y-97404761D01*
X84083333Y-97642857D01*
X84130952Y-97738095D01*
X84178571Y-97785714D01*
X84273809Y-97833333D01*
X84511904Y-97833333D01*
X84607142Y-97785714D01*
X84654761Y-97738095D01*
X84702380Y-97642857D01*
X84702380Y-97404761D01*
X84654761Y-97309523D01*
X84607142Y-97261904D01*
X83702380Y-98452380D02*
X83702380Y-98547619D01*
X83750000Y-98642857D01*
X83797619Y-98690476D01*
X83892857Y-98738095D01*
X84083333Y-98785714D01*
X84321428Y-98785714D01*
X84511904Y-98738095D01*
X84607142Y-98690476D01*
X84654761Y-98642857D01*
X84702380Y-98547619D01*
X84702380Y-98452380D01*
X84654761Y-98357142D01*
X84607142Y-98309523D01*
X84511904Y-98261904D01*
X84321428Y-98214285D01*
X84083333Y-98214285D01*
X83892857Y-98261904D01*
X83797619Y-98309523D01*
X83750000Y-98357142D01*
X83702380Y-98452380D01*
X84702380Y-99738095D02*
X84702380Y-99166666D01*
X84702380Y-99452380D02*
X83702380Y-99452380D01*
X83845238Y-99357142D01*
X83940476Y-99261904D01*
X83988095Y-99166666D01*
X64690476Y-55702380D02*
X64690476Y-54702380D01*
X64452380Y-54702380D01*
X64309523Y-54750000D01*
X64214285Y-54845238D01*
X64166666Y-54940476D01*
X64119047Y-55130952D01*
X64119047Y-55273809D01*
X64166666Y-55464285D01*
X64214285Y-55559523D01*
X64309523Y-55654761D01*
X64452380Y-55702380D01*
X64690476Y-55702380D01*
X63261904Y-55035714D02*
X63261904Y-55702380D01*
X63500000Y-54654761D02*
X63738095Y-55369047D01*
X63119047Y-55369047D01*
X62547619Y-54702380D02*
X62452380Y-54702380D01*
X62357142Y-54750000D01*
X62309523Y-54797619D01*
X62261904Y-54892857D01*
X62214285Y-55083333D01*
X62214285Y-55321428D01*
X62261904Y-55511904D01*
X62309523Y-55607142D01*
X62357142Y-55654761D01*
X62452380Y-55702380D01*
X62547619Y-55702380D01*
X62642857Y-55654761D01*
X62690476Y-55607142D01*
X62738095Y-55511904D01*
X62785714Y-55321428D01*
X62785714Y-55083333D01*
X62738095Y-54892857D01*
X62690476Y-54797619D01*
X62642857Y-54750000D01*
X62547619Y-54702380D01*
X61261904Y-55702380D02*
X61833333Y-55702380D01*
X61547619Y-55702380D02*
X61547619Y-54702380D01*
X61642857Y-54845238D01*
X61738095Y-54940476D01*
X61833333Y-54988095D01*
X115632380Y-64739285D02*
X116346666Y-64739285D01*
X116489523Y-64691666D01*
X116584761Y-64596428D01*
X116632380Y-64453571D01*
X116632380Y-64358333D01*
X116632380Y-65739285D02*
X116632380Y-65167857D01*
X116632380Y-65453571D02*
X115632380Y-65453571D01*
X115775238Y-65358333D01*
X115870476Y-65263095D01*
X115918095Y-65167857D01*
X115632380Y-66358333D02*
X115632380Y-66453571D01*
X115680000Y-66548809D01*
X115727619Y-66596428D01*
X115822857Y-66644047D01*
X116013333Y-66691666D01*
X116251428Y-66691666D01*
X116441904Y-66644047D01*
X116537142Y-66596428D01*
X116584761Y-66548809D01*
X116632380Y-66453571D01*
X116632380Y-66358333D01*
X116584761Y-66263095D01*
X116537142Y-66215476D01*
X116441904Y-66167857D01*
X116251428Y-66120238D01*
X116013333Y-66120238D01*
X115822857Y-66167857D01*
X115727619Y-66215476D01*
X115680000Y-66263095D01*
X115632380Y-66358333D01*
X115632380Y-67596428D02*
X115632380Y-67120238D01*
X116108571Y-67072619D01*
X116060952Y-67120238D01*
X116013333Y-67215476D01*
X116013333Y-67453571D01*
X116060952Y-67548809D01*
X116108571Y-67596428D01*
X116203809Y-67644047D01*
X116441904Y-67644047D01*
X116537142Y-67596428D01*
X116584761Y-67548809D01*
X116632380Y-67453571D01*
X116632380Y-67215476D01*
X116584761Y-67120238D01*
X116537142Y-67072619D01*
X77585714Y-74782380D02*
X77585714Y-75496666D01*
X77633333Y-75639523D01*
X77728571Y-75734761D01*
X77871428Y-75782380D01*
X77966666Y-75782380D01*
X76585714Y-75782380D02*
X77157142Y-75782380D01*
X76871428Y-75782380D02*
X76871428Y-74782380D01*
X76966666Y-74925238D01*
X77061904Y-75020476D01*
X77157142Y-75068095D01*
X75633333Y-75782380D02*
X76204761Y-75782380D01*
X75919047Y-75782380D02*
X75919047Y-74782380D01*
X76014285Y-74925238D01*
X76109523Y-75020476D01*
X76204761Y-75068095D01*
X75252380Y-74877619D02*
X75204761Y-74830000D01*
X75109523Y-74782380D01*
X74871428Y-74782380D01*
X74776190Y-74830000D01*
X74728571Y-74877619D01*
X74680952Y-74972857D01*
X74680952Y-75068095D01*
X74728571Y-75210952D01*
X75300000Y-75782380D01*
X74680952Y-75782380D01*
D11*
X76275000Y-87380000D02*
X77605000Y-87380000D01*
X77605000Y-87380000D02*
X77605000Y-86050000D01*
X74945000Y-84780000D02*
X74945000Y-77100000D01*
X74945000Y-84780000D02*
X77605000Y-84780000D01*
X77605000Y-84780000D02*
X77605000Y-77100000D01*
X74945000Y-77100000D02*
X77605000Y-77100000D01*
X104697500Y-70011252D02*
X104697500Y-69488748D01*
X103227500Y-70011252D02*
X103227500Y-69488748D01*
X63920000Y-59810000D02*
X62160000Y-59810000D01*
X62160000Y-56740000D02*
X64590000Y-56740000D01*
X58610000Y-59352064D02*
X58610000Y-58147936D01*
X55890000Y-59352064D02*
X55890000Y-58147936D01*
X105200000Y-53500000D02*
G75*
G03*
X105200000Y-53500000I-1200000J0D01*
G01*
X125700000Y-51800000D02*
X122300000Y-51800000D01*
X122300000Y-55200000D02*
X125700000Y-55200000D01*
X122300000Y-51800000D02*
X122300000Y-55200000D01*
X125700000Y-55200000D02*
X125700000Y-51800000D01*
X101977064Y-103515000D02*
X101522936Y-103515000D01*
X101977064Y-104985000D02*
X101522936Y-104985000D01*
X109612500Y-71360000D02*
X107162500Y-71360000D01*
X107812500Y-68140000D02*
X109612500Y-68140000D01*
X115200000Y-53500000D02*
G75*
G03*
X115200000Y-53500000I-1200000J0D01*
G01*
X120200000Y-53500000D02*
G75*
G03*
X120200000Y-53500000I-1200000J0D01*
G01*
X56272936Y-72235000D02*
X56727064Y-72235000D01*
X56272936Y-70765000D02*
X56727064Y-70765000D01*
X103513748Y-74685000D02*
X104036252Y-74685000D01*
X103513748Y-73215000D02*
X104036252Y-73215000D01*
X56522936Y-85235000D02*
X56977064Y-85235000D01*
X56522936Y-83765000D02*
X56977064Y-83765000D01*
X115070000Y-102330000D02*
X116400000Y-102330000D01*
X117670000Y-99670000D02*
X132970000Y-99670000D01*
X115070000Y-101000000D02*
X115070000Y-102330000D01*
X117670000Y-99670000D02*
X117670000Y-102330000D01*
X117670000Y-102330000D02*
X132970000Y-102330000D01*
X132970000Y-99670000D02*
X132970000Y-102330000D01*
X100200000Y-53500000D02*
G75*
G03*
X100200000Y-53500000I-1200000J0D01*
G01*
X108973752Y-73265000D02*
X108451248Y-73265000D01*
X108973752Y-74735000D02*
X108451248Y-74735000D01*
X57761252Y-52265000D02*
X57238748Y-52265000D01*
X57761252Y-53735000D02*
X57238748Y-53735000D01*
X81515000Y-97738748D02*
X81515000Y-98261252D01*
X82985000Y-97738748D02*
X82985000Y-98261252D01*
X65250000Y-52250000D02*
X61350000Y-52250000D01*
X65250000Y-52250000D02*
X65250000Y-54250000D01*
X65250000Y-54250000D02*
X61350000Y-54250000D01*
X117620000Y-67355000D02*
X118950000Y-67355000D01*
X120220000Y-67355000D02*
X130440000Y-67355000D01*
X120220000Y-64695000D02*
X130440000Y-64695000D01*
X120220000Y-64695000D02*
X120220000Y-67355000D01*
X130440000Y-64695000D02*
X130440000Y-67355000D01*
X117620000Y-66025000D02*
X117620000Y-67355000D01*
X110200000Y-53500000D02*
G75*
G03*
X110200000Y-53500000I-1200000J0D01*
G01*
X77630000Y-71730000D02*
X77630000Y-61510000D01*
X74970000Y-74330000D02*
X76300000Y-74330000D01*
X74970000Y-71730000D02*
X74970000Y-61510000D01*
X74970000Y-61510000D02*
X77630000Y-61510000D01*
X74970000Y-71730000D02*
X77630000Y-71730000D01*
X74970000Y-73000000D02*
X74970000Y-74330000D01*
%LPC*%
D12*
X76275000Y-86050000D03*
D13*
X76275000Y-83510000D03*
X76275000Y-80970000D03*
X76275000Y-78430000D03*
D12*
X116380000Y-61000000D03*
D13*
X118920000Y-61000000D03*
X121460000Y-61000000D03*
X124000000Y-61000000D03*
X126540000Y-61000000D03*
X129080000Y-61000000D03*
X131620000Y-61000000D03*
D14*
X103962500Y-70787500D03*
X103962500Y-68712500D03*
D15*
X64750000Y-57300000D03*
X64750000Y-58250000D03*
X64750000Y-59200000D03*
X61330000Y-59200000D03*
X61330000Y-58250000D03*
X61330000Y-57300000D03*
D16*
X57250000Y-60237500D03*
X57250000Y-57262500D03*
D17*
X104000000Y-53500000D03*
D18*
X124000000Y-53500000D03*
D19*
X102750000Y-104250000D03*
X100750000Y-104250000D03*
D20*
X87215000Y-100900000D03*
X75785000Y-100900000D03*
D21*
X77055000Y-94550000D03*
D22*
X78325000Y-92010000D03*
X79595000Y-94550000D03*
X80865000Y-92010000D03*
X82135000Y-94550000D03*
X83405000Y-92010000D03*
X84675000Y-94550000D03*
X85945000Y-92010000D03*
X75175000Y-105980000D03*
X77715000Y-104280000D03*
X85285000Y-105980000D03*
X87825000Y-104280000D03*
D23*
X89375000Y-97850000D03*
X73625000Y-97850000D03*
D24*
X107362500Y-70700000D03*
X107362500Y-69750000D03*
X107362500Y-68800000D03*
X110062500Y-68800000D03*
X110062500Y-70700000D03*
D17*
X114000000Y-53500000D03*
X119000000Y-53500000D03*
D25*
X55500000Y-71500000D03*
X57500000Y-71500000D03*
D26*
X102737500Y-73950000D03*
X104812500Y-73950000D03*
D25*
X55750000Y-84500000D03*
X57750000Y-84500000D03*
D12*
X116400000Y-101000000D03*
D13*
X118940000Y-101000000D03*
X121480000Y-101000000D03*
X124020000Y-101000000D03*
X126560000Y-101000000D03*
X129100000Y-101000000D03*
X131640000Y-101000000D03*
D17*
X99000000Y-53500000D03*
D27*
X109750000Y-74000000D03*
X107675000Y-74000000D03*
D28*
X94450000Y-54400000D03*
D29*
X94450000Y-56400000D03*
D27*
X58537500Y-53000000D03*
X56462500Y-53000000D03*
D30*
X82250000Y-96962500D03*
X82250000Y-99037500D03*
D31*
X105500000Y-104120785D03*
D17*
X105500000Y-99120785D03*
D32*
X64650000Y-53250000D03*
X61350000Y-53250000D03*
D12*
X86290000Y-53250000D03*
D13*
X83750000Y-53250000D03*
X81210000Y-53250000D03*
X78670000Y-53250000D03*
X76130000Y-53250000D03*
D12*
X118950000Y-66025000D03*
D13*
X121490000Y-66025000D03*
X124030000Y-66025000D03*
X126570000Y-66025000D03*
X129110000Y-66025000D03*
D12*
X118950000Y-96225000D03*
D13*
X121490000Y-96225000D03*
X124030000Y-96225000D03*
X126570000Y-96225000D03*
X129110000Y-96225000D03*
D12*
X94275000Y-106000000D03*
D13*
X94275000Y-103460000D03*
X94275000Y-100920000D03*
X94275000Y-98380000D03*
X94275000Y-95840000D03*
X94275000Y-93300000D03*
X94275000Y-90760000D03*
D12*
X94285786Y-80512893D03*
D13*
X94285786Y-77972893D03*
X94285786Y-75432893D03*
X94285786Y-72892893D03*
X94285786Y-70352893D03*
X94285786Y-67812893D03*
D17*
X109000000Y-53500000D03*
D12*
X76300000Y-73000000D03*
D13*
X76300000Y-70460000D03*
X76300000Y-67920000D03*
X76300000Y-65380000D03*
X76300000Y-62840000D03*
D33*
X52880000Y-71610000D03*
X52880000Y-69070000D03*
X52880000Y-66530000D03*
X52880000Y-63990000D03*
X52880000Y-61450000D03*
X52880000Y-58910000D03*
X52880000Y-56370000D03*
X52880000Y-53830000D03*
X52880000Y-51290000D03*
X68120000Y-51290000D03*
X68120000Y-53830000D03*
X68120000Y-56370000D03*
X68120000Y-58910000D03*
X68120000Y-61450000D03*
X68120000Y-63990000D03*
X68120000Y-66530000D03*
X68120000Y-69070000D03*
X68120000Y-71610000D03*
X52880000Y-109710000D03*
X52880000Y-107170000D03*
X52880000Y-104630000D03*
X52880000Y-102090000D03*
X52880000Y-99550000D03*
X52880000Y-97010000D03*
X52880000Y-94470000D03*
X52880000Y-91930000D03*
X52880000Y-89390000D03*
X52880000Y-86850000D03*
X52880000Y-84310000D03*
X52880000Y-81770000D03*
X52880000Y-79230000D03*
X52880000Y-76690000D03*
X68120000Y-74150000D03*
X68120000Y-76690000D03*
X68120000Y-79230000D03*
X68120000Y-81770000D03*
X68120000Y-84310000D03*
X68120000Y-86850000D03*
X68120000Y-89390000D03*
X68120000Y-91930000D03*
X68120000Y-94470000D03*
X68120000Y-97010000D03*
X68120000Y-99550000D03*
X68120000Y-102090000D03*
X68120000Y-104630000D03*
D34*
X65070000Y-93200000D03*
X65070000Y-95740000D03*
X65070000Y-98280000D03*
X65070000Y-100820000D03*
X65070000Y-103360000D03*
D35*
X59330000Y-96740000D03*
X57330000Y-96740000D03*
X59330000Y-94740000D03*
X57330000Y-94740000D03*
X55330000Y-96740000D03*
X55330000Y-94740000D03*
D33*
X52880000Y-74150000D03*
X57960000Y-63990000D03*
X55420000Y-107170000D03*
X55420000Y-63990000D03*
X60500000Y-63990000D03*
X63040000Y-63990000D03*
X65580000Y-63990000D03*
X68120000Y-107170000D03*
X68120000Y-109710000D03*
M02*
